<svg width="18" height="18" viewBox="0 0 18 18" fill="none" xmlns="http://www.w3.org/2000/svg">
<g clip-path="url(#clip0_2064_8067)">
<path d="M14.8093 15.749C14.0931 16.8649 13.3338 17.9538 12.1776 17.9718C11.0214 17.9988 10.6504 17.2609 9.33892 17.2609C8.01878 17.2609 7.61325 17.9538 6.51745 17.9988C5.38714 18.0438 4.53293 16.8109 3.80815 15.722C2.3327 13.4991 1.20239 9.40438 2.72098 6.65056C3.47164 5.28265 4.81766 4.41871 6.27585 4.39171C7.38028 4.37371 8.43294 5.17466 9.11458 5.17466C9.78759 5.17466 11.0646 4.21172 12.402 4.35571C12.9628 4.38271 14.5332 4.58969 15.5427 6.13759C15.465 6.19159 13.6703 7.28952 13.6876 9.56636C13.7135 12.2842 15.9741 13.1931 16 13.2021C15.9741 13.2651 15.6376 14.498 14.8093 15.749ZM9.8825 1.34991C10.5124 0.60296 11.5564 0.0359976 12.4192 0C12.5314 1.05293 12.1259 2.11486 11.5219 2.87081C10.9265 3.63576 9.9429 4.22972 8.97653 4.14872C8.8471 3.11379 9.33029 2.03386 9.8825 1.34991Z" fill="black"/>
</g>
<defs>
<clipPath id="clip0_2064_8067">
<rect width="18" height="18" fill="white"/>
</clipPath>
</defs>
</svg>
