<svg width="50" height="50" viewBox="0 0 50 50" fill="none" xmlns="http://www.w3.org/2000/svg">
<rect width="50" height="50" rx="8" fill="url(#paint0_linear_112_17665)"/>
<g clip-path="url(#clip0_112_17665)">
<path d="M35.8422 25.1427L32.796 20.4385C32.5599 20.0739 32.1596 19.8562 31.7252 19.8562H18.2848C17.8511 19.8562 17.4512 20.0734 17.215 20.437L14.1592 25.1418C13.847 25.6225 13.8952 26.2572 14.2766 26.6852L24.0471 37.6544C24.289 37.9259 24.6361 38.0816 24.9997 38.0816C24.9996 38.0816 24.9997 38.0816 24.9997 38.0816C25.3632 38.0816 25.7105 37.9259 25.9523 37.6545L35.724 26.6846C36.1048 26.2571 36.1534 25.6231 35.8422 25.1427ZM31.1081 20.9499L28.5462 24.9115L25.9828 20.9499H31.1081ZM27.5411 25.3715H22.4582L24.9997 21.4439L27.5411 25.3715ZM24.0166 20.95L21.4602 24.9007L18.9047 20.95H24.0166ZM17.8935 21.4004L20.4621 25.3715H15.3142L17.8935 21.4004ZM15.5452 26.4652H21.0493L23.9595 35.9117L15.5452 26.4652ZM24.9997 35.5731L22.1937 26.4652H27.8056L24.9997 35.5731ZM26.0398 35.912L28.9501 26.4653H34.4547L26.0398 35.912ZM29.5513 25.3715L32.1176 21.4031L34.6873 25.3715H29.5513Z" fill="white"/>
<path d="M12.6588 25.3715H11.5469C11.2449 25.3715 11 25.6163 11 25.9183C11 26.2204 11.2449 26.4652 11.5469 26.4652H12.6588C12.9608 26.4652 13.2057 26.2204 13.2057 25.9183C13.2057 25.6163 12.9608 25.3715 12.6588 25.3715Z" fill="white"/>
<path d="M38.4528 25.3715H37.3408C37.0388 25.3715 36.7939 25.6163 36.7939 25.9183C36.7939 26.2204 37.0388 26.4652 37.3408 26.4652H38.4528C38.7548 26.4652 38.9997 26.2204 38.9997 25.9183C38.9997 25.6163 38.7548 25.3715 38.4528 25.3715Z" fill="white"/>
<path d="M34.9064 16.0217C34.6928 15.8082 34.3466 15.8082 34.133 16.0217L32.3164 17.8383C32.1029 18.0518 32.1029 18.3981 32.3164 18.6117C32.4233 18.7185 32.5632 18.7719 32.7032 18.7719C32.8432 18.7719 32.9831 18.7184 33.0899 18.6117L34.9064 16.7951C35.12 16.5816 35.12 16.2353 34.9064 16.0217Z" fill="white"/>
<path d="M17.7071 17.8286L15.8906 16.012C15.6771 15.7984 15.331 15.7984 15.1172 16.012C14.9036 16.2255 14.9036 16.5718 15.1172 16.7854L16.9338 18.6019C17.0406 18.7087 17.1805 18.7621 17.3204 18.7621C17.4604 18.7621 17.6003 18.7087 17.7071 18.6019C17.9207 18.3884 17.9207 18.0421 17.7071 17.8286Z" fill="white"/>
<path d="M25.0137 11.9183C24.7117 11.9183 24.4668 12.1632 24.4668 12.4652V16.0291C24.4668 16.3311 24.7116 16.576 25.0137 16.576C25.3157 16.576 25.5605 16.3311 25.5605 16.0291V12.4652C25.5605 12.1632 25.3157 11.9183 25.0137 11.9183Z" fill="white"/>
<path d="M25.4003 17.4925C25.2986 17.3908 25.1575 17.3323 25.0137 17.3323C24.8698 17.3323 24.7287 17.3908 24.627 17.4925C24.5253 17.5942 24.4668 17.7353 24.4668 17.8792C24.4668 18.0235 24.5253 18.1641 24.627 18.2658C24.7287 18.3681 24.8698 18.426 25.0137 18.426C25.1575 18.426 25.2986 18.3681 25.4003 18.2658C25.5025 18.1641 25.5605 18.023 25.5605 17.8792C25.5605 17.7353 25.5025 17.5943 25.4003 17.4925Z" fill="white"/>
</g>
<defs>
<linearGradient id="paint0_linear_112_17665" x1="-30.4687" y1="-10.9375" x2="79.6875" y2="75.3906" gradientUnits="userSpaceOnUse">
<stop stop-color="#27AE60"/>
<stop offset="1" stop-color="#0052CC"/>
</linearGradient>
<clipPath id="clip0_112_17665">
<rect width="28" height="28" fill="white" transform="translate(11 11)"/>
</clipPath>
</defs>
</svg>
