<svg width="50" height="50" viewBox="0 0 50 50" fill="none" xmlns="http://www.w3.org/2000/svg">
<rect width="50" height="50" rx="8" fill="url(#paint0_linear_78_2653)"/>
<g clip-path="url(#clip0_78_2653)">
<path d="M22.6666 29.2764H27.3333C28.1065 29.2764 28.7333 28.6496 28.7333 27.8764V23.6764C28.7333 22.9032 28.1065 22.2764 27.3333 22.2764V21.3431C27.3333 20.0544 26.2886 19.0098 24.9999 19.0098C23.7113 19.0098 22.6666 20.0544 22.6666 21.3431V22.2764C21.8934 22.2764 21.2666 22.9032 21.2666 23.6764V27.8764C21.2666 28.6496 21.8934 29.2764 22.6666 29.2764ZM23.5999 21.3431C23.5999 20.5699 24.2267 19.9431 24.9999 19.9431C25.7731 19.9431 26.3999 20.5699 26.3999 21.3431V22.2764H23.5999V21.3431ZM22.1999 23.6764C22.1999 23.4187 22.4089 23.2098 22.6666 23.2098H27.3333C27.591 23.2098 27.7999 23.4187 27.7999 23.6764V27.8764C27.7999 28.1342 27.591 28.3431 27.3333 28.3431H22.6666C22.4089 28.3431 22.1999 28.1342 22.1999 27.8764V23.6764Z" fill="white"/>
<path d="M24.5331 26.8576V26.9435C24.5331 27.2012 24.742 27.4102 24.9997 27.4102C25.2575 27.4102 25.4664 27.2012 25.4664 26.9435V26.8576C26.1093 26.6303 26.4949 25.973 26.3796 25.301C26.2643 24.6289 25.6816 24.1377 24.9997 24.1377C24.3179 24.1377 23.7352 24.6289 23.6199 25.301C23.5046 25.973 23.8902 26.6303 24.5331 26.8576ZM24.9997 25.0768C25.2575 25.0768 25.4664 25.2858 25.4664 25.5435C25.4664 25.8012 25.2575 26.0102 24.9997 26.0102C24.742 26.0102 24.5331 25.8012 24.5331 25.5435C24.5331 25.2858 24.742 25.0768 24.9997 25.0768Z" fill="white"/>
<path d="M17.0664 24.6101C17.0664 28.9916 20.6183 32.5434 24.9997 32.5434C29.3812 32.5434 32.9331 28.9916 32.9331 24.6101C32.9331 20.2286 29.3812 16.6768 24.9997 16.6768C20.6203 16.6816 17.0713 20.2307 17.0664 24.6101ZM24.9997 17.6101C28.8657 17.6101 31.9997 20.7441 31.9997 24.6101C31.9997 28.4761 28.8657 31.6101 24.9997 31.6101C21.1337 31.6101 17.9997 28.4761 17.9997 24.6101C18.0041 20.7459 21.1356 17.6145 24.9997 17.6101Z" fill="white"/>
<path d="M34.3333 34.8766C33.4847 34.8798 32.745 35.455 32.5329 36.2766H29.1999V33.4556C30.2433 32.9645 31.1913 32.2922 31.9999 31.47C32.1195 31.3515 32.1659 31.1778 32.1215 31.0155C32.0771 30.8531 31.9488 30.7272 31.7856 30.6861C31.6224 30.6449 31.4496 30.6948 31.3335 30.8166C30.5412 31.6267 29.6006 32.2771 28.5629 32.7323C28.5003 32.7572 28.4439 32.7956 28.3977 32.8448C28.3926 32.8504 28.3898 32.8578 28.3847 32.8644C28.3505 32.9023 28.3229 32.9457 28.303 32.9927C28.2939 33.022 28.2878 33.0522 28.2848 33.0828C28.2761 33.1092 28.27 33.1364 28.2666 33.164V33.1724V36.2766C28.2666 36.7921 28.6845 37.21 29.1999 37.21H32.5329C32.777 38.1469 33.698 38.7407 34.6521 38.5764C35.6063 38.4122 36.2757 37.5446 36.1926 36.58C36.1094 35.6154 35.3014 34.8752 34.3333 34.8766ZM34.3333 37.6766C33.8178 37.6766 33.3999 37.2588 33.3999 36.7433C33.3999 36.2278 33.8178 35.81 34.3333 35.81C34.8487 35.81 35.2666 36.2278 35.2666 36.7433C35.2666 37.2588 34.8487 37.6766 34.3333 37.6766Z" fill="white"/>
<path d="M14.6672 29.7433H16.9222C16.9259 29.7433 16.9292 29.7409 16.9334 29.7409C16.9798 29.7388 17.0256 29.7296 17.0692 29.7134C17.0909 29.7063 17.1121 29.6975 17.1326 29.6873C17.1378 29.6845 17.1438 29.6835 17.149 29.6803C17.1541 29.677 17.162 29.6672 17.1695 29.6621C17.2118 29.636 17.2494 29.6028 17.2806 29.5641C17.2861 29.5569 17.2912 29.5494 17.296 29.5417C17.3262 29.4992 17.3489 29.4518 17.3632 29.4017C17.3632 29.3947 17.366 29.3877 17.3674 29.3807C17.3786 29.347 17.3859 29.312 17.3888 29.2766C17.3864 29.259 17.3828 29.2415 17.3781 29.2243C17.3781 29.2183 17.3781 29.2127 17.3748 29.2061C17.3669 29.1514 17.349 29.0986 17.3221 29.0503L17.3198 29.0428C16.8412 28.2168 16.5005 27.3184 16.3108 26.3828C16.2593 26.1302 16.0127 25.9672 15.7602 26.0188C15.5076 26.0703 15.3446 26.3169 15.3962 26.5695C15.5532 27.3437 15.8039 28.0959 16.1428 28.8095H14.6672C14.4322 27.8993 13.5571 27.3059 12.6246 27.4243C11.6921 27.5428 10.9932 28.3361 10.9932 29.2761C10.9932 30.2161 11.6921 31.0095 12.6246 31.1279C13.5571 31.2464 14.4322 30.6534 14.6672 29.7433ZM12.8668 30.2099C12.3514 30.2099 11.9335 29.7921 11.9335 29.2766C11.9335 28.7611 12.3514 28.3433 12.8668 28.3433C13.3823 28.3433 13.8002 28.7611 13.8002 29.2766C13.8002 29.7921 13.3823 30.2099 12.8668 30.2099Z" fill="white"/>
<path d="M11 19.9434C10.9988 20.8823 11.6964 21.6753 12.6278 21.7938C13.5591 21.9123 14.4331 21.3193 14.6671 20.4101H16.922H16.9346C16.9807 20.4075 17.0261 20.3982 17.0695 20.3826C17.09 20.376 17.1099 20.3679 17.1292 20.3583C17.1541 20.3452 17.1775 20.3295 17.1992 20.3116C17.2386 20.2819 17.2726 20.2458 17.3 20.2048C17.3061 20.1959 17.314 20.1894 17.3196 20.18C17.918 19.1416 18.721 18.2356 19.68 17.5168C19.8134 17.4167 19.8833 17.2531 19.8633 17.0876C19.8434 16.9221 19.7366 16.7798 19.5833 16.7143C19.43 16.6488 19.2534 16.6701 19.12 16.7701C18.1379 17.5099 17.3041 18.4281 16.6621 19.4768H14.6671C14.4331 18.5676 13.5591 17.9746 12.6278 18.0931C11.6964 18.2116 10.9988 19.0046 11 19.9434ZM13.8 19.9434C13.8 20.4589 13.3821 20.8768 12.8667 20.8768C12.3512 20.8768 11.9333 20.4589 11.9333 19.9434C11.9333 19.428 12.3512 19.0101 12.8667 19.0101C13.1142 19.0101 13.3516 19.1084 13.5266 19.2835C13.7017 19.4585 13.8 19.6959 13.8 19.9434Z" fill="white"/>
<path d="M37.1333 27.4102C36.2847 27.4134 35.5451 27.9885 35.3329 28.8102H33.8569C34.1961 28.0967 34.4468 27.3445 34.6035 26.5702C34.6551 26.3175 34.492 26.0708 34.2393 26.0193C33.9866 25.9677 33.7399 26.1308 33.6884 26.3835C33.4991 27.319 33.1586 28.2175 32.6804 29.0435V29.0496C32.6525 29.0989 32.6341 29.1531 32.6263 29.2092C32.6263 29.2143 32.6263 29.219 32.623 29.2241C32.6182 29.2415 32.6143 29.2591 32.6113 29.2768C32.6142 29.3135 32.6214 29.3497 32.6328 29.3846C32.6328 29.3907 32.6328 29.3968 32.6365 29.4028C32.651 29.4532 32.6742 29.5006 32.7051 29.5428C32.7098 29.5498 32.7135 29.5568 32.7187 29.5634C32.7503 29.6023 32.7881 29.6357 32.8307 29.6623C32.8381 29.6674 32.8428 29.6754 32.8507 29.68C32.8587 29.6847 32.8619 29.6842 32.8671 29.687C32.8878 29.6976 32.9093 29.7065 32.9315 29.7136C32.9748 29.7293 33.0203 29.7384 33.0663 29.7407C33.0705 29.7407 33.0738 29.743 33.078 29.743H35.3329C35.5769 30.6801 36.4978 31.2741 37.452 31.11C38.4063 30.9459 39.0758 30.0783 38.9927 29.1137C38.9096 28.149 38.1016 27.4087 37.1333 27.4102ZM37.1333 30.2102C36.6179 30.2102 36.2 29.7923 36.2 29.2768C36.2 28.7614 36.6179 28.3435 37.1333 28.3435C37.6488 28.3435 38.0667 28.7614 38.0667 29.2768C38.0667 29.7923 37.6488 30.2102 37.1333 30.2102Z" fill="white"/>
<path d="M21.7333 33.1718V33.1638C21.7303 33.1376 21.7252 33.1117 21.7179 33.0864C21.7146 33.0547 21.7082 33.0234 21.6988 32.993C21.6791 32.9468 21.652 32.904 21.6185 32.8666C21.6124 32.8596 21.6096 32.8512 21.6036 32.8446C21.5573 32.7954 21.5007 32.757 21.4379 32.7322C20.2163 32.193 19.1311 31.3871 18.2618 30.3736C18.1548 30.242 17.9849 30.1787 17.818 30.2084C17.651 30.238 17.5132 30.3559 17.4582 30.5163C17.4031 30.6767 17.4394 30.8543 17.5529 30.9803C18.4503 32.0249 19.5564 32.8703 20.8 33.462V36.2765H17.467C17.232 35.3663 16.3569 34.7729 15.4244 34.8914C14.4919 35.0098 13.793 35.8032 13.793 36.7432C13.793 37.6831 14.4919 38.4765 15.4244 38.5949C16.3569 38.7134 17.232 38.12 17.467 37.2098H20.8C21.3154 37.2098 21.7333 36.792 21.7333 36.2765V33.1718ZM15.6666 37.6765C15.1512 37.6765 14.7333 37.2586 14.7333 36.7432C14.7333 36.2277 15.1512 35.8098 15.6666 35.8098C16.1821 35.8098 16.6 36.2277 16.6 36.7432C16.6 37.2586 16.1821 37.6765 15.6666 37.6765Z" fill="white"/>
<path d="M26.7739 33.2994C25.6034 33.5345 24.3978 33.5345 23.2273 33.2994C23.0622 33.2615 22.8895 33.3161 22.7761 33.442C22.6628 33.5679 22.6265 33.7453 22.6815 33.9056C22.7364 34.0658 22.8739 34.1837 23.0406 34.2136C23.5332 34.3093 24.0325 34.3672 24.5339 34.3868V38.1434C24.5339 38.4012 24.7429 38.6101 25.0006 38.6101C25.2583 38.6101 25.4673 38.4012 25.4673 38.1434V34.3868C25.9687 34.3673 26.468 34.3094 26.9606 34.2136C27.2075 34.157 27.3642 33.9136 27.3135 33.6654C27.2628 33.4172 27.0233 33.2547 26.7739 33.2994Z" fill="white"/>
<path d="M20.8 12.01H17.467C17.232 11.0999 16.3569 10.5064 15.4244 10.6249C14.4919 10.7433 13.793 11.5367 13.793 12.4767C13.793 13.4167 14.4919 14.21 15.4244 14.3285C16.3569 14.4469 17.232 13.8535 17.467 12.9433H20.8V16.0569C20.8 16.0756 20.8088 16.0938 20.8112 16.1125C20.816 16.1608 20.8285 16.208 20.848 16.2525C20.8674 16.2941 20.8932 16.3323 20.9246 16.3659C20.9402 16.3828 20.9572 16.3984 20.9754 16.4125C20.9983 16.4312 21.0228 16.4478 21.0487 16.462C21.0703 16.474 21.0927 16.4843 21.1159 16.4928C21.1493 16.5034 21.1837 16.5103 21.2186 16.5133C21.2339 16.5175 21.2495 16.5208 21.2652 16.5231C21.3321 16.5217 21.3979 16.5058 21.458 16.4765C22.0265 16.23 22.6193 16.0438 23.2266 15.9211C23.4793 15.8696 23.6424 15.6229 23.5909 15.3702C23.5393 15.1175 23.2927 14.9545 23.04 15.006C22.5965 15.0967 22.1598 15.2184 21.7333 15.37V12.9433C21.7333 12.4279 21.3154 12.01 20.8 12.01ZM15.6666 13.41C15.1512 13.41 14.7333 12.9921 14.7333 12.4767C14.7333 11.9612 15.1512 11.5433 15.6666 11.5433C16.1821 11.5433 16.6 11.9612 16.6 12.4767C16.6 12.7242 16.5016 12.9616 16.3266 13.1366C16.1516 13.3117 15.9142 13.41 15.6666 13.41Z" fill="white"/>
<path d="M32.5329 12.9433C32.7679 13.8535 33.643 14.4469 34.5755 14.3285C35.508 14.21 36.2069 13.4167 36.2069 12.4767C36.2069 11.5367 35.508 10.7433 34.5755 10.6249C33.643 10.5064 32.7679 11.0999 32.5329 12.01H29.1999C28.6845 12.01 28.2666 12.4279 28.2666 12.9433V16.0471V16.0555C28.2694 16.0831 28.2749 16.1103 28.2829 16.1367C28.2859 16.1673 28.292 16.1975 28.3011 16.2268C28.3211 16.2738 28.3487 16.3172 28.3828 16.3551C28.3879 16.3612 28.3907 16.3691 28.3959 16.3747C28.442 16.4239 28.4984 16.4623 28.5611 16.4872C29.5986 16.9418 30.5391 17.5913 31.3317 18.4005C31.4461 18.5277 31.621 18.5821 31.7873 18.5422C31.9537 18.5023 32.0849 18.3746 32.1293 18.2093C32.1736 18.0441 32.124 17.8678 31.9999 17.75C31.1913 16.9278 30.2433 16.2555 29.1999 15.7643V12.9433H32.5329ZM34.3333 11.5433C34.8487 11.5433 35.2666 11.9612 35.2666 12.4767C35.2666 12.9921 34.8487 13.41 34.3333 13.41C33.8178 13.41 33.3999 12.9921 33.3999 12.4767C33.3999 11.9612 33.8178 11.5433 34.3333 11.5433Z" fill="white"/>
<path d="M24.9999 10.6099C24.7421 10.6099 24.5332 10.8188 24.5332 11.0765V15.2765C24.5332 15.5343 24.7421 15.7432 24.9999 15.7432C25.5954 15.7431 26.1895 15.8025 26.7732 15.9205C26.8039 15.9268 26.8352 15.93 26.8665 15.9299C27.1054 15.929 27.305 15.7478 27.3291 15.5101C27.3531 15.2725 27.1937 15.055 26.9599 15.0063C26.4672 14.9106 25.968 14.8527 25.4665 14.8332V11.0765C25.4665 10.8188 25.2576 10.6099 24.9999 10.6099Z" fill="white"/>
<path d="M35.3329 20.4101C35.5679 21.3203 36.443 21.9137 37.3755 21.7953C38.308 21.6768 39.007 20.8835 39.007 19.9435C39.007 19.0035 38.308 18.2101 37.3755 18.0917C36.443 17.9732 35.5679 18.5667 35.3329 19.4768H33.078C33.0691 19.4768 33.0621 19.4815 33.0537 19.4815C33.0267 19.4844 33 19.4899 32.9739 19.4978C32.9356 19.5054 32.8984 19.5179 32.8633 19.5351C32.8596 19.5351 32.8549 19.5351 32.8507 19.5398C32.8465 19.5445 32.8386 19.5524 32.8307 19.5575C32.7881 19.5841 32.7503 19.6175 32.7187 19.6565C32.7135 19.663 32.7098 19.67 32.7051 19.677C32.6742 19.7193 32.651 19.7667 32.6365 19.817C32.6365 19.8231 32.6365 19.8291 32.6328 19.8352C32.6213 19.8703 32.6141 19.9066 32.6113 19.9435C32.6138 19.9614 32.6172 19.9791 32.6216 19.9967C32.6216 20.0018 32.6239 20.0065 32.6249 20.0116C32.6327 20.0677 32.6511 20.1219 32.679 20.1712V20.1773C33.4573 21.525 33.8669 23.0539 33.8667 24.6101C33.8667 24.8679 34.0756 25.0768 34.3333 25.0768H38.5333C38.7911 25.0768 39 24.8679 39 24.6101C39 24.3524 38.7911 24.1435 38.5333 24.1435H34.7846C34.7234 22.8495 34.4062 21.5806 33.8513 20.4101H35.3329ZM37.1333 19.0101C37.6488 19.0101 38.0667 19.428 38.0667 19.9435C38.0667 20.4589 37.6488 20.8768 37.1333 20.8768C36.6179 20.8768 36.2 20.4589 36.2 19.9435C36.2 19.428 36.6179 19.0101 37.1333 19.0101Z" fill="white"/>
<path d="M11.4667 25.0766H15.6667C15.9244 25.0766 16.1333 24.8677 16.1333 24.61C16.1323 23.667 16.2818 22.73 16.5762 21.8342C16.6283 21.6758 16.5919 21.5017 16.4808 21.3774C16.3697 21.2531 16.2007 21.1975 16.0375 21.2315C15.8743 21.2656 15.7416 21.3842 15.6895 21.5426C15.4154 22.3841 15.2568 23.259 15.2182 24.1433H11.4667C11.2089 24.1433 11 24.3522 11 24.61C11 24.8677 11.2089 25.0766 11.4667 25.0766Z" fill="white"/>
</g>
<defs>
<linearGradient id="paint0_linear_78_2653" x1="-30.4687" y1="-10.9375" x2="79.6875" y2="75.3906" gradientUnits="userSpaceOnUse">
<stop stop-color="#27AE60"/>
<stop offset="1" stop-color="#0052CC"/>
</linearGradient>
<clipPath id="clip0_78_2653">
<rect width="28" height="28" fill="white" transform="translate(11 10.6099)"/>
</clipPath>
</defs>
</svg>
