<svg width="50" height="50" viewBox="0 0 50 50" fill="none" xmlns="http://www.w3.org/2000/svg">
<rect width="50" height="50" rx="8" fill="#27AE60"/>
<g clip-path="url(#clip0_78_1826)">
<path d="M11.7578 25C11.7578 17.6982 17.6982 11.7578 25 11.7578C27.7461 11.7578 30.365 12.5905 32.5701 14.136H30.8665C30.3811 14.136 29.9876 14.5295 29.9876 15.0149C29.9876 15.5003 30.3811 15.8938 30.8665 15.8938H34.9852C35.4706 15.8938 35.8641 15.5003 35.8641 15.0149V10.8962C35.8641 10.4108 35.4706 10.0173 34.9852 10.0173C34.4998 10.0173 34.1063 10.4108 34.1063 10.8962V13.084C31.5031 11.0839 28.3346 10 25 10C20.9934 10 17.2265 11.5603 14.3934 14.3934C11.5603 17.2265 10 20.9934 10 25C10 27.6321 10.6956 30.2255 12.0115 32.4999C12.1744 32.7815 12.4696 32.9388 12.7731 32.9388C12.9225 32.9388 13.0739 32.9006 13.2125 32.8204C13.6326 32.5773 13.7761 32.0397 13.533 31.6195C12.3717 29.6124 11.7578 27.3234 11.7578 25Z" fill="white"/>
<path d="M37.9883 17.4999C37.7451 17.0797 37.2073 16.9363 36.7873 17.1794C36.3672 17.4225 36.2237 17.9601 36.4668 18.3803C37.6281 20.3873 38.242 22.6763 38.242 24.9998C38.242 32.3015 32.3016 38.2419 24.9998 38.2419C22.2539 38.2419 19.6355 37.409 17.4306 35.8638H19.1333C19.6187 35.8638 20.0122 35.4703 20.0122 34.9849C20.0122 34.4995 19.6187 34.106 19.1333 34.106H15.0146C14.5293 34.106 14.1357 34.4995 14.1357 34.9849V39.1036C14.1357 39.589 14.5293 39.9825 15.0146 39.9825C15.5 39.9825 15.8936 39.589 15.8936 39.1036V36.9136C18.4966 38.9143 21.6648 39.9998 24.9998 39.9998C29.0064 39.9998 32.7732 38.4395 35.6064 35.6064C38.4395 32.7732 39.9998 29.0064 39.9998 24.9998C39.9998 22.3676 39.3042 19.7741 37.9883 17.4999Z" fill="white"/>
<path d="M32.8176 23.2342C32.8779 23.009 32.8463 22.7691 32.7297 22.5672L30.9719 19.5226C30.8554 19.3207 30.6634 19.1734 30.4383 19.1131C30.2131 19.0528 29.9732 19.0843 29.7714 19.2009L28.7708 19.7786C28.415 19.5204 28.0362 19.3009 27.6371 19.1218V17.9688C27.6371 17.4834 27.2436 17.0898 26.7582 17.0898H23.2426C22.7572 17.0898 22.3637 17.4834 22.3637 17.9688V19.1218C21.9647 19.3009 21.5859 19.5204 21.23 19.7785L20.2295 19.2009C20.0276 19.0843 19.7875 19.0527 19.5626 19.113C19.3374 19.1733 19.1454 19.3206 19.0289 19.5225L17.2711 22.5672C17.1545 22.769 17.123 23.009 17.1832 23.2341C17.2436 23.4593 17.3909 23.6512 17.5928 23.7678L18.5884 24.3426C18.5662 24.5608 18.5551 24.7804 18.5551 25C18.5551 25.2196 18.5662 25.4392 18.5884 25.6573L17.5928 26.2321C17.3909 26.3487 17.2436 26.5407 17.1832 26.7658C17.123 26.991 17.1545 27.2308 17.2711 27.4327L19.0289 30.4773C19.1454 30.6792 19.3374 30.8265 19.5626 30.8869C19.7878 30.9473 20.0277 30.9156 20.2295 30.799L21.23 30.2213C21.5859 30.4796 21.9647 30.699 22.3637 30.8781V32.0312C22.3637 32.5166 22.7572 32.9102 23.2426 32.9102H26.7582C27.2436 32.9102 27.6371 32.5166 27.6371 32.0312V30.8782C28.0362 30.6991 28.4149 30.4796 28.7708 30.2215L29.7714 30.7991C29.9731 30.9157 30.2132 30.9473 30.4383 30.887C30.6634 30.8267 30.8554 30.6794 30.9719 30.4775L32.7297 27.4328C32.8463 27.231 32.8779 26.991 32.8176 26.7659C32.7572 26.5407 32.6099 26.3488 32.4081 26.2322L31.4124 25.6574C31.4346 25.4392 31.4457 25.2196 31.4457 25C31.4457 24.7804 31.4346 24.5608 31.4124 24.3427L32.4081 23.7679C32.6099 23.6513 32.7572 23.4593 32.8176 23.2342ZM29.5931 24.0569C29.656 24.3653 29.6879 24.6826 29.6879 25C29.6879 25.3174 29.656 25.6347 29.5931 25.9431C29.5173 26.3137 29.6872 26.6911 30.0147 26.8802L30.768 27.315L29.8891 28.8373L29.1295 28.3988C28.8019 28.2096 28.3897 28.2514 28.1066 28.5026C27.6273 28.9281 27.0802 29.245 26.4805 29.4447C26.1215 29.5642 25.8793 29.9001 25.8793 30.2786V31.1523H24.1214V30.2786C24.1214 29.9002 23.8792 29.5642 23.5202 29.4447C22.9205 29.245 22.3734 28.9281 21.8941 28.5026C21.6111 28.2513 21.1989 28.2096 20.8712 28.3988L20.1116 28.8373L19.2327 27.315L19.986 26.8802C20.3135 26.6911 20.4834 26.3137 20.4077 25.9431C20.3448 25.6347 20.3129 25.3174 20.3129 25C20.3129 24.6826 20.3448 24.3653 20.4078 24.0569C20.4835 23.6863 20.3136 23.3089 19.9861 23.1198L19.2329 22.685L20.1118 21.1627L20.8713 21.6012C21.199 21.7905 21.6111 21.7487 21.8942 21.4974C22.3735 21.0719 22.9206 20.755 23.5203 20.5553C23.8793 20.4357 24.1216 20.0998 24.1216 19.7214V18.8477H25.8794V19.7214C25.8794 20.0998 26.1216 20.4357 26.4806 20.5553C27.0803 20.755 27.6274 21.0719 28.1067 21.4974C28.3898 21.7487 28.8019 21.7904 29.1296 21.6012L29.8892 21.1627L30.7681 22.685L30.0148 23.1198C29.6872 23.3089 29.5173 23.6863 29.5931 24.0569Z" fill="white"/>
<path d="M25 21.7773C23.223 21.7773 21.7773 23.223 21.7773 25C21.7773 26.777 23.223 28.2227 25 28.2227C26.777 28.2227 28.2227 26.777 28.2227 25C28.2227 23.223 26.777 21.7773 25 21.7773ZM25 26.4648C24.1923 26.4648 23.5352 25.8077 23.5352 25C23.5352 24.1923 24.1923 23.5352 25 23.5352C25.8077 23.5352 26.4648 24.1923 26.4648 25C26.4648 25.8077 25.8077 26.4648 25 26.4648Z" fill="white"/>
</g>
<defs>
<clipPath id="clip0_78_1826">
<rect width="30" height="30" fill="white" transform="translate(10 10)"/>
</clipPath>
</defs>
</svg>
