<svg width="50" height="50" viewBox="0 0 50 50" fill="none" xmlns="http://www.w3.org/2000/svg">
<rect width="50" height="50" rx="8" fill="url(#paint0_linear_112_17649)"/>
<path d="M38.7956 24.4582C38.7328 24.3867 37.228 22.6883 34.7912 20.975C28.3024 16.4126 21.9579 16.2296 15.2087 20.975C12.7719 22.6883 11.2672 24.3867 11.2044 24.4582C10.9319 24.768 10.9319 25.2319 11.2044 25.5417C11.2672 25.6132 12.7719 27.3116 15.2088 29.0249C21.6975 33.5872 28.0421 33.7703 34.7913 29.0249C37.2281 27.3116 38.7328 25.6132 38.7956 25.5417C39.0681 25.2319 39.0681 24.768 38.7956 24.4582ZM30.958 24.9999C30.958 28.2676 28.2633 30.8875 25 30.8875C21.7313 30.8875 19.042 28.2622 19.042 24.9999C19.042 21.7323 21.7367 19.1124 25 19.1124C28.2687 19.1124 30.958 21.7377 30.958 24.9999ZM12.9548 24.9999C14.5742 23.3816 16.6005 21.842 18.7202 20.766C16.978 23.2944 16.9443 26.6565 18.7202 29.2339C16.5899 28.1526 14.5645 26.6084 12.9548 24.9999ZM31.2797 29.2339C33.0219 26.7055 33.0556 23.3434 31.2797 20.766C33.41 21.8473 35.4354 23.3915 37.0451 24.9999C35.4291 26.6146 33.4037 28.1558 31.2797 29.2339Z" fill="white"/>
<path d="M25.8203 24.1797H26.3009L25 25.4805L23.9381 24.4186C23.618 24.0984 23.0982 24.0982 22.778 24.4186L21.1514 26.0452C20.831 26.3655 20.831 26.8849 21.1514 27.2053C21.4717 27.5257 21.9911 27.5256 22.3115 27.2053L23.358 26.1587L24.42 27.2206C24.7404 27.541 25.2597 27.541 25.5801 27.2206L27.461 25.3398V25.5469C27.461 25.9999 27.8283 26.3672 28.2813 26.3672C28.7343 26.3672 29.1016 25.9999 29.1016 25.5469V23.3594C29.1016 22.9063 28.7343 22.5391 28.2813 22.5391H25.8203C25.3673 22.5391 25 22.9063 25 23.3594C25 23.8124 25.3673 24.1797 25.8203 24.1797Z" fill="white"/>
<path d="M25 15.9219C25.453 15.9219 25.8203 15.5546 25.8203 15.1016V13.4609C25.8203 13.0079 25.453 12.6406 25 12.6406C24.547 12.6406 24.1797 13.0079 24.1797 13.4609V15.1016C24.1797 15.5546 24.547 15.9219 25 15.9219Z" fill="white"/>
<path d="M30.3595 17.3579C30.7502 17.5835 31.2526 17.4518 31.4801 17.0577L32.3004 15.6369C32.527 15.2446 32.3925 14.7428 32.0001 14.5164C31.6078 14.2897 31.1061 14.4242 30.8796 14.8166L30.0593 16.2374C29.8327 16.6297 29.9671 17.1314 30.3595 17.3579Z" fill="white"/>
<path d="M25 34.0234C24.547 34.0234 24.1797 34.3907 24.1797 34.8438V36.5391C24.1797 36.9921 24.547 37.3594 25 37.3594C25.453 37.3594 25.8203 36.9921 25.8203 36.5391V34.8438C25.8203 34.3907 25.453 34.0234 25 34.0234Z" fill="white"/>
<path d="M31.4527 32.8949C31.2262 32.5026 30.7245 32.3681 30.3322 32.5947C29.9398 32.8212 29.8054 33.3229 30.0319 33.7153L30.8796 35.1835C31.1068 35.577 31.609 35.7096 32.0001 35.4837C32.3925 35.2572 32.527 34.7555 32.3004 34.3631L31.4527 32.8949Z" fill="white"/>
<path d="M18.5202 17.0577C18.7475 17.4512 19.2496 17.5838 19.6408 17.3579C20.0332 17.1314 20.1676 16.6297 19.941 16.2373L19.1207 14.8166C18.8941 14.4241 18.3925 14.2898 18.0001 14.5163C17.6078 14.7428 17.4733 15.2446 17.6999 15.6369L18.5202 17.0577Z" fill="white"/>
<path d="M19.6681 32.5947C19.2758 32.368 18.774 32.5026 18.5476 32.895L17.6999 34.3632C17.4733 34.7555 17.6078 35.2572 18.0001 35.4837C18.3909 35.7094 18.8933 35.5774 19.1207 35.1835L19.9684 33.7153C20.1949 33.3229 20.0605 32.8212 19.6681 32.5947Z" fill="white"/>
<defs>
<linearGradient id="paint0_linear_112_17649" x1="-30.4687" y1="-10.9375" x2="79.6875" y2="75.3906" gradientUnits="userSpaceOnUse">
<stop stop-color="#27AE60"/>
<stop offset="1" stop-color="#0052CC"/>
</linearGradient>
</defs>
</svg>
