<svg width="50" height="50" viewBox="0 0 50 50" fill="none" xmlns="http://www.w3.org/2000/svg">
<rect width="50" height="50" rx="8" fill="url(#paint0_linear_78_2276)"/>
<g clip-path="url(#clip0_78_2276)">
<path d="M37.1896 12.3311H12.8104C11.8121 12.3311 11 13.1432 11 14.1414V35.8587C11 36.8569 11.8121 37.6691 12.8104 37.6691H37.1897C38.1879 37.6691 39.0001 36.857 39.0001 35.8587V14.1414C39 13.1432 38.1879 12.3311 37.1896 12.3311ZM12.0938 14.1414C12.0938 13.7463 12.4152 13.4248 12.8104 13.4248H37.1897C37.5848 13.4248 37.9063 13.7462 37.9063 14.1414V16.382H12.0938V14.1414ZM37.9062 35.8588C37.9062 36.2539 37.5848 36.5754 37.1896 36.5754H12.8104C12.4153 36.5754 12.0938 36.2539 12.0938 35.8588V17.4758H37.9062V35.8588Z" fill="white"/>
<path d="M13.779 14.4182C13.5449 14.4619 13.3657 14.6656 13.3416 14.9006C13.3173 15.1374 13.4578 15.368 13.6768 15.4589C14.1438 15.6527 14.6065 15.1332 14.365 14.6914C14.2525 14.4854 14.0095 14.3713 13.779 14.4182Z" fill="white"/>
<path d="M16.2764 14.4995C15.8639 14.2247 15.3133 14.6228 15.4459 15.0997C15.5085 15.3244 15.7129 15.4882 15.9462 15.5001C16.1791 15.5121 16.399 15.3673 16.4825 15.1504C16.5727 14.9161 16.4881 14.638 16.2764 14.4995Z" fill="white"/>
<path d="M18.6227 14.7452C18.4392 14.2972 17.7824 14.3086 17.6085 14.7561C17.4284 15.2197 17.9373 15.6688 18.3752 15.4359C18.6199 15.3058 18.7293 15.0012 18.6227 14.7452Z" fill="white"/>
<path d="M31.6568 27.9703C32.7815 27.9703 33.839 27.5322 34.6344 26.7368C35.4301 25.9418 35.8683 24.8842 35.8683 23.7588C35.8683 22.6341 35.4301 21.5765 34.6344 20.7808C33.8387 19.9857 32.7812 19.5479 31.6568 19.5479C30.5318 19.5479 29.4742 19.9858 28.679 20.781C27.8835 21.5765 27.4453 22.6341 27.4453 23.7588C27.4453 26.081 29.3346 27.9703 31.6568 27.9703ZM34.1642 21.9053C34.5604 22.4387 34.7746 23.0824 34.7746 23.7588C34.7746 24.3945 34.5789 25.0219 34.2138 25.5424L32.2037 23.5323V20.6901C32.9844 20.8275 33.6917 21.2691 34.1642 21.9053ZM29.4524 21.5544C29.91 21.0968 30.4852 20.7999 31.1099 20.6901V23.7588C31.1099 23.9039 31.1676 24.043 31.2701 24.1455L33.4403 26.3157C32.9208 26.6797 32.3041 26.8766 31.6568 26.8766C29.9376 26.8766 28.5391 25.4779 28.5391 23.7588C28.5391 22.9263 28.8634 22.1434 29.4524 21.5544Z" fill="white"/>
<path d="M27.9922 31.0906H35.3214C35.6234 31.0906 35.8683 30.8457 35.8683 30.5437C35.8683 30.2417 35.6234 29.9968 35.3214 29.9968H27.9922C27.6901 29.9968 27.4453 30.2417 27.4453 30.5437C27.4453 30.8457 27.6901 31.0906 27.9922 31.0906Z" fill="white"/>
<path d="M14.3359 31.0905H24.5078C24.8099 31.0905 25.0547 30.8457 25.0547 30.5436C25.0547 30.2416 24.8099 29.9967 24.5078 29.9967H23.7871V21.916C23.7871 21.614 23.5422 21.3691 23.2402 21.3691H20.5296C20.2275 21.3691 19.9827 21.614 19.9827 21.916V29.9967H18.586V25.4097C18.586 25.1077 18.3412 24.8629 18.0392 24.8629H15.3285C15.0264 24.8629 14.7816 25.1077 14.7816 25.4097V29.9967H14.3359C14.0339 29.9967 13.7891 30.2416 13.7891 30.5436C13.7891 30.8457 14.0339 31.0905 14.3359 31.0905ZM21.0764 22.4629H22.6933V29.9967H21.0764V22.4629ZM15.8753 25.9566H17.4923V29.9967H15.8753V25.9566Z" fill="white"/>
<path d="M35.3217 33.0752H16.8721C16.57 33.0752 16.3252 33.32 16.3252 33.6221C16.3252 33.9241 16.57 34.1689 16.8721 34.1689H35.3217C35.6237 34.1689 35.8685 33.9241 35.8685 33.6221C35.8685 33.32 35.6237 33.0752 35.3217 33.0752Z" fill="white"/>
<path d="M13.8314 33.8316C13.9213 34.0473 14.1432 34.1842 14.3763 34.1675C14.6042 34.1511 14.802 33.9879 14.8628 33.7679C14.9914 33.3025 14.4705 32.9059 14.0553 33.1535C13.8247 33.291 13.7301 33.5844 13.8314 33.8316Z" fill="white"/>
</g>
<defs>
<linearGradient id="paint0_linear_78_2276" x1="-30.4687" y1="-10.9375" x2="79.6875" y2="75.3906" gradientUnits="userSpaceOnUse">
<stop stop-color="#27AE60"/>
<stop offset="1" stop-color="#0052CC"/>
</linearGradient>
<clipPath id="clip0_78_2276">
<rect width="28" height="28" fill="white" transform="translate(11 11)"/>
</clipPath>
</defs>
</svg>
