<svg width="50" height="50" viewBox="0 0 50 50" fill="none" xmlns="http://www.w3.org/2000/svg">
<rect width="50" height="50" rx="8" fill="#27AE60"/>
<path d="M36.9337 14.8578L25.4494 10.0896C25.1617 9.97017 24.8383 9.97011 24.5506 10.0896L13.0663 14.8578C12.6289 15.0394 12.3438 15.4664 12.3438 15.9401V21.7364C12.3438 29.7177 17.1677 36.897 24.5571 39.9131C24.841 40.0289 25.159 40.0289 25.4429 39.9131C32.8322 36.897 37.6562 29.7177 37.6562 21.7364V15.9401C37.6562 15.4664 37.3712 15.0394 36.9337 14.8578ZM35.3125 21.7364C35.3125 28.5213 31.3281 34.7672 25 37.5552C18.841 34.8417 14.6875 28.7052 14.6875 21.7364V16.7224L25 12.4407L35.3125 16.7224V21.7364ZM23.7047 25.6865L28.7417 20.6496C29.1993 20.192 29.9413 20.1919 30.3989 20.6496C30.8566 21.1073 30.8566 21.8492 30.3989 22.3068L24.5334 28.1724C24.0756 28.6301 23.3337 28.6299 22.8761 28.1724L19.6011 24.8973C19.1434 24.4397 19.1434 23.6977 19.6011 23.2401C20.0587 22.7825 20.8007 22.7824 21.2583 23.2401L23.7047 25.6865Z" fill="white"/>
</svg>
