<svg width="50" height="50" viewBox="0 0 50 50" fill="none" xmlns="http://www.w3.org/2000/svg">
<rect width="50" height="50" rx="10" fill="#188C87"/>
<path d="M29.7259 24.0639C30.1213 23.6706 30.1213 23.0331 29.7259 22.6399C29.3304 22.2467 28.6895 22.2467 28.2941 22.6399L23.61 27.2982L21.6259 25.3251C21.2305 24.9319 20.5894 24.9319 20.194 25.3251C19.7986 25.7184 19.7986 26.3558 20.194 26.7491L22.8941 29.4343C23.0839 29.6232 23.3414 29.7292 23.61 29.7292C23.8785 29.7292 24.1361 29.6232 24.3259 29.4343L29.7259 24.0639Z" fill="white"/>
<path fill-rule="evenodd" clip-rule="evenodd" d="M27.8278 12.9114C26.0224 12.0137 23.8975 12.0137 22.0922 12.9114L15.1997 16.3387C13.9419 16.9641 13.1475 18.2426 13.1475 19.6411V29.7735C13.1475 31.9724 14.2864 34.0161 16.1613 35.1815L22.9923 39.4274C24.1961 40.1757 25.7238 40.1757 26.9276 39.4274L33.7586 35.1815C35.6335 34.0161 36.7725 31.9724 36.7725 29.7735V19.6411C36.7725 18.2426 35.978 16.9641 34.7202 16.3387L27.8278 12.9114ZM22.9979 14.7126C24.233 14.0984 25.6869 14.0984 26.9221 14.7126L33.8146 18.14C34.3863 18.4243 34.7475 19.0054 34.7475 19.6411V29.7735C34.7475 31.278 33.9681 32.6763 32.6853 33.4737L25.8543 37.7197C25.3072 38.0597 24.6127 38.0597 24.0656 37.7197L17.2346 33.4737C15.9518 32.6763 15.1725 31.278 15.1725 29.7735V19.6411C15.1725 19.0054 15.5336 18.4243 16.1053 18.14L22.9979 14.7126Z" fill="white"/>
</svg>
