<svg width="50" height="50" viewBox="0 0 50 50" fill="none" xmlns="http://www.w3.org/2000/svg">
<rect width="50" height="50" rx="10" fill="#188C87"/>
<g clip-path="url(#clip0_0_6)">
<path d="M40 25C40 20.9934 38.4397 17.2265 35.6066 14.3934C32.7735 11.5603 29.0066 10 25 10C22.0612 10 19.2518 10.8405 16.8449 12.4059C16.3594 11.9589 15.712 11.6853 15.0016 11.6853C13.4997 11.6853 12.2778 12.9072 12.2778 14.4092C12.2778 15.0638 12.51 15.6653 12.8964 16.1355C11.0162 18.6914 10 21.7675 10 25C10 29.0066 11.5603 32.7735 14.3934 35.6066C17.2265 38.4397 20.9934 40 25 40C27.9388 40 30.7481 39.1595 33.1551 37.5941C33.6406 38.0411 34.288 38.3147 34.9984 38.3147C36.5003 38.3147 37.7222 37.0928 37.7222 35.5908C37.7222 34.9362 37.49 34.3347 37.1036 33.8645C38.9838 31.3086 40 28.2325 40 25ZM35.9644 35.5908C35.9644 36.1235 35.5311 36.5569 34.9984 36.5569C34.4657 36.5569 34.0323 36.1235 34.0323 35.5908C34.0323 35.0581 34.4657 34.6248 34.9984 34.6248C35.5311 34.6248 35.9644 35.0581 35.9644 35.5908ZM34.9984 32.867C33.4964 32.867 32.2745 34.0889 32.2745 35.5908C32.2745 35.7422 32.2875 35.8905 32.3113 36.0351C31.1506 36.8068 29.8618 37.4 28.4842 37.7761C28.9566 37.098 29.3888 36.2727 29.7705 35.3087C30.2547 34.0857 30.6426 32.688 30.925 31.1743H36.7116C36.3852 31.791 36.0121 32.3794 35.5959 32.9338C35.4034 32.8905 35.2036 32.867 34.9984 32.867ZM21.8639 34.6616C21.6142 34.0309 21.3923 33.3479 21.1992 32.6222C21.7385 32.293 22.1543 31.7815 22.3619 31.1743H29.1362C28.8816 32.4497 28.5461 33.6261 28.1361 34.6616C27.2484 36.9036 26.0761 38.2422 25 38.2422C23.9239 38.2422 22.7515 36.9036 21.8639 34.6616ZM12.5161 29.4165C12.0257 28.0345 11.7578 26.548 11.7578 25C11.7578 23.5268 11.9999 22.1092 12.4459 20.7845H18.7765C18.6143 22.1359 18.5303 23.5527 18.5303 25C18.5303 25.9584 18.5672 26.9034 18.6392 27.8249C17.97 28.1363 17.4479 28.7116 17.2069 29.4165H12.5161ZM14.0356 14.4092C14.0356 13.8765 14.4689 13.4431 15.0016 13.4431C15.5343 13.4431 15.9677 13.8765 15.9677 14.4092C15.9677 14.9419 15.5343 15.3752 15.0016 15.3752C14.4689 15.3752 14.0356 14.9419 14.0356 14.4092ZM15.0016 17.133C16.5036 17.133 17.7255 15.9111 17.7255 14.4092C17.7255 14.2578 17.7125 14.1096 17.6887 13.9649C18.8494 13.1933 20.1382 12.6 21.5159 12.2239C21.0435 12.902 20.6112 13.7273 20.2295 14.6913C19.724 15.9682 19.3235 17.4357 19.0384 19.0267H13.1837C13.5341 18.3364 13.9429 17.6806 14.4041 17.0662C14.5966 17.1095 14.7963 17.133 15.0016 17.133ZM28.1361 15.3384C28.4057 16.0193 28.6428 16.7617 28.8462 17.5525C28.2851 17.8803 27.8514 18.4027 27.638 19.0267H20.8247C21.0837 17.6738 21.4324 16.428 21.8638 15.3384C22.7515 13.0964 23.9239 11.7578 25 11.7578C26.0761 11.7578 27.2484 13.0964 28.1361 15.3384ZM37.5541 20.7845C38.0001 22.1092 38.2422 23.5268 38.2422 25C38.2422 26.548 37.9743 28.0345 37.4839 29.4165H31.1984C31.3768 28.0048 31.4697 26.5193 31.4697 25C31.4697 24.1088 31.4375 23.2295 31.3752 22.3696C32.0375 22.0567 32.5538 21.4844 32.7931 20.7845H37.5541ZM22.3619 29.4165C22.059 28.5306 21.312 27.8495 20.3874 27.6396C20.3218 26.7798 20.2881 25.897 20.2881 25C20.2881 23.5449 20.3767 22.1267 20.5468 20.7845H27.6381C27.9426 21.6752 28.696 22.3589 29.6275 22.5648C29.6832 23.36 29.7119 24.174 29.7119 25.0001C29.7119 26.5281 29.6143 28.0153 29.427 29.4166H22.3619V29.4165ZM18.8184 30.2954C18.8184 29.7627 19.2517 29.3294 19.7844 29.3294C20.3171 29.3294 20.7504 29.7627 20.7504 30.2954C20.7504 30.8281 20.3171 31.2614 19.7844 31.2614C19.2517 31.2614 18.8184 30.8281 18.8184 30.2954ZM31.1816 19.9056C31.1816 20.4383 30.7483 20.8717 30.2156 20.8717C29.6829 20.8717 29.2496 20.4383 29.2496 19.9056C29.2496 19.3729 29.6829 18.9396 30.2156 18.9396C30.7483 18.9396 31.1816 19.3729 31.1816 19.9056ZM36.8162 19.0267H32.7931C32.4636 18.0631 31.6086 17.3417 30.5712 17.2057C30.3443 16.3077 30.0767 15.4646 29.7706 14.6914C29.3889 13.7273 28.9566 12.902 28.4842 12.2239C32.122 13.217 35.1407 15.7256 36.8162 19.0267ZM13.2884 31.1743H17.2069C17.5421 32.1546 18.421 32.8846 19.4826 33.0021C19.6977 33.8225 19.9471 34.5954 20.2295 35.3086C20.6112 36.2727 21.0435 37.098 21.5158 37.7761C17.9523 36.8032 14.9832 34.3761 13.2884 31.1743Z" fill="white"/>
</g>
<defs>
<clipPath id="clip0_0_6">
<rect width="30" height="30" fill="white" transform="translate(10 10)"/>
</clipPath>
</defs>
</svg>
