<svg width="50" height="50" viewBox="0 0 50 50" fill="none" xmlns="http://www.w3.org/2000/svg">
<rect width="50" height="50" rx="8" fill="#F2F2F2"/>
<path d="M29.0916 15.8779C27.7669 16.1133 26.4252 16.2406 25.0799 16.2584V11.7534C27.0311 12.0348 28.3817 14.1876 29.0916 15.8779ZM29.3912 16.656C27.9686 16.9188 26.5264 17.0602 25.0799 17.0787V22.7009H30.4119C30.3715 20.4615 30.0009 18.3883 29.3912 16.656ZM31.2322 22.7011H36.4693C36.3795 20.0018 35.3631 17.4157 33.591 15.3775C32.5 15.8604 31.3633 16.2327 30.1981 16.4891C30.8173 18.2871 31.1922 20.4155 31.2322 22.7011ZM29.908 15.7144C30.9666 15.4875 32.0018 15.1629 33.0004 14.7448C31.2815 13.0297 29.0746 11.8879 26.6817 11.4756C28.2037 12.3706 29.2537 14.1049 29.908 15.7144ZM20.0062 29.7125L23.5804 23.5217H18.9275C18.9691 25.8248 19.36 27.952 20.001 29.7134L20.0062 29.7125ZM24.2596 17.0787C22.8131 17.0602 21.3708 16.9187 19.9484 16.6557C19.3385 18.3883 18.9679 20.4615 18.9275 22.7011H24.2596V17.0787ZM29.8795 30.6577L31.2016 32.9476C31.8044 32.5463 32.3693 32.0908 32.8891 31.5865C31.9155 31.1881 30.9083 30.8774 29.8795 30.6579V30.6577ZM29.3387 29.7125C29.9796 27.9512 30.3704 25.8242 30.412 23.5212H25.7592L29.3334 29.7115L29.3387 29.7125ZM30.1473 29.8777C31.295 30.1276 32.4155 30.4889 33.493 30.9565C35.3247 28.9026 36.378 26.2714 36.4696 23.5209H31.2322C31.1912 25.8686 30.7968 28.0499 30.1474 29.8779L30.1473 29.8777ZM19.192 29.8781C18.5426 28.0499 18.1482 25.8685 18.1069 23.5212H12.8702C12.9618 26.2713 14.0149 28.9023 15.8462 30.956C16.9238 30.4888 18.0444 30.1278 19.1921 29.8783L19.192 29.8781ZM24.2596 11.7534C22.3084 12.0346 20.9578 14.1875 20.2479 15.8779C21.5726 16.1133 22.9142 16.2406 24.2596 16.2584V11.7534ZM18.1379 32.9477L19.4602 30.6575C18.4314 30.8773 17.4243 31.1885 16.4509 31.5874C16.9705 32.0914 17.5352 32.5467 18.1379 32.9477ZM19.1413 16.4891C17.9761 16.2327 16.8395 15.8603 15.7484 15.3775C13.9763 17.4157 12.9599 20.0018 12.8701 22.7011H18.1072C18.1472 20.4155 18.5221 18.2871 19.1413 16.4891ZM33.7283 38.9651C33.7542 39.0096 33.7678 39.0601 33.7679 39.1116C33.768 39.1631 33.7545 39.2137 33.7287 39.2583C33.703 39.3029 33.6659 39.3399 33.6213 39.3655C33.5767 39.3912 33.5261 39.4047 33.4746 39.4045H15.8647C15.8132 39.4047 15.7626 39.3912 15.718 39.3655C15.6734 39.3399 15.6364 39.3029 15.6106 39.2583C15.5849 39.2137 15.5713 39.1631 15.5714 39.1116C15.5715 39.0602 15.5851 39.0096 15.611 38.9651L24.416 23.7143C24.4418 23.6699 24.4788 23.633 24.5233 23.6073C24.5679 23.5817 24.6183 23.5682 24.6697 23.5682C24.7211 23.5682 24.7716 23.5817 24.8161 23.6073C24.8606 23.633 24.8977 23.6699 24.9234 23.7143L33.7283 38.9651ZM25.5486 36.9176C25.5486 36.7437 25.4971 36.5738 25.4005 36.4293C25.3039 36.2847 25.1667 36.1721 25.0061 36.1056C24.8455 36.0391 24.6688 36.0216 24.4983 36.0556C24.3278 36.0895 24.1712 36.1732 24.0482 36.2961C23.9253 36.419 23.8416 36.5756 23.8077 36.7461C23.7738 36.9166 23.7912 37.0933 23.8577 37.2539C23.9242 37.4145 24.0369 37.5518 24.1814 37.6484C24.326 37.7449 24.4959 37.7965 24.6697 37.7965C24.9028 37.7965 25.1264 37.7039 25.2912 37.5391C25.456 37.3742 25.5486 37.1507 25.5486 36.9176ZM25.5486 28.3959C25.5486 28.1628 25.456 27.9392 25.2912 27.7744C25.1264 27.6096 24.9028 27.517 24.6697 27.517C24.4366 27.517 24.2131 27.6096 24.0482 27.7744C23.8834 27.9392 23.7908 28.1628 23.7908 28.3959V34.0553C23.7908 34.2884 23.8834 34.5119 24.0482 34.6768C24.2131 34.8416 24.4366 34.9342 24.6697 34.9342C24.9028 34.9342 25.1264 34.8416 25.2912 34.6768C25.456 34.5119 25.5486 34.2884 25.5486 34.0553V28.3959ZM22.6578 11.4756C20.265 11.8879 18.0581 13.0298 16.3393 14.7448C17.3378 15.1629 18.373 15.4875 19.4314 15.7144C20.0858 14.1049 21.1358 12.3706 22.6578 11.4756Z" fill="#27AE60"/>
</svg>
