<svg width="50" height="50" viewBox="0 0 50 50" fill="none" xmlns="http://www.w3.org/2000/svg">
<rect width="50" height="50" rx="8" fill="url(#paint0_linear_112_17631)"/>
<g clip-path="url(#clip0_112_17631)">
<path d="M25.0464 20.7685C25.4318 20.7685 25.7439 20.4562 25.7439 20.071C25.7439 19.6859 25.4318 19.3735 25.0464 19.3735C21.9649 19.3735 19.4668 21.8716 19.4668 24.9534C19.4668 28.0349 21.9649 30.533 25.0464 30.533C28.1281 30.533 30.6262 28.0349 30.6262 24.9534C30.6262 24.568 30.3139 24.2559 29.9288 24.2559C29.5436 24.2559 29.2313 24.568 29.2313 24.9534C29.2313 27.2645 27.3578 29.1382 25.0464 29.1382C22.7352 29.1382 20.8615 27.2645 20.8615 24.9534C20.8615 22.642 22.7352 20.7685 25.0464 20.7685Z" fill="white"/>
<path d="M38.3546 20.8106C38.2335 20.4447 37.8387 20.2462 37.4726 20.3674C37.1149 20.4857 36.9159 20.8664 37.0224 21.2276C39.1083 27.8698 35.4147 34.9452 28.7726 37.031C22.1306 39.1168 15.0552 35.4233 12.9694 28.7811C10.8834 22.1389 14.5771 15.0635 21.2191 12.9777C23.6779 12.2057 26.314 12.2057 28.7726 12.9777C29.1417 13.089 29.5311 12.8801 29.6424 12.511C29.752 12.1474 29.551 11.7631 29.1898 11.6456C21.8144 9.33162 13.9595 13.4347 11.6456 20.8102C9.3316 28.1855 13.4349 36.0404 20.8102 38.3544C28.1857 40.6684 36.0404 36.5653 38.3544 29.1898C39.2102 26.4622 39.2102 23.5382 38.3546 20.8106Z" fill="white"/>
<path d="M26.375 15.983C26.3786 15.5858 26.0736 15.2539 25.6775 15.2242C25.4693 15.2065 25.2608 15.1887 25.0469 15.1887C19.654 15.1887 15.2822 19.5605 15.2822 24.9534C15.2822 30.3461 19.654 34.7179 25.0469 34.7179C30.4396 34.7179 34.8114 30.3461 34.8114 24.9534C34.8114 24.7011 34.796 24.4491 34.765 24.1987C34.7093 23.8159 34.3538 23.5508 33.971 23.6065C33.5882 23.6621 33.3231 24.0177 33.3786 24.4006C33.3808 24.4151 33.3833 24.4294 33.3863 24.4439C33.4015 24.6129 33.4164 24.7804 33.4164 24.953C33.4167 29.5756 29.6695 33.3227 25.0471 33.3232C20.4246 33.3234 16.6774 29.576 16.6772 24.9536C16.677 20.3313 20.4239 16.5839 25.0465 16.5837H25.0467C25.2197 16.5837 25.3874 16.5986 25.556 16.6136L25.6867 16.6245C26.0512 16.6401 26.3592 16.3572 26.3746 15.9928C26.3748 15.9894 26.3748 15.9862 26.375 15.983Z" fill="white"/>
<path d="M29.2317 17.2812V19.7823L24.5537 24.4602C24.2767 24.7279 24.269 25.1694 24.5367 25.4465C24.8043 25.7236 25.2459 25.7312 25.523 25.4636C25.5287 25.458 25.5345 25.4523 25.54 25.4465L30.218 20.7686H32.7191C32.904 20.7686 33.0814 20.6951 33.2123 20.5641L37.397 16.3793C37.6693 16.1069 37.6693 15.6653 37.397 15.393C37.2662 15.2622 37.0889 15.1887 36.9039 15.1887H34.8115V13.0963C34.8115 12.7112 34.4992 12.3988 34.1138 12.399C33.929 12.399 33.7517 12.4725 33.621 12.6033L29.4361 16.7881C29.3051 16.9189 29.2317 17.0962 29.2317 17.2812ZM30.6266 17.57L33.4165 14.7801V15.8862C33.4165 16.2714 33.7288 16.5837 34.114 16.5837H35.2201L32.4302 19.3736H30.6266V17.57Z" fill="white"/>
</g>
<defs>
<linearGradient id="paint0_linear_112_17631" x1="-30.4687" y1="-10.9375" x2="79.6875" y2="75.3906" gradientUnits="userSpaceOnUse">
<stop stop-color="#27AE60"/>
<stop offset="1" stop-color="#0052CC"/>
</linearGradient>
<clipPath id="clip0_112_17631">
<rect width="28" height="28" fill="white" transform="translate(11 11)"/>
</clipPath>
</defs>
</svg>
