<svg width="56" height="56" viewBox="0 0 56 56" fill="none" xmlns="http://www.w3.org/2000/svg">
<rect width="55.9998" height="55.9998" rx="8.85223" fill="url(#paint0_linear_2638_814)"/>
<path d="M38.8993 15.9934C38.711 15.5108 38.3493 15.1318 37.8804 14.9259C37.4118 14.7194 36.8879 14.7093 36.4047 14.8982L21.1936 20.8263H16.378C15.2985 20.8263 14.4531 21.672 14.4531 22.7513V35.4874C14.4531 36.5552 15.3167 37.4241 16.378 37.4241H29.1648C30.0425 38.8281 31.2015 39.9624 32.43 40.763C32.8446 41.0357 33.1196 41.1719 33.1311 41.1775C33.3045 41.263 33.5083 41.255 33.6744 41.1577C33.8943 41.0284 34.1038 40.8958 34.3044 40.761C35.6088 39.8911 36.7074 38.794 37.5332 37.4241H39.616C40.6804 37.4241 41.5465 36.5552 41.5465 35.4874V22.7513C41.5465 22.2258 41.343 21.7578 41.0117 21.4137L38.8993 15.9934ZM36.821 15.9657C37.2272 15.8065 37.672 16.0015 37.8317 16.4097L39.553 20.8263H24.3491L36.821 15.9657ZM33.6668 39.809C33.5703 39.8739 33.4721 39.9377 33.3717 40.0009C33.2844 39.9492 33.1784 39.8837 33.0575 39.8043C30.2776 37.9925 28.495 34.9172 28.8638 31.1276C30.4186 31.2189 32.0625 30.7727 33.4041 29.7092C34.5064 30.4045 35.8488 30.9669 37.1642 31.0973C37.4118 31.1231 37.658 31.1326 37.9011 31.1245C37.9078 31.2215 37.9137 31.3306 37.9179 31.4504C38.0152 34.6132 36.6987 37.7865 33.6668 39.809ZM40.4007 35.4874C40.4007 35.9236 40.0487 36.2783 39.616 36.2783H38.1282C38.8124 34.7314 39.1136 33.0544 39.0632 31.4132C39.0422 30.8019 38.9781 30.4254 38.9753 30.4097C38.9225 30.1048 38.6399 29.8969 38.3305 29.94C37.9912 29.9884 37.6387 29.9934 37.2789 29.9574C36.0569 29.836 34.5014 29.1413 33.7043 28.5318C33.4853 28.3706 33.1817 28.3854 32.9798 28.5678C31.6757 29.7472 29.9298 30.1748 28.4822 29.9336C28.3281 29.9008 28.1664 29.9339 28.0366 30.0242C27.9068 30.1146 27.8203 30.2547 27.7974 30.4111C27.4846 32.5437 27.7395 34.508 28.5455 36.2783H16.378C15.9411 36.2783 15.5989 35.9308 15.5989 35.4874V27.5596H40.4007V35.4874ZM40.4007 26.4138H15.5989V25.3684H40.4007V26.4138ZM40.4007 24.2225H15.5989V22.7513C15.5989 22.3143 15.9411 21.9722 16.378 21.9722H39.616C40.0372 21.9722 40.4007 22.3624 40.4007 22.7513V24.2225Z" fill="white"/>
<path d="M35.1387 33.512V33.1132C35.1387 32.1371 34.3445 31.3429 33.3682 31.3429C32.3922 31.3429 31.598 32.1371 31.598 33.1132V33.512C31.3383 33.6372 31.1573 33.9007 31.1573 34.2078V36.2439C31.1573 36.671 31.5048 37.0185 31.932 37.0185H34.8047C35.2319 37.0185 35.5793 36.671 35.5793 36.2439V34.2078C35.5793 33.9007 35.3984 33.6372 35.1387 33.512ZM32.7438 33.1132C32.7438 32.7688 33.0238 32.4888 33.3682 32.4888C33.7126 32.4888 33.9929 32.7688 33.9929 33.1132V33.4332H32.7438V33.1132ZM34.4335 35.8726H32.3032V34.5791H34.4335V35.8726Z" fill="white"/>
<path d="M18.5088 34.579H22.4916C22.808 34.579 23.0645 34.3224 23.0645 34.006V30.023C23.0645 29.7066 22.808 29.4501 22.4916 29.4501H18.5088C18.1924 29.4501 17.9359 29.7066 17.9359 30.023V34.006C17.9359 34.3224 18.1924 34.579 18.5088 34.579ZM19.0817 30.5959H21.9187V33.4331H19.0817V30.5959Z" fill="white"/>
<defs>
<linearGradient id="paint0_linear_2638_814" x1="-34.1249" y1="-12.25" x2="89.2497" y2="84.4372" gradientUnits="userSpaceOnUse">
<stop stop-color="#27AE60"/>
<stop offset="1" stop-color="#0052CC"/>
</linearGradient>
</defs>
</svg>
