<svg width="50" height="50" viewBox="0 0 50 50" fill="none" xmlns="http://www.w3.org/2000/svg">
<rect width="50" height="50" rx="8" fill="url(#paint0_linear_78_2266)"/>
<path fill-rule="evenodd" clip-rule="evenodd" d="M24.5599 32.5475H15.7657V33.9186C15.7657 34.161 15.5689 34.3578 15.3265 34.3578C15.0841 34.3578 14.8873 34.161 14.8873 33.9186V32.1083C14.8873 31.8657 15.0839 31.6691 15.3265 31.6691H24.5599V30.2979C24.5599 30.0556 24.7567 29.8587 24.9992 29.8587C25.2415 29.8587 25.4384 30.0556 25.4384 30.2979V31.6691H34.6741C34.9167 31.6691 35.1133 31.8657 35.1133 32.1083V33.9186C35.1133 34.161 34.9165 34.3578 34.6741 34.3578C34.4317 34.3578 34.2349 34.161 34.2349 33.9186V32.5475H25.4384V33.9186C25.4384 34.161 25.2415 34.3578 24.9992 34.3578C24.7567 34.3578 24.5599 34.161 24.5599 33.9186V32.5475ZM25.8619 28.5241C25.949 28.2978 26.2033 28.1848 26.4295 28.2719C26.6558 28.359 26.7687 28.6133 26.6817 28.8396L26.5712 29.1267C26.5059 29.2963 26.3429 29.4082 26.1613 29.4082H23.8417C23.66 29.4082 23.497 29.2963 23.4318 29.1267C23.4318 29.1267 22.9668 27.9187 22.9669 27.9187C22.3204 27.7445 21.7013 27.4866 21.1216 27.1544L19.9364 27.6794C19.7705 27.7529 19.5763 27.7167 19.448 27.5884L17.8082 25.9486C17.6797 25.82 17.6435 25.6256 17.7174 25.4595L18.2439 24.2754C17.9106 23.6972 17.6541 23.0772 17.4786 22.4323L16.2698 21.9671C16.1002 21.9018 15.9884 21.7389 15.9884 21.5572V19.2376C15.9884 19.0559 16.1002 18.893 16.2698 18.8277C16.2698 18.8277 17.4785 18.3625 17.4785 18.3626C17.654 17.7161 17.9105 17.097 18.2441 16.5174L17.7174 15.3329C17.6435 15.1669 17.6797 14.9724 17.8082 14.8439L19.448 13.2041C19.5765 13.0756 19.7709 13.0395 19.937 13.1134L21.1214 13.64C21.7011 13.3064 22.3199 13.0501 22.9647 12.8762L23.4319 11.6654C23.4973 11.496 23.6601 11.3843 23.8417 11.3843H26.1613C26.343 11.3843 26.506 11.4963 26.5712 11.666L27.0363 12.8763C27.6809 13.0502 28.2996 13.3066 28.8792 13.64L30.0636 13.1134C30.2297 13.0395 30.4241 13.0756 30.5526 13.2041L32.1924 14.8439C32.3208 14.9723 32.3569 15.1664 32.2834 15.3324L31.7587 16.517C32.0924 17.0969 32.3488 17.7161 32.5228 18.3628L33.7308 18.8277C33.9004 18.893 34.0122 19.0559 34.0122 19.2376V20.3974C34.0122 20.6398 33.8155 20.8366 33.573 20.8366C33.3306 20.8366 33.1338 20.6398 33.1338 20.3974V19.5392L31.9951 19.1009C31.8598 19.0489 31.7588 18.9334 31.7255 18.7923C31.5564 18.0789 31.2754 17.4005 30.8912 16.7771C30.8153 16.6539 30.805 16.5011 30.8636 16.3688L31.3583 15.2521L30.1448 14.0386L29.0283 14.535C28.8959 14.5939 28.7429 14.5837 28.6194 14.5076C27.996 14.1234 27.3176 13.8424 26.6063 13.6734C26.4653 13.6399 26.3498 13.5389 26.2979 13.4036L25.8595 12.2627H24.143L23.7025 13.4042C23.6504 13.5392 23.5351 13.6399 23.3943 13.6734C22.683 13.8424 22.0046 14.1234 21.3812 14.5076C21.2577 14.5837 21.1047 14.5939 20.9723 14.535L19.8558 14.0386L18.6427 15.2517L19.1391 16.3682C19.198 16.5007 19.1877 16.6537 19.1117 16.7771C18.7273 17.4009 18.4462 18.0797 18.2749 18.7935C18.2412 18.9341 18.1404 19.049 18.0055 19.1009L16.8668 19.5392V21.2556L18.0055 21.6939C18.1403 21.7458 18.241 21.8606 18.2748 22.001C18.4461 22.7125 18.727 23.3933 19.1113 24.0148C19.1877 24.1383 19.1981 24.2916 19.1391 24.4243L18.6427 25.5407L19.8561 26.7542L20.9729 26.2595C21.1048 26.2011 21.2571 26.2112 21.3802 26.2866C22.004 26.6688 22.6826 26.9523 23.3963 27.1214C23.5374 27.1548 23.653 27.2557 23.705 27.391L24.1433 28.5298H25.8597L25.8619 28.5241ZM29.4525 19.8326C29.4827 20.0732 29.3119 20.293 29.0714 20.3231C28.8309 20.3533 28.6111 20.1826 28.5809 19.9421C28.3578 18.1637 26.8394 16.7897 25.0003 16.7897C23.0075 16.7897 21.3937 18.4035 21.3937 20.3962C21.3937 22.3891 23.0075 24.0051 25.0003 24.0051C25.0621 24.0051 25.1236 24.0036 25.1847 24.0005C25.4268 23.9883 25.6332 24.175 25.6453 24.4171C25.6575 24.6592 25.4709 24.8657 25.2288 24.8779C25.1531 24.8816 25.0769 24.8836 25.0003 24.8836C22.5222 24.8836 20.5153 22.8743 20.5153 20.3962C20.5153 17.9181 22.5221 15.9113 25.0003 15.9113C27.2875 15.9113 29.175 17.621 29.4525 19.8326ZM24.5622 18.2502C24.5622 18.0078 24.7591 17.811 25.0015 17.811C25.2439 17.811 25.4407 18.0078 25.4407 18.2502V20.1102L26.6334 20.7986C26.8434 20.9198 26.9154 21.1887 26.7942 21.3986C26.6731 21.6086 26.4042 21.6806 26.1943 21.5594L24.7819 20.7442C24.646 20.6658 24.5622 20.5208 24.5622 20.3638V18.2502ZM24.9992 34.8084C26.0498 34.8084 26.9028 35.6614 26.9028 36.712C26.9028 37.7626 26.0498 38.6157 24.9992 38.6157C23.9485 38.6157 23.0955 37.7626 23.0955 36.712C23.0955 35.6614 23.9485 34.8084 24.9992 34.8084ZM24.9992 35.6868C24.4333 35.6868 23.9739 36.1462 23.9739 36.712C23.9739 37.2779 24.4333 37.7372 24.9992 37.7372C25.565 37.7372 26.0243 37.2779 26.0243 36.712C26.0243 36.1462 25.565 35.6868 24.9992 35.6868ZM34.6741 34.8084C35.7247 34.8084 36.5778 35.6614 36.5778 36.712C36.5778 37.7626 35.7247 38.6157 34.6741 38.6157C33.6235 38.6157 32.7705 37.7626 32.7705 36.712C32.7705 35.6614 33.6235 34.8084 34.6741 34.8084ZM34.6741 35.6868C34.1083 35.6868 33.6489 36.1462 33.6489 36.712C33.6489 37.2779 34.1083 37.7372 34.6741 37.7372C35.24 37.7372 35.6993 37.2779 35.6993 36.712C35.6993 36.1462 35.24 35.6868 34.6741 35.6868ZM15.3265 34.8084C16.3771 34.8084 17.2301 35.6614 17.2301 36.712C17.2301 37.7626 16.3771 38.6157 15.3265 38.6157C14.2759 38.6157 13.4229 37.7626 13.4229 36.712C13.4229 35.6614 14.2759 34.8084 15.3265 34.8084ZM15.3265 35.6868C14.7606 35.6868 14.3013 36.1462 14.3013 36.712C14.3013 37.2779 14.7606 37.7372 15.3265 37.7372C15.8923 37.7372 16.3517 37.2779 16.3517 36.712C16.3517 36.1462 15.8923 35.6868 15.3265 35.6868ZM34.2577 28.7677C32.3258 30.6996 29.1889 30.6996 27.2571 28.7677C25.3252 26.8359 25.3252 23.699 27.2571 21.7671C29.1889 19.8352 32.3258 19.8352 34.2577 21.7671C36.1896 23.699 36.1896 26.8359 34.2577 28.7677ZM33.6365 28.1466C35.2256 26.5575 35.2256 23.9773 33.6365 22.3883C32.0475 20.7992 29.4673 20.7992 27.8782 22.3883C26.2892 23.9773 26.2892 26.5575 27.8782 28.1466C29.4673 29.7356 32.0475 29.7356 33.6365 28.1466ZM32.5712 24.6831C32.4816 24.4039 32.3261 24.1415 32.1048 23.9201C31.3611 23.1764 30.1537 23.1764 29.41 23.9201C28.6664 24.6637 28.6664 25.8711 29.41 26.6148C30.1537 27.3584 31.3611 27.3584 32.1048 26.6148C32.2762 26.4434 32.5545 26.4434 32.7259 26.6148C32.8973 26.7862 32.8973 27.0646 32.7259 27.236C31.6394 28.3224 29.8753 28.3224 28.7889 27.236C27.7025 26.1495 27.7025 24.3854 28.7889 23.2989C29.8753 22.2125 31.6394 22.2125 32.7259 23.2989C33.0296 23.6027 33.2484 23.9593 33.3824 24.3393L33.4901 24.1527C33.6112 23.9428 33.8801 23.8707 34.09 23.992C34.3 24.1131 34.372 24.382 34.2508 24.5919L33.5718 25.7679C33.4505 25.978 33.1819 26.05 32.9718 25.9287L31.7958 25.2498C31.5858 25.1285 31.5138 24.8597 31.635 24.6497C31.7563 24.4399 32.0251 24.3678 32.235 24.489L32.5712 24.6831Z" fill="white"/>
<defs>
<linearGradient id="paint0_linear_78_2266" x1="-30.4687" y1="-10.9375" x2="79.6875" y2="75.3906" gradientUnits="userSpaceOnUse">
<stop stop-color="#27AE60"/>
<stop offset="1" stop-color="#0052CC"/>
</linearGradient>
</defs>
</svg>
