<svg width="50" height="50" viewBox="0 0 50 50" fill="none" xmlns="http://www.w3.org/2000/svg">
<rect width="50" height="50" rx="10" fill="#188C87"/>
<g clip-path="url(#clip0_0_58)">
<path d="M19.7735 22.8297C19.8433 22.9258 19.9469 22.9918 20.0635 23.0144C20.1801 23.0371 20.301 23.0146 20.4016 22.9516C20.499 22.8817 20.5659 22.7771 20.5885 22.6594C20.6112 22.5417 20.5879 22.4198 20.5235 22.3187C20.3374 22.0343 20.0967 21.7896 19.8154 21.5989C19.5341 21.4081 19.2177 21.2751 18.8846 21.2075C18.5515 21.14 18.2083 21.1392 17.8749 21.2052C17.5415 21.2712 17.2245 21.4027 16.9422 21.5922C16.8726 21.6698 16.8308 21.7684 16.8234 21.8724C16.8161 21.9764 16.8436 22.0799 16.9017 22.1665C16.9598 22.2531 17.0451 22.3178 17.1442 22.3505C17.2432 22.3832 17.3503 22.3819 17.4485 22.3469C17.6326 22.2252 17.839 22.1411 18.0558 22.0995C18.2725 22.0579 18.4954 22.0596 18.7115 22.1044C18.9276 22.1493 19.1327 22.2365 19.3149 22.361C19.4972 22.4854 19.653 22.6447 19.7735 22.8297Z" fill="white"/>
<path d="M17.8091 29.4766C17.593 29.4319 17.3879 29.3451 17.2055 29.2209C17.0231 29.0967 16.8671 28.9376 16.7465 28.7529C16.6258 28.5682 16.5428 28.3614 16.5024 28.1445C16.4619 27.9276 16.4647 27.7049 16.5107 27.4891C16.4977 27.3891 16.4528 27.2961 16.3828 27.2237C16.3127 27.1513 16.2212 27.1034 16.1217 27.0871C16.0223 27.0707 15.9203 27.0869 15.8308 27.1331C15.7412 27.1794 15.669 27.2532 15.6248 27.3437C15.5551 27.6766 15.5523 28.02 15.6164 28.354C15.6805 28.688 15.8103 29.0059 15.9982 29.2894C16.1861 29.5728 16.4285 29.8161 16.7112 30.0052C16.9939 30.1942 17.3113 30.3252 17.6451 30.3906H17.7341C17.8352 30.3728 17.9277 30.3222 17.9972 30.2467C18.0668 30.1712 18.1097 30.075 18.1193 29.9728C18.1289 29.8706 18.1046 29.768 18.0503 29.6809C17.996 29.5938 17.9145 29.527 17.8185 29.4906L17.8091 29.4766Z" fill="white"/>
<path d="M20.3125 27.5313C20.3205 27.4598 20.3119 27.3875 20.2875 27.3199C20.263 27.2522 20.2233 27.1912 20.1715 27.1413C20.1197 27.0915 20.0571 27.0543 19.9885 27.0325C19.92 27.0108 19.8474 27.0051 19.7763 27.0159C19.7052 27.0267 19.6376 27.0537 19.5786 27.0948C19.5196 27.1359 19.4709 27.19 19.4362 27.253C19.4015 27.316 19.3817 27.3861 19.3784 27.4579C19.3751 27.5297 19.3884 27.6013 19.4172 27.6672C19.4977 28.2829 19.7984 28.8486 20.2637 29.2596C20.7291 29.6707 21.3276 29.8993 21.9485 29.9031C22.0739 29.9047 22.1992 29.8968 22.3235 29.8797C22.4412 29.859 22.5466 29.794 22.618 29.6982C22.6895 29.6023 22.7216 29.4828 22.7079 29.3641C22.6871 29.2463 22.6222 29.141 22.5264 29.0695C22.4305 28.9981 22.311 28.9659 22.1922 28.9797C21.7509 29.0368 21.3049 28.9163 20.9524 28.6447C20.5999 28.3731 20.3698 27.9726 20.3125 27.5313Z" fill="white"/>
<path d="M38.289 28.2484C37.9152 28.2493 37.5519 28.3726 37.2548 28.5995C36.9577 28.8263 36.743 29.1443 36.6437 29.5047H35.0734L32.6921 26.7719C32.6488 26.7239 32.5961 26.6854 32.5372 26.6587C32.4783 26.6321 32.4145 26.618 32.3499 26.6172H26.0077V25.7406V23.3969H32.3499C32.4145 23.3961 32.4783 23.3819 32.5372 23.3553C32.5961 23.3287 32.6488 23.2901 32.6921 23.2422L35.0734 20.5094H36.6437C36.7537 20.9098 37.0053 21.2567 37.3517 21.4857C37.6981 21.7148 38.1158 21.8104 38.5274 21.7549C38.9389 21.6994 39.3163 21.4964 39.5896 21.1838C39.863 20.8711 40.0136 20.4699 40.0136 20.0547C40.0136 19.6394 39.863 19.2382 39.5896 18.9256C39.3163 18.6129 38.9389 18.41 38.5274 18.3544C38.1158 18.2989 37.6981 18.3946 37.3517 18.6236C37.0053 18.8526 36.7537 19.1996 36.6437 19.6H34.8671C34.8025 19.6008 34.7387 19.6149 34.6799 19.6416C34.621 19.6682 34.5682 19.7067 34.5249 19.7547L32.1437 22.4875H26.0077V20.7812H31.9515C32.0168 20.7817 32.0813 20.7676 32.1405 20.74C32.1997 20.7125 32.252 20.6721 32.2937 20.6219L33.9531 18.6719C34.0241 18.59 34.0625 18.4849 34.0609 18.3765V16.5625C34.4574 16.4525 34.8007 16.2025 35.0271 15.8589C35.2535 15.5152 35.3477 15.1011 35.2922 14.6934C35.2367 14.2856 35.0353 13.9117 34.7253 13.6411C34.4153 13.3704 34.0177 13.2212 33.6062 13.2212C33.1946 13.2212 32.797 13.3704 32.487 13.6411C32.177 13.9117 31.9756 14.2856 31.9202 14.6934C31.8647 15.1011 31.9588 15.5152 32.1852 15.8589C32.4116 16.2025 32.7549 16.4525 33.1515 16.5625V18.2219L31.7452 19.8719H26.0077V17.6969H28.0843C28.1595 17.6973 28.2336 17.6796 28.3005 17.6453C28.3674 17.6111 28.4251 17.5612 28.4687 17.5L29.0499 16.5625C29.2021 16.6086 29.3598 16.6338 29.5187 16.6375C29.8578 16.6393 30.1898 16.5406 30.4729 16.3539C30.7559 16.1671 30.9773 15.9006 31.109 15.5881C31.2407 15.2756 31.2768 14.9311 31.2128 14.5981C31.1488 14.2651 30.9875 13.9585 30.7494 13.7171C30.5112 13.4756 30.2069 13.3102 29.8748 13.2417C29.5426 13.1731 29.1977 13.2045 28.8834 13.332C28.5691 13.4594 28.2997 13.6771 28.109 13.9575C27.9184 14.238 27.8152 14.5687 27.8124 14.9078C27.8144 15.3396 27.9822 15.7541 28.2812 16.0656L27.8124 16.7875H26.0077V13.3328C26.0077 13.3094 26.0077 13.2953 26.0077 13.2765C26.0123 13.2439 26.0123 13.2108 26.0077 13.1781C25.7369 12.4007 25.2298 11.7275 24.5574 11.2526C23.885 10.7777 23.0809 10.5249 22.2577 10.5297C21.4958 10.5353 20.7514 10.759 20.1126 11.1743C19.4738 11.5897 18.9673 12.1793 18.6531 12.8734C18.0618 12.689 17.4355 12.6462 16.8246 12.7483C16.2138 12.8505 15.6355 13.0948 15.1364 13.4616C14.6373 13.8284 14.2315 14.3073 13.9515 14.8598C13.6716 15.4123 13.5255 16.0228 13.5249 16.6422C13.5227 17.0054 13.5732 17.3669 13.6749 17.7156C13.1174 17.8943 12.6063 18.1942 12.1782 18.5936C11.7502 18.993 11.4158 19.4822 11.1989 20.026C10.9821 20.5699 10.8883 21.155 10.9241 21.7393C10.9599 22.3237 11.1245 22.8929 11.4062 23.4062C10.907 23.7943 10.5186 24.3068 10.28 24.8923C10.0415 25.4779 9.96118 26.1159 10.0471 26.7423C10.1331 27.3688 10.3823 27.9616 10.7698 28.4612C11.1572 28.9609 11.6693 29.3498 12.2546 29.589C11.8963 30.1561 11.6879 30.8048 11.6488 31.4744C11.6098 32.1441 11.7414 32.8126 12.0314 33.4174C12.3214 34.0223 12.7603 34.5436 13.3068 34.9324C13.8534 35.3212 14.4897 35.5649 15.1562 35.6406C15.1797 36.2452 15.3551 36.8342 15.6662 37.3532C15.9772 37.8722 16.4139 38.3046 16.936 38.6104C17.458 38.9163 18.0487 39.0858 18.6535 39.1034C19.2583 39.121 19.8579 38.986 20.3968 38.7109C21.03 39.2052 21.8107 39.4726 22.614 39.4703C23.3438 39.4669 24.0557 39.2436 24.6569 38.8298C25.2581 38.4159 25.7206 37.8305 25.9843 37.15C25.9884 37.1142 25.9884 37.078 25.9843 37.0422C25.9866 37.0235 25.9866 37.0046 25.9843 36.9859V33.2359H27.8124L28.2812 33.9578C27.9822 34.2693 27.8144 34.6838 27.8124 35.1156C27.8115 35.4551 27.9113 35.7873 28.0993 36.07C28.2872 36.3528 28.5548 36.5734 28.8683 36.704C29.1817 36.8345 29.5268 36.8692 29.8599 36.8035C30.193 36.7379 30.4991 36.5748 30.7395 36.3351C30.9799 36.0953 31.1438 35.7896 31.2104 35.4567C31.2769 35.1238 31.2432 34.7786 31.1135 34.4648C30.9838 34.1511 30.7639 33.8829 30.4817 33.6941C30.1995 33.5054 29.8676 33.4047 29.5281 33.4047C29.3691 33.4084 29.2114 33.4336 29.0593 33.4797L28.4687 32.5C28.4272 32.4353 28.3704 32.3818 28.3034 32.3442C28.2364 32.3066 28.1611 32.286 28.0843 32.2844H26.0077V30.1562H31.7406L33.1468 31.8062V33.4375C32.7438 33.5476 32.3945 33.8002 32.1637 34.1484C31.9329 34.4967 31.8363 34.9168 31.8918 35.3309C31.9474 35.7449 32.1513 36.1247 32.4657 36.3998C32.7802 36.6749 33.1837 36.8265 33.6015 36.8265C34.0193 36.8265 34.4228 36.6749 34.7373 36.3998C35.0517 36.1247 35.2556 35.7449 35.3112 35.3309C35.3667 34.9168 35.2701 34.4967 35.0393 34.1484C34.8085 33.8002 34.4592 33.5476 34.0562 33.4375V31.6094C34.0578 31.501 34.0194 31.3959 33.9484 31.314L32.289 29.3734C32.2473 29.3232 32.195 29.2828 32.1358 29.2552C32.0766 29.2277 32.0121 29.2136 31.9468 29.214H26.0077V27.5265H32.1437L34.5249 30.2594C34.5682 30.3073 34.621 30.3458 34.6799 30.3725C34.7387 30.3991 34.8025 30.4132 34.8671 30.414H36.6437C36.7285 30.7216 36.8975 30.9993 37.1318 31.2158C37.366 31.4323 37.6561 31.579 37.9694 31.6394C38.2826 31.6997 38.6065 31.6713 38.9044 31.5574C39.2023 31.4434 39.4625 31.2484 39.6554 30.9944C39.8484 30.7404 39.9665 30.4375 39.9965 30.1199C40.0264 29.8023 39.967 29.4827 39.8249 29.1971C39.6827 28.9115 39.4636 28.6714 39.1922 28.5037C38.9208 28.3361 38.608 28.2477 38.289 28.2484ZM38.289 19.2344C38.4485 19.2344 38.6043 19.2816 38.7369 19.3702C38.8695 19.4588 38.9728 19.5847 39.0339 19.7321C39.0949 19.8794 39.1109 20.0415 39.0797 20.1979C39.0486 20.3543 38.9718 20.498 38.8591 20.6107C38.7463 20.7235 38.6027 20.8003 38.4463 20.8314C38.2899 20.8625 38.1278 20.8465 37.9804 20.7855C37.8331 20.7245 37.7072 20.6211 37.6186 20.4885C37.53 20.3559 37.4827 20.2001 37.4827 20.0406C37.4827 19.8268 37.5677 19.6217 37.7189 19.4705C37.8701 19.3193 38.0752 19.2344 38.289 19.2344ZM32.8046 14.9078C32.8037 14.7479 32.8503 14.5914 32.9385 14.4581C33.0268 14.3248 33.1526 14.2207 33.3002 14.1591C33.4477 14.0975 33.6102 14.0812 33.767 14.1121C33.9238 14.1431 34.0679 14.22 34.181 14.333C34.294 14.4461 34.3709 14.5901 34.4018 14.747C34.4328 14.9038 34.4164 15.0663 34.3548 15.2138C34.2932 15.3613 34.1892 15.4872 34.0559 15.5754C33.9226 15.6637 33.766 15.7103 33.6062 15.7094C33.394 15.7081 33.1908 15.6233 33.0407 15.4732C32.8907 15.3232 32.8058 15.12 32.8046 14.9078ZM29.5234 14.1015C29.6828 14.1015 29.8387 14.1488 29.9713 14.2374C30.1039 14.326 30.2072 14.4519 30.2682 14.5993C30.3293 14.7466 30.3452 14.9087 30.3141 15.0651C30.283 15.2215 30.2062 15.3651 30.0935 15.4779C29.9807 15.5907 29.8371 15.6674 29.6807 15.6986C29.5243 15.7297 29.3621 15.7137 29.2148 15.6527C29.0675 15.5916 28.9416 15.4883 28.853 15.3557C28.7644 15.2231 28.7171 15.0673 28.7171 14.9078C28.7171 14.8015 28.7381 14.6963 28.7789 14.5982C28.8197 14.5 28.8795 14.411 28.9549 14.336C29.0303 14.2611 29.1197 14.2018 29.2181 14.1616C29.3164 14.1213 29.4218 14.1009 29.5281 14.1015H29.5234ZM25.0937 17.2422V19.375C24.6925 19.176 24.2459 19.0864 23.799 19.1152C23.3521 19.144 22.9207 19.2902 22.5484 19.539C22.451 19.6089 22.3841 19.7135 22.3614 19.8312C22.3388 19.9489 22.362 20.0708 22.4265 20.1719C22.4963 20.268 22.5999 20.334 22.7165 20.3566C22.8331 20.3793 22.954 20.3568 23.0546 20.2937C23.3632 20.0846 23.7344 19.9881 24.1058 20.0205C24.4772 20.053 24.826 20.2123 25.0937 20.4719V22.9187V24.7937C24.693 24.5921 24.2456 24.5014 23.798 24.5311C23.3504 24.5607 22.9189 24.7097 22.5484 24.9625C22.4775 25.0402 22.4348 25.1396 22.4273 25.2445C22.4197 25.3495 22.4477 25.4539 22.5067 25.541C22.5656 25.6281 22.6522 25.6929 22.7525 25.7248C22.8527 25.7568 22.9608 25.7541 23.0593 25.7172C23.3658 25.5063 23.7358 25.4079 24.1066 25.4386C24.4774 25.4694 24.8261 25.6274 25.0937 25.8859V27.039V29.6875V32.7578V36.8781C24.9468 37.2413 24.7224 37.568 24.4361 37.8354C24.1499 38.1029 23.8087 38.3046 23.4364 38.4264C23.0641 38.5483 22.6696 38.5874 22.2806 38.541C21.8917 38.4946 21.5175 38.3638 21.1843 38.1578C21.6009 37.7863 21.8835 37.288 21.9886 36.7398C22.0936 36.1917 22.0153 35.6242 21.7656 35.125C21.7513 35.0545 21.721 34.9883 21.677 34.9314C21.6331 34.8745 21.5766 34.8285 21.5121 34.7969C21.4475 34.7653 21.3765 34.749 21.3046 34.7492C21.2327 34.7495 21.1618 34.7662 21.0975 34.7982C21.0331 34.8303 20.9769 34.8766 20.9333 34.9338C20.8898 34.991 20.8599 35.0574 20.8461 35.128C20.8323 35.1985 20.8349 35.2713 20.8537 35.3407C20.8725 35.4101 20.9071 35.4742 20.9546 35.5281C21.0506 35.7267 21.1062 35.9424 21.1183 36.1627C21.1304 36.3829 21.0987 36.6034 21.025 36.8113C20.9513 37.0193 20.8372 37.2105 20.6891 37.3741C20.541 37.5376 20.362 37.6701 20.1624 37.764C20.1267 37.7868 20.0937 37.8135 20.064 37.8437C19.66 38.0734 19.2033 38.1943 18.7386 38.1946C18.2738 38.1949 17.817 38.0746 17.4127 37.8455C17.0083 37.6165 16.6704 37.2864 16.4318 36.8876C16.1932 36.4888 16.0622 36.0349 16.0515 35.5703C16.8484 35.3406 18.3531 34.764 18.5734 33.6297C18.593 33.5113 18.5665 33.39 18.4994 33.2906C18.4322 33.1911 18.3295 33.1213 18.2124 33.0953C18.0981 33.0775 17.9813 33.1026 17.8843 33.1658C17.7874 33.2289 17.7173 33.3257 17.6874 33.4375C17.5515 34.1125 16.1359 34.614 15.5734 34.7359C14.9879 34.7279 14.4171 34.5513 13.9294 34.2273C13.4416 33.9033 13.0576 33.4457 12.8232 32.9091C12.5887 32.3725 12.5139 31.7798 12.6076 31.2018C12.7013 30.6238 12.9596 30.085 13.3515 29.65C13.4085 29.5879 13.4478 29.5116 13.4651 29.4291C13.4824 29.3466 13.4772 29.261 13.4499 29.1812C13.4226 29.1057 13.3764 29.0384 13.3157 28.9859C13.2549 28.9334 13.1817 28.8973 13.1031 28.8812C12.5678 28.7763 12.0771 28.5114 11.6956 28.1216C11.3141 27.7318 11.0598 27.2355 10.9664 26.6981C10.8729 26.1608 10.9447 25.6078 11.1722 25.1121C11.3997 24.6164 11.7722 24.2014 12.2406 23.9219C12.4233 23.799 12.6285 23.7136 12.8445 23.6707C13.0605 23.6277 13.2828 23.6281 13.4986 23.6717C13.7144 23.7153 13.9194 23.8013 14.1018 23.9247C14.2841 24.0481 14.4402 24.2065 14.5609 24.3906C14.6035 24.4506 14.6597 24.4996 14.7249 24.5338C14.79 24.568 14.8623 24.5864 14.9359 24.5875C15.0278 24.5868 15.1174 24.5591 15.1937 24.5078C15.2903 24.4372 15.3562 24.3323 15.378 24.2147C15.3998 24.097 15.3758 23.9755 15.3109 23.875C14.9769 23.3727 14.4772 23.0037 13.8989 22.8323C13.3206 22.661 12.7005 22.6982 12.1468 22.9375C11.9313 22.5356 11.8091 22.0902 11.7895 21.6346C11.7699 21.179 11.8533 20.7248 12.0335 20.3058C12.2137 19.8869 12.486 19.514 12.8303 19.2148C13.1745 18.9157 13.5818 18.6981 14.0218 18.5781C14.2004 18.8725 14.4514 19.1163 14.7509 19.2861C15.0504 19.456 15.3884 19.5463 15.7327 19.5484C15.9679 19.5495 16.2013 19.5082 16.4218 19.4265C16.4931 19.4198 16.5618 19.3968 16.6229 19.3594C16.6839 19.322 16.7355 19.2711 16.7738 19.2106C16.8121 19.1501 16.836 19.0817 16.8437 19.0105C16.8515 18.9393 16.8428 18.8674 16.8184 18.8001C16.794 18.7328 16.7545 18.672 16.703 18.6223C16.6514 18.5726 16.5892 18.5354 16.521 18.5136C16.4529 18.4917 16.3806 18.4857 16.3098 18.4961C16.2389 18.5064 16.1714 18.5329 16.1124 18.5734C15.8364 18.6682 15.5341 18.6505 15.2709 18.5242C15.0078 18.3979 14.8049 18.1731 14.7062 17.8984C14.7079 17.8844 14.7079 17.8702 14.7062 17.8562C14.4631 17.2924 14.3963 16.6683 14.5146 16.0658C14.6329 15.4634 14.9307 14.9108 15.3689 14.4807C15.807 14.0507 16.3651 13.7632 16.9697 13.6562C17.5742 13.5492 18.197 13.6277 18.7562 13.8812H18.8031H18.8499C20.1484 14.1344 20.5327 15.325 20.3312 16.389C20.3128 16.5067 20.3399 16.6268 20.407 16.7252C20.474 16.8236 20.5759 16.8928 20.6921 16.9187H20.7765C20.8855 16.9212 20.9919 16.8855 21.0775 16.8179C21.1631 16.7503 21.2224 16.655 21.2452 16.5484C21.5406 14.964 20.8609 13.6328 19.5671 13.1312C19.8181 12.6195 20.2068 12.1878 20.6895 11.8848C21.1723 11.5817 21.73 11.4192 22.2999 11.4156C22.9196 11.4146 23.5247 11.6037 24.0335 11.9574C24.5423 12.3112 24.9304 12.8125 25.1452 13.3937L25.0937 17.2422ZM29.5234 34.2906C29.683 34.2906 29.8391 34.338 29.9718 34.4268C30.1045 34.5156 30.2078 34.6418 30.2687 34.7894C30.3296 34.937 30.3453 35.0994 30.3138 35.2559C30.2823 35.4124 30.205 35.5561 30.0918 35.6686C29.9786 35.7812 29.8345 35.8576 29.6778 35.8882C29.5211 35.9188 29.3588 35.9021 29.2116 35.8404C29.0643 35.7786 28.9387 35.6746 28.8507 35.5414C28.7627 35.4082 28.7162 35.2518 28.7171 35.0922C28.7177 34.9863 28.7392 34.8816 28.7803 34.784C28.8214 34.6864 28.8813 34.5979 28.9566 34.5234C29.0319 34.449 29.1211 34.3901 29.2192 34.3502C29.3172 34.3102 29.4222 34.29 29.5281 34.2906H29.5234ZM34.4077 35.0922C34.4087 35.2518 34.3622 35.4082 34.2741 35.5414C34.1861 35.6746 34.0605 35.7786 33.9133 35.8404C33.7661 35.9021 33.6038 35.9188 33.4471 35.8882C33.2904 35.8576 33.1463 35.7812 33.0331 35.6686C32.9198 35.5561 32.8426 35.4124 32.8111 35.2559C32.7796 35.0994 32.7953 34.937 32.8562 34.7894C32.9171 34.6418 33.0204 34.5156 33.1531 34.4268C33.2858 34.338 33.4418 34.2906 33.6015 34.2906C33.7074 34.29 33.8123 34.3102 33.9104 34.3502C34.0084 34.3901 34.0977 34.449 34.173 34.5234C34.2483 34.5979 34.3082 34.6864 34.3493 34.784C34.3904 34.8816 34.4118 34.9863 34.4124 35.0922H34.4077ZM38.2843 30.7656C38.1246 30.7665 37.9683 30.72 37.8351 30.632C37.7019 30.544 37.5978 30.4184 37.5361 30.2712C37.4743 30.1239 37.4577 29.9617 37.4883 29.805C37.5189 29.6483 37.5953 29.5042 37.7078 29.3909C37.8204 29.2777 37.9641 29.2004 38.1206 29.169C38.2771 29.1375 38.4395 29.1532 38.5871 29.214C38.7347 29.2749 38.8609 29.3783 38.9497 29.5109C39.0385 29.6436 39.0859 29.7997 39.0859 29.9594C39.0859 30.1716 39.0022 30.3752 38.853 30.5262C38.7039 30.6771 38.5012 30.7631 38.289 30.7656H38.2843Z" fill="white"/>
</g>
<defs>
<clipPath id="clip0_0_58">
<rect width="30" height="30" fill="white" transform="translate(10 10)"/>
</clipPath>
</defs>
</svg>
