<svg width="50" height="50" viewBox="0 0 50 50" fill="none" xmlns="http://www.w3.org/2000/svg">
<rect width="50" height="50" rx="8" fill="url(#paint0_linear_78_2684)"/>
<g clip-path="url(#clip0_78_2684)">
<path d="M34.2192 25.8203C34.5578 26.7751 35.4696 27.4609 36.5391 27.4609C37.896 27.4609 39 26.357 39 25C39 23.643 37.896 22.5391 36.5391 22.5391C35.4696 22.5391 34.5578 23.2249 34.2192 24.1797H27.9531V21.9922H33.2578C33.4497 21.9922 33.6355 21.9249 33.783 21.802L35.2826 20.5524C35.6507 20.7719 36.0803 20.8984 36.5391 20.8984C37.896 20.8984 39 19.7945 39 18.4375C39 17.0805 37.896 15.9766 36.5391 15.9766C35.1821 15.9766 34.0781 17.0805 34.0781 18.4375C34.0781 18.7381 34.1325 19.0261 34.2316 19.2926L32.9608 20.3516H27.9531V14.3359H30.3911C30.7297 15.2907 31.6415 15.9766 32.7109 15.9766C34.0679 15.9766 35.1719 14.8726 35.1719 13.5156C35.1719 12.1587 34.0679 11.0547 32.7109 11.0547C31.6415 11.0547 30.7297 11.7405 30.3911 12.6953H27.9531V11.875C27.9531 11.422 27.5858 11.0547 27.1328 11.0547H22.7578C22.3048 11.0547 21.9375 11.422 21.9375 11.875V13.0712C20.7686 13.3633 19.6621 13.8203 18.6343 14.4353L17.7914 13.5924C17.471 13.272 16.9516 13.272 16.6313 13.5924L13.5377 16.6859C13.2173 17.0062 13.2173 17.5256 13.5377 17.846L14.3806 18.689C13.7656 19.7166 13.3087 20.8231 13.0165 21.9922H11.8203C11.3673 21.9922 11 22.3595 11 22.8125V27.1875C11 27.6405 11.3673 28.0078 11.8203 28.0078H13.0165C13.3087 29.1768 13.7656 30.2833 14.3806 31.311L13.5377 32.1539C13.3838 32.3077 13.2974 32.5164 13.2974 32.734C13.2974 32.9515 13.3838 33.1602 13.5377 33.314L16.6313 36.4075C16.9516 36.7278 17.471 36.7278 17.7914 36.4075L18.6343 35.5646C19.662 36.1796 20.7685 36.6366 21.9375 36.9287V38.125C21.9375 38.578 22.3048 38.9453 22.7578 38.9453H27.1328C27.5858 38.9453 27.9531 38.578 27.9531 38.125V37.3047H30.3911C30.7297 38.2595 31.6415 38.9453 32.7109 38.9453C34.0679 38.9453 35.1719 37.8413 35.1719 36.4844C35.1719 35.1274 34.0679 34.0234 32.7109 34.0234C31.6415 34.0234 30.7297 34.7093 30.3911 35.6641H27.9531V29.6484H32.9608L34.2316 30.7074C34.1325 30.9739 34.0781 31.2619 34.0781 31.5625C34.0781 32.9195 35.1821 34.0234 36.5391 34.0234C37.896 34.0234 39 32.9195 39 31.5625C39 30.2055 37.896 29.1016 36.5391 29.1016C36.0803 29.1016 35.6507 29.2281 35.2826 29.4476L33.783 28.198C33.6355 28.0751 33.4497 28.0078 33.2578 28.0078H27.9531V25.8203H34.2192ZM36.5391 24.1797C36.9914 24.1797 37.3594 24.5477 37.3594 25C37.3594 25.4523 36.9914 25.8203 36.5391 25.8203C36.0867 25.8203 35.7188 25.4523 35.7188 25C35.7188 24.5477 36.0867 24.1797 36.5391 24.1797ZM36.5391 17.6172C36.9914 17.6172 37.3594 17.9852 37.3594 18.4375C37.3594 18.8898 36.9914 19.2578 36.5391 19.2578C36.0867 19.2578 35.7188 18.8898 35.7188 18.4375C35.7188 17.9852 36.0867 17.6172 36.5391 17.6172ZM32.7109 12.6953C33.1633 12.6953 33.5312 13.0633 33.5312 13.5156C33.5312 13.9679 33.1633 14.3359 32.7109 14.3359C32.2586 14.3359 31.8906 13.9679 31.8906 13.5156C31.8906 13.0633 32.2586 12.6953 32.7109 12.6953ZM32.7109 35.6641C33.1633 35.6641 33.5312 36.0321 33.5312 36.4844C33.5312 36.9367 33.1633 37.3047 32.7109 37.3047C32.2586 37.3047 31.8906 36.9367 31.8906 36.4844C31.8906 36.0321 32.2586 35.6641 32.7109 35.6641ZM36.5391 30.7422C36.9914 30.7422 37.3594 31.1102 37.3594 31.5625C37.3594 32.0148 36.9914 32.3828 36.5391 32.3828C36.0867 32.3828 35.7188 32.0148 35.7188 31.5625C35.7188 31.1102 36.0867 30.7422 36.5391 30.7422ZM26.3125 30.5714C25.8607 30.6842 25.4029 30.7422 24.9453 30.7422C21.7791 30.7422 19.2031 28.1662 19.2031 25C19.2031 21.8338 21.7791 19.2578 24.9453 19.2578C25.4029 19.2578 25.8607 19.3159 26.3125 19.4286V30.5714ZM23.5781 37.3047V36.2704C23.5781 35.8773 23.2992 35.5395 22.9132 35.4649C21.4912 35.1905 20.1675 34.6438 18.9791 33.8399C18.6535 33.6197 18.2174 33.6614 17.9395 33.9393L17.2114 34.6674L15.2779 32.734L16.006 32.0059C16.284 31.7279 16.3256 31.2919 16.1054 30.9662C15.3016 29.7778 14.7548 28.4541 14.4803 27.032C14.4058 26.6461 14.068 26.3672 13.6749 26.3672H12.6406V23.6328H13.6749C14.068 23.6328 14.4058 23.3539 14.4803 22.968C14.7548 21.5458 15.3016 20.2221 16.1054 19.0338C16.3256 18.7082 16.2839 18.2721 16.0059 17.9941L15.2778 17.266L17.2113 15.3326L17.9394 16.0607C18.2173 16.3386 18.6534 16.3804 18.979 16.1601C20.1675 15.3562 21.4912 14.8095 22.9132 14.5351C23.2992 14.4605 23.5781 14.1227 23.5781 13.7296V12.6953H26.3125V17.7482C25.86 17.6613 25.403 17.6172 24.9453 17.6172C20.8744 17.6172 17.5625 20.9291 17.5625 25C17.5625 29.0709 20.8744 32.3828 24.9453 32.3828C25.403 32.3828 25.86 32.3388 26.3125 32.2518V37.3047H23.5781Z" fill="white"/>
</g>
<defs>
<linearGradient id="paint0_linear_78_2684" x1="-30.4687" y1="-10.9375" x2="79.6875" y2="75.3906" gradientUnits="userSpaceOnUse">
<stop stop-color="#27AE60"/>
<stop offset="1" stop-color="#0052CC"/>
</linearGradient>
<clipPath id="clip0_78_2684">
<rect width="28" height="28" fill="white" transform="translate(11 11)"/>
</clipPath>
</defs>
</svg>
