<svg width="50" height="50" viewBox="0 0 50 50" fill="none" xmlns="http://www.w3.org/2000/svg">
<rect width="50" height="50" rx="8" fill="#F2F2F2"/>
<path d="M24.9982 35.0102C25.1253 35.299 25.27 35.5785 25.4312 35.8469C24.4679 36.4639 23.4103 37.0229 22.2805 37.5109C22.2208 37.5367 22.1575 37.5496 22.0942 37.5496C22.0309 37.5496 21.9676 37.5367 21.9085 37.5109C18.8352 36.1826 16.3684 34.3668 14.5403 32.091V32.0904L14.8907 31.0586C15.8241 27.877 18.7602 25.6709 22.0942 25.6709C23.5813 25.6709 24.9993 26.0969 26.2251 26.9078C25.0567 28.2525 24.3489 30.0074 24.3489 31.9246C24.3489 33.0221 24.5809 34.0656 24.9981 35.0102H24.9982ZM22.0943 16.7564C19.8952 16.7564 18.1058 18.5453 18.1058 20.7449C18.1058 22.9445 19.8952 24.7334 22.0943 24.7334C24.2933 24.7334 26.0827 22.9439 26.0827 20.7449C26.0827 18.5459 24.2939 16.7564 22.0943 16.7564ZM38.7307 31.9246C38.7307 35.6313 35.7149 38.6471 32.0083 38.6471C28.3017 38.6471 25.2864 35.6313 25.2864 31.9246C25.2864 28.218 28.3017 25.2021 32.0083 25.2021C35.715 25.2021 38.7307 28.218 38.7307 31.9246ZM35.6874 30.3268C35.6874 29.783 35.245 29.3406 34.7012 29.3406H34.0461V28.2654C34.0461 27.1422 33.1321 26.2275 32.0083 26.2275C30.8844 26.2275 29.9704 27.1422 29.9704 28.2654V29.3406H29.3159C28.7721 29.3406 28.3297 29.783 28.3297 30.3268V35.7127C28.3297 36.2564 28.7721 36.6988 29.3159 36.6988H34.7012C35.245 36.6988 35.6874 36.2564 35.6874 35.7127V30.3268ZM19.737 25.0697C18.2077 24.2324 17.1682 22.6082 17.1682 20.7449C17.1682 18.0285 19.3778 15.8189 22.0942 15.8189C24.8106 15.8189 27.0202 18.0285 27.0202 20.7449C27.0202 22.6053 25.9836 24.2283 24.4573 25.0662C25.3215 25.317 26.1407 25.7066 26.893 26.2281C28.25 25.0076 30.0442 24.2646 32.0083 24.2646C32.0704 24.2646 32.1319 24.2652 32.1934 24.267C32.5116 24.2746 32.8251 24.3016 33.1327 24.3473C33.6442 21.7311 33.718 18.7639 33.3542 15.5178C33.329 15.2975 33.1532 15.1246 32.9323 15.1035C29.0223 14.7332 25.4751 13.2848 22.3883 10.798C22.2167 10.6598 21.9717 10.6598 21.8001 10.798C18.714 13.2848 15.1661 14.7332 11.2568 15.1035C11.0359 15.1246 10.8595 15.2975 10.8349 15.5178C10.2261 20.9395 10.846 25.5396 12.6782 29.1906C13.0069 29.8457 13.3761 30.4732 13.7857 31.0727C13.9849 30.5641 14.2778 29.9752 14.2778 29.9752C15.2587 27.5793 17.2895 25.7822 19.737 25.0697ZM34.7499 30.3268V35.7127C34.7499 35.7385 34.727 35.7613 34.7012 35.7613H29.3159C29.2895 35.7613 29.2672 35.7385 29.2672 35.7127V30.3268C29.2672 30.301 29.2895 30.2781 29.3159 30.2781H34.7012C34.727 30.2781 34.7499 30.301 34.7499 30.3268ZM33.7034 31.6451C33.51 31.4729 33.2135 31.4898 33.0418 31.6826L31.5495 33.3555L30.9629 32.7484C30.7831 32.5621 30.4866 32.5574 30.3002 32.7373C30.1139 32.9172 30.1086 33.2137 30.2885 33.4L31.2254 34.3703C31.3139 34.4617 31.4358 34.5133 31.5629 34.5133H31.5723C31.7024 34.5109 31.826 34.4541 31.9127 34.3568L33.7409 32.3072C33.9137 32.1139 33.8967 31.8174 33.7034 31.6451ZM33.1086 28.2654C33.1086 27.659 32.6153 27.165 32.0083 27.165C31.4012 27.165 30.9079 27.659 30.9079 28.2654V29.3406H33.1086V28.2654Z" fill="#27AE60"/>
</svg>
