<svg width="50" height="50" viewBox="0 0 50 50" fill="none" xmlns="http://www.w3.org/2000/svg">
<rect width="50" height="50" rx="8" fill="#F4F4F4"/>
<path d="M17.1691 16.4568C17.1691 15.8341 17.6728 15.3247 18.3011 15.3247H31.6992C32.3275 15.3247 32.8313 15.8341 32.8313 16.4568V18.6587H34.1502V14.453C34.1502 14.1134 33.8728 13.8361 33.5332 13.8361H23.6672C22.9936 13.8361 22.3879 13.4625 22.0823 12.8681L21.5445 11.8153C21.4313 11.6002 21.2106 11.4644 20.9672 11.4644H16.4898C16.1445 11.4644 15.8672 11.7417 15.8672 12.0813V18.6587H17.1691V16.4568Z" fill="#27AE60"/>
<path d="M18.3008 16.4565H31.6989V18.6584H18.3008V16.4565Z" fill="#27AE60"/>
<path d="M35.0956 19.791H14.905C14.5251 19.791 14.204 20.1275 14.2654 20.5325L15.7314 30.4495C15.7767 30.7721 16.0484 31.0099 16.371 31.0099H18.2729V26.6344C18.2729 25.7231 18.9918 24.9759 19.9144 24.9419C21.6578 24.857 22.988 24.4608 23.9559 23.725C24.2729 23.4929 24.6295 23.374 25.0031 23.374C25.371 23.374 25.7276 23.4929 26.0333 23.7137C27.0126 24.4608 28.3427 24.857 30.1031 24.9476C31.0031 24.9759 31.722 25.7231 31.722 26.6344V31.0099H33.6295C33.9465 31.0099 34.2239 30.7721 34.2692 30.4551L35.7352 20.5325C35.7958 20.1323 35.481 19.791 35.0956 19.791Z" fill="#27AE60"/>
<path d="M30.0468 26.0757C28.2185 25.9852 26.6109 25.5719 25.36 24.6267C25.1449 24.4682 24.8562 24.4682 24.6411 24.6267C23.3902 25.5719 21.7826 25.9852 19.9543 26.0757C19.6487 26.0871 19.4053 26.3361 19.4053 26.6361V31.1418C19.4053 33.1569 20.2034 35.121 21.6921 36.4852C22.9656 37.6569 24.2789 38.2795 24.7826 38.4889C24.9241 38.5512 25.0769 38.5512 25.2185 38.4889C25.7053 38.2852 26.9336 37.7078 28.1675 36.6153C28.1789 36.6097 28.1845 36.5927 28.1958 36.587C29.7468 35.2229 30.5902 33.2078 30.5902 31.1361V26.6361C30.5902 26.3361 30.3524 26.0871 30.0468 26.0757ZM25.8901 31.4336C25.7737 31.5305 25.7156 31.676 25.735 31.8262C25.798 32.2431 25.9192 33.0673 25.9967 33.5957C26.0355 33.8575 25.8319 34.0901 25.5653 34.0901H24.4357C24.1691 34.0901 23.9655 33.8575 24.0043 33.5908L24.2612 31.8262C24.2854 31.6808 24.2321 31.5305 24.1158 31.4384C23.8007 31.1815 23.6019 30.7888 23.6019 30.3525C23.6019 29.4314 24.4987 28.7091 25.4538 29.0242C25.8659 29.1599 26.1955 29.4944 26.3264 29.9017C26.5203 30.5076 26.307 31.0894 25.8901 31.4336Z" fill="#27AE60"/>
</svg>
