<svg width="50" height="50" viewBox="0 0 50 50" fill="none" xmlns="http://www.w3.org/2000/svg">
<rect width="50" height="50" rx="8" fill="#27AE60"/>
<g clip-path="url(#clip0_78_1804)">
<path d="M38.0536 24.1211C38.2078 23.1287 38.0246 22.1006 37.5094 21.2082C37.194 20.6618 36.775 20.1989 36.2806 19.8376C37.1884 17.7835 36.4191 15.3252 34.4309 14.1774C33.8586 13.847 33.2427 13.6595 32.6241 13.6016C32.2235 11.5519 30.4146 10 28.2493 10C26.7847 10 25.4831 10.71 24.6699 11.8037C23.8567 10.71 22.5551 10 21.0905 10C18.9252 10 17.1164 11.5519 16.7157 13.6017C16.0971 13.6596 15.4813 13.847 14.9089 14.1774C12.9208 15.3253 12.1515 17.7835 13.0593 19.8376C12.5647 20.1989 12.1459 20.6618 11.8304 21.2082C11.3152 22.1006 11.132 23.1287 11.2862 24.1211H9.66992V25C9.66992 29.0066 11.2302 32.7735 14.0633 35.6066C16.8965 38.4397 20.6633 40 24.6699 40C28.6766 40 32.4434 38.4397 35.2766 35.6066C38.1096 32.7735 39.6699 29.0066 39.6699 25V24.1211H38.0536ZM28.2493 11.7578C29.507 11.7578 30.5665 12.622 30.8654 13.7877C29.8366 14.1107 28.9211 14.804 28.3408 15.8093L29.8631 16.6882C30.6076 15.3986 32.2624 14.9553 33.552 15.6997C34.7479 16.3902 35.2153 17.8633 34.6833 19.1021C33.5694 18.8354 32.4151 19.0014 31.4193 19.5763L32.2982 21.0986C32.9229 20.7379 33.6506 20.6421 34.3474 20.8288C35.0441 21.0156 35.6265 21.4623 35.9871 22.0871C36.3461 22.7089 36.4385 23.4395 36.2601 24.1211H25.5488V14.4583C25.5488 12.9692 26.7603 11.7578 28.2493 11.7578ZM23.791 32.9395V38.0943C22.5765 37.689 21.3986 36.4623 20.4635 34.592C20.205 34.075 19.9705 33.522 19.7602 32.9395H23.791ZM19.2232 31.1816C18.8075 29.5499 18.5613 27.7528 18.5025 25.8789H23.791V31.1816H19.2232ZM25.5488 38.0943V32.9395H29.5797C29.3694 33.5221 29.1349 34.075 28.8764 34.592C27.9412 36.4623 26.7633 37.689 25.5488 38.0943ZM25.5488 31.1816V25.8789H30.8373C30.7786 27.7528 30.5323 29.5499 30.1167 31.1816H25.5488ZM13.3528 22.0871C13.7134 21.4624 14.2958 21.0156 14.9925 20.8288C15.6893 20.6422 16.4171 20.7379 17.0417 21.0986L17.9206 19.5763C16.9248 19.0013 15.7704 18.8355 14.6566 19.1021C14.1246 17.8633 14.592 16.3902 15.7879 15.6997C17.0776 14.9553 18.7323 15.3987 19.4768 16.6882L20.9991 15.8093C20.4187 14.8041 19.5032 14.1108 18.4745 13.7878C18.7733 12.6221 19.8329 11.7578 21.0905 11.7578C22.5796 11.7578 23.791 12.9692 23.791 14.4583V24.1211H13.0798C12.9014 23.4395 12.9938 22.7089 13.3528 22.0871ZM16.744 25.8789C16.7991 27.7338 17.0279 29.5263 17.4154 31.1816H12.9526C12.0904 29.5523 11.5782 27.7536 11.4563 25.8789H16.744ZM14.0694 32.9395H17.9035C18.1855 33.8088 18.5154 34.6264 18.8913 35.3782C19.289 36.1736 19.727 36.8726 20.1976 37.4714C18.3792 36.8208 16.7125 35.7698 15.3063 34.3636C14.8571 33.9144 14.4447 33.4383 14.0694 32.9395ZM29.1423 37.4714C29.6129 36.8726 30.0509 36.1735 30.4486 35.3782C30.8245 34.6264 31.1544 33.8088 31.4364 32.9395H35.2705C34.8952 33.4383 34.4829 33.9144 34.0336 34.3636C32.6274 35.7698 30.9607 36.8208 29.1423 37.4714ZM36.3872 31.1816H31.9244C32.3118 29.5263 32.5407 27.7338 32.5958 25.8789H37.8836C37.7616 27.7536 37.2494 29.5523 36.3872 31.1816Z" fill="white"/>
</g>
<defs>
<clipPath id="clip0_78_1804">
<rect width="30" height="30" fill="white" transform="translate(9.66992 10)"/>
</clipPath>
</defs>
</svg>
