<svg width="50" height="50" viewBox="0 0 50 50" fill="none" xmlns="http://www.w3.org/2000/svg">
<rect width="50" height="50" rx="8" fill="url(#paint0_linear_78_2245)"/>
<g clip-path="url(#clip0_78_2245)">
<path fill-rule="evenodd" clip-rule="evenodd" d="M15.0639 21.4212C14.8871 22.2483 14.1515 22.8694 13.2719 22.8694C12.2606 22.8694 11.4395 22.0483 11.4395 21.0369C11.4395 20.0256 12.2606 19.2045 13.2719 19.2045C14.1515 19.2045 14.8871 19.8255 15.0639 20.6526H16.2121V20.2183C16.2121 19.7093 16.6251 19.2964 17.1341 19.2964C18.405 19.2964 19.042 17.7572 18.1436 16.8589C17.7838 16.4991 17.7838 15.9152 18.1436 15.5553L18.4514 15.2476L16.8922 13.6885H15.9281C15.7512 14.5156 15.0156 15.1366 14.136 15.1366C13.1247 15.1366 12.3036 14.3155 12.3036 13.3041C12.3036 12.2927 13.1247 11.4717 14.136 11.4717C15.0156 11.4717 15.7512 12.0927 15.9281 12.9198H17.0514C17.1035 12.9198 17.1532 12.9302 17.1985 12.949C17.2439 12.9678 17.2863 12.9955 17.3232 13.0324L18.9949 14.7041L19.3021 14.3969C19.6621 14.037 20.2458 14.037 20.6057 14.3969C21.5041 15.2952 23.0431 14.6582 23.0431 13.3873C23.0431 12.8782 23.4561 12.4654 23.9651 12.4654H25.6023C26.1114 12.4654 26.5243 12.8782 26.5243 13.3873C26.5243 14.6582 28.0634 15.2952 28.9617 14.3969C29.3214 14.0371 29.9066 14.0371 30.2663 14.3969L30.5734 14.7043L32.2453 13.0324C32.2821 12.9955 32.3245 12.9678 32.3699 12.949C32.4152 12.9302 32.4649 12.9198 32.517 12.9198H34.0724C34.2492 12.0927 34.9849 11.4717 35.8645 11.4717C36.8758 11.4717 37.6969 12.2927 37.6969 13.3041C37.6969 14.3155 36.8758 15.1366 35.8645 15.1366C34.9849 15.1366 34.2492 14.5156 34.0724 13.6885H32.6762L31.1166 15.2479L31.4238 15.5553C31.7837 15.9152 31.7837 16.4991 31.4238 16.8589C30.5255 17.7572 31.1632 19.2964 32.4334 19.2964C32.9441 19.2964 33.3553 19.7093 33.3553 20.2183V20.6526H34.9366C35.1133 19.8255 35.849 19.2045 36.7286 19.2045C37.7399 19.2045 38.561 20.0256 38.561 21.0369C38.561 22.0483 37.7399 22.8694 36.7286 22.8694C35.849 22.8694 35.1133 22.2483 34.9366 21.4212H33.3553V21.8555C33.3553 22.3646 32.9441 22.7775 32.4334 22.7775C31.1632 22.7775 30.5255 24.3166 31.4238 25.2149C31.7835 25.5746 31.7835 26.1598 31.4238 26.5195L31.117 26.8262L32.6762 28.3854H34.0724C34.2492 27.5583 34.9849 26.9372 35.8645 26.9372C36.8758 26.9372 37.6969 27.7583 37.6969 28.7697C37.6969 29.7811 36.8758 30.6022 35.8645 30.6022C34.9849 30.6022 34.2492 29.9812 34.0724 29.154H32.517C32.4649 29.154 32.4152 29.1436 32.3699 29.1249C32.3245 29.1061 32.2821 29.0783 32.2453 29.0415L30.5735 27.3698L30.2663 27.677C29.9066 28.0367 29.3214 28.0367 28.9617 27.677C28.0634 26.7787 26.5243 27.4164 26.5243 28.6865C26.5243 29.1973 26.1114 29.6085 25.6023 29.6085H23.9651C23.4561 29.6085 23.0431 29.1973 23.0431 28.6865C23.0431 27.4149 21.5048 26.7779 20.6057 27.677C20.2458 28.0369 19.6621 28.0369 19.3023 27.6771L18.9948 27.3699L17.3232 29.0415C17.2863 29.0783 17.2439 29.1061 17.1985 29.1249C17.1532 29.1436 17.1035 29.154 17.0514 29.154H15.9281C15.7512 29.9812 15.0156 30.6022 14.136 30.6022C13.1247 30.6022 12.3036 29.7811 12.3036 28.7697C12.3036 27.7583 13.1247 26.9372 14.136 26.9372C15.0156 26.9372 15.7512 27.5583 15.9281 28.3854H16.8922L18.451 26.8266L18.1436 26.5195C17.784 26.1598 17.784 25.5746 18.1436 25.2149C19.042 24.3166 18.405 22.7775 17.1341 22.7775C16.6251 22.7775 16.2121 22.3646 16.2121 21.8555V21.4212H15.0639ZM14.3358 21.0369C14.3358 20.4498 13.859 19.9731 13.2719 19.9731C12.6848 19.9731 12.2081 20.4498 12.2081 21.0369C12.2081 21.6241 12.6848 22.1008 13.2719 22.1008C13.859 22.1008 14.3358 21.6241 14.3358 21.0369ZM19.8457 14.9404L18.6872 16.0989C18.6274 16.1587 18.6274 16.2556 18.6872 16.3154C20.0691 17.6973 19.0892 20.065 17.1341 20.065C17.0494 20.065 16.9808 20.1337 16.9808 20.2183V21.8555C16.9808 21.9402 17.0494 22.0088 17.1341 22.0088C19.0892 22.0088 20.0691 24.3765 18.6872 25.7584C18.6272 25.8184 18.6272 25.9159 18.6872 25.976L19.8457 27.1335C19.9054 27.1933 20.0025 27.1933 20.0622 27.1335C21.4453 25.7504 23.8118 26.7303 23.8118 28.6865C23.8118 28.7715 23.8805 28.8399 23.9651 28.8399H25.6023C25.687 28.8399 25.7556 28.7715 25.7556 28.6865C25.7556 26.7326 28.1233 25.7516 29.5052 27.1335C29.5652 27.1935 29.6628 27.1935 29.7227 27.1335L30.8803 25.976C30.9402 25.916 30.9402 25.8184 30.8803 25.7584C29.4984 24.3765 30.4795 22.0088 32.4334 22.0088C32.5183 22.0088 32.5867 21.9402 32.5867 21.8555V20.2183C32.5867 20.1337 32.5183 20.065 32.4334 20.065C30.4795 20.065 29.4984 17.6973 30.8803 16.3154C30.9401 16.2556 30.9401 16.1587 30.8803 16.0989L29.7227 14.9403C29.6628 14.8804 29.5652 14.8804 29.5052 14.9404C28.1233 16.3223 25.7556 15.3424 25.7556 13.3873C25.7556 13.3027 25.687 13.234 25.6023 13.234H23.9651C23.8805 13.234 23.8118 13.3027 23.8118 13.3873C23.8118 15.3424 21.4441 16.3223 20.0622 14.9404C20.0025 14.8805 19.9054 14.8805 19.8457 14.9404ZM15.1999 13.3041C15.1999 12.717 14.7232 12.2403 14.136 12.2403C13.5489 12.2403 13.0722 12.717 13.0722 13.3041C13.0722 13.8913 13.5489 14.368 14.136 14.368C14.7232 14.368 15.1999 13.8913 15.1999 13.3041ZM34.8006 13.3041C34.8006 13.8913 35.2773 14.368 35.8645 14.368C36.4516 14.368 36.9283 13.8913 36.9283 13.3041C36.9283 12.717 36.4516 12.2403 35.8645 12.2403C35.2773 12.2403 34.8006 12.717 34.8006 13.3041ZM35.6647 21.0369C35.6647 21.6241 36.1414 22.1008 36.7286 22.1008C37.3157 22.1008 37.7924 21.6241 37.7924 21.0369C37.7924 20.4498 37.3157 19.9731 36.7286 19.9731C36.1414 19.9731 35.6647 20.4498 35.6647 21.0369ZM34.8006 28.7697C34.8006 29.3569 35.2773 29.8335 35.8645 29.8335C36.4516 29.8335 36.9283 29.3569 36.9283 28.7697C36.9283 28.1826 36.4516 27.7059 35.8645 27.7059C35.2773 27.7059 34.8006 28.1826 34.8006 28.7697ZM15.1999 28.7697C15.1999 28.1826 14.7232 27.7059 14.136 27.7059C13.5489 27.7059 13.0722 28.1826 13.0722 28.7697C13.0722 29.3569 13.5489 29.8335 14.136 29.8335C14.7232 29.8335 15.1999 29.3569 15.1999 28.7697ZM24.7842 25.7466C22.19 25.7466 20.075 23.6305 20.075 21.0374C20.075 18.4432 22.19 16.3282 24.7842 16.3282C27.3773 16.3282 29.4934 18.4432 29.4934 21.0374C29.4934 23.6305 27.3773 25.7466 24.7842 25.7466ZM24.7842 24.978C26.954 24.978 28.7248 23.2072 28.7248 21.0374C28.7248 18.8666 26.954 17.0968 24.7842 17.0968C22.6134 17.0968 20.8436 18.8666 20.8436 21.0374C20.8436 23.2072 22.6134 24.978 24.7842 24.978ZM21.1141 20.7848C22.2823 19.4451 23.4893 18.7853 24.7093 18.7786C25.924 18.7719 27.178 19.4145 28.4459 20.7754C28.5833 20.9228 28.5833 21.152 28.4459 21.2994C27.178 22.6603 25.924 23.3029 24.7093 23.2962C23.4893 23.2894 22.2823 22.6297 21.1141 21.29C20.988 21.1455 20.988 20.9293 21.1141 20.7848ZM24.1509 19.6096C23.3948 19.7736 22.6556 20.2582 21.9221 21.0374C22.6556 21.8166 23.3948 22.3012 24.1509 22.4652C23.6041 22.222 23.2225 21.6739 23.2225 21.0374C23.2225 20.4009 23.6041 19.8527 24.1509 19.6096ZM25.5297 22.4098C26.2202 22.2078 26.9178 21.7474 27.6304 21.0374C26.9178 20.3275 26.2202 19.867 25.5297 19.665C26.0158 19.9298 26.3459 20.4454 26.3459 21.0374C26.3459 21.6294 26.0158 22.145 25.5297 22.4098ZM24.7842 20.2443C24.3465 20.2443 23.9911 20.5997 23.9911 21.0374C23.9911 21.4751 24.3465 21.8305 24.7842 21.8305C25.2219 21.8305 25.5773 21.4751 25.5773 21.0374C25.5773 20.5997 25.2219 20.2443 24.7842 20.2443ZM29.1286 31.2372C29.3251 31.1575 29.5494 31.2523 29.6292 31.4489C29.7089 31.6455 29.614 31.8697 29.4175 31.9495C27.9864 32.53 26.4221 32.8499 24.7837 32.8499C23.1456 32.8499 21.5817 32.5301 20.1507 31.9498C19.9542 31.8701 19.8593 31.6458 19.939 31.4492C20.0188 31.2526 20.243 31.1578 20.4396 31.2375C21.7813 31.7816 23.2478 32.0813 24.7837 32.0813C26.3199 32.0813 27.7867 31.7815 29.1286 31.2372ZM30.6675 33.6409C30.8607 33.5534 31.0886 33.6392 31.1762 33.8324C31.2637 34.0256 31.1779 34.2536 30.9847 34.3411C29.0932 35.1979 26.9938 35.6752 24.7837 35.6752C22.574 35.6752 20.4748 35.1981 18.5835 34.3414C18.3903 34.2539 18.3045 34.026 18.392 33.8328C18.4795 33.6396 18.7074 33.5537 18.9006 33.6413C20.6952 34.4541 22.687 34.9066 24.7837 34.9066C26.8807 34.9066 28.8729 34.454 30.6675 33.6409ZM32.3482 36.0155C32.5387 35.9223 32.7691 36.0014 32.8623 36.1919C32.9554 36.3825 32.8764 36.6128 32.6859 36.706C30.2992 37.8731 27.6174 38.5285 24.7837 38.5285C21.9503 38.5285 19.2688 37.8732 16.8824 36.7063C16.6918 36.6132 16.6128 36.3828 16.7059 36.1923C16.7991 36.0017 17.0295 35.9227 17.22 36.0158C19.5044 37.1329 22.0714 37.7598 24.7837 37.7598C27.4963 37.7598 30.0636 37.1327 32.3482 36.0155Z" fill="white"/>
</g>
<defs>
<linearGradient id="paint0_linear_78_2245" x1="-30.4687" y1="-10.9375" x2="79.6875" y2="75.3906" gradientUnits="userSpaceOnUse">
<stop stop-color="#27AE60"/>
<stop offset="1" stop-color="#0052CC"/>
</linearGradient>
<clipPath id="clip0_78_2245">
<rect width="28" height="28" fill="white" transform="translate(11 11)"/>
</clipPath>
</defs>
</svg>
