<svg width="56" height="56" viewBox="0 0 56 56" fill="none" xmlns="http://www.w3.org/2000/svg">
<rect width="55.9998" height="55.9998" rx="8.83849" fill="url(#paint0_linear_2638_799)"/>
<g clip-path="url(#clip0_2638_799)">
<path d="M28.026 42.7342C27.89 42.7342 27.7541 42.705 27.6279 42.647L24.7814 41.3333C18.6697 38.5123 14.7206 32.3404 14.7206 25.6092V16.1234C14.7206 15.6404 15.083 15.2339 15.5633 15.179C17.4404 14.9646 19.3268 14.6504 21.169 14.2449C23.378 13.7586 25.5781 13.1298 27.709 12.3762C27.9141 12.3037 28.1378 12.3037 28.3429 12.3762C30.4739 13.1298 32.6739 13.7586 34.8828 14.2449C36.7252 14.6505 38.6115 14.9646 40.4886 15.179C40.9689 15.2338 41.3313 15.6404 41.3313 16.1234V25.6092C41.3313 32.3404 37.3822 38.5123 31.2706 41.3333L28.4241 42.647C28.2979 42.705 28.1619 42.7342 28.026 42.7342ZM16.6214 16.9652V25.6092C16.6214 31.6016 20.137 37.096 25.5776 39.607L28.026 40.737L30.4744 39.607C35.9149 37.096 39.4306 31.6016 39.4306 25.6092V16.9652C37.7679 16.7498 36.1047 16.4599 34.4745 16.1011C32.299 15.6222 30.131 15.0097 28.026 14.2792C25.9211 15.0097 23.753 15.6222 21.5774 16.1011C19.9472 16.4598 18.2841 16.7498 16.6214 16.9652Z" fill="white"/>
<path d="M31.8275 34.1807H24.2244C23.1762 34.1807 22.3237 33.3282 22.3237 32.28V25.6273C22.3237 24.579 23.1762 23.7265 24.2244 23.7265H31.8275C32.8758 23.7265 33.7283 24.579 33.7283 25.6273V32.28C33.7283 33.3282 32.8758 34.1807 31.8275 34.1807ZM24.2244 25.6273V32.28H31.829L31.8275 25.6273H24.2244Z" fill="white"/>
<path d="M30.8771 25.6273H25.1748C24.65 25.6273 24.2244 25.2017 24.2244 24.6769V22.7761C24.2244 20.6799 25.9298 18.9746 28.026 18.9746C30.1222 18.9746 31.8275 20.6799 31.8275 22.7761V24.6769C31.8275 25.2017 31.4019 25.6273 30.8771 25.6273ZM26.1252 23.7265H29.9268V22.7761C29.9268 21.7278 29.0743 20.8753 28.026 20.8753C26.9777 20.8753 26.1252 21.7278 26.1252 22.7761V23.7265Z" fill="white"/>
</g>
<defs>
<linearGradient id="paint0_linear_2638_799" x1="-34.1249" y1="-12.25" x2="89.2497" y2="84.4372" gradientUnits="userSpaceOnUse">
<stop stop-color="#27AE60"/>
<stop offset="1" stop-color="#0052CC"/>
</linearGradient>
<clipPath id="clip0_2638_799">
<rect width="30" height="30" fill="white" transform="translate(12.8198 12.3219) scale(1.01374)"/>
</clipPath>
</defs>
</svg>
