<svg width="50" height="50" viewBox="0 0 50 50" fill="none" xmlns="http://www.w3.org/2000/svg">
<rect width="50" height="50" rx="8" fill="url(#paint0_linear_78_2674)"/>
<g clip-path="url(#clip0_78_2674)">
<path d="M37.4765 20.1051C36.9848 20.0041 35.9336 20.1323 35.4162 21.3364C35.4127 21.3446 35.4094 21.3529 35.4062 21.3612L33.8079 25.6476C33.5345 25.487 33.2223 25.4014 32.8972 25.4014C32.5513 25.4014 32.2147 25.5004 31.9244 25.6873L27.8252 28.3185C26.2699 29.2657 25.4413 30.5094 25 31.5608C24.5587 30.5094 23.7301 29.2657 22.1748 28.3185L18.0762 25.6877C17.7854 25.5004 17.4487 25.4014 17.1029 25.4014C16.7777 25.4014 16.4656 25.4871 16.1921 25.6477C16.1921 25.6477 14.5873 21.3447 14.5838 21.3365C14.0664 20.1324 13.0154 20.0043 12.5235 20.1052C11.5249 20.2914 10.8911 21.1516 11.0155 22.1533C11.0183 22.1751 12.7594 29.1796 12.7594 29.1796C13.2189 31.0172 14.4678 32.8709 16.1001 34.1382C16.1057 34.1426 16.1114 34.1469 16.1172 34.151L18.8804 36.128V37.1092C18.8804 37.7123 19.3711 38.2029 19.9742 38.2029H30.0258C30.6289 38.2029 31.1196 37.7123 31.1196 37.1092V36.128L33.8828 34.151C33.8886 34.1469 33.8943 34.1426 33.9 34.1382C35.5322 32.8709 36.781 31.0172 37.2408 29.1789C37.2408 29.1789 38.9817 22.1751 38.9845 22.1533C39.1088 21.1515 38.4751 20.2913 37.4765 20.1051ZM24.447 34.4336C24.4455 34.45 24.4448 37.1091 24.4448 37.1091H19.9742V35.8468C19.9742 35.6703 19.889 35.5047 19.7455 35.402L16.7624 33.2678C15.3426 32.1623 14.2157 30.495 13.8205 28.9148L12.0977 21.9893C12.0588 21.5735 12.3034 21.2573 12.7276 21.1797C12.7384 21.1777 12.7333 21.1791 12.7395 21.1775C12.8443 21.1614 13.2996 21.1311 13.574 21.7567L15.3911 26.6298C15.1835 27.2423 15.3176 27.941 15.7968 28.4447C15.8146 28.4636 18.6186 30.6773 18.6186 30.6773C18.8556 30.8643 19.1996 30.8237 19.3866 30.5865C19.5736 30.3494 19.5331 30.0055 19.2959 29.8185L16.5667 27.6661C16.3277 27.3894 16.3405 26.9643 16.6012 26.7032C16.7355 26.569 16.9136 26.4951 17.1029 26.4951C17.2384 26.4951 17.3702 26.5339 17.4848 26.6077C17.4848 26.6077 21.5971 29.2472 21.601 29.2495C22.8922 30.0344 23.763 31.1382 24.1894 32.5302C24.5132 33.5877 24.4475 34.427 24.447 34.4336ZM37.9023 21.9893L36.1796 28.9141C35.7843 30.495 34.6573 32.1623 33.2375 33.2678L30.2545 35.402C30.1109 35.5047 30.0258 35.6703 30.0258 35.8468V37.1091H25.5552C25.5552 37.1091 25.5544 34.45 25.5529 34.4336C25.55 34.4009 25.2926 31.1376 28.399 29.2495C28.4028 29.2472 32.5158 26.6073 32.5158 26.6073C32.6298 26.5339 32.7616 26.4951 32.8971 26.4951C33.0864 26.4951 33.2645 26.569 33.3985 26.703C33.6594 26.9643 33.6723 27.3894 33.4333 27.6661L30.7041 29.8185C30.4669 30.0055 30.4264 30.3494 30.6134 30.5865C30.8004 30.8237 31.1443 30.8643 31.3814 30.6773C31.3814 30.6773 34.1854 28.4636 34.2033 28.4447C34.6824 27.9411 34.8165 27.2424 34.6089 26.6298L36.426 21.7567C36.7005 21.1311 37.156 21.1613 37.2605 21.1775C37.2666 21.179 37.2616 21.1776 37.2724 21.1796C37.6966 21.2573 37.9412 21.5735 37.9023 21.9893Z" fill="white"/>
<path d="M17.5448 22.8096H20.7271V25.1719C20.7271 25.775 21.2178 26.2656 21.8209 26.2656H22.5132C22.8152 26.2656 23.0601 26.0208 23.0601 25.7187C23.0601 25.4167 22.8152 25.1719 22.5132 25.1719H21.8209C21.8209 25.1719 21.823 22.2298 21.8216 22.2135C21.8357 21.3425 22.5481 20.6382 23.4224 20.6382H26.5782C27.4525 20.6382 28.1649 21.3425 28.179 22.2135C28.1776 22.2298 28.1797 25.1719 28.1797 25.1719H27.4963C27.1943 25.1719 26.9494 25.4167 26.9494 25.7187C26.9494 26.0208 27.1943 26.2656 27.4963 26.2656H28.1797C28.7828 26.2656 29.2734 25.775 29.2734 25.1719V22.8096H32.4558C33.0788 22.8096 33.5855 22.3028 33.5855 21.6799V18.784C33.5855 17.5381 32.7355 16.4873 31.5851 16.18C32.0878 15.6313 32.3952 14.9008 32.3952 14.0997C32.3952 12.3999 31.0123 11.0171 29.3125 11.0171C27.6127 11.0171 26.2299 12.4 26.2299 14.0997C26.2299 14.3272 26.2553 14.5488 26.3024 14.7624C25.9065 14.5771 25.4654 14.473 25.0003 14.473C24.5351 14.473 24.094 14.5771 23.6982 14.7624C23.7451 14.5488 23.7707 14.3272 23.7707 14.0997C23.7707 12.3999 22.3878 11.0171 20.688 11.0171C18.9882 11.0171 17.6054 12.4 17.6054 14.0997C17.6054 14.9008 17.9127 15.6313 18.4154 16.18C17.265 16.4873 16.415 17.5381 16.415 18.784V21.6799C16.4151 22.3029 16.9219 22.8096 17.5448 22.8096ZM32.4918 18.784V21.6799C32.4918 21.6997 32.4757 21.7159 32.4559 21.7159H29.222C29.0224 20.7069 28.258 19.8988 27.2731 19.6357C27.7757 19.0871 28.083 18.3566 28.083 17.5555C28.083 17.4291 28.0745 17.3048 28.0596 17.1824H30.8902C31.7733 17.1824 32.4918 17.9009 32.4918 18.784ZM29.3126 12.1108C30.4093 12.1108 31.3015 13.003 31.3015 14.0997C31.3015 15.1964 30.4093 16.0886 29.3126 16.0886C28.2159 16.0886 27.3237 15.1964 27.3237 14.0997C27.3237 13.003 28.2159 12.1108 29.3126 12.1108ZM26.9892 17.5556C26.9892 18.6523 26.097 19.5445 25.0003 19.5445C23.9036 19.5445 23.0114 18.6523 23.0114 17.5556C23.0114 16.4589 23.9036 15.5667 25.0003 15.5667C26.097 15.5667 26.9892 16.4589 26.9892 17.5556ZM20.688 12.1108C21.7847 12.1108 22.677 13.003 22.677 14.0997C22.677 15.1964 21.7847 16.0886 20.688 16.0886C19.5913 16.0886 18.6992 15.1964 18.6992 14.0997C18.6992 13.003 19.5913 12.1108 20.688 12.1108ZM17.5088 18.784C17.5088 17.9009 18.2273 17.1824 19.1104 17.1824H21.941C21.9262 17.3049 21.9176 17.4292 21.9176 17.5556C21.9176 18.3566 22.2249 19.0871 22.7275 19.6358C21.7426 19.8989 20.9782 20.7069 20.7786 21.7159H17.5448C17.525 21.7159 17.5088 21.6998 17.5088 21.68V18.784Z" fill="white"/>
<path d="M25 26.2656C25.302 26.2656 25.5469 26.0208 25.5469 25.7188C25.5469 25.4167 25.302 25.1719 25 25.1719C24.698 25.1719 24.4531 25.4167 24.4531 25.7188C24.4531 26.0208 24.698 26.2656 25 26.2656Z" fill="white"/>
</g>
<defs>
<linearGradient id="paint0_linear_78_2674" x1="-30.4687" y1="-10.9375" x2="79.6875" y2="75.3906" gradientUnits="userSpaceOnUse">
<stop stop-color="#27AE60"/>
<stop offset="1" stop-color="#0052CC"/>
</linearGradient>
<clipPath id="clip0_78_2674">
<rect width="28" height="28" fill="white" transform="translate(11 10.6099)"/>
</clipPath>
</defs>
</svg>
