<svg width="50" height="50" viewBox="0 0 50 50" fill="none" xmlns="http://www.w3.org/2000/svg">
<rect width="50" height="50" rx="8" fill="#F2F2F2"/>
<path d="M29.2119 29.6541C28.4895 30.377 27.6786 30.9779 26.8086 31.4588L27.3542 32.0045C27.7405 32.3907 28.3667 32.3916 28.7506 32.0082L31.565 29.1938C31.9508 28.808 31.9508 28.1799 31.565 27.7941L31.0189 27.248C30.5375 28.1195 29.9356 28.9309 29.2123 29.6546L29.2119 29.6541Z" fill="#27AE60"/>
<path d="M21.6423 18.1748C20.8403 18.1748 20.1887 18.8137 20.1592 19.6087H23.1179C23.0884 18.8137 22.4401 18.1748 21.6423 18.1748Z" fill="#27AE60"/>
<path d="M31.6582 30.4258L29.9824 32.1016L30.131 32.2502C31.6882 33.8073 32.892 35.6819 33.9607 37.4758C34.1173 37.7472 34.3362 37.982 34.6151 38.1789C35.3974 38.7212 36.5135 38.6866 37.2659 38.095C37.781 37.6877 38.0862 37.1064 38.1237 36.4586C38.1612 35.8202 37.9226 35.1944 37.4693 34.7411C37.293 34.5648 37.0962 34.4237 36.8843 34.3225C35.1288 33.4633 33.469 32.2375 31.8063 30.5739L31.6582 30.4258Z" fill="#27AE60"/>
<path d="M26.9402 27.3825C28.3558 25.9669 29.1348 24.0853 29.1348 22.0838C29.1348 20.0822 28.3553 18.2002 26.9402 16.785C25.525 15.3699 23.643 14.5903 21.6414 14.5903C19.6398 14.5903 17.7578 15.3699 16.3427 16.785C13.4209 19.7067 13.4209 24.4608 16.3427 27.3825C19.2644 30.3038 24.0184 30.3038 26.9402 27.3825ZM15.1914 23.2913C15.1914 23.0325 15.4014 22.8225 15.6602 22.8225H18.7895V22.8169C17.9566 22.5591 17.267 21.9478 16.9295 21.1514L16.4481 20.0175C16.3469 19.7794 16.458 19.5042 16.6966 19.403C16.9342 19.3017 17.2098 19.4128 17.3111 19.6514L17.7925 20.7853C17.988 21.2456 18.3437 21.6014 18.7895 21.8119V20.0771C18.7895 19.8314 18.9808 19.6355 19.2213 19.6158C19.247 18.3005 20.3209 17.2369 21.6428 17.2369C22.9647 17.2369 24.0306 18.3 24.0564 19.6158C24.2969 19.6355 24.4881 19.8314 24.4881 20.0771V21.8142C24.9344 21.6056 25.2939 21.2489 25.4903 20.7853L25.9633 19.6533C26.0631 19.4142 26.3369 19.3008 26.5764 19.4011C26.8155 19.501 26.928 19.7756 26.8286 20.0142L26.3547 21.1481C26.0148 21.9492 25.3225 22.5619 24.4886 22.8178V22.8216H27.6236C27.8823 22.8216 28.0923 23.0316 28.0923 23.2903C28.0923 23.5491 27.8823 23.7591 27.6236 23.7591H25.1364C25.6722 24.0764 26.1058 24.5578 26.3538 25.1428L26.8286 26.2791C26.9284 26.5177 26.8155 26.7924 26.5764 26.8922C26.5178 26.9166 26.4564 26.9288 26.3959 26.9288C26.2122 26.9288 26.0383 26.8205 25.9633 26.6405L25.4894 25.5066C25.285 25.0247 24.8959 24.6441 24.4211 24.4435C24.1427 25.718 23.0097 26.6761 21.6545 26.6836C21.6508 26.6836 21.6475 26.686 21.6437 26.686C21.6409 26.686 21.6391 26.6846 21.6362 26.6846C20.2759 26.6836 19.1373 25.7236 18.857 24.4458C18.3841 24.6474 17.9973 25.0266 17.7925 25.5089L17.3106 26.6433C17.2347 26.8219 17.0612 26.9292 16.8789 26.9292C16.818 26.9292 16.7556 26.9171 16.6961 26.8917C16.4575 26.7905 16.3464 26.5153 16.4477 26.2772L16.9291 25.1433C17.177 24.5583 17.6106 24.0769 18.1459 23.7596H15.6597C15.4009 23.7596 15.1909 23.5496 15.1909 23.2908L15.1914 23.2913Z" fill="#27AE60"/>
<path d="M28.5494 28.9914C30.3944 27.1464 31.4106 24.6934 31.4106 22.0839C31.4106 19.4744 30.3944 17.0214 28.5494 15.1764C26.6453 13.2723 24.1436 12.3198 21.6419 12.3198C19.1402 12.3198 16.6389 13.2719 14.7344 15.1764C10.9258 18.9854 10.9258 25.1828 14.7344 28.9914C18.543 32.8 24.7408 32.8 28.5494 28.9914ZM15.6803 16.1223C17.2727 14.53 19.39 13.6529 21.6419 13.6529C23.8938 13.6529 26.0111 14.53 27.6034 16.1223C29.1958 17.7147 30.0728 19.832 30.0728 22.0839C30.0728 24.3358 29.1958 26.4531 27.6034 28.0454C25.96 29.6889 23.8009 30.5111 21.6419 30.5111C19.4828 30.5111 17.3238 29.6894 15.6803 28.0454C12.393 24.7581 12.393 19.4097 15.6803 16.1223Z" fill="#27AE60"/>
<path d="M21.1745 25.6848V20.5464H19.7266V23.8365C19.7266 24.73 20.3448 25.4762 21.1745 25.6848Z" fill="#27AE60"/>
<path d="M22.1123 25.6815C22.9368 25.4692 23.5504 24.7262 23.5504 23.8361V23.2947C23.5504 23.2947 23.55 23.2923 23.55 23.2914C23.55 23.2904 23.5504 23.289 23.5504 23.2881V20.5464H22.1123V25.6815Z" fill="#27AE60"/>
</svg>
