<svg width="54" height="54" viewBox="0 0 54 54" fill="none" xmlns="http://www.w3.org/2000/svg">
<rect width="54" height="54" rx="14" fill="#0B3A78" fill-opacity="0.1"/>
<path d="M36.3195 21.2609L28.0695 16.7714C27.7414 16.592 27.3735 16.498 26.9996 16.498C26.6257 16.498 26.2578 16.592 25.9298 16.7714L17.6798 21.2609C17.322 21.4564 17.0236 21.7447 16.816 22.0955C16.6083 22.4464 16.4992 22.8467 16.5 23.2544V35.2334C16.4986 35.832 16.7347 36.4067 17.1565 36.8315C17.5783 37.2562 18.1514 37.4964 18.75 37.4991H35.25C35.8486 37.4964 36.4217 37.2562 36.8435 36.8315C37.2653 36.4067 37.5014 35.832 37.5 35.2334V23.2544C37.5008 22.8466 37.3916 22.4462 37.1838 22.0953C36.9761 21.7445 36.6775 21.4562 36.3195 21.2609ZM24.3683 29.2919L18 34.9926V24.0816L24.3683 29.2919ZM26.4398 29.4516C26.5967 29.3198 26.795 29.2475 27 29.2475C27.205 29.2475 27.4034 29.3198 27.5603 29.4516L34.875 35.9991H19.125L26.4398 29.4516ZM29.6318 29.2919L36 24.0816V34.9926L29.6318 29.2919ZM26.6475 18.0891C26.7557 18.0301 26.8771 17.9991 27.0004 17.9991C27.1237 17.9991 27.245 18.0301 27.3533 18.0891L35.5223 22.5344L28.4948 28.2846C28.0728 27.9401 27.5448 27.7519 27 27.7519C26.4552 27.7519 25.9272 27.9401 25.5053 28.2846L18.477 22.5344L26.6475 18.0891Z" fill="#0B3A78"/>
</svg>
