<svg width="54" height="54" viewBox="0 0 54 54" fill="none" xmlns="http://www.w3.org/2000/svg">
<rect width="54" height="54" rx="14" fill="#0B3A78" fill-opacity="0.1"/>
<g clip-path="url(#clip0_2315_1287)">
<mask id="mask0_2315_1287" style="mask-type:luminance" maskUnits="userSpaceOnUse" x="15" y="15" width="24" height="24">
<path d="M15 15H39V39H15V15Z" fill="white"/>
</mask>
<g mask="url(#mask0_2315_1287)">
<path fill-rule="evenodd" clip-rule="evenodd" d="M34.3294 35.7428C31.6933 38.3788 27.4195 38.3788 24.7835 35.7428L17.7124 28.6717C15.0763 26.0357 15.0763 21.7618 17.7124 19.1258C18.7863 18.0518 20.5275 18.0518 21.6015 19.1258L23.0157 20.54C24.0896 21.6139 24.0896 23.3551 23.0157 24.4291C22.5275 24.9172 22.5275 25.7087 23.0157 26.1968L27.2583 30.4395C27.7465 30.9276 28.5379 30.9276 29.0261 30.4395C30.1 29.3655 31.8412 29.3655 32.9152 30.4395L34.3294 31.8537C35.4033 32.9276 35.4033 34.6688 34.3294 35.7428ZM25.8441 34.6821C27.8943 36.7324 31.2185 36.7324 33.2687 34.6821C33.7569 34.194 33.7569 33.4025 33.2687 32.9144L31.8545 31.5001C31.3663 31.012 30.5749 31.012 30.0867 31.5001C29.0128 32.5741 27.2716 32.5741 26.1976 31.5001L21.955 27.2575C20.8811 26.1836 20.8811 24.4423 21.955 23.3684C22.4432 22.8802 22.4432 22.0888 21.955 21.6006L20.5408 20.1864C20.0527 19.6983 19.2612 19.6983 18.773 20.1864C16.7228 22.2367 16.7228 25.5608 18.773 27.6111L25.8441 34.6821Z" fill="#0B3A78"/>
<path fill-rule="evenodd" clip-rule="evenodd" d="M29.7331 23.7233C28.7503 22.7404 27.4064 22.339 26.1261 22.521C25.716 22.5793 25.3363 22.2941 25.278 21.884C25.2198 21.4739 25.505 21.0942 25.915 21.0359C27.6423 20.7904 29.4633 21.3321 30.7938 22.6626C32.1244 23.9931 32.666 25.8141 32.4205 27.5413C32.3622 27.9514 31.9825 28.2366 31.5724 28.1783C31.1623 28.1201 30.8771 27.7404 30.9354 27.3303C31.1174 26.05 30.716 24.7061 29.7331 23.7233Z" fill="#0B3A78"/>
<path fill-rule="evenodd" clip-rule="evenodd" d="M33.2685 20.1873C31.1292 18.048 28.2031 17.1753 25.4192 17.5711C25.0091 17.6294 24.6293 17.3442 24.571 16.9341C24.5127 16.524 24.7979 16.1443 25.208 16.086C28.4389 15.6267 31.8422 16.6396 34.3292 19.1266C36.8163 21.6137 37.8292 25.0169 37.3698 28.2478C37.3115 28.6579 36.9318 28.9431 36.5217 28.8848C36.1117 28.8265 35.8265 28.4468 35.8848 28.0367C36.2806 25.2527 35.4079 22.3266 33.2685 20.1873Z" fill="#0B3A78"/>
</g>
</g>
<defs>
<clipPath id="clip0_2315_1287">
<rect width="24" height="24" fill="white" transform="translate(15 15)"/>
</clipPath>
</defs>
</svg>
