<svg width="54" height="54" viewBox="0 0 54 54" fill="none" xmlns="http://www.w3.org/2000/svg">
<rect width="54" height="54" rx="14" fill="#0B3A78" fill-opacity="0.1"/>
<path d="M34 22.25H32.75V21C32.75 19.483 31.517 18.25 30 18.25H20C18.483 18.25 17.25 19.483 17.25 21V30.08C17.25 30.538 17.5 30.959 17.902 31.178C18.09 31.28 18.295 31.33 18.5 31.33C18.737 31.33 18.974 31.263 19.181 31.128L20.997 29.951C21.076 29.9 21.163 29.866 21.25 29.834V31C21.25 32.517 22.483 33.75 24 33.75H31.732C32.361 33.75 32.972 33.931 33.501 34.272L34.819 35.127C35.026 35.262 35.262 35.329 35.5 35.329C35.705 35.329 35.91 35.278 36.098 35.177C36.5 34.958 36.75 34.537 36.75 34.079V24.999C36.75 23.482 35.517 22.25 34 22.25ZM20.18 28.693L18.75 29.62V21C18.75 20.311 19.311 19.75 20 19.75H30C30.689 19.75 31.25 20.311 31.25 21V27C31.25 27.689 30.689 28.25 30 28.25H21.676C21.143 28.25 20.625 28.403 20.18 28.693ZM35.25 33.619L34.316 33.014C33.545 32.515 32.651 32.25 31.732 32.25H24C23.311 32.25 22.75 31.689 22.75 31V29.75H30C31.517 29.75 32.75 28.517 32.75 27V23.75H34C34.689 23.75 35.25 24.311 35.25 25V33.619Z" fill="#0B3A78"/>
</svg>
