<svg width="384" height="186" viewBox="0 0 384 186" fill="none" xmlns="http://www.w3.org/2000/svg">
<g opacity="0.05">
<path d="M6 37.2002H378" stroke="#C5C5C5"/>
<path d="M6 74.3999H378" stroke="#C5C5C5"/>
<path d="M6 111.6H378" stroke="#C5C5C5"/>
<path d="M6 148.8H378" stroke="#C5C5C5"/>
<path d="M43.2005 40.92C45.255 40.92 46.9205 39.2545 46.9205 37.2C46.9205 35.1455 45.255 33.48 43.2005 33.48C41.146 33.48 39.4805 35.1455 39.4805 37.2C39.4805 39.2545 41.146 40.92 43.2005 40.92Z" fill="white"/>
<path d="M117.6 78.1202C119.654 78.1202 121.32 76.4547 121.32 74.4002C121.32 72.3457 119.654 70.6802 117.6 70.6802C115.545 70.6802 113.88 72.3457 113.88 74.4002C113.88 76.4547 115.545 78.1202 117.6 78.1202Z" fill="white"/>
<path d="M204.72 96.44C206.774 96.44 208.44 94.7745 208.44 92.72C208.44 90.6655 206.774 89 204.72 89C202.666 89 201 90.6655 201 92.72C201 94.7745 202.666 96.44 204.72 96.44Z" fill="white"/>
<path d="M53.72 115.44C55.7745 115.44 57.44 113.774 57.44 111.72C57.44 109.666 55.7745 108 53.72 108C51.6655 108 50 109.666 50 111.72C50 113.774 51.6655 115.44 53.72 115.44Z" fill="white"/>
<path d="M158.72 152.44C160.774 152.44 162.44 150.774 162.44 148.72C162.44 146.666 160.774 145 158.72 145C156.666 145 155 146.666 155 148.72C155 150.774 156.666 152.44 158.72 152.44Z" fill="white"/>
<path d="M266.4 152.52C268.454 152.52 270.12 150.855 270.12 148.8C270.12 146.746 268.454 145.08 266.4 145.08C264.345 145.08 262.68 146.746 262.68 148.8C262.68 150.855 264.345 152.52 266.4 152.52Z" fill="white"/>
<path d="M340.8 40.92C342.855 40.92 344.52 39.2545 344.52 37.2C344.52 35.1455 342.855 33.48 340.8 33.48C338.746 33.48 337.08 35.1455 337.08 37.2C337.08 39.2545 338.746 40.92 340.8 40.92Z" fill="white"/>
</g>
</svg>
