<svg width="24" height="24" viewBox="0 0 24 24" fill="none" xmlns="http://www.w3.org/2000/svg">
<path d="M2.55562 14.7988H4.77771C5.08451 14.7988 5.33333 15.0474 5.33333 15.3542V20.9099C5.33333 21.2167 5.08451 21.4655 4.77771 21.4655H2.55562C2.24882 21.4655 2 21.2167 2 20.9099V15.3542C2 15.0474 2.24882 14.7988 2.55562 14.7988Z" fill="#C4C4C4"/>
<path d="M8.11108 10.3535H10.3334C10.6402 10.3535 10.889 10.6023 10.889 10.9091V20.9091C10.889 21.2159 10.6402 21.4648 10.3334 21.4648H8.11108C7.80428 21.4648 7.55566 21.2159 7.55566 20.9091V10.9091C7.55566 10.6023 7.80428 10.3535 8.11108 10.3535Z" fill="#C4C4C4"/>
<path d="M13.667 12.5762H15.8892C16.196 12.5762 16.4447 12.825 16.4447 13.1318V20.9095C16.4447 21.2163 16.196 21.4651 15.8892 21.4651H13.667C13.3601 21.4651 13.1113 21.2163 13.1113 20.9095V13.1318C13.1113 12.825 13.3601 12.5762 13.667 12.5762Z" fill="#C4C4C4"/>
<path d="M19.2226 9.24316H21.4447C21.7515 9.24316 22.0003 9.49198 22.0003 9.79879V20.9098C22.0003 21.2166 21.7515 21.4655 21.4447 21.4655H19.2226C18.9158 21.4655 18.667 21.2166 18.667 20.9098V9.79879C18.667 9.49198 18.9158 9.24316 19.2226 9.24316Z" fill="#C4C4C4"/>
<path d="M20.3333 2.57617C19.4133 2.57719 18.6677 3.32284 18.6667 4.24284C18.6689 4.42432 18.701 4.60417 18.7619 4.77507L15.9807 6.4283C15.6157 6.04114 15.0865 5.85356 14.5592 5.92415C14.0317 5.99475 13.5706 6.31498 13.3202 6.78455L10.8672 5.56954C10.8792 5.49813 10.8863 5.42611 10.889 5.35388C10.8902 4.67924 10.4847 4.07052 9.86173 3.81152C9.23877 3.55273 8.5212 3.69495 8.04411 4.17183C7.56681 4.64872 7.42419 5.36609 7.68278 5.98926L4.50081 8.36393C4.24854 8.21358 3.96045 8.13342 3.66667 8.1318C2.74626 8.1318 2 8.87785 2 9.79846C2 10.7189 2.74626 11.4651 3.66667 11.4651C4.58708 11.4651 5.33333 10.7189 5.33333 9.79846C5.33191 9.59786 5.29407 9.3995 5.22164 9.21252L8.43534 6.81405C9.06401 7.16459 9.8481 7.06185 10.3651 6.56095L13.1546 7.94259C13.3405 8.77083 14.12 9.32666 14.9637 9.23267C15.8074 9.13867 16.4454 8.42517 16.4444 7.57617C16.4444 7.53385 16.435 7.49398 16.432 7.45247L19.4569 5.65418C19.7191 5.81999 20.0229 5.90849 20.3333 5.90951C21.2537 5.90951 22 5.16325 22 4.24284C22 3.32243 21.2537 2.57617 20.3333 2.57617Z" fill="#C4C4C4"/>
</svg>
