<svg width="10" height="10" viewBox="0 0 10 10" fill="none" xmlns="http://www.w3.org/2000/svg">
<g clip-path="url(#clip0_2318_2311)">
<path d="M7.21024 3.41347C7.36282 3.56606 7.36282 3.8134 7.21024 3.96591L4.58969 6.58653C4.4371 6.73904 4.18983 6.73904 4.03725 6.58653L2.78976 5.33897C2.63718 5.18646 2.63718 4.93912 2.78976 4.78661C2.94228 4.63402 3.18962 4.63402 3.34213 4.78661L4.31343 5.7579L6.65779 3.41347C6.81038 3.26096 7.05772 3.26096 7.21024 3.41347ZM10 5C10 7.76375 7.76337 10 5 10C2.23625 10 0 7.76337 0 5C0 2.23625 2.23663 0 5 0C7.76375 0 10 2.23663 10 5ZM9.21875 5C9.21875 2.66808 7.33162 0.78125 5 0.78125C2.66808 0.78125 0.78125 2.66838 0.78125 5C0.78125 7.33192 2.66838 9.21875 5 9.21875C7.33192 9.21875 9.21875 7.33162 9.21875 5Z" fill="#27AE60"/>
</g>
<defs>
<clipPath id="clip0_2318_2311">
<rect width="10" height="10" fill="white"/>
</clipPath>
</defs>
</svg>
