<svg width="43" height="43" viewBox="0 0 43 43" fill="none" xmlns="http://www.w3.org/2000/svg">
<path d="M14.9691 4.03125C16.716 4.03125 18.1941 5.16 18.7585 6.71875H21.5535C20.9354 3.655 18.221 1.34375 14.9691 1.34375C11.7173 1.34375 9.01633 3.655 8.38477 6.71875H11.1798C11.7307 5.16 13.2088 4.03125 14.9691 4.03125Z" fill="url(#paint0_linear_78_2395)"/>
<path d="M20.4118 28.3263V19.3634C20.4118 17.2269 22.1587 15.48 24.2952 15.48C25.733 15.48 27.3321 15.0769 28.5952 14.6603V10.0781C28.5952 8.22375 27.0902 6.71875 25.2359 6.71875H21.554C21.648 7.14875 21.6884 7.60562 21.6884 8.0625V10.75C22.4274 10.75 23.0321 11.3547 23.0321 12.0938C23.0321 12.8328 22.4274 13.4375 21.6884 13.4375H19.0009C18.2618 13.4375 17.6571 12.8328 17.6571 12.0938C17.6571 11.3547 18.2618 10.75 19.0009 10.75V8.0625C19.0009 7.59219 18.9068 7.13531 18.759 6.71875H11.1937C11.0459 7.13531 10.9518 7.59219 10.9518 8.0625V10.75C11.6909 10.75 12.2955 11.3547 12.2955 12.0938C12.2955 12.8328 11.6909 13.4375 10.9518 13.4375H8.2643C7.52523 13.4375 6.92055 12.8328 6.92055 12.0938C6.92055 11.3547 7.52523 10.75 8.2643 10.75V8.0625C8.2643 7.60562 8.31805 7.14875 8.39867 6.71875H4.7168C2.86242 6.71875 1.35742 8.22375 1.35742 10.0781V33.5938H21.8362C20.9359 32.035 20.4252 30.2209 20.4252 28.3263H20.4118Z" fill="url(#paint1_linear_78_2395)"/>
<path d="M24.08 36.2812H1.34375V38.2969C1.34375 40.1512 2.84875 41.6562 4.70312 41.6562H25.2356C26.9019 41.6562 28.2859 40.4334 28.5413 38.8344L25.8672 37.4772C25.2222 37.1547 24.6444 36.7381 24.0934 36.2812H24.08Z" fill="url(#paint2_linear_78_2395)"/>
<path d="M40.4606 18.1675C36.8056 18.1675 32.9491 16.2594 32.9087 16.2459C32.5728 16.0847 32.1697 16.0847 31.8338 16.2459C31.7934 16.2594 27.9503 18.1675 24.2819 18.1675C23.6234 18.1675 23.0859 18.705 23.0859 19.3634V28.3263C23.0859 31.2019 24.6447 33.8625 27.0634 35.0853L31.8338 37.5041C32.0084 37.5847 32.1831 37.6384 32.3713 37.6384C32.5594 37.6384 32.7475 37.5981 32.9087 37.5041L37.6791 35.0853C40.0978 33.8625 41.6566 31.2153 41.6566 28.3263V19.3634C41.6566 18.705 41.1191 18.1675 40.4606 18.1675ZM37.6253 25.5178L32.3847 30.2209C32.1294 30.4494 31.8069 30.5703 31.4844 30.5703C31.135 30.5703 30.7991 30.4359 30.5303 30.1806L27.05 26.7003C26.5259 26.1763 26.5259 25.3297 27.05 24.8056C27.5741 24.2816 28.4206 24.2816 28.9447 24.8056L31.5247 27.3856L35.8112 23.5291C36.3622 23.0319 37.2087 23.0722 37.7059 23.6366C38.2031 24.1875 38.1494 25.0341 37.5984 25.5312L37.6253 25.5178Z" fill="url(#paint3_linear_78_2395)"/>
<defs>
<linearGradient id="paint0_linear_78_2395" x1="8.22122" y1="4.03076" x2="22.2213" y2="4.03076" gradientUnits="userSpaceOnUse">
<stop stop-color="#27AE60"/>
<stop offset="1" stop-color="#0052CC"/>
</linearGradient>
<linearGradient id="paint1_linear_78_2395" x1="1.01914" y1="20.1538" x2="29.9765" y2="20.1538" gradientUnits="userSpaceOnUse">
<stop stop-color="#27AE60"/>
<stop offset="1" stop-color="#0052CC"/>
</linearGradient>
<linearGradient id="paint2_linear_78_2395" x1="1.00597" y1="38.9683" x2="29.9205" y2="38.9683" gradientUnits="userSpaceOnUse">
<stop stop-color="#27AE60"/>
<stop offset="1" stop-color="#0052CC"/>
</linearGradient>
<linearGradient id="paint3_linear_78_2395" x1="22.8553" y1="26.8798" x2="42.5983" y2="26.8798" gradientUnits="userSpaceOnUse">
<stop stop-color="#27AE60"/>
<stop offset="1" stop-color="#0052CC"/>
</linearGradient>
</defs>
</svg>
