<svg width="24" height="24" viewBox="0 0 24 24" fill="none" xmlns="http://www.w3.org/2000/svg">
<path d="M21.7237 12.3076H20.6343C20.4641 12.3076 20.3262 12.1697 20.3262 11.9995C20.3262 11.8293 20.4641 11.6914 20.6343 11.6914H21.7237C21.8939 11.6914 22.0318 11.8293 22.0318 11.9995C22.0318 12.1697 21.8939 12.3076 21.7237 12.3076Z" fill="#0B3A78"/>
<path d="M22.4087 12.9913C21.8618 12.9913 21.417 12.5464 21.417 11.9995C21.417 11.4526 21.8618 11.0078 22.4087 11.0078C22.9556 11.0078 23.4004 11.4526 23.4004 11.9995C23.4004 12.5464 22.9556 12.9913 22.4087 12.9913ZM22.4087 11.624C22.2017 11.624 22.0332 11.7925 22.0332 11.9995C22.0332 12.2065 22.2017 12.375 22.4087 12.375C22.6157 12.375 22.7842 12.2065 22.7842 11.9995C22.7842 11.7925 22.6157 11.624 22.4087 11.624Z" fill="#0B3A78"/>
<path d="M22.4087 17.6789C21.8618 17.6789 21.417 17.2339 21.417 16.687C21.417 16.1401 21.8618 15.6953 22.4087 15.6953C22.9556 15.6953 23.4004 16.1401 23.4004 16.687C23.4004 17.2339 22.9556 17.6789 22.4087 17.6789ZM22.4087 16.3115C22.2017 16.3115 22.0332 16.48 22.0332 16.687C22.0332 16.8942 22.2017 17.0627 22.4087 17.0627C22.6157 17.0627 22.7842 16.8942 22.7842 16.687C22.7842 16.48 22.6157 16.3115 22.4087 16.3115Z" fill="#0B3A78"/>
<path d="M22.4097 16.3104C22.2395 16.3104 22.1015 16.1725 22.1015 16.0023V14.0674H20.6274C20.4573 14.0674 20.3193 13.9295 20.3193 13.7593C20.3193 13.5891 20.4573 13.4512 20.6274 13.4512H22.4097C22.5798 13.4512 22.7178 13.5891 22.7178 13.7593V16.0023C22.7178 16.1725 22.5798 16.3104 22.4097 16.3104Z" fill="#0B3A78"/>
<path d="M22.4087 8.30388C21.8618 8.30388 21.417 7.85905 21.417 7.31216C21.417 6.76526 21.8618 6.32031 22.4087 6.32031C22.9556 6.32031 23.4004 6.76526 23.4004 7.31216C23.4004 7.85905 22.9556 8.30388 22.4087 8.30388ZM22.4087 6.93653C22.2017 6.93653 22.0332 7.10503 22.0332 7.31216C22.0332 7.51917 22.2017 7.68766 22.4087 7.68766C22.6157 7.68766 22.7842 7.51917 22.7842 7.31216C22.7842 7.10503 22.6157 6.93653 22.4087 6.93653Z" fill="#0B3A78"/>
<path d="M22.4097 10.5487H20.6274C20.4573 10.5487 20.3193 10.4108 20.3193 10.2406C20.3193 10.0704 20.4573 9.9325 20.6274 9.9325H22.1015V7.99756C22.1015 7.82738 22.2395 7.68945 22.4097 7.68945C22.5798 7.68945 22.7178 7.82738 22.7178 7.99756V10.2406C22.7178 10.4108 22.5798 10.5487 22.4097 10.5487Z" fill="#0B3A78"/>
<path d="M3.36533 12.3076H2.27588C2.1057 12.3076 1.96777 12.1697 1.96777 11.9995C1.96777 11.8293 2.1057 11.6914 2.27588 11.6914H3.36533C3.53551 11.6914 3.67344 11.8293 3.67344 11.9995C3.67344 12.1697 3.53551 12.3076 3.36533 12.3076Z" fill="#0B3A78"/>
<path d="M1.59133 12.9913C1.04444 12.9913 0.599609 12.5464 0.599609 11.9995C0.599609 11.4526 1.04444 11.0078 1.59133 11.0078C2.13822 11.0078 2.58306 11.4526 2.58306 11.9995C2.58306 12.5464 2.13822 12.9913 1.59133 12.9913ZM1.59133 11.624C1.38432 11.624 1.21583 11.7925 1.21583 11.9995C1.21583 12.2065 1.38432 12.375 1.59133 12.375C1.79834 12.375 1.96684 12.2065 1.96684 11.9995C1.96684 11.7925 1.79834 11.624 1.59133 11.624Z" fill="#0B3A78"/>
<path d="M1.59133 17.6789C1.04444 17.6789 0.599609 17.2339 0.599609 16.687C0.599609 16.1401 1.04444 15.6953 1.59133 15.6953C2.13822 15.6953 2.58306 16.1401 2.58306 16.687C2.58306 17.2339 2.13822 17.6789 1.59133 17.6789ZM1.59133 16.3115C1.38432 16.3115 1.21583 16.48 1.21583 16.687C1.21583 16.8942 1.38432 17.0627 1.59133 17.0627C1.79834 17.0627 1.96684 16.8942 1.96684 16.687C1.96684 16.48 1.79834 16.3115 1.59133 16.3115Z" fill="#0B3A78"/>
<path d="M1.59033 16.3104C1.42015 16.3104 1.28223 16.1725 1.28223 16.0023V13.7593C1.28223 13.5891 1.42015 13.4512 1.59033 13.4512H3.37255C3.54273 13.4512 3.68066 13.5891 3.68066 13.7593C3.68066 13.9295 3.54273 14.0674 3.37255 14.0674H1.89844V16.0023C1.89844 16.1725 1.76052 16.3104 1.59033 16.3104Z" fill="#0B3A78"/>
<path d="M1.59133 8.30388C1.04444 8.30388 0.599609 7.85905 0.599609 7.31216C0.599609 6.76526 1.04444 6.32031 1.59133 6.32031C2.13822 6.32031 2.58306 6.76526 2.58306 7.31216C2.58306 7.85905 2.13822 8.30388 1.59133 8.30388ZM1.59133 6.93653C1.38432 6.93653 1.21583 7.10503 1.21583 7.31216C1.21583 7.51917 1.38432 7.68766 1.59133 7.68766C1.79834 7.68766 1.96684 7.51917 1.96684 7.31216C1.96684 7.10503 1.79834 6.93653 1.59133 6.93653Z" fill="#0B3A78"/>
<path d="M3.37255 10.5487H1.59033C1.42015 10.5487 1.28223 10.4108 1.28223 10.2406V7.99756C1.28223 7.82738 1.42015 7.68945 1.59033 7.68945C1.76052 7.68945 1.89844 7.82738 1.89844 7.99756V9.9325H3.37255C3.54273 9.9325 3.68066 10.0704 3.68066 10.2406C3.68066 10.4108 3.54273 10.5487 3.37255 10.5487Z" fill="#0B3A78"/>
<path d="M18.4761 8.62352H5.524C4.97928 8.62352 4.53613 8.18025 4.53613 7.63541V4.47237C4.53613 3.92764 4.97928 3.48438 5.524 3.48438H18.4761C19.0208 3.48438 19.464 3.92764 19.464 4.47237V7.63541C19.464 8.18025 19.0208 8.62352 18.4761 8.62352ZM5.524 4.10059C5.31916 4.10059 5.15235 4.2674 5.15235 4.47237V7.63541C5.15235 7.84049 5.31916 8.00731 5.524 8.00731H18.4761C18.6809 8.00731 18.8478 7.84049 18.8478 7.63541V4.47237C18.8478 4.2674 18.6809 4.10059 18.4761 4.10059H5.524Z" fill="#0B3A78"/>
<path d="M7.67383 7.0984H6.64528C6.35305 7.0984 6.11523 6.86058 6.11523 6.56824V5.53981C6.11523 5.24759 6.35305 5.00977 6.64528 5.00977H7.67383C7.96605 5.00977 8.20387 5.24759 8.20387 5.53981V6.56824C8.20387 6.86058 7.96605 7.0984 7.67383 7.0984ZM6.73145 6.48219H7.58765V5.62598H6.73145V6.48219Z" fill="#0B3A78"/>
<path d="M10.5029 7.0984H9.47438C9.18216 7.0984 8.94434 6.86058 8.94434 6.56824V5.53981C8.94434 5.24759 9.18216 5.00977 9.47438 5.00977H10.5029C10.7952 5.00977 11.033 5.24759 11.033 5.53981V6.56824C11.033 6.86058 10.7952 7.0984 10.5029 7.0984ZM9.56055 6.48219H10.4168V5.62598H9.56055V6.48219Z" fill="#0B3A78"/>
<path d="M17.5767 6.36231H17.3589C17.1887 6.36231 17.0508 6.22438 17.0508 6.0542C17.0508 5.88402 17.1887 5.74609 17.3589 5.74609H17.5767C17.7469 5.74609 17.8848 5.88402 17.8848 6.0542C17.8848 6.22438 17.7469 6.36231 17.5767 6.36231Z" fill="#0B3A78"/>
<path d="M15.9858 6.36231H13.0542C12.884 6.36231 12.7461 6.22438 12.7461 6.0542C12.7461 5.88402 12.884 5.74609 13.0542 5.74609H15.9858C16.156 5.74609 16.2939 5.88402 16.2939 6.0542C16.2939 6.22438 16.156 6.36231 15.9858 6.36231Z" fill="#0B3A78"/>
<path d="M17.8897 10.0459H6.11084C5.94066 10.0459 5.80273 9.90795 5.80273 9.73776V8.31397C5.80273 8.14379 5.94066 8.00586 6.11084 8.00586H17.8897C18.0599 8.00586 18.1978 8.14379 18.1978 8.31397V9.73776C18.1978 9.90795 18.0599 10.0459 17.8897 10.0459ZM6.41895 9.42966H17.5816V8.62208H6.41895V9.42966Z" fill="#0B3A78"/>
<path d="M18.4761 14.5688H5.524C4.97928 14.5688 4.53613 14.1256 4.53613 13.5807V10.4178C4.53613 9.87295 4.97928 9.42969 5.524 9.42969H18.4761C19.0208 9.42969 19.464 9.87295 19.464 10.4178V13.5807C19.464 14.1256 19.0208 14.5688 18.4761 14.5688ZM5.524 10.0459C5.31916 10.0459 5.15235 10.2127 5.15235 10.4178V13.5807C5.15235 13.7858 5.31916 13.9526 5.524 13.9526H18.4761C18.6809 13.9526 18.8478 13.7858 18.8478 13.5807V10.4178C18.8478 10.2127 18.6809 10.0459 18.4761 10.0459H5.524Z" fill="#0B3A78"/>
<path d="M7.67383 13.0437H6.64528C6.35305 13.0437 6.11523 12.8059 6.11523 12.5137V11.4851C6.11523 11.1929 6.35305 10.9551 6.64528 10.9551H7.67383C7.96605 10.9551 8.20387 11.1929 8.20387 11.4851V12.5137C8.20387 12.8059 7.96605 13.0437 7.67383 13.0437ZM6.73145 12.4275H7.58765V11.5713H6.73145V12.4275Z" fill="#0B3A78"/>
<path d="M10.5029 13.0437H9.47438C9.18216 13.0437 8.94434 12.8059 8.94434 12.5137V11.4851C8.94434 11.1929 9.18216 10.9551 9.47438 10.9551H10.5029C10.7952 10.9551 11.033 11.1929 11.033 11.4851V12.5137C11.033 12.8059 10.7952 13.0437 10.5029 13.0437ZM9.56055 12.4275H10.4168V11.5713H9.56055V12.4275Z" fill="#0B3A78"/>
<path d="M17.5767 12.3076H17.3589C17.1887 12.3076 17.0508 12.1697 17.0508 11.9995C17.0508 11.8293 17.1887 11.6914 17.3589 11.6914H17.5767C17.7469 11.6914 17.8848 11.8293 17.8848 11.9995C17.8848 12.1697 17.7469 12.3076 17.5767 12.3076Z" fill="#0B3A78"/>
<path d="M15.9858 12.3076H13.0542C12.884 12.3076 12.7461 12.1697 12.7461 11.9995C12.7461 11.8293 12.884 11.6914 13.0542 11.6914H15.9858C16.156 11.6914 16.2939 11.8293 16.2939 11.9995C16.2939 12.1697 16.156 12.3076 15.9858 12.3076Z" fill="#0B3A78"/>
<path d="M17.8897 15.9931H6.11084C5.94066 15.9931 5.80273 15.8552 5.80273 15.685V14.2612C5.80273 14.0911 5.94066 13.9531 6.11084 13.9531H17.8897C18.0599 13.9531 18.1978 14.0911 18.1978 14.2612V15.685C18.1978 15.8552 18.0599 15.9931 17.8897 15.9931ZM6.41895 15.3769H17.5816V14.5693H6.41895V15.3769Z" fill="#0B3A78"/>
<path d="M18.4761 20.5161H5.524C4.97928 20.5161 4.53613 20.0728 4.53613 19.5281V16.3651C4.53613 15.8202 4.97928 15.377 5.524 15.377H18.4761C19.0208 15.377 19.464 15.8202 19.464 16.3651V19.5281C19.464 20.0728 19.0208 20.5161 18.4761 20.5161ZM5.524 15.9932C5.31916 15.9932 5.15235 16.16 5.15235 16.3651V19.5281C5.15235 19.7331 5.31916 19.8999 5.524 19.8999H18.4761C18.6809 19.8999 18.8478 19.7331 18.8478 19.5281V16.3651C18.8478 16.16 18.6809 15.9932 18.4761 15.9932H5.524Z" fill="#0B3A78"/>
<path d="M7.67383 18.991H6.64528C6.35305 18.991 6.11523 18.7532 6.11523 18.4609V17.4325C6.11523 17.1402 6.35305 16.9023 6.64528 16.9023H7.67383C7.96605 16.9023 8.20387 17.1402 8.20387 17.4325V18.4609C8.20387 18.7532 7.96605 18.991 7.67383 18.991ZM6.73145 18.3748H7.58765V17.5186H6.73145V18.3748Z" fill="#0B3A78"/>
<path d="M10.5029 18.991H9.47438C9.18216 18.991 8.94434 18.7532 8.94434 18.4609V17.4325C8.94434 17.1402 9.18216 16.9023 9.47438 16.9023H10.5029C10.7952 16.9023 11.033 17.1402 11.033 17.4325V18.4609C11.033 18.7532 10.7952 18.991 10.5029 18.991ZM9.56055 18.3748H10.4168V17.5186H9.56055V18.3748Z" fill="#0B3A78"/>
<path d="M17.5767 18.2549H17.3589C17.1887 18.2549 17.0508 18.117 17.0508 17.9468C17.0508 17.7766 17.1887 17.6387 17.3589 17.6387H17.5767C17.7469 17.6387 17.8848 17.7766 17.8848 17.9468C17.8848 18.117 17.7469 18.2549 17.5767 18.2549Z" fill="#0B3A78"/>
<path d="M15.9858 18.2549H13.0542C12.884 18.2549 12.7461 18.117 12.7461 17.9468C12.7461 17.7766 12.884 17.6387 13.0542 17.6387H15.9858C16.156 17.6387 16.2939 17.7766 16.2939 17.9468C16.2939 18.117 16.156 18.2549 15.9858 18.2549Z" fill="#0B3A78"/>
</svg>
