<svg width="24" height="24" viewBox="0 0 24 24" fill="none" xmlns="http://www.w3.org/2000/svg">
<path d="M22 15.6614C22 13.2281 20.604 11.0564 18.5133 10C18.4483 14.6657 14.6657 18.4483 10 18.5133C11.0564 20.604 13.2281 22 15.6614 22C16.8023 22 17.9118 21.6961 18.8867 21.1188L21.9723 21.9723L21.1188 18.8867C21.6961 17.9118 22 16.8023 22 15.6614Z" fill="#C4C4C4"/>
<path d="M17 9.5C17 5.36442 13.6356 2 9.5 2C5.36442 2 2 5.36442 2 9.5C2 10.8478 2.35876 12.1601 3.04 13.3122L2.02757 16.9723L5.68781 15.96C6.8399 16.6412 8.15219 17 9.5 17C13.6356 17 17 13.6356 17 9.5ZM8.3491 7.75448H7.19821C7.19821 6.48519 8.23072 5.45269 9.5 5.45269C10.7693 5.45269 11.8018 6.48519 11.8018 7.75448C11.8018 8.39871 11.5291 9.01791 11.0533 9.45309L10.0754 10.348V11.2455H8.92455V9.84122L10.2763 8.60401C10.5178 8.38297 10.6509 8.08131 10.6509 7.75448C10.6509 7.11983 10.1346 6.60358 9.5 6.60358C8.86536 6.60358 8.3491 7.11983 8.3491 7.75448ZM8.92455 12.3964H10.0754V13.5473H8.92455V12.3964Z" fill="#C4C4C4"/>
</svg>
