<svg width="24" height="24" viewBox="0 0 24 24" fill="none" xmlns="http://www.w3.org/2000/svg">
<path d="M2.50488 2L5.36203 4.85714H18.6377L21.4948 2H2.50488Z" fill="#C4C4C4"/>
<path d="M4.85714 5.363L2 2.50586V21.4958L4.85714 18.6387V5.363Z" fill="#C4C4C4"/>
<path d="M18.6377 19.1426H5.36203L2.50488 21.9997H21.4948L18.6377 19.1426Z" fill="#C4C4C4"/>
<path d="M19.1426 5.36105V18.6367L21.9997 21.4939V2.50391L19.1426 5.36105Z" fill="#C4C4C4"/>
<path d="M15.5718 7H8.42899C7.24552 7 6.28613 7.95939 6.28613 9.14286V12.7143C6.28613 13.8978 7.24552 14.8571 8.42899 14.8571H11.2861V15.5714H10.5718C10.177 15.5714 9.85756 15.8913 9.85756 16.2857C9.85756 16.6802 10.177 17 10.5718 17H13.429C13.8238 17 14.1433 16.6802 14.1433 16.2857C14.1433 15.8913 13.8238 15.5714 13.429 15.5714H12.7147V14.8571H15.5718C16.7553 14.8571 17.7147 13.8978 17.7147 12.7143V9.14286C17.7147 7.95939 16.7553 7 15.5718 7ZM11.1815 12.1046C11.321 12.2441 11.321 12.4701 11.1815 12.6097C11.1117 12.6794 11.0204 12.7143 10.929 12.7143C10.8376 12.7143 10.7462 12.6794 10.6765 12.6097L9.24791 11.1811C9.1084 11.0416 9.1084 10.8156 9.24791 10.6761L10.6765 9.24749C10.816 9.10798 11.042 9.10798 11.1815 9.24749C11.321 9.387 11.321 9.613 11.1815 9.75251L10.0054 10.9286L11.1815 12.1046ZM14.7529 11.1811L13.3244 12.6097C13.2546 12.6794 13.1632 12.7143 13.0718 12.7143C12.9805 12.7143 12.8891 12.6794 12.8193 12.6097C12.6798 12.4701 12.6798 12.2441 12.8193 12.1046L13.9954 10.9286L12.8193 9.75251C12.6798 9.613 12.6798 9.387 12.8193 9.24749C12.9588 9.10798 13.1848 9.10798 13.3244 9.24749L14.7529 10.6761C14.8924 10.8156 14.8924 11.0416 14.7529 11.1811Z" fill="#C4C4C4"/>
</svg>
