<svg width="24" height="24" viewBox="0 0 24 24" fill="none" xmlns="http://www.w3.org/2000/svg">
<path fill-rule="evenodd" clip-rule="evenodd" d="M6.4834 12.6159H7.25831L7.69694 11.3298H9.53037L9.96568 12.6159H10.7406L9.01266 7.85742H8.21466L6.4834 12.6159ZM8.60706 8.64554H8.62026L9.32923 10.7362H7.89477L8.60706 8.64554Z" fill="#808080"/>
<path fill-rule="evenodd" clip-rule="evenodd" d="M11.2686 12.6159H12.0072V10.9902H13.0394C13.9726 10.9902 14.6189 10.3537 14.6189 9.42376V9.41719C14.6189 8.48399 13.9726 7.85742 13.0394 7.85742H11.2686V12.6159ZM12.8547 8.48068C13.4978 8.48068 13.8671 8.82691 13.8671 9.42051V9.42708C13.8671 10.0239 13.4978 10.3702 12.8547 10.3702H12.0072V8.48068H12.8547Z" fill="#808080"/>
<path d="M16.0033 12.6159H15.2646V7.85742H16.0033V12.6159Z" fill="#808080"/>
<path fill-rule="evenodd" clip-rule="evenodd" d="M18.2394 15.2556V15.2563H15.2562V17.0494H17.7368C17.9735 17.0494 18.1654 17.2413 18.1654 17.478V19.1083C18.3034 19.145 18.4388 19.2004 18.5683 19.2752C19.3607 19.7326 19.6322 20.7458 19.1747 21.5382C18.7172 22.3305 17.704 22.602 16.9117 22.1445C16.1193 21.6871 15.8478 20.6739 16.3053 19.8815C16.5335 19.4863 16.8999 19.2206 17.3082 19.1104V17.9065H14.8276C14.7139 17.9065 14.6049 17.8614 14.5246 17.781C14.4442 17.7006 14.399 17.5916 14.399 17.478V15.2563H12.3371V19.1092C13.0443 19.298 13.5652 19.9431 13.5652 20.7098C13.5652 21.6248 12.8235 22.3665 11.9085 22.3665C10.9936 22.3665 10.2519 21.6248 10.2519 20.7098C10.2519 19.9431 10.7727 19.2981 11.4799 19.1092V15.2563H9.41792V17.4672C9.41792 17.7038 9.22604 17.8957 8.98935 17.8957H6.50872V19.1104C6.91701 19.2206 7.28347 19.4863 7.51164 19.8815C7.96912 20.6739 7.69764 21.6871 6.90524 22.1445C6.11289 22.602 5.09969 22.3305 4.64221 21.5382C4.18474 20.7458 4.45623 19.7326 5.24859 19.2752C5.37815 19.2004 5.5136 19.145 5.65157 19.1083V17.4672C5.65157 17.2305 5.84347 17.0386 6.08015 17.0386H8.56078V15.2563H5.47378C3.31944 15.2271 1.58203 13.4712 1.58203 11.3099C1.58203 9.3807 2.96633 7.77481 4.79581 7.43138C4.77111 7.22636 4.7584 7.01761 4.7584 6.8059C4.7584 3.9478 7.07535 1.63086 9.93341 1.63086C11.8358 1.63086 13.4984 2.6573 14.3976 4.18656C14.6275 4.14152 14.8652 4.11792 15.1083 4.11792C16.7841 4.11792 18.198 5.23896 18.6411 6.77201C20.7669 7.00898 22.4197 8.8119 22.4197 11.0009C22.4197 13.326 20.5549 15.2156 18.2394 15.2556ZM18.1882 14.3992L18.2246 14.3985C20.0734 14.3666 21.5626 12.8576 21.5626 11.0009C21.5626 9.25344 20.2428 7.81298 18.5462 7.6239L17.9768 7.56041L17.8177 7.01001C17.4778 5.83378 16.3922 4.97506 15.1083 4.97506C14.9208 4.97506 14.7383 4.99325 14.5623 5.02772L13.9665 5.14441L13.6587 4.62102C12.9071 3.34282 11.5196 2.488 9.93341 2.488C7.54872 2.488 5.61554 4.42119 5.61554 6.8059C5.61554 6.98327 5.62619 7.15778 5.6468 7.32887L5.74284 8.12578L4.95395 8.27384C3.52233 8.54258 2.43917 9.80064 2.43917 11.3099C2.43917 13.0017 3.79924 14.376 5.48541 14.3988L5.51048 14.3992H18.1882ZM11.109 20.7098C11.109 21.1514 11.467 21.5094 11.9085 21.5094C12.3501 21.5094 12.708 21.1514 12.708 20.7098C12.708 20.2683 12.3501 19.9104 11.9085 19.9104C11.467 19.9104 11.109 20.2683 11.109 20.7098ZM18.4324 21.1096C18.2116 21.492 17.7227 21.623 17.3403 21.4022C16.9579 21.1814 16.8268 20.6925 17.0476 20.3101C17.2684 19.9277 17.7574 19.7966 18.1398 20.0174C18.5222 20.2382 18.6532 20.7272 18.4324 21.1096ZM5.38452 21.1096C5.6053 21.492 6.09427 21.623 6.47667 21.4022C6.85907 21.1814 6.99009 20.6925 6.76935 20.3101C6.54855 19.9277 6.05958 19.7966 5.67716 20.0174C5.29476 20.2382 5.16374 20.7272 5.38452 21.1096Z" fill="#808080"/>
<path fill-rule="evenodd" clip-rule="evenodd" d="M17.932 7.61349L17.7623 7.02634C17.4292 5.874 16.3656 5.03271 15.1078 5.03271C14.924 5.03271 14.7452 5.05054 14.5728 5.0843L13.9373 5.20877L13.609 4.65049C12.8672 3.38904 11.4981 2.54565 9.93293 2.54565C7.57979 2.54565 5.67221 4.45325 5.67221 6.8064C5.67221 6.98149 5.68272 7.15372 5.70306 7.32257L5.80545 8.17257L4.96402 8.33052C3.55895 8.59429 2.49584 9.82914 2.49584 11.3104C2.49584 12.9709 3.83075 14.3198 5.48571 14.3422L5.51 14.3425H18.1873L18.2231 14.3419C20.0408 14.3105 21.5049 12.8269 21.5049 11.0014C21.5049 9.28332 20.2074 7.86709 18.5393 7.68114L17.932 7.61349ZM18.1877 14.3997L18.2241 14.399C20.0729 14.3671 21.5621 12.8581 21.5621 11.0014C21.5621 9.25394 20.2423 7.81349 18.5457 7.6244L17.9763 7.56092L17.8172 7.01052C17.4773 5.83429 16.3917 4.97557 15.1078 4.97557C14.9203 4.97557 14.7378 4.99376 14.5618 5.02822L13.966 5.14491L13.6582 4.62153C12.9066 3.34332 11.5192 2.4885 9.93293 2.4885C7.54825 2.4885 5.61507 4.42169 5.61507 6.8064C5.61507 6.98377 5.62571 7.15829 5.64633 7.32937L5.74236 8.12629L4.95348 8.27434C3.52185 8.54309 2.4387 9.80114 2.4387 11.3104C2.4387 13.0022 3.79876 14.3765 5.48493 14.3993L5.51 14.3997H18.1877ZM5.47331 15.2568C3.31897 15.2276 1.58156 13.4717 1.58156 11.3104C1.58156 9.3812 2.96586 7.77532 4.79534 7.43189C4.77064 7.22686 4.75792 7.01812 4.75792 6.8064C4.75792 3.9483 7.07488 1.63136 9.93293 1.63136C11.8353 1.63136 13.4979 2.6578 14.3971 4.18706C14.627 4.14202 14.8647 4.11842 15.1078 4.11842C16.7836 4.11842 18.1976 5.23946 18.6406 6.77252C20.7664 7.00949 22.4192 8.8124 22.4192 11.0014C22.4192 13.3265 20.5544 15.2161 18.2389 15.2561V15.2568H15.2557V17.0499H17.7363C17.973 17.0499 18.1649 17.2418 18.1649 17.4785V19.1088C18.3029 19.1455 18.4383 19.2009 18.5678 19.2757C19.3602 19.7331 19.6317 20.7463 19.1742 21.5387C18.7168 22.331 17.7036 22.6025 16.9112 22.145C16.1188 21.6876 15.8473 20.6744 16.3048 19.882C16.533 19.4868 16.8994 19.2211 17.3077 19.1109V17.907H14.8271C14.7134 17.907 14.6044 17.8619 14.5241 17.7815C14.4437 17.7011 14.3985 17.5921 14.3985 17.4785V15.2568H12.3366V19.1097C13.0438 19.2985 13.5647 19.9436 13.5647 20.7103C13.5647 21.6253 12.823 22.367 11.908 22.367C10.9931 22.367 10.2514 21.6253 10.2514 20.7103C10.2514 19.9436 10.7722 19.2986 11.4794 19.1097V15.2568H9.41745V17.4677C9.41745 17.7043 9.22556 17.8962 8.98888 17.8962H6.50825V19.1109C6.91653 19.2211 7.28299 19.4868 7.51116 19.882C7.96865 20.6744 7.69716 21.6876 6.90476 22.145C6.11242 22.6025 5.09921 22.331 4.64174 21.5387C4.18427 20.7463 4.45575 19.7331 5.24812 19.2757C5.37767 19.2009 5.51313 19.1455 5.65109 19.1088V17.4677C5.65109 17.231 5.84299 17.0391 6.07968 17.0391H8.56031V15.2568H5.47331ZM8.50316 15.3139H5.47253C3.28697 15.2843 1.52441 13.503 1.52441 11.3104C1.52441 9.37166 2.90248 7.75486 4.73252 7.38594C4.71155 7.1956 4.70078 7.00223 4.70078 6.8064C4.70078 3.91674 7.04328 1.57422 9.93293 1.57422C11.842 1.57422 13.5121 2.59661 14.4258 4.12343C14.647 4.08261 14.8749 4.06128 15.1078 4.06128C16.7964 4.06128 18.223 5.18202 18.6848 6.72012C20.8209 6.97732 22.4764 8.796 22.4764 11.0014C22.4764 13.3389 20.6166 15.2421 18.296 15.3119V15.3139H15.3128V16.9927H17.7363C18.0046 16.9927 18.222 17.2102 18.222 17.4785V19.0655C18.3501 19.1031 18.4758 19.1565 18.5964 19.2261C19.4161 19.6994 19.697 20.7475 19.2237 21.5673C18.7505 22.3869 17.7024 22.6678 16.8826 22.1945C16.0629 21.7213 15.7821 20.6731 16.2553 19.8534C16.4835 19.4583 16.8453 19.1883 17.2506 19.0678V17.9642H14.8271C14.6983 17.9642 14.5748 17.913 14.4837 17.8219C14.3925 17.7309 14.3414 17.6073 14.3414 17.4785V15.3139H12.3937V19.0663C13.1037 19.2758 13.6218 19.9325 13.6218 20.7103C13.6218 21.6569 12.8545 22.4242 11.908 22.4242C10.9616 22.4242 10.1942 21.6569 10.1942 20.7103C10.1942 19.9325 10.7124 19.2758 11.4223 19.0664V15.3139H9.47459V17.4677C9.47459 17.7359 9.25716 17.9534 8.98888 17.9534H6.56539V19.0678C6.97065 19.1883 7.33253 19.4583 7.56065 19.8534C8.03391 20.6731 7.75305 21.7213 6.93333 22.1945C6.11368 22.6678 5.06551 22.3869 4.59225 21.5673C4.119 20.7475 4.39985 19.6994 5.21955 19.2261C5.34019 19.1565 5.46585 19.1031 5.59395 19.0655V17.4677C5.59395 17.1994 5.81139 16.9819 6.07968 16.9819H8.50316V15.3139ZM6.40202 12.6734L8.17482 7.80063H9.05293L10.8224 12.6734H9.92488L9.48962 11.3873H7.73802L7.29945 12.6734H6.40202ZM7.69716 11.3302H9.53059L9.96591 12.6162H10.7408L9.01288 7.85777H8.21488L6.48362 12.6162H7.25853L7.69716 11.3302ZM11.2113 12.6734V7.80063H13.0392C13.5189 7.80063 13.9288 7.96189 14.219 8.24692C14.5093 8.53212 14.6759 8.93732 14.6759 9.41754V9.42412C14.6759 9.90274 14.5093 10.3095 14.2192 10.5966C13.929 10.8838 13.5191 11.0477 13.0392 11.0477H12.0642V12.6734H11.2113ZM12.0071 12.6162H11.2684V7.85777H13.0392C13.9725 7.85777 14.6188 8.48434 14.6188 9.41754V9.42412C14.6188 10.3541 13.9725 10.9905 13.0392 10.9905H12.0071V12.6162ZM16.0609 12.6734H15.208V7.80063H16.0609V12.6734ZM11.1657 20.7103C11.1657 21.1203 11.498 21.4527 11.908 21.4527C12.3181 21.4527 12.6504 21.1203 12.6504 20.7103C12.6504 20.3003 12.3181 19.968 11.908 19.968C11.498 19.968 11.1657 20.3003 11.1657 20.7103ZM17.3684 21.3533C17.7234 21.5582 18.1774 21.4366 18.3825 21.0815C18.5874 20.7265 18.4658 20.2724 18.1108 20.0674C17.7557 19.8624 17.3016 19.9841 17.0966 20.3391C16.8916 20.6942 17.0133 21.1482 17.3684 21.3533ZM5.43353 21.0815C5.63853 21.4366 6.09259 21.5582 6.44762 21.3533C6.80271 21.1482 6.92436 20.6942 6.71939 20.3391C6.51436 19.9841 6.06031 19.8624 5.70526 20.0674C5.35019 20.2724 5.22853 20.7265 5.43353 21.0815ZM9.32945 10.7366H7.89499L8.60728 8.64589H8.62048L9.32945 10.7366ZM8.61373 8.80406L7.97482 10.6794H9.24973L8.61373 8.80406ZM13.5629 8.77017C13.4038 8.622 13.1662 8.53817 12.8546 8.53817H12.0642V10.3134H12.8546C13.1662 10.3134 13.4037 10.2296 13.5629 10.081C13.7215 9.93303 13.8098 9.71383 13.8098 9.42743V9.42086C13.8098 9.13617 13.7216 8.91783 13.5629 8.77017ZM11.908 21.5099C11.4665 21.5099 11.1085 21.1519 11.1085 20.7103C11.1085 20.2688 11.4665 19.9109 11.908 19.9109C12.3496 19.9109 12.7076 20.2688 12.7076 20.7103C12.7076 21.1519 12.3496 21.5099 11.908 21.5099ZM17.3398 21.4027C17.7222 21.6235 18.2112 21.4925 18.432 21.1101C18.6527 20.7277 18.5217 20.2387 18.1393 20.0179C17.7569 19.7971 17.2679 19.9282 17.0472 20.3106C16.8264 20.693 16.9574 21.1819 17.3398 21.4027ZM6.47619 21.4027C6.09379 21.6235 5.60483 21.4925 5.38405 21.1101C5.16327 20.7277 5.29429 20.2387 5.67669 20.0179C6.05911 19.7971 6.54808 19.9282 6.76888 20.3106C6.98962 20.693 6.85859 21.1819 6.47619 21.4027ZM13.8669 9.42086C13.8669 8.82726 13.4976 8.48103 12.8546 8.48103H12.0071V10.3706H12.8546C13.4976 10.3706 13.8669 10.0243 13.8669 9.42743V9.42086ZM15.2651 12.6162V7.85777H16.0038V12.6162H15.2651Z" fill="#808080"/>
</svg>
