<svg width="24" height="24" viewBox="0 0 24 24" fill="none" xmlns="http://www.w3.org/2000/svg">
<path d="M16.7023 17.2494H10.4361C10.3226 17.9212 10.058 18.5584 9.6624 19.113C9.2667 19.6676 8.75032 20.1251 8.15205 20.4511C7.55385 20.7771 6.88937 20.9629 6.20883 20.9947C5.52829 21.0265 4.84942 20.9033 4.22342 20.6344C3.59742 20.3656 3.04063 19.9582 2.59503 19.4428C2.14943 18.9275 1.82666 18.3177 1.65106 17.6594C1.47547 17.0011 1.45163 16.3117 1.58134 15.6428C1.71105 14.974 1.99093 14.3434 2.39986 13.7985C2.45902 13.7197 2.53312 13.6533 2.61793 13.6031C2.70273 13.553 2.79658 13.52 2.89413 13.5061C2.99167 13.4923 3.091 13.4977 3.18643 13.5222C3.28187 13.5467 3.37154 13.5898 3.45034 13.6489C3.52913 13.7081 3.5955 13.7822 3.64565 13.867C3.69581 13.9518 3.72877 14.0456 3.74266 14.1432C3.75655 14.2408 3.75108 14.3401 3.72658 14.4355C3.70208 14.5309 3.65902 14.6206 3.59986 14.6994C3.2085 15.2177 2.99775 15.85 2.99986 16.4994C2.99986 17.2951 3.31594 18.0581 3.87855 18.6207C4.44115 19.1833 5.20422 19.4994 5.99986 19.4994C6.79552 19.4994 7.55857 19.1833 8.12122 18.6207C8.6838 18.0581 8.99985 17.2951 8.99985 16.4994C8.99985 16.3005 9.0789 16.1097 9.21952 15.9691C9.36022 15.8284 9.55095 15.7494 9.74985 15.7494H16.7023C16.8675 15.4634 17.1223 15.2399 17.4274 15.1136C17.7325 14.9872 18.0706 14.965 18.3896 15.0505C18.7086 15.136 18.9904 15.3243 19.1914 15.5863C19.3924 15.8482 19.5014 16.1692 19.5014 16.4994C19.5014 16.8296 19.3924 17.1505 19.1914 17.4125C18.9904 17.6745 18.7086 17.8628 18.3896 17.9483C18.0706 18.0337 17.7325 18.0116 17.4274 17.8852C17.1223 17.7589 16.8675 17.5354 16.7023 17.2494ZM5.99986 17.9994C6.25966 17.9995 6.51503 17.9321 6.74096 17.8039C6.96689 17.6755 7.15563 17.4908 7.2887 17.2677C7.42176 17.0446 7.4946 16.7907 7.50007 16.531C7.50555 16.2712 7.44343 16.0145 7.31986 15.786L10.6733 10.3354C10.7773 10.166 10.81 9.96224 10.7639 9.76889C10.7179 9.57554 10.5969 9.40837 10.4277 9.30412C10.0268 9.05729 9.68962 8.71964 9.4434 8.31839C9.19725 7.91722 9.0489 7.46365 9.01042 6.99448C8.97195 6.52531 9.04447 6.05368 9.22207 5.61771C9.3996 5.18174 9.67732 4.79368 10.0326 4.48491C10.3879 4.17613 10.8109 3.95531 11.2675 3.8403C11.7239 3.72529 12.2011 3.71931 12.6603 3.82285C13.1195 3.92639 13.5479 4.13655 13.9108 4.43632C14.2738 4.7361 14.5611 5.11708 14.7496 5.54846C14.8291 5.73084 14.9779 5.87414 15.1631 5.94684C15.3483 6.01954 15.5548 6.01568 15.7372 5.93611C15.9196 5.85655 16.0629 5.7078 16.1356 5.52258C16.2083 5.33735 16.2044 5.13084 16.1248 4.94846C15.8547 4.33086 15.4492 3.78185 14.9384 3.34198C14.4276 2.90212 13.8244 2.58263 13.1736 2.40713C12.5227 2.23163 11.8408 2.2046 11.1781 2.32804C10.5154 2.45147 9.8889 2.72222 9.34485 3.12028C8.8008 3.51834 8.35312 4.03354 8.03497 4.62781C7.71675 5.22209 7.53615 5.88027 7.50645 6.55372C7.47675 7.22717 7.5987 7.89869 7.86337 8.51864C8.12805 9.13867 8.52862 9.69127 9.03547 10.1356L6.04111 14.9994C6.02705 14.9994 6.01393 14.9994 5.99986 14.9994C5.60204 14.9994 5.22051 15.1574 4.93921 15.4387C4.6579 15.7201 4.49986 16.1016 4.49986 16.4994C4.49986 16.8972 4.6579 17.2788 4.93921 17.56C5.22051 17.8414 5.60204 17.9994 5.99986 17.9994ZM17.9998 11.9994C17.4216 11.9995 16.8487 12.1105 16.3123 12.3266L13.3198 7.4619C13.4758 7.17295 13.5327 6.84079 13.4817 6.51642C13.4307 6.19204 13.2746 5.89336 13.0375 5.66621C12.8004 5.43906 12.4953 5.296 12.169 5.25897C11.8428 5.22194 11.5134 5.29299 11.2314 5.46123C10.9494 5.62946 10.7304 5.88558 10.608 6.19027C10.4856 6.49497 10.4665 6.83142 10.5538 7.14797C10.6411 7.46453 10.8298 7.74374 11.091 7.94264C11.3522 8.14162 11.6715 8.24939 11.9998 8.24939H12.0411L15.3955 13.701C15.4999 13.87 15.6671 13.9908 15.8605 14.0367C16.0538 14.0825 16.2575 14.0498 16.4267 13.9456C16.8216 13.7023 17.2675 13.5537 17.7295 13.5117C18.1915 13.4697 18.6568 13.5355 19.0891 13.7037C19.5214 13.8719 19.9088 14.1382 20.2208 14.4814C20.5328 14.8246 20.761 15.2355 20.8875 15.6818C21.0139 16.1281 21.0351 16.5976 20.9494 17.0536C20.8637 17.5094 20.6735 17.9392 20.3937 18.3091C20.1138 18.6791 19.752 18.9791 19.3366 19.1857C18.9213 19.3922 18.4637 19.4995 17.9998 19.4994C17.8009 19.4994 17.6102 19.5784 17.4695 19.7191C17.3289 19.8597 17.2498 20.0505 17.2498 20.2494C17.2498 20.4483 17.3289 20.6391 17.4695 20.7797C17.6102 20.9204 17.8009 20.9994 17.9998 20.9994C19.1933 20.9994 20.3379 20.5253 21.1819 19.6814C22.0258 18.8374 22.4998 17.6929 22.4998 16.4994C22.4998 15.3059 22.0258 14.1613 21.1819 13.3174C20.3379 12.4735 19.1933 11.9994 17.9998 11.9994Z" fill="#808080"/>
</svg>
