<svg width="24" height="24" viewBox="0 0 24 24" fill="none" xmlns="http://www.w3.org/2000/svg">
<path fill-rule="evenodd" clip-rule="evenodd" d="M7.14663 15.068C7.20278 15.1242 7.23432 15.2003 7.23432 15.2797C7.23432 15.3591 7.20278 15.4353 7.14663 15.4914C7.09048 15.5476 7.01432 15.5791 6.93491 15.5791C6.85551 15.5791 6.77935 15.5476 6.7232 15.4914L5.58916 14.3574C5.53302 14.3013 5.50148 14.2251 5.50148 14.1457C5.50148 14.0663 5.53302 13.9902 5.58916 13.934L6.7232 12.8C6.77935 12.7438 6.85551 12.7123 6.93491 12.7123C7.01432 12.7123 7.09048 12.7438 7.14663 12.8C7.20278 12.8561 7.23432 12.9323 7.23432 13.0117C7.23432 13.0911 7.20278 13.1672 7.14663 13.2234L6.22431 14.1457L7.14663 15.068ZM9.57081 15.5305C9.51458 15.5862 9.43856 15.6174 9.35937 15.6173C9.28019 15.6171 9.2043 15.5856 9.14831 15.5296C9.09233 15.4736 9.0608 15.3977 9.06064 15.3185C9.06047 15.2393 9.09168 15.1633 9.14744 15.1071L10.0698 14.1847L9.14744 13.2624C9.09168 13.2062 9.06047 13.1302 9.06064 13.051C9.0608 12.9718 9.09233 12.8959 9.14831 12.8399C9.2043 12.7839 9.28019 12.7524 9.35937 12.7522C9.43856 12.7521 9.51458 12.7833 9.57081 12.839L10.7049 13.973C10.761 14.0292 10.7925 14.1053 10.7925 14.1847C10.7925 14.2641 10.761 14.3403 10.7049 14.3964L9.57081 15.5305ZM7.96413 16.0025C7.9431 16.0785 7.89291 16.1431 7.82446 16.1823C7.75602 16.2215 7.67487 16.232 7.59867 16.2117C7.52248 16.1913 7.45741 16.1417 7.41764 16.0736C7.37786 16.0055 7.3666 15.9244 7.3863 15.8481L8.32975 12.3281C8.33989 12.2902 8.3574 12.2546 8.38129 12.2234C8.40517 12.1923 8.43496 12.1661 8.46896 12.1465C8.50295 12.1268 8.54048 12.114 8.57941 12.1089C8.61834 12.1037 8.65791 12.1063 8.69584 12.1164C8.73378 12.1266 8.76935 12.1441 8.80052 12.168C8.83169 12.1919 8.85785 12.2216 8.87751 12.2556C8.89717 12.2896 8.90993 12.3272 8.91509 12.3661C8.92024 12.405 8.91767 12.4446 8.90753 12.4825L7.96436 16.0028L7.96413 16.0025ZM14.0673 10.3563C14.2411 10.178 14.464 10.0552 14.7077 10.0035C14.9514 9.95178 15.2049 9.9735 15.4363 10.0659C15.6676 10.1583 15.8663 10.3172 16.0074 10.5225C16.1484 10.7279 16.2253 10.9704 16.2285 11.2195C16.2317 11.4686 16.161 11.713 16.0252 11.9219C15.8895 12.1308 15.6949 12.2947 15.466 12.393C15.2371 12.4912 14.9842 12.5194 14.7392 12.474C14.4943 12.4285 14.2684 12.3114 14.09 12.1376C13.8509 11.9043 13.7141 11.5857 13.7099 11.2517C13.7056 10.9176 13.8342 10.5956 14.0673 10.3563ZM14.9607 10.5728C14.3753 10.5801 14.0836 11.2969 14.5064 11.7093C14.9305 12.1231 15.6391 11.8125 15.6319 11.2271C15.6294 11.0514 15.5573 10.8839 15.4315 10.7613C15.3057 10.6386 15.1364 10.5708 14.9607 10.5728ZM15.6596 9.55425C15.4964 9.48713 15.3175 9.47822 15.2721 9.267L15.2028 8.94577L14.7148 8.95181L14.6585 9.24914C14.6208 9.47991 14.4426 9.48628 14.2687 9.55898C14.1061 9.62695 13.9726 9.74564 13.7933 9.63028L13.5158 9.45131L13.1749 9.80077L13.3507 10.0589C13.479 10.2437 13.3567 10.3784 13.2881 10.545C13.221 10.7083 13.2121 10.8872 13.0009 10.9326L12.6796 11.0018L12.6857 11.49L12.9831 11.5462C13.2138 11.584 13.2202 11.7622 13.2929 11.936C13.3608 12.0986 13.4796 12.232 13.3642 12.4114L13.1852 12.6889L13.5346 13.0298L13.7927 12.8541C13.9775 12.7258 14.1122 12.8481 14.2789 12.9166C14.442 12.9837 14.6211 12.9927 14.6664 13.2038L14.7357 13.5251L15.2238 13.519L15.28 13.2217C15.3178 12.9909 15.496 12.9845 15.6699 12.9118C15.8325 12.8438 15.9659 12.7251 16.1452 12.8405L16.4227 13.0196L16.7636 12.6701L16.5879 12.4123C16.4596 12.2274 16.5819 12.0928 16.6504 11.926C16.7176 11.7628 16.7265 11.5838 16.9377 11.5386L17.2589 11.4692L17.2528 10.9812L16.9555 10.9249C16.7248 10.8872 16.7184 10.7093 16.6457 10.5351C16.5777 10.3725 16.4589 10.2391 16.5743 10.0598L16.7534 9.78225L16.4039 9.44137L16.1461 9.61706C15.9612 9.74541 15.8266 9.62306 15.6599 9.55453L15.6596 9.55425ZM18.6137 4.37367H15.8883C15.8089 4.37367 15.7328 4.34212 15.6766 4.28597C15.6205 4.22981 15.5889 4.15365 15.5889 4.07423V1.34888H3.67309V20.8776H18.6137V4.37367ZM16.1878 1.77211L18.1903 3.77466H16.1878V1.77225V1.77211ZM5.38642 21.4764V22.6511H20.327V3.12239H18.3848L19.1251 3.8625C19.1529 3.89027 19.175 3.92327 19.19 3.95959C19.2051 3.99592 19.2128 4.03487 19.2128 4.07419V21.177C19.2128 21.2564 19.1812 21.3326 19.1251 21.3887C19.0689 21.4449 18.9927 21.4764 18.9133 21.4764H5.38642ZM17.7859 2.52352L16.1019 0.839531C16.074 0.811141 16.0408 0.788596 16.0041 0.773222C15.9675 0.757847 15.9281 0.749952 15.8883 0.75H3.37366C3.29424 0.75 3.21808 0.781548 3.16192 0.837703C3.10577 0.893859 3.07422 0.970022 3.07422 1.04944V21.177C3.07422 21.2564 3.10577 21.3326 3.16192 21.3887C3.21808 21.4449 3.29424 21.4764 3.37366 21.4764H4.78755V22.9506C4.78755 23.03 4.81909 23.1061 4.87525 23.1623C4.93141 23.2185 5.00757 23.25 5.08698 23.25H20.6265C20.7059 23.25 20.782 23.2185 20.8382 23.1623C20.8944 23.1061 20.9259 23.03 20.9259 22.9506V2.82295C20.9259 2.74354 20.8944 2.66737 20.8382 2.61122C20.782 2.55506 20.7059 2.52352 20.6265 2.52352H17.7859ZM14.9251 8.35261C14.7994 8.10239 14.6067 7.89195 14.3685 7.74473C14.1303 7.59751 13.856 7.51928 13.576 7.51875H13.1353C13.0637 7.51873 12.9944 7.493 12.9401 7.44624C12.8858 7.39948 12.8501 7.3348 12.8394 7.26394C12.7248 6.50536 11.833 6.15553 11.2307 6.61706V6.61683C11.1982 6.64147 11.1611 6.65924 11.1216 6.66903C11.0821 6.67883 11.041 6.68044 11.0008 6.67378C10.9606 6.66713 10.9222 6.65233 10.888 6.63031C10.8537 6.60829 10.8243 6.5795 10.8016 6.54572C10.6108 6.26057 10.3383 6.0398 10.0198 5.91242C9.70127 5.78504 9.35166 5.75702 9.01692 5.83204C8.68217 5.90706 8.37796 6.0816 8.14426 6.33273C7.91056 6.58386 7.75831 6.89983 7.70753 7.23909C7.70255 7.31494 7.6689 7.38606 7.61342 7.43802C7.55793 7.48998 7.48476 7.51889 7.40875 7.51889H7.13997C6.73958 7.51889 6.3556 7.67794 6.07248 7.96106C5.78937 8.24417 5.63031 8.62816 5.63031 9.02855C5.63031 9.42893 5.78937 9.81292 6.07248 10.096C6.3556 10.3792 6.73958 10.5382 7.13997 10.5382H12.1801C12.2188 10.5037 12.2658 10.48 12.3164 10.4692V10.4686L12.7102 10.3837L12.7623 10.2566L12.5438 9.93563C12.5038 9.87698 12.486 9.80601 12.4935 9.73542C12.5011 9.66483 12.5335 9.59923 12.585 9.55036L13.2587 8.85966C13.3067 8.81031 13.3703 8.77907 13.4387 8.77121C13.5071 8.76335 13.5761 8.77936 13.6341 8.81653L13.9738 9.03572L14.1011 8.98223L14.1733 8.60175C14.1866 8.53122 14.2247 8.4678 14.2809 8.4231C14.337 8.37839 14.4073 8.35539 14.479 8.35828L14.9252 8.35275L14.9251 8.35261ZM12.0844 11.137L12.0918 11.7257C12.0889 11.7974 12.1119 11.8678 12.1566 11.9239C12.2013 11.98 12.2647 12.0182 12.3353 12.0315L12.7158 12.1036L12.7692 12.2309L12.55 12.5707C12.5128 12.6287 12.4968 12.6977 12.5047 12.7661C12.5125 12.8345 12.5438 12.8981 12.5931 12.9461L13.2844 13.62C13.3333 13.6714 13.3989 13.7039 13.4695 13.7114C13.5401 13.7189 13.611 13.7011 13.6697 13.6611L13.9906 13.4426L14.1177 13.4946L14.2027 13.8884H14.2032C14.2176 13.9558 14.2548 14.0162 14.3087 14.0593C14.3625 14.1024 14.4296 14.1255 14.4985 14.1247L15.4598 14.1127C15.5315 14.1156 15.6019 14.0926 15.658 14.0479C15.7141 14.0032 15.7523 13.9398 15.7655 13.8693L15.8377 13.4888L15.9649 13.4353L16.3047 13.6545C16.3627 13.6917 16.4317 13.7077 16.5001 13.6998C16.5685 13.692 16.6321 13.6607 16.6801 13.6114L17.3538 12.9207C17.4053 12.8718 17.4378 12.8062 17.4453 12.7356C17.4528 12.665 17.435 12.5941 17.395 12.5354L17.1765 12.2145L17.2285 12.0874L17.6223 12.0024V12.0019C17.6898 11.9875 17.7502 11.9503 17.7933 11.8965C17.8363 11.8426 17.8595 11.7755 17.8587 11.7066L17.8467 10.7453C17.8496 10.6736 17.8266 10.6032 17.7819 10.5471C17.7372 10.491 17.6738 10.4528 17.6032 10.4396L17.2227 10.3674L17.1693 10.2402L17.3885 9.90037C17.4257 9.84243 17.4417 9.77342 17.4338 9.70503C17.4259 9.63663 17.3947 9.57306 17.3454 9.52505L16.6548 8.85108C16.6059 8.79959 16.5403 8.76717 16.4697 8.75963C16.3991 8.75209 16.3281 8.76992 16.2695 8.80992L15.9486 9.02845L15.8215 8.97638L15.7365 8.58262H15.7359C15.7267 8.53954 15.7082 8.49902 15.6815 8.46396C15.6548 8.42891 15.6208 8.40018 15.5817 8.37984C15.4537 7.98968 15.2154 7.64499 14.8956 7.3875C14.5223 7.08504 14.0564 6.91997 13.576 6.91992H13.3708C13.2989 6.70001 13.1804 6.4982 13.0234 6.32829C12.8664 6.15839 12.6745 6.02439 12.4609 5.93546C12.2473 5.84653 12.017 5.80475 11.7858 5.813C11.5546 5.82124 11.3279 5.8793 11.1212 5.98322C10.8464 5.66714 10.4903 5.43223 10.0916 5.30391C9.69293 5.17559 9.26674 5.15876 8.85916 5.25522C8.45158 5.35169 8.07814 5.55778 7.77925 5.8512C7.48037 6.14462 7.26742 6.51419 7.16345 6.91992C6.88591 6.91736 6.61059 6.96961 6.35329 7.07369C6.09598 7.17777 5.86176 7.33162 5.66405 7.52643C5.46634 7.72123 5.30904 7.95315 5.20116 8.20889C5.09329 8.46462 5.03696 8.73914 5.03542 9.01669C5.03388 9.29424 5.08715 9.56937 5.19217 9.82629C5.2972 10.0832 5.45192 10.3169 5.64745 10.5138C5.84298 10.7108 6.07548 10.8673 6.33161 10.9742C6.58774 11.0812 6.86246 11.1365 7.14002 11.137H12.0844ZM5.73836 19.412C5.65894 19.412 5.58278 19.3804 5.52663 19.3243C5.47047 19.2681 5.43892 19.1919 5.43892 19.1125C5.43892 19.0331 5.47047 18.957 5.52663 18.9008C5.58278 18.8446 5.65894 18.8131 5.73836 18.8131H16.5274C16.6069 18.8131 16.683 18.8446 16.7392 18.9008C16.7953 18.957 16.8269 19.0331 16.8269 19.1125C16.8269 19.1919 16.7953 19.2681 16.7392 19.3243C16.683 19.3804 16.6069 19.412 16.5274 19.412H5.73836ZM9.21264 17.8987C9.17301 17.8992 9.13367 17.8918 9.09691 17.877C9.06014 17.8622 9.02669 17.8402 8.99849 17.8123C8.97029 17.7845 8.94789 17.7513 8.93261 17.7147C8.91733 17.6782 8.90946 17.6389 8.90946 17.5993C8.90946 17.5597 8.91733 17.5204 8.93261 17.4838C8.94789 17.4473 8.97029 17.4141 8.99849 17.3862C9.02669 17.3584 9.06014 17.3364 9.09691 17.3216C9.13367 17.3068 9.17301 17.2994 9.21264 17.2999H16.5274C16.5671 17.2994 16.6064 17.3068 16.6432 17.3216C16.6799 17.3364 16.7134 17.3584 16.7416 17.3862C16.7698 17.4141 16.7922 17.4473 16.8075 17.4838C16.8228 17.5204 16.8306 17.5597 16.8306 17.5993C16.8306 17.6389 16.8228 17.6782 16.8075 17.7147C16.7922 17.7513 16.7698 17.7845 16.7416 17.8123C16.7134 17.8402 16.6799 17.8622 16.6432 17.877C16.6064 17.8918 16.5671 17.8992 16.5274 17.8987H9.21264ZM5.73836 17.8987C5.69872 17.8992 5.65939 17.8918 5.62262 17.877C5.58586 17.8622 5.55241 17.8402 5.52421 17.8123C5.496 17.7845 5.47361 17.7513 5.45833 17.7147C5.44305 17.6782 5.43518 17.6389 5.43518 17.5993C5.43518 17.5597 5.44305 17.5204 5.45833 17.4838C5.47361 17.4473 5.496 17.4141 5.52421 17.3862C5.55241 17.3584 5.58586 17.3364 5.62262 17.3216C5.65939 17.3068 5.69872 17.2994 5.73836 17.2999H7.53859C7.57823 17.2994 7.61757 17.3068 7.65433 17.3216C7.69109 17.3364 7.72454 17.3584 7.75275 17.3862C7.78095 17.4141 7.80334 17.4473 7.81862 17.4838C7.83391 17.5204 7.84178 17.5597 7.84178 17.5993C7.84178 17.6389 7.83391 17.6782 7.81862 17.7147C7.80334 17.7513 7.78095 17.7845 7.75275 17.8123C7.72454 17.8402 7.69109 17.8622 7.65433 17.877C7.61757 17.8918 7.57823 17.8992 7.53859 17.8987H5.73836Z" fill="#0B3A78"/>
</svg>
