<svg width="24" height="24" viewBox="0 0 24 24" fill="none" xmlns="http://www.w3.org/2000/svg">
<path d="M18 2.25H6C3.93 2.25 2.25 3.93 2.25 6V18C2.25 20.07 3.93 21.75 6 21.75H18C20.07 21.75 21.75 20.07 21.75 18V6C21.75 3.93 20.07 2.25 18 2.25ZM3.75 6C3.75 4.7625 4.7625 3.75 6 3.75H18C19.2375 3.75 20.25 4.7625 20.25 6V6.75H3.75V6ZM20.25 18C20.25 19.2375 19.2375 20.25 18 20.25H6C4.7625 20.25 3.75 19.2375 3.75 18V8.25H20.25V18Z" fill="#0B3A78"/>
<path d="M15 6C15.4142 6 15.75 5.66421 15.75 5.25C15.75 4.83579 15.4142 4.5 15 4.5C14.5858 4.5 14.25 4.83579 14.25 5.25C14.25 5.66421 14.5858 6 15 6Z" fill="#0B3A78"/>
<path d="M18 6C18.4142 6 18.75 5.66421 18.75 5.25C18.75 4.83579 18.4142 4.5 18 4.5C17.5858 4.5 17.25 4.83579 17.25 5.25C17.25 5.66421 17.5858 6 18 6Z" fill="#0B3A78"/>
<path d="M17.25 17.25C16.8375 17.25 16.5 16.9125 16.5 16.5C16.5 14.0175 14.4825 12 12 12C9.5175 12 7.5 14.0175 7.5 16.5C7.5 16.9125 7.1625 17.25 6.75 17.25C6.3375 17.25 6 16.9125 6 16.5C6 13.1925 8.6925 10.5 12 10.5C15.3075 10.5 18 13.1925 18 16.5C18 16.9125 17.6625 17.25 17.25 17.25Z" fill="#0B3A78"/>
<path d="M11.9999 17.2502C11.8049 17.2502 11.6174 17.1752 11.4674 17.0327C11.1749 16.7402 11.1749 16.2677 11.4674 15.9752L12.9674 14.4752C13.2599 14.1827 13.7324 14.1827 14.0249 14.4752C14.3174 14.7677 14.3174 15.2402 14.0249 15.5327L12.5249 17.0327C12.3749 17.1827 12.1874 17.2502 11.9924 17.2502H11.9999Z" fill="#0B3A78"/>
</svg>
