<svg width="24" height="24" viewBox="0 0 24 24" fill="none" xmlns="http://www.w3.org/2000/svg">
<g clip-path="url(#clip0_2262_1319)">
<path d="M17.5861 23.247C16.8526 23.247 16.1117 23.1539 15.3716 22.9679C10.0183 21.6202 2.37954 13.9811 1.03188 8.62781C0.48769 6.4679 0.74294 4.2948 1.76943 2.3451C2.21621 1.49622 3.01418 0.927129 3.959 0.783575C4.89284 0.643682 5.81862 0.944707 6.49062 1.61634L8.6802 3.80628C9.54262 4.66834 9.79238 5.9867 9.30166 7.08606C9.04458 7.66321 8.71682 8.1532 8.3268 8.54212C8.05947 8.81019 8.006 9.25257 8.16823 9.85755C8.75783 12.0592 11.9402 15.2416 14.1422 15.8319C14.7483 15.9938 15.19 15.941 15.4573 15.673C15.8477 15.2826 16.338 14.9545 16.9144 14.6981C18.0134 14.2059 19.3311 14.4572 20.1939 15.3192L22.3834 17.5092C23.0551 18.1808 23.3583 19.1036 23.2162 20.0411C23.073 20.9852 22.5036 21.7836 21.6547 22.2304C20.3726 22.9056 18.9942 23.247 17.5861 23.247ZM4.40651 2.24988C4.33291 2.24988 4.25856 2.25574 4.18386 2.26673C3.71547 2.33777 3.31923 2.62122 3.09658 3.04383C2.23305 4.68445 2.02761 6.44007 2.48647 8.2616C3.70705 13.1095 10.8899 20.2931 15.7378 21.5133C17.559 21.9725 19.315 21.766 20.956 20.9032C21.3789 20.6805 21.662 20.2843 21.7331 19.8156C21.803 19.3549 21.6536 18.9008 21.3229 18.5697L19.1333 16.3798C18.7078 15.955 18.0618 15.8297 17.5249 16.0678C17.1166 16.2501 16.7779 16.4735 16.5178 16.7335C16.0542 17.1964 15.1995 17.6674 13.7537 17.2806C11.0056 16.5446 7.45559 12.9938 6.71914 10.2457C6.33205 8.80066 6.80336 7.94446 7.26662 7.48157C7.5259 7.22229 7.74965 6.88392 7.93166 6.47522C8.17116 5.93909 8.04555 5.2931 7.61965 4.86683L5.43007 2.67689C5.15285 2.40003 4.78884 2.24988 4.40651 2.24988Z" fill="#808080"/>
<path d="M16.1257 10.1243C15.9338 10.1243 15.7419 10.051 15.5955 9.90454L13.7197 8.02881C13.4268 7.73584 13.4268 7.26123 13.7197 6.96826C14.0127 6.67529 14.4873 6.67529 14.7803 6.96826L16.1257 8.31372L19.7197 4.71973C20.0127 4.42676 20.4873 4.42676 20.7803 4.71973C21.0732 5.0127 21.0732 5.4873 20.7803 5.78027L16.656 9.90454C16.5095 10.051 16.3176 10.1243 16.1257 10.1243Z" fill="#808080"/>
</g>
<defs>
<clipPath id="clip0_2262_1319">
<rect width="24" height="24" fill="white"/>
</clipPath>
</defs>
</svg>
