<svg width="19" height="23" viewBox="0 0 19 23" fill="none" xmlns="http://www.w3.org/2000/svg">
<g clip-path="url(#clip0_2258_887)">
<path d="M17.4623 8.89215C17.4525 8.37918 17.4432 7.89458 17.4432 7.42577C17.4432 7.05848 17.1455 6.76072 16.7782 6.76072C13.934 6.76072 11.7685 5.94333 9.96345 4.18831C9.70523 3.93719 9.29432 3.93727 9.03619 4.18831C7.23134 5.94333 5.06621 6.76072 2.22219 6.76072C1.85491 6.76072 1.55714 7.05848 1.55714 7.42577C1.55714 7.89467 1.54792 8.37945 1.53808 8.89251C1.44692 13.6663 1.32207 20.2043 9.28199 22.9633C9.35258 22.9878 9.42618 23.0001 9.49977 23.0001C9.57337 23.0001 9.64706 22.9878 9.71756 22.9633C17.6781 20.2042 17.5534 13.6661 17.4623 8.89215ZM9.49986 21.6293C2.67318 19.1493 2.7764 13.7168 2.868 8.91787C2.87349 8.62986 2.87882 8.35072 2.88254 8.07707C5.54628 7.96463 7.67639 7.15744 9.49986 5.56895C11.3235 7.15744 13.454 7.96472 16.1179 8.07707C16.1216 8.35063 16.1269 8.62959 16.1324 8.91743C16.2239 13.7165 16.3271 19.1492 9.49986 21.6293Z" fill="#1F4DD8"/>
<path d="M11.7901 11.1889L8.58019 14.3986L7.21046 13.0289C6.95073 12.7692 6.52962 12.7692 6.26999 13.0289C6.01026 13.2887 6.01026 13.7097 6.26999 13.9694L8.10996 15.8094C8.23977 15.9392 8.41003 16.0041 8.58019 16.0041C8.75035 16.0041 8.92061 15.9392 9.05042 15.8094L12.7305 12.1294C12.9903 11.8697 12.9903 11.4486 12.7305 11.189C12.4709 10.9293 12.0498 10.9292 11.7901 11.1889Z" fill="#1F4DD8"/>
</g>
<defs>
<clipPath id="clip0_2258_887">
<rect width="19" height="23" fill="white"/>
</clipPath>
</defs>
</svg>
