<svg width="24" height="24" viewBox="0 0 24 24" fill="none" xmlns="http://www.w3.org/2000/svg">
<path d="M19.717 9.357C19.388 5.384 16.056 2.25 12 2.25C7.944 2.25 4.611 5.384 4.283 9.357C3.116 9.675 2.25 10.733 2.25 12C2.25 12.849 2.644 13.599 3.25 14.104V16.758C3.25 19.511 5.49 21.75 8.243 21.75C9.576 21.75 10.829 21.23 11.773 20.288L12 20.06L12.228 20.288C13.171 21.23 14.425 21.75 15.758 21.75C18.511 21.75 20.751 19.511 20.751 16.758V14.104C21.357 13.599 21.751 12.849 21.751 12C21.751 10.733 20.886 9.675 19.718 9.357H19.717ZM12 3.75C15.192 3.75 17.833 6.156 18.205 9.25H5.795C6.167 6.156 8.808 3.75 12 3.75ZM19.25 16.758C19.25 18.684 17.683 20.25 15.757 20.25C14.824 20.25 13.947 19.887 13.287 19.228L12.53 18.47C12.389 18.329 12.199 18.25 12 18.25C11.801 18.25 11.61 18.329 11.47 18.47L10.713 19.228C10.052 19.887 9.175 20.25 8.243 20.25C6.317 20.25 4.75 18.684 4.75 16.758V14.75H19.25V16.758ZM19 13.25H5C4.311 13.25 3.75 12.689 3.75 12C3.75 11.311 4.311 10.75 5 10.75H19C19.689 10.75 20.25 11.311 20.25 12C20.25 12.689 19.689 13.25 19 13.25ZM9.75 17C9.75 17.414 9.414 17.75 9 17.75H7C6.586 17.75 6.25 17.414 6.25 17C6.25 16.586 6.586 16.25 7 16.25H9C9.414 16.25 9.75 16.586 9.75 17ZM17.75 17C17.75 17.414 17.414 17.75 17 17.75H15C14.586 17.75 14.25 17.414 14.25 17C14.25 16.586 14.586 16.25 15 16.25H17C17.414 16.25 17.75 16.586 17.75 17Z" fill="#808080"/>
</svg>
