<svg width="24" height="24" viewBox="0 0 24 24" fill="none" xmlns="http://www.w3.org/2000/svg">
<path d="M14.1462 10.6777C12.2595 10.6777 10.7246 12.2127 10.7246 14.0994C10.7246 15.9861 12.2595 17.521 14.1462 17.521C16.0329 17.521 17.5679 15.9861 17.5679 14.0994C17.5679 12.2127 16.0329 10.6777 14.1462 10.6777ZM14.1462 16.7433C12.6883 16.7433 11.5023 15.5573 11.5023 14.0994C11.5023 12.6414 12.6883 11.4554 14.1462 11.4554C15.6042 11.4554 16.7902 12.6414 16.7902 14.0994C16.7902 15.5573 15.6042 16.7433 14.1462 16.7433Z" fill="#808080"/>
<path d="M21.6142 19.7037L18.5284 16.6178C18.9561 15.8761 19.201 15.0163 19.201 14.1003C19.201 12.7484 18.6675 11.5189 17.8001 10.611V6.24569C17.7998 6.24569 17.7995 6.24569 17.7992 6.24569C17.7992 6.14453 17.7606 6.0452 17.6863 5.97078L13.8763 2.16079C13.8019 2.08636 13.7024 2.04794 13.6013 2.04794C13.6013 2.04748 13.6013 2.04733 13.6014 2.04688H3.25924C2.61601 2.04688 2.09277 2.57011 2.09277 3.21334V20.788C2.09277 21.4313 2.61601 21.9545 3.25924 21.9545H16.6338C17.2768 21.9545 17.8002 21.4313 17.8002 20.788V19.6188L19.7496 21.5684C20.0066 21.8254 20.3443 21.9539 20.6821 21.9539C21.0197 21.9539 21.3573 21.8254 21.6143 21.5684C22.1283 21.0543 22.1283 20.2179 21.6142 19.7037ZM14.1464 18.3774C11.7881 18.3774 9.86934 16.4586 9.86934 14.1003C9.86934 11.742 11.7881 9.82329 14.1464 9.82329C16.5047 9.82329 18.4234 11.742 18.4234 14.1003C18.4234 16.4586 16.5047 18.3774 14.1464 18.3774ZM13.9902 3.37449L16.4726 5.85702H14.3791C14.1646 5.85702 13.9902 5.6825 13.9902 5.4682V3.37449ZM17.0226 20.788C17.0226 21.0025 16.8481 21.1769 16.6338 21.1769H3.25924C3.04478 21.1769 2.87042 21.0025 2.87042 20.788V3.21334C2.87042 2.99888 3.04478 2.82452 3.25924 2.82452H13.2126V5.46804C13.2126 6.11127 13.7358 6.63451 14.3791 6.63451H17.0224V9.94617C16.2056 9.37873 15.2143 9.04565 14.1464 9.04565C11.3592 9.04565 9.0917 11.3131 9.0917 14.1003C9.0917 14.6445 9.17858 15.169 9.33851 15.6606H4.58715C4.37254 15.6606 4.19833 15.8347 4.19833 16.0494C4.19833 16.2641 4.37254 16.4383 4.58715 16.4383H9.55221C9.58882 16.4383 9.62436 16.4328 9.65792 16.4232C10.5006 18.0447 12.1962 19.155 14.1464 19.155C15.0622 19.155 15.922 18.91 16.6637 18.4823L17.0226 18.8412V20.788ZM21.0643 21.0184C20.8535 21.2294 20.5104 21.2294 20.2996 21.0184L17.3159 18.0347C17.5972 17.8076 17.8535 17.5513 18.0806 17.27L21.0643 20.2536C21.2753 20.4645 21.2753 20.8076 21.0643 21.0184Z" fill="#808080"/>
<path d="M14.1466 12.3496C13.9319 12.3496 13.7578 12.5237 13.7578 12.7384C13.7578 12.9532 13.9319 13.1273 14.1466 13.1273C14.6825 13.1273 15.1185 13.5633 15.1185 14.0992C15.1185 14.3139 15.2926 14.488 15.5074 14.488C15.7221 14.488 15.8962 14.3139 15.8962 14.0992C15.8962 13.1344 15.1114 12.3496 14.1466 12.3496Z" fill="#808080"/>
<path d="M8.08679 12.9648H4.58755C4.37294 12.9648 4.19873 13.1389 4.19873 13.3537C4.19873 13.5684 4.37294 13.7425 4.58755 13.7425H8.08679C8.30155 13.7425 8.47561 13.5684 8.47561 13.3537C8.47561 13.1389 8.30155 12.9648 8.08679 12.9648Z" fill="#808080"/>
<path d="M8.31719 10.2676H4.58755C4.37294 10.2676 4.19873 10.4416 4.19873 10.6564C4.19873 10.871 4.37294 11.0452 4.58755 11.0452H8.31719C8.53196 11.0452 8.70602 10.871 8.70602 10.6564C8.70602 10.4416 8.53196 10.2676 8.31719 10.2676Z" fill="#808080"/>
<path d="M9.48062 18.3555C9.37825 18.3555 9.27801 18.3969 9.20571 18.4694C9.13341 18.5417 9.0918 18.6419 9.0918 18.7443C9.0918 18.8465 9.13341 18.9469 9.20571 19.019C9.27801 19.0915 9.37825 19.1331 9.48062 19.1331C9.58284 19.1331 9.68323 19.0915 9.75583 19.019C9.82813 18.9469 9.86944 18.8465 9.86944 18.7443C9.86944 18.6419 9.82813 18.5417 9.75583 18.4694C9.68323 18.3969 9.58284 18.3555 9.48062 18.3555Z" fill="#808080"/>
<path d="M7.88387 18.3555H4.58755C4.37294 18.3555 4.19873 18.5295 4.19873 18.7443C4.19873 18.9589 4.37294 19.1331 4.58755 19.1331H7.88387C8.09848 19.1331 8.27269 18.9589 8.27269 18.7443C8.27269 18.5295 8.09863 18.3555 7.88387 18.3555Z" fill="#808080"/>
<path d="M4.58706 8.34991C4.68974 8.34991 4.78968 8.30829 4.86197 8.236C4.93472 8.16324 4.97588 8.06346 4.97588 7.96109C4.97588 7.85887 4.93472 7.75863 4.86197 7.68587C4.78968 7.61358 4.68928 7.57227 4.58706 7.57227C4.48485 7.57227 4.38491 7.61358 4.31215 7.68587C4.23986 7.75817 4.19824 7.85841 4.19824 7.96109C4.19824 8.06346 4.23986 8.1637 4.31215 8.236C4.3846 8.30829 4.48485 8.34991 4.58706 8.34991Z" fill="#808080"/>
<path d="M12.0469 7.57227H6.2355C6.02089 7.57227 5.84668 7.74632 5.84668 7.96109C5.84668 8.1757 6.02089 8.34991 6.2355 8.34991H12.0469C12.2616 8.34991 12.4357 8.1757 12.4357 7.96109C12.4357 7.74632 12.2616 7.57227 12.0469 7.57227Z" fill="#808080"/>
<path d="M4.58755 5.6546H12.047C12.2618 5.6546 12.4358 5.48054 12.4358 5.26577C12.4358 5.05101 12.2618 4.87695 12.047 4.87695H4.58755C4.37294 4.87695 4.19873 5.05101 4.19873 5.26577C4.19873 5.48054 4.37294 5.6546 4.58755 5.6546Z" fill="#808080"/>
</svg>
