<svg width="24" height="24" viewBox="0 0 24 24" fill="none" xmlns="http://www.w3.org/2000/svg">
<g clip-path="url(#clip0_2143_1620)">
<path fill-rule="evenodd" clip-rule="evenodd" d="M10.5 10.5H2.25C1.422 10.5 0.75 11.172 0.75 12C0.75 12.828 1.422 13.5 2.25 13.5H10.5V21.75C10.5 22.578 11.172 23.25 12 23.25C12.828 23.25 13.5 22.578 13.5 21.75V13.5H21.75C22.578 13.5 23.25 12.828 23.25 12C23.25 11.172 22.578 10.5 21.75 10.5H13.5V2.25C13.5 1.422 12.828 0.75 12 0.75C11.172 0.75 10.5 1.422 10.5 2.25V10.5Z" fill="white"/>
</g>
<defs>
<clipPath id="clip0_2143_1620">
<rect width="24" height="24" fill="white"/>
</clipPath>
</defs>
</svg>
