<svg width="43" height="43" viewBox="0 0 43 43" fill="none" xmlns="http://www.w3.org/2000/svg">
<path d="M20.7072 39.5866C13.1016 33.1904 13.1822 23.0451 13.5719 18.9735C13.6794 17.8851 14.1094 16.9176 14.7544 16.1113H8.0625C6.28875 16.1113 6.28875 13.4238 8.0625 13.4238H14.7812C15.5203 13.4238 16.125 14.0285 16.125 14.7676C16.125 14.8213 16.0981 14.8751 16.0981 14.9288C16.7297 14.5391 17.4284 14.257 18.1944 14.1495C21.8897 13.6254 24.1875 12.3623 25.2222 11.6635C26.1091 11.0588 27.1437 10.7363 28.2188 10.7363V6.70508C28.2188 4.47445 26.4181 2.67383 24.1875 2.67383H6.71875C4.48813 2.67383 2.6875 4.47445 2.6875 6.70508V36.281C2.6875 38.5116 4.48813 40.3123 6.71875 40.3123H21.6881C21.3656 40.0704 21.0163 39.8554 20.7072 39.5866ZM8.0625 6.71852H21.5C23.2738 6.71852 23.2738 9.40602 21.5 9.40602H8.0625C6.28875 9.40602 6.28875 6.71852 8.0625 6.71852ZM8.0625 20.156H12.0938C13.8675 20.156 13.8675 22.8435 12.0938 22.8435H8.0625C6.28875 22.8435 6.28875 20.156 8.0625 20.156ZM8.0625 26.8748H12.0938C13.8675 26.8748 13.8675 29.5623 12.0938 29.5623H8.0625C6.28875 29.5623 6.28875 26.8748 8.0625 26.8748ZM13.4375 36.281H8.0625C6.28875 36.281 6.28875 33.5935 8.0625 33.5935H13.4375C15.2113 33.5935 15.2113 36.281 13.4375 36.281Z" fill="url(#paint0_linear_78_2364)"/>
<path d="M40.1918 19.2426C40.0709 17.9929 39.1168 16.9986 37.8672 16.8239C33.6209 16.2192 30.9334 14.7411 29.7106 13.9079C28.7968 13.2898 27.6278 13.2898 26.7275 13.9079C25.4912 14.7411 22.8037 16.2192 18.5709 16.8239C17.3212 16.9986 16.3672 17.9929 16.2462 19.2426C15.44 27.762 18.2215 36.1739 26.0287 39.8289C27.4262 40.4873 29.0118 40.4873 30.4093 39.8289C38.2165 36.147 40.9847 27.7351 40.1918 19.2426ZM33.2043 25.1417L27.8293 30.5167C27.3053 31.0407 26.4587 31.0407 25.9347 30.5167L23.2472 27.8292C21.984 26.5661 23.8922 24.6714 25.1418 25.9345L26.8753 27.6679L31.2962 23.247C32.5593 21.9839 34.454 23.892 33.1909 25.1417H33.2043Z" fill="url(#paint1_linear_78_2364)"/>
<defs>
<linearGradient id="paint0_linear_78_2364" x1="2.37041" y1="21.4897" x2="29.5135" y2="21.4897" gradientUnits="userSpaceOnUse">
<stop stop-color="#27AE60"/>
<stop offset="1" stop-color="#0052CC"/>
</linearGradient>
<linearGradient id="paint1_linear_78_2364" x1="15.8116" y1="26.8811" x2="41.55" y2="26.8811" gradientUnits="userSpaceOnUse">
<stop stop-color="#27AE60"/>
<stop offset="1" stop-color="#0052CC"/>
</linearGradient>
</defs>
</svg>
