<svg width="24" height="24" viewBox="0 0 24 24" fill="none" xmlns="http://www.w3.org/2000/svg">
<path d="M18.5926 16.7167L17.6251 17.6917L17.4076 17.4667C17.2664 17.3254 17.0749 17.2461 16.8751 17.2461C16.6754 17.2461 16.4839 17.3254 16.3426 17.4667C16.2014 17.6079 16.1221 17.7994 16.1221 17.9992C16.1221 18.1989 16.2014 18.3904 16.3426 18.5317L17.0926 19.2817C17.1624 19.352 17.2453 19.4078 17.3367 19.4458C17.4281 19.4839 17.5261 19.5035 17.6251 19.5035C17.7241 19.5035 17.8222 19.4839 17.9136 19.4458C18.005 19.4078 18.0879 19.352 18.1576 19.2817L19.6576 17.7817C19.7989 17.6404 19.8782 17.4489 19.8782 17.2492C19.8782 17.0494 19.7989 16.8579 19.6576 16.7167C19.5164 16.5754 19.3249 16.4961 19.1251 16.4961C18.9254 16.4961 18.7339 16.5754 18.5926 16.7167Z" fill="#27AE60"/>
<path d="M18 13.5C17.11 13.5 16.24 13.7639 15.4999 14.2584C14.7599 14.7529 14.1831 15.4557 13.8425 16.2779C13.5019 17.1002 13.4128 18.005 13.5865 18.8779C13.7601 19.7508 14.1887 20.5526 14.818 21.182C15.4474 21.8113 16.2492 22.2399 17.1221 22.4135C17.995 22.5872 18.8998 22.4981 19.7221 22.1575C20.5443 21.8169 21.2471 21.2401 21.7416 20.5001C22.2361 19.76 22.5 18.89 22.5 18C22.5 16.8065 22.0259 15.6619 21.182 14.818C20.3381 13.9741 19.1935 13.5 18 13.5ZM18 21C17.4067 21 16.8266 20.8241 16.3333 20.4944C15.8399 20.1648 15.4554 19.6962 15.2284 19.148C15.0013 18.5999 14.9419 17.9967 15.0576 17.4147C15.1734 16.8328 15.4591 16.2982 15.8787 15.8787C16.2982 15.4591 16.8328 15.1734 17.4147 15.0576C17.9967 14.9419 18.5999 15.0013 19.1481 15.2284C19.6962 15.4554 20.1648 15.8399 20.4944 16.3333C20.8241 16.8266 21 17.4067 21 18C21 18.7956 20.6839 19.5587 20.1213 20.1213C19.5587 20.6839 18.7957 21 18 21Z" fill="#27AE60"/>
<path d="M14.19 13.3723C14.2659 13.3093 14.3287 13.232 14.3747 13.1447C14.4207 13.0574 14.4491 12.962 14.4582 12.8637C14.4672 12.7655 14.4568 12.6664 14.4275 12.5722C14.3982 12.478 14.3507 12.3905 14.2875 12.3148C13.9715 11.9439 13.5699 11.6556 13.1175 11.4748C13.6014 10.8817 13.8663 10.1401 13.8675 9.37475C13.8709 8.83394 13.7443 8.30022 13.4983 7.81856C13.2524 7.33691 12.8942 6.92141 12.4541 6.60708C12.014 6.29275 11.5048 6.08879 10.9694 6.01237C10.434 5.93596 9.8881 5.98933 9.37763 6.16799C8.86717 6.34666 8.40712 6.64538 8.03623 7.03899C7.66533 7.43261 7.39447 7.9096 7.24644 8.42977C7.09842 8.94995 7.07757 9.49808 7.18565 10.028C7.29373 10.5579 7.52758 11.0541 7.8675 11.4748C7.31588 11.6996 6.8437 12.0836 6.51112 12.5778C6.17853 13.072 6.0006 13.6541 6 14.2498V14.9998C6 15.1987 6.07902 15.3894 6.21967 15.5301C6.36032 15.6707 6.55109 15.7498 6.75 15.7498C6.94891 15.7498 7.13968 15.6707 7.28033 15.5301C7.42098 15.3894 7.5 15.1987 7.5 14.9998V14.2498C7.5 13.8519 7.65804 13.4704 7.93934 13.1891C8.22064 12.9078 8.60218 12.7498 9 12.7498H12C12.2159 12.7478 12.4295 12.7938 12.6254 12.8846C12.8213 12.9754 12.9945 13.1087 13.1325 13.2748C13.1955 13.3507 13.2728 13.4135 13.36 13.4595C13.4473 13.5055 13.5428 13.5338 13.641 13.5429C13.7393 13.552 13.8383 13.5416 13.9325 13.5123C14.0267 13.483 14.1142 13.4354 14.19 13.3723ZM10.5 7.49975C10.8708 7.49975 11.2334 7.60972 11.5417 7.81575C11.85 8.02178 12.0904 8.31461 12.2323 8.65722C12.3742 8.99983 12.4113 9.37683 12.339 9.74055C12.2666 10.1043 12.088 10.4384 11.8258 10.7006C11.5636 10.9628 11.2295 11.1414 10.8658 11.2137C10.5021 11.2861 10.1251 11.2489 9.78247 11.107C9.43986 10.9651 9.14702 10.7248 8.94099 10.4164C8.73497 10.1081 8.625 9.74559 8.625 9.37475C8.625 8.87747 8.82254 8.40056 9.17417 8.04893C9.52581 7.6973 10.0027 7.49975 10.5 7.49975Z" fill="#27AE60"/>
<path d="M11.7525 20.5047C11.3467 20.6978 10.9282 20.8632 10.5 20.9997C8.33509 20.3542 6.43607 19.0278 5.08495 17.2173C3.73382 15.4068 3.00265 13.2088 3 10.9497V5.77468L10.5 3.04468L18 5.77468V10.9497C18.0037 11.0021 18.0037 11.0547 18 11.1072V11.2497C18 11.4486 18.079 11.6394 18.2197 11.78C18.3603 11.9207 18.5511 11.9997 18.75 11.9997C18.9489 11.9997 19.1397 11.9207 19.2803 11.78C19.421 11.6394 19.5 11.4486 19.5 11.2497V11.1297C19.5 11.0472 19.5 10.9647 19.5 10.8822V5.24968C19.4999 5.09555 19.4524 4.94517 19.3638 4.81903C19.2752 4.69288 19.15 4.59709 19.005 4.54468L10.755 1.54468C10.5902 1.48511 10.4098 1.48511 10.245 1.54468L1.995 4.54468C1.85005 4.59709 1.72476 4.69288 1.63619 4.81903C1.54762 4.94517 1.50007 5.09555 1.5 5.24968V10.9497C1.50368 13.5726 2.36663 16.1221 3.9568 18.208C5.54697 20.2939 7.77677 21.8013 10.305 22.4997C10.4319 22.5399 10.5681 22.5399 10.695 22.4997C11.2631 22.3489 11.8176 22.1507 12.3525 21.9072C12.4478 21.8714 12.5348 21.8165 12.6083 21.746C12.6817 21.6755 12.74 21.5907 12.7796 21.4969C12.8192 21.4031 12.8393 21.3022 12.8387 21.2004C12.838 21.0986 12.8167 20.998 12.7759 20.9047C12.7351 20.8114 12.6758 20.7274 12.6015 20.6578C12.5272 20.5882 12.4395 20.5344 12.3437 20.4998C12.248 20.4652 12.1462 20.4504 12.0445 20.4564C11.9429 20.4624 11.8435 20.489 11.7525 20.5347V20.5047Z" fill="#27AE60"/>
</svg>
