<svg width="24" height="24" viewBox="0 0 24 24" fill="none" xmlns="http://www.w3.org/2000/svg">
<path d="M19.3125 4.96875C21.2531 4.96875 22.8281 6.54375 22.8281 8.48438V15.5156C22.8281 17.4563 21.2531 19.0312 19.3125 19.0312H4.6875C2.74687 19.0312 1.17188 17.4563 1.17188 15.5156V8.48438C1.17188 6.54375 2.74687 4.96875 4.6875 4.96875H19.3125ZM19.3125 3.79688H4.6875C2.1 3.79688 0 5.89687 0 8.48438V15.5156C0 18.1031 2.1 20.2031 4.6875 20.2031H19.3125C21.9 20.2031 24 18.1031 24 15.5156V8.48438C24 5.89687 21.9 3.79688 19.3125 3.79688Z" fill="#808080"/>
<path d="M7.42051 9.8293V11.2121H9.8627C10.1018 11.2121 10.2893 11.273 10.4158 11.3996C10.5424 11.5215 10.608 11.7043 10.608 11.948C10.608 12.1918 10.5424 12.3699 10.4158 12.4965C10.2893 12.6184 10.1064 12.684 9.8627 12.684H7.42051V14.1793H10.0924C10.3408 14.1793 10.5236 14.2449 10.6502 14.3715C10.7721 14.498 10.8377 14.6809 10.8377 14.9152C10.8377 15.1496 10.7768 15.3371 10.6502 15.4637C10.5236 15.5902 10.3408 15.6512 10.0924 15.6512H6.59551C6.27207 15.6512 6.02832 15.5668 5.85957 15.398C5.69082 15.2293 5.60645 14.9855 5.60645 14.6715V9.34648C5.60645 9.03242 5.69082 8.78867 5.85957 8.61992C6.02832 8.45117 6.27207 8.3668 6.59551 8.3668H10.0924C10.3408 8.3668 10.5236 8.42773 10.6502 8.5543C10.7768 8.68086 10.8377 8.85898 10.8377 9.08867C10.8377 9.31836 10.7768 9.51523 10.6502 9.6418C10.5283 9.76836 10.3408 9.83398 10.0924 9.83398L7.42051 9.8293ZM18.2018 11.7324C18.0752 11.6059 17.8924 11.5402 17.6486 11.5402H16.1252C15.8908 11.5402 15.7127 11.5965 15.5861 11.709C15.4596 11.8215 15.3939 11.9855 15.3939 12.1965C15.3939 12.4074 15.4596 12.5762 15.5861 12.6934C15.7127 12.8105 15.8955 12.8668 16.1252 12.8668H16.8471V14.0152C16.7158 14.048 16.5893 14.0715 16.4627 14.0949C16.2189 14.1371 15.9939 14.1559 15.7877 14.1559C15.1127 14.1559 14.6064 13.9777 14.2596 13.6215C13.9174 13.2652 13.7439 12.7355 13.7439 12.0324C13.7439 11.5637 13.8189 11.1699 13.9689 10.8465C14.1189 10.523 14.3486 10.2793 14.6533 10.1152C14.958 9.95117 15.3424 9.8668 15.8018 9.8668C16.0689 9.8668 16.3221 9.89492 16.5658 9.9418C16.8049 9.99336 17.0299 10.0684 17.2361 10.1621C17.433 10.2512 17.6158 10.2746 17.7705 10.2277C17.9299 10.1855 18.0518 10.0918 18.1455 9.96055C18.2393 9.8293 18.2955 9.6793 18.3189 9.51523C18.3424 9.35586 18.3236 9.20117 18.258 9.05117C18.1924 8.90117 18.0705 8.78867 17.8924 8.7043C17.5502 8.52617 17.1986 8.4043 16.8424 8.33867C16.4861 8.27305 16.1346 8.24023 15.7924 8.24023C15.1596 8.24023 14.5924 8.3293 14.0955 8.50273C13.5986 8.67617 13.1768 8.93398 12.8299 9.2668C12.4877 9.59961 12.2205 9.99805 12.0424 10.4621C11.8596 10.9262 11.7705 11.4465 11.7705 12.023C11.7705 12.7637 11.9205 13.4152 12.2252 13.973C12.5299 14.5309 12.9705 14.9621 13.5518 15.2715C14.133 15.5809 14.8408 15.7355 15.6705 15.7355C16.0502 15.7355 16.4252 15.7027 16.8049 15.6418C17.1846 15.5809 17.5314 15.4918 17.8549 15.384C18.0424 15.323 18.1783 15.2199 18.2627 15.0746C18.3471 14.9293 18.3939 14.7559 18.3939 14.5496V12.2809C18.3939 12.0418 18.3283 11.859 18.2018 11.7324Z" fill="#808080"/>
</svg>
