<svg width="24" height="24" viewBox="0 0 24 24" fill="none" xmlns="http://www.w3.org/2000/svg">
<g clip-path="url(#clip0_2262_1360)">
<path d="M2.5 11C2.77614 11 3 10.7761 3 10.5C3 10.2239 2.77614 10 2.5 10C2.22386 10 2 10.2239 2 10.5C2 10.7761 2.22386 11 2.5 11Z" fill="#808080"/>
<path d="M4.5 11C4.77614 11 5 10.7761 5 10.5C5 10.2239 4.77614 10 4.5 10C4.22386 10 4 10.2239 4 10.5C4 10.7761 4.22386 11 4.5 11Z" fill="#808080"/>
<path d="M6.5 11C6.77614 11 7 10.7761 7 10.5C7 10.2239 6.77614 10 6.5 10C6.22386 10 6 10.2239 6 10.5C6 10.7761 6.22386 11 6.5 11Z" fill="#808080"/>
<path d="M21.5 0H9.5C8.121 0 7 1.122 7 2.5V4H5.5C4.121 4 3 5.122 3 6.5V8H2.5C1.121 8 0 9.122 0 10.5V21.5C0 22.878 1.121 24 2.5 24H14.5C15.879 24 17 22.878 17 21.5V20H17.5C18.879 20 20 18.878 20 17.5V16H21.5C22.879 16 24 14.878 24 13.5V2.5C24 1.122 22.879 0 21.5 0ZM9.5 1H21.5C22.327 1 23 1.673 23 2.5V4H17.5H8V2.5C8 1.673 8.673 1 9.5 1ZM5.5 5H7.5H17.5C18.327 5 19 5.673 19 6.5V8H14.5H4V6.5C4 5.673 4.673 5 5.5 5ZM2.5 9H3.5H14.5C15.327 9 16 9.673 16 10.5V12H1V10.5C1 9.673 1.673 9 2.5 9ZM16 21.5C16 22.327 15.327 23 14.5 23H2.5C1.673 23 1 22.327 1 21.5V13H16V21.5ZM19 17.5C19 18.327 18.327 19 17.5 19H17V10.5C17 9.935 16.805 9.419 16.487 9H19V17.5ZM21.5 15H20V6.5C20 5.935 19.805 5.419 19.487 5H23V13.5C23 14.327 22.327 15 21.5 15Z" fill="#808080"/>
<path d="M9.5 3C9.77614 3 10 2.77614 10 2.5C10 2.22386 9.77614 2 9.5 2C9.22386 2 9 2.22386 9 2.5C9 2.77614 9.22386 3 9.5 3Z" fill="#808080"/>
<path d="M11.5 3C11.7761 3 12 2.77614 12 2.5C12 2.22386 11.7761 2 11.5 2C11.2239 2 11 2.22386 11 2.5C11 2.77614 11.2239 3 11.5 3Z" fill="#808080"/>
<path d="M13.5 3C13.7761 3 14 2.77614 14 2.5C14 2.22386 13.7761 2 13.5 2C13.2239 2 13 2.22386 13 2.5C13 2.77614 13.2239 3 13.5 3Z" fill="#808080"/>
<path d="M5.5 7C5.77614 7 6 6.77614 6 6.5C6 6.22386 5.77614 6 5.5 6C5.22386 6 5 6.22386 5 6.5C5 6.77614 5.22386 7 5.5 7Z" fill="#808080"/>
<path d="M7.5 7C7.77614 7 8 6.77614 8 6.5C8 6.22386 7.77614 6 7.5 6C7.22386 6 7 6.22386 7 6.5C7 6.77614 7.22386 7 7.5 7Z" fill="#808080"/>
<path d="M9.5 7C9.77614 7 10 6.77614 10 6.5C10 6.22386 9.77614 6 9.5 6C9.22386 6 9 6.22386 9 6.5C9 6.77614 9.22386 7 9.5 7Z" fill="#808080"/>
</g>
<defs>
<clipPath id="clip0_2262_1360">
<rect width="24" height="24" fill="white"/>
</clipPath>
</defs>
</svg>
