<svg width="20" height="20" viewBox="0 0 20 20" fill="none" xmlns="http://www.w3.org/2000/svg">
<path d="M8.75 1.25C6.68631 1.25 5 2.93633 5 5C5 7.06366 6.68631 8.75 8.75 8.75C10.8137 8.75 12.5 7.06366 12.5 5C12.5 2.93633 10.8137 1.25 8.75 1.25ZM8.75 2.5C10.1381 2.5 11.25 3.61188 11.25 5C11.25 6.38811 10.1381 7.5 8.75 7.5C7.36188 7.5 6.25 6.38811 6.25 5C6.25 3.61188 7.36188 2.5 8.75 2.5Z" fill="#7648BC"/>
<path d="M6.875 10.0001C3.76956 10.0001 1.25 12.5196 1.25 15.6251V16.8751C1.25002 17.0408 1.31587 17.1998 1.43308 17.317C1.55028 17.4342 1.70924 17.5 1.875 17.5001H8.65481C8.73763 17.5012 8.81986 17.4859 8.89671 17.455C8.97357 17.4242 9.04352 17.3783 9.1025 17.3202C9.16148 17.262 9.20831 17.1927 9.24028 17.1163C9.27225 17.0399 9.28871 16.9579 9.28871 16.8751C9.28871 16.7922 9.27225 16.7102 9.24028 16.6338C9.20831 16.5574 9.16148 16.4881 9.1025 16.43C9.04352 16.3718 8.97357 16.326 8.89671 16.2951C8.81986 16.2642 8.73763 16.2489 8.65481 16.2501H2.5V15.6251C2.5 13.1905 4.44044 11.2501 6.875 11.2501H9.38475C9.46757 11.2512 9.5498 11.2359 9.62665 11.205C9.7035 11.1742 9.77345 11.1283 9.83243 11.0702C9.89142 11.012 9.93825 10.9427 9.97022 10.8663C10.0022 10.7899 10.0186 10.7079 10.0186 10.6251C10.0186 10.5422 10.0022 10.4602 9.97022 10.3838C9.93825 10.3074 9.89142 10.2381 9.83243 10.18C9.77345 10.1218 9.7035 10.076 9.62665 10.0451C9.5498 10.0142 9.46757 9.99889 9.38475 10.0001H6.875Z" fill="#7648BC"/>
<path d="M14.3668 10C14.0182 10.0056 13.7431 10.2889 13.7479 10.6335V11.3134C13.3501 11.3954 12.9795 11.5553 12.6517 11.7736L12.172 11.2939C12.0246 11.1424 11.8575 11.0853 11.6996 11.0937C11.2261 11.119 10.8336 11.7358 11.2881 12.1777L11.7703 12.6598C11.5531 12.988 11.3934 13.3581 11.3126 13.756H10.6339C9.7887 13.744 9.7887 15.0179 10.6339 15.0059H11.315C11.3968 15.4 11.5558 15.7669 11.7716 16.0923L11.2857 16.5781C10.6796 17.1673 11.5803 18.0679 12.1695 17.4619L12.6541 16.9773C12.9814 17.1948 13.351 17.3545 13.7479 17.4362V18.1161C13.736 18.9613 15.0098 18.9613 14.9978 18.1161V17.4375C15.3944 17.3564 15.7632 17.1963 16.0903 16.9797L16.5786 17.468C16.8243 17.7206 17.2309 17.7206 17.4734 17.4705C17.7158 17.2201 17.7098 16.8247 17.4621 16.5843L16.9763 16.0985C17.194 15.7717 17.3531 15.4023 17.4353 15.006H18.1164C18.4687 15.011 18.7554 14.7234 18.75 14.3749C18.7437 14.0264 18.4611 13.7513 18.1164 13.756H17.4377C17.3565 13.356 17.1966 12.9833 16.9776 12.6538L17.4596 12.1716C17.7123 11.926 17.7124 11.5195 17.4596 11.2769C17.3351 11.1563 17.1748 11.0971 17.0154 11.0987C16.856 11.1018 16.6979 11.165 16.5783 11.2879L16.0949 11.7712C15.7672 11.5539 15.3975 11.3935 15 11.3123V10.6336C15.0062 10.2813 14.7173 9.99463 14.3689 10.0001L14.3668 10ZM14.3755 12.4999C15.4185 12.4999 16.2505 13.3319 16.2505 14.3748C16.2505 15.4177 15.4185 16.2498 14.3755 16.2498C13.3325 16.2498 12.5005 15.4177 12.5005 14.3748C12.5005 13.3319 13.3325 12.4999 14.3755 12.4999Z" fill="#7648BC"/>
</svg>
