<svg width="32" height="32" viewBox="0 0 32 32" fill="none" xmlns="http://www.w3.org/2000/svg">
<path d="M27.5625 3.4375H2.5625C1.14956 3.4375 0 4.58706 0 6V21C0 22.413 1.14956 23.5625 2.5625 23.5625H20.7839C21.1636 23.5625 21.4714 23.2547 21.4714 22.875C21.4714 22.4953 21.1636 22.1875 20.7839 22.1875H2.5625C1.90769 22.1875 1.375 21.6548 1.375 21V12.1562H28.75V17.6472C28.75 18.0269 29.0578 18.3347 29.4375 18.3347C29.8172 18.3347 30.125 18.0269 30.125 17.6472V6C30.125 4.58706 28.9754 3.4375 27.5625 3.4375ZM2.5625 4.8125H27.5625C28.2173 4.8125 28.75 5.34519 28.75 6V7.34375H1.375V6C1.375 5.34519 1.90769 4.8125 2.5625 4.8125ZM1.375 10.7812V8.71875H28.75V10.7812H1.375Z" fill="#0052CC"/>
<path d="M31.4363 18.0523C29.6538 17.7261 28.7392 16.4735 28.2857 15.4801C28.1739 15.2353 27.9295 15.0781 27.6602 15.0781H24.3399C24.0707 15.0781 23.8263 15.2353 23.7144 15.4801C23.2609 16.4736 22.3461 17.7262 20.5638 18.0523C20.2372 18.1121 20 18.3966 20 18.7286C20 22.8149 20.6919 27.176 25.8235 28.5394C25.8813 28.5548 25.9407 28.5625 26.0001 28.5625C26.0594 28.5625 26.1188 28.5548 26.1766 28.5394C31.3081 27.1761 32.0001 22.8149 32.0001 18.7286C32.0001 18.3966 31.7629 18.1121 31.4363 18.0523ZM26.0001 27.1617C22.3321 26.1063 21.4488 23.2492 21.3796 19.2707C22.8262 18.8491 24.0049 17.8696 24.766 16.4532H27.2342C27.9952 17.8696 29.1739 18.8491 30.6205 19.2707C30.5514 23.2492 29.6681 26.1063 26.0001 27.1617Z" fill="#0052CC"/>
<path d="M27.3889 20.0842L25.3751 22.0981L24.6112 21.3342C24.3426 21.0657 23.9073 21.0658 23.6389 21.3342C23.3704 21.6026 23.3704 22.0379 23.6389 22.3064L24.8889 23.5564C25.0231 23.6907 25.1991 23.7578 25.375 23.7578C25.5509 23.7578 25.7269 23.6907 25.8611 23.5564L28.3611 21.0564C28.6296 20.7879 28.6296 20.3526 28.3611 20.0841C28.0926 19.8157 27.6574 19.8157 27.3889 20.0842Z" fill="#0052CC"/>
<path d="M9.51562 15.0781H4.51562C4.13594 15.0781 3.82812 15.3859 3.82812 15.7656C3.82812 16.1453 4.13594 16.4531 4.51562 16.4531H9.51562C9.89531 16.4531 10.2031 16.1453 10.2031 15.7656C10.2031 15.3859 9.89538 15.0781 9.51562 15.0781Z" fill="#0052CC"/>
<path d="M7.01562 17.8906H4.51562C4.13594 17.8906 3.82812 18.1984 3.82812 18.5781C3.82812 18.9578 4.13594 19.2656 4.51562 19.2656H7.01562C7.39531 19.2656 7.70312 18.9578 7.70312 18.5781C7.70312 18.1984 7.39538 17.8906 7.01562 17.8906Z" fill="#0052CC"/>
</svg>
