<svg width="32" height="32" viewBox="0 0 32 32" fill="none" xmlns="http://www.w3.org/2000/svg">
<g clip-path="url(#clip0_2674_1062)">
<path d="M29.4099 8.23942C29.3935 7.37546 29.3778 6.55929 29.3778 5.76971C29.3778 5.15113 28.8764 4.64963 28.2577 4.64963C23.4675 4.64963 19.8203 3.27297 16.7803 0.317151C16.3454 -0.105792 15.6533 -0.105642 15.2186 0.317151C12.1788 3.27297 8.5323 4.64963 3.74238 4.64963C3.1238 4.64963 2.6223 5.15113 2.6223 5.76971C2.6223 6.55944 2.60677 7.37591 2.59019 8.24002C2.43666 16.2801 2.22639 27.2914 15.6326 31.9383C15.7515 31.9795 15.8754 32.0001 15.9994 32.0001C16.1233 32.0001 16.2474 31.9795 16.3662 31.9383C29.7734 27.2913 29.5634 16.2797 29.4099 8.23942ZM15.9995 29.6914C4.50194 25.5147 4.67578 16.3651 4.83005 8.28273C4.83931 7.79766 4.84827 7.32752 4.85455 6.86664C9.34085 6.67728 12.9284 5.31779 15.9995 2.64244C19.0709 5.31779 22.6591 6.67743 27.1457 6.86664C27.1519 7.32737 27.1609 7.79721 27.1702 8.28198C27.3243 16.3646 27.498 25.5145 15.9995 29.6914Z" fill="#27AE60"/>
<path d="M19.8565 12.109L14.4504 17.5148L12.1435 15.2079C11.706 14.7706 10.9968 14.7706 10.5595 15.2079C10.1221 15.6455 10.1221 16.3546 10.5595 16.792L13.6584 19.8909C13.8771 20.1095 14.1638 20.2188 14.4504 20.2188C14.737 20.2188 15.0237 20.1095 15.2424 19.8909L21.4403 13.6931C21.8779 13.2557 21.8779 12.5464 21.4404 12.1092C21.0032 11.6717 20.2939 11.6716 19.8565 12.109Z" fill="#27AE60"/>
</g>
<defs>
<clipPath id="clip0_2674_1062">
<rect width="32" height="32" fill="white"/>
</clipPath>
</defs>
</svg>
