<svg width="19" height="19" viewBox="0 0 19 19" fill="none" xmlns="http://www.w3.org/2000/svg">
<path d="M6.33268 11.4798C6.76991 11.4798 7.12435 11.1254 7.12435 10.6882C7.12435 10.2509 6.76991 9.89648 6.33268 9.89648C5.89546 9.89648 5.54102 10.2509 5.54102 10.6882C5.54102 11.1254 5.89546 11.4798 6.33268 11.4798Z" fill="#808080"/>
<path d="M6.33268 14.6458C6.76991 14.6458 7.12435 14.2914 7.12435 13.8542C7.12435 13.4169 6.76991 13.0625 6.33268 13.0625C5.89546 13.0625 5.54102 13.4169 5.54102 13.8542C5.54102 14.2914 5.89546 14.6458 6.33268 14.6458Z" fill="#808080"/>
<path d="M9.49967 11.4798C9.9369 11.4798 10.2913 11.1254 10.2913 10.6882C10.2913 10.2509 9.9369 9.89648 9.49967 9.89648C9.06245 9.89648 8.70801 10.2509 8.70801 10.6882C8.70801 11.1254 9.06245 11.4798 9.49967 11.4798Z" fill="#808080"/>
<path d="M9.49967 14.6458C9.9369 14.6458 10.2913 14.2914 10.2913 13.8542C10.2913 13.4169 9.9369 13.0625 9.49967 13.0625C9.06245 13.0625 8.70801 13.4169 8.70801 13.8542C8.70801 14.2914 9.06245 14.6458 9.49967 14.6458Z" fill="#808080"/>
<path d="M12.6667 11.4798C13.1039 11.4798 13.4583 11.1254 13.4583 10.6882C13.4583 10.2509 13.1039 9.89648 12.6667 9.89648C12.2294 9.89648 11.875 10.2509 11.875 10.6882C11.875 11.1254 12.2294 11.4798 12.6667 11.4798Z" fill="#808080"/>
<path d="M12.6667 14.6458C13.1039 14.6458 13.4583 14.2914 13.4583 13.8542C13.4583 13.4169 13.1039 13.0625 12.6667 13.0625C12.2294 13.0625 11.875 13.4169 11.875 13.8542C11.875 14.2914 12.2294 14.6458 12.6667 14.6458Z" fill="#808080"/>
<path fill-rule="evenodd" clip-rule="evenodd" d="M18.0101 5.14648V15.4382C18.0101 16.2259 17.6974 16.9803 17.1408 17.5377C16.5835 18.0942 15.8291 18.4069 15.0413 18.4069H3.95801C3.1703 18.4069 2.41584 18.0942 1.85851 17.5377C1.30197 16.9803 0.989258 16.2259 0.989258 15.4382V5.14648C0.989258 4.35878 1.30197 3.60432 1.85851 3.04698C2.41584 2.49044 3.1703 2.17773 3.95801 2.17773H15.0413C15.8291 2.17773 16.5835 2.49044 17.1408 3.04698C17.6974 3.60432 18.0101 4.35878 18.0101 5.14648ZM16.8226 5.14648C16.8226 4.67386 16.635 4.22103 16.3009 3.88694C15.9668 3.55286 15.514 3.36523 15.0413 3.36523H3.95801C3.48538 3.36523 3.03255 3.55286 2.69847 3.88694C2.36438 4.22103 2.17676 4.67386 2.17676 5.14648V15.4382C2.17676 15.9108 2.36438 16.3636 2.69847 16.6977C3.03255 17.0318 3.48538 17.2194 3.95801 17.2194H15.0413C15.514 17.2194 15.9668 17.0318 16.3009 16.6977C16.635 16.3636 16.8226 15.9108 16.8226 15.4382V5.14648Z" fill="#808080"/>
<path fill-rule="evenodd" clip-rule="evenodd" d="M17.4163 6.53125C17.7441 6.53125 18.0101 6.79725 18.0101 7.125C18.0101 7.45275 17.7441 7.71875 17.4163 7.71875H1.58301C1.25526 7.71875 0.989258 7.45275 0.989258 7.125C0.989258 6.79725 1.25526 6.53125 1.58301 6.53125H17.4163Z" fill="#808080"/>
<path fill-rule="evenodd" clip-rule="evenodd" d="M12.0723 1.1875C12.0723 0.85975 12.3383 0.59375 12.666 0.59375C12.9938 0.59375 13.2598 0.85975 13.2598 1.1875V4.35417C13.2598 4.68192 12.9938 4.94792 12.666 4.94792C12.3383 4.94792 12.0723 4.68192 12.0723 4.35417V1.1875Z" fill="#808080"/>
<path fill-rule="evenodd" clip-rule="evenodd" d="M5.73926 1.1875C5.73926 0.85975 6.00526 0.59375 6.33301 0.59375C6.66076 0.59375 6.92676 0.85975 6.92676 1.1875V4.35417C6.92676 4.68192 6.66076 4.94792 6.33301 4.94792C6.00526 4.94792 5.73926 4.68192 5.73926 4.35417V1.1875Z" fill="#808080"/>
</svg>
