<svg width="28" height="28" viewBox="0 0 28 28" fill="none" xmlns="http://www.w3.org/2000/svg">
<g clip-path="url(#clip0_2143_1241)">
<path d="M25.7338 7.20949C25.7194 6.45353 25.7057 5.73938 25.7057 5.0485C25.7057 4.50724 25.267 4.06843 24.7256 4.06843C20.5342 4.06843 17.3429 2.86385 14.6829 0.277507C14.3023 -0.0925678 13.6968 -0.0924371 13.3164 0.277507C10.6566 2.86385 7.46588 4.06843 3.2747 4.06843C2.73344 4.06843 2.29463 4.50724 2.29463 5.0485C2.29463 5.73951 2.28104 6.45392 2.26654 7.21001C2.1322 14.2451 1.94821 23.88 13.6786 27.946C13.7826 27.982 13.8911 28.0001 13.9996 28.0001C14.108 28.0001 14.2166 27.982 14.3205 27.946C26.0518 23.8799 25.8681 14.2447 25.7338 7.20949ZM13.9997 25.98C3.93932 22.3253 4.09143 14.3195 4.22642 7.24739C4.23452 6.82295 4.24236 6.41158 4.24785 6.00831C8.17337 5.84262 11.3125 4.65307 13.9997 2.31214C16.6872 4.65307 19.8268 5.84275 23.7526 6.00831C23.7581 6.41145 23.7659 6.82256 23.774 7.24673C23.9089 14.3191 24.0609 22.3252 13.9997 25.98Z" fill="#27AE60"/>
<path d="M17.375 10.5956L12.6447 15.3257L10.6261 13.3071C10.2434 12.9245 9.62281 12.9245 9.24019 13.3071C8.85744 13.69 8.85744 14.3105 9.24019 14.6932L11.9517 17.4047C12.143 17.596 12.3939 17.6917 12.6447 17.6917C12.8955 17.6917 13.1464 17.596 13.3377 17.4047L18.7609 11.9817C19.1437 11.5989 19.1437 10.9783 18.761 10.5957C18.3784 10.213 17.7578 10.2128 17.375 10.5956Z" fill="#27AE60"/>
</g>
<defs>
<clipPath id="clip0_2143_1241">
<rect width="28" height="28" fill="white"/>
</clipPath>
</defs>
</svg>
