<svg width="24" height="24" viewBox="0 0 24 24" fill="none" xmlns="http://www.w3.org/2000/svg">
<g clip-path="url(#clip0_2346_462)">
<path d="M3.61719 10.9941H7.17199C7.4309 10.9941 7.64074 10.7843 7.64074 10.5254C7.64074 10.2667 7.4309 10.0566 7.17199 10.0566H3.61719C3.35828 10.0566 3.14844 10.2667 3.14844 10.5254C3.14844 10.7843 3.35828 10.9941 3.61719 10.9941Z" fill="#27AE60"/>
<path d="M3.61719 13.2441H7.48455C7.74328 13.2441 7.9533 13.0341 7.9533 12.7754C7.9533 12.5165 7.74328 12.3066 7.48455 12.3066H3.61719C3.35828 12.3066 3.14844 12.5165 3.14844 12.7754C3.14844 13.0341 3.35828 13.2441 3.61719 13.2441Z" fill="#27AE60"/>
<path d="M9.41797 13.2441C9.5412 13.2441 9.66223 13.1945 9.74939 13.1068C9.83655 13.0197 9.88672 12.8992 9.88672 12.7754C9.88672 12.6522 9.83655 12.5311 9.74939 12.444C9.66223 12.3568 9.5412 12.3066 9.41797 12.3066C9.29474 12.3066 9.17371 12.3568 9.08655 12.444C8.99884 12.5311 8.94922 12.6522 8.94922 12.7754C8.94922 12.8992 8.99884 13.0197 9.08655 13.1068C9.17371 13.1945 9.29419 13.2441 9.41797 13.2441Z" fill="#27AE60"/>
<path d="M13.7834 10.2191C16.0581 10.2191 17.9086 8.36864 17.9086 6.09392C17.9086 3.81939 16.0581 1.96875 13.7834 1.96875C11.5088 1.96875 9.6582 3.81939 9.6582 6.09392C9.6582 8.36864 11.5088 10.2191 13.7834 10.2191ZM13.7834 2.90643C15.541 2.90643 16.9711 4.3363 16.9711 6.09392C16.9711 7.85155 15.541 9.2816 13.7834 9.2816C12.0258 9.2816 10.5959 7.85155 10.5959 6.09392C10.5959 4.3363 12.0258 2.90643 13.7834 2.90643Z" fill="#27AE60"/>
<path d="M22.7863 12.8496L22.2196 12.2829V5.90551C22.2196 4.61315 21.168 3.56158 19.8757 3.56158H19.3253C18.362 1.46191 16.2401 0 13.7829 0C11.3258 0 9.20378 1.46191 8.24065 3.56158H3.09393C1.80139 3.56158 0.75 4.61315 0.75 5.90551V17.7183C0.75 19.0109 1.80139 20.0623 3.09393 20.0623H9.13933V21.1884C7.86784 21.2129 6.84117 22.254 6.84117 23.5312C6.84117 23.7901 7.05101 24 7.30992 24H15.6562C15.9151 24 16.125 23.7901 16.125 23.5312C16.125 22.254 15.0983 21.2131 13.827 21.1884V20.0623H19.8757C21.1682 20.0623 22.2196 19.0109 22.2196 17.7183V15.4627C22.4298 15.3841 22.6228 15.2611 22.7863 15.0976C23.406 14.4778 23.406 13.4694 22.7863 12.8496ZM19.8757 4.49926C20.6511 4.49926 21.2821 5.13006 21.2821 5.90551V11.3454L19.0658 9.12907C19.5816 8.23497 19.877 7.19841 19.877 6.09392C19.877 5.54241 19.8028 5.00774 19.6648 4.49926H19.8757ZM13.7829 0.937498C16.6261 0.937498 18.9393 3.25066 18.9393 6.09392C18.9393 8.93718 16.6261 11.2503 13.7829 11.2503C10.9396 11.2503 8.62645 8.93718 8.62645 6.09392C8.62645 3.25066 10.9396 0.937498 13.7829 0.937498ZM3.09393 4.49926H7.90117C7.76311 5.00774 7.68895 5.54241 7.68895 6.09392C7.68895 6.68865 7.77501 7.26323 7.93449 7.80705H3.61688C3.35797 7.80705 3.14813 8.01689 3.14813 8.2758C3.14813 8.53453 3.35797 8.74455 3.61688 8.74455H8.29613C9.2838 10.7807 11.3721 12.188 13.7829 12.188C14.8872 12.188 15.9237 11.8927 16.8178 11.3771L20.5384 15.0976C20.7467 15.3059 21.0029 15.4491 21.2821 15.5174V15.9371H1.6875V5.90551C1.6875 5.13006 2.31848 4.49926 3.09393 4.49926ZM15.1073 23.0625H7.85906C8.05241 22.5166 8.5739 22.1248 9.1851 22.1248H13.781C14.3922 22.1248 14.9137 22.5166 15.1073 23.0625ZM12.8895 21.1873H10.0768V20.0623H12.8895V21.1873ZM19.8757 19.1248H3.09393C2.31848 19.1248 1.6875 18.4938 1.6875 17.7183V16.8746H21.2821V17.7183C21.2821 18.4938 20.6511 19.1248 19.8757 19.1248ZM22.1233 14.4345C21.8692 14.6889 21.4553 14.6887 21.2012 14.4345L17.6041 10.8373C17.9432 10.5637 18.2525 10.2544 18.526 9.91532L22.1233 13.5126C22.3775 13.7668 22.3775 14.1804 22.1233 14.4345Z" fill="#27AE60"/>
<path d="M13.7832 4.92187C14.4294 4.92187 14.9551 5.44757 14.9551 6.09356C14.9551 6.35247 15.1649 6.56231 15.4238 6.56231C15.6827 6.56231 15.8926 6.35247 15.8926 6.09356C15.8926 4.93048 14.9463 3.98438 13.7832 3.98438C13.5243 3.98438 13.3145 4.1944 13.3145 4.45312C13.3145 4.71203 13.5243 4.92187 13.7832 4.92187Z" fill="#27AE60"/>
</g>
<defs>
<clipPath id="clip0_2346_462">
<rect width="24" height="24" fill="white"/>
</clipPath>
</defs>
</svg>
