<svg width="32" height="32" viewBox="0 0 32 32" fill="none" xmlns="http://www.w3.org/2000/svg">
<path d="M15.7277 20.7694C15.7277 20.4931 15.9508 20.2681 16.2271 20.2681C16.5033 20.2681 16.7264 20.4931 16.7264 20.7694V24.9806C16.7264 25.2569 16.5033 25.48 16.2271 25.48C15.9508 25.48 15.7277 25.2569 15.7277 24.9806V20.7694ZM16.7271 26.6181C16.7271 26.8944 16.5039 27.1175 16.2277 27.1175C15.9514 27.1175 15.7283 26.8944 15.7283 26.6181V26.5156C15.7283 26.2394 15.9514 26.0163 16.2277 26.0163C16.5039 26.0163 16.7271 26.2394 16.7271 26.5156V26.6181ZM17.7702 17.8713L20.0133 21.7581C20.5039 20.5056 21.5902 19.5544 22.9064 19.2425C21.9639 18.05 22.0664 16.3406 23.1402 15.2669C24.3114 14.0956 26.2089 14.0956 27.3796 15.2669C28.4533 16.3406 28.5539 18.05 27.6133 19.2425C29.4452 19.675 30.7902 21.3275 30.7902 23.2519V24.8644C30.7902 25.1406 30.5652 25.3656 30.2889 25.3656H22.097L22.8839 26.7281C23.0471 27.0119 23.1283 27.3162 23.1283 27.6213H23.1264C23.1264 28.5781 22.3521 29.4037 21.3408 29.4037H11.1146C10.1102 29.4037 9.32705 28.585 9.32705 27.6213H9.32518C9.32518 27.3162 9.40643 27.0119 9.56955 26.7281L10.3577 25.3656H2.16393C1.88768 25.3656 1.66455 25.1406 1.66455 24.8644V23.2519C1.66455 21.3281 3.00768 19.675 4.84143 19.2425C3.89893 18.05 4.00143 16.3406 5.07518 15.2669C6.24643 14.0956 8.14393 14.0956 9.31455 15.2669C10.3883 16.3406 10.4889 18.05 9.54643 19.2425C10.8646 19.5544 11.9489 20.5056 12.4396 21.7581L14.6846 17.8713L14.8296 17.6569C14.6133 17.4763 14.4771 17.205 14.4771 16.9056V16.1419C14.0077 16.0656 13.6552 15.6581 13.6552 15.1763V14.4019C13.6552 14.1025 13.7895 13.8313 14.0077 13.6506C13.9246 13.1494 13.6127 13.0094 13.2939 12.6906C11.6727 11.0712 11.6727 8.44375 13.2939 6.82312C14.9133 5.20375 17.5408 5.20375 19.1614 6.82312C20.8977 8.55937 20.7527 11.415 18.8533 12.9706C18.6302 13.1531 18.4939 13.3763 18.4477 13.6512C18.6639 13.8319 18.8002 14.1031 18.8002 14.4025V15.1769C18.8002 15.6588 18.4458 16.0662 17.9783 16.1425V16.9062C17.9783 17.2056 17.8421 17.4769 17.6258 17.6575C17.6771 17.725 17.7271 17.7956 17.7696 17.8719H17.7702V17.8713ZM20.7377 23.0125L21.5189 24.3644H29.7889V23.2519C29.7889 21.5369 28.3839 20.1319 26.6689 20.1319H26.4614C26.0927 20.2931 25.687 20.3838 25.2583 20.3838C24.8314 20.3838 24.4258 20.2931 24.0571 20.1319H23.8496C22.2171 20.1319 20.862 21.4038 20.7377 23.0125ZM10.9352 24.3644L11.7164 23.0125C11.6564 22.2313 11.3039 21.5281 10.7683 21.0106C10.2083 20.4688 9.4433 20.1319 8.6033 20.1319H8.39455C8.02768 20.2931 7.62018 20.3838 7.1933 20.3838C6.76643 20.3838 6.3608 20.2931 5.99205 20.1319H5.78455C4.06955 20.1319 2.66455 21.5369 2.66455 23.2519V24.3644H10.9352ZM22.0208 27.2294L16.9077 18.3713C16.8333 18.2438 16.7395 18.1481 16.6208 18.0788H16.6227C16.2683 17.8769 15.7633 17.9869 15.5596 18.35C15.5558 18.3569 15.5508 18.3644 15.5471 18.3713L10.4339 27.2294C10.3614 27.3531 10.3258 27.4881 10.3258 27.6206H10.3221C10.3221 28.0212 10.6427 28.4037 11.1139 28.4037H21.3402C21.8114 28.4037 22.1302 28.0194 22.1302 27.6206H22.1283C22.1289 27.4875 22.0933 27.3531 22.0208 27.2294ZM25.2589 15.3875C24.1571 15.3875 23.2621 16.2819 23.2621 17.3856C23.2621 18.4894 24.1564 19.3825 25.2589 19.3825C26.3627 19.3825 27.2577 18.4894 27.2577 17.3856C27.2577 16.2819 26.3627 15.3875 25.2589 15.3875ZM7.19393 15.3875C6.09205 15.3875 5.19705 16.2819 5.19705 17.3856C5.19705 18.4894 6.09143 19.3825 7.19393 19.3825C8.29768 19.3825 9.19268 18.4894 9.19268 17.3856C9.19205 16.2819 8.29768 15.3875 7.19393 15.3875ZM9.78018 10.2569C9.5058 10.2569 9.2808 10.0337 9.2808 9.7575C9.2808 9.48125 9.5058 9.25813 9.78018 9.25813H10.6589C10.9352 9.25813 11.1583 9.48125 11.1583 9.7575C11.1583 10.0337 10.9352 10.2569 10.6589 10.2569H9.78018ZM11.3164 5.55312C11.1196 5.35812 11.1196 5.04125 11.3164 4.84625C11.5114 4.65125 11.8264 4.65125 12.0233 4.84625L12.6433 5.46625C12.8383 5.66313 12.8383 5.97812 12.6433 6.17312C12.4483 6.37 12.1314 6.37 11.9364 6.17312L11.3164 5.55312ZM22.6727 9.2575C22.9489 9.2575 23.1721 9.48063 23.1721 9.75688C23.1721 10.0331 22.9489 10.2563 22.6727 10.2563H21.7958C21.5196 10.2563 21.2945 10.0331 21.2945 9.75688C21.2945 9.48063 21.5196 9.2575 21.7958 9.2575H22.6727ZM20.4314 4.84625C20.6264 4.65125 20.9433 4.65125 21.1383 4.84625C21.3333 5.04125 21.3333 5.35812 21.1383 5.55312L20.5183 6.17312C20.3214 6.37 20.0064 6.37 19.8114 6.17312C19.6146 5.97812 19.6146 5.66313 19.8114 5.46625L20.4314 4.84625ZM15.7277 3.31188C15.7277 3.03563 15.9508 2.8125 16.2271 2.8125C16.5033 2.8125 16.7264 3.03563 16.7264 3.31188V4.18875C16.7264 4.465 16.5033 4.69 16.2271 4.69C15.9508 4.69 15.7277 4.465 15.7277 4.18875V3.31188ZM16.7271 11.4669V13.4244H17.4727C17.5702 12.9387 17.8289 12.5156 18.2202 12.1969C19.6608 11.0169 19.7739 8.85 18.4539 7.53062C17.2246 6.30125 15.2296 6.30125 14.0002 7.53062C12.6802 8.85063 12.7921 11.0175 14.2339 12.1969C14.6239 12.5156 14.8839 12.9394 14.9796 13.4244H15.7271V11.4669C14.4371 11.0894 14.0071 9.45938 14.9671 8.49938C16.0871 7.38 18.007 8.17687 18.007 9.7575C18.0077 10.5575 17.4746 11.2469 16.7271 11.4669ZM16.7783 9.20625C16.2896 8.71563 15.4458 9.06437 15.4458 9.7575C15.4458 10.4519 16.2889 10.7994 16.7783 10.31C17.0833 10.005 17.0833 9.51063 16.7783 9.20625ZM15.4764 16.8844H16.9771V16.1544H15.4764V16.8844ZM15.4533 15.1538H17.7989V14.4237H14.6546V15.1538H15.4533Z" fill="#9747FF"/>
</svg>
