<svg width="24" height="24" viewBox="0 0 24 24" fill="none" xmlns="http://www.w3.org/2000/svg">
<g clip-path="url(#clip0_2262_1334)">
<path d="M9.375 0.468749C9.375 0.72766 9.16516 0.937499 8.90625 0.937499C8.64734 0.937499 8.4375 0.72766 8.4375 0.468749C8.4375 0.209839 8.64734 0 8.90625 0C9.16516 0 9.375 0.209839 9.375 0.468749Z" fill="#808080"/>
<path d="M8.92967 17.8365C10.6589 17.8365 12.3204 17.3454 13.7607 16.4132L21.2109 23.8632C21.3938 24.0462 21.6906 24.0463 21.8737 23.8632L23.8626 21.8743C24.0457 21.6912 24.0457 21.3946 23.8626 21.2115L16.4126 13.7613C17.3448 12.3212 17.8359 10.6595 17.8359 8.93028C17.8359 8.14494 17.7337 7.36784 17.5323 6.61601L19.2282 4.92009C19.5073 5.08525 19.8325 5.18028 20.1797 5.18028C21.2135 5.18028 22.0547 4.33928 22.0547 3.30529C22.0547 2.27147 21.2135 1.43029 20.1797 1.43029C19.1458 1.43029 18.3047 2.27147 18.3047 3.30529C18.3047 3.65264 18.3999 3.97801 18.5652 4.25725L17.2007 5.62175C16.1486 2.99016 13.8764 0.972892 11.1152 0.272332C10.8642 0.208611 10.6093 0.360588 10.5456 0.611442C10.482 0.86248 10.6338 1.11755 10.8847 1.18108C13.4873 1.84136 15.605 3.80919 16.4721 6.35032L14.1004 8.72209C13.8211 8.55692 13.4958 8.46153 13.1484 8.46153C12.808 8.46153 12.4815 8.55198 12.1959 8.72117L10.5443 7.06956C10.7095 6.79033 10.8047 6.46513 10.8047 6.11778C10.8047 5.08397 9.96349 4.24278 8.92967 4.24278C7.89586 4.24278 7.05468 5.08397 7.05468 6.11778C7.05468 6.46513 7.14989 6.79051 7.31524 7.06975L5.66289 8.72209C5.38366 8.55692 5.05828 8.46153 4.71093 8.46153C3.67712 8.46153 2.83593 9.30271 2.83593 10.3365C2.83593 11.3705 3.67712 12.2115 4.71093 12.2115C5.74474 12.2115 6.58593 11.3705 6.58593 10.3365C6.58593 9.98954 6.49071 9.66435 6.32574 9.38529L7.97826 7.73259C8.25749 7.89775 8.58251 7.99278 8.92967 7.99278C9.27684 7.99278 9.60222 7.89756 9.88127 7.7324L11.5329 9.38401C11.3639 9.66966 11.2734 9.99613 11.2734 10.3365C11.2734 11.3705 12.1146 12.2115 13.1484 12.2115C14.1822 12.2115 15.0234 11.3705 15.0234 10.3365C15.0234 9.98954 14.9282 9.66435 14.7632 9.38529L16.751 7.39732C16.8488 7.90013 16.8984 8.41319 16.8984 8.93028C16.8984 13.3312 13.3321 16.899 8.92967 16.899C4.5227 16.899 0.937499 13.3243 0.937499 8.93028C0.937499 5.28831 3.40228 2.10613 6.93145 1.19189C7.18212 1.12688 7.33263 0.871086 7.26763 0.620415C7.20263 0.369927 6.94683 0.219231 6.69634 0.284233C2.8872 1.27099 0 4.74687 0 8.93028C0 13.8412 4.00579 17.8365 8.92967 17.8365ZM20.1797 2.36779C20.6966 2.36779 21.1172 2.78838 21.1172 3.30529C21.1172 3.82219 20.6966 4.24278 20.1797 4.24278C19.6628 4.24278 19.2422 3.82219 19.2422 3.30529C19.2422 2.78838 19.6628 2.36779 20.1797 2.36779ZM4.71093 11.274C4.19402 11.274 3.77343 10.8534 3.77343 10.3365C3.77343 9.81962 4.19402 9.39903 4.71093 9.39903C5.22784 9.39903 5.64843 9.81962 5.64843 10.3365C5.64843 10.8534 5.22784 11.274 4.71093 11.274ZM7.99218 6.11778C7.99218 5.60088 8.41277 5.18028 8.92967 5.18028C9.44658 5.18028 9.86717 5.60088 9.86717 6.11778C9.86717 6.63469 9.44658 7.05528 8.92967 7.05528C8.41277 7.05528 7.99218 6.63469 7.99218 6.11778ZM13.1484 11.274C12.6315 11.274 12.2109 10.8534 12.2109 10.3365C12.2109 9.81889 12.6306 9.39903 13.1484 9.39903C13.6653 9.39903 14.0859 9.81962 14.0859 10.3365C14.0859 10.8534 13.6653 11.274 13.1484 11.274ZM21.5423 22.869L16.3328 17.6593L17.6587 16.3334L22.8682 21.5429L21.5423 22.869ZM15.8554 14.53L16.9958 15.6704L15.6698 16.9964L14.5294 15.856C15.0172 15.4615 15.4607 15.0178 15.8554 14.53Z" fill="#808080"/>
</g>
<defs>
<clipPath id="clip0_2262_1334">
<rect width="24" height="24" fill="white"/>
</clipPath>
</defs>
</svg>
