<svg width="43" height="43" viewBox="0 0 43 43" fill="none" xmlns="http://www.w3.org/2000/svg">
<path d="M40.3125 21.5C40.1714 25.9411 33.7348 25.9344 33.5938 21.5C33.5975 20.794 33.8234 20.1071 34.2395 19.5367C34.6555 18.9663 35.2406 18.5413 35.9117 18.3221C35.6955 17.2614 35.3526 16.2305 34.8905 15.2516C34.8529 15.1712 34.8316 15.0842 34.8277 14.9956C34.8239 14.907 34.8375 14.8185 34.868 14.7351C34.8985 14.6518 34.9451 14.5753 35.0052 14.5101C35.0653 14.4449 35.1377 14.3921 35.2183 14.3549C35.2988 14.3178 35.3859 14.2969 35.4746 14.2935C35.5632 14.2901 35.6517 14.3042 35.7348 14.3351C35.818 14.3659 35.8943 14.413 35.9592 14.4734C36.0241 14.5338 36.0765 14.6065 36.1133 14.6872C36.635 15.7986 37.0185 16.9696 37.2555 18.1743C38.0879 18.2478 38.8629 18.6296 39.4284 19.2448C39.9939 19.8601 40.3092 20.6644 40.3125 21.5Z" fill="url(#paint0_linear_78_2447)"/>
<path d="M12.9474 12.9469C12.4477 13.4486 11.801 13.7778 11.1014 13.8866C10.4017 13.9953 9.68559 13.878 9.05723 13.5516C8.47067 14.4526 7.98831 15.4174 7.61942 16.4272C7.56013 16.5941 7.43713 16.7307 7.27736 16.807C7.11759 16.8834 6.93406 16.8934 6.76697 16.8347C6.59988 16.776 6.46285 16.6536 6.38587 16.4941C6.3089 16.3346 6.29826 16.1511 6.35629 15.9838C6.77012 14.8303 7.32289 13.7316 8.00239 12.7118C7.58685 12.2113 7.3258 11.6009 7.25106 10.9547C7.17631 10.3086 7.29108 9.65465 7.5814 9.07258C7.87171 8.49051 8.32504 8.00543 8.88615 7.67643C9.44727 7.34743 10.092 7.18871 10.7417 7.21961C11.3914 7.2505 12.0181 7.46968 12.5455 7.85044C13.0728 8.23121 13.4781 8.75711 13.7118 9.36411C13.9456 9.9711 13.9978 10.633 13.8621 11.2691C13.7264 11.9053 13.4085 12.4882 12.9474 12.9469Z" fill="url(#paint1_linear_78_2447)"/>
<path d="M36.6441 27.0161C36.2303 28.1695 35.6775 29.2683 34.998 30.2881C35.4135 30.7885 35.6746 31.399 35.7493 32.0451C35.8241 32.6913 35.7093 33.3452 35.419 33.9273C35.1287 34.5094 34.6754 34.9945 34.1142 35.3235C33.5531 35.6525 32.9084 35.8112 32.2587 35.7803C31.609 35.7494 30.9823 35.5302 30.4549 35.1495C29.9275 34.7687 29.5223 34.2428 29.2885 33.6358C29.0547 33.0288 29.0025 32.3669 29.1383 31.7307C29.274 31.0946 29.5918 30.5117 30.053 30.0529C30.5526 29.5512 31.1993 29.2221 31.899 29.1133C32.5987 29.0045 33.3148 29.1219 33.9431 29.4483C34.5297 28.5472 35.0121 27.5825 35.3809 26.5726C35.4397 26.4051 35.5627 26.2679 35.7227 26.191C35.8827 26.1141 36.0667 26.104 36.2342 26.1628C36.4017 26.2216 36.539 26.3445 36.6159 26.5045C36.6927 26.6646 36.7029 26.8486 36.6441 27.0161Z" fill="url(#paint2_linear_78_2447)"/>
<path d="M16.8368 36.2341C16.8086 36.3177 16.764 36.3948 16.7055 36.4609C16.6471 36.527 16.576 36.5807 16.4965 36.6189C16.417 36.6571 16.3306 36.679 16.2425 36.6833C16.1544 36.6876 16.0663 36.6742 15.9835 36.644C14.8306 36.2288 13.732 35.6761 12.7114 34.9979C12.072 35.5329 11.2566 35.8114 10.4235 35.7795C9.59036 35.7475 8.79874 35.4074 8.20208 34.8251C7.60542 34.2427 7.24621 33.4596 7.19409 32.6275C7.14196 31.7953 7.40062 30.9735 7.91994 30.3212C8.43926 29.669 9.18225 29.2327 10.0049 29.0971C10.8275 28.9614 11.6712 29.136 12.3725 29.587C13.0737 30.038 13.5826 30.7333 13.8004 31.5381C14.0181 32.3429 13.9294 33.1999 13.5513 33.943C14.4523 34.5296 15.417 35.012 16.4269 35.3808C16.5103 35.4093 16.5871 35.4542 16.653 35.5127C16.7189 35.5712 16.7725 35.6422 16.8106 35.7216C16.8488 35.801 16.8707 35.8873 16.8752 35.9752C16.8797 36.0632 16.8666 36.1512 16.8368 36.2341Z" fill="url(#paint3_linear_78_2447)"/>
<path d="M7.08828 24.6781C7.30449 25.7388 7.64736 26.7697 8.10953 27.7486C8.14711 27.829 8.16844 27.916 8.17229 28.0046C8.17615 28.0932 8.16245 28.1818 8.13199 28.2651C8.10153 28.3484 8.0549 28.4249 7.9948 28.4901C7.93469 28.5554 7.86228 28.6081 7.78173 28.6453C7.70118 28.6824 7.61408 28.7033 7.52543 28.7068C7.43678 28.7102 7.34833 28.696 7.26516 28.6651C7.18199 28.6343 7.10575 28.5873 7.0408 28.5268C6.97586 28.4664 6.92349 28.3937 6.88672 28.313C6.36504 27.2016 5.98145 26.0306 5.74453 24.826C4.9121 24.7524 4.13716 24.3706 3.57164 23.7554C3.00611 23.1401 2.69079 22.3358 2.6875 21.5002C2.82859 17.0591 9.26516 17.0658 9.40625 21.5002C9.4025 22.2062 9.17657 22.8931 8.76052 23.4635C8.34447 24.0339 7.7594 24.4589 7.08828 24.6781Z" fill="url(#paint4_linear_78_2447)"/>
<path d="M28.3128 36.1134C27.2015 36.6351 26.0304 37.0186 24.8258 37.2556C24.342 41.4749 18.2616 41.2062 18.1406 36.9532C18.1384 36.1545 18.4217 35.3812 18.9393 34.7728C19.457 34.1645 20.1749 33.7611 20.9637 33.6355C21.7526 33.5098 22.5603 33.6701 23.2414 34.0875C23.9224 34.5049 24.4319 35.1519 24.678 35.9118C25.7387 35.6956 26.7696 35.3527 27.7484 34.8906C27.9105 34.8162 28.0955 34.8092 28.2628 34.871C28.43 34.9328 28.5659 35.0585 28.6407 35.2204C28.7154 35.3823 28.7229 35.5673 28.6614 35.7347C28.5999 35.9021 28.4746 36.0383 28.3128 36.1134Z" fill="url(#paint5_linear_78_2447)"/>
<path d="M24.8597 6.04675C24.8619 6.84551 24.5786 7.61877 24.061 8.22711C23.5433 8.83544 22.8254 9.2388 22.0366 9.36446C21.2478 9.49012 20.44 9.3298 19.759 8.91242C19.0779 8.49504 18.5684 7.84807 18.3223 7.08816C17.179 7.3632 16.0582 7.72482 14.9697 8.16988C14.841 8.17078 14.7149 8.13447 14.6064 8.06533C14.4979 7.99619 14.4118 7.89717 14.3583 7.78019C14.2847 7.61786 14.2781 7.43311 14.3397 7.26589C14.4013 7.09868 14.5262 6.96242 14.6875 6.88659C15.7988 6.36492 16.9699 5.98133 18.1745 5.74441C18.6583 1.52503 24.7387 1.79378 24.8597 6.04675Z" fill="url(#paint6_linear_78_2447)"/>
<path d="M35.7836 10.5752C35.7851 11.0827 35.6714 11.5839 35.4509 12.041C35.2305 12.4982 34.9092 12.8993 34.5111 13.2141C34.1131 13.529 33.6488 13.7494 33.1532 13.8587C32.6576 13.9679 32.1437 13.9632 31.6501 13.845C31.1566 13.7267 30.6964 13.4979 30.3042 13.1758C29.9119 12.8538 29.5979 12.4469 29.3859 11.9858C29.1738 11.5247 29.0692 11.0215 29.0799 10.5142C29.0907 10.0068 29.2165 9.50843 29.4478 9.05674C28.5468 8.47017 27.5821 7.98781 26.5722 7.61893C26.4053 7.55964 26.2688 7.43665 26.1924 7.27687C26.116 7.1171 26.1061 6.93357 26.1647 6.76648C26.2234 6.59939 26.3459 6.46236 26.5054 6.38538C26.6649 6.30841 26.8483 6.29778 27.0157 6.35581C28.1685 6.77101 29.2671 7.3237 30.2877 8.0019C30.7784 7.59931 31.373 7.34382 32.0028 7.26495C32.6326 7.18608 33.2719 7.28705 33.8468 7.5562C34.4216 7.82535 34.9085 8.25168 35.2513 8.78591C35.594 9.32015 35.7786 9.94047 35.7836 10.5752Z" fill="url(#paint7_linear_78_2447)"/>
<path d="M30.6644 17.1665L22.1719 22.266V31.7328L30.6644 26.6399V17.1665Z" fill="url(#paint8_linear_78_2447)"/>
<path d="M12.3359 26.6399L20.8284 31.7328V22.266L12.3359 17.1665V26.6399Z" fill="url(#paint9_linear_78_2447)"/>
<path d="M30.0324 15.9772L21.4996 10.8643L12.9668 15.9772L21.4996 21.0969L30.0324 15.9772Z" fill="url(#paint10_linear_78_2447)"/>
<defs>
<linearGradient id="paint0_linear_78_2447" x1="33.5103" y1="19.5597" x2="40.6532" y2="19.5597" gradientUnits="userSpaceOnUse">
<stop stop-color="#27AE60"/>
<stop offset="1" stop-color="#0052CC"/>
</linearGradient>
<linearGradient id="paint1_linear_78_2447" x1="6.22474" y1="12.0433" x2="14.3222" y2="12.0433" gradientUnits="userSpaceOnUse">
<stop stop-color="#27AE60"/>
<stop offset="1" stop-color="#0052CC"/>
</linearGradient>
<linearGradient id="paint2_linear_78_2447" x1="28.9698" y1="30.9537" x2="37.0682" y2="30.9537" gradientUnits="userSpaceOnUse">
<stop stop-color="#27AE60"/>
<stop offset="1" stop-color="#0052CC"/>
</linearGradient>
<linearGradient id="paint3_linear_78_2447" x1="7.06717" y1="32.8675" x2="17.3674" y2="32.8675" gradientUnits="userSpaceOnUse">
<stop stop-color="#27AE60"/>
<stop offset="1" stop-color="#0052CC"/>
</linearGradient>
<linearGradient id="paint4_linear_78_2447" x1="2.60406" y1="23.4386" x2="9.74697" y2="23.4386" gradientUnits="userSpaceOnUse">
<stop stop-color="#27AE60"/>
<stop offset="1" stop-color="#0052CC"/>
</linearGradient>
<linearGradient id="paint5_linear_78_2447" x1="18.0094" y1="36.9388" x2="29.2383" y2="36.9388" gradientUnits="userSpaceOnUse">
<stop stop-color="#27AE60"/>
<stop offset="1" stop-color="#0052CC"/>
</linearGradient>
<linearGradient id="paint6_linear_78_2447" x1="14.1667" y1="6.05991" x2="25.3953" y2="6.05991" gradientUnits="userSpaceOnUse">
<stop stop-color="#27AE60"/>
<stop offset="1" stop-color="#0052CC"/>
</linearGradient>
<linearGradient id="paint7_linear_78_2447" x1="26.007" y1="10.1274" x2="36.2733" y2="10.1274" gradientUnits="userSpaceOnUse">
<stop stop-color="#27AE60"/>
<stop offset="1" stop-color="#0052CC"/>
</linearGradient>
<linearGradient id="paint8_linear_78_2447" x1="22.0664" y1="24.4483" x2="31.0951" y2="24.4483" gradientUnits="userSpaceOnUse">
<stop stop-color="#27AE60"/>
<stop offset="1" stop-color="#0052CC"/>
</linearGradient>
<linearGradient id="paint9_linear_78_2447" x1="12.2305" y1="24.4483" x2="21.2591" y2="24.4483" gradientUnits="userSpaceOnUse">
<stop stop-color="#27AE60"/>
<stop offset="1" stop-color="#0052CC"/>
</linearGradient>
<linearGradient id="paint10_linear_78_2447" x1="12.7548" y1="15.9797" x2="30.8979" y2="15.9797" gradientUnits="userSpaceOnUse">
<stop stop-color="#27AE60"/>
<stop offset="1" stop-color="#0052CC"/>
</linearGradient>
</defs>
</svg>
