<svg width="10" height="10" viewBox="0 0 10 10" fill="none" xmlns="http://www.w3.org/2000/svg">
<g clip-path="url(#clip0_2258_857)">
<path d="M9.47933 5.00065C9.47933 7.47054 7.47005 9.47982 5.00017 9.47982C4.92489 9.47982 4.84982 9.47819 4.77535 9.47412C4.60283 9.46476 4.47058 9.31787 4.47974 9.14535C4.4891 8.97363 4.6366 8.84139 4.80831 8.84994C4.87179 8.85319 4.93588 8.85482 5.00017 8.85482C7.12541 8.85482 8.85433 7.1259 8.85433 5.00065C8.85433 2.87541 7.12541 1.14648 5.00017 1.14648C2.87492 1.14648 1.146 2.87541 1.146 5.00065C1.146 5.06535 1.14743 5.12923 1.15068 5.19352C1.15923 5.36564 1.02658 5.51253 0.85425 5.52108C0.848959 5.52148 0.843671 5.52148 0.838379 5.52148C0.672975 5.52148 0.534829 5.39168 0.526488 5.22445C0.522825 5.15039 0.520996 5.07593 0.520996 5.00065C0.521 2.53076 2.53028 0.521484 5.00017 0.521484C7.47005 0.521484 9.47933 2.53076 9.47933 5.00065ZM1.3995 6.37883C1.35169 6.25391 1.30998 6.12533 1.27519 5.99471C1.23084 5.82747 1.06055 5.72656 0.892909 5.77295C0.726284 5.8173 0.627 5.9882 0.67135 6.15503C0.711838 6.30761 0.760054 6.45654 0.816004 6.60262C0.863613 6.72672 0.982021 6.80322 1.10775 6.80322C1.14499 6.80322 1.18283 6.79671 1.21945 6.78247C1.38058 6.72103 1.46135 6.53996 1.3995 6.37883ZM2.9034 8.23511C2.78988 8.16146 2.68063 8.08171 2.57544 7.99707C2.44096 7.88802 2.24463 7.90959 2.13599 8.04346C2.02755 8.17774 2.0485 8.37468 2.18278 8.48291C2.30424 8.58138 2.43099 8.67334 2.56242 8.7592C2.61511 8.79338 2.67411 8.80965 2.7327 8.80965C2.83484 8.80965 2.93493 8.75961 2.99475 8.66765C3.08895 8.5232 3.04806 8.32951 2.9034 8.23511ZM2.00415 7.42538C1.91932 7.3208 1.83997 7.21175 1.76632 7.09863C1.67213 6.95337 1.47864 6.91227 1.33399 7.00668C1.18933 7.10067 1.14824 7.29435 1.24223 7.43881C1.32768 7.57064 1.42005 7.69759 1.51872 7.81926C1.58057 7.89535 1.6707 7.93482 1.76164 7.93482C1.83082 7.93482 1.9004 7.91203 1.95838 7.86483C2.09225 7.75619 2.1128 7.55965 2.00415 7.42538ZM4.00835 8.72624C3.87671 8.69125 3.74813 8.64933 3.6226 8.60132C3.46127 8.54029 3.2806 8.62045 3.21937 8.78198C3.15793 8.94353 3.2387 9.12378 3.40003 9.18563C3.5455 9.24097 3.69483 9.28939 3.84721 9.33008C3.87427 9.33741 3.90133 9.34066 3.92798 9.34066C4.06613 9.34066 4.19247 9.24829 4.2297 9.10873C4.27425 8.9419 4.17497 8.77059 4.00835 8.72624ZM5.00017 2.18815C4.82764 2.18815 4.68767 2.32813 4.68767 2.50065V5.00065C4.68767 5.11906 4.7546 5.2273 4.8604 5.28019L6.52706 6.11353C6.57203 6.13591 6.61963 6.14648 6.66663 6.14648C6.78117 6.14648 6.89165 6.08341 6.94638 5.97355C7.02348 5.81933 6.96103 5.63175 6.8066 5.55444L5.31267 4.80737V2.50065C5.31267 2.32813 5.17269 2.18815 5.00017 2.18815Z" fill="#EAB308"/>
</g>
<defs>
<clipPath id="clip0_2258_857">
<rect width="10" height="10" fill="white"/>
</clipPath>
</defs>
</svg>
