<svg width="24" height="24" viewBox="0 0 24 24" fill="none" xmlns="http://www.w3.org/2000/svg">
<path d="M11.4979 5.13523C8.70889 5.13523 6.44014 7.40398 6.44014 10.193C6.44014 12.9821 8.70889 15.2509 11.4979 15.2509C14.287 15.2509 16.5558 12.9821 16.5558 10.193C16.5558 7.40398 14.2865 5.13523 11.4979 5.13523ZM11.4979 14.6884C9.0192 14.6884 7.00264 12.6718 7.00264 10.193C7.00264 7.7143 9.0192 5.69773 11.4979 5.69773C13.9767 5.69773 15.9933 7.7143 15.9933 10.193C15.9933 12.6718 13.9767 14.6884 11.4979 14.6884ZM11.4337 6.43883C11.3334 6.43883 11.2406 6.49227 11.19 6.57945L8.14967 11.8459C8.09951 11.933 8.09951 12.0399 8.14967 12.1271C8.19982 12.2143 8.29264 12.2677 8.39342 12.2677H14.475C14.5753 12.2677 14.6681 12.2143 14.7187 12.1271C14.7694 12.0399 14.7689 11.933 14.7187 11.8459L11.6779 6.57945C11.6273 6.49227 11.534 6.43883 11.4337 6.43883ZM8.88045 11.7052L11.4342 7.28258L13.9879 11.7052H8.88045ZM11.4337 8.4268C11.5889 8.4268 11.715 8.55289 11.715 8.70805V10.193C11.715 10.3482 11.5889 10.4743 11.4337 10.4743C11.2786 10.4743 11.1525 10.3482 11.1525 10.193V8.70805C11.1525 8.55289 11.2786 8.4268 11.4337 8.4268ZM11.715 11.0345V11.0363C11.715 11.1915 11.5889 11.3176 11.4337 11.3176C11.2786 11.3176 11.1525 11.1915 11.1525 11.0363C11.1525 10.8812 11.2786 10.7541 11.4337 10.7541C11.5889 10.7541 11.715 10.8788 11.715 11.0345ZM22.4034 3.49414C21.7814 3.49414 21.2756 3.99992 21.2756 4.62195C21.2756 5.00398 21.4669 5.34195 21.7579 5.54586L19.8525 10.6505C19.8136 10.6463 19.7742 10.6445 19.7339 10.6445C19.3176 10.6445 18.9539 10.8713 18.7584 11.2074L17.7647 10.9295C17.7928 10.688 17.8078 10.4424 17.8078 10.193C17.8078 6.71352 14.977 3.88273 11.4975 3.88273C8.01795 3.88273 5.18717 6.71352 5.18717 10.193C5.18717 12.3324 6.25779 14.2266 7.89092 15.368L7.3242 16.4087C7.23607 16.3866 7.14373 16.3745 7.04904 16.3745C6.77014 16.3745 6.51514 16.4762 6.31826 16.6445L5.09201 15.7824C5.13889 15.6587 5.16467 15.5246 5.16467 15.3845C5.16467 14.7629 4.65889 14.2566 4.03686 14.2566C3.41482 14.2566 2.90904 14.7624 2.90904 15.3845C2.90904 15.6516 3.00279 15.8973 3.15842 16.0909L2.02404 17.6101C1.89186 17.5557 1.74748 17.5257 1.59607 17.5257C0.974043 17.5257 0.468262 18.0315 0.468262 18.6535C0.468262 19.2755 0.974043 19.7813 1.59607 19.7813C2.21811 19.7813 2.72389 19.2755 2.72389 18.6535C2.72389 18.3863 2.63014 18.1407 2.47451 17.9476L3.60889 16.4284C3.74107 16.4827 3.88545 16.5127 4.03686 16.5127C4.31576 16.5127 4.57076 16.411 4.76764 16.2427L5.99389 17.1048C5.94701 17.2285 5.92123 17.3626 5.92123 17.5027C5.92123 18.1248 6.42701 18.6305 7.04904 18.6305C7.67107 18.6305 8.17686 18.1248 8.17686 17.5027C8.17686 17.1779 8.03857 16.8849 7.81826 16.6787L8.36717 15.6709C9.29061 16.2005 10.3594 16.5038 11.4984 16.5038C12.6947 16.5038 13.814 16.1691 14.7684 15.5888L18.4472 19.9112C18.7565 20.2745 19.2014 20.4854 19.7006 20.5055C19.7269 20.5065 19.7531 20.507 19.7794 20.507C20.3025 20.507 20.8092 20.2984 21.18 19.9276C21.5695 19.538 21.78 18.999 21.7579 18.4482C21.7378 17.949 21.5269 17.5041 21.1636 17.1948L16.8544 13.5268C17.2397 12.9099 17.5219 12.2223 17.6756 11.4877L18.6084 11.7488C18.6084 11.7563 18.608 11.7643 18.608 11.7718C18.608 12.3938 19.1137 12.8996 19.7358 12.8996C20.3578 12.8996 20.8636 12.3938 20.8636 11.7718C20.8636 11.3898 20.6723 11.0518 20.3812 10.8479L22.2867 5.7432C22.3256 5.74742 22.365 5.7493 22.4053 5.7493C23.0273 5.7493 23.5331 5.24352 23.5331 4.62148C23.5331 3.99945 23.0254 3.49414 22.4034 3.49414ZM1.59654 19.2179C1.28482 19.2179 1.03123 18.9643 1.03123 18.6526C1.03123 18.3409 1.28482 18.0873 1.59654 18.0873C1.90826 18.0873 2.16186 18.3409 2.16186 18.6526C2.16186 18.9643 1.90826 19.2179 1.59654 19.2179ZM4.03686 15.9498C3.72514 15.9498 3.47154 15.6962 3.47154 15.3845C3.47154 15.0727 3.72514 14.8191 4.03686 14.8191C4.34857 14.8191 4.60217 15.0727 4.60217 15.3845C4.60217 15.6962 4.34857 15.9498 4.03686 15.9498ZM7.04904 18.0676C6.73732 18.0676 6.48373 17.814 6.48373 17.5023C6.48373 17.1905 6.73732 16.937 7.04904 16.937C7.36076 16.937 7.61436 17.1905 7.61436 17.5023C7.61436 17.814 7.36076 18.0676 7.04904 18.0676ZM21.195 18.4712C21.2104 18.8598 21.0558 19.2554 20.7815 19.5301C20.5069 19.8048 20.1108 19.959 19.7226 19.9435C19.3823 19.9299 19.0814 19.7888 18.8751 19.5465L16.1906 16.3927L17.6442 14.9391L20.798 17.6237C21.0403 17.8295 21.1814 18.1304 21.195 18.4712ZM17.2144 14.573L15.8245 15.9629L15.2372 15.2729C15.7279 14.9105 16.1644 14.4793 16.5323 13.9927L17.2144 14.573ZM11.4979 15.9413C8.32826 15.9413 5.75014 13.3627 5.75014 10.1935C5.75014 7.0243 8.32826 4.44523 11.4979 4.44523C14.6676 4.44523 17.2458 7.02383 17.2458 10.193C17.2458 13.3623 14.6672 15.9413 11.4979 15.9413ZM19.7344 12.3371C19.4226 12.3371 19.169 12.0835 19.169 11.7718C19.169 11.4601 19.4226 11.2065 19.7344 11.2065C20.0461 11.2065 20.2997 11.4601 20.2997 11.7718C20.2997 12.0835 20.0461 12.3371 19.7344 12.3371ZM22.4034 5.1868C22.0917 5.1868 21.8381 4.9332 21.8381 4.62148C21.8381 4.30977 22.0917 4.05617 22.4034 4.05617C22.7151 4.05617 22.9687 4.31023 22.9687 4.62148C22.9687 4.93273 22.7151 5.1868 22.4034 5.1868Z" fill="#B4B4B4"/>
</svg>
