<svg width="24" height="24" viewBox="0 0 24 24" fill="none" xmlns="http://www.w3.org/2000/svg">
<path d="M14.8202 2.85938C11.4127 2.85938 8.64046 5.63163 8.64046 9.03915C8.64046 9.79669 8.77506 10.5328 9.04082 11.2319L3.13192 17.1412C3.04746 17.2257 3 17.3403 3 17.4597V20.6931C3 20.9418 3.20162 21.1435 3.45035 21.1435H6.11497C6.23428 21.1435 6.3487 21.0961 6.43316 21.0118L7.33112 20.1152C7.41575 20.0307 7.46328 19.9161 7.46328 19.7965V18.6939H8.56451C8.81323 18.6939 9.01486 18.4923 9.01486 18.2435V17.8022H9.45628C9.70498 17.8022 9.90664 17.6005 9.90664 17.3518V16.3827H10.8757C10.9951 16.3827 11.1096 16.3353 11.1941 16.2508L12.6269 14.8181C13.3261 15.0841 14.0623 15.2188 14.8202 15.2188C18.2277 15.2188 20.9999 12.4466 20.9999 9.03908C21 5.63163 18.2278 2.85938 14.8202 2.85938ZM14.8202 14.3181C14.0831 14.3181 13.3702 14.1693 12.7012 13.8756C12.5282 13.7997 12.3334 13.8414 12.2058 13.9657C12.2044 13.9671 12.2031 13.9681 12.2017 13.9695L10.6892 15.482H9.45636C9.20763 15.482 9.006 15.6837 9.006 15.9324V16.9014H8.56458C8.31589 16.9014 8.11422 17.1031 8.11422 17.3518V17.7932H7.01297C6.76427 17.7932 6.56261 17.9948 6.56261 18.2435V19.6097L5.92863 20.2427H3.90078V19.6063L9.40532 14.1018C9.56363 13.9435 9.56363 13.6869 9.40532 13.5286C9.24702 13.3703 8.99047 13.3703 8.83205 13.5286L3.90078 18.4599V17.6463L9.88939 11.6572C9.89075 11.6559 9.89178 11.6546 9.89303 11.6533C10.0174 11.5259 10.0593 11.3311 9.98338 11.1579C9.68998 10.489 9.54128 9.77608 9.54128 9.03918C9.54128 6.1283 11.9095 3.76012 14.8203 3.76012C17.7312 3.76012 20.0993 6.12826 20.0993 9.03918C20.0993 11.95 17.731 14.3181 14.8202 14.3181Z" fill="#B4B4B4"/>
<path d="M16.7006 5.46875C15.7704 5.46875 15.0137 6.22547 15.0137 7.15564C15.0137 8.0858 15.7704 8.84252 16.7006 8.84252C17.6307 8.84252 18.3874 8.0858 18.3874 7.15564C18.3874 6.22547 17.6308 5.46875 16.7006 5.46875ZM16.7006 7.94182C16.2671 7.94182 15.9144 7.58913 15.9144 7.15564C15.9144 6.72214 16.2671 6.36946 16.7006 6.36946C17.1341 6.36946 17.4867 6.72214 17.4867 7.15564C17.4867 7.58913 17.1341 7.94182 16.7006 7.94182Z" fill="#B4B4B4"/>
</svg>
