<svg width="24" height="24" viewBox="0 0 24 24" fill="none" xmlns="http://www.w3.org/2000/svg">
<path d="M14.8202 2.85742C11.4127 2.85742 8.64046 5.62968 8.64046 9.03719C8.64046 9.79473 8.77506 10.5309 9.04082 11.23L3.13192 17.1393C3.04746 17.2238 3 17.3383 3 17.4577V20.6912C3 20.9399 3.20162 21.1415 3.45035 21.1415H6.11497C6.23428 21.1415 6.3487 21.0942 6.43316 21.0099L7.33112 20.1133C7.41575 20.0288 7.46328 19.9141 7.46328 19.7946V18.6919H8.56451C8.81323 18.6919 9.01486 18.4903 9.01486 18.2416V17.8002H9.45628C9.70498 17.8002 9.90664 17.5986 9.90664 17.3498V16.3808H10.8757C10.9951 16.3808 11.1096 16.3333 11.1941 16.2489L12.6269 14.8161C13.3261 15.0821 14.0623 15.2169 14.8202 15.2169C18.2277 15.2169 20.9999 12.4446 20.9999 9.03712C21 5.62968 18.2278 2.85742 14.8202 2.85742ZM14.8202 14.3162C14.0831 14.3162 13.3702 14.1673 12.7012 13.8736C12.5282 13.7977 12.3334 13.8395 12.2058 13.9638C12.2044 13.9651 12.2031 13.9662 12.2017 13.9676L10.6892 15.4801H9.45636C9.20763 15.4801 9.006 15.6817 9.006 15.9304V16.8995H8.56458C8.31589 16.8995 8.11422 17.1011 8.11422 17.3498V17.7912H7.01297C6.76427 17.7912 6.56261 17.9929 6.56261 18.2416V19.6078L5.92863 20.2408H3.90078V19.6044L9.40532 14.0999C9.56363 13.9415 9.56363 13.6849 9.40532 13.5267C9.24702 13.3684 8.99047 13.3683 8.83205 13.5267L3.90078 18.458V17.6443L9.88939 11.6553C9.89075 11.6539 9.89178 11.6527 9.89303 11.6514C10.0174 11.5239 10.0593 11.3291 9.98338 11.156C9.68998 10.487 9.54128 9.77413 9.54128 9.03723C9.54128 6.12635 11.9095 3.75816 14.8203 3.75816C17.7312 3.75816 20.0993 6.12631 20.0993 9.03723C20.0993 11.948 17.731 14.3162 14.8202 14.3162Z" fill="white"/>
<path d="M16.7006 5.46875C15.7704 5.46875 15.0137 6.22547 15.0137 7.15564C15.0137 8.0858 15.7704 8.84252 16.7006 8.84252C17.6307 8.84252 18.3874 8.0858 18.3874 7.15564C18.3874 6.22547 17.6308 5.46875 16.7006 5.46875ZM16.7006 7.94182C16.2671 7.94182 15.9144 7.58913 15.9144 7.15564C15.9144 6.72214 16.2671 6.36946 16.7006 6.36946C17.1341 6.36946 17.4867 6.72214 17.4867 7.15564C17.4867 7.58913 17.1341 7.94182 16.7006 7.94182Z" fill="white"/>
</svg>
