<svg width="24" height="24" viewBox="0 0 24 24" fill="none" xmlns="http://www.w3.org/2000/svg">
<path d="M12.0001 2C6.47221 2 2 6.48721 2 12.0001C2 17.5003 6.45605 22.0002 12.0001 22.0002C17.5261 22.0002 22.0002 17.5144 22.0002 12.0001C22.0002 6.49077 17.5307 2 12.0001 2ZM19.0617 17.8966C18.2789 17.4943 17.3919 17.1801 16.5298 16.9563C16.9338 15.578 17.1634 14.0228 17.1958 12.4001H21.1915C21.1042 14.4181 20.3576 16.3462 19.0617 17.8966ZM4.93851 17.8966C3.64258 16.3462 2.89605 14.4181 2.80869 12.4001H6.80437C6.83685 14.0228 7.06642 15.578 7.47034 16.9563C6.60749 17.1805 5.73532 17.4887 4.93851 17.8966ZM4.93851 6.10357C5.73404 6.51113 6.60877 6.81965 7.47034 7.04394C7.06642 8.42223 6.83685 9.97737 6.80437 11.6001H2.80869C2.89605 9.58205 3.64258 7.65402 4.93851 6.10357ZM16.2826 6.28285C15.8776 5.15372 15.2748 3.9745 14.4315 3.12845C15.9579 3.54774 17.364 4.35695 18.4995 5.48956C17.8054 5.82452 17.0093 6.10117 16.2826 6.28285ZM12.4001 6.79541V2.83949C13.3769 3.03089 14.301 3.91958 15.0365 5.39072C15.2047 5.7272 15.3584 6.08537 15.4971 6.46185C14.4775 6.66645 13.4316 6.77357 12.4001 6.79541ZM11.6001 6.79541C10.5599 6.77341 9.51112 6.66453 8.50315 6.46185C8.64183 6.08533 8.79552 5.72716 8.96372 5.39072C9.69929 3.91958 10.6233 3.03085 11.6001 2.83949V6.79541ZM11.6001 7.59558V11.6001H7.6045C7.63694 10.0349 7.85947 8.54075 8.24995 7.22566C9.28608 7.4401 10.4198 7.57158 11.6001 7.59558ZM11.6001 12.4001V16.4046C10.4853 16.4273 9.33732 16.5486 8.24999 16.7746C7.85947 15.4595 7.63694 13.9654 7.6045 12.4001H11.6001ZM11.6001 17.2048V21.1607C10.6233 20.9693 9.69929 20.0806 8.96372 18.6095C8.79548 18.273 8.64183 17.9149 8.50315 17.5384C9.47228 17.3427 10.5269 17.2275 11.6001 17.2048ZM12.4001 17.2048C13.4708 17.2275 14.5212 17.3418 15.4971 17.5384C15.3584 17.9149 15.2047 18.273 15.0365 18.6095C14.3009 20.0806 13.3769 20.9693 12.4001 21.1607V17.2048ZM12.4001 16.4046V12.4001H16.3958C16.3633 13.9654 16.1408 15.4595 15.7502 16.7746C14.7202 16.5606 13.5788 16.4286 12.4001 16.4046ZM12.4001 11.6001V7.59558C13.5937 7.5713 14.7231 7.43794 15.7503 7.22566C16.1408 8.54071 16.3633 10.0349 16.3958 11.6001H12.4001ZM7.71758 6.28285C6.96758 6.09345 6.19513 5.8252 5.50072 5.48956C6.63621 4.35695 8.04231 3.54774 9.56881 3.12845C8.72416 3.97574 8.12163 5.15648 7.71758 6.28285ZM7.71758 17.7174C8.12147 18.8435 8.72408 20.0244 9.56881 20.8718C8.04231 20.4525 6.63621 19.6432 5.50072 18.5107C6.19617 18.1743 6.96898 17.9073 7.71758 17.7174ZM16.2826 17.7174C16.9994 17.8965 17.8057 18.1749 18.4995 18.5107C17.364 19.6432 15.9579 20.4525 14.4315 20.8718C15.2761 20.0244 15.8788 18.8434 16.2826 17.7174ZM17.1959 11.6001C17.1634 9.97737 16.9338 8.42223 16.5299 7.04394C17.4063 6.81633 18.2841 6.50237 19.0617 6.10361C20.3576 7.65402 21.1042 9.58209 21.1915 11.6001H17.1959V11.6001Z" fill="#B4B4B4"/>
</svg>
