<svg width="24" height="24" viewBox="0 0 24 24" fill="none" xmlns="http://www.w3.org/2000/svg">
<path d="M5.84615 23H18.1538C19.1719 23 20 22.1326 20 21.0664V7.44531H15.6923C14.6743 7.44531 13.8462 6.57795 13.8462 5.51172V1H5.84615C4.82814 1 4 1.86737 4 2.93359V21.0664C4 22.1326 4.82814 23 5.84615 23ZM8.30769 10.0664H15.6923C16.0325 10.0664 16.3077 10.3547 16.3077 10.7109C16.3077 11.0672 16.0325 11.3555 15.6923 11.3555H8.30769C7.96755 11.3555 7.69231 11.0672 7.69231 10.7109C7.69231 10.3547 7.96755 10.0664 8.30769 10.0664ZM8.30769 12.6445H15.6923C16.0325 12.6445 16.3077 12.9328 16.3077 13.2891C16.3077 13.6453 16.0325 13.9336 15.6923 13.9336H8.30769C7.96755 13.9336 7.69231 13.6453 7.69231 13.2891C7.69231 12.9328 7.96755 12.6445 8.30769 12.6445ZM8.30769 15.2227H15.6923C16.0325 15.2227 16.3077 15.5109 16.3077 15.8672C16.3077 16.2234 16.0325 16.5117 15.6923 16.5117H8.30769C7.96755 16.5117 7.69231 16.2234 7.69231 15.8672C7.69231 15.5109 7.96755 15.2227 8.30769 15.2227ZM8.30769 17.8008H13.2308C13.5709 17.8008 13.8462 18.0891 13.8462 18.4453C13.8462 18.8016 13.5709 19.0898 13.2308 19.0898H8.30769C7.96755 19.0898 7.69231 18.8016 7.69231 18.4453C7.69231 18.0891 7.96755 17.8008 8.30769 17.8008Z" fill="white"/>
<path d="M15.6744 6H20L15 2V5.46049C15 5.75815 15.3023 6 15.6744 6Z" fill="white"/>
</svg>
