<svg width="85" height="85" viewBox="0 0 85 85" fill="none" xmlns="http://www.w3.org/2000/svg">
<g clip-path="url(#clip0_2143_1669)">
<path d="M83.8669 73.2816C83.7486 72.1487 83.2444 71.0908 82.4389 70.2854L53.8973 41.748L56.9347 38.6994C57.5562 38.0777 57.9882 37.2922 58.1803 36.4344C58.3725 35.5766 58.3168 34.6819 58.0198 33.8545C57.7229 33.0272 57.1968 32.3013 56.503 31.7615C55.8092 31.2216 54.9763 30.8902 54.1013 30.8057L52.0684 30.6102C52.5766 30.1423 52.8923 29.5019 52.9538 28.8139C53.0277 28.0516 53.0632 27.2861 53.0601 26.5203C53.0601 25.717 53.0247 24.9506 52.9567 24.272C52.9093 23.7391 52.7144 23.2299 52.3939 22.8015C52.0733 22.3731 51.6398 22.0425 51.1419 21.8467L47.7504 20.4952C47.2833 18.8502 46.6272 17.2647 45.7954 15.7706L47.2121 12.4457C47.4372 11.9619 47.52 11.4241 47.4508 10.895C47.3815 10.3659 47.1631 9.86747 46.8211 9.45794C46.3267 8.85444 45.7954 8.29486 45.2826 7.76786C44.791 7.27769 44.2427 6.77619 43.601 6.23644C43.1908 5.8987 42.6956 5.68038 42.1696 5.60542C41.6436 5.53045 41.1071 5.60173 40.6189 5.81144L37.2812 7.2451C35.7879 6.4138 34.2022 5.7605 32.5567 5.2986L31.1981 1.92269C31.0095 1.42857 30.6869 0.996823 30.2665 0.675987C29.846 0.355152 29.3444 0.157941 28.8181 0.106521C27.3073 -0.0316007 25.787 -0.0316007 24.2762 0.106521C23.7435 0.151686 23.2339 0.344696 22.8049 0.663817C22.3759 0.982938 22.0445 1.41549 21.8481 1.91277L20.498 5.2986C18.8513 5.75796 17.2649 6.41088 15.772 7.24369L12.4145 5.8086C11.9306 5.6001 11.3985 5.52945 10.877 5.60445C10.3555 5.67946 9.86484 5.89719 9.45932 6.23361C8.89266 6.70394 8.33308 7.20827 7.76924 7.77211C7.20541 8.33594 6.69966 8.88419 6.23358 9.44944C5.89531 9.85623 5.6765 10.3489 5.60147 10.8726C5.52644 11.3963 5.59813 11.9305 5.80857 12.4159L7.24224 15.7706C6.40992 17.2636 5.75748 18.85 5.29857 20.4966L1.89008 21.8552C1.40188 22.05 0.976979 22.3758 0.662249 22.7968C0.347519 23.2178 0.155194 23.7175 0.106492 24.2409C0.0356586 24.9506 0.000241945 25.717 0.000241945 26.5203C-0.00325999 27.2771 0.0312557 28.0336 0.103659 28.7869C0.150171 29.3167 0.343805 29.8229 0.662713 30.2484C0.98162 30.674 1.41311 31.0019 1.90849 31.1953L5.29857 32.5581C5.76021 34.2037 6.41352 35.7895 7.24507 37.2827L5.80857 40.6374C5.6005 41.1253 5.53101 41.6611 5.60774 42.186C5.68447 42.7109 5.90445 43.2044 6.24349 43.6124C6.78749 44.2569 7.28899 44.8066 7.78341 45.301C8.26507 45.7699 8.84024 46.3182 9.45224 46.8197C9.85676 47.1625 10.3503 47.3834 10.8755 47.4566C11.4007 47.5299 11.9359 47.4524 12.4187 47.2334L15.7748 45.7969C17.269 46.6287 18.8544 47.2847 20.4994 47.7519L21.8594 51.166C22.0549 51.6538 22.3809 52.0783 22.8017 52.3929C23.2226 52.7075 23.722 52.9001 24.2451 52.9496C25.7568 53.0891 27.2781 53.0891 28.7897 52.9496C29.4864 52.8897 30.1363 52.5744 30.6144 52.0642L30.8099 54.0999C30.8952 54.9743 31.227 55.8065 31.7668 56.4997C32.3066 57.1928 33.0321 57.7184 33.859 58.0153C34.6859 58.3121 35.5801 58.368 36.4375 58.1765C37.2949 57.9849 38.0802 57.5538 38.7022 56.9333L41.7522 53.8959L45.4582 57.6147C45.4977 57.6573 45.525 57.7096 45.5376 57.7663L46.4159 62.1466C46.5648 62.8707 46.9587 63.5214 47.5313 63.989C48.104 64.4566 48.8202 64.7125 49.5595 64.7136H53.9101C54.0092 64.7169 54.1031 64.7587 54.1718 64.8301C54.2406 64.9016 54.2788 64.997 54.2784 65.0961V67.632C54.2804 68.4818 54.618 69.2964 55.2177 69.8986L57.9589 72.6399C58.2556 72.945 58.6108 73.1873 59.0031 73.3523C59.3954 73.5173 59.817 73.6017 60.2426 73.6004H63.1042C63.1919 73.6006 63.2766 73.6314 63.3439 73.6876C63.4112 73.7437 63.4567 73.8216 63.4726 73.9078L64.3523 78.2796C64.4832 78.8955 64.784 79.4623 65.2207 79.9159L69.3857 84.0653C69.6823 84.3644 70.0355 84.6016 70.4246 84.7628C70.8138 84.9241 71.2312 85.0063 71.6524 85.0045L81.3169 84.9904C81.8483 84.9882 82.3731 84.8717 82.8556 84.649C83.3381 84.4262 83.7671 84.1023 84.1134 83.6993C84.4598 83.2962 84.7154 82.8234 84.8631 82.3129C85.0107 81.8024 85.0469 81.2661 84.9691 80.7404L83.8669 73.2816ZM71.6439 82.1669C71.5955 82.1669 71.5476 82.1571 71.503 82.1381C71.4585 82.1191 71.4182 82.0914 71.3847 82.0564L67.2508 77.9382C67.1898 77.874 67.1468 77.7948 67.1262 77.7087L66.2478 73.3454C66.1008 72.6185 65.7074 71.9647 65.1342 71.4942C64.561 71.0237 63.843 70.7653 63.1014 70.7628H60.2397C60.1914 70.7628 60.1436 70.7531 60.0991 70.7344C60.0546 70.7157 60.0143 70.6882 59.9805 70.6537L57.218 67.8912C57.1517 67.8206 57.113 67.7286 57.1089 67.632V65.0961C57.11 64.2453 56.7735 63.4289 56.1733 62.8259C55.573 62.223 54.758 61.8829 53.9072 61.8803H49.5567C49.4714 61.8812 49.3885 61.8527 49.3219 61.7995C49.2553 61.7463 49.2091 61.6718 49.1912 61.5884L48.31 57.1968C48.1835 56.5832 47.8766 56.0213 47.4288 55.5832L42.7538 50.894C42.4882 50.6284 42.1279 50.4792 41.7522 50.4792C41.3766 50.4792 41.0163 50.6284 40.7507 50.894L36.6919 54.9287C36.4549 55.175 36.151 55.3465 35.8177 55.422C35.4844 55.4976 35.1362 55.4738 34.8162 55.3537C34.4908 55.2422 34.2046 55.0387 33.9924 54.7679C33.7802 54.4971 33.651 54.1706 33.6206 53.8279L32.9122 46.4329C32.8817 46.1172 32.746 45.8208 32.5269 45.5914C32.3079 45.3619 32.0182 45.2126 31.7042 45.1674C31.3902 45.1221 31.0701 45.1836 30.7952 45.3419C30.5203 45.5002 30.3065 45.7462 30.188 46.0405L28.5305 50.1319C27.1812 50.2762 25.8197 50.2643 24.4732 50.0964L22.8652 46.0419C22.7822 45.8334 22.6508 45.6476 22.4818 45.4998C22.3128 45.352 22.1112 45.2465 21.8934 45.1919C20.0299 44.7285 18.2456 43.9903 16.5993 43.0018C16.4073 42.8848 16.19 42.8156 15.9658 42.7998C15.7415 42.784 15.5167 42.8222 15.3102 42.9111L11.2542 44.6352C10.7329 44.2102 10.2399 43.7399 9.76958 43.2823C9.28384 42.7998 8.83091 42.2853 8.41383 41.7424L10.128 37.7474C10.2166 37.5412 10.255 37.317 10.2399 37.0931C10.2249 36.8692 10.1569 36.6521 10.0416 36.4596C9.05472 34.8146 8.32116 33.0304 7.86557 31.1669C7.81182 30.9482 7.70667 30.7454 7.55884 30.5753C7.41101 30.4053 7.22477 30.2731 7.01558 30.1894L2.92566 28.5348C2.86474 27.9086 2.83358 27.2399 2.83358 26.5203C2.82657 25.8371 2.86919 25.1544 2.96108 24.4774L7.01274 22.8639C7.2226 22.7797 7.40926 22.6465 7.55714 22.4755C7.70501 22.3045 7.8098 22.1005 7.86274 21.8807C8.31356 20.0195 9.04693 18.2384 10.0373 16.5994C10.1534 16.4069 10.222 16.1897 10.2375 15.9655C10.253 15.7414 10.215 15.5168 10.1266 15.3102L8.41807 11.2543C8.82891 10.7556 9.26807 10.2626 9.77241 9.76961C10.2506 9.28311 10.7613 8.82968 11.301 8.41244L15.3102 10.128C15.5166 10.2167 15.7412 10.2549 15.9653 10.2396C16.1895 10.2244 16.4068 10.156 16.5993 10.0402C18.239 9.05002 20.0205 8.31667 21.8821 7.86561C22.1019 7.81266 22.3058 7.70788 22.4769 7.56C22.6479 7.41213 22.7811 7.22546 22.8652 7.01561L24.5256 2.92852C25.8686 2.77899 27.2247 2.79231 28.5645 2.96819L30.1937 7.01986C30.2774 7.22922 30.4099 7.41557 30.5802 7.56341C30.7504 7.71125 30.9535 7.81631 31.1726 7.86985C33.0345 8.32605 34.8172 9.05958 36.461 10.0459C36.6531 10.1621 36.8703 10.2306 37.0944 10.2456C37.3184 10.2607 37.5428 10.2218 37.7487 10.1323L41.7919 8.40819C42.2991 8.83319 42.8091 9.29077 43.2766 9.75827C43.7612 10.2407 44.2119 10.7562 44.6252 11.301L42.9111 15.3102C42.8227 15.5168 42.7846 15.7414 42.8001 15.9655C42.8157 16.1897 42.8843 16.4069 43.0003 16.5994C43.9904 18.2446 44.7291 20.0285 45.1919 21.892C45.2465 22.1098 45.352 22.3114 45.4998 22.4804C45.6475 22.6494 45.8334 22.7808 46.0419 22.8639L50.129 24.5214C50.1899 25.139 50.2211 25.8119 50.2211 26.5203C50.2299 27.2036 50.1854 27.8867 50.0879 28.5631L46.0419 30.1937C45.7483 30.3126 45.5031 30.5265 45.3453 30.8011C45.1876 31.0757 45.1264 31.3953 45.1716 31.7088C45.2168 32.0223 45.3657 32.3116 45.5946 32.5305C45.8235 32.7495 46.1191 32.8854 46.4343 32.9165L53.8251 33.6249C54.1684 33.6542 54.4958 33.7828 54.7674 33.9948C55.039 34.2068 55.2432 34.4932 55.3551 34.8191C55.4745 35.1396 55.4979 35.488 55.4224 35.8217C55.3469 36.1553 55.1758 36.4597 54.9301 36.6976L50.8926 40.7493C50.6274 41.0149 50.4785 41.3749 50.4785 41.7502C50.4785 42.1255 50.6274 42.4854 50.8926 42.751L80.4315 72.2885C80.7892 72.6503 81.0088 73.126 81.052 73.6329L81.9842 79.9825L73.1796 71.1779C72.9124 70.9198 72.5545 70.777 72.1831 70.7802C71.8116 70.7835 71.4563 70.9325 71.1937 71.1951C70.931 71.4578 70.782 71.8131 70.7788 72.1845C70.7756 72.556 70.9184 72.9138 71.1764 73.181L80.1496 82.1542L71.6439 82.1669Z" fill="#A4A4A4"/>
<path d="M47.8169 45.8137C47.5497 45.5556 47.1918 45.4128 46.8204 45.4161C46.4489 45.4193 46.0936 45.5683 45.8309 45.8309C45.5683 46.0936 45.4193 46.4489 45.4161 46.8204C45.4128 47.1918 45.5556 47.5497 45.8137 47.8169L55.4286 57.4318C55.6958 57.6898 56.0536 57.8326 56.4251 57.8294C56.7965 57.8262 57.1519 57.6772 57.4145 57.4145C57.6772 57.1519 57.8262 56.7965 57.8294 56.4251C57.8326 56.0536 57.6898 55.6958 57.4318 55.4286L47.8169 45.8137Z" fill="#A4A4A4"/>
<path d="M63.773 61.767C63.507 61.501 63.1462 61.3516 62.77 61.3516C62.3938 61.3516 62.033 61.501 61.767 61.767C61.501 62.033 61.3516 62.3938 61.3516 62.77C61.3516 63.1462 61.501 63.507 61.767 63.773L64.8327 66.8387C65.0999 67.0967 65.4577 67.2395 65.8292 67.2363C66.2006 67.2331 66.5559 67.0841 66.8186 66.8214C67.0813 66.5588 67.2302 66.2035 67.2335 65.832C67.2367 65.4606 67.0939 65.1027 66.8359 64.8355L63.773 61.767Z" fill="#A4A4A4"/>
<path d="M18.417 21.25C17.2898 21.25 16.2088 21.6978 15.4118 22.4948C14.6148 23.2918 14.167 24.3728 14.167 25.5V31.1667C14.167 31.5424 14.3162 31.9027 14.5819 32.1684C14.8476 32.4341 15.2079 32.5833 15.5837 32.5833C15.9594 32.5833 16.3197 32.4341 16.5854 32.1684C16.8511 31.9027 17.0003 31.5424 17.0003 31.1667V29.75H19.8337V31.1667C19.8337 31.5424 19.9829 31.9027 20.2486 32.1684C20.5143 32.4341 20.8746 32.5833 21.2503 32.5833C21.626 32.5833 21.9864 32.4341 22.2521 32.1684C22.5177 31.9027 22.667 31.5424 22.667 31.1667V25.5C22.667 24.3728 22.2192 23.2918 21.4222 22.4948C20.6252 21.6978 19.5442 21.25 18.417 21.25ZM17.0003 26.9167V25.5C17.0003 25.1243 17.1496 24.7639 17.4153 24.4983C17.6809 24.2326 18.0413 24.0833 18.417 24.0833C18.7927 24.0833 19.1531 24.2326 19.4187 24.4983C19.6844 24.7639 19.8337 25.1243 19.8337 25.5V26.9167H17.0003Z" fill="#A4A4A4"/>
<path d="M38.2497 21.25C37.874 21.25 37.5136 21.3993 37.2479 21.6649C36.9823 21.9306 36.833 22.2909 36.833 22.6667V31.1667C36.833 31.5424 36.9823 31.9027 37.2479 32.1684C37.5136 32.4341 37.874 32.5833 38.2497 32.5833C38.6254 32.5833 38.9857 32.4341 39.2514 32.1684C39.5171 31.9027 39.6663 31.5424 39.6663 31.1667V22.6667C39.6663 22.2909 39.5171 21.9306 39.2514 21.6649C38.9857 21.3993 38.6254 21.25 38.2497 21.25Z" fill="#A4A4A4"/>
<path d="M29.75 21.25H26.9167C26.5409 21.25 26.1806 21.3993 25.9149 21.6649C25.6493 21.9306 25.5 22.2909 25.5 22.6667V31.1667C25.5 31.5424 25.6493 31.9027 25.9149 32.1684C26.1806 32.4341 26.5409 32.5833 26.9167 32.5833C27.2924 32.5833 27.6527 32.4341 27.9184 32.1684C28.1841 31.9027 28.3333 31.5424 28.3333 31.1667V29.75H29.75C30.8772 29.75 31.9582 29.3022 32.7552 28.5052C33.5522 27.7082 34 26.6272 34 25.5C34 24.3728 33.5522 23.2918 32.7552 22.4948C31.9582 21.6978 30.8772 21.25 29.75 21.25ZM29.75 26.9167H28.3333V24.0833H29.75C30.1257 24.0833 30.4861 24.2326 30.7517 24.4983C31.0174 24.7639 31.1667 25.1243 31.1667 25.5C31.1667 25.8757 31.0174 26.2361 30.7517 26.5017C30.4861 26.7674 30.1257 26.9167 29.75 26.9167Z" fill="#A4A4A4"/>
</g>
<defs>
<clipPath id="clip0_2143_1669">
<rect width="85" height="85" fill="white"/>
</clipPath>
</defs>
</svg>
