<svg width="43" height="43" viewBox="0 0 43 43" fill="none" xmlns="http://www.w3.org/2000/svg">
<g clip-path="url(#clip0_78_2411)">
<path d="M23.3454 3.35035L3.655 0.358268C2.74125 0.214934 1.80958 0.465768 1.11083 1.05702C0.412083 1.66618 0 2.5441 0 3.45785V41.2083C0 42.1937 0.80625 42.9999 1.79167 42.9999H7.61458V33.5937C7.61458 31.8558 9.01208 30.4583 10.75 30.4583H15.2292C16.9671 30.4583 18.3646 31.8558 18.3646 33.5937V42.9999H25.9792V6.44993C25.9792 4.9091 24.8683 3.60118 23.3454 3.35035ZM9.85417 26.427H7.16667C6.42492 26.427 5.82292 25.825 5.82292 25.0833C5.82292 24.3415 6.42492 23.7395 7.16667 23.7395H9.85417C10.5959 23.7395 11.1979 24.3415 11.1979 25.0833C11.1979 25.825 10.5959 26.427 9.85417 26.427ZM9.85417 21.052H7.16667C6.42492 21.052 5.82292 20.45 5.82292 19.7083C5.82292 18.9665 6.42492 18.3645 7.16667 18.3645H9.85417C10.5959 18.3645 11.1979 18.9665 11.1979 19.7083C11.1979 20.45 10.5959 21.052 9.85417 21.052ZM9.85417 15.677H7.16667C6.42492 15.677 5.82292 15.075 5.82292 14.3333C5.82292 13.5915 6.42492 12.9895 7.16667 12.9895H9.85417C10.5959 12.9895 11.1979 13.5915 11.1979 14.3333C11.1979 15.075 10.5959 15.677 9.85417 15.677ZM9.85417 10.302H7.16667C6.42492 10.302 5.82292 9.70002 5.82292 8.95827C5.82292 8.21652 6.42492 7.61452 7.16667 7.61452H9.85417C10.5959 7.61452 11.1979 8.21652 11.1979 8.95827C11.1979 9.70002 10.5959 10.302 9.85417 10.302ZM18.8125 26.427H16.125C15.3833 26.427 14.7813 25.825 14.7813 25.0833C14.7813 24.3415 15.3833 23.7395 16.125 23.7395H18.8125C19.5543 23.7395 20.1562 24.3415 20.1562 25.0833C20.1562 25.825 19.5543 26.427 18.8125 26.427ZM18.8125 21.052H16.125C15.3833 21.052 14.7813 20.45 14.7813 19.7083C14.7813 18.9665 15.3833 18.3645 16.125 18.3645H18.8125C19.5543 18.3645 20.1562 18.9665 20.1562 19.7083C20.1562 20.45 19.5543 21.052 18.8125 21.052ZM18.8125 15.677H16.125C15.3833 15.677 14.7813 15.075 14.7813 14.3333C14.7813 13.5915 15.3833 12.9895 16.125 12.9895H18.8125C19.5543 12.9895 20.1562 13.5915 20.1562 14.3333C20.1562 15.075 19.5543 15.677 18.8125 15.677ZM18.8125 10.302H16.125C15.3833 10.302 14.7813 9.70002 14.7813 8.95827C14.7813 8.21652 15.3833 7.61452 16.125 7.61452H18.8125C19.5543 7.61452 20.1562 8.21652 20.1562 8.95827C20.1562 9.70002 19.5543 10.302 18.8125 10.302Z" fill="url(#paint0_linear_78_2411)"/>
<path d="M40.5272 19.4253L27.7705 16.7539V43H39.8643C41.5932 43 42.9997 41.5936 42.9997 39.8646V22.489C42.9997 21.0091 41.991 19.7496 40.5272 19.4253ZM36.2809 37.625H33.5934C32.8517 37.625 32.2497 37.023 32.2497 36.2813C32.2497 35.5395 32.8517 34.9375 33.5934 34.9375H36.2809C37.0227 34.9375 37.6247 35.5395 37.6247 36.2813C37.6247 37.023 37.0227 37.625 36.2809 37.625ZM36.2809 32.25H33.5934C32.8517 32.25 32.2497 31.648 32.2497 30.9063C32.2497 30.1645 32.8517 29.5625 33.5934 29.5625H36.2809C37.0227 29.5625 37.6247 30.1645 37.6247 30.9063C37.6247 31.648 37.0227 32.25 36.2809 32.25ZM36.2809 26.875H33.5934C32.8517 26.875 32.2497 26.273 32.2497 25.5313C32.2497 24.7895 32.8517 24.1875 33.5934 24.1875H36.2809C37.0227 24.1875 37.6247 24.7895 37.6247 25.5313C37.6247 26.273 37.0227 26.875 36.2809 26.875Z" fill="url(#paint1_linear_78_2411)"/>
</g>
<defs>
<linearGradient id="paint0_linear_78_2411" x1="-0.322649" y1="21.6555" x2="27.2966" y2="21.6555" gradientUnits="userSpaceOnUse">
<stop stop-color="#27AE60"/>
<stop offset="1" stop-color="#0052CC"/>
</linearGradient>
<linearGradient id="paint1_linear_78_2411" x1="27.5814" y1="29.8746" x2="43.772" y2="29.8746" gradientUnits="userSpaceOnUse">
<stop stop-color="#27AE60"/>
<stop offset="1" stop-color="#0052CC"/>
</linearGradient>
<clipPath id="clip0_78_2411">
<rect width="43" height="43" fill="white"/>
</clipPath>
</defs>
</svg>
