<svg width="28" height="28" viewBox="0 0 28 28" fill="none" xmlns="http://www.w3.org/2000/svg">
<path d="M27.6393 22.2247L16.1541 3.17746C15.7016 2.42709 14.8762 1.96094 14 1.96094C13.1237 1.96094 12.2983 2.42709 11.8458 3.17752L0.360688 22.2247C-0.106945 23.0003 -0.120781 23.9719 0.32454 24.7605C0.769969 25.5491 1.6092 26.039 2.51483 26.039H25.4851C26.3907 26.039 27.23 25.5491 27.6755 24.7605C28.1208 23.9718 28.1069 23.0001 27.6393 22.2247ZM26.0881 23.8641C25.9655 24.0812 25.7344 24.2161 25.4851 24.2161H2.51483C2.26551 24.2161 2.03445 24.0812 1.9119 23.8642C1.78929 23.647 1.79312 23.3795 1.9218 23.1661L13.407 4.11885C13.5316 3.9123 13.7588 3.78395 14 3.78395C14.2412 3.78395 14.4684 3.9123 14.593 4.11885L26.0781 23.1661C26.2069 23.3796 26.2107 23.647 26.0881 23.8641Z" fill="#EAB308"/>
<path d="M14.0081 9.46094C13.3146 9.46094 12.7734 9.83303 12.7734 10.4927C12.7734 12.5053 13.0102 15.3974 13.0102 17.41C13.0102 17.9343 13.4669 18.1542 14.0081 18.1542C14.414 18.1542 14.989 17.9343 14.989 17.41C14.989 15.3974 15.2258 12.5053 15.2258 10.4927C15.2258 9.83309 14.6677 9.46094 14.0081 9.46094Z" fill="#EAB308"/>
<path d="M14.025 19.3203C13.2809 19.3203 12.7227 19.9122 12.7227 20.6226C12.7227 21.3161 13.2808 21.925 14.025 21.925C14.7184 21.925 15.3104 21.3161 15.3104 20.6226C15.3104 19.9122 14.7184 19.3203 14.025 19.3203Z" fill="#EAB308"/>
</svg>
