<svg width="24" height="24" viewBox="0 0 24 24" fill="none" xmlns="http://www.w3.org/2000/svg">
<g clip-path="url(#clip0_2346_446)">
<path d="M1.649 4.73313C1.65613 4.4078 1.8551 4.11744 2.15613 3.99329L11.6858 0.0620064C11.8864 -0.0206603 12.1115 -0.0206603 12.3119 0.0619551L21.8473 3.99324C22.1497 4.11796 22.3491 4.41026 22.3547 4.73708C22.4764 11.938 19.7249 19.3927 13.5352 23.4915C12.614 24.1015 11.4887 24.1975 10.4228 23.5886C7.6991 22.0326 1.3792 17.1026 1.649 4.73313ZM3.28213 5.30252C3.21705 16.396 8.80013 20.7816 11.2335 22.163C11.6709 22.4113 12.2186 22.3964 12.6287 22.1248C18.1849 18.4455 20.7086 11.7654 20.7163 5.30052L11.9991 1.70657L3.28213 5.30252Z" fill="#27AE60"/>
<path d="M15.868 9.02608V7.95003C15.868 5.77952 14.0634 4.01367 11.8451 4.01367C9.62694 4.01367 7.82227 5.77952 7.82227 7.95003V9.02608C7.25556 9.34131 6.87109 9.94577 6.87109 10.6385V15.5576C6.87109 16.5745 7.6992 17.4019 8.71715 17.4019H14.9732C15.9911 17.4019 16.8192 16.5745 16.8192 15.5576V10.6385C16.8191 9.94577 16.4347 9.34131 15.868 9.02608ZM11.8451 5.65311C13.1585 5.65311 14.227 6.68352 14.227 7.95003V8.79413H9.46315V7.95003C9.46315 6.68352 10.5317 5.65311 11.8451 5.65311ZM15.1782 15.5576C15.1782 15.6705 15.0862 15.7625 14.9731 15.7625H8.71709C8.60397 15.7625 8.51197 15.6705 8.51197 15.5576V10.6385C8.51197 10.5255 8.60397 10.4336 8.71709 10.4336H14.9731C15.0863 10.4336 15.1783 10.5255 15.1783 10.6385L15.1782 15.5576Z" fill="#27AE60"/>
<path d="M12.8705 12.4016C12.8705 11.8357 12.4113 11.377 11.8449 11.377C11.2785 11.377 10.8193 11.8357 10.8193 12.4016C10.8193 12.7365 10.9809 13.033 11.2296 13.2199V14.751H12.4603V13.2199C12.709 13.033 12.8705 12.7365 12.8705 12.4016Z" fill="#27AE60"/>
</g>
<defs>
<clipPath id="clip0_2346_446">
<rect width="24" height="24" fill="white"/>
</clipPath>
</defs>
</svg>
