<svg width="23" height="25" viewBox="0 0 23 25" fill="none" xmlns="http://www.w3.org/2000/svg">
<path d="M22.7037 20.2565L13.2694 4.61062C12.8978 3.99424 12.2198 3.61133 11.5 3.61133C10.7802 3.61133 10.1022 3.99424 9.73046 4.61066L0.29628 20.2565C-0.0878474 20.8936 -0.0992126 21.6918 0.266586 22.3396C0.632475 22.9873 1.32185 23.3898 2.06575 23.3898H20.9342C21.6781 23.3898 22.3675 22.9873 22.7334 22.3395C23.0992 21.6917 23.0878 20.8935 22.7037 20.2565ZM21.4295 21.6032C21.3288 21.7815 21.139 21.8923 20.9342 21.8923H2.06575C1.86095 21.8923 1.67116 21.7816 1.57049 21.6033C1.46977 21.4249 1.47292 21.2052 1.57862 21.0298L11.0129 5.3839C11.1152 5.21423 11.3019 5.1088 11.5 5.1088C11.6981 5.1088 11.8848 5.21423 11.9871 5.3839L21.4213 21.0298C21.5271 21.2052 21.5302 21.4249 21.4295 21.6032Z" fill="#D32030"/>
<path d="M11.5073 9.77148C10.9377 9.77148 10.4932 10.0771 10.4932 10.619C10.4932 12.2722 10.6876 14.6478 10.6876 16.3011C10.6877 16.7318 11.0628 16.9124 11.5074 16.9124C11.8408 16.9124 12.3131 16.7318 12.3131 16.3011C12.3131 14.6479 12.5076 12.2722 12.5076 10.619C12.5076 10.0772 12.0492 9.77148 11.5073 9.77148Z" fill="#D32030"/>
<path d="M11.5209 17.8711C10.9097 17.8711 10.4512 18.3573 10.4512 18.9409C10.4512 19.5105 10.9096 20.0106 11.5209 20.0106C12.0906 20.0106 12.5768 19.5105 12.5768 18.9409C12.5768 18.3573 12.0905 17.8711 11.5209 17.8711Z" fill="#D32030"/>
</svg>
