<svg width="20" height="20" viewBox="0 0 20 20" fill="none" xmlns="http://www.w3.org/2000/svg">
<path d="M14.1667 10.8335C13.4296 10.8359 12.7141 11.0826 12.132 11.5349C11.55 11.9873 11.1344 12.6198 10.9501 13.3335H9.05008C8.84725 12.548 8.36489 11.8634 7.6934 11.408C7.02192 10.9527 6.20742 10.7579 5.40258 10.8601C4.59773 10.9623 3.8578 11.3546 3.32148 11.9633C2.78515 12.5721 2.48926 13.3555 2.48926 14.1668C2.48926 14.9782 2.78515 15.7616 3.32148 16.3704C3.8578 16.9791 4.59773 17.3714 5.40258 17.4736C6.20742 17.5758 7.02192 17.381 7.6934 16.9257C8.36489 16.4703 8.84725 15.7857 9.05008 15.0002H10.9501C11.1061 15.6043 11.4284 16.1525 11.8806 16.5824C12.3327 17.0123 12.8964 17.3067 13.5076 17.4321C14.1187 17.5575 14.7528 17.5089 15.3377 17.2917C15.9226 17.0746 16.4348 16.6976 16.8161 16.2038C17.1974 15.7099 17.4324 15.119 17.4944 14.4982C17.5564 13.8773 17.4429 13.2516 17.1669 12.6921C16.8909 12.1326 16.4634 11.6617 15.933 11.3332C15.4026 11.0046 14.7906 10.8315 14.1667 10.8335ZM5.83341 15.8335C5.50378 15.8335 5.18154 15.7358 4.90746 15.5526C4.63338 15.3695 4.41976 15.1092 4.29361 14.8047C4.16747 14.5001 4.13446 14.165 4.19877 13.8417C4.26308 13.5184 4.42181 13.2214 4.6549 12.9883C4.88799 12.7552 5.18496 12.5965 5.50826 12.5322C5.83156 12.4679 6.16667 12.5009 6.47122 12.627C6.77576 12.7532 7.03606 12.9668 7.21919 13.2409C7.40233 13.515 7.50008 13.8372 7.50008 14.1668C7.50008 14.6089 7.32448 15.0328 7.01192 15.3454C6.69936 15.6579 6.27544 15.8335 5.83341 15.8335ZM14.1667 15.8335C13.8371 15.8335 13.5149 15.7358 13.2408 15.5526C12.9667 15.3695 12.7531 15.1092 12.6269 14.8047C12.5008 14.5001 12.4678 14.165 12.5321 13.8417C12.5964 13.5184 12.7551 13.2214 12.9882 12.9883C13.2213 12.7552 13.5183 12.5965 13.8416 12.5322C14.1649 12.4679 14.5 12.5009 14.8046 12.627C15.1091 12.7532 15.3694 12.9668 15.5525 13.2409C15.7357 13.515 15.8334 13.8372 15.8334 14.1668C15.8334 14.6089 15.6578 15.0328 15.3453 15.3454C15.0327 15.6579 14.6088 15.8335 14.1667 15.8335Z" fill="#287392"/>
<path d="M17.5003 8.33333H17.292L16.1503 4.30833C16.0004 3.78749 15.6852 3.32949 15.2523 3.00333C14.8195 2.67717 14.2923 2.50052 13.7503 2.5H6.25033C5.70833 2.50052 5.18118 2.67717 4.74831 3.00333C4.31543 3.32949 4.00028 3.78749 3.85033 4.30833L2.70866 8.33333H2.50033C2.27931 8.33333 2.06735 8.42113 1.91107 8.57741C1.75479 8.73369 1.66699 8.94565 1.66699 9.16667C1.66699 9.38768 1.75479 9.59964 1.91107 9.75592C2.06735 9.9122 2.27931 10 2.50033 10H17.5003C17.7213 10 17.9333 9.9122 18.0896 9.75592C18.2459 9.59964 18.3337 9.38768 18.3337 9.16667C18.3337 8.94565 18.2459 8.73369 18.0896 8.57741C17.9333 8.42113 17.7213 8.33333 17.5003 8.33333ZM4.44199 8.33333L5.45866 4.76667C5.50874 4.59493 5.61275 4.44387 5.75532 4.33582C5.89789 4.22776 6.07145 4.16846 6.25033 4.16667H13.7503C13.9292 4.16846 14.1028 4.22776 14.2453 4.33582C14.3879 4.44387 14.4919 4.59493 14.542 4.76667L15.5587 8.33333H4.44199Z" fill="#287392"/>
</svg>
