<svg width="17" height="18" viewBox="0 0 17 18" fill="none" xmlns="http://www.w3.org/2000/svg">
<path d="M14.8753 14.25H2.12533C1.93746 14.25 1.7573 14.329 1.62446 14.4697C1.49162 14.6103 1.41699 14.8011 1.41699 15C1.41699 15.1989 1.49162 15.3897 1.62446 15.5303C1.7573 15.671 1.93746 15.75 2.12533 15.75H14.8753C15.0632 15.75 15.2434 15.671 15.3762 15.5303C15.509 15.3897 15.5837 15.1989 15.5837 15C15.5837 14.8011 15.509 14.6103 15.3762 14.4697C15.2434 14.329 15.0632 14.25 14.8753 14.25Z" fill="#27AE60"/>
<path d="M8.49997 1.5C8.31211 1.5 8.13194 1.57902 7.9991 1.71967C7.86626 1.86032 7.79164 2.05109 7.79164 2.25V10.1925L5.46122 7.7175C5.32784 7.57627 5.14693 7.49693 4.9583 7.49693C4.76967 7.49693 4.58877 7.57627 4.45539 7.7175C4.322 7.85873 4.24707 8.05027 4.24707 8.25C4.24707 8.44973 4.322 8.64127 4.45539 8.7825L7.99705 12.5325C8.0629 12.6028 8.14124 12.6586 8.22756 12.6967C8.31388 12.7347 8.40646 12.7543 8.49997 12.7543C8.59348 12.7543 8.68606 12.7347 8.77238 12.6967C8.85869 12.6586 8.93704 12.6028 9.00289 12.5325L12.5446 8.7825C12.6106 8.71257 12.663 8.62955 12.6987 8.53819C12.7345 8.44682 12.7529 8.3489 12.7529 8.25C12.7529 8.15111 12.7345 8.05318 12.6987 7.96181C12.663 7.87045 12.6106 7.78743 12.5446 7.7175C12.4785 7.64757 12.4001 7.5921 12.3138 7.55426C12.2275 7.51641 12.135 7.49693 12.0416 7.49693C11.9482 7.49693 11.8557 7.51641 11.7695 7.55426C11.6832 7.5921 11.6048 7.64757 11.5387 7.7175L9.2083 10.1925V2.25C9.2083 2.05109 9.13367 1.86032 9.00084 1.71967C8.868 1.57902 8.68783 1.5 8.49997 1.5Z" fill="#27AE60"/>
</svg>
