<svg width="18" height="18" viewBox="0 0 18 18" fill="none" xmlns="http://www.w3.org/2000/svg">
<g clip-path="url(#clip0_78_2471)">
<path d="M11.6367 5.625C11.928 5.625 12.1641 5.3889 12.1641 5.09766C12.1641 4.80641 11.928 4.57031 11.6367 4.57031C11.3455 4.57031 11.1094 4.80641 11.1094 5.09766C11.1094 5.3889 11.3455 5.625 11.6367 5.625Z" fill="#287392"/>
<path d="M17.4375 14.7656V4.57031H14.625V1.58203C14.625 0.709699 13.9153 0 13.043 0H4.95703C4.0847 0 3.375 0.709699 3.375 1.58203V4.57031H0.5625V14.7656H6.76368L6.28984 16.9453H5.34375V18H12.6562V16.9453H11.7102L11.2364 14.7656H17.4375ZM13.5703 6.67969H11.6367C10.7644 6.67969 10.0547 5.96999 10.0547 5.09766C10.0547 4.22532 10.7644 3.51562 11.6367 3.51562H13.5703V6.67969ZM4.42969 1.58203C4.42969 1.29125 4.66625 1.05469 4.95703 1.05469H13.043C13.3337 1.05469 13.5703 1.29125 13.5703 1.58203V2.46094H11.6367C10.1828 2.46094 9 3.64377 9 5.09766C9 6.55154 10.1828 7.73438 11.6367 7.73438H13.5703V8.61328C13.5703 8.90406 13.3337 9.14062 13.043 9.14062H4.95703C4.66625 9.14062 4.42969 8.90406 4.42969 8.61328V1.58203ZM1.61719 5.625H3.375V8.61328C3.375 9.48561 4.0847 10.1953 4.95703 10.1953H13.043C13.9153 10.1953 14.625 9.48561 14.625 8.61328V5.625H16.3828V13.7109H1.61719V5.625ZM10.6309 16.9453H7.36917L7.84301 14.7656H10.157L10.6309 16.9453Z" fill="#287392"/>
<path d="M14.8008 12.6562C15.092 12.6562 15.3281 12.4202 15.3281 12.1289C15.3281 11.8377 15.092 11.6016 14.8008 11.6016C14.5095 11.6016 14.2734 11.8377 14.2734 12.1289C14.2734 12.4202 14.5095 12.6562 14.8008 12.6562Z" fill="#287392"/>
</g>
<defs>
<clipPath id="clip0_78_2471">
<rect width="18" height="18" fill="white"/>
</clipPath>
</defs>
</svg>
