<svg width="24" height="24" viewBox="0 0 24 24" fill="none" xmlns="http://www.w3.org/2000/svg">
<path d="M1.29279 12.7066L5.29279 16.7066C5.38503 16.8021 5.49538 16.8783 5.61738 16.9307C5.73939 16.9831 5.87061 17.0107 6.00339 17.0118C6.13617 17.013 6.26784 16.9877 6.39074 16.9374C6.51364 16.8871 6.62529 16.8129 6.71918 16.719C6.81308 16.6251 6.88733 16.5134 6.93761 16.3905C6.98789 16.2676 7.01319 16.136 7.01204 16.0032C7.01088 15.8704 6.9833 15.7392 6.93089 15.6172C6.87848 15.4952 6.8023 15.3848 6.70679 15.2926L3.41379 11.9996L6.70679 8.70659C6.8023 8.61435 6.87848 8.504 6.93089 8.382C6.9833 8.25999 7.01088 8.12877 7.01204 7.99599C7.01319 7.86321 6.98789 7.73154 6.93761 7.60864C6.88733 7.48574 6.81308 7.37409 6.71918 7.2802C6.62529 7.18631 6.51364 7.11205 6.39074 7.06177C6.26784 7.01149 6.13617 6.98619 6.00339 6.98734C5.87061 6.9885 5.73939 7.01608 5.61738 7.06849C5.49538 7.1209 5.38503 7.19708 5.29279 7.29259L1.29279 11.2926C1.10532 11.4801 1 11.7344 1 11.9996C1 12.2648 1.10532 12.5191 1.29279 12.7066Z" fill="#27AE60"/>
<path d="M18.7076 7.29259C18.6153 7.19708 18.505 7.1209 18.383 7.06849C18.261 7.01608 18.1298 6.9885 17.997 6.98734C17.8642 6.98619 17.7325 7.01149 17.6096 7.06177C17.4867 7.11205 17.3751 7.18631 17.2812 7.2802C17.1873 7.37409 17.113 7.48574 17.0627 7.60864C17.0125 7.73154 16.9872 7.86321 16.9883 7.99599C16.9895 8.12877 17.0171 8.25999 17.0695 8.382C17.1219 8.504 17.1981 8.61435 17.2936 8.70659L20.5866 11.9996L17.2936 15.2926C17.1981 15.3848 17.1219 15.4952 17.0695 15.6172C17.0171 15.7392 16.9895 15.8704 16.9883 16.0032C16.9872 16.136 17.0125 16.2676 17.0627 16.3905C17.113 16.5134 17.1873 16.6251 17.2812 16.719C17.3751 16.8129 17.4867 16.8871 17.6096 16.9374C17.7325 16.9877 17.8642 17.013 17.997 17.0118C18.1298 17.0107 18.261 16.9831 18.383 16.9307C18.505 16.8783 18.6153 16.8021 18.7076 16.7066L22.7076 12.7066C22.895 12.5191 23.0004 12.2648 23.0004 11.9996C23.0004 11.7344 22.895 11.4801 22.7076 11.2926L18.7076 7.29259Z" fill="#27AE60"/>
<path d="M13.0385 4.72589L9.03847 18.7259C8.96566 18.9808 8.99701 19.2541 9.12564 19.4859C9.25428 19.7176 9.46967 19.8889 9.72447 19.9619C9.81406 19.9866 9.90653 19.9994 9.99947 19.9999C10.2168 19.9997 10.4281 19.9288 10.6015 19.7978C10.7749 19.6668 10.9009 19.4829 10.9605 19.2739L14.9605 5.27389C15.0022 5.14604 15.0176 5.01109 15.006 4.87713C14.9943 4.74316 14.9557 4.61292 14.8926 4.4942C14.8294 4.37548 14.743 4.27072 14.6384 4.18618C14.5338 4.10164 14.4133 4.03906 14.2839 4.00219C14.1546 3.96532 14.0192 3.95491 13.8857 3.97158C13.7523 3.98826 13.6236 4.03168 13.5073 4.09924C13.3911 4.1668 13.2896 4.25712 13.2091 4.36479C13.1285 4.47246 13.0705 4.59528 13.0385 4.72589Z" fill="#27AE60"/>
</svg>
