<svg width="17" height="17" viewBox="0 0 17 17" fill="none" xmlns="http://www.w3.org/2000/svg">
<g clip-path="url(#clip0_78_2427)">
<path d="M0.996094 8.5C0.996094 4.36233 4.36233 0.996094 8.5 0.996094C10.0561 0.996094 11.5402 1.46794 12.7897 2.34371H11.8244C11.5493 2.34371 11.3263 2.5667 11.3263 2.84176C11.3263 3.11681 11.5493 3.3398 11.8244 3.3398H14.1583C14.4333 3.3398 14.6563 3.11681 14.6563 2.84176V0.507842C14.6563 0.232787 14.4333 0.00979492 14.1583 0.00979492C13.8832 0.00979492 13.6602 0.232787 13.6602 0.507842V1.74761C12.1851 0.614225 10.3896 0 8.5 0C6.22957 0 4.09504 0.884166 2.48957 2.48957C0.884166 4.09504 0 6.22957 0 8.5C0 9.99152 0.394154 11.4611 1.13986 12.7499C1.23217 12.9095 1.39945 12.9986 1.5714 12.9986C1.65607 12.9986 1.74187 12.977 1.82039 12.9316C2.05846 12.7938 2.13978 12.4892 2.00205 12.2511C1.34396 11.1137 0.996094 9.81657 0.996094 8.5Z" fill="#7648BC"/>
<path d="M15.8602 4.25014C15.7224 4.01204 15.4176 3.93076 15.1796 4.06852C14.9416 4.20628 14.8603 4.51095 14.998 4.74905C15.6561 5.88636 16.0039 7.18344 16.0039 8.50008C16.0039 12.6378 12.6377 16.004 8.50004 16.004C6.94404 16.004 5.46026 15.532 4.21086 14.6564H5.17568C5.45073 14.6564 5.67372 14.4334 5.67372 14.1583C5.67372 13.8833 5.45073 13.6603 5.17568 13.6603H2.8418C2.56674 13.6603 2.34375 13.8833 2.34375 14.1583V16.4922C2.34375 16.7673 2.56674 16.9903 2.8418 16.9903C3.11685 16.9903 3.33984 16.7673 3.33984 16.4922V15.2512C4.81493 16.385 6.61022 17.0001 8.50004 17.0001C10.7705 17.0001 12.905 16.1159 14.5105 14.5105C16.1159 12.905 17 10.7705 17 8.50008C17 7.00849 16.6059 5.53889 15.8602 4.25014Z" fill="#7648BC"/>
<path d="M12.9301 7.49936C12.9643 7.37176 12.9464 7.23582 12.8804 7.12144L11.8843 5.39614C11.8182 5.28175 11.7094 5.19828 11.5818 5.16408C11.4542 5.12992 11.3183 5.14778 11.2039 5.21385L10.637 5.5412C10.4353 5.39491 10.2207 5.27053 9.99454 5.16903V4.51562C9.99454 4.24057 9.77154 4.01758 9.49649 4.01758H7.5043C7.22925 4.01758 7.00626 4.24057 7.00626 4.51562V5.169C6.78014 5.27053 6.56552 5.39488 6.36384 5.54117L5.79687 5.21382C5.68248 5.14775 5.54641 5.12985 5.41895 5.16405C5.29135 5.19822 5.18257 5.28169 5.11653 5.39611L4.12044 7.12141C4.0544 7.23579 4.0365 7.37176 4.07067 7.49932C4.10487 7.62692 4.18834 7.7357 4.30272 7.80174L4.86695 8.12746C4.85436 8.25114 4.84805 8.37559 4.84805 8.5C4.84805 8.62441 4.85436 8.74886 4.86695 8.87247L4.30272 9.1982C4.18834 9.26424 4.10487 9.37304 4.07067 9.50061C4.0365 9.62821 4.0544 9.76414 4.12044 9.87853L5.11653 11.6038C5.18257 11.7182 5.29138 11.8017 5.41895 11.8359C5.54658 11.8701 5.68251 11.8522 5.79687 11.7861L6.36384 11.4588C6.56548 11.6051 6.78014 11.7294 7.00626 11.8309V12.4844C7.00626 12.7594 7.22925 12.9824 7.5043 12.9824H9.49649C9.77154 12.9824 9.99454 12.7594 9.99454 12.4844V11.831C10.2207 11.7295 10.4353 11.6051 10.637 11.4588L11.2039 11.7862C11.3183 11.8522 11.4543 11.8701 11.5818 11.836C11.7094 11.8018 11.8182 11.7183 11.8843 11.6039L12.8804 9.87859C12.9464 9.76421 12.9643 9.62824 12.9301 9.50068C12.8959 9.37308 12.8125 9.2643 12.6981 9.19826L12.1338 8.87254C12.1464 8.74886 12.1527 8.62441 12.1527 8.5C12.1527 8.37559 12.1464 8.25114 12.1338 8.12753L12.6981 7.8018C12.8125 7.73573 12.8959 7.62696 12.9301 7.49936ZM11.1029 7.96556C11.1386 8.14031 11.1566 8.32014 11.1566 8.5C11.1566 8.67986 11.1386 8.85969 11.1029 9.03444C11.06 9.24441 11.1562 9.45828 11.3418 9.56542L11.7687 9.81186L11.2706 10.6745L10.8402 10.426C10.6545 10.3188 10.421 10.3424 10.2606 10.4848C9.98896 10.7259 9.67894 10.9055 9.33914 11.0187C9.13567 11.0864 8.99841 11.2767 8.99841 11.4912V11.9863H8.00232V11.4912C8.00232 11.2768 7.86505 11.0864 7.66159 11.0187C7.32179 10.9055 7.01177 10.7259 6.74017 10.4848C6.57976 10.3424 6.34621 10.3188 6.16051 10.426L5.73009 10.6745L5.23205 9.81186L5.65891 9.56542C5.84448 9.45828 5.94073 9.24441 5.89784 9.03444C5.86224 8.85969 5.84415 8.67986 5.84415 8.5C5.84415 8.32014 5.86224 8.14031 5.8979 7.96556C5.9408 7.75559 5.84455 7.54172 5.65897 7.43458L5.23211 7.18814L5.73016 6.32553L6.16057 6.57402C6.34628 6.68127 6.5798 6.65759 6.74023 6.51518C7.01183 6.2741 7.32185 6.0945 7.66169 5.98134C7.86512 5.91358 8.00238 5.72322 8.00238 5.5088V5.01367H8.99848V5.5088C8.99848 5.72322 9.13574 5.91358 9.33917 5.98134C9.67901 6.0945 9.98903 6.2741 10.2606 6.51518C10.421 6.65759 10.6546 6.68123 10.8403 6.57402L11.2707 6.32553L11.7687 7.18814L11.3419 7.43458C11.1562 7.54172 11.06 7.75559 11.1029 7.96556Z" fill="#7648BC"/>
<path d="M8.5 6.67383C7.49305 6.67383 6.67383 7.49305 6.67383 8.5C6.67383 9.50695 7.49305 10.3262 8.5 10.3262C9.50695 10.3262 10.3262 9.50695 10.3262 8.5C10.3262 7.49305 9.50695 6.67383 8.5 6.67383ZM8.5 9.33008C8.04229 9.33008 7.66992 8.95771 7.66992 8.5C7.66992 8.04229 8.04229 7.66992 8.5 7.66992C8.95771 7.66992 9.33008 8.04229 9.33008 8.5C9.33008 8.95771 8.95771 9.33008 8.5 9.33008Z" fill="#7648BC"/>
</g>
<defs>
<clipPath id="clip0_78_2427">
<rect width="17" height="17" fill="white"/>
</clipPath>
</defs>
</svg>
