<svg width="19" height="19" viewBox="0 0 19 19" fill="none" xmlns="http://www.w3.org/2000/svg">
<g clip-path="url(#clip0_78_2435)">
<path d="M14.4721 12.2895L14.4789 12.2703C14.5274 12.0879 14.6033 11.9139 14.7039 11.7542C14.8316 11.621 14.979 11.5082 15.1411 11.4198C15.4679 11.2531 15.7392 10.995 15.9219 10.6769C16.0494 10.335 16.0775 9.96407 16.0031 9.60689C15.969 9.4169 15.9639 9.22283 15.988 9.03131C16.0455 8.857 16.1291 8.6924 16.2358 8.54309C16.4605 8.24645 16.5956 7.89164 16.625 7.52065C16.5955 7.14986 16.4605 6.79525 16.2361 6.49861C16.1292 6.34921 16.0455 6.18447 15.9879 6.00999C15.9638 5.81861 15.9689 5.62467 16.003 5.43481C16.0774 5.07765 16.0494 4.70677 15.9222 4.36483C15.7394 4.04699 15.4683 3.78903 15.1418 3.62225C14.9795 3.53368 14.832 3.42064 14.7042 3.28709C14.6036 3.12738 14.5276 2.95341 14.4788 2.77105C14.3946 2.41405 14.2099 2.08863 13.9466 1.83328C13.6471 1.62746 13.2936 1.51456 12.9303 1.50869C12.7458 1.50053 12.5637 1.4635 12.3907 1.39893C12.2363 1.30121 12.0976 1.18066 11.9793 1.04137C11.7491 0.752267 11.4389 0.53733 11.0873 0.423359C10.7316 0.373034 10.3689 0.428283 10.0444 0.582246C9.8715 0.65812 9.68782 0.706418 9.5 0.72538C9.31234 0.706487 9.12881 0.658227 8.95612 0.582365C8.63149 0.42815 8.2686 0.373076 7.91283 0.424032C7.56142 0.537586 7.25125 0.752121 7.02102 1.04086C6.90298 1.18035 6.76427 1.30094 6.6097 1.39841C6.43667 1.46298 6.25458 1.50002 6.07006 1.50818C5.70676 1.51404 5.35325 1.62695 5.0538 1.83276C4.79043 2.08829 4.60561 2.41379 4.52113 2.77089C4.47255 2.95325 4.3967 3.12723 4.29614 3.28694C4.16845 3.42019 4.02098 3.53296 3.85894 3.6213C3.53211 3.788 3.26081 4.04613 3.07808 4.36428C2.95065 4.70614 2.9225 5.07707 2.99689 5.43425C3.031 5.62425 3.03609 5.81832 3.01197 6.00983C2.95447 6.18414 2.87093 6.34874 2.76418 6.49805C2.53943 6.79474 2.40437 7.1496 2.375 7.52065C2.40454 7.89144 2.53946 8.24605 2.76387 8.54269C2.87081 8.69209 2.95449 8.85683 3.01205 9.03131C3.03619 9.22276 3.0311 9.41677 2.99697 9.60669C2.92264 9.96385 2.95064 10.3347 3.07776 10.6767C3.26057 10.9945 3.53169 11.2525 3.85823 11.4193C4.02045 11.5078 4.16805 11.6209 4.29582 11.7544C4.39644 11.9141 4.47241 12.0881 4.52117 12.2705L4.52849 12.2915C4.52723 12.2936 4.52509 12.2946 4.52386 12.2967L2.48207 15.8332C2.40745 15.9623 2.37082 16.1099 2.37643 16.2589C2.38204 16.4079 2.42965 16.5523 2.51377 16.6755C2.59788 16.7986 2.71509 16.8955 2.85188 16.9549C2.98866 17.0144 3.13946 17.0339 3.28688 17.0114L4.66494 16.8019L5.17287 18.1011C5.22662 18.2402 5.31889 18.3612 5.43887 18.4499C5.55886 18.5385 5.70161 18.5912 5.85042 18.6016C5.87089 18.6032 5.89139 18.604 5.91189 18.604C6.05068 18.6043 6.18708 18.5679 6.3072 18.4983C6.42732 18.4288 6.52686 18.3287 6.59569 18.2082L8.71055 14.5446C8.79463 14.5176 8.87648 14.4878 8.95561 14.4589C9.12848 14.3831 9.31218 14.3348 9.5 14.3159C9.68766 14.3348 9.87119 14.3831 10.0439 14.4589C10.123 14.4879 10.2058 14.5166 10.2899 14.5438L10.2917 14.549L12.4042 18.2082C12.473 18.3287 12.5726 18.4288 12.6927 18.4983C12.8128 18.5679 12.9492 18.6043 13.088 18.604C13.1085 18.604 13.129 18.6032 13.1495 18.6016C13.2984 18.5911 13.4412 18.5384 13.5613 18.4497C13.6814 18.361 13.7737 18.2399 13.8275 18.1007L14.335 16.8019L15.7125 17.0114C15.86 17.0341 16.0109 17.0146 16.1477 16.9552C16.2846 16.8958 16.4019 16.799 16.4861 16.6758C16.5703 16.5526 16.618 16.4082 16.6236 16.2591C16.6292 16.11 16.5926 15.9623 16.5179 15.8332L14.4721 12.2895ZM5.91007 17.8123L5.28734 16.2185C5.25436 16.135 5.19407 16.0652 5.11629 16.0203C5.03852 15.9755 4.94785 15.9583 4.85905 15.9715L3.16781 16.229L4.96533 13.1155C4.99283 13.1481 5.02225 13.179 5.05345 13.208C5.35289 13.4138 5.7064 13.5267 6.06971 13.5326C6.25422 13.5408 6.43631 13.5778 6.60935 13.6424C6.76373 13.7401 6.90241 13.8606 7.02066 13.9999C7.22828 14.2447 7.48865 14.4393 7.78224 14.5691L5.91007 17.8123ZM10.3154 13.7152C10.0568 13.6045 9.78086 13.5399 9.5 13.5243C9.21911 13.5397 8.94311 13.6043 8.68458 13.7152C8.50009 13.8052 8.29688 13.8503 8.09162 13.8466C7.8954 13.7568 7.72359 13.6212 7.59066 13.4512C7.41207 13.2429 7.19844 13.0674 6.95942 12.9326C6.70464 12.824 6.43284 12.7607 6.15628 12.7457C5.94634 12.7454 5.73968 12.6936 5.55441 12.5949C5.4164 12.4277 5.3196 12.2304 5.27183 12.0189C5.19834 11.75 5.07918 11.4956 4.91954 11.2671C4.7385 11.0586 4.52238 10.8834 4.28094 10.7495C4.08754 10.6543 3.92027 10.5134 3.79367 10.339C3.73998 10.129 3.73654 9.90931 3.78361 9.69773C3.83055 9.4204 3.83107 9.13718 3.78516 8.85968C3.71141 8.5961 3.59309 8.34708 3.43532 8.12343C3.29795 7.94742 3.20572 7.74048 3.16667 7.52065C3.20567 7.30084 3.2979 7.09393 3.43532 6.91799C3.59324 6.69443 3.71157 6.44539 3.78516 6.18174C3.83109 5.9042 3.83056 5.62094 3.78361 5.34357C3.73645 5.13199 3.74003 4.91225 3.79406 4.70232C3.92053 4.52748 4.08788 4.38627 4.28149 4.29101C4.52305 4.15724 4.73932 3.9822 4.92049 3.77381C5.07975 3.54528 5.19861 3.29111 5.27187 3.02236C5.31985 2.81079 5.41676 2.61342 5.55481 2.44607C5.74008 2.34734 5.94674 2.29557 6.15667 2.29529C6.43328 2.28018 6.70512 2.21686 6.95994 2.10818C7.19913 1.97369 7.4128 1.79817 7.59117 1.58964C7.72414 1.41977 7.89594 1.28429 8.09214 1.1946C8.29725 1.19132 8.50025 1.23634 8.68474 1.32602C8.94327 1.43675 9.21919 1.5014 9.5 1.51705C9.78089 1.50163 10.0569 1.437 10.3154 1.3261C10.5 1.23645 10.7032 1.19144 10.9084 1.19468C11.1046 1.2845 11.2764 1.42011 11.4093 1.59012C11.5879 1.79843 11.8016 1.97392 12.0406 2.10866C12.2954 2.21728 12.5672 2.28056 12.8437 2.29565C13.0537 2.29593 13.2603 2.3477 13.4456 2.44642C13.5836 2.61363 13.6804 2.81092 13.7282 3.0224C13.8017 3.29135 13.9208 3.54567 14.0805 3.77425C14.2615 3.98272 14.4776 4.15789 14.7191 4.29184C14.9125 4.38698 15.0797 4.52788 15.2063 4.70232C15.26 4.91231 15.2635 5.132 15.2164 5.34357C15.1694 5.62091 15.1689 5.90412 15.2148 6.18163C15.2886 6.44521 15.4069 6.69422 15.5647 6.91788C15.7021 7.09388 15.7943 7.30082 15.8333 7.52065C15.7943 7.74046 15.7021 7.94737 15.5647 8.12331C15.4068 8.34688 15.2884 8.59591 15.2148 8.85956C15.1689 9.1371 15.1694 9.42036 15.2164 9.69773C15.2636 9.90931 15.26 10.1291 15.2059 10.339C15.0795 10.5138 14.9121 10.655 14.7185 10.7503C14.4769 10.8841 14.2607 11.0591 14.0795 11.2675C13.9202 11.496 13.8014 11.7502 13.7281 12.0189C13.6802 12.2305 13.5833 12.4279 13.4452 12.5953C13.2599 12.694 13.0533 12.7458 12.8433 12.7461C12.5667 12.7612 12.2949 12.8245 12.0401 12.9332C11.8009 13.0677 11.5872 13.2432 11.4088 13.4517C11.2759 13.6216 11.1041 13.7571 10.9079 13.8468C10.7028 13.8498 10.4999 13.8047 10.3154 13.7152ZM14.1411 15.9715C14.0524 15.9583 13.9617 15.9756 13.884 16.0204C13.8062 16.0652 13.7459 16.135 13.7129 16.2185L13.0899 17.8123L11.2176 14.5691C11.5111 14.4395 11.7714 14.2451 11.979 14.0004C12.097 13.8609 12.2357 13.7404 12.3903 13.6429C12.5633 13.5783 12.7454 13.5413 12.9299 13.5331C13.2932 13.5273 13.6468 13.4144 13.9462 13.2085C13.9775 13.1793 14.0071 13.1483 14.0347 13.1156L15.8322 16.229L14.1411 15.9715ZM14.25 7.52065C14.25 6.58119 13.9714 5.66283 13.4495 4.88169C12.9275 4.10056 12.1857 3.49174 11.3177 3.13222C10.4498 2.77271 9.49473 2.67864 8.57332 2.86192C7.65191 3.0452 6.80554 3.49759 6.14124 4.16189C5.47694 4.82619 5.02455 5.67256 4.84127 6.59397C4.65799 7.51538 4.75206 8.47045 5.11157 9.3384C5.47109 10.2063 6.07991 10.9482 6.86104 11.4701C7.64217 11.9921 8.56054 12.2707 9.5 12.2707C10.7594 12.2693 11.9667 11.7684 12.8572 10.8779C13.7477 9.98739 14.2486 8.78001 14.25 7.52065ZM9.5 11.479C8.71712 11.479 7.95181 11.2468 7.30087 10.8119C6.64992 10.3769 6.14257 9.75873 5.84298 9.03544C5.54338 8.31215 5.46499 7.51626 5.61773 6.74842C5.77046 5.98058 6.14745 5.27527 6.70104 4.72169C7.25462 4.1681 7.95993 3.79111 8.72777 3.63838C9.49561 3.48564 10.2915 3.56403 11.0148 3.86363C11.7381 4.16322 12.3563 4.67057 12.7912 5.32152C13.2262 5.97246 13.4583 6.73777 13.4583 7.52065C13.4571 8.57009 13.0397 9.57619 12.2976 10.3182C11.5555 11.0603 10.5494 11.4777 9.5 11.479ZM11.3029 6.00382C11.3462 6.03263 11.3833 6.06969 11.4123 6.11288C11.4412 6.15606 11.4614 6.20453 11.4716 6.25551C11.4818 6.30649 11.4818 6.35898 11.4717 6.40998C11.4616 6.46098 11.4415 6.50948 11.4127 6.55272L9.82933 8.92772C9.79683 8.97641 9.75394 9.01729 9.70374 9.0474C9.65354 9.07752 9.59729 9.09613 9.53903 9.10189C9.52589 9.10319 9.51275 9.10398 9.5 9.10398C9.39503 9.10396 9.29436 9.06224 9.22015 8.988L8.03265 7.80051C7.96054 7.72585 7.92064 7.62586 7.92155 7.52208C7.92245 7.41829 7.96408 7.31901 8.03747 7.24562C8.11086 7.17223 8.21014 7.1306 8.31392 7.1297C8.41771 7.12879 8.5177 7.16869 8.59235 7.2408L9.43853 8.08697L10.754 6.11358C10.8122 6.02627 10.9028 5.96567 11.0057 5.94509C11.1086 5.9245 11.2155 5.94563 11.3029 6.00382Z" fill="#7648BC"/>
</g>
<defs>
<clipPath id="clip0_78_2435">
<rect width="19" height="19" fill="white"/>
</clipPath>
</defs>
</svg>
