<svg width="24" height="24" viewBox="0 0 24 24" fill="none" xmlns="http://www.w3.org/2000/svg">
<path d="M6.01002 8.15459C7.21285 8.15459 8.19148 7.17574 8.19148 5.97269C8.19148 4.76964 7.21285 3.79102 6.01002 3.79102C4.80675 3.79102 3.82812 4.76964 3.82812 5.97269C3.82812 7.17574 4.80675 8.15459 6.01002 8.15459ZM6.01002 4.69668C6.71359 4.69668 7.28582 5.26913 7.28582 5.97269C7.28582 6.67648 6.71359 7.24893 6.01002 7.24893C5.30646 7.24893 4.73379 6.67648 4.73379 5.97269C4.73379 5.26913 5.30646 4.69668 6.01002 4.69668Z" fill="#808080"/>
<path d="M19.9353 21.0463H20.1993C20.4496 21.0463 20.6521 20.8435 20.6521 20.5935C20.6521 20.3434 20.4496 20.1406 20.1993 20.1406H19.9353C19.685 20.1406 19.4824 20.3434 19.4824 20.5935C19.4824 20.8435 19.685 21.0463 19.9353 21.0463Z" fill="#808080"/>
<path d="M3.76701 22.831H20.2321C21.6852 22.831 22.8677 21.6488 22.8677 20.1956V19.2628C22.8677 18.7633 22.4613 18.3571 21.962 18.3571H21.5861V7.53895C21.5861 6.31556 20.5907 5.32013 19.3671 5.32013H10.7996C10.769 5.1376 10.6352 4.98675 10.4485 4.94933L9.68254 4.79566C9.61842 4.59467 9.5375 4.39789 9.43932 4.20663L9.87181 3.55679C9.99165 3.37681 9.96777 3.13757 9.81477 2.98522L8.99667 2.16977C8.84366 2.01743 8.60575 1.99421 8.42665 2.11295L7.77615 2.54433C7.58688 2.44572 7.39009 2.36391 7.18667 2.29934L7.03322 1.53387C6.99077 1.32227 6.80504 1.16992 6.58924 1.16992H5.43063C5.21483 1.16992 5.02909 1.32204 4.98664 1.53365L4.83275 2.29934C4.62977 2.36391 4.43299 2.44572 4.24327 2.54433L3.59322 2.11295C3.41368 1.99421 3.17576 2.01743 3.0232 2.16955L2.20465 2.985C2.05165 3.13757 2.02777 3.37681 2.14761 3.55679L2.5801 4.20707C2.48369 4.39678 2.40321 4.59334 2.33953 4.79566L1.57405 4.94933C1.36223 4.99178 1.21011 5.17751 1.21011 5.39332V6.54905C1.21011 6.76441 1.36179 6.94992 1.57273 6.99281L2.33909 7.14892C2.40233 7.34924 2.48325 7.54625 2.58054 7.73795L2.14761 8.38867C2.02777 8.56843 2.05165 8.80723 2.20421 8.9598L2.41294 9.16852V18.3571H2.0375C1.53823 18.3571 1.13184 18.7633 1.13184 19.2628V20.1956C1.13184 21.6488 2.31388 22.831 3.76701 22.831ZM10.4498 6.99281C10.6607 6.94992 10.8124 6.76441 10.8124 6.54905V6.22579H19.3671C20.0914 6.22579 20.6805 6.81482 20.6805 7.53895V18.3571H14.6836C14.1414 18.3571 13.6346 18.6479 13.3613 19.1155C13.2495 19.3068 13.0425 19.4257 12.821 19.4257H10.7253C10.5037 19.4257 10.2968 19.3068 10.1849 19.1158C9.91161 18.6479 9.40527 18.3571 8.86312 18.3571H3.3186V9.90725C3.4139 9.91233 3.51096 9.89036 3.59454 9.8345L4.24151 9.40179C4.43166 9.50041 4.62933 9.58222 4.83275 9.64656L4.98664 10.4118C5.02909 10.6234 5.21483 10.7755 5.43063 10.7755H6.58924C6.80504 10.7755 6.99077 10.6232 7.03322 10.4116L7.18667 9.64678C7.39186 9.58222 7.59042 9.50041 7.78057 9.40179L8.42444 9.83406C8.60398 9.955 8.8441 9.93201 8.99711 9.77834L9.81521 8.9598C9.96777 8.80723 9.99165 8.56821 9.87181 8.38867L9.43932 7.73817C9.53794 7.54492 9.61931 7.34791 9.68299 7.14892L10.4498 6.99281ZM2.11577 6.17914V5.76434L2.79103 5.6288C2.96527 5.59386 3.1028 5.46031 3.14304 5.2874C3.21335 4.9867 3.3354 4.68687 3.49725 4.42044C3.58835 4.27031 3.58437 4.08104 3.48664 3.93466L3.10722 3.36442L3.40085 3.07212L3.97529 3.45331C4.12343 3.55148 4.31536 3.55413 4.46571 3.45972C4.73192 3.29323 5.02025 3.17339 5.32405 3.10307C5.49696 3.06305 5.63095 2.92552 5.66589 2.75107L5.80165 2.07558H6.21822L6.35353 2.75085C6.38847 2.9253 6.52246 3.06305 6.69537 3.10307C6.9996 3.17339 7.28838 3.29345 7.55327 3.4595C7.70406 3.55413 7.89599 3.5517 8.04413 3.45331L8.61901 3.07212L8.9122 3.3642L8.53278 3.93466C8.43505 4.08104 8.43107 4.27031 8.52217 4.42044C8.68711 4.69218 8.81049 4.992 8.87948 5.2874C8.91972 5.46031 9.05725 5.59386 9.23148 5.6288L9.90675 5.76434V6.17914L9.23016 6.31689C9.05636 6.35226 8.91883 6.48603 8.87904 6.65894C8.81138 6.95169 8.69109 7.24377 8.52128 7.52679C8.43107 7.6767 8.43549 7.86509 8.53278 8.0108L8.91264 8.5817L8.6199 8.87467L8.05253 8.4937C7.9035 8.39398 7.71114 8.39133 7.55946 8.48596C7.29546 8.65157 7.00492 8.77141 6.69625 8.84217C6.5229 8.88197 6.38847 9.01994 6.35353 9.19461L6.21822 9.86988H5.80165L5.66589 9.19439C5.63095 9.01972 5.49652 8.88197 5.32317 8.84217C5.01847 8.7723 4.72883 8.65245 4.46261 8.48574C4.31182 8.3911 4.11901 8.39442 3.97087 8.49326L3.39997 8.87511L3.10678 8.5817L3.48664 8.0108C3.58393 7.86509 3.58835 7.6767 3.49814 7.52679C3.33142 7.2493 3.21202 6.95722 3.14348 6.65894C3.10368 6.48603 2.96615 6.35226 2.79236 6.31689L2.11577 6.17914ZM2.0375 19.2628H8.86312C9.08467 19.2628 9.29118 19.3815 9.40306 19.5728C9.6768 20.0406 10.1836 20.3314 10.7253 20.3314H12.821C13.3627 20.3314 13.8695 20.0406 14.1432 19.5726C14.2551 19.3815 14.462 19.2628 14.6836 19.2628C16.5032 19.2627 11.395 19.263 21.962 19.2623V20.1956C21.962 21.1495 21.1859 21.9254 20.2321 21.9254H3.76701C2.81314 21.9254 2.0375 21.1495 2.0375 20.1956V19.2628Z" fill="#808080"/>
<path d="M17.7731 21.0463H18.0371C18.2874 21.0463 18.49 20.8435 18.49 20.5935C18.49 20.3434 18.2874 20.1406 18.0371 20.1406H17.7731C17.5228 20.1406 17.3203 20.3434 17.3203 20.5935C17.3203 20.8435 17.5228 21.0463 17.7731 21.0463Z" fill="#808080"/>
<path d="M3.66426 21.101H8.35794C8.60824 21.101 8.81077 20.8982 8.81077 20.6481C8.81077 20.3981 8.60824 20.1953 8.35794 20.1953H3.66426C3.41396 20.1953 3.21143 20.3981 3.21143 20.6481C3.21143 20.8982 3.41396 21.101 3.66426 21.101Z" fill="#808080"/>
<path d="M15.5214 10.3223C15.2711 10.3223 15.0686 10.525 15.0686 10.7751V16.6071H14.3283V12.1336C14.3283 11.8835 14.1258 11.6808 13.8755 11.6808H12.0628C11.8125 11.6808 11.61 11.8835 11.61 12.1336V16.6071H10.8649V13.9449C10.8649 13.6948 10.6623 13.4921 10.412 13.4921H8.59895C8.34865 13.4921 8.14612 13.6948 8.14612 13.9449V16.6071H7.51728C7.26699 16.6071 7.06445 16.8098 7.06445 17.0599C7.06445 17.31 7.26699 17.5127 7.51728 17.5127C10.0342 17.5127 15.731 17.5127 18.2464 17.5127C18.4966 17.5127 18.6992 17.31 18.6992 17.0599C18.6992 16.8098 18.4966 16.6071 18.2464 16.6071H17.7873V10.7751C17.7873 10.525 17.5848 10.3223 17.3345 10.3223H15.5214ZM9.95921 16.6071H9.05178V14.3977H9.95921V16.6071ZM13.4226 16.6071H12.5157V12.5864H13.4226V16.6071ZM16.8817 16.6071H15.9742V11.2279H16.8817V16.6071Z" fill="#808080"/>
<path d="M7.32596 12.5438C7.42894 12.772 7.69705 12.8734 7.92472 12.7704L17.3776 8.50478C17.6057 8.40197 17.707 8.13376 17.604 7.9058C17.5014 7.67806 17.2329 7.57546 17.0052 7.67916L7.55237 11.9448C7.32419 12.0476 7.22292 12.3158 7.32596 12.5438Z" fill="#808080"/>
</svg>
