<svg width="24" height="24" viewBox="0 0 24 24" fill="none" xmlns="http://www.w3.org/2000/svg">
<g clip-path="url(#clip0_0_151)">
<path d="M1.81953 12.2812C1.82422 12.2859 1.82891 12.2905 1.83359 12.2952L4.41172 14.7327C3.87734 15.5812 3.97578 16.7202 4.71641 17.4609C5.13828 17.8827 5.68672 18.0937 6.23516 18.103C6.25391 18.6655 6.47891 19.2234 6.91016 19.6546C7.33672 20.0812 7.90391 20.3202 8.50859 20.3296C8.51797 20.9109 8.74297 21.4827 9.18359 21.928C10.0414 22.8234 11.5883 22.8234 12.4508 21.928L13.8523 20.5265L14.1664 20.8405C15.0758 21.7499 16.5617 21.7499 17.4711 20.8405L17.4898 20.8218C17.9305 20.3812 18.1555 19.8093 18.1742 19.228C18.7789 19.2327 19.3789 19.003 19.8383 18.5437L19.857 18.5249C20.293 18.089 20.5367 17.5124 20.5414 16.8937C21.132 16.889 21.718 16.6593 22.168 16.2093L22.1867 16.1905C23.0961 15.2812 23.0961 13.7952 22.1867 12.8859L21.9477 12.6468L22.0695 12.5249C27.9148 6.17336 19.2242 -2.50789 12.8773 3.33273L11.6773 4.53273L10.6039 3.48742C8.17578 1.07336 4.23828 1.07336 1.81953 3.49211C-0.603906 5.91555 -0.603906 9.85773 1.81953 12.2812ZM21.1695 15.2155C20.8039 15.5812 20.2133 15.5812 19.8523 15.2155L18.5633 13.9265C18.2023 13.5796 18.2023 12.9562 18.5633 12.6093L18.582 12.5905C18.9289 12.2296 19.5523 12.2296 19.8992 12.5905L21.1883 13.8796C21.5539 14.2452 21.5539 14.8359 21.1883 15.1968L21.1695 15.2155ZM17.518 17.5499L15.4086 15.4405C15.0477 15.0937 15.0477 14.4702 15.4086 14.1234L15.4273 14.1046C15.793 13.739 16.3836 13.739 16.7445 14.1046L17.5602 14.9202L18.8492 16.2093C19.2102 16.5562 19.2102 17.1796 18.8492 17.5265L18.8305 17.5452C18.4742 17.9109 17.8836 17.9109 17.518 17.5499ZM15.1508 19.8468L14.3164 19.0124C13.9555 18.6655 13.9555 18.0421 14.3164 17.6952L14.3352 17.6765C14.7008 17.3109 15.2914 17.3109 15.6523 17.6765L16.4867 18.5109C16.8523 18.8765 16.8523 19.4671 16.4867 19.828L16.468 19.8468C16.107 20.2077 15.5164 20.2077 15.1508 19.8468ZM5.71016 15.3468L10.5336 10.5234C10.557 10.4999 10.5992 10.4999 10.6227 10.5234L11.4008 11.3015C12.3383 12.2812 14.0305 12.2812 14.968 11.3015C15.957 10.3546 15.943 8.63898 14.9398 7.70617L12.6852 5.51711L13.8711 4.33117C15.8586 2.34367 19.0883 2.34367 21.0758 4.33117C23.0633 6.31867 23.0633 9.54836 21.0758 11.5359L20.9539 11.6577L20.893 11.5968C20.0211 10.6921 18.4555 10.6921 17.5883 11.5968L17.5695 11.6155C17.2883 11.8968 17.0914 12.2343 16.9836 12.5999C16.1352 12.253 15.1273 12.4218 14.443 13.1062L14.4242 13.1249C13.618 13.8984 13.5148 15.2484 14.1758 16.139C13.8758 16.2515 13.5898 16.4296 13.3461 16.6734L13.3273 16.6921C12.6008 17.3952 12.432 18.5812 12.9242 19.4624L11.457 20.9296C11.1195 21.2812 10.5148 21.2812 10.1773 20.9296C9.82109 20.5734 9.82578 19.9968 10.182 19.6452L11.4852 18.3421C11.7617 18.0655 11.7617 17.6249 11.4852 17.3484C11.2086 17.0718 10.768 17.0718 10.4914 17.3484L9.18359 18.6562C8.84609 19.0077 8.24141 19.0077 7.90391 18.6562C7.55234 18.3046 7.55234 17.7327 7.90391 17.3765L9.22109 16.0593C9.49766 15.7827 9.49766 15.3421 9.22109 15.0655C8.94453 14.789 8.50391 14.789 8.22734 15.0655C8.22734 15.0655 6.83984 16.453 6.83516 16.4577C6.52578 16.7671 6.02422 16.7671 5.71484 16.4577C5.40078 16.1577 5.40078 15.6562 5.71016 15.3468ZM2.81328 4.49055C4.68828 2.61555 7.74453 2.61555 9.61953 4.49992L13.9602 8.71867C14.1758 8.92961 14.2977 9.21086 14.3023 9.51086C14.3117 10.5093 13.1023 11.0109 12.3945 10.3077L11.6164 9.52961C11.068 8.95773 10.0883 8.95773 9.53984 9.52961L5.36797 13.7015L2.80859 11.278C0.938281 9.40773 0.938281 6.36086 2.81328 4.49055Z" fill="#27AE60"/>
</g>
<defs>
<clipPath id="clip0_0_151">
<rect width="24" height="24" fill="white"/>
</clipPath>
</defs>
</svg>
