<svg width="24" height="24" viewBox="0 0 24 24" fill="none" xmlns="http://www.w3.org/2000/svg">
<g clip-path="url(#clip0_2262_1476)">
<path d="M20.4853 3.51473C18.2188 1.24823 15.2053 0 12 0C8.79469 0 5.78123 1.24823 3.51473 3.51473C1.24823 5.78123 0 8.79469 0 12C0 15.2053 1.24819 18.2188 3.51469 20.4853C5.78123 22.7518 8.79469 24 12 24C15.2053 24 18.2188 22.7518 20.4853 20.4853C22.7518 18.2188 24 15.2053 24 12C24 8.79469 22.7518 5.78123 20.4853 3.51473ZM21.224 17.013H17.054C17.3253 15.6848 17.4866 14.2432 17.5271 12.75H22.473C22.3641 14.2848 21.9243 15.7297 21.224 17.013ZM12 22.5C10.8757 22.5 9.67598 21.005 8.87916 18.513H15.1208C14.324 21.005 13.1243 22.5 12 22.5ZM8.47744 17.013C8.19933 15.7544 8.01759 14.319 7.9733 12.75H16.0267C15.9825 14.319 15.8007 15.7544 15.5226 17.013H8.47744ZM1.52658 12.75H6.47292C6.51347 14.2432 6.67472 15.6848 6.94603 17.013H2.76914C2.05763 15.7072 1.63242 14.2601 1.52658 12.75ZM2.77598 6.987H6.94598C6.67472 8.3152 6.51347 9.75684 6.47287 11.25H1.52709C1.63594 9.71517 2.07572 8.27034 2.77598 6.987ZM12 1.5C13.1243 1.5 14.324 2.99503 15.1208 5.487H8.87916C9.67598 2.99503 10.8757 1.5 12 1.5ZM15.5226 6.987C15.8007 8.24564 15.9824 9.68095 16.0267 11.25H7.9733C8.01759 9.68095 8.19933 8.24564 8.47744 6.987H15.5226ZM17.5271 11.25C17.4865 9.75684 17.3253 8.3152 17.054 6.987H21.224C21.9242 8.27034 22.364 9.71517 22.4729 11.25H17.5271ZM20.2299 5.487H16.6866C16.5088 4.87153 16.3048 4.29019 16.0755 3.75136C15.7853 3.06961 15.462 2.47425 15.1114 1.97063C17.1538 2.60555 18.9307 3.84872 20.2299 5.487ZM8.88853 1.97063C8.538 2.47425 8.21466 3.06961 7.92455 3.75136C7.69523 4.29019 7.49123 4.87148 7.31339 5.487H3.77006C5.0693 3.84872 6.84614 2.60559 8.88853 1.97063ZM3.76308 18.513H7.31339C7.49119 19.1285 7.69523 19.7098 7.92455 20.2486C8.21564 20.9326 8.5402 21.5296 8.89209 22.0343C7.27978 21.5371 5.80242 20.6516 4.57542 19.4246C4.28513 19.1344 4.01452 18.8297 3.76308 18.513ZM15.1114 22.0294C15.462 21.5257 15.7853 20.9304 16.0755 20.2486C16.3048 19.7098 16.5088 19.1285 16.6866 18.513H20.2299C18.9307 20.1513 17.1538 21.3945 15.1114 22.0294Z" fill="#808080"/>
</g>
<defs>
<clipPath id="clip0_2262_1476">
<rect width="24" height="24" fill="white"/>
</clipPath>
</defs>
</svg>
