<svg width="24" height="24" viewBox="0 0 24 24" fill="none" xmlns="http://www.w3.org/2000/svg">
<g clip-path="url(#clip0_2154_961)">
<path d="M10.8797 12.4349L12.4326 10.8818C12.4631 10.8514 12.4873 10.8152 12.5038 10.7755C12.5203 10.7357 12.5288 10.693 12.5288 10.6499C12.5288 10.6068 12.5203 10.5642 12.5038 10.5244C12.4873 10.4846 12.4631 10.4484 12.4326 10.418L11.6053 9.59072C11.7754 9.2791 11.9117 8.95024 12.012 8.60972H13.1813C13.2683 8.60972 13.3517 8.57515 13.4133 8.51361C13.4748 8.45208 13.5094 8.36862 13.5094 8.28159V6.08559C13.5094 5.99857 13.4748 5.91511 13.4133 5.85357C13.3517 5.79204 13.2683 5.75747 13.1813 5.75747H12.0146C11.9143 5.41647 11.7775 5.08726 11.6066 4.77553L12.4326 3.94941C12.4631 3.91895 12.4873 3.88278 12.5038 3.84297C12.5203 3.80315 12.5288 3.76047 12.5288 3.71737C12.5288 3.67428 12.5203 3.6316 12.5038 3.59178C12.4873 3.55197 12.4631 3.5158 12.4326 3.48534L10.8797 1.93228C10.8493 1.90179 10.8131 1.8776 10.7733 1.8611C10.7335 1.8446 10.6909 1.8361 10.6478 1.8361C10.6047 1.8361 10.562 1.8446 10.5222 1.8611C10.4824 1.8776 10.4463 1.90179 10.4158 1.93228L9.5897 2.75859C9.27797 2.58777 8.94876 2.45098 8.60777 2.35059V1.18359C8.60779 1.1405 8.59932 1.09782 8.58284 1.058C8.56636 1.01818 8.54219 0.981994 8.51171 0.951519C8.48124 0.921045 8.44506 0.896877 8.40524 0.880396C8.36542 0.863915 8.32274 0.855444 8.27964 0.855469H6.08345C6.04036 0.855444 5.99768 0.863915 5.95786 0.880396C5.91804 0.896877 5.88185 0.921045 5.85138 0.951519C5.8209 0.981994 5.79674 1.01818 5.78026 1.058C5.76377 1.09782 5.7553 1.1405 5.75533 1.18359V2.35266C5.41488 2.45309 5.08609 2.58948 4.77452 2.75953L3.94745 1.93228C3.917 1.90179 3.88083 1.87759 3.84101 1.86109C3.8012 1.84458 3.75852 1.83609 3.71542 1.83609C3.67232 1.83609 3.62964 1.84458 3.58983 1.86109C3.55002 1.87759 3.51385 1.90179 3.48339 1.93228L1.93033 3.48534C1.89983 3.5158 1.87564 3.55197 1.85913 3.59178C1.84263 3.6316 1.83413 3.67428 1.83413 3.71737C1.83413 3.76047 1.84263 3.80315 1.85913 3.84297C1.87564 3.88278 1.89983 3.91895 1.93033 3.94941L2.7572 4.77647C2.58716 5.08811 2.45077 5.41696 2.35033 5.75747H1.18164C1.13854 5.75744 1.09586 5.76591 1.05604 5.7824C1.01622 5.79888 0.98004 5.82305 0.949566 5.85352C0.919092 5.88399 0.894924 5.92018 0.878443 5.96C0.861961 5.99982 0.853491 6.0425 0.853516 6.08559V8.28159C0.853491 8.32469 0.861961 8.36737 0.878443 8.40719C0.894924 8.44701 0.919092 8.48319 0.949566 8.51367C0.98004 8.54414 1.01622 8.56831 1.05604 8.58479C1.09586 8.60127 1.13854 8.60974 1.18164 8.60972H2.34845C2.44889 8.95073 2.58574 9.27994 2.75664 9.59166L1.93033 10.418C1.89984 10.4484 1.87565 10.4846 1.85915 10.5244C1.84264 10.5642 1.83415 10.6068 1.83415 10.6499C1.83415 10.693 1.84264 10.7357 1.85915 10.7755C1.87565 10.8152 1.89984 10.8514 1.93033 10.8818L3.48302 12.4349C3.5446 12.4964 3.62805 12.5309 3.71505 12.5309C3.80205 12.5309 3.88549 12.4964 3.94708 12.4349L4.7732 11.6086C5.08502 11.7794 5.41429 11.9163 5.75533 12.0168V13.1838C5.75533 13.2708 5.7899 13.3543 5.85143 13.4158C5.91297 13.4773 5.99643 13.5119 6.08345 13.5119H8.27964C8.36666 13.5119 8.45012 13.4773 8.51166 13.4158C8.5732 13.3543 8.60777 13.2708 8.60777 13.1838V12.0145C8.94822 11.9141 9.27701 11.7777 9.58858 11.6077L10.4158 12.4349C10.4774 12.4964 10.5608 12.5309 10.6478 12.5309C10.7347 12.5309 10.8182 12.4964 10.8797 12.4349ZM9.87452 10.9655C9.8224 10.9133 9.7542 10.8802 9.68095 10.8715C9.60769 10.8629 9.53366 10.8792 9.47083 10.9178C9.0788 11.1589 8.65097 11.3361 8.20333 11.4428C8.13169 11.46 8.06792 11.5008 8.02225 11.5586C7.97658 11.6164 7.95167 11.6879 7.95152 11.7616V12.8547H6.41158V11.7646C6.41147 11.6909 6.38653 11.6193 6.34078 11.5615C6.29503 11.5036 6.23113 11.4629 6.15939 11.4458C5.7118 11.3388 5.28422 11.1609 4.89283 10.9188C4.82993 10.88 4.75579 10.8636 4.6824 10.8721C4.60901 10.8807 4.54065 10.9138 4.48839 10.966L3.71533 11.7385L2.6267 10.6495L3.3992 9.87684C3.4514 9.8246 3.48445 9.75628 3.49303 9.68292C3.5016 9.60957 3.48519 9.53547 3.44645 9.47259C3.20439 9.08097 3.02658 8.65312 2.91977 8.20528C2.9027 8.13354 2.86197 8.06964 2.80414 8.02389C2.74631 7.97814 2.67476 7.9532 2.60102 7.95309H1.50977V6.41353H2.6027C2.67638 6.41341 2.74788 6.38851 2.8057 6.34284C2.86351 6.29717 2.90428 6.23337 2.92145 6.16172C3.0281 5.71416 3.20531 5.28643 3.44645 4.89459C3.48503 4.83168 3.50131 4.7576 3.49267 4.68431C3.48403 4.61101 3.45098 4.54276 3.39883 4.49053L2.6267 3.71728L3.71533 2.62866L4.48858 3.40191C4.54076 3.45407 4.60898 3.48714 4.68225 3.49578C4.75553 3.50442 4.82957 3.48813 4.89245 3.44953C5.28441 3.2085 5.71218 3.03129 6.15977 2.92453C6.2314 2.90733 6.29518 2.86655 6.34085 2.80874C6.38652 2.75094 6.41143 2.67945 6.41158 2.60578V1.51172H7.95152V2.60278C7.95162 2.67652 7.97656 2.74808 8.02231 2.8059C8.06807 2.86373 8.13197 2.90447 8.2037 2.92153C8.65152 3.0283 9.07937 3.20605 9.47102 3.44803C9.53384 3.48694 9.60798 3.50344 9.68138 3.49486C9.75477 3.48628 9.82311 3.45312 9.87527 3.40078L10.6478 2.62828L11.7366 3.71728L10.9641 4.48997C10.9119 4.54226 10.8789 4.61061 10.8703 4.68399C10.8617 4.75737 10.8781 4.83149 10.9168 4.89441C11.1589 5.28595 11.3366 5.71374 11.4433 6.16153C11.4604 6.23327 11.5011 6.29717 11.559 6.34292C11.6168 6.38867 11.6883 6.41361 11.7621 6.41372H12.8531V7.95347H11.76C11.6863 7.95363 11.6148 7.97857 11.557 8.02427C11.4992 8.06998 11.4584 8.1338 11.4413 8.20547C11.3345 8.65306 11.1573 9.08083 10.9163 9.47278C10.8776 9.53561 10.8613 9.60964 10.8699 9.6829C10.8786 9.75616 10.9117 9.82436 10.9639 9.87647L11.7366 10.6499L10.6478 11.7385L9.87452 10.9655Z" fill="#A308F7"/>
<path d="M7.18224 4.34375C6.62045 4.34375 6.07128 4.51034 5.60417 4.82245C5.13707 5.13456 4.773 5.57818 4.55801 6.0972C4.34303 6.61622 4.28678 7.18734 4.39638 7.73833C4.50598 8.28932 4.7765 8.79544 5.17374 9.19268C5.57099 9.58992 6.0771 9.86045 6.62809 9.97005C7.17908 10.0796 7.7502 10.0234 8.26922 9.80841C8.78825 9.59342 9.23186 9.22936 9.54397 8.76225C9.85608 8.29514 10.0227 7.74597 10.0227 7.18419C10.0218 6.43112 9.7223 5.70913 9.1898 5.17663C8.65729 4.64412 7.93531 4.34459 7.18224 4.34375ZM7.18224 9.36875C6.75026 9.36875 6.32798 9.24066 5.96881 9.00067C5.60963 8.76069 5.32967 8.41959 5.16435 8.0205C4.99902 7.62142 4.95574 7.18227 5.03999 6.75859C5.12424 6.33491 5.33222 5.94572 5.63765 5.64024C5.94308 5.33476 6.33223 5.12671 6.75589 5.04239C7.17956 4.95807 7.61871 5.00127 8.01783 5.16653C8.41694 5.33179 8.75809 5.61168 8.99814 5.97082C9.23819 6.32996 9.36635 6.75221 9.36642 7.18419C9.36573 7.76326 9.13539 8.31841 8.72592 8.72787C8.31646 9.13734 7.7613 9.36768 7.18224 9.36837V9.36875Z" fill="#A308F7"/>
<path d="M22.8164 15.3924H21.6494C21.549 15.0514 21.4122 14.7222 21.2414 14.4105L22.0675 13.5842C22.098 13.5537 22.1222 13.5176 22.1387 13.4778C22.1552 13.438 22.1637 13.3953 22.1637 13.3522C22.1637 13.3091 22.1552 13.2665 22.1387 13.2267C22.1222 13.1869 22.098 13.1507 22.0675 13.1203L20.5147 11.5676C20.4842 11.5371 20.448 11.5129 20.4082 11.4964C20.3684 11.4799 20.3257 11.4714 20.2826 11.4714C20.2395 11.4714 20.1968 11.4799 20.157 11.4964C20.1172 11.5129 20.0811 11.5371 20.0506 11.5676L19.2245 12.3935C18.9128 12.2228 18.5836 12.0859 18.2427 11.9854V10.8184C18.2427 10.7313 18.2081 10.6479 18.1466 10.5863C18.0851 10.5248 18.0016 10.4902 17.9146 10.4902H15.7184C15.6314 10.4902 15.5479 10.5248 15.4864 10.5863C15.4249 10.6479 15.3903 10.7313 15.3903 10.8184V11.9876C15.0498 12.088 14.7209 12.2244 14.4093 12.3945L13.5822 11.5676C13.5518 11.5371 13.5156 11.5129 13.4758 11.4964C13.436 11.4799 13.3934 11.4714 13.3503 11.4714C13.3072 11.4714 13.2645 11.4799 13.2247 11.4964C13.1849 11.5129 13.1488 11.5371 13.1183 11.5676L11.5653 13.1203C11.5038 13.1818 11.4693 13.2653 11.4693 13.3522C11.4693 13.4392 11.5038 13.5226 11.5653 13.5842L12.3927 14.4114C12.2226 14.723 12.0863 15.0519 11.986 15.3924H10.8164C10.7294 15.3924 10.6459 15.427 10.5844 15.4885C10.5229 15.5501 10.4883 15.6335 10.4883 15.7205V17.9165C10.4883 18.0036 10.5229 18.087 10.5844 18.1486C10.6459 18.2101 10.7294 18.2447 10.8164 18.2447H11.9834C12.0838 18.5857 12.2206 18.9149 12.3914 19.2266L11.5653 20.0527C11.5038 20.1143 11.4692 20.1978 11.4692 20.2848C11.4692 20.3718 11.5038 20.4552 11.5653 20.5168L13.1183 22.0699C13.1488 22.1003 13.1849 22.1245 13.2247 22.141C13.2645 22.1575 13.3072 22.166 13.3503 22.166C13.3934 22.166 13.436 22.1575 13.4758 22.141C13.5156 22.1245 13.5518 22.1003 13.5822 22.0699L14.4083 21.2449C14.7201 21.4157 15.0493 21.5525 15.3903 21.6529V22.8199C15.3903 22.863 15.3987 22.9056 15.4152 22.9455C15.4317 22.9853 15.4559 23.0215 15.4863 23.0519C15.5168 23.0824 15.553 23.1066 15.5928 23.1231C15.6326 23.1395 15.6753 23.148 15.7184 23.148H17.9144C17.9575 23.148 18.0002 23.1395 18.04 23.1231C18.0798 23.1066 18.116 23.0824 18.1465 23.0519C18.177 23.0215 18.2011 22.9853 18.2176 22.9455C18.2341 22.9056 18.2426 22.863 18.2425 22.8199V21.6508C18.5831 21.5504 18.9119 21.4139 19.2235 21.2437L20.0506 22.0708C20.0811 22.1013 20.1172 22.1255 20.157 22.142C20.1968 22.1585 20.2395 22.167 20.2826 22.167C20.3257 22.167 20.3684 22.1585 20.4082 22.142C20.448 22.1255 20.4842 22.1013 20.5147 22.0708L22.0675 20.5181C22.098 20.4877 22.1222 20.4515 22.1387 20.4117C22.1552 20.3719 22.1637 20.3292 22.1637 20.2861C22.1637 20.243 22.1552 20.2003 22.1387 20.1605C22.1222 20.1207 22.098 20.0845 22.0675 20.054L21.2405 19.2268C21.4105 18.9152 21.5469 18.5864 21.6473 18.246H22.8164C22.8595 18.246 22.9022 18.2375 22.942 18.2211C22.9818 18.2046 23.018 18.1804 23.0485 18.1499C23.079 18.1195 23.1031 18.0833 23.1196 18.0435C23.1361 18.0036 23.1446 17.961 23.1445 17.9179V15.7205C23.1446 15.6774 23.1361 15.6348 23.1196 15.5949C23.1031 15.5551 23.079 15.5189 23.0485 15.4885C23.018 15.458 22.9818 15.4338 22.942 15.4173C22.9022 15.4009 22.8595 15.3924 22.8164 15.3924ZM22.4883 17.5886H21.3953C21.3217 17.5887 21.2502 17.6136 21.1923 17.6593C21.1345 17.705 21.0938 17.7688 21.0766 17.8404C20.9698 18.288 20.7926 18.7158 20.5516 19.1077C20.513 19.1706 20.4968 19.2447 20.5054 19.3179C20.514 19.3912 20.5471 19.4594 20.5992 19.5116L21.3727 20.285L20.2838 21.3737L19.5106 20.6004C19.4584 20.5483 19.3901 20.5153 19.3169 20.5067C19.2437 20.4981 19.1696 20.5143 19.1067 20.5528C18.7147 20.7938 18.2868 20.971 17.8392 21.0778C17.7676 21.095 17.7038 21.1357 17.6581 21.1936C17.6124 21.2514 17.5875 21.3229 17.5874 21.3965V22.4895H16.0465V21.3984C16.0464 21.3247 16.0215 21.2531 15.9757 21.1953C15.93 21.1375 15.8661 21.0967 15.7943 21.0797C15.3465 20.9729 14.9187 20.7952 14.527 20.5532C14.4642 20.5143 14.3901 20.4978 14.3167 20.5064C14.2433 20.515 14.175 20.5481 14.1228 20.6004L13.3503 21.3729L12.2615 20.2849L13.034 19.5122C13.0862 19.4599 13.1193 19.3916 13.1279 19.3182C13.1365 19.2448 13.12 19.1706 13.0812 19.1077C12.8393 18.7161 12.6616 18.2884 12.5549 17.8406C12.5378 17.7689 12.4971 17.705 12.4393 17.6592C12.3815 17.6135 12.3099 17.5885 12.2362 17.5884H11.1445V16.0487H12.2375C12.3112 16.0485 12.3827 16.0236 12.4405 15.9779C12.4983 15.9322 12.5391 15.8683 12.5562 15.7967C12.663 15.3491 12.8402 14.9213 13.0812 14.5294C13.1199 14.4665 13.1362 14.3925 13.1275 14.3192C13.1189 14.246 13.0858 14.1778 13.0336 14.1257L12.2615 13.3522L13.3503 12.2636L14.1235 13.0369C14.1756 13.0891 14.2438 13.1223 14.3171 13.1309C14.3904 13.1396 14.4644 13.1232 14.5272 13.0845C14.9192 12.8435 15.3471 12.6662 15.7947 12.5595C15.8664 12.5423 15.9301 12.5015 15.9758 12.4437C16.0215 12.3859 16.0464 12.3144 16.0465 12.2407V11.1476H17.5865V12.2387C17.5866 12.3124 17.6115 12.384 17.6573 12.4418C17.703 12.4996 17.7669 12.5404 17.8387 12.5574C18.2864 12.6643 18.7142 12.8421 19.1058 13.0841C19.1686 13.123 19.2428 13.1395 19.3162 13.1309C19.3896 13.1223 19.458 13.0892 19.5102 13.0369L20.2827 12.2636L21.3715 13.3524L20.5988 14.1251C20.5466 14.1773 20.5135 14.2457 20.505 14.319C20.4964 14.3924 20.5128 14.4665 20.5516 14.5294C20.7936 14.9209 20.9712 15.3487 21.0779 15.7965C21.0949 15.8683 21.1357 15.9322 21.1935 15.978C21.2513 16.0238 21.3229 16.0487 21.3967 16.0489H22.4877L22.4883 17.5886Z" fill="#A308F7"/>
<path d="M16.817 13.9785C16.2552 13.9785 15.706 14.1451 15.2389 14.4572C14.7718 14.7693 14.4078 15.2129 14.1928 15.732C13.9778 16.251 13.9215 16.8221 14.0311 17.3731C14.1407 17.9241 14.4113 18.4302 14.8085 18.8274C15.2058 19.2247 15.7119 19.4952 16.2629 19.6048C16.8139 19.7144 17.385 19.6582 17.904 19.4432C18.423 19.2282 18.8666 18.8641 19.1787 18.397C19.4908 17.9299 19.6574 17.3807 19.6574 16.819C19.6566 16.0659 19.3571 15.3439 18.8246 14.8114C18.2921 14.2789 17.5701 13.9794 16.817 13.9785ZM16.817 19.0035C16.385 19.0035 15.9627 18.8754 15.6035 18.6354C15.2443 18.3954 14.9644 18.0543 14.7991 17.6552C14.6338 17.2561 14.5905 16.8169 14.6748 16.3932C14.7591 15.9695 14.9671 15.5803 15.2725 15.2749C15.578 14.9694 15.9672 14.7614 16.3909 14.6771C16.8146 14.5928 17.2537 14.6361 17.6529 14.8014C18.052 14.9667 18.3931 15.2467 18.6331 15.6059C18.8731 15.965 19.0012 16.3873 19.0012 16.8193C19.0004 17.3983 18.7701 17.9534 18.3606 18.3628C17.9511 18.7722 17.396 19.0025 16.817 19.0031V19.0035Z" fill="#A308F7"/>
<path d="M14.3819 3.91218C16.2884 4.47342 17.9348 5.69099 19.0298 7.34943C18.7672 7.58716 18.6012 7.91314 18.5633 8.26535C18.5254 8.61756 18.6183 8.97141 18.8244 9.25955C19.0304 9.5477 19.3352 9.75005 19.6807 9.82807C20.0263 9.9061 20.3884 9.85437 20.6983 9.68272C21.0082 9.51107 21.2441 9.23149 21.3613 8.89717C21.4784 8.56286 21.4686 8.19715 21.3336 7.86964C21.1986 7.54212 20.9479 7.27566 20.6292 7.12097C20.3105 6.96627 19.9461 6.93414 19.6053 7.03068C18.4256 5.22155 16.6392 3.89259 14.5673 3.28274C14.5257 3.26964 14.482 3.26496 14.4385 3.26897C14.3951 3.27299 14.3529 3.28563 14.3144 3.30614C14.2759 3.32665 14.2419 3.35463 14.2144 3.38845C14.1868 3.42226 14.1663 3.46122 14.154 3.50306C14.1417 3.5449 14.1378 3.58878 14.1427 3.63212C14.1475 3.67546 14.1609 3.71741 14.1822 3.7555C14.2034 3.79359 14.232 3.82707 14.2664 3.85397C14.3007 3.88087 14.3398 3.90066 14.3819 3.91218ZM20.7736 8.41537C20.7736 8.57008 20.7277 8.72132 20.6418 8.84996C20.5558 8.9786 20.4336 9.07886 20.2907 9.13807C20.1478 9.19728 19.9905 9.21277 19.8387 9.18259C19.687 9.1524 19.5476 9.0779 19.4382 8.9685C19.3288 8.8591 19.2543 8.71972 19.2241 8.56798C19.1939 8.41623 19.2094 8.25895 19.2686 8.11601C19.3278 7.97307 19.4281 7.8509 19.5568 7.76495C19.6854 7.67899 19.8366 7.63312 19.9913 7.63312C20.1988 7.63332 20.3976 7.71579 20.5443 7.86245C20.6909 8.00911 20.7734 8.20796 20.7736 8.41537Z" fill="#A308F7"/>
<path d="M9.61629 20.09C7.71018 19.5286 6.0641 18.311 4.96929 16.6528C5.23191 16.415 5.39797 16.0891 5.43586 15.7369C5.47375 15.3846 5.38083 15.0308 5.17478 14.7427C4.96873 14.4545 4.66394 14.2522 4.3184 14.1741C3.97286 14.0961 3.61069 14.1478 3.30082 14.3195C2.99094 14.4911 2.75499 14.7707 2.63785 15.105C2.52072 15.4393 2.53058 15.8051 2.66557 16.1326C2.80055 16.4601 3.05123 16.7265 3.36991 16.8812C3.68859 17.0359 4.05302 17.0681 4.39385 16.9715C5.57327 18.7805 7.35929 20.1095 9.43085 20.7195C9.46098 20.7284 9.49224 20.7329 9.52366 20.7328C9.60247 20.7326 9.67859 20.7041 9.73809 20.6524C9.7976 20.6007 9.83652 20.5294 9.84774 20.4514C9.85895 20.3734 9.84172 20.2939 9.79919 20.2276C9.75666 20.1612 9.69167 20.1124 9.6161 20.09H9.61629ZM3.2246 15.5868C3.22467 15.4321 3.27062 15.2809 3.35662 15.1523C3.44262 15.0238 3.56481 14.9236 3.70776 14.8644C3.8507 14.8053 4.00797 14.7898 4.15969 14.82C4.31141 14.8503 4.45075 14.9248 4.56012 15.0342C4.66948 15.1436 4.74394 15.283 4.7741 15.4347C4.80425 15.5865 4.78874 15.7437 4.72952 15.8867C4.6703 16.0296 4.57004 16.1517 4.44141 16.2377C4.31277 16.3236 4.16155 16.3695 4.00685 16.3695C3.79938 16.3693 3.60047 16.2867 3.4538 16.14C3.30713 15.9933 3.2247 15.7943 3.2246 15.5868Z" fill="#A308F7"/>
</g>
<defs>
<clipPath id="clip0_2154_961">
<rect width="24" height="24" fill="white"/>
</clipPath>
</defs>
</svg>
