<svg width="24" height="24" viewBox="0 0 24 24" fill="none" xmlns="http://www.w3.org/2000/svg">
<path d="M13.3906 2.00003C12.6798 2.00344 12.1679 2.3394 11.7617 2.64065C11.3006 2.98815 10.8965 3.3292 10.5267 3.66603H2.99938C2.45113 3.66603 2 4.11911 2 4.66732V10.6667C2 11.2149 2.45113 11.6654 2.99934 11.6654H14.3327C14.8809 11.6654 15.3346 11.2149 15.3346 10.6667V8.66599H16.3334C16.5995 8.70066 17.8044 8.23724 18.3041 8.09049C18.5046 8.03033 18.6937 7.99933 18.6661 7.99933C18.6654 8.18441 18.8156 8.33466 19.0007 8.33395H21.6654C21.8505 8.33466 22.0007 8.18441 22 7.99933V2.66799C22.0011 2.48261 21.8507 2.33199 21.6654 2.33269H19.0007C18.8225 2.33215 18.6754 2.47182 18.6667 2.64974L13.7077 2.02019C13.5978 2.00607 13.4922 1.99953 13.3906 2.00003ZM13.403 2.67057C13.4726 2.67007 13.5459 2.67319 13.6244 2.67969L18.666 3.32228V7.33203C18.4716 7.33203 18.3288 7.3857 18.1127 7.45053C17.4362 7.66683 16.4873 7.98883 16.3334 7.99937H13.666C13.4756 7.99937 13.334 7.85774 13.334 7.66733C13.334 7.47691 13.4756 7.33203 13.666 7.33203H15.6667C15.8509 7.33278 16.0007 7.18416 16.0013 6.99999C16.0021 6.81487 15.8518 6.66462 15.6667 6.66537H15.3346V4.66732C15.3346 4.11907 14.8809 3.66603 14.3327 3.66603H11.541C11.7375 3.50282 11.9422 3.33811 12.1628 3.1719C12.6214 2.84736 12.9159 2.67407 13.403 2.67057ZM19.3327 3.00003H21.3334V7.66737H19.3327L19.3327 3.00003ZM2.99938 4.3327H3.66734C3.66734 4.88828 3.22263 5.33357 2.66734 5.33466V4.66732C2.66734 4.47691 2.80892 4.3327 2.99938 4.3327ZM4.33401 4.3327C7.58109 4.33436 10.0433 4.3327 12.9994 4.3327C12.9994 5.24924 13.7509 6.00132 14.6674 6.00132V6.66541H13.6661C13.1178 6.66541 12.6674 7.11916 12.6674 7.66737C12.6674 8.21558 13.1178 8.66608 13.6661 8.66608H14.6674V9.33275C13.7508 9.33275 12.9994 10.0848 12.9994 11.0014H4.33401C4.33401 10.0855 3.58296 9.33383 2.66734 9.33275V6.00132C3.58296 6.00024 4.33401 5.24857 4.33401 4.3327ZM13.6661 4.3327H14.3327C14.5231 4.3327 14.6674 4.47691 14.6674 4.66732V5.33466C14.1111 5.33466 13.6661 4.88895 13.6661 4.3327ZM8.66605 5.66732C7.56543 5.66732 6.66538 6.56674 6.66538 7.66733C6.66538 8.76791 7.56543 9.66733 8.66605 9.66733C9.76668 9.66733 10.6667 8.76791 10.6667 7.66733C10.6667 6.56674 9.76668 5.66732 8.66605 5.66732ZM8.66605 6.33399C9.40639 6.33399 9.99939 6.92703 9.99939 7.66733C9.99939 8.40762 9.40639 9.00066 8.66605 9.00066C7.92572 9.00066 7.33205 8.40762 7.33205 7.66733C7.33205 6.92703 7.92572 6.33399 8.66605 6.33399ZM20.3334 6.33399C20.1493 6.33399 20 6.48257 20 6.66666C20 6.85074 20.1493 6.99999 20.3334 6.99999C20.5174 6.99999 20.6667 6.85074 20.6667 6.66666C20.6667 6.48257 20.5175 6.33399 20.3334 6.33399ZM2.66734 9.99937C3.22263 10.0005 3.66734 10.4457 3.66734 11.0013H2.99938C2.80896 11.0013 2.66734 10.8571 2.66734 10.6667V9.99937ZM14.6674 9.99937V10.6667C14.6674 10.8571 14.5231 11.0013 14.3327 11.0013H13.6661C13.6661 10.4451 14.1111 9.99937 14.6674 9.99937ZM20.3295 9.99937C20.2258 10.0005 20.1286 10.0499 20.0665 10.1328C19.9572 10.2797 19.9869 10.4872 20.1329 10.5977L20.6694 11.0013H17C16.8159 11.0006 16.6661 11.1493 16.6654 11.3334C16.6661 11.5175 16.8159 11.6661 17 11.6654H21.6654C21.9831 11.6642 22.1191 11.2614 21.8672 11.0677L20.5339 10.0665C20.475 10.0221 20.4032 9.9985 20.3295 9.99937ZM17 12.3301C16.6798 12.3306 16.5444 12.7385 16.8008 12.9303L18.1342 13.9316C18.281 14.0409 18.4886 14.0113 18.599 13.8652C18.71 13.7179 18.6803 13.5083 18.5326 13.3978L17.9987 12.9967H21.6628C21.8462 12.9963 21.9948 12.848 21.9955 12.6647C21.9962 12.4803 21.8472 12.3304 21.6628 12.33L17 12.3301ZM11.6309 15.3334C10.4632 15.3361 9.24185 15.3341 8.32622 15.3334C7.65493 15.2991 6.28984 16.2955 5.66672 16.3334H5.33467C5.33392 16.149 5.18372 16.0003 4.99938 16.0013H2.33204C2.14896 16.0021 2.00075 16.1503 2 16.3334V21.6654C1.99929 21.8495 2.14796 21.9993 2.33204 22.0001H4.99938C5.18476 22.0011 5.33538 21.8508 5.33467 21.6654H5.66667C7.25243 21.7441 8.7173 21.9911 10.3346 22.0001C10.8986 22.0001 11.5435 21.6908 12.2982 21.267C13.0529 20.8431 13.8871 20.2853 14.6673 19.7292C15.6637 19.0208 16.6373 18.2714 17.5807 17.502C17.9895 17.1502 18.2694 16.6412 18.0755 16.0404C17.9736 15.715 17.7031 15.4943 17.4232 15.4083C17.1433 15.3222 16.8506 15.3382 16.5769 15.4154L12.7949 16.474C12.781 15.8456 12.2635 15.3318 11.6309 15.3334ZM11.6309 16.9994H9.00135C8.81726 16.9986 8.66743 17.1473 8.66672 17.3314C8.66597 17.5165 8.81626 17.6668 9.00135 17.666H11.6309C11.9869 17.666 12.3037 17.4999 12.5183 17.2455L16.7566 16.058C17.0859 15.9676 17.3779 16.03 17.4382 16.2396C17.5186 16.5293 17.434 16.7463 17.1452 16.9964C17.1402 17.0015 15.8133 18.0938 14.2787 19.1875C13.5099 19.7354 12.6904 20.2821 11.9707 20.6862C11.2511 21.0903 10.6042 21.3333 10.3346 21.3333C8.71585 21.2878 7.15714 21.0846 5.66667 21.0013H5.33463V17H5.66667C6.39759 17.0087 7.77709 16.022 8.32618 16C9.24547 16.0009 10.4645 16.0028 11.6308 16C11.9129 15.9993 12.1309 16.2174 12.1309 16.4993C12.1281 16.819 11.869 17.0023 11.6309 16.9994ZM2.66734 16.6654H4.66734V21.3333H2.66734V16.6654ZM3.66667 17.3334C3.48259 17.3334 3.33334 17.4826 3.33334 17.6667C3.33334 17.8508 3.48259 18 3.66667 18C3.85076 18 4.00001 17.8508 4.00001 17.6667C4.00001 17.4826 3.8508 17.3334 3.66667 17.3334Z" fill="#B4B4B4"/>
</svg>
