<svg width="32" height="32" viewBox="0 0 32 32" fill="none" xmlns="http://www.w3.org/2000/svg">
<g clip-path="url(#clip0_2674_1016)">
<path d="M13.75 22.2499H18.25C18.4031 22.2499 18.5508 22.1938 18.6653 22.0921L20.1653 20.7588C20.2987 20.6401 20.375 20.4701 20.375 20.2916V16.9582C20.375 16.7631 20.2839 16.5793 20.1288 16.4611L18.625 15.3153V13.6249C18.4804 10.1416 13.5182 10.1443 13.375 13.6249V15.3153L11.8712 16.4611C11.7161 16.5793 11.625 16.7631 11.625 16.9582V20.2916C11.625 20.4701 11.7014 20.6401 11.8348 20.7588L13.3348 22.0921C13.4492 22.1938 13.5969 22.2499 13.75 22.2499ZM16 12.2499C16.7582 12.2499 17.375 12.8667 17.375 13.6249V14.9999H14.625V13.6249C14.625 12.8667 15.2418 12.2499 16 12.2499ZM12.875 17.2678L14.2109 16.2499H17.7891L19.125 17.2678V20.0109L18.0124 20.9999H13.9876L12.875 20.0109V17.2678Z" fill="#9747FF"/>
<path d="M15.375 18.8234V19.3828C15.408 20.2121 16.5923 20.2114 16.625 19.3828V18.8241C17.2605 18.2619 16.8602 17.1862 16.0004 17.1875H16C15.1403 17.1863 14.7406 18.2614 15.375 18.8234Z" fill="#9747FF"/>
<path d="M9.12512 7.50024H16.0001C16.8294 7.46718 16.8287 6.28299 16.0001 6.25024H9.12512C8.29587 6.28324 8.2965 7.46749 9.12512 7.50024Z" fill="#9747FF"/>
<path d="M13.1876 9.37524C13.1876 9.03012 12.9078 8.75024 12.5626 8.75024H9.12512C8.29587 8.78324 8.2965 9.96749 9.12512 10.0002H12.5626C12.9078 10.0002 13.1876 9.72037 13.1876 9.37524Z" fill="#9747FF"/>
<path d="M22.8748 25.7498H18.8121C17.9829 25.7828 17.9835 26.967 18.8121 26.9998H22.8748C23.704 26.9667 23.7034 25.7825 22.8748 25.7498Z" fill="#9747FF"/>
<path d="M22.8751 23.2498H19.4376C18.6084 23.2828 18.609 24.467 19.4376 24.4998H22.8751C23.7043 24.4667 23.7037 23.2825 22.8751 23.2498Z" fill="#9747FF"/>
<path d="M29.1251 11.2502C28.3103 11.2502 27.6152 11.7727 27.3573 12.5002H26.0001V8.75012H27.3573C28.0816 10.7074 30.9603 10.2386 31.0001 8.12512C30.9601 6.01131 28.0812 5.54319 27.3573 7.50012H26.0001V1.875C26.0001 1.70925 25.9342 1.55031 25.817 1.43306L24.567 0.183062C24.4498 0.065875 24.2909 0 24.1251 0H7.87506C7.70931 0 7.55031 0.065875 7.43313 0.183062L6.18313 1.43306C6.06588 1.55031 6.00006 1.70925 6.00006 1.875V18.5808H4.64288C3.9185 16.6236 1.03988 17.0924 1 19.2058C1.04006 21.3196 3.91888 21.7878 4.64288 19.8308H6.00006V24.4999H4.64288C3.9185 22.5427 1.03988 23.0115 1 25.1249C1.04 27.2387 3.91888 27.7067 4.64288 25.7499H6.00006V30.125C6.00006 30.2908 6.06594 30.4497 6.18313 30.5669L7.43313 31.8169C7.55031 31.9341 7.70931 32 7.87506 32H24.1251C24.2908 32 24.4498 31.9341 24.567 31.8169L25.817 30.5669C25.9342 30.4497 26.0001 30.2908 26.0001 30.125V13.7502H27.3573C28.0819 15.7077 30.9603 15.2384 31.0001 13.1252C31.0001 12.0913 30.159 11.2502 29.1251 11.2502ZM29.1251 7.50012C29.4698 7.50012 29.7501 7.7805 29.7501 8.12512C29.7158 8.95425 28.5344 8.954 28.5001 8.12512C28.5001 7.7805 28.7806 7.50012 29.1251 7.50012ZM2.875 19.8308C2.53038 19.8308 2.25 19.5504 2.25 19.2058C2.28431 18.3767 3.46575 18.3769 3.5 19.2058C3.49994 19.5504 3.21956 19.8308 2.875 19.8308ZM2.875 25.7499C2.53038 25.7499 2.25 25.4696 2.25 25.1249C2.28431 24.2958 3.46575 24.296 3.5 25.1249C3.49994 25.4696 3.21956 25.7499 2.875 25.7499ZM8.13394 1.25H23.8662L24.7501 2.13394V2.50006H20.3752C20.2094 2.50006 20.0505 2.56594 19.9333 2.68313L18.8664 3.75006H13.1338L12.0668 2.68313C11.9496 2.56594 11.7907 2.50006 11.6249 2.50006H7.25006V2.13394L8.13394 1.25ZM23.8662 30.75H8.13394L7.25006 29.8661V29.4999H24.7501V29.8661L23.8662 30.75ZM24.7501 28.2499H7.25006V25.7499H9.17813C9.34387 25.7499 9.50288 25.6841 9.62006 25.5669L11.2618 23.9251C11.5058 23.6811 11.5058 23.2853 11.2618 23.0412C11.0177 22.7972 10.6219 22.7972 10.3779 23.0412L8.91925 24.4999H7.25006V19.8307H9.17813C10.0074 19.7977 10.0068 18.6135 9.17813 18.5807H7.25006V3.75006H11.366L12.4329 4.817C12.5501 4.93419 12.7091 5.00006 12.8749 5.00006H19.1251C19.2909 5.00006 19.4498 4.93419 19.5671 4.817L20.634 3.75006H24.7501V7.50012H22.822C22.6562 7.50012 22.4973 7.566 22.3801 7.68319L19.4883 10.5749C19.2443 10.819 19.2443 11.2147 19.4883 11.4589C19.7324 11.7029 20.1281 11.7029 20.3722 11.4589L23.0809 8.75019H24.7501V12.5002H23.447C23.2812 12.5002 23.1223 12.5661 23.0051 12.6833L21.3634 14.325C21.1193 14.5691 21.1193 14.9648 21.3634 15.2089C21.6075 15.453 22.0032 15.453 22.2473 15.2089L23.7059 13.7503H24.7501V28.2499ZM29.1251 13.7502C28.7805 13.7502 28.5001 13.4698 28.5001 13.1252C28.5345 12.2961 29.7159 12.2963 29.7501 13.1252C29.7501 13.4698 29.4698 13.7502 29.1251 13.7502Z" fill="#9747FF"/>
<path d="M13.7507 25.7498H13.7502C13.4051 25.7498 13.1255 26.0296 13.1255 26.3748C13.1585 27.2037 14.3429 27.2037 14.3757 26.3748C14.3757 26.0296 14.0959 25.7498 13.7507 25.7498Z" fill="#9747FF"/>
<path d="M9.12574 11.2505H9.1253C8.78011 11.2505 8.50049 11.5304 8.50049 11.8755C8.53349 12.7044 9.71793 12.7044 9.75074 11.8755C9.75074 11.5303 9.47086 11.2505 9.12574 11.2505Z" fill="#9747FF"/>
<path d="M19.1259 7.50024C19.9551 7.46718 19.9545 6.28299 19.1259 6.25024H19.1254C18.2961 6.28343 18.2972 7.46756 19.1259 7.50024Z" fill="#9747FF"/>
</g>
<defs>
<clipPath id="clip0_2674_1016">
<rect width="32" height="32" fill="white"/>
</clipPath>
</defs>
</svg>
