<svg width="32" height="32" viewBox="0 0 32 32" fill="none" xmlns="http://www.w3.org/2000/svg">
<path d="M16.0009 17.676C13.3689 17.676 10.7309 18.284 8.6339 19.492C6.5359 20.701 5.2959 22.44 5.2959 24.312C5.2959 25.663 5.9489 26.939 7.0949 28.001H8.6949L8.9719 26.964C7.7759 26.099 7.2959 25.158 7.2959 24.312C7.2959 23.323 7.9449 22.202 9.6379 21.226C13.0219 19.276 18.9719 19.276 22.3569 21.226C23.6069 21.947 24.5449 20.175 23.3609 19.492C21.2619 18.284 18.6329 17.676 16.0009 17.676Z" fill="#0052CC"/>
<path d="M16 5.55518C13.116 5.55518 10.751 7.91217 10.751 10.7962C10.751 13.6802 13.116 16.0372 16 16.0372C18.884 16.0372 21.241 13.6802 21.241 10.7962C21.241 7.91217 18.884 5.55518 16 5.55518ZM16 7.55518C17.803 7.55518 19.24 8.99317 19.24 10.7962C19.24 12.5992 17.802 14.0362 16 14.0362C14.198 14.0362 12.752 12.5982 12.752 10.7962C12.752 8.99417 14.197 7.55518 16 7.55518Z" fill="#0052CC"/>
<path d="M28.9662 19.8802C28.7122 19.8902 28.4732 19.9952 28.2942 20.1752L23.8792 24.5822L22.1372 22.8402C21.7482 22.4482 21.1152 22.4472 20.7232 22.8372L20.7202 22.8402C20.3322 23.2302 20.3322 23.8602 20.7202 24.2502L23.1782 26.7082C23.5692 27.0962 24.1992 27.0962 24.5882 26.7082L29.7032 21.5852C30.0922 21.1942 30.0922 20.5652 29.7032 20.1752C29.5092 19.9792 29.2422 19.8732 28.9662 19.8802Z" fill="#0052CC"/>
<path d="M11.869 1.58112C8.75197 2.47412 5.92497 4.37612 3.90397 7.13212C-0.138031 12.6451 0.0629685 20.2071 4.39097 25.4981C8.71897 30.7891 16.088 32.4851 22.292 29.6171C22.793 29.3861 23.012 28.7911 22.78 28.2901C22.779 28.2891 22.779 28.2891 22.779 28.2891C22.548 27.7871 21.953 27.5681 21.452 27.8011C21.451 27.8011 21.451 27.8011 21.451 27.8021C16.065 30.2911 9.68997 28.8221 5.93397 24.2291C2.17797 19.6361 2.00497 13.0991 5.51297 8.31412C9.02097 3.52912 15.313 1.72812 20.823 3.92912C26.333 6.12912 29.645 11.7661 28.891 17.6521C28.82 18.2001 29.205 18.7021 29.753 18.7731C29.756 18.7731 29.759 18.7741 29.762 18.7741C30.31 18.8411 30.809 18.4521 30.876 17.9031C31.745 11.1231 27.908 4.60412 21.561 2.06912C18.387 0.800121 14.985 0.687122 11.869 1.58112Z" fill="#0052CC"/>
</svg>
