<svg width="22" height="21" viewBox="0 0 22 21" fill="none" xmlns="http://www.w3.org/2000/svg">
<g clip-path="url(#clip0_2048_502)">
<path d="M21.3554 4.96289H17.4884C17.1325 4.96289 16.8439 5.23834 16.8439 5.5781C16.8439 5.91786 17.1325 6.19331 17.4884 6.19331H19.7995L11.6879 13.9362L6.98755 9.44954C6.7359 9.20928 6.32779 9.20928 6.07609 9.44954L0.206533 14.9864C-0.0451685 15.2267 -0.0789836 15.6162 0.172718 15.8565C0.424376 16.0967 0.866292 16.0967 1.11799 15.8565L6.53185 10.7546L11.2322 15.2413C11.4838 15.4815 11.8919 15.4815 12.1436 15.2413L20.711 7.06334V9.26936C20.711 9.60912 20.9995 9.88457 21.3555 9.88457C21.7114 9.88457 22 9.60912 22 9.26936V5.57831C22.0002 5.22944 21.7002 4.96289 21.3554 4.96289Z" fill="#27AE60"/>
</g>
<defs>
<clipPath id="clip0_2048_502">
<rect width="22" height="21" fill="white"/>
</clipPath>
</defs>
</svg>
