<svg width="24" height="24" viewBox="0 0 24 24" fill="none" xmlns="http://www.w3.org/2000/svg">
<g clip-path="url(#clip0_2143_883)">
<path d="M15.5307 0C10.8624 0 7.06446 3.79791 7.06446 8.46623C7.06446 10.0093 7.47963 11.457 8.2038 12.7042L0.642914 20.265C-0.210398 21.1183 -0.210398 22.5068 0.642914 23.36C1.06952 23.7867 1.62996 24 2.19035 24C2.75074 24 3.31123 23.7867 3.73779 23.36L11.3002 15.7975C12.5456 16.519 13.9907 16.9324 15.5306 16.9324C20.1989 16.9324 23.9968 13.1345 23.9968 8.46619C23.9968 3.79791 20.199 0 15.5307 0ZM2.74254 22.3647C2.43804 22.6692 1.94266 22.6692 1.63821 22.3648C1.33376 22.0603 1.33376 21.5649 1.63821 21.2604L2.11282 20.7858L3.21715 21.8901L2.74254 22.3647ZM4.21245 20.8949L3.10812 19.7905L3.87045 19.0282L4.97477 20.1326L4.21245 20.8949ZM5.97002 19.1372L4.86569 18.0329L9.02304 13.8755C9.35679 14.2763 9.72673 14.646 10.1279 14.9794L5.97002 19.1372ZM15.5307 15.5249C11.6385 15.5249 8.47207 12.3584 8.47207 8.46623C8.47207 4.57411 11.6385 1.40761 15.5307 1.40761C19.4229 1.40761 22.5893 4.57406 22.5893 8.46623C22.5893 12.3584 19.4229 15.5249 15.5307 15.5249Z" fill="#0B3A78"/>
<path d="M19.2614 7.67383C18.8727 7.67383 18.5576 7.98892 18.5576 8.37761V11.4359C18.5576 11.8246 18.8727 12.1397 19.2614 12.1397C19.6501 12.1397 19.9652 11.8246 19.9652 11.4359V8.37761C19.9652 7.98887 19.65 7.67383 19.2614 7.67383Z" fill="#0B3A78"/>
<path d="M16.9323 4.53125C16.5436 4.53125 16.2285 4.84634 16.2285 5.23503V11.4358C16.2285 11.8245 16.5436 12.1396 16.9323 12.1396C17.321 12.1396 17.6361 11.8245 17.6361 11.4358V5.23503C17.6361 4.84634 17.321 4.53125 16.9323 4.53125Z" fill="#0B3A78"/>
<path d="M14.571 6.10156C14.1823 6.10156 13.8672 6.41666 13.8672 6.80534V11.477C13.8672 11.8656 14.1823 12.1807 14.571 12.1807C14.9597 12.1807 15.2747 11.8656 15.2747 11.477V6.80534C15.2748 6.41666 14.9597 6.10156 14.571 6.10156Z" fill="#0B3A78"/>
<path d="M12.1091 4.57422C11.7204 4.57422 11.4053 4.88931 11.4053 5.278V11.4788C11.4053 11.8675 11.7204 12.1825 12.1091 12.1825C12.4977 12.1825 12.8128 11.8675 12.8128 11.4788V5.278C12.8129 4.88931 12.4977 4.57422 12.1091 4.57422Z" fill="#0B3A78"/>
</g>
<defs>
<clipPath id="clip0_2143_883">
<rect width="24" height="24" fill="white"/>
</clipPath>
</defs>
</svg>
