<svg width="22" height="22" viewBox="0 0 22 22" fill="none" xmlns="http://www.w3.org/2000/svg">
<path d="M10.084 17.8737H15.309C15.0379 18.5512 14.5697 19.1318 13.965 19.5403C13.3604 19.9489 12.647 20.1666 11.9173 20.1653H5.50064C5.01909 20.1655 4.54223 20.0707 4.09731 19.8865C3.65239 19.7023 3.24813 19.4322 2.90762 19.0917C2.56711 18.7512 2.29703 18.3469 2.11282 17.902C1.9286 17.4571 1.83385 16.9802 1.83398 16.4987V9.16534C1.83507 8.27244 2.16136 7.41051 2.75185 6.74074C3.34233 6.07096 4.15657 5.63921 5.04229 5.52623V12.832C5.04229 15.6095 7.30644 17.8737 10.084 17.8737ZM17.8756 5.72784H19.819C19.7626 5.64522 19.6981 5.56846 19.6264 5.49868L16.5006 2.37271C16.4331 2.30134 16.356 2.23973 16.2715 2.18966V4.12368C16.2735 4.54851 16.4432 4.95536 16.7436 5.25576C17.044 5.55616 17.4508 5.72581 17.8756 5.72784ZM17.8756 7.10284C17.086 7.10131 16.3291 6.78695 15.7707 6.22858C15.2124 5.67021 14.898 4.91334 14.8965 4.12368V1.83203H10.084C9.60243 1.8319 9.12557 1.92664 8.68065 2.11086C8.23573 2.29508 7.83146 2.56516 7.49095 2.90566C7.15044 3.24617 6.88036 3.65043 6.69614 4.09535C6.51191 4.54027 6.41716 5.01713 6.41729 5.49868V12.832C6.41716 13.3136 6.51192 13.7904 6.69615 14.2354C6.88037 14.6803 7.15046 15.0845 7.49096 15.425C7.83147 15.7655 8.23574 16.0356 8.68066 16.2198C9.12558 16.4041 9.60243 16.4988 10.084 16.4987H16.5006C16.9822 16.4988 17.459 16.4041 17.904 16.2198C18.3489 16.0356 18.7531 15.7655 19.0936 15.425C19.4341 15.0845 19.7042 14.6803 19.8884 14.2354C20.0727 13.7904 20.1674 13.3136 20.1673 12.832V7.10284H17.8756Z" fill="#D8D8D8"/>
</svg>
