<svg width="21" height="20" viewBox="0 0 21 20" fill="none" xmlns="http://www.w3.org/2000/svg">
<g clip-path="url(#clip0_2142_439)">
<path d="M20.3385 4.72716H16.6557C16.3167 4.72716 16.0419 4.9895 16.0419 5.31308C16.0419 5.63666 16.3167 5.89899 16.6557 5.89899H18.8567L11.1314 13.2732L6.65483 9.00017C6.41515 8.77135 6.02649 8.77135 5.78677 9.00017L0.196698 14.2734C-0.0430177 14.5022 -0.0752226 14.8732 0.164493 15.102C0.404168 15.3308 0.825042 15.3308 1.06476 15.102L6.22082 10.2431L10.6973 14.5161C10.937 14.7449 11.3257 14.7449 11.5654 14.5161L19.7248 6.7276V8.82857C19.7248 9.15216 19.9996 9.41449 20.3386 9.41449C20.6776 9.41449 20.9524 9.15216 20.9524 8.82857V5.31327C20.9526 4.98102 20.6669 4.72716 20.3385 4.72716Z" fill="#436CC8"/>
</g>
<defs>
<clipPath id="clip0_2142_439">
<rect width="20.0235" height="19.1133" fill="white" transform="scale(1.04639)"/>
</clipPath>
</defs>
</svg>
