<svg width="24" height="24" viewBox="0 0 24 24" fill="none" xmlns="http://www.w3.org/2000/svg">
<path d="M20.5339 13.2972H17.6919V9.47716C17.6919 9.23712 17.4973 9.04255 17.2573 9.04255C17.0173 9.04255 16.8227 9.23712 16.8227 9.47716V13.2972H9.07507C8.26666 13.2972 7.60902 13.9549 7.60902 14.7633V18.9607C7.60902 19.7692 8.26671 20.4268 9.07507 20.4268H16.8227V22.2574L6.28051 22.2522V19.2904C6.28051 19.0504 6.08594 18.8558 5.84591 18.8558H2.86872V1.74421H16.8227V5.65536C16.8227 5.8954 17.0173 6.08997 17.2573 6.08997C17.4973 6.08997 17.6919 5.8954 17.6919 5.65536V1.30961C17.6919 1.06957 17.4973 0.875 17.2573 0.875H2.43412C2.19408 0.875 1.99951 1.06957 1.99951 1.30961V19.2904C1.99951 19.4046 2.04645 19.5176 2.12724 19.5982L5.5329 22.9939C5.63151 23.0947 5.7728 23.1429 5.91236 23.1213L17.2571 23.1268C17.4938 23.1268 17.6919 22.929 17.6919 22.6922V20.4268H20.5339C21.3424 20.4268 22 19.7692 22 18.9608V14.7633C22 13.9549 21.3423 13.2972 20.5339 13.2972ZM5.4113 21.6452L5.15084 21.3855L3.48552 19.725H5.41126L5.4113 21.6452ZM21.1308 18.9607C21.1308 19.2899 20.863 19.5576 20.5339 19.5576L9.07525 19.5575C8.74616 19.5575 8.47845 19.2897 8.47845 18.9607V14.7634C8.47845 14.4343 8.74616 14.1666 9.07525 14.1666L20.5339 14.1663C20.8631 14.1663 21.1308 14.4341 21.1308 14.7632V18.9607Z" fill="#808080"/>
<path d="M17.619 7.28779C17.4868 7.09148 17.2137 7.03541 17.0162 7.1674C16.819 7.29917 16.7654 7.57306 16.8963 7.7702C17.0273 7.96777 17.3019 8.02071 17.4986 7.89015C17.6959 7.7592 17.7501 7.48458 17.619 7.28779Z" fill="#808080"/>
<path d="M14.8407 14.9277H13.9917C13.7527 14.9277 13.5571 15.1277 13.5571 15.3655V18.3114C13.5571 18.5658 13.7315 18.7947 13.9994 18.7947C14.0251 18.7946 14.6309 18.7923 14.8732 18.788C15.8076 18.7717 16.4859 17.9614 16.4859 16.8613C16.4859 15.7047 15.8248 14.9277 14.8407 14.9277ZM14.858 17.9189C14.7586 17.9206 14.5917 17.9221 14.4309 17.9232C14.4299 17.5732 14.4285 17.1012 14.4285 16.8579C14.4285 16.654 14.4277 16.1615 14.4271 15.7969H14.8408C15.0228 15.7969 15.6167 15.8737 15.6167 16.8612C15.6167 17.5827 15.2356 17.9123 14.858 17.9189Z" fill="#808080"/>
<path d="M11.8528 16.4769C11.4949 16.3449 11.1609 16.2014 11.0478 16.152C10.9978 16.1076 10.997 16.0496 11.0017 16.0168C11.0077 15.9752 11.0387 15.8735 11.1982 15.8254C11.588 15.7079 11.9554 15.9952 11.968 16.0052C12.1517 16.1573 12.424 16.1328 12.5777 15.95C12.7322 15.7662 12.7084 15.4921 12.5247 15.3377C12.4954 15.313 11.797 14.7373 10.9475 14.9931C10.511 15.1246 10.2022 15.4695 10.1414 15.8932C10.1121 16.0973 10.1434 16.3083 10.2348 16.4934C10.3211 16.6684 10.4717 16.8469 10.6532 16.9279C10.6707 16.9357 11.0852 17.1202 11.552 17.2924C11.6435 17.3261 11.9395 17.4505 11.9068 17.6338C11.8672 17.8555 11.5813 17.933 11.392 17.924C11.1423 17.9121 10.8893 17.8109 10.7195 17.6236C10.5583 17.4457 10.2834 17.4323 10.1056 17.5935C9.9278 17.7547 9.91428 18.0295 10.0755 18.2073C10.4136 18.5805 10.9118 18.7945 11.4421 18.7945C12.103 18.7945 12.6582 18.3706 12.7625 17.7866C12.8413 17.3448 12.6438 16.7687 11.8528 16.4769Z" fill="#808080"/>
<path d="M18.3089 16.8018L19.4858 15.7201C19.6625 15.5577 19.6741 15.2828 19.5116 15.1061C19.3492 14.9293 19.0743 14.9177 18.8976 15.0802L18.0137 15.8926V15.3623C18.0137 15.1223 17.8192 14.9277 17.5791 14.9277C17.3391 14.9277 17.1445 15.1223 17.1445 15.3623V18.36C17.1445 18.6001 17.3391 18.7946 17.5791 18.7946C17.8192 18.7946 18.0137 18.6001 18.0137 18.36V17.7249L18.9963 18.6728C19.1668 18.8372 19.4465 18.8322 19.6109 18.6618C19.7775 18.4891 19.7726 18.2139 19.5999 18.0473L18.3089 16.8018Z" fill="#808080"/>
<path d="M11.0643 8.74244C10.9236 8.81827 10.8358 8.96517 10.8358 9.12502V11.6078C10.8358 11.8478 11.0304 12.0424 11.2704 12.0424C11.5105 12.0424 11.7051 11.8478 11.7051 11.6078V9.37318C12.7039 8.73357 13.3142 7.62919 13.3142 6.43133C13.3142 4.95541 12.3801 3.63208 10.9898 3.13836C10.8568 3.09108 10.7091 3.11142 10.5937 3.19286C10.4784 3.27431 10.4098 3.40669 10.4098 3.54789V5.89472H9.23153V3.54794C9.23153 3.40673 9.16295 3.27435 9.04761 3.19291C8.93231 3.11146 8.78459 3.09112 8.65151 3.13841C7.2612 3.63212 6.32715 4.95545 6.32715 6.43138C6.32715 7.62924 6.93747 8.73361 7.93628 9.37322V11.6078C7.93628 11.8479 8.13085 12.0424 8.37088 12.0424C8.61092 12.0424 8.80549 11.8479 8.80549 11.6078V9.12506C8.80549 8.96522 8.71774 8.81827 8.57706 8.74248C7.72541 8.28354 7.19632 7.39798 7.19632 6.43142C7.19632 5.54326 7.64644 4.72872 8.36232 4.24909V6.32942C8.36232 6.56945 8.5569 6.76402 8.79693 6.76402H10.8444C11.0844 6.76402 11.279 6.56945 11.279 6.32942V4.24904C11.9948 4.72868 12.445 5.54326 12.445 6.43138C12.445 7.39794 11.9159 8.28349 11.0643 8.74244Z" fill="#808080"/>
</svg>
