<svg width="28" height="28" viewBox="0 0 28 28" fill="none" xmlns="http://www.w3.org/2000/svg">
<path d="M21.4674 2.80078C19.4049 2.80078 17.733 4.47238 17.733 6.53402C17.733 8.27114 18.9253 9.71874 20.533 10.1351V12.134C20.533 12.6495 20.1147 13.0673 19.5998 13.0673H10.2666C9.21096 13.0673 8.2486 13.431 7.46656 14.0226V10.1362C9.07432 9.71874 10.2666 8.27142 10.2666 6.5343C10.2666 4.47238 8.59496 2.80078 6.53304 2.80078C4.47112 2.80078 2.7998 4.47238 2.7998 6.53402C2.7998 8.27114 3.99204 9.71874 5.5998 10.1343V17.867C3.99204 18.2825 2.7998 19.7299 2.7998 21.4673C2.7998 23.5292 4.4714 25.2008 6.53304 25.2008C8.59468 25.2008 10.2663 23.5292 10.2663 21.4675C10.2663 19.7301 9.07404 18.2828 7.46628 17.8673V17.734C7.46628 16.1876 8.7204 14.934 10.2663 14.934H19.5998C21.1457 14.934 22.3998 13.6807 22.3998 12.134V10.1357C24.0067 9.71902 25.1998 8.2717 25.1998 6.53402C25.1998 4.47238 23.5282 2.80078 21.4674 2.80078ZM8.3998 21.4675C8.3998 22.4993 7.564 23.334 6.53304 23.334C5.50208 23.334 4.66628 22.4993 4.66628 21.4675C4.66628 20.4366 5.50208 19.6008 6.53304 19.6008C7.564 19.6008 8.3998 20.4366 8.3998 21.4675ZM6.53304 8.40078C5.50208 8.40078 4.66628 7.56498 4.66628 6.53402C4.66628 5.50306 5.50208 4.66726 6.53304 4.66726C7.564 4.66726 8.3998 5.50334 8.3998 6.53402C8.3998 7.5647 7.564 8.40078 6.53304 8.40078ZM21.4666 8.40078C20.4356 8.40078 19.5998 7.56498 19.5998 6.53402C19.5998 5.50306 20.4356 4.66726 21.4666 4.66726C22.4975 4.66726 23.333 5.50306 23.333 6.53402C23.333 7.56498 22.4975 8.40078 21.4666 8.40078Z" fill="#312FB5"/>
</svg>
