<svg width="32" height="32" viewBox="0 0 32 32" fill="none" xmlns="http://www.w3.org/2000/svg">
<g clip-path="url(#clip0_2674_968)">
<path d="M6.1216 5.67382C6.31269 5.67382 6.4864 5.60434 6.61671 5.47402C6.71228 5.37845 8.99656 3.13758 12.4274 2.02582C17.0048 0.531905 21.339 1.68706 25.2909 5.43928C25.5689 5.70856 26.0119 5.69119 26.2811 5.4132C26.4114 5.27423 26.4809 5.10052 26.4722 4.91809C26.4634 4.73566 26.394 4.56195 26.255 4.4317C23.8578 2.16473 21.2955 0.748956 18.6203 0.227822C16.4749 -0.189085 14.2601 -0.0327452 12.0366 0.688187C8.25825 1.91288 5.73944 4.3883 5.63521 4.49253C5.5049 4.62284 5.42676 4.79655 5.42676 4.98763C5.42676 5.17872 5.49624 5.35243 5.62656 5.48274C5.75675 5.59562 5.93052 5.67382 6.1216 5.67382Z" fill="#27AE60"/>
<path d="M27.888 14.7762C27.1758 10.1902 25.3691 6.89833 22.5115 5.00488C18.3598 2.25152 13.4524 3.44148 13.2526 3.49359C12.8791 3.58045 12.6446 3.96261 12.7401 4.33612C12.827 4.70963 13.2091 4.94411 13.5826 4.8486C13.7651 4.80514 18.0557 3.76287 21.7037 6.17752C24.2486 7.86252 25.8729 10.8243 26.5156 14.9848C26.5417 15.1672 26.6459 15.3322 26.7935 15.4452C26.9151 15.532 27.0541 15.5841 27.2018 15.5841C27.2365 15.5841 27.2713 15.5841 27.306 15.5754C27.6795 15.5145 27.9487 15.1584 27.888 14.7762Z" fill="#27AE60"/>
<path d="M5.50478 14.7851C6.13014 7.47178 10.9855 5.78672 11.1939 5.71724C11.3676 5.65641 11.5153 5.53481 11.5935 5.36981C11.6803 5.20476 11.689 5.01368 11.6282 4.83997C11.5066 4.47517 11.1071 4.27537 10.7423 4.39697C10.4991 4.47517 4.80994 6.44677 4.10643 14.6721C4.08906 14.8546 4.14989 15.0369 4.27149 15.1846C4.39309 15.3236 4.55814 15.4105 4.74923 15.4278H4.81005C4.97511 15.4278 5.13145 15.367 5.2617 15.2628C5.40055 15.1412 5.48741 14.9675 5.50478 14.7851Z" fill="#27AE60"/>
<path d="M8.41472 14.733C8.64054 12.9524 9.36148 11.2501 10.4559 9.92986C11.2376 8.99182 12.2017 8.26223 13.244 7.81058C14.3557 7.33285 15.5457 7.16785 16.779 7.31548C18.4988 7.53265 20.2186 8.34909 21.9122 9.75615C22.2075 9.99935 22.6505 9.96461 22.8937 9.6693C23.0153 9.53033 23.0674 9.3479 23.0501 9.15682C23.0327 8.96574 22.9458 8.80068 22.7981 8.6878C20.896 7.10702 18.933 6.17764 16.944 5.93444C15.4675 5.75202 14.0343 5.95181 12.688 6.53378C11.446 7.07228 10.2995 7.94084 9.37879 9.04394C8.11069 10.5639 7.27688 12.5269 7.02497 14.568C6.84254 16.0185 6.61672 17.2519 6.34749 18.2247C6.00007 19.4841 5.59182 20.3179 5.14888 20.6914C5.00992 20.813 4.91435 20.978 4.89697 21.1691C4.8796 21.3515 4.94043 21.5339 5.05331 21.6816C5.19228 21.8466 5.39208 21.9335 5.59182 21.9335C5.74816 21.9335 5.91322 21.8814 6.04347 21.7684C6.71229 21.2126 7.26816 20.1442 7.69373 18.5982C7.98044 17.5471 8.22364 16.2443 8.41472 14.733Z" fill="#27AE60"/>
<path d="M22.4418 17.2865V17.2778C22.3723 16.6437 22.3029 15.9836 22.242 15.4191C22.216 15.1933 22.1986 15.0543 22.1812 14.9153C21.9901 13.1695 21.799 11.5105 20.279 10.1556C19.4278 9.39124 18.3074 8.8701 17.1261 8.67031C16.1534 8.51397 15.1545 8.57474 14.2512 8.8701C13.2437 9.1915 12.3664 9.76475 11.6368 10.5725C10.6727 11.6495 10.0299 13.0913 9.73463 14.8719C9.72591 14.9066 9.72591 14.9413 9.71726 14.9674V14.9935C9.56957 16.6611 9.10927 18.8847 8.51865 20.7869C7.97143 22.5414 7.40689 23.7574 6.97262 24.1222C6.83365 24.2438 6.73808 24.4089 6.7207 24.5999C6.70333 24.7824 6.76416 24.9647 6.87704 25.1124C6.99864 25.2514 7.1637 25.347 7.35478 25.3643C7.53721 25.3817 7.71957 25.3209 7.86726 25.208C8.74453 24.4784 9.49149 22.3938 9.85628 21.2126C10.4816 19.2062 10.9594 16.8697 11.1157 15.1152C11.3676 13.6039 11.8974 12.3966 12.6791 11.5193C13.235 10.894 13.9038 10.4597 14.6768 10.2165C15.3804 9.99069 16.1447 9.93858 16.909 10.0688C17.8297 10.2252 18.707 10.6247 19.3584 11.2153C20.4788 12.2142 20.6352 13.6125 20.8002 15.0891C20.8263 15.2889 20.8436 15.48 20.861 15.6016C20.9392 16.2791 21 16.8697 21.0608 17.443C21.3735 20.4569 21.7035 23.575 23.0324 26.5021C23.1454 26.7627 23.406 26.9104 23.6665 26.9104C23.7621 26.9104 23.8576 26.893 23.9532 26.8495C24.3006 26.6932 24.4569 26.2763 24.3006 25.9289C23.0585 23.184 22.7458 20.1875 22.4418 17.2865Z" fill="#27AE60"/>
<path d="M19.4452 15.9751C19.5756 14.6896 19.3323 13.5691 18.733 12.7266C18.3682 12.2055 17.8731 11.8059 17.2999 11.5714C16.7527 11.3456 16.1534 11.2847 15.5801 11.389C14.8158 11.5279 14.1383 11.9622 13.6693 12.6049C13.3827 12.9958 13.1308 13.4822 12.9224 14.0467C12.7226 14.594 12.5488 15.228 12.4099 15.9489C12.3056 16.4961 12.2362 16.9825 12.1753 17.4428C12.0624 18.2854 11.9669 19.0236 11.6195 20.0225C11.272 21.0213 10.7856 22.1157 10.1603 23.297C9.34384 24.843 8.5708 25.9722 8.25811 26.363C8.01492 26.6583 8.05832 27.1013 8.35369 27.3445C8.50137 27.4661 8.68374 27.5182 8.86616 27.5008C9.04859 27.4835 9.2223 27.3966 9.33518 27.2489C9.76946 26.7191 10.6206 25.4162 11.3937 23.9571C12.0451 22.7324 12.5663 21.5599 12.9397 20.4828C13.3306 19.3449 13.4435 18.5111 13.5651 17.6339C13.6259 17.1996 13.6867 16.7479 13.7909 16.2181C13.9125 15.5753 14.0689 15.0108 14.2426 14.5417C14.4076 14.0901 14.5987 13.7166 14.8072 13.4386C15.0677 13.0825 15.4325 12.848 15.8408 12.7785C16.1534 12.7177 16.4748 12.7525 16.7788 12.8828C17.1002 13.0131 17.3868 13.2476 17.5953 13.5516C17.9948 14.1162 18.1511 14.9152 18.0556 15.8619C17.8819 17.573 17.1957 20.0658 16.1187 22.8713C14.9809 25.8505 13.5477 28.7949 12.7052 29.8633C12.4707 30.1673 12.5228 30.6016 12.8268 30.8448C12.9572 30.9403 13.1048 30.9924 13.2525 30.9924C13.4609 30.9924 13.6694 30.8969 13.7997 30.7232C14.7291 29.5332 16.2143 26.5106 17.4129 23.3664C18.5419 20.4221 19.2542 17.8077 19.4452 15.9751Z" fill="#27AE60"/>
<path d="M25.421 17.6775C25.282 15.5495 25.1343 13.3434 24.3961 11.6844C24.2397 11.337 23.8228 11.1719 23.4754 11.3283C23.128 11.4846 22.9629 11.9015 23.1193 12.2489C23.7533 13.6734 23.8923 15.7492 24.0226 17.7644C24.1703 19.9792 24.3092 22.0725 25.0822 23.4882C25.1691 23.6533 25.3168 23.7749 25.4991 23.827C25.5686 23.8444 25.6294 23.8531 25.6989 23.8531C25.8119 23.8531 25.9247 23.827 26.029 23.7662C26.194 23.6794 26.3156 23.5317 26.3677 23.3493C26.4198 23.1669 26.4025 22.9845 26.3069 22.8195C25.6815 21.6729 25.5599 19.736 25.421 17.6775Z" fill="#27AE60"/>
<path d="M16.6745 14.9066C16.6833 14.7242 16.6224 14.5418 16.4921 14.4028C16.3705 14.2639 16.1968 14.1857 16.0057 14.177C15.6236 14.1596 15.2935 14.4549 15.2761 14.8371C15.1458 17.4341 14.59 20.0746 13.678 22.4805C12.7834 24.8517 11.5674 26.9014 10.0821 28.5691C9.8302 28.8558 9.84757 29.2987 10.1429 29.5593C10.2733 29.6809 10.4383 29.733 10.6033 29.733C10.7944 29.733 10.9855 29.6548 11.1244 29.4985C12.7226 27.7005 14.0255 25.503 14.9895 22.9755C15.9536 20.4307 16.5356 17.6426 16.6745 14.9066Z" fill="#27AE60"/>
<path d="M20.696 23.1579L20.6265 22.8105C20.5831 22.5586 20.4093 22.3502 20.1661 22.2633C19.9924 22.2025 19.8013 22.2112 19.6276 22.2894C19.4626 22.3676 19.3323 22.5152 19.2715 22.6889L19.2455 22.7671C18.7591 24.1394 18.2813 25.4857 17.6821 26.832C17.0133 28.352 16.2837 29.6896 15.4586 30.9142C15.3543 31.0706 15.3196 31.253 15.3543 31.4354C15.3891 31.6178 15.4933 31.7741 15.6496 31.8784C15.7712 31.9566 15.9016 32 16.0405 32C16.2664 32 16.4835 31.8957 16.6225 31.6959C17.491 30.4105 18.2554 29.0034 18.9676 27.3966C19.2369 26.7886 19.4974 26.1458 19.7754 25.4075C20.0794 26.5888 20.4963 27.8656 21.2954 29.2814C21.3822 29.4464 21.5386 29.5593 21.7123 29.6114C21.8947 29.6635 22.0771 29.6375 22.2421 29.5506C22.4072 29.455 22.5201 29.3074 22.5722 29.1337C22.6243 28.9512 22.5983 28.7689 22.5114 28.6038C21.4517 26.7017 21.0869 24.982 20.696 23.1579Z" fill="#27AE60"/>
</g>
<defs>
<clipPath id="clip0_2674_968">
<rect width="32" height="32" fill="white"/>
</clipPath>
</defs>
</svg>
