<svg width="13" height="13" viewBox="0 0 13 13" fill="none" xmlns="http://www.w3.org/2000/svg">
<g clip-path="url(#clip0_2142_465)">
<path d="M11.0962 8.40379C10.3882 7.69585 9.54558 7.17176 8.62619 6.8545C9.61089 6.1763 10.2578 5.04126 10.2578 3.75781C10.2578 1.68576 8.57205 0 6.5 0C4.42795 0 2.74219 1.68576 2.74219 3.75781C2.74219 5.04126 3.38912 6.1763 4.37384 6.8545C3.45445 7.17176 2.61178 7.69585 1.90381 8.40379C0.676127 9.6315 0 11.2638 0 13H1.01562C1.01562 9.9759 3.4759 7.51562 6.5 7.51562C9.5241 7.51562 11.9844 9.9759 11.9844 13H13C13 11.2638 12.3239 9.6315 11.0962 8.40379ZM6.5 6.5C4.98796 6.5 3.75781 5.26988 3.75781 3.75781C3.75781 2.24575 4.98796 1.01562 6.5 1.01562C8.01204 1.01562 9.24219 2.24575 9.24219 3.75781C9.24219 5.26988 8.01204 6.5 6.5 6.5Z" fill="url(#paint0_linear_2142_465)"/>
</g>
<defs>
<linearGradient id="paint0_linear_2142_465" x1="-7.92187" y1="-2.84375" x2="20.7187" y2="19.6016" gradientUnits="userSpaceOnUse">
<stop stop-color="#27AE60"/>
<stop offset="1" stop-color="#0052CC"/>
</linearGradient>
<clipPath id="clip0_2142_465">
<rect width="13" height="13" fill="white"/>
</clipPath>
</defs>
</svg>
