<svg width="24" height="24" viewBox="0 0 24 24" fill="none" xmlns="http://www.w3.org/2000/svg">
<path d="M4.49981 16.4993V16.6868C4.49981 17.0349 4.6381 17.3688 4.88424 17.6149C5.13038 17.8611 5.46422 17.9993 5.81231 17.9993H10.6873C11.0354 17.9993 11.3693 17.8611 11.6154 17.6149C11.8615 17.3688 11.9998 17.0349 11.9998 16.6868V16.4993C12.0149 15.8522 11.8146 15.2185 11.4304 14.6975C11.0463 14.1766 10.5 13.798 9.87732 13.6212C10.2446 13.2918 10.5033 12.8587 10.6191 12.3791C10.735 11.8995 10.7026 11.3961 10.5263 10.9353C10.3499 10.4745 10.0379 10.0781 9.6314 9.7985C9.22494 9.51886 8.74318 9.36914 8.24981 9.36914C7.75645 9.36914 7.27469 9.51886 6.86823 9.7985C6.46177 10.0781 6.14973 10.4745 5.97337 10.9353C5.79701 11.3961 5.76462 11.8995 5.88049 12.3791C5.99636 12.8587 6.25503 13.2918 6.62231 13.6212C5.99966 13.798 5.45336 14.1766 5.0692 14.6975C4.68503 15.2185 4.48475 15.8522 4.49981 16.4993ZM8.24981 10.1243C8.58357 10.1243 8.90983 10.2233 9.18734 10.4087C9.46485 10.5942 9.68114 10.8577 9.80886 11.1661C9.93658 11.4744 9.97 11.8137 9.90489 12.141C9.83978 12.4684 9.67906 12.7691 9.44306 13.0051C9.20706 13.2411 8.90637 13.4018 8.57903 13.4669C8.25169 13.532 7.91239 13.4986 7.60404 13.3709C7.29569 13.2432 7.03213 13.0269 6.84671 12.7494C6.66128 12.4718 6.56231 12.1456 6.56231 11.8118C6.56231 11.3643 6.7401 10.9351 7.05657 10.6186C7.37304 10.3021 7.80226 10.1243 8.24981 10.1243ZM7.49981 14.2493H8.99981C9.29711 14.2427 9.59268 14.2963 9.86867 14.407C10.1447 14.5177 10.3954 14.6832 10.6056 14.8935C10.8159 15.1038 10.9814 15.3545 11.0921 15.6305C11.2028 15.9065 11.2565 16.202 11.2498 16.4993V16.6868C11.2498 16.836 11.1906 16.9791 11.0851 17.0846C10.9796 17.1901 10.8365 17.2493 10.6873 17.2493H5.81231C5.66313 17.2493 5.52006 17.1901 5.41457 17.0846C5.30908 16.9791 5.24981 16.836 5.24981 16.6868V16.4993C5.24315 16.202 5.2968 15.9065 5.40752 15.6305C5.51823 15.3545 5.68372 15.1038 5.89399 14.8935C6.10427 14.6832 6.35497 14.5177 6.63096 14.407C6.90695 14.2963 7.20252 14.2427 7.49981 14.2493Z" fill="#B4B4B4"/>
<path d="M19.875 13.875C19.7755 13.875 19.6802 13.9145 19.6098 13.9848C19.5395 14.0552 19.5 14.1505 19.5 14.25V18.9375C19.5 19.0867 19.4407 19.2298 19.3352 19.3352C19.2298 19.4407 19.0867 19.5 18.9375 19.5H3.5625C3.41332 19.5 3.27024 19.4407 3.16475 19.3352C3.05926 19.2298 3 19.0867 3 18.9375V8.0625C3 7.91332 3.05926 7.77024 3.16475 7.66475C3.27024 7.55926 3.41332 7.5 3.5625 7.5H11.8125C11.912 7.5 12.0073 7.46049 12.0777 7.39017C12.148 7.31984 12.1875 7.22446 12.1875 7.125C12.1875 7.02554 12.148 6.93016 12.0777 6.85983C12.0073 6.78951 11.912 6.75 11.8125 6.75H3.5625C3.2144 6.75 2.88056 6.88828 2.63442 7.13442C2.38828 7.38056 2.25 7.7144 2.25 8.0625V18.9375C2.25 19.2856 2.38828 19.6194 2.63442 19.8656C2.88056 20.1117 3.2144 20.25 3.5625 20.25H18.9375C19.2856 20.25 19.6194 20.1117 19.8656 19.8656C20.1117 19.6194 20.25 19.2856 20.25 18.9375V14.25C20.25 14.1505 20.2105 14.0552 20.1402 13.9848C20.0698 13.9145 19.9745 13.875 19.875 13.875Z" fill="#B4B4B4"/>
<path d="M19.5468 6.86123L17.188 9.21998L15.703 7.73498C15.6327 7.66462 15.5372 7.62509 15.4377 7.62509C15.3382 7.62509 15.2428 7.66462 15.1724 7.73498C15.102 7.80535 15.0625 7.90078 15.0625 8.0003C15.0625 8.09981 15.102 8.19524 15.1724 8.26561L16.9218 10.015C16.9567 10.0501 16.9981 10.0779 17.0438 10.0969C17.0895 10.1159 17.1385 10.1256 17.188 10.1256C17.2873 10.1252 17.3824 10.0854 17.4524 10.015L20.0774 7.38998C20.1419 7.31853 20.1765 7.22501 20.1739 7.12878C20.1714 7.03255 20.1319 6.94099 20.0638 6.87304C19.9956 6.80509 19.9039 6.76597 19.8076 6.76377C19.7114 6.76157 19.618 6.79647 19.5468 6.86123Z" fill="#B4B4B4"/>
<path d="M22.1775 4.77644C22.1682 4.68984 22.1291 4.60916 22.0668 4.54826C22.0045 4.48736 21.923 4.45004 21.8362 4.44269C21.1209 4.35017 20.4226 4.1557 19.7625 3.86519C19.0806 3.58126 18.4454 3.19632 17.8781 2.72332C17.8089 2.66007 17.7186 2.625 17.625 2.625C17.5313 2.625 17.441 2.66007 17.3718 2.72332C16.8047 3.19653 16.1694 3.58149 15.4875 3.86519C14.8308 4.15448 14.1363 4.34893 13.425 4.44269C13.3378 4.44962 13.2559 4.48676 13.1932 4.5477C13.1306 4.60864 13.0912 4.68955 13.0818 4.77644C13.065 4.93582 12.69 8.68019 13.6162 10.5289C14.7243 12.7377 17.3662 13.9771 17.4768 14.0296C17.5262 14.0524 17.5799 14.0642 17.6343 14.0642C17.6887 14.0642 17.7425 14.0524 17.7918 14.0296C17.9025 13.9771 20.5443 12.7377 21.6525 10.5289C22.5693 8.68019 22.1943 4.93582 22.1775 4.77644ZM20.9718 10.1933C20.13 11.8752 18.1875 12.9758 17.625 13.2702C17.0625 12.9758 15.12 11.8752 14.2781 10.1933C13.5881 8.81332 13.7268 6.05144 13.7943 5.14769C14.4777 5.02862 15.1448 4.82976 15.7818 4.55519C16.4385 4.27748 17.0577 3.91843 17.625 3.48644C18.1922 3.91843 18.8114 4.27748 19.4681 4.55519C20.1051 4.82976 20.7722 5.02862 21.4556 5.14769C21.525 6.05144 21.6637 8.81332 20.9718 10.1933Z" fill="#B4B4B4"/>
<path d="M13.875 18H17.625C17.7245 18 17.8198 17.9605 17.8902 17.8902C17.9605 17.8198 18 17.7245 18 17.625C18 17.5255 17.9605 17.4302 17.8902 17.3598C17.8198 17.2895 17.7245 17.25 17.625 17.25H13.875C13.7755 17.25 13.6802 17.2895 13.6098 17.3598C13.5395 17.4302 13.5 17.5255 13.5 17.625C13.5 17.7245 13.5395 17.8198 13.6098 17.8902C13.6802 17.9605 13.7755 18 13.875 18Z" fill="#B4B4B4"/>
<path d="M13.875 15.75H16.125C16.2245 15.75 16.3198 15.7105 16.3902 15.6402C16.4605 15.5698 16.5 15.4745 16.5 15.375C16.5 15.2755 16.4605 15.1802 16.3902 15.1098C16.3198 15.0395 16.2245 15 16.125 15H13.875C13.7755 15 13.6802 15.0395 13.6098 15.1098C13.5395 15.1802 13.5 15.2755 13.5 15.375C13.5 15.4745 13.5395 15.5698 13.6098 15.6402C13.6802 15.7105 13.7755 15.75 13.875 15.75Z" fill="#B4B4B4"/>
</svg>
