<svg width="17" height="18" viewBox="0 0 17 18" fill="none" xmlns="http://www.w3.org/2000/svg">
<path d="M16.892 8.64983C16.7401 8.42986 13.1215 3.26367 8.49992 3.26367C3.87833 3.26367 0.259583 8.42986 0.107877 8.64962C-0.0359591 8.85831 -0.0359591 9.14135 0.107877 9.35004C0.259583 9.57001 3.87833 14.7362 8.49992 14.7362C13.1215 14.7362 16.7401 9.56998 16.892 9.35022C17.036 9.14156 17.036 8.85831 16.892 8.64983ZM8.49992 13.5494C5.09563 13.5494 2.14715 10.1205 1.27434 8.99953C2.14602 7.87759 5.08832 4.45048 8.49992 4.45048C11.904 4.45048 14.8523 7.87878 15.7255 9.00034C14.8538 10.1222 11.9115 13.5494 8.49992 13.5494Z" fill="#27AE60"/>
<path d="M8.50035 5.43945C6.64622 5.43945 5.1377 7.03671 5.1377 8.99991C5.1377 10.9631 6.64622 12.5604 8.50035 12.5604C10.3545 12.5604 11.863 10.9631 11.863 8.99991C11.863 7.03671 10.3545 5.43945 8.50035 5.43945ZM8.50035 11.3735C7.26419 11.3735 6.2586 10.3087 6.2586 8.99991C6.2586 7.69107 7.26423 6.62629 8.50035 6.62629C9.73647 6.62629 10.7421 7.69107 10.7421 8.99991C10.7421 10.3087 9.7365 11.3735 8.50035 11.3735Z" fill="#27AE60"/>
</svg>
