<svg width="24" height="24" viewBox="0 0 24 24" fill="none" xmlns="http://www.w3.org/2000/svg">
<g clip-path="url(#clip0_2154_949)">
<path d="M13.0406 20.9422C13.0406 21.1493 12.8727 21.3172 12.6656 21.3172H2.83197C2.62488 21.3172 2.45697 21.1493 2.45697 20.9422C2.45697 20.7352 2.62488 20.5672 2.83197 20.5672H12.6656C12.8727 20.5672 13.0406 20.7352 13.0406 20.9422ZM2.83197 7.81598H8.19255C8.39964 7.81598 8.56755 7.64808 8.56755 7.44098C8.56755 7.23389 8.39964 7.06598 8.19255 7.06598H2.83197C2.62488 7.06598 2.45697 7.23389 2.45697 7.44098C2.45697 7.64808 2.62488 7.81598 2.83197 7.81598ZM23.38 22.0803L22.3784 23.1126C22.2151 23.2809 21.9974 23.3655 21.7796 23.3655C21.5702 23.3655 21.3605 23.2874 21.1987 23.1303L18.4243 20.4381C18.2647 20.2833 18.175 20.0752 18.1716 19.8519C18.1695 19.7118 18.2017 19.5766 18.2642 19.4558L18.0436 19.2417H17.3044V21.0583C17.3044 21.2654 17.1365 21.4333 16.9294 21.4333H15.1128V23.25C15.1128 23.4571 14.9449 23.625 14.7378 23.625H0.759766C0.552672 23.625 0.384766 23.4571 0.384766 23.25V5.13323C0.384766 4.92614 0.552672 4.75823 0.759766 4.75823H2.57636V2.94164C2.57636 2.73455 2.74427 2.56664 2.95136 2.56664H4.76795V0.75C4.76795 0.542906 4.93586 0.375 5.14295 0.375H16.8563C16.9557 0.375 17.0511 0.414516 17.1214 0.484828L19.3861 2.7495C19.4564 2.81981 19.4959 2.9152 19.4959 3.01467V17.8302L19.7029 18.031C19.7946 17.9952 19.8927 17.975 19.9943 17.9735C20.2157 17.971 20.4283 18.0535 20.5879 18.2085L23.3622 20.9006C23.6924 21.2211 23.7003 21.7503 23.38 22.0803ZM19.1264 18.5166L18.1097 17.5301C17.9993 17.666 17.8824 17.7965 17.7595 17.9211L18.7611 18.893L19.1264 18.5166ZM18.5743 14.1125C18.5743 11.5335 16.4762 9.43542 13.8972 9.43542C11.3182 9.43542 9.22005 11.5335 9.22005 14.1125C9.22005 16.6915 11.3182 18.7896 13.8972 18.7896C16.4762 18.7896 18.5743 16.6915 18.5743 14.1125ZM12.8481 7.02295H13.8325L12.8481 6.03858V7.02295ZM15.0397 4.83131H16.024L15.0397 3.84694V4.83131ZM18.746 17.1024V16.5483C18.684 16.6712 18.6176 16.7916 18.5467 16.909L18.746 17.1024ZM17.2313 2.63967H18.2157L17.2313 1.6553V2.63967ZM5.518 2.56664H14.6647C14.7641 2.56664 14.8595 2.60616 14.9298 2.67647L17.1945 4.94114C17.2648 5.01145 17.3043 5.10684 17.3043 5.20631V9.89166C17.9027 10.3756 18.3964 10.9838 18.746 11.6768V3.38967H16.8563C16.6492 3.38967 16.4813 3.22177 16.4813 3.01467V1.125H5.518V2.56664ZM3.32641 4.75823H12.4731C12.5725 4.75823 12.6679 4.79775 12.7383 4.86806L15.0029 7.13273C15.0732 7.20305 15.1128 7.29844 15.1128 7.39791V8.82272C15.6245 8.94028 16.1088 9.13064 16.5543 9.38189V5.58127H14.6647C14.4576 5.58127 14.2897 5.41336 14.2897 5.20627V3.31664H3.32641V4.75823ZM14.3628 22.875V19.5195C14.2092 19.5326 14.054 19.5397 13.8971 19.5397C13.4588 19.5397 13.0326 19.4871 12.6242 19.3885H2.83197C2.62488 19.3885 2.45697 19.2206 2.45697 19.0135C2.45697 18.8064 2.62488 18.6385 2.83197 18.6385H10.9059C10.4195 18.316 9.98772 17.9175 9.628 17.4598H2.83197C2.62488 17.4598 2.45697 17.2919 2.45697 17.0848C2.45697 16.8777 2.62488 16.7098 2.83197 16.7098H9.133C8.93097 16.3407 8.77084 15.9456 8.65848 15.531H2.83197C2.62488 15.531 2.45697 15.3631 2.45697 15.156C2.45697 14.949 2.62488 14.781 2.83197 14.781H8.5112C8.48416 14.562 8.47 14.3389 8.47 14.1126C8.47 13.9404 8.47844 13.7703 8.49419 13.6022H2.83197C2.62488 13.6022 2.45697 13.4343 2.45697 13.2272C2.45697 13.0201 2.62488 12.8522 2.83197 12.8522H8.61812C8.71675 12.4391 8.86267 12.0442 9.04998 11.6735H2.83197C2.62488 11.6735 2.45697 11.5056 2.45697 11.2985C2.45697 11.0914 2.62488 10.9235 2.83197 10.9235H9.50875C9.83669 10.4735 10.232 10.0755 10.6799 9.7448H2.83197C2.62488 9.7448 2.45697 9.57689 2.45697 9.3698C2.45697 9.1627 2.62488 8.9948 2.83197 8.9948H12.0912C12.6565 8.79473 13.2642 8.68547 13.8971 8.68547C14.054 8.68547 14.2092 8.69255 14.3628 8.70567V7.773H12.4731C12.266 7.773 12.0981 7.60509 12.0981 7.398V5.50833H1.13477V22.875H14.3628ZM16.5544 20.6834V18.8431C16.1088 19.0943 15.6246 19.2847 15.1128 19.4023V20.6833H16.5544V20.6834ZM22.84 21.4387L20.0656 18.7466C20.046 18.7275 20.0232 18.7234 20.0071 18.7234C20.0066 18.7234 20.0061 18.7234 20.0057 18.7234C19.9895 18.7236 19.966 18.7282 19.9465 18.7484L18.9447 19.7806C18.9251 19.8009 18.9213 19.8244 18.9215 19.8406C18.9217 19.8568 18.9263 19.8802 18.9465 19.8998L21.7209 22.592C21.7537 22.6239 21.8083 22.623 21.8401 22.5902L22.8418 21.558C22.8737 21.5252 22.8728 21.4706 22.84 21.4387ZM17.8592 14.1125C17.8592 16.2972 16.0818 18.0745 13.8971 18.0745C11.7125 18.0745 9.93513 16.2972 9.93513 14.1125C9.93513 11.9279 11.7125 10.1505 13.8971 10.1505C16.0818 10.1505 17.8592 11.9279 17.8592 14.1125ZM17.1092 14.1125C17.1092 12.3414 15.6683 10.9005 13.8971 10.9005C12.126 10.9005 10.6851 12.3414 10.6851 14.1125C10.6851 15.8836 12.126 17.3245 13.8971 17.3245C15.6683 17.3245 17.1092 15.8837 17.1092 14.1125Z" fill="#3F4EF8"/>
</g>
<defs>
<clipPath id="clip0_2154_949">
<rect width="24" height="24" fill="white"/>
</clipPath>
</defs>
</svg>
