<svg width="43" height="43" viewBox="0 0 43 43" fill="none" xmlns="http://www.w3.org/2000/svg">
<g clip-path="url(#clip0_78_2378)">
<mask id="mask0_78_2378" style="mask-type:luminance" maskUnits="userSpaceOnUse" x="0" y="0" width="43" height="43">
<path d="M0 0H43V43H0V0Z" fill="white"/>
</mask>
<g mask="url(#mask0_78_2378)">
<path d="M7.16634 20.6041V27.7707C7.16634 29.2578 8.36676 30.4582 9.85384 30.4582C11.3409 30.4582 12.5413 29.2578 12.5413 27.7707V20.6041C12.5413 19.117 11.3409 17.9166 9.85384 17.9166C8.36676 17.9166 7.16634 19.117 7.16634 20.6041ZM17.9163 20.6041V27.7707C17.9163 29.2578 19.1168 30.4582 20.6038 30.4582C22.0909 30.4582 23.2913 29.2578 23.2913 27.7707V20.6041C23.2913 19.117 22.0909 17.9166 20.6038 17.9166C19.1168 17.9166 17.9163 19.117 17.9163 20.6041ZM6.27051 39.4166H34.9372C36.4243 39.4166 37.6247 38.2161 37.6247 36.7291C37.6247 35.242 36.4243 34.0416 34.9372 34.0416H6.27051C4.78342 34.0416 3.58301 35.242 3.58301 36.7291C3.58301 38.2161 4.78342 39.4166 6.27051 39.4166ZM28.6663 20.6041V27.7707C28.6663 29.2578 29.8668 30.4582 31.3538 30.4582C32.8409 30.4582 34.0413 29.2578 34.0413 27.7707V20.6041C34.0413 19.117 32.8409 17.9166 31.3538 17.9166C29.8668 17.9166 28.6663 19.117 28.6663 20.6041ZM18.9376 2.66949L4.78342 10.1228C4.04884 10.4991 3.58301 11.2695 3.58301 12.0937C3.58301 13.3299 4.58634 14.3332 5.82259 14.3332H35.403C36.6213 14.3332 37.6247 13.3299 37.6247 12.0937C37.6247 11.2695 37.1588 10.4991 36.4243 10.1228L22.2701 2.66949C21.2309 2.11408 19.9768 2.11408 18.9376 2.66949Z" fill="url(#paint0_linear_78_2378)"/>
</g>
</g>
<defs>
<linearGradient id="paint0_linear_78_2378" x1="3.16023" y1="20.8314" x2="39.351" y2="20.8314" gradientUnits="userSpaceOnUse">
<stop stop-color="#27AE60"/>
<stop offset="1" stop-color="#0052CC"/>
</linearGradient>
<clipPath id="clip0_78_2378">
<rect width="43" height="43" fill="white"/>
</clipPath>
</defs>
</svg>
