<svg width="24" height="24" viewBox="0 0 24 24" fill="none" xmlns="http://www.w3.org/2000/svg">
<path d="M14.5116 21H9.48837C4.94233 21 3 19.0577 3 14.5116V9.48837C3 4.94233 4.94233 3 9.48837 3H14.5116C19.0577 3 21 4.94233 21 9.48837V14.5116C21 19.0577 19.0577 21 14.5116 21ZM9.48837 4.25581C5.62884 4.25581 4.25581 5.62884 4.25581 9.48837V14.5116C4.25581 18.3712 5.62884 19.7442 9.48837 19.7442H14.5116C18.3712 19.7442 19.7442 18.3712 19.7442 14.5116V9.48837C19.7442 5.62884 18.3712 4.25581 14.5116 4.25581H9.48837Z" fill="#0B3A78"/>
<path d="M8.09019 14.7125C7.95624 14.7125 7.82228 14.6706 7.70507 14.5785C7.42879 14.3692 7.37856 13.9757 7.58786 13.6994L9.58042 11.1125C9.82321 10.8027 10.1665 10.6018 10.56 10.5515C10.9451 10.5013 11.3386 10.6101 11.6483 10.8529L13.1804 12.0585C13.239 12.1088 13.2976 12.1088 13.3395 12.1004C13.373 12.1004 13.4316 12.0836 13.4818 12.0167L15.4158 9.52178C15.6251 9.2455 16.0269 9.19526 16.2948 9.41294C16.5711 9.62224 16.6214 10.0157 16.4037 10.292L14.4697 12.7869C14.2269 13.0967 13.8837 13.2976 13.4902 13.3395C13.0967 13.3897 12.7116 13.2808 12.4018 13.0381L10.8697 11.8325C10.8111 11.7822 10.7441 11.7822 10.7107 11.7906C10.6772 11.7906 10.6186 11.8074 10.5683 11.8743L8.57577 14.4613C8.46693 14.6288 8.28275 14.7125 8.09019 14.7125Z" fill="#0B3A78"/>
</svg>
