<svg width="10" height="10" viewBox="0 0 10 10" fill="none" xmlns="http://www.w3.org/2000/svg">
<g clip-path="url(#clip0_2318_2298)">
<path d="M8.95279 7.43465C8.77968 7.30588 8.53499 7.34184 8.40622 7.51491C8.3354 7.6101 8.25962 7.70348 8.18097 7.79245C8.0381 7.95407 8.05328 8.20094 8.2149 8.34383C8.28923 8.40954 8.38152 8.4418 8.47347 8.4418C8.58152 8.4418 8.6891 8.39721 8.76628 8.30989C8.85943 8.20454 8.94917 8.09395 9.03304 7.9812C9.16181 7.80813 9.12589 7.5634 8.95279 7.43465Z" fill="#0B3A78"/>
<path d="M9.60623 5.60277C9.39556 5.55689 9.18734 5.69058 9.14146 5.90136C9.11621 6.01732 9.0857 6.13349 9.05072 6.24669C8.98703 6.45283 9.1025 6.67154 9.30861 6.73523C9.34703 6.74708 9.38585 6.75273 9.42406 6.75273C9.59086 6.75273 9.74531 6.64503 9.79714 6.4773C9.83867 6.34296 9.87488 6.20509 9.90484 6.06753C9.95072 5.85675 9.81703 5.64867 9.60623 5.60277Z" fill="#0B3A78"/>
<path d="M7.07253 8.68634C6.96882 8.74423 6.86143 8.79833 6.75339 8.84714C6.55677 8.93593 6.46936 9.1673 6.55815 9.36392C6.62339 9.50837 6.76555 9.59386 6.91438 9.59386C6.96813 9.59386 7.02276 9.58271 7.07493 9.55915C7.20311 9.50126 7.33042 9.4371 7.45339 9.36845C7.64177 9.26329 7.70921 9.02533 7.60401 8.83697C7.49887 8.64863 7.26091 8.58118 7.07253 8.68634Z" fill="#0B3A78"/>
<path d="M4.60931 1.875V4.8382L3.1769 6.27059C3.02437 6.42314 3.02437 6.67047 3.1769 6.82301C3.25319 6.8993 3.35313 6.93742 3.45313 6.93742C3.5531 6.93742 3.65308 6.89928 3.72937 6.82301L5.27616 5.27621C5.3494 5.20297 5.39056 5.10359 5.39056 5V1.875C5.39056 1.65926 5.21567 1.48438 4.99993 1.48438C4.78419 1.48438 4.60931 1.65926 4.60931 1.875Z" fill="#0B3A78"/>
<path d="M9.60938 0.839844C9.39363 0.839844 9.21875 1.01473 9.21875 1.23047V2.31516C8.30953 0.889219 6.7217 0 5 0C3.66445 0 2.40885 0.520098 1.46445 1.46445C0.520098 2.40885 0 3.66445 0 5C0 6.33555 0.520098 7.59115 1.46445 8.53555C2.40885 9.4799 3.66445 10 5 10C5.0033 10 5.00648 9.99959 5.00977 9.99951C5.01305 9.99959 5.01623 10 5.01953 10C5.16031 10 5.30248 9.99406 5.44213 9.98238C5.65711 9.96437 5.8168 9.77551 5.79881 9.56053C5.78078 9.34555 5.59217 9.18578 5.37693 9.20387C5.25889 9.21373 5.13865 9.21875 5.01953 9.21875C5.01623 9.21875 5.01305 9.21916 5.00977 9.21924C5.00648 9.21916 5.0033 9.21875 5 9.21875C2.67377 9.21875 0.78125 7.32623 0.78125 5C0.78125 2.67377 2.67377 0.78125 5 0.78125C6.49918 0.78125 7.87807 1.58033 8.63156 2.85156H7.55748C7.34174 2.85156 7.16686 3.02645 7.16686 3.24219C7.16686 3.45793 7.34174 3.63281 7.55748 3.63281H8.75C8.98789 3.63281 9.21045 3.56596 9.39994 3.45014C9.41213 3.44318 9.42385 3.4357 9.43502 3.42764C9.77498 3.20398 10 2.81928 10 2.38281V1.23047C10 1.01473 9.82512 0.839844 9.60938 0.839844Z" fill="#0B3A78"/>
</g>
<defs>
<clipPath id="clip0_2318_2298">
<rect width="10" height="10" fill="white"/>
</clipPath>
</defs>
</svg>
