<svg width="24" height="24" viewBox="0 0 24 24" fill="none" xmlns="http://www.w3.org/2000/svg">
<path fill-rule="evenodd" clip-rule="evenodd" d="M22.75 6C22.75 4.74 22.25 3.532 21.359 2.641C20.468 1.75 19.26 1.25 18 1.25H6C4.74 1.25 3.532 1.75 2.641 2.641C1.75 3.532 1.25 4.74 1.25 6V18C1.25 19.26 1.75 20.468 2.641 21.359C3.532 22.25 4.74 22.75 6 22.75H18C19.26 22.75 20.468 22.25 21.359 21.359C22.25 20.468 22.75 19.26 22.75 18V6ZM21.25 6V18C21.25 18.862 20.908 19.689 20.298 20.298C19.689 20.908 18.862 21.25 18 21.25H6C5.138 21.25 4.311 20.908 3.702 20.298C3.092 19.689 2.75 18.862 2.75 18V6C2.75 5.138 3.092 4.311 3.702 3.702C4.311 3.092 5.138 2.75 6 2.75H18C18.862 2.75 19.689 3.092 20.298 3.702C20.908 4.311 21.25 5.138 21.25 6Z" fill="#0B3A78"/>
<path fill-rule="evenodd" clip-rule="evenodd" d="M12.4881 8.16169L10.0881 15.3617C9.95805 15.7547 10.1701 16.1797 10.5631 16.3107C10.9561 16.4407 11.3811 16.2287 11.5121 15.8357L13.9121 8.63569C14.0421 8.24269 13.8301 7.81769 13.4371 7.68669C13.0441 7.55669 12.6191 7.76869 12.4881 8.16169Z" fill="#0B3A78"/>
<path fill-rule="evenodd" clip-rule="evenodd" d="M15.0703 10.1313L16.9393 12.0013L15.0703 13.8713C14.7773 14.1633 14.7773 14.6393 15.0703 14.9313C15.3623 15.2243 15.8383 15.2243 16.1303 14.9313L18.5303 12.5313C18.8233 12.2383 18.8233 11.7643 18.5303 11.4713L16.1303 9.07131C15.8383 8.77831 15.3623 8.77831 15.0703 9.07131C14.7773 9.36331 14.7773 9.83931 15.0703 10.1313Z" fill="#0B3A78"/>
<path fill-rule="evenodd" clip-rule="evenodd" d="M7.86975 9.07131L5.46975 11.4713C5.17675 11.7643 5.17675 12.2383 5.46975 12.5313L7.86975 14.9313C8.16175 15.2243 8.63775 15.2243 8.92975 14.9313C9.22275 14.6393 9.22275 14.1633 8.92975 13.8713L7.06075 12.0013L8.92975 10.1313C9.22275 9.83931 9.22275 9.36331 8.92975 9.07131C8.63775 8.77831 8.16175 8.77831 7.86975 9.07131Z" fill="#0B3A78"/>
</svg>
