<svg width="24" height="24" viewBox="0 0 24 24" fill="none" xmlns="http://www.w3.org/2000/svg">
<path d="M19.5 22.5H6C5.3372 22.4992 4.70178 22.2356 4.23311 21.7669C3.76444 21.2982 3.50079 20.6628 3.5 20V4C3.50079 3.3372 3.76444 2.70178 4.23311 2.23311C4.70178 1.76444 5.3372 1.50079 6 1.5H19.5C20.1628 1.50079 20.7982 1.76444 21.2669 2.23311C21.7356 2.70178 21.9992 3.3372 22 4V20C21.9992 20.6628 21.7356 21.2982 21.2669 21.7669C20.7982 22.2356 20.1628 22.4992 19.5 22.5ZM6 2.5C5.60218 2.5 5.22064 2.65804 4.93934 2.93934C4.65804 3.22064 4.5 3.60218 4.5 4V20C4.5 20.3978 4.65804 20.7794 4.93934 21.0607C5.22064 21.342 5.60218 21.5 6 21.5H19.5C19.8978 21.5 20.2794 21.342 20.5607 21.0607C20.842 20.7794 21 20.3978 21 20V4C21 3.60218 20.842 3.22064 20.5607 2.93934C20.2794 2.65804 19.8978 2.5 19.5 2.5H6Z" fill="#0B3A78"/>
<path d="M5.5 5H2.5C2.36739 5 2.24021 4.94732 2.14645 4.85355C2.05268 4.75979 2 4.63261 2 4.5C2 4.36739 2.05268 4.24021 2.14645 4.14645C2.24021 4.05268 2.36739 4 2.5 4H5.5C5.63261 4 5.75979 4.05268 5.85355 4.14645C5.94732 4.24021 6 4.36739 6 4.5C6 4.63261 5.94732 4.75979 5.85355 4.85355C5.75979 4.94732 5.63261 5 5.5 5Z" fill="#0B3A78"/>
<path d="M5.5 8H2.5C2.36739 8 2.24021 7.94732 2.14645 7.85355C2.05268 7.75979 2 7.63261 2 7.5C2 7.36739 2.05268 7.24021 2.14645 7.14645C2.24021 7.05268 2.36739 7 2.5 7H5.5C5.63261 7 5.75979 7.05268 5.85355 7.14645C5.94732 7.24021 6 7.36739 6 7.5C6 7.63261 5.94732 7.75979 5.85355 7.85355C5.75979 7.94732 5.63261 8 5.5 8Z" fill="#0B3A78"/>
<path d="M5.5 11H2.5C2.36739 11 2.24021 10.9473 2.14645 10.8536C2.05268 10.7598 2 10.6326 2 10.5C2 10.3674 2.05268 10.2402 2.14645 10.1464C2.24021 10.0527 2.36739 10 2.5 10H5.5C5.63261 10 5.75979 10.0527 5.85355 10.1464C5.94732 10.2402 6 10.3674 6 10.5C6 10.6326 5.94732 10.7598 5.85355 10.8536C5.75979 10.9473 5.63261 11 5.5 11Z" fill="#0B3A78"/>
<path d="M5.5 14H2.5C2.36739 14 2.24021 13.9473 2.14645 13.8536C2.05268 13.7598 2 13.6326 2 13.5C2 13.3674 2.05268 13.2402 2.14645 13.1464C2.24021 13.0527 2.36739 13 2.5 13H5.5C5.63261 13 5.75979 13.0527 5.85355 13.1464C5.94732 13.2402 6 13.3674 6 13.5C6 13.6326 5.94732 13.7598 5.85355 13.8536C5.75979 13.9473 5.63261 14 5.5 14Z" fill="#0B3A78"/>
<path d="M5.5 17H2.5C2.36739 17 2.24021 16.9473 2.14645 16.8536C2.05268 16.7598 2 16.6326 2 16.5C2 16.3674 2.05268 16.2402 2.14645 16.1464C2.24021 16.0527 2.36739 16 2.5 16H5.5C5.63261 16 5.75979 16.0527 5.85355 16.1464C5.94732 16.2402 6 16.3674 6 16.5C6 16.6326 5.94732 16.7598 5.85355 16.8536C5.75979 16.9473 5.63261 17 5.5 17Z" fill="#0B3A78"/>
<path d="M5.5 20H2.5C2.36739 20 2.24021 19.9473 2.14645 19.8536C2.05268 19.7598 2 19.6326 2 19.5C2 19.3674 2.05268 19.2402 2.14645 19.1464C2.24021 19.0527 2.36739 19 2.5 19H5.5C5.63261 19 5.75979 19.0527 5.85355 19.1464C5.94732 19.2402 6 19.3674 6 19.5C6 19.6326 5.94732 19.7598 5.85355 19.8536C5.75979 19.9473 5.63261 20 5.5 20Z" fill="#0B3A78"/>
<path d="M7.5 22.5C7.36739 22.5 7.24021 22.4473 7.14645 22.3536C7.05268 22.2598 7 22.1326 7 22V2C7 1.86739 7.05268 1.74021 7.14645 1.64645C7.24021 1.55268 7.36739 1.5 7.5 1.5C7.63261 1.5 7.75979 1.55268 7.85355 1.64645C7.94732 1.74021 8 1.86739 8 2V22C8 22.1326 7.94732 22.2598 7.85355 22.3536C7.75979 22.4473 7.63261 22.5 7.5 22.5Z" fill="#0B3A78"/>
<path d="M14.5 15C14.3674 15 14.2402 14.9473 14.1464 14.8536C14.0527 14.7598 14 14.6326 14 14.5V12C13.8674 12 13.7402 11.9473 13.6464 11.8536C13.5527 11.7598 13.5 11.6326 13.5 11.5C13.5 11.3674 13.5527 11.2402 13.6464 11.1464C13.7402 11.0527 13.8674 11 14 11H14.5C14.6326 11 14.7598 11.0527 14.8536 11.1464C14.9473 11.2402 15 11.3674 15 11.5V14.5C15 14.6326 14.9473 14.7598 14.8536 14.8536C14.7598 14.9473 14.6326 15 14.5 15Z" fill="#0B3A78"/>
<path d="M15.25 15H13.75C13.6174 15 13.4902 14.9473 13.3964 14.8536C13.3027 14.7598 13.25 14.6326 13.25 14.5C13.25 14.3674 13.3027 14.2402 13.3964 14.1464C13.4902 14.0527 13.6174 14 13.75 14H15.25C15.3826 14 15.5098 14.0527 15.6036 14.1464C15.6973 14.2402 15.75 14.3674 15.75 14.5C15.75 14.6326 15.6973 14.7598 15.6036 14.8536C15.5098 14.9473 15.3826 15 15.25 15Z" fill="#0B3A78"/>
<path d="M14.5 10.5C14.9142 10.5 15.25 10.1642 15.25 9.75C15.25 9.33579 14.9142 9 14.5 9C14.0858 9 13.75 9.33579 13.75 9.75C13.75 10.1642 14.0858 10.5 14.5 10.5Z" fill="#0B3A78"/>
<path d="M14.5 17C13.5111 17 12.5444 16.7068 11.7222 16.1574C10.8999 15.6079 10.259 14.827 9.8806 13.9134C9.50217 12.9998 9.40315 11.9945 9.59608 11.0246C9.789 10.0546 10.2652 9.16373 10.9645 8.46447C11.6637 7.76521 12.5546 7.289 13.5246 7.09608C14.4945 6.90315 15.4998 7.00217 16.4134 7.3806C17.3271 7.75904 18.1079 8.39991 18.6574 9.22215C19.2068 10.0444 19.5 11.0111 19.5 12C19.4985 13.3256 18.9713 14.5966 18.0339 15.5339C17.0966 16.4713 15.8256 16.9985 14.5 17ZM14.5 8C13.7089 8 12.9355 8.2346 12.2777 8.67412C11.6199 9.11365 11.1072 9.73836 10.8045 10.4693C10.5017 11.2002 10.4225 12.0044 10.5769 12.7804C10.7312 13.5563 11.1122 14.269 11.6716 14.8284C12.231 15.3878 12.9437 15.7688 13.7196 15.9231C14.4956 16.0775 15.2998 15.9983 16.0307 15.6955C16.7616 15.3928 17.3864 14.8801 17.8259 14.2223C18.2654 13.5645 18.5 12.7911 18.5 12C18.4988 10.9395 18.077 9.92278 17.3271 9.17289C16.5772 8.423 15.5605 8.00119 14.5 8Z" fill="#0B3A78"/>
</svg>
