<svg width="17" height="17" viewBox="0 0 17 17" fill="none" xmlns="http://www.w3.org/2000/svg">
<path fill-rule="evenodd" clip-rule="evenodd" d="M1.59375 3.1875C1.59375 2.3073 2.3073 1.59375 3.1875 1.59375H13.8125C14.6927 1.59375 15.4062 2.3073 15.4062 3.1875V8.5C15.4062 8.79339 15.1684 9.03125 14.875 9.03125C14.5816 9.03125 14.3438 8.79339 14.3438 8.5V3.1875C14.3438 2.89409 14.1059 2.65625 13.8125 2.65625H3.1875C2.8941 2.65625 2.65625 2.8941 2.65625 3.1875V13.8125C2.65625 14.1059 2.89409 14.3438 3.1875 14.3438H8.5C8.79339 14.3438 9.03125 14.5816 9.03125 14.875C9.03125 15.1684 8.79339 15.4062 8.5 15.4062H3.1875C2.3073 15.4062 1.59375 14.6927 1.59375 13.8125V3.1875Z" fill="#B4B4B4"/>
<path fill-rule="evenodd" clip-rule="evenodd" d="M11.333 9.74023C10.4528 9.74023 9.73926 10.4538 9.73926 11.334C9.73926 12.2142 10.4528 12.9277 11.333 12.9277C12.2132 12.9277 12.9268 12.2142 12.9268 11.334C12.9268 10.4538 12.2132 9.74023 11.333 9.74023ZM8.67676 11.334C8.67676 9.86696 9.86598 8.67773 11.333 8.67773C12.8 8.67773 13.9893 9.86696 13.9893 11.334C13.9893 12.801 12.8 13.9902 11.333 13.9902C9.86598 13.9902 8.67676 12.801 8.67676 11.334Z" fill="#B4B4B4"/>
<path fill-rule="evenodd" clip-rule="evenodd" d="M12.6897 12.4182C12.8729 12.189 13.2073 12.1519 13.4363 12.3352L15.2072 13.7518C15.4363 13.9351 15.4734 14.2695 15.2902 14.4986C15.1069 14.7277 14.7726 14.7648 14.5435 14.5815L12.7726 13.1648C12.5436 12.9816 12.5064 12.6472 12.6897 12.4182Z" fill="#B4B4B4"/>
<path fill-rule="evenodd" clip-rule="evenodd" d="M4.42676 5.66602C4.42676 5.37262 4.66461 5.13477 4.95801 5.13477H12.0413C12.3347 5.13477 12.5726 5.37262 12.5726 5.66602C12.5726 5.95941 12.3347 6.19727 12.0413 6.19727H4.95801C4.66461 6.19727 4.42676 5.95941 4.42676 5.66602Z" fill="#B4B4B4"/>
<path fill-rule="evenodd" clip-rule="evenodd" d="M4.42676 8.5C4.42676 8.20661 4.66461 7.96875 4.95801 7.96875H7.79134C8.08473 7.96875 8.32259 8.20661 8.32259 8.5C8.32259 8.79339 8.08473 9.03125 7.79134 9.03125H4.95801C4.66461 9.03125 4.42676 8.79339 4.42676 8.5Z" fill="#B4B4B4"/>
</svg>
