<svg width="20" height="20" viewBox="0 0 20 20" fill="none" xmlns="http://www.w3.org/2000/svg">
<path d="M5.98322 12.5785L9.87177 14.8203C9.91924 14.8462 9.97241 14.8599 10.0265 14.8601C10.0806 14.8603 10.1339 14.847 10.1815 14.8215L14.2046 12.5449C14.2528 12.5177 14.2928 12.4781 14.3207 12.4304C14.3486 12.3826 14.3633 12.3283 14.3633 12.273V7.90225C14.3612 7.84819 14.346 7.79545 14.3189 7.74861C14.2919 7.70176 14.2538 7.66221 14.208 7.6334L10.2422 5.31162C10.1946 5.28389 10.1405 5.26921 10.0854 5.26904C10.0302 5.26888 9.97603 5.28325 9.92822 5.3107L8.50976 6.12949C8.4397 6.17179 8.38902 6.23988 8.3686 6.31914C8.34819 6.3984 8.35968 6.4825 8.40059 6.55338C8.44151 6.62427 8.50859 6.67628 8.58744 6.69824C8.66628 6.72021 8.75059 6.71038 8.82226 6.67086L10.0832 5.94273L13.4329 7.90378L10.0326 9.9039L6.74616 7.86868L7.73768 7.29587C7.80811 7.25375 7.85916 7.18562 7.87979 7.10619C7.90043 7.02676 7.889 6.9424 7.84797 6.87132C7.80695 6.80025 7.73961 6.74816 7.66051 6.7263C7.5814 6.70444 7.49688 6.71457 7.42518 6.7545L5.9814 7.58884C5.93552 7.61689 5.89725 7.65582 5.87 7.70218C5.84274 7.74855 5.82734 7.80091 5.82515 7.85465C5.81498 7.86168 5.8357 12.298 5.82665 12.3078C5.82664 12.3627 5.84111 12.4166 5.8686 12.4641C5.89609 12.5117 5.93562 12.5511 5.98322 12.5785ZM13.7383 8.44927V12.0908L10.3402 14.0138V10.4481L13.7383 8.44927ZM9.71522 10.4427V14.0087L6.45166 12.1271V8.42166L9.71522 10.4427Z" fill="#287392"/>
<path d="M6.38599 15.1172L4.69238 14.1804C4.72945 14.0669 4.74917 13.9484 4.75086 13.829C4.75001 13.5654 4.66241 13.3094 4.50158 13.1005C4.34074 12.8916 4.11562 12.7415 3.86096 12.6732V7.32672C4.15285 7.248 4.40429 7.06204 4.56504 6.806C4.72579 6.54996 4.784 6.2427 4.72806 5.9456L9.21876 3.34259C9.43898 3.5404 9.72466 3.64962 10.0207 3.64918C10.3167 3.64874 10.602 3.53868 10.8217 3.34022L13.1505 4.68046C13.2223 4.7202 13.3068 4.73014 13.3858 4.70814C13.4649 4.68614 13.5321 4.63396 13.573 4.56285C13.6139 4.49174 13.6253 4.4074 13.6046 4.32801C13.5839 4.24863 13.5328 4.18055 13.4624 4.13847L11.1594 2.81311C11.2119 2.64807 11.228 2.47362 11.2067 2.30175C11.1853 2.12988 11.127 1.96467 11.0358 1.81747C10.9445 1.67028 10.8225 1.54459 10.678 1.44905C10.5336 1.35351 10.3701 1.29038 10.199 1.264C10.0278 1.23762 9.85295 1.24861 9.68644 1.29623C9.51993 1.34385 9.3657 1.42696 9.23436 1.53985C9.10302 1.65274 8.99768 1.79273 8.92559 1.9502C8.85349 2.10767 8.81635 2.27888 8.81672 2.45207C8.81839 2.5762 8.83955 2.69929 8.87941 2.81686L4.45026 5.3842C4.3275 5.24256 4.17322 5.1317 3.99982 5.06053C3.82642 4.98937 3.63874 4.95987 3.45188 4.97442C3.26501 4.98897 3.08416 5.04716 2.92387 5.14431C2.76358 5.24147 2.62832 5.37487 2.52896 5.5338C2.4296 5.69274 2.36891 5.87276 2.35178 6.05941C2.33465 6.24606 2.36154 6.43413 2.43031 6.60849C2.49907 6.78286 2.60779 6.93866 2.74771 7.06337C2.88764 7.18808 3.05487 7.27822 3.23597 7.32655V12.6735C3.06018 12.7204 2.89739 12.8067 2.75994 12.9259C2.62249 13.0452 2.51398 13.1941 2.44264 13.3615C2.37131 13.5288 2.33901 13.7103 2.34821 13.892C2.35741 14.0737 2.40786 14.2509 2.49574 14.4102C2.58362 14.5695 2.70661 14.7068 2.8554 14.8115C3.00419 14.9162 3.17487 14.9857 3.3545 15.0146C3.53412 15.0435 3.71798 15.0312 3.89214 14.9785C4.06629 14.9259 4.22616 14.8342 4.35964 14.7106C4.41163 14.7227 6.22394 15.7866 6.23431 15.7031C6.30287 15.7018 6.3691 15.678 6.42291 15.6355C6.47672 15.593 6.51514 15.5341 6.53233 15.4677C6.54951 15.4013 6.54451 15.3311 6.51809 15.2678C6.49167 15.2045 6.44528 15.1516 6.38599 15.1172ZM10.0188 1.87498C10.1707 1.87672 10.3158 1.93828 10.4226 2.04632C10.5294 2.15436 10.5893 2.30016 10.5893 2.45208C10.5893 2.604 10.5294 2.7498 10.4226 2.85783C10.3158 2.96587 10.1707 3.02743 10.0188 3.02916C9.86687 3.02742 9.72177 2.96586 9.61496 2.85782C9.50815 2.74978 9.44825 2.60398 9.44825 2.45206C9.44825 2.30014 9.50816 2.15434 9.61497 2.04631C9.72179 1.93827 9.86689 1.87671 10.0188 1.87498ZM2.97168 6.17094C2.97342 6.01903 3.03498 5.87393 3.14302 5.76712C3.25106 5.66031 3.39686 5.6004 3.54878 5.60041C3.7007 5.60041 3.8465 5.66031 3.95454 5.76713C4.06257 5.87394 4.12413 6.01905 4.12586 6.17096C4.12413 6.32287 4.06256 6.46798 3.95452 6.57479C3.84648 6.6816 3.70069 6.7415 3.54876 6.7415C3.39684 6.7415 3.25104 6.68159 3.14301 6.57477C3.03497 6.46796 2.97341 6.32286 2.97168 6.17094ZM3.54877 14.4061C3.39691 14.4045 3.25184 14.343 3.14502 14.235C3.03821 14.1271 2.97828 13.9813 2.97825 13.8295C2.97821 13.6776 3.03806 13.5318 3.14482 13.4238C3.25158 13.3158 3.39663 13.2543 3.54848 13.2525C3.70034 13.2542 3.84542 13.3157 3.95223 13.4236C4.05904 13.5316 4.11897 13.6773 4.11901 13.8292C4.11905 13.9811 4.05919 14.1268 3.95243 14.2348C3.84568 14.3428 3.70063 14.4044 3.54877 14.4061Z" fill="#287392"/>
<path d="M16.8796 12.7094V7.29095C17.0487 7.22686 17.2012 7.12535 17.3255 6.994C17.4498 6.86266 17.5429 6.70489 17.5976 6.53251C17.6523 6.36013 17.6674 6.1776 17.6416 5.99858C17.6158 5.81957 17.5498 5.6487 17.4486 5.49879C17.3475 5.34887 17.2137 5.22378 17.0573 5.13288C16.901 5.04199 16.7261 4.98763 16.5457 4.9739C16.3654 4.96016 16.1843 4.9874 16.0159 5.05357C15.8476 5.11973 15.6964 5.22312 15.5737 5.35598L14.5435 4.7637C14.4717 4.72429 14.3874 4.7146 14.3085 4.73673C14.2297 4.75885 14.1627 4.81102 14.122 4.88201C14.0812 4.953 14.0699 5.03716 14.0905 5.11639C14.1111 5.19561 14.162 5.26359 14.2322 5.3057L15.2806 5.90837C15.2453 6.06753 15.2427 6.23221 15.2731 6.39238C15.3035 6.55255 15.3661 6.70487 15.4573 6.84005C15.5484 6.97523 15.6661 7.09045 15.8031 7.1787C15.9402 7.26694 16.0938 7.32636 16.2546 7.35333V12.6471C16.089 12.6747 15.931 12.7368 15.791 12.8294C15.651 12.922 15.532 13.043 15.4418 13.1846C15.3516 13.3262 15.2922 13.4852 15.2674 13.6513C15.2427 13.8173 15.2532 13.9867 15.2982 14.1484L10.8297 16.6665C10.6072 16.4626 10.316 16.35 10.0142 16.3511C9.71234 16.3522 9.42199 16.4669 9.20093 16.6724L7.47987 15.7204C7.40748 15.6819 7.32285 15.6734 7.24424 15.6967C7.16563 15.72 7.09932 15.7733 7.05961 15.845C7.0199 15.9167 7.00997 16.0012 7.03196 16.0802C7.05394 16.1592 7.10609 16.2264 7.17715 16.2673L8.87271 17.2052C8.81837 17.3845 8.80686 17.5741 8.83912 17.7587C8.87137 17.9433 8.94648 18.1177 9.05841 18.268C9.17034 18.4182 9.31597 18.5402 9.48359 18.6239C9.6512 18.7077 9.83613 18.7509 10.0235 18.7502C10.2109 18.7495 10.3955 18.7048 10.5624 18.6198C10.7294 18.5347 10.8741 18.4117 10.9849 18.2606C11.0957 18.1095 11.1694 17.9344 11.2003 17.7496C11.2311 17.5648 11.2181 17.3753 11.1624 17.1964L15.6134 14.6882C15.7409 14.8132 15.8945 14.9082 16.0633 14.9662C16.2321 15.0243 16.4117 15.044 16.589 15.0239C16.7663 15.0038 16.937 14.9443 17.0884 14.85C17.2399 14.7556 17.3684 14.6286 17.4646 14.4783C17.5608 14.3279 17.6222 14.158 17.6445 13.9809C17.6667 13.8039 17.6492 13.624 17.5931 13.4546C17.5371 13.2852 17.444 13.1303 17.3205 13.0014C17.1971 12.8725 17.0464 12.7728 16.8796 12.7094ZM15.8746 6.17117C15.8764 6.01925 15.9379 5.87415 16.046 5.76734C16.154 5.66053 16.2998 5.60063 16.4517 5.60063C16.6037 5.60063 16.7495 5.66054 16.8575 5.76735C16.9655 5.87417 17.0271 6.01927 17.0288 6.17119C17.0271 6.3231 16.9655 6.4682 16.8575 6.57501C16.7494 6.68182 16.6036 6.74173 16.4517 6.74172C16.2998 6.74172 16.154 6.68181 16.046 6.575C15.9379 6.46819 15.8764 6.32308 15.8746 6.17117ZM10.0189 18.1252C9.86702 18.1235 9.72192 18.0619 9.61511 17.9539C9.5083 17.8458 9.44839 17.7 9.4484 17.5481C9.4484 17.3962 9.50831 17.2504 9.61512 17.1424C9.72193 17.0343 9.86704 16.9728 10.019 16.971C10.1709 16.9728 10.316 17.0343 10.4228 17.1424C10.5296 17.2504 10.5895 17.3962 10.5895 17.5481C10.5895 17.7001 10.5296 17.8458 10.4228 17.9539C10.316 18.0619 10.1708 18.1235 10.0189 18.1252ZM16.4517 14.4063C16.2998 14.4046 16.1547 14.343 16.0479 14.235C15.9411 14.127 15.8812 13.9812 15.8812 13.8292C15.8812 13.6773 15.9411 13.5315 16.0479 13.4235C16.1547 13.3155 16.2999 13.2539 16.4518 13.2522C16.6037 13.2539 16.7488 13.3155 16.8556 13.4235C16.9624 13.5315 17.0223 13.6773 17.0223 13.8293C17.0223 13.9812 16.9624 14.127 16.8556 14.235C16.7488 14.3431 16.6037 14.4046 16.4517 14.4063Z" fill="#287392"/>
</svg>
