<svg width="24" height="24" viewBox="0 0 24 24" fill="none" xmlns="http://www.w3.org/2000/svg">
<path d="M20.3205 1.07812H10.856C9.3785 1.07812 8.1765 2.27987 8.1765 3.75787V8.51638H3.67775C2.20125 8.51662 1 9.71837 1 11.1949V17.1449C1 18.6214 2.20125 19.8234 3.67775 19.8234H4.097V21.6764C4.097 22.1796 4.3835 22.6181 4.84475 22.8189C5.00525 22.8889 5.17525 22.9231 5.34375 22.9231C5.65325 22.9231 5.95875 22.8081 6.1965 22.5876L9.13925 19.8234H13.145C14.622 19.8234 15.8235 18.6216 15.8235 17.1449V13.2859L17.8055 15.1426C18.041 15.3646 18.347 15.4806 18.6572 15.4806C18.824 15.4806 18.9925 15.4464 19.1518 15.3776C19.6073 15.1809 19.9018 14.7319 19.9018 14.2351V12.3874H20.3207C21.798 12.3876 23 11.1856 23 9.70787V3.75787C23 2.28013 21.798 1.07812 20.3205 1.07812ZM13.145 18.4709H8.87175C8.69975 18.4709 8.534 18.5369 8.40875 18.6544L5.4495 21.4346V19.1471C5.4495 18.7734 5.14675 18.4709 4.77325 18.4709H3.67775C2.947 18.4709 2.3525 17.8766 2.3525 17.1449V11.1949C2.3525 10.4631 2.947 9.86887 3.67775 9.86887H8.18475C8.26875 11.2716 9.433 12.3876 10.856 12.3876H14.4707V17.1449C14.471 17.8766 13.876 18.4709 13.145 18.4709ZM21.6475 9.70787C21.6475 10.4396 21.0522 11.0351 20.3205 11.0351H19.2253C18.8517 11.0351 18.549 11.3376 18.549 11.7114V13.9871C18.549 13.9871 15.619 11.2374 15.6135 11.2321L15.5995 11.2189L15.5977 11.2209L15.5942 11.2176C15.469 11.1001 15.3035 11.0354 15.1318 11.0354H10.856C10.1243 11.0354 9.529 10.4396 9.529 9.70813V9.70687H9.534L9.529 3.75838C9.529 3.02663 10.1243 2.43113 10.856 2.43113H20.3205C21.0522 2.43113 21.6475 3.02688 21.6475 3.75838V9.70787Z" fill="#0B3A78"/>
<path d="M18.2928 4.66406H12.8833C12.5098 4.66406 12.207 4.96656 12.207 5.34031C12.207 5.71406 12.5098 6.01656 12.8833 6.01656H18.293C18.6665 6.01656 18.9693 5.71406 18.9693 5.34031C18.9693 4.96656 18.6663 4.66406 18.2928 4.66406Z" fill="#0B3A78"/>
<path d="M18.2928 7.36719H12.8833C12.5098 7.36719 12.207 7.66969 12.207 8.04344C12.207 8.41719 12.5098 8.71969 12.8833 8.71969H18.293C18.6665 8.71969 18.9693 8.41719 18.9693 8.04344C18.9693 7.66969 18.6663 7.36719 18.2928 7.36719Z" fill="#0B3A78"/>
<path d="M5.71222 13.5092C5.63122 13.5357 5.56347 13.5897 5.49597 13.644C5.37422 13.7787 5.29297 13.9557 5.29297 14.1312C5.29297 14.3067 5.37397 14.4825 5.49597 14.604C5.63122 14.7387 5.79347 14.8075 5.96922 14.8075C6.06372 14.8075 6.15872 14.7797 6.23972 14.7532C6.32097 14.7255 6.38847 14.6712 6.45597 14.604C6.57772 14.4825 6.65897 14.3067 6.65897 14.1312C6.65897 13.9557 6.57772 13.7785 6.45597 13.644C6.26672 13.4685 5.96922 13.401 5.71222 13.5092Z" fill="#0B3A78"/>
<path d="M8.94472 13.5093C8.68772 13.401 8.39022 13.4683 8.20097 13.644C8.07922 13.7788 8.01172 13.9558 8.01172 14.1313C8.01172 14.3068 8.07922 14.4825 8.20097 14.604C8.26847 14.6713 8.33622 14.7255 8.41722 14.7533C8.51197 14.7798 8.59297 14.8075 8.68772 14.8075C8.86372 14.8075 9.02597 14.7388 9.16122 14.604C9.28297 14.4825 9.36422 14.3068 9.36422 14.1313C9.36422 13.9558 9.28297 13.7785 9.16122 13.644C9.09347 13.59 9.02597 13.5358 8.94472 13.5093Z" fill="#0B3A78"/>
<path d="M11.6499 13.5105C11.4876 13.4418 11.2981 13.4418 11.1224 13.5105C11.0414 13.537 10.9736 13.591 10.9061 13.6453C10.7844 13.78 10.7031 13.957 10.7031 14.1325C10.7031 14.308 10.7841 14.4838 10.9061 14.6053C11.0414 14.74 11.2036 14.8088 11.3796 14.8088C11.4741 14.8088 11.5689 14.781 11.6501 14.7545C11.7314 14.7268 11.7989 14.6725 11.8666 14.6053C11.9884 14.4838 12.0559 14.308 12.0559 14.1325C12.0559 13.957 11.9881 13.7798 11.8666 13.6453C11.7986 13.5913 11.7311 13.537 11.6499 13.5105Z" fill="#0B3A78"/>
<path d="M4.62547 6.69234H5.97797C6.35147 6.69234 6.65422 6.38984 6.65422 6.01609C6.65422 5.64234 6.35147 5.33984 5.97797 5.33984H4.62547C4.25197 5.33984 3.94922 5.64234 3.94922 6.01609C3.94897 6.38984 4.25172 6.69234 4.62547 6.69234Z" fill="#0B3A78"/>
<path d="M19.5014 17.5098H18.1489C17.7754 17.5098 17.4727 17.8123 17.4727 18.186C17.4727 18.5598 17.7754 18.8623 18.1489 18.8623H19.5014C19.8749 18.8623 20.1777 18.5598 20.1777 18.186C20.1777 17.8123 19.8749 17.5098 19.5014 17.5098Z" fill="#0B3A78"/>
</svg>
