<svg width="29" height="28" viewBox="0 0 29 28" fill="none" xmlns="http://www.w3.org/2000/svg">
<g clip-path="url(#clip0_54_18071)">
<path fill-rule="evenodd" clip-rule="evenodd" d="M7.72258 0.52832H21.2767C21.736 0.52832 22.1116 0.890898 22.1116 1.33441V19.6389C22.1116 20.0824 21.736 20.445 21.2767 20.445H7.72258C7.26322 20.445 6.8877 20.0824 6.8877 19.6389V1.33441C6.8877 0.890898 7.26322 0.52832 7.72258 0.52832Z" fill="#EDF6FF"/>
<path fill-rule="evenodd" clip-rule="evenodd" d="M7.72258 0.52832H8.80951C8.35016 0.52832 7.97463 0.890898 7.97463 1.33441V19.6389C7.97463 20.0824 8.35016 20.445 8.80951 20.445H7.72258C7.26322 20.445 6.8877 20.0824 6.8877 19.6389V1.33441C6.8877 0.890898 7.26322 0.52832 7.72258 0.52832Z" fill="#D5DDE6"/>
<path fill-rule="evenodd" clip-rule="evenodd" d="M2.30371 22.9039L3.85453 23.2232C9.8675 23.8385 13.0252 30.4299 22.4695 23.775L26.1109 23.0236L24.5584 15.2881L21.5768 15.9033C15.8805 12.7254 11.322 14.646 7.15271 15.8475L5.55998 15.5189L4.08789 15.2148L2.30371 22.9039Z" fill="#F9C295"/>
<path fill-rule="evenodd" clip-rule="evenodd" d="M24.558 15.2876L21.5765 15.9028C19.0571 14.4284 16.0212 13.7323 12.1039 14.4875L9.10646 17.1863C6.85387 19.1972 10.7122 19.4373 13.2293 17.013C15.1143 20.49 19.9277 20.5972 22.4691 23.7751L26.1105 23.0231L24.558 15.2876Z" fill="#F29F5C"/>
<path fill-rule="evenodd" clip-rule="evenodd" d="M7.73846 24.9054L9.24113 23.6263C9.71181 23.2249 9.75826 22.5243 9.34252 22.0699C8.92847 21.6154 8.20234 21.5706 7.73222 21.972L6.22955 23.2511C5.75773 23.6525 5.71242 24.352 6.12816 24.8075C6.5422 25.262 7.26834 25.3052 7.73846 24.9054Z" fill="#F29F5C"/>
<path fill-rule="evenodd" clip-rule="evenodd" d="M10.3957 25.5814L11.8984 24.3023C12.369 23.9025 12.4155 23.2014 11.9997 22.7475C11.5857 22.2919 10.8596 22.2482 10.3895 22.6496L8.88678 23.9287C8.41496 24.3285 8.36965 25.0296 8.78539 25.4835C9.19943 25.9396 9.925 25.9828 10.3957 25.5814Z" fill="#F29F5C"/>
<path fill-rule="evenodd" clip-rule="evenodd" d="M12.5486 26.6881L14.0513 25.4078C14.5231 25.0081 14.5684 24.307 14.1527 23.8531C13.7386 23.3986 13.0125 23.3538 12.5424 23.7552L11.0397 25.0343C10.569 25.4357 10.5226 26.1352 10.9383 26.5907C11.3524 27.0446 12.0779 27.0878 12.5486 26.6881Z" fill="#F29F5C"/>
<path fill-rule="evenodd" clip-rule="evenodd" d="M14.3101 25.1893L13.8926 25.5442C13.4208 25.9456 13.3755 26.645 13.7912 27.1006C14.2053 27.555 14.9314 27.5983 15.4015 27.1985L15.819 26.8436C16.2897 26.4422 16.3361 25.7416 15.9204 25.2872C15.5058 24.8327 14.7802 24.7879 14.3101 25.1893Z" fill="#F29F5C"/>
<path fill-rule="evenodd" clip-rule="evenodd" d="M11.64 8.01145C13.2905 8.01145 14.6374 6.71098 14.6374 5.11738C14.6374 3.52215 13.2905 2.22168 11.64 2.22168C9.98779 2.22168 8.64258 3.52215 8.64258 5.11738C8.64258 6.71098 9.98836 8.01145 11.64 8.01145Z" fill="#2EBD33"/>
<path d="M16.4006 2.67352C16.1423 2.67352 15.9316 2.47062 15.9316 2.2207C15.9316 1.97133 16.1418 1.76953 16.4006 1.76953H20.3473C20.6056 1.76953 20.8146 1.97078 20.8146 2.2207C20.8146 2.47008 20.6056 2.67352 20.3473 2.67352H16.4006Z" fill="#2EBD33"/>
<path d="M16.4006 5.1823C16.1423 5.1823 15.9316 4.98105 15.9316 4.73113C15.9316 4.48176 16.1418 4.27832 16.4006 4.27832H20.3473C20.6056 4.27832 20.8146 4.48121 20.8146 4.73113C20.8146 4.98051 20.6056 5.1823 20.3473 5.1823H16.4006Z" fill="#2EBD33"/>
<path d="M16.4006 7.69207C16.1423 7.69207 15.9316 7.48918 15.9316 7.23926C15.9316 6.98934 16.1418 6.78809 16.4006 6.78809H20.3473C20.6056 6.78809 20.8146 6.98988 20.8146 7.23926C20.8146 7.48863 20.6056 7.69207 20.3473 7.69207H16.4006Z" fill="#2EBD33"/>
<path d="M8.64281 10.2002C8.38453 10.2002 8.17383 9.99895 8.17383 9.74902C8.17383 9.49965 8.38396 9.29785 8.64281 9.29785H20.3476C20.6059 9.29785 20.8149 9.4991 20.8149 9.74902C20.8149 9.9984 20.6059 10.2002 20.3476 10.2002H8.64281Z" fill="#2EBD33"/>
<path d="M8.64281 12.7101C8.38453 12.7101 8.17383 12.5072 8.17383 12.2573C8.17383 12.0079 8.38396 11.8062 8.64281 11.8062H20.3476C20.6059 11.8062 20.8149 12.0074 20.8149 12.2573C20.8149 12.5067 20.6059 12.7101 20.3476 12.7101H8.64281Z" fill="#2EBD33"/>
<path d="M12.6725 4.05533C12.8554 3.87869 13.1511 3.87869 13.334 4.05533C13.517 4.23197 13.517 4.51744 13.334 4.69408L11.7957 6.17775C11.6144 6.35439 11.3171 6.35439 11.1341 6.17775L9.94581 5.03041C9.76286 4.85377 9.76286 4.5683 9.94581 4.39166C10.1288 4.21502 10.4244 4.21502 10.6074 4.39166L11.4649 5.22127L12.6725 4.05533Z" fill="#EDF6FF"/>
<path fill-rule="evenodd" clip-rule="evenodd" d="M0.000976562 22.4292L1.70634 14.7242L5.5618 15.5197L3.85643 23.2247L0.000976562 22.4292Z" fill="#5C9CEE"/>
<path fill-rule="evenodd" clip-rule="evenodd" d="M23.4424 15.521L27.2962 14.7258L29.0015 22.4308L25.1477 23.226L23.4424 15.521Z" fill="#5C9CEE"/>
<path fill-rule="evenodd" clip-rule="evenodd" d="M4.08945 22.1599L3.85496 23.223L0 22.4279L0.236191 21.3647L4.08945 22.1599Z" fill="#538CD6"/>
<path fill-rule="evenodd" clip-rule="evenodd" d="M24.9102 22.1599L25.1463 23.223L28.9996 22.4279L28.7651 21.3647L24.9102 22.1599Z" fill="#538CD6"/>
<path fill-rule="evenodd" clip-rule="evenodd" d="M24.9102 22.1602L21.5752 22.847C21.8963 23.1259 22.1965 23.4327 22.4695 23.7756L25.1458 23.2238L24.9102 22.1602Z" fill="#DA8F53"/>
<path fill-rule="evenodd" clip-rule="evenodd" d="M16 26.6475C17.8176 26.4074 19.9127 25.5762 22.4706 23.7748C22.1976 23.4324 21.8974 23.1267 21.5763 22.8462L21.2891 22.9069C19.3061 24.3036 17.5995 25.1157 16.0872 25.5237C16.2713 25.8819 16.239 26.3172 16 26.6475Z" fill="#E0AF86"/>
<path fill-rule="evenodd" clip-rule="evenodd" d="M3.85449 23.2233C4.58006 23.2977 5.26428 23.459 5.92244 23.6745C5.98645 23.5164 6.08953 23.3704 6.22887 23.2512L6.81793 22.7491C6.15297 22.5304 5.46309 22.3663 4.73072 22.292L4.08842 22.1602L3.85449 23.2233Z" fill="#E0AF86"/>
</g>
<defs>
<clipPath id="clip0_54_18071">
<rect width="29" height="28" fill="white"/>
</clipPath>
</defs>
</svg>
