<svg width="1920" height="637" viewBox="0 0 1920 637" fill="none" xmlns="http://www.w3.org/2000/svg">
<g clip-path="url(#clip0_228_1730)">
<mask id="mask0_228_1730" style="mask-type:luminance" maskUnits="userSpaceOnUse" x="0" y="4" width="1920" height="629">
<path d="M1920 4.06543H0V632.065H1920V4.06543Z" fill="white"/>
</mask>
<g mask="url(#mask0_228_1730)">
<mask id="mask1_228_1730" style="mask-type:luminance" maskUnits="userSpaceOnUse" x="1702" y="128" width="93" height="94">
<path d="M1795 128.261H1702V221.261H1795V128.261Z" fill="white"/>
</mask>
<g mask="url(#mask1_228_1730)">
<path fill-rule="evenodd" clip-rule="evenodd" d="M1766.39 217.302C1769.97 215.807 1773.31 213.871 1776.37 211.568L1785.58 202.447C1787.79 199.393 1789.73 196.045 1791.22 192.469L1766.39 217.302ZM1794.75 172.773L1746.93 220.832C1747.31 220.858 1747.93 220.87 1748.55 220.87C1749.36 220.87 1750.16 220.849 1750.97 220.807L1794.73 177.044C1794.77 176.243 1794.79 175.437 1794.79 174.626C1794.79 174.006 1794.78 173.388 1794.75 172.773ZM1792.66 159.132L1733.05 218.208C1734.11 218.587 1735.19 218.926 1736.28 219.223L1793.15 162.36C1793.25 161.754 1792.51 160.191 1792.66 159.132ZM1786.66 148.434L1722.36 212.741C1723.2 213.321 1724.06 213.874 1724.94 214.396L1788.32 151.546C1787.8 150.139 1787.24 149.277 1786.66 148.434ZM1721.12 137.395L1711.31 147.196C1709.1 150.192 1707.24 153.467 1705.8 156.955L1730.88 131.878C1727.39 133.322 1724.11 135.183 1721.12 137.395ZM1748.55 128.382C1747.99 128.382 1746.28 128.424 1745.16 128.505L1702.43 171.24C1702.35 172.359 1702.3 173.488 1702.3 174.626C1702.3 174.949 1702.31 175.272 1702.32 175.595L1749.52 128.394C1749.19 128.385 1749.38 128.382 1748.55 128.382ZM1759.2 129.619L1703.54 185.282C1703.8 186.409 1704.11 187.516 1704.46 188.608L1762.53 130.535C1761.44 130.187 1760.33 129.881 1759.2 129.619ZM1770.21 133.762L1707.68 196.294C1708.17 197.211 1708.69 198.11 1709.23 198.988L1772.91 135.311C1772.03 134.765 1771.13 134.249 1770.21 133.762ZM1779.06 139.875L1713.8 205.134C1714.52 206.394 1715.14 206.833 1715.85 207.324L1781.25 141.928C1780.54 141.22 1779.81 140.535 1779.06 139.875Z" fill="white" fill-opacity="0.1"/>
</g>
<mask id="mask2_228_1730" style="mask-type:luminance" maskUnits="userSpaceOnUse" x="91" y="450" width="93" height="94">
<path d="M184 450.261H91V543.261H184V450.261Z" fill="white"/>
</mask>
<g mask="url(#mask2_228_1730)">
<path fill-rule="evenodd" clip-rule="evenodd" d="M155.39 539.302C158.968 537.807 162.314 535.871 165.369 533.568L174.576 524.447C176.794 521.393 178.728 518.045 180.224 514.469L155.39 539.302ZM183.755 494.773L135.926 542.832C136.31 542.858 136.928 542.87 137.548 542.87C138.359 542.87 139.165 542.849 139.966 542.807L183.729 499.044C183.771 498.243 183.792 497.437 183.792 496.626C183.792 496.006 183.78 495.388 183.755 494.773ZM181.664 481.132L122.054 540.208C123.113 540.587 124.189 540.926 125.283 541.223L182.145 484.36C182.25 483.754 181.509 482.191 181.664 481.132ZM175.662 470.434L111.356 534.741C112.199 535.321 113.061 535.874 113.941 536.396L177.321 473.546C176.796 472.139 176.243 471.277 175.662 470.434ZM110.116 459.395L100.314 469.196C98.1025 472.192 96.2447 475.467 94.7999 478.955L119.878 453.878C116.387 455.322 113.111 457.183 110.116 459.395ZM137.548 450.382C136.987 450.382 135.279 450.424 134.159 450.505L91.4277 493.24C91.3464 494.359 91.3047 495.488 91.3047 496.626C91.3047 496.949 91.3069 497.272 91.3164 497.595L138.516 450.394C138.194 450.385 138.379 450.382 137.548 450.382ZM148.202 451.619L92.54 507.282C92.8022 508.409 93.109 509.516 93.4576 510.608L151.531 452.535C150.439 452.187 149.329 451.881 148.202 451.619ZM159.214 455.762L96.6833 518.294C97.1717 519.211 97.6895 520.11 98.2328 520.988L161.91 457.311C161.03 456.765 160.131 456.249 159.214 455.762ZM168.056 461.875L102.796 527.134C103.522 528.394 104.142 528.833 104.85 529.324L170.246 463.928C169.538 463.22 168.809 462.535 168.056 461.875Z" fill="white" fill-opacity="0.1"/>
</g>
<mask id="mask3_228_1730" style="mask-type:luminance" maskUnits="userSpaceOnUse" x="1816" y="408" width="102" height="189">
<path d="M1816 596.261H1918V408.261H1816V596.261Z" fill="white"/>
</mask>
<g mask="url(#mask3_228_1730)">
<path fill-rule="evenodd" clip-rule="evenodd" d="M1908.05 589.76V593.649C1908.05 594.722 1908.24 595.593 1909.8 595.593C1911.07 595.593 1911.42 594.722 1911.42 593.649V589.76H1915.83C1916.04 589.76 1917.77 588.89 1917.77 587.816C1917.77 586.743 1916.04 585.872 1915.83 585.872H1911.42V581.984C1911.42 580.91 1911.07 580.04 1909.8 580.04C1908.24 580.04 1908.05 580.91 1908.05 581.984V585.872H1904.16C1903.09 585.872 1902.22 586.743 1902.22 587.816C1902.22 588.89 1903.09 589.76 1904.16 589.76H1908.05ZM1892.86 578.452C1893.31 578.452 1894.8 577.582 1894.8 576.508V572.62H1898.69C1899.76 572.62 1900.63 571.749 1900.63 570.676C1900.63 569.602 1899.76 568.731 1898.69 568.731H1894.8V564.843C1894.8 563.769 1893.31 562.899 1892.86 562.899C1891.78 562.899 1890.13 563.769 1890.13 564.843V568.731H1887.02C1885.51 568.731 1885.08 569.602 1885.08 570.675C1885.08 571.749 1885.51 572.62 1887.02 572.62H1890.13V576.508C1890.13 577.581 1891.78 578.452 1892.86 578.452ZM1875.72 561.311C1876.79 561.311 1877.66 560.441 1877.66 559.367V555.479H1881.55C1882.62 555.479 1883.49 554.609 1883.49 553.535C1883.49 552.461 1882.62 551.591 1881.55 551.591H1877.66V547.702C1877.66 546.629 1876.79 545.758 1875.72 545.758C1874.64 545.758 1873.77 546.629 1873.77 547.702V551.591H1869.88C1868.81 551.591 1867.4 552.461 1867.4 553.535C1867.4 554.609 1868.81 555.479 1869.88 555.479H1873.77V559.367C1873.77 560.441 1874.64 561.311 1875.72 561.311ZM1858.58 543.351C1859.65 543.351 1860.52 543.3 1860.52 541.911V538.338H1864.41C1865.48 538.338 1866.35 537.468 1866.35 536.394C1866.35 535.32 1865.48 534.45 1864.41 534.45H1860.52V530.562C1860.52 529.488 1859.65 528.618 1858.58 528.618C1857.5 528.618 1856.63 529.488 1856.63 530.562V534.45H1852.74C1851.67 534.45 1850.8 535.32 1850.8 536.394C1850.8 537.468 1851.67 538.338 1852.74 538.338H1856.63V541.911C1856.63 543.3 1857.5 543.351 1858.58 543.351ZM1841.43 527.03C1842.51 527.03 1843.38 526.159 1843.38 525.086V520.621H1847.27C1848.34 520.621 1849.21 520.327 1849.21 518.461C1849.21 517.451 1848.34 517.309 1847.27 517.309H1843.38V513.421C1843.38 512.347 1842.51 511.477 1841.43 511.477C1840.36 511.477 1839.49 512.347 1839.49 513.421V517.309H1835.6C1834.53 517.309 1833.66 517.451 1833.66 518.461C1833.66 520.327 1834.53 520.621 1835.6 520.621H1839.49V525.086C1839.49 526.159 1840.36 527.03 1841.43 527.03ZM1824.29 509.889C1825.37 509.889 1826.24 509.019 1826.24 507.945V504.057H1830.13C1831.2 504.057 1832.07 502.511 1832.07 502.112C1832.07 501.039 1831.2 499.331 1830.13 499.331H1826.24V496.28C1826.24 494.721 1825.37 494.336 1824.29 494.336C1823.22 494.336 1822.35 494.721 1822.35 496.28V499.331H1818.46C1817.39 499.331 1816.52 501.039 1816.52 502.112C1816.52 502.511 1817.39 504.057 1818.46 504.057H1822.35V507.945C1822.35 509.019 1823.22 509.889 1824.29 509.889ZM1909.8 561.311C1911.07 561.311 1911.42 560.441 1911.42 559.367V555.479H1915.83C1916.04 555.479 1917.77 554.609 1917.77 553.535C1917.77 552.461 1916.04 551.591 1915.83 551.591H1911.42V547.702C1911.42 546.629 1911.07 545.758 1909.8 545.758C1908.24 545.758 1908.05 546.629 1908.05 547.702V551.591H1904.16C1903.09 551.591 1902.22 552.461 1902.22 553.535C1902.22 554.609 1903.09 555.479 1904.16 555.479H1908.05V559.367C1908.05 560.441 1908.24 561.311 1909.8 561.311ZM1892.86 543.351C1893.31 543.351 1894.8 543.3 1894.8 541.911V538.338H1898.69C1899.76 538.338 1900.63 537.468 1900.63 536.394C1900.63 535.32 1899.76 534.45 1898.69 534.45H1894.8V530.562C1894.8 529.488 1893.31 528.618 1892.86 528.618C1891.78 528.618 1890.13 529.488 1890.13 530.562V534.45H1887.02C1885.51 534.45 1885.08 535.32 1885.08 536.394C1885.08 537.468 1885.51 538.338 1887.02 538.338H1890.13V541.911C1890.13 543.3 1891.78 543.351 1892.86 543.351ZM1875.72 527.03C1876.79 527.03 1877.66 526.159 1877.66 525.086V520.621H1881.55C1882.62 520.621 1883.49 520.327 1883.49 518.461C1883.49 517.451 1882.62 517.309 1881.55 517.309H1877.66V513.421C1877.66 512.347 1876.79 511.477 1875.72 511.477C1874.64 511.477 1873.77 512.347 1873.77 513.421V517.309H1869.88C1868.81 517.309 1867.4 517.451 1867.4 518.461C1867.4 520.327 1868.81 520.621 1869.88 520.621H1873.77V525.086C1873.77 526.159 1874.64 527.03 1875.72 527.03ZM1858.58 509.889C1859.65 509.889 1860.52 509.019 1860.52 507.945V504.057H1864.41C1865.48 504.057 1866.35 502.511 1866.35 502.112C1866.35 501.039 1865.48 499.331 1864.41 499.331H1860.52V496.28C1860.52 494.721 1859.65 494.336 1858.58 494.336C1857.5 494.336 1856.63 494.721 1856.63 496.28V499.331L1852.74 499.341C1851.67 499.331 1850.8 501.039 1850.8 502.112C1850.8 502.511 1851.67 504.057 1852.74 504.057H1856.63V507.945C1856.63 509.019 1857.5 509.889 1858.58 509.889ZM1841.43 492.748C1842.51 492.748 1843.38 491.878 1843.38 490.804V486.916H1847.27C1848.34 486.916 1849.21 486.045 1849.21 484.972C1849.21 483.898 1848.34 483.028 1847.27 483.028H1843.38V479.139C1843.38 478.066 1842.51 476.601 1841.43 476.601C1840.36 476.601 1839.49 478.066 1839.49 479.139V483.028H1835.6C1834.53 483.028 1833.66 483.898 1833.66 484.972C1833.66 486.045 1834.53 486.916 1835.6 486.916H1839.49V490.804C1839.49 491.878 1840.36 492.748 1841.43 492.748ZM1909.8 527.03C1911.07 527.03 1911.42 526.159 1911.42 525.086V520.621H1915.83C1916.04 520.621 1917.77 520.327 1917.77 518.461C1917.77 517.451 1916.04 517.309 1915.83 517.309H1911.42V513.421C1911.42 512.347 1911.07 511.477 1909.8 511.477C1908.24 511.477 1908.05 512.347 1908.05 513.421V517.309H1904.16C1903.09 517.309 1902.22 517.451 1902.22 518.461C1902.22 520.327 1903.09 520.621 1904.16 520.621H1908.05V525.086C1908.05 526.159 1908.24 527.03 1909.8 527.03ZM1892.86 509.889C1893.31 509.889 1894.8 509.019 1894.8 507.945V504.057H1898.69C1899.76 504.057 1900.63 502.511 1900.63 502.112C1900.63 501.039 1899.76 499.331 1898.69 499.331H1894.8V496.28C1894.8 494.721 1893.31 494.336 1892.86 494.336C1891.78 494.336 1890.13 494.721 1890.13 496.28V499.331H1887.02C1885.51 499.331 1885.08 501.039 1885.08 502.112C1885.08 502.511 1885.51 504.057 1887.02 504.057H1890.13V507.945C1890.13 509.019 1891.78 509.889 1892.86 509.889ZM1875.72 492.748C1876.79 492.748 1877.66 491.878 1877.66 490.804V486.916H1881.55C1882.62 486.916 1883.49 486.046 1883.49 484.972C1883.49 483.898 1882.62 483.028 1881.55 483.028H1877.66V479.139C1877.66 478.066 1876.79 476.601 1875.72 476.601C1874.64 476.601 1873.77 478.066 1873.77 479.14V483.028H1869.88C1868.81 483.028 1867.4 483.898 1867.4 484.972C1867.4 486.046 1868.81 486.916 1869.88 486.916H1873.77V490.804C1873.77 491.878 1874.64 492.748 1875.72 492.748ZM1858.58 475.607C1859.65 475.607 1860.52 474.737 1860.52 473.663V469.775H1864.41C1865.48 469.775 1866.35 468.905 1866.35 467.831C1866.35 466.757 1865.48 465.887 1864.41 465.887H1860.52V461.999C1860.52 460.925 1859.65 460.055 1858.58 460.055C1857.5 460.055 1856.63 460.925 1856.63 461.999V465.887H1852.74C1851.67 465.887 1850.8 466.757 1850.8 467.831C1850.8 468.905 1851.67 469.775 1852.74 469.775H1856.63V473.663C1856.63 474.737 1857.5 475.607 1858.58 475.607ZM1909.8 492.748C1911.07 492.748 1911.42 491.878 1911.42 490.804V486.916H1915.83C1916.04 486.916 1917.77 486.046 1917.77 484.972C1917.77 483.898 1916.04 483.028 1915.83 483.028H1911.42V479.14C1911.42 478.066 1911.07 476.601 1909.8 476.601C1908.24 476.601 1908.05 478.066 1908.05 479.14V483.028H1904.16C1903.09 483.028 1902.22 483.898 1902.22 484.972C1902.22 486.046 1903.09 486.916 1904.16 486.916H1908.05V490.804C1908.05 491.878 1908.24 492.748 1909.8 492.748ZM1892.86 475.608C1893.31 475.608 1894.8 474.737 1894.8 473.663V469.775H1898.69C1899.76 469.775 1900.63 468.905 1900.63 467.831C1900.63 466.757 1899.76 465.887 1898.69 465.887H1894.8V461.999C1894.8 460.925 1893.31 460.055 1892.86 460.055C1891.78 460.055 1890.13 460.925 1890.13 461.999V465.887H1887.02C1885.51 465.887 1885.08 466.757 1885.08 467.831C1885.08 468.905 1885.51 469.775 1887.02 469.775H1890.13V473.663C1890.13 474.737 1891.78 475.607 1892.86 475.608ZM1875.72 458.467C1876.79 458.467 1877.66 457.596 1877.66 456.523V452.634H1881.55C1882.62 452.634 1883.49 451.764 1883.49 450.69C1883.49 449.617 1882.62 448.746 1881.55 448.746H1877.66V444.858C1877.66 443.784 1876.79 442.914 1875.72 442.914C1874.64 442.914 1873.77 443.784 1873.77 444.858V448.746H1869.88C1868.81 448.746 1867.4 449.617 1867.4 450.69C1867.4 451.764 1868.81 452.634 1869.88 452.634H1873.77V456.523C1873.77 457.596 1874.64 458.467 1875.72 458.467ZM1909.8 458.467C1911.07 458.467 1911.42 457.596 1911.42 456.523V452.634H1915.83C1916.04 452.634 1917.77 451.764 1917.77 450.69C1917.77 449.617 1916.04 448.746 1915.83 448.746H1911.42V444.858C1911.42 443.784 1911.07 442.914 1909.8 442.914C1908.24 442.914 1908.05 443.784 1908.05 444.858V448.746H1904.16C1903.09 448.746 1902.22 449.617 1902.22 450.69C1902.22 451.764 1903.09 452.634 1904.16 452.634H1908.05V456.523C1908.05 457.596 1908.24 458.467 1909.8 458.467ZM1892.86 441.326C1893.31 441.326 1894.8 440.456 1894.8 439.382V435.494H1898.69C1899.76 435.494 1900.63 434.623 1900.63 433.55C1900.63 432.476 1899.76 431.605 1898.69 431.605H1894.8V427.717C1894.8 426.644 1893.31 425.773 1892.86 425.773C1891.78 425.773 1890.13 426.643 1890.13 427.717V431.605H1887.02C1885.51 431.605 1885.08 432.476 1885.08 433.55C1885.08 434.623 1885.51 435.494 1887.02 435.494H1890.13V439.382C1890.13 440.456 1891.78 441.326 1892.86 441.326ZM1909.8 423.501C1911.07 423.501 1911.42 423.315 1911.42 422.061V418.353H1915.83C1916.04 418.353 1917.77 417.483 1917.77 416.409C1917.77 415.335 1916.04 414.465 1915.83 414.465H1911.42V410.576C1911.42 409.503 1911.07 408.632 1909.8 408.632C1908.24 408.632 1908.05 409.503 1908.05 410.576V414.465H1904.16C1903.09 414.465 1902.22 415.335 1902.22 416.409C1902.22 417.482 1903.09 418.353 1904.16 418.353H1908.05V422.061C1908.05 423.315 1908.24 423.501 1909.8 423.501Z" fill="white" fill-opacity="0.1"/>
</g>
<mask id="mask4_228_1730" style="mask-type:luminance" maskUnits="userSpaceOnUse" x="-25" y="-9" width="121" height="121">
<path d="M96 -8.73926H-25V111.261H96V-8.73926Z" fill="white"/>
</mask>
<g mask="url(#mask4_228_1730)">
<path fill-rule="evenodd" clip-rule="evenodd" d="M-1.84781 98.109C2.08279 101.243 6.36954 103.844 10.8944 105.882L26.9578 110.576C31.8701 111.624 36.8843 111.414 41.8879 110.891L-1.84781 98.109ZM66.5095 102.661L-17.9949 77.9254C-17.778 78.9887 -17.4059 79.3495 -17.02 80.0543C-16.5155 80.9748 -15.9896 81.8778 -15.4432 82.7619L61.6307 105.287C63.0142 104.836 63.4998 104.359 64.4221 103.855C65.1283 103.47 65.8246 103.073 66.5095 102.661ZM80.404 91.2021L-23.6385 60.7958C-22.8349 62.2343 -23.1263 63.6667 -22.7831 65.0946L77.3607 94.3616C78.4208 93.3439 79.4345 92.4546 80.404 91.2021ZM89.3907 78.3409L-24.0761 45.7761C-23.9992 46.5614 -24.3044 47.8844 -24.3516 49.209L87.2683 81.8323C87.9433 80.6885 88.5802 79.5249 89.3907 78.3409ZM60.9291 -2.99254L43.6672 -8.0379C38.8789 -8.2163 33.9933 -8.5201 29.1228 -8.2368L73.2878 4.67076C69.4691 1.60164 65.3117 -0.962411 60.9291 -2.99254ZM88.2713 22.5751C87.5613 21.2794 86.8102 20.0224 86.021 18.8011L10.7605 -3.19152C9.43563 -2.58772 8.12442 -1.9338 6.82843 -1.22671C6.46162 -1.02545 6.09558 -0.822661 5.73334 -0.611521L88.8611 23.6824C88.6708 23.3102 88.4722 22.9419 88.2713 22.5751ZM93.4986 35.4477L-4.5334 6.80038C-5.65208 7.79835 -6.64062 8.83506 -7.74865 9.90974L94.9308 39.7996C94.2437 38.3421 93.9012 37.4444 93.4986 35.4477ZM95.6386 50.8343L-14.4889 18.3515C-15.2294 19.4756 -15.9303 20.6232 -16.2902 21.7859L95.5541 54.5604C95.6279 53.2214 95.6546 51.8794 95.6386 50.8343ZM94.1858 64.3791L-20.7459 31.133C-21.1919 32.008 -21.596 33.2399 -21.9605 34.4847L93.2117 68.1439C93.577 66.8991 93.9035 65.6444 94.1858 64.3791Z" fill="white" fill-opacity="0.1"/>
</g>
</g>
</g>
<defs>
<clipPath id="clip0_228_1730">
<rect width="1920" height="628" fill="white" transform="translate(0 4.06543)"/>
</clipPath>
</defs>
</svg>
