<svg width="259" height="232" viewBox="0 0 259 232" fill="none" xmlns="http://www.w3.org/2000/svg">
<g clip-path="url(#clip0_2018_1926)">
<path style="mix-blend-mode:screen" d="M129.704 229.275C193.072 229.275 244.443 177.95 244.443 114.637C244.443 51.3249 193.072 0 129.704 0C66.3358 0 14.9656 51.3249 14.9656 114.637C14.9656 177.95 66.3358 229.275 129.704 229.275Z" fill="url(#paint0_radial_2018_1926)"/>
<g filter="url(#filter0_d_2018_1926)">
<path d="M247.372 105.651C246.745 105.651 246.237 105.144 246.237 104.517C246.237 94.8864 238.398 87.0538 228.758 87.0538C228.131 87.0538 227.623 86.5463 227.623 85.9197C227.623 85.2931 228.131 84.7855 228.758 84.7855C239.646 84.7855 248.508 93.6332 248.508 104.517C248.508 105.144 248 105.651 247.372 105.651ZM242.926 104.517C242.926 96.7161 236.573 90.3686 228.765 90.3686C228.138 90.3686 227.63 90.8761 227.63 91.5027C227.63 92.1293 228.138 92.6369 228.765 92.6369C235.325 92.6369 240.656 97.9693 240.656 104.517C240.656 105.144 241.164 105.651 241.791 105.651C242.418 105.651 242.926 105.144 242.926 104.517ZM237.344 104.517C237.344 99.7927 233.493 95.9453 228.765 95.9453C228.138 95.9453 227.63 96.4529 227.63 97.0795C227.63 97.7061 228.138 98.2136 228.765 98.2136C232.245 98.2136 235.074 101.04 235.074 104.517C235.074 105.144 235.582 105.651 236.209 105.651C236.836 105.651 237.344 105.144 237.344 104.517Z" fill="url(#paint1_linear_2018_1926)"/>
</g>
<g filter="url(#filter1_d_2018_1926)">
<path d="M37.2436 127.377C37.2436 127.96 36.767 128.436 36.1837 128.436C27.184 128.436 19.8651 135.749 19.8651 144.74C19.8651 145.323 19.3884 145.799 18.8052 145.799C18.2219 145.799 17.7453 145.323 17.7453 144.74C17.7453 134.583 26.0175 126.318 36.1837 126.318C36.767 126.318 37.2436 126.794 37.2436 127.377ZM36.1837 131.525C28.8899 131.525 22.9632 137.453 22.9632 144.734C22.9632 145.317 23.4399 145.793 24.0231 145.793C24.6064 145.793 25.083 145.317 25.083 144.734C25.083 138.618 30.0626 133.637 36.19 133.637C36.7732 133.637 37.2499 133.161 37.2499 132.578C37.2499 131.995 36.7732 131.519 36.19 131.519L36.1837 131.525ZM36.1837 136.732C31.7685 136.732 28.1749 140.323 28.1749 144.734C28.1749 145.317 28.6515 145.793 29.2348 145.793C29.818 145.793 30.2947 145.317 30.2947 144.734C30.2947 141.488 32.935 138.85 36.1837 138.85C36.767 138.85 37.2436 138.374 37.2436 137.791C37.2436 137.209 36.767 136.732 36.1837 136.732Z" fill="url(#paint2_linear_2018_1926)"/>
</g>
<g filter="url(#filter2_d_2018_1926)">
<path d="M57.7077 150.868C45.4342 150.868 35.4436 160.843 35.4436 173.112C35.4436 185.381 45.428 195.357 57.7077 195.357C69.9874 195.357 79.9718 185.381 79.9718 173.112C79.9718 160.843 69.9874 150.868 57.7077 150.868ZM57.7077 193.678C55.1426 193.678 52.4521 189.642 51.0598 183.019C52.9977 182.768 55.2179 182.612 57.7077 182.612C60.1975 182.612 62.4177 182.775 64.3556 183.019C62.9633 189.642 60.2728 193.678 57.7077 193.678ZM57.7077 180.932C55.0925 180.932 52.7782 181.102 50.7463 181.365C50.3762 179.128 50.1442 176.646 50.1066 173.958H65.3089C65.2712 176.646 65.0392 179.128 64.6692 181.365C62.6372 181.102 60.3229 180.932 57.7077 180.932ZM57.7077 152.553C60.2728 152.553 62.9633 156.589 64.3556 163.212C62.4177 163.463 60.1975 163.619 57.7077 163.619C55.2179 163.619 52.9977 163.456 51.0598 163.212C52.4521 156.589 55.1426 152.553 57.7077 152.553ZM57.7077 165.299C60.3229 165.299 62.6372 165.129 64.6692 164.866C65.0392 167.103 65.2712 169.585 65.3089 172.273H50.1066C50.1442 169.585 50.3762 167.103 50.7463 164.866C52.7782 165.129 55.0925 165.299 57.7077 165.299ZM48.4258 172.279H37.1432C37.2937 168.507 38.4728 164.998 40.3981 162.015C41.6336 162.642 44.4998 163.864 49.0968 164.628C48.7017 166.99 48.4697 169.566 48.4258 172.279ZM48.4258 173.958C48.4634 176.671 48.7017 179.247 49.0968 181.609C44.4998 182.374 41.6336 183.602 40.3981 184.222C38.4728 181.239 37.3 177.724 37.1432 173.958H48.4258ZM66.9896 173.958H78.2722C78.1217 177.73 76.9426 181.239 75.0173 184.222C73.7818 183.595 70.9156 182.374 66.3186 181.609C66.7137 179.247 66.9457 176.671 66.9896 173.958ZM66.9896 172.279C66.952 169.566 66.7137 166.99 66.3186 164.628C70.9156 163.864 73.7818 162.636 75.0173 162.015C76.9426 164.998 78.1154 168.513 78.2722 172.279H66.9896ZM74.0389 160.618C72.8097 161.201 70.1505 162.278 66.0113 162.968C65.0831 158.55 63.5654 155.022 61.6902 152.942C66.6949 153.926 71.0474 156.72 74.0452 160.618H74.0389ZM53.7378 152.942C51.8563 155.022 50.3386 158.55 49.4167 162.968C45.2774 162.272 42.6183 161.201 41.3891 160.618C44.3869 156.72 48.7393 153.926 53.7441 152.942H53.7378ZM41.3828 185.619C42.612 185.037 45.2712 183.959 49.4104 183.27C50.3386 187.687 51.8563 191.215 53.7315 193.295C48.7268 192.312 44.3743 189.517 41.3765 185.619H41.3828ZM61.6839 193.295C63.5654 191.215 65.0831 187.687 66.005 183.27C70.1442 183.965 72.8034 185.037 74.0326 185.619C71.0348 189.517 66.6823 192.312 61.6776 193.295H61.6839Z" fill="url(#paint3_linear_2018_1926)"/>
</g>
<g filter="url(#filter3_d_2018_1926)">
<path d="M193.973 12.7196C179.579 12.7196 167.87 24.4183 167.87 38.7989C167.87 53.1794 179.579 64.8782 193.973 64.8782C208.366 64.8782 220.075 53.1794 220.075 38.7989C220.075 24.4183 208.366 12.7196 193.973 12.7196ZM193.973 62.9106C190.962 62.9106 187.808 58.1797 186.177 50.4161C188.454 50.1216 191.05 49.9336 193.973 49.9336C196.895 49.9336 199.492 50.1216 201.768 50.4161C200.138 58.1797 196.983 62.9106 193.973 62.9106ZM193.973 47.9661C190.906 47.9661 188.19 48.1603 185.813 48.4674C185.381 45.8482 185.111 42.9345 185.067 39.7826H202.891C202.847 42.9345 202.577 45.8482 202.145 48.4674C199.768 48.1603 197.046 47.9661 193.985 47.9661H193.973ZM193.973 14.6871C196.983 14.6871 200.138 19.418 201.768 27.1816C199.492 27.4761 196.895 27.6641 193.973 27.6641C191.05 27.6641 188.454 27.4761 186.177 27.1816C187.808 19.418 190.962 14.6871 193.973 14.6871ZM193.973 29.6316C197.039 29.6316 199.755 29.4374 202.132 29.1304C202.565 31.7496 202.834 34.6633 202.878 37.8151H185.054C185.098 34.6633 185.368 31.7496 185.801 29.1304C188.178 29.4374 190.9 29.6316 193.96 29.6316H193.973ZM183.091 37.8151H169.865C170.04 33.3913 171.42 29.2807 173.678 25.778C175.127 26.5112 178.482 27.9461 183.875 28.8421C183.411 31.6117 183.135 34.6319 183.091 37.8151ZM183.091 39.7826C183.142 42.9658 183.411 45.986 183.875 48.7556C178.482 49.6517 175.127 51.0928 173.678 51.8197C171.42 48.317 170.047 44.2065 169.865 39.7826H183.091ZM204.854 39.7826H218.081C217.905 44.2065 216.525 48.317 214.268 51.8197C212.812 51.0866 209.463 49.6517 204.07 48.7556C204.534 45.986 204.81 42.9658 204.854 39.7826ZM204.854 37.8151C204.804 34.6319 204.534 31.6117 204.07 28.8421C209.463 27.9461 212.819 26.5049 214.268 25.778C216.525 29.2807 217.899 33.3913 218.081 37.8151H204.854ZM213.114 24.1426C211.671 24.8319 208.554 26.0851 203.7 26.8996C202.615 21.7176 200.834 17.582 198.632 15.1445C204.496 16.2975 209.608 19.5746 213.12 24.1426H213.114ZM189.313 15.1445C187.112 17.582 185.33 21.7239 184.245 26.8996C179.391 26.0851 176.274 24.8319 174.832 24.1426C178.344 19.5746 183.449 16.2975 189.319 15.1445H189.313ZM174.826 53.4551C176.268 52.7659 179.385 51.5127 184.239 50.6981C185.324 55.8801 187.105 60.0157 189.307 62.4532C183.443 61.3002 178.331 58.0231 174.819 53.4551H174.826ZM198.626 62.4532C200.828 60.0157 202.609 55.8738 203.694 50.6981C208.548 51.5127 211.665 52.7659 213.107 53.4551C209.595 58.0231 204.49 61.3002 198.62 62.4532H198.626Z" fill="url(#paint4_linear_2018_1926)"/>
</g>
<g filter="url(#filter4_d_2018_1926)">
<path d="M66.505 31.5566H64.7553V25.56C64.7553 18.4543 58.9666 12.6707 51.8546 12.6707C44.7427 12.6707 38.954 18.4543 38.954 25.56V31.5566H37.2042C35.2663 31.5566 33.6921 33.1294 33.6921 35.0656V55.4553C33.6921 57.3915 35.2663 58.9643 37.2042 58.9643H66.505C68.443 58.9643 70.0171 57.3915 70.0171 55.4553V35.0656C70.0171 33.1294 68.443 31.5566 66.505 31.5566ZM40.4278 25.56C40.4278 19.2626 45.5517 14.1432 51.8546 14.1432C58.1576 14.1432 63.2814 19.2626 63.2814 25.56V31.5566H59.3304V25.56C59.3304 21.4432 55.9751 18.0908 51.8546 18.0908C47.7342 18.0908 44.3789 21.4432 44.3789 25.56V31.5566H40.4215V25.56H40.4278ZM57.8565 31.5566H45.8527V25.56C45.8527 22.2515 48.5432 19.5634 51.8546 19.5634C55.166 19.5634 57.8565 22.2515 57.8565 25.56V31.5566ZM68.5496 55.4553C68.5496 56.5769 67.6339 57.4917 66.5113 57.4917H37.2105C36.0879 57.4917 35.1722 56.5769 35.1722 55.4553V35.0656C35.1722 33.9439 36.0879 33.0291 37.2105 33.0291H66.5113C67.6339 33.0291 68.5496 33.9439 68.5496 35.0656V55.4553Z" fill="url(#paint5_linear_2018_1926)"/>
<path d="M60.9912 40.2852L51.634 51.7521L43.7005 44.0261L45.513 42.1651L51.4145 47.9173L58.978 38.6435L60.9912 40.2852Z" fill="url(#paint6_linear_2018_1926)"/>
</g>
<g filter="url(#filter5_d_2018_1926)">
<path d="M237.63 157.058H236.1V151.826C236.1 145.623 231.045 140.572 224.836 140.572C218.627 140.572 213.572 145.623 213.572 151.826V157.058H212.042C210.348 157.058 208.975 158.43 208.975 160.122V177.924C208.975 179.616 210.348 180.988 212.042 180.988H237.624C239.317 180.988 240.69 179.616 240.69 177.924V160.122C240.69 158.43 239.317 157.058 237.624 157.058H237.63ZM214.864 151.826C214.864 146.331 219.342 141.857 224.842 141.857C230.342 141.857 234.82 146.331 234.82 151.826V157.058H231.371V151.826C231.371 148.229 228.442 145.309 224.848 145.309C221.255 145.309 218.326 148.236 218.326 151.826V157.058H214.87V151.826H214.864ZM230.079 157.058H219.599V151.826C219.599 148.937 221.951 146.594 224.836 146.594C227.721 146.594 230.073 148.944 230.073 151.826V157.058H230.079ZM239.411 177.924C239.411 178.908 238.614 179.704 237.63 179.704H212.048C211.063 179.704 210.267 178.908 210.267 177.924V160.122C210.267 159.139 211.063 158.343 212.048 158.343H237.63C238.614 158.343 239.411 159.139 239.411 160.122V177.924Z" fill="url(#paint7_linear_2018_1926)"/>
<path d="M232.811 164.673L224.639 174.686L217.709 167.937L219.289 166.314L224.444 171.333L231.048 163.238L232.804 164.666L232.811 164.673Z" fill="url(#paint8_linear_2018_1926)"/>
</g>
<path style="mix-blend-mode:multiply" d="M131.149 231.993C190.198 231.993 238.067 228.038 238.067 223.158C238.067 218.279 190.198 214.323 131.149 214.323C72.0999 214.323 24.2311 218.279 24.2311 223.158C24.2311 228.038 72.0999 231.993 131.149 231.993Z" fill="url(#paint9_radial_2018_1926)"/>
<path d="M131.148 18.5408C94.541 20.4019 63.365 45.4535 41.6089 68.7319C41.6089 202.8 131.148 210.733 131.148 210.733C131.148 210.733 220.688 202.8 220.688 68.7319C198.931 45.4535 167.755 20.4019 131.148 18.5408Z" fill="url(#paint10_linear_2018_1926)"/>
<path d="M131.149 20.7849C95.3947 22.6021 64.9462 47.071 43.7044 69.8042C43.7044 200.746 131.149 208.491 131.149 208.491C131.149 208.491 218.594 200.746 218.594 69.8042C197.345 47.071 166.903 22.6021 131.149 20.7849Z" fill="url(#paint11_linear_2018_1926)"/>
<path style="mix-blend-mode:multiply" d="M131.152 22.9645C96.2259 24.744 66.4861 48.6427 45.7334 70.8496C45.7334 198.752 131.152 206.315 131.152 206.315C131.152 206.315 216.571 198.752 216.571 70.8496C195.819 48.6427 166.079 24.744 131.152 22.9645Z" fill="url(#paint12_linear_2018_1926)"/>
<path d="M131.151 29.5383C98.7334 31.1863 71.1259 53.3743 51.8596 73.9896C51.8596 192.719 131.151 199.743 131.151 199.743C131.151 199.743 210.443 192.719 210.443 73.9896C191.176 53.3743 163.569 31.1863 131.151 29.5383Z" fill="url(#paint13_linear_2018_1926)"/>
<path style="mix-blend-mode:multiply" d="M131.15 31.7804C99.5856 33.3845 72.7056 54.9898 53.9473 75.06C53.9473 190.662 131.15 197.498 131.15 197.498C131.15 197.498 208.354 190.662 208.354 75.06C189.595 54.9898 162.715 33.3908 131.15 31.7804Z" fill="url(#paint14_linear_2018_1926)"/>
<path d="M131.148 193.458V35.817C101.12 37.3459 75.5509 57.8922 57.7083 76.9849C57.7083 186.954 131.148 193.458 131.148 193.458Z" fill="url(#paint15_linear_2018_1926)"/>
<path d="M131.148 193.458V35.817C161.177 37.3459 186.746 57.8922 204.589 76.9849C204.589 186.954 131.148 193.458 131.148 193.458Z" fill="url(#paint16_linear_2018_1926)"/>
<path style="mix-blend-mode:screen" d="M112.743 122.225C151.325 142.502 184.96 148.518 186.521 148.681C195.264 132.445 201.492 109.9 201.492 78.5762C184.402 60.2919 159.911 40.6102 131.156 39.144C102.401 40.6102 77.9103 60.2856 60.8202 78.5762C60.8202 87.2108 89.4625 109.988 112.749 122.225H112.743Z" fill="url(#paint17_linear_2018_1926)"/>
<g style="mix-blend-mode:multiply">
<path style="mix-blend-mode:multiply" opacity="0.43" d="M155.35 100.056H106.946C103.177 100.056 100.123 103.108 100.123 106.874V143.643C100.123 147.408 103.177 150.46 106.946 150.46H155.35C159.119 150.46 162.174 147.408 162.174 143.643V106.874C162.174 103.108 159.119 100.056 155.35 100.056Z" fill="url(#paint18_linear_2018_1926)"/>
<path style="mix-blend-mode:multiply" d="M152.467 103.064H109.833C106.515 103.064 103.825 105.752 103.825 109.067V141.45C103.825 144.766 106.515 147.453 109.833 147.453H152.467C155.785 147.453 158.475 144.766 158.475 141.45V109.067C158.475 105.752 155.785 103.064 152.467 103.064Z" fill="url(#paint19_linear_2018_1926)"/>
<g style="mix-blend-mode:multiply" opacity="0.43">
<path d="M151.848 100.056H144.121V90.1929C144.121 83.0496 138.301 77.2347 131.152 77.2347C124.002 77.2347 118.182 83.0496 118.182 90.1929V100.056H110.455V90.1929C110.455 78.7887 119.737 69.515 131.152 69.515C142.566 69.515 151.848 78.7887 151.848 90.1929V100.056Z" fill="url(#paint20_linear_2018_1926)"/>
</g>
<path d="M130.486 139.438L116.124 126.223L122.113 119.725L129.564 126.586L141.298 112.193L148.153 117.764L130.486 139.438Z" fill="url(#paint21_linear_2018_1926)"/>
</g>
<g filter="url(#filter6_d_2018_1926)">
<path d="M212.354 120.171L203.078 129.438C202.608 129.908 201.843 129.908 201.366 129.438L184.84 112.927L178.255 121.775C177.986 122.132 177.54 122.314 177.101 122.245C176.656 122.176 176.292 121.869 176.142 121.443L162.244 80.9013C162.093 80.4627 162.206 79.9802 162.532 79.6544C162.858 79.3285 163.341 79.2158 163.78 79.3661L204.358 93.2517C204.784 93.3958 205.091 93.7655 205.16 94.2104C205.229 94.6553 205.047 95.1002 204.69 95.3634L195.834 101.943L212.36 118.454C212.83 118.924 212.83 119.688 212.36 120.164L212.354 120.171ZM202.219 126.875L209.789 119.312L193.125 102.663C192.874 102.413 192.749 102.068 192.774 101.723C192.799 101.372 192.975 101.053 193.257 100.84L201.397 94.7931L165.329 82.449L177.684 118.485L183.737 110.352C183.944 110.07 184.27 109.894 184.621 109.869C184.972 109.844 185.317 109.969 185.562 110.22L202.225 126.869L202.219 126.875Z" fill="url(#paint22_linear_2018_1926)"/>
</g>
</g>
<defs>
<filter id="filter0_d_2018_1926" x="218.802" y="75.9642" width="38.5272" height="38.5077" filterUnits="userSpaceOnUse" color-interpolation-filters="sRGB">
<feFlood flood-opacity="0" result="BackgroundImageFix"/>
<feColorMatrix in="SourceAlpha" type="matrix" values="0 0 0 0 0 0 0 0 0 0 0 0 0 0 0 0 0 0 127 0" result="hardAlpha"/>
<feOffset/>
<feGaussianBlur stdDeviation="4.40698"/>
<feColorMatrix type="matrix" values="0 0 0 0 1 0 0 0 0 1 0 0 0 0 1 0 0 0 0.3 0"/>
<feBlend mode="normal" in2="BackgroundImageFix" result="effect1_dropShadow_2018_1926"/>
<feBlend mode="normal" in="SourceGraphic" in2="effect1_dropShadow_2018_1926" result="shape"/>
</filter>
<filter id="filter1_d_2018_1926" x="8.92395" y="117.497" width="37.1471" height="37.1237" filterUnits="userSpaceOnUse" color-interpolation-filters="sRGB">
<feFlood flood-opacity="0" result="BackgroundImageFix"/>
<feColorMatrix in="SourceAlpha" type="matrix" values="0 0 0 0 0 0 0 0 0 0 0 0 0 0 0 0 0 0 127 0" result="hardAlpha"/>
<feOffset/>
<feGaussianBlur stdDeviation="4.40698"/>
<feColorMatrix type="matrix" values="0 0 0 0 1 0 0 0 0 1 0 0 0 0 1 0 0 0 0.3 0"/>
<feBlend mode="normal" in2="BackgroundImageFix" result="effect1_dropShadow_2018_1926"/>
<feBlend mode="normal" in="SourceGraphic" in2="effect1_dropShadow_2018_1926" result="shape"/>
</filter>
<filter id="filter2_d_2018_1926" x="26.6223" y="142.047" width="62.1709" height="62.1309" filterUnits="userSpaceOnUse" color-interpolation-filters="sRGB">
<feFlood flood-opacity="0" result="BackgroundImageFix"/>
<feColorMatrix in="SourceAlpha" type="matrix" values="0 0 0 0 0 0 0 0 0 0 0 0 0 0 0 0 0 0 127 0" result="hardAlpha"/>
<feOffset/>
<feGaussianBlur stdDeviation="4.40698"/>
<feColorMatrix type="matrix" values="0 0 0 0 1 0 0 0 0 1 0 0 0 0 1 0 0 0 0.3 0"/>
<feBlend mode="normal" in2="BackgroundImageFix" result="effect1_dropShadow_2018_1926"/>
<feBlend mode="normal" in="SourceGraphic" in2="effect1_dropShadow_2018_1926" result="shape"/>
</filter>
<filter id="filter3_d_2018_1926" x="159.049" y="3.89828" width="69.8473" height="69.8013" filterUnits="userSpaceOnUse" color-interpolation-filters="sRGB">
<feFlood flood-opacity="0" result="BackgroundImageFix"/>
<feColorMatrix in="SourceAlpha" type="matrix" values="0 0 0 0 0 0 0 0 0 0 0 0 0 0 0 0 0 0 127 0" result="hardAlpha"/>
<feOffset/>
<feGaussianBlur stdDeviation="4.40698"/>
<feColorMatrix type="matrix" values="0 0 0 0 1 0 0 0 0 1 0 0 0 0 1 0 0 0 0.3 0"/>
<feBlend mode="normal" in2="BackgroundImageFix" result="effect1_dropShadow_2018_1926"/>
<feBlend mode="normal" in="SourceGraphic" in2="effect1_dropShadow_2018_1926" result="shape"/>
</filter>
<filter id="filter4_d_2018_1926" x="24.8708" y="3.84941" width="53.9678" height="63.9371" filterUnits="userSpaceOnUse" color-interpolation-filters="sRGB">
<feFlood flood-opacity="0" result="BackgroundImageFix"/>
<feColorMatrix in="SourceAlpha" type="matrix" values="0 0 0 0 0 0 0 0 0 0 0 0 0 0 0 0 0 0 127 0" result="hardAlpha"/>
<feOffset/>
<feGaussianBlur stdDeviation="4.40698"/>
<feColorMatrix type="matrix" values="0 0 0 0 1 0 0 0 0 1 0 0 0 0 1 0 0 0 0.3 0"/>
<feBlend mode="normal" in2="BackgroundImageFix" result="effect1_dropShadow_2018_1926"/>
<feBlend mode="normal" in="SourceGraphic" in2="effect1_dropShadow_2018_1926" result="shape"/>
</filter>
<filter id="filter5_d_2018_1926" x="200.154" y="131.751" width="49.3575" height="58.0591" filterUnits="userSpaceOnUse" color-interpolation-filters="sRGB">
<feFlood flood-opacity="0" result="BackgroundImageFix"/>
<feColorMatrix in="SourceAlpha" type="matrix" values="0 0 0 0 0 0 0 0 0 0 0 0 0 0 0 0 0 0 127 0" result="hardAlpha"/>
<feOffset/>
<feGaussianBlur stdDeviation="4.40698"/>
<feColorMatrix type="matrix" values="0 0 0 0 1 0 0 0 0 1 0 0 0 0 1 0 0 0 0.3 0"/>
<feBlend mode="normal" in2="BackgroundImageFix" result="effect1_dropShadow_2018_1926"/>
<feBlend mode="normal" in="SourceGraphic" in2="effect1_dropShadow_2018_1926" result="shape"/>
</filter>
<filter id="filter6_d_2018_1926" x="153.357" y="70.4792" width="68.1769" height="68.132" filterUnits="userSpaceOnUse" color-interpolation-filters="sRGB">
<feFlood flood-opacity="0" result="BackgroundImageFix"/>
<feColorMatrix in="SourceAlpha" type="matrix" values="0 0 0 0 0 0 0 0 0 0 0 0 0 0 0 0 0 0 127 0" result="hardAlpha"/>
<feOffset/>
<feGaussianBlur stdDeviation="4.40698"/>
<feColorMatrix type="matrix" values="0 0 0 0 1 0 0 0 0 1 0 0 0 0 1 0 0 0 0.3 0"/>
<feBlend mode="normal" in2="BackgroundImageFix" result="effect1_dropShadow_2018_1926"/>
<feBlend mode="normal" in="SourceGraphic" in2="effect1_dropShadow_2018_1926" result="shape"/>
</filter>
<radialGradient id="paint0_radial_2018_1926" cx="0" cy="0" r="1" gradientUnits="userSpaceOnUse" gradientTransform="translate(129.704 114.637) scale(114.739 114.637)">
<stop offset="0.24" stop-color="white"/>
<stop offset="0.25" stop-color="white" stop-opacity="0.97"/>
<stop offset="0.42" stop-color="white" stop-opacity="0.68"/>
<stop offset="0.57" stop-color="white" stop-opacity="0.44"/>
<stop offset="0.71" stop-color="white" stop-opacity="0.25"/>
<stop offset="0.83" stop-color="white" stop-opacity="0.11"/>
<stop offset="0.93" stop-color="white" stop-opacity="0.03"/>
<stop offset="1" stop-color="white" stop-opacity="0"/>
</radialGradient>
<linearGradient id="paint1_linear_2018_1926" x1="227.623" y1="95.2185" x2="248.508" y2="95.2185" gradientUnits="userSpaceOnUse">
<stop stop-color="#ACD9FB" stop-opacity="0.4"/>
<stop offset="0.24" stop-color="#C2E3FC" stop-opacity="0.57"/>
<stop offset="0.61" stop-color="#E3F2FD" stop-opacity="0.8"/>
<stop offset="0.87" stop-color="#F7FBFE" stop-opacity="0.94"/>
<stop offset="1" stop-color="white"/>
</linearGradient>
<linearGradient id="paint2_linear_2018_1926" x1="27.4976" y1="145.799" x2="27.4976" y2="126.318" gradientUnits="userSpaceOnUse">
<stop stop-color="#ACD9FB" stop-opacity="0.4"/>
<stop offset="0.24" stop-color="#C2E3FC" stop-opacity="0.57"/>
<stop offset="0.61" stop-color="#E3F2FD" stop-opacity="0.8"/>
<stop offset="0.87" stop-color="#F7FBFE" stop-opacity="0.94"/>
<stop offset="1" stop-color="white"/>
</linearGradient>
<linearGradient id="paint3_linear_2018_1926" x1="57.7077" y1="195.351" x2="57.7077" y2="150.868" gradientUnits="userSpaceOnUse">
<stop stop-color="#ACD9FB" stop-opacity="0.4"/>
<stop offset="0.24" stop-color="#C2E3FC" stop-opacity="0.57"/>
<stop offset="0.61" stop-color="#E3F2FD" stop-opacity="0.8"/>
<stop offset="0.87" stop-color="#F7FBFE" stop-opacity="0.94"/>
<stop offset="1" stop-color="white"/>
</linearGradient>
<linearGradient id="paint4_linear_2018_1926" x1="193.973" y1="64.8782" x2="193.973" y2="12.7196" gradientUnits="userSpaceOnUse">
<stop stop-color="#ACD9FB" stop-opacity="0.4"/>
<stop offset="0.24" stop-color="#C2E3FC" stop-opacity="0.57"/>
<stop offset="0.61" stop-color="#E3F2FD" stop-opacity="0.8"/>
<stop offset="0.87" stop-color="#F7FBFE" stop-opacity="0.94"/>
<stop offset="1" stop-color="white"/>
</linearGradient>
<linearGradient id="paint5_linear_2018_1926" x1="58.1137" y1="13.9866" x2="47.3323" y2="67.9534" gradientUnits="userSpaceOnUse">
<stop stop-color="#ACD9FB" stop-opacity="0.4"/>
<stop offset="0.24" stop-color="#C2E3FC" stop-opacity="0.57"/>
<stop offset="0.61" stop-color="#E3F2FD" stop-opacity="0.8"/>
<stop offset="0.87" stop-color="#F7FBFE" stop-opacity="0.94"/>
<stop offset="1" stop-color="white"/>
</linearGradient>
<linearGradient id="paint6_linear_2018_1926" x1="56.6325" y1="20.7226" x2="48.2491" y2="62.6641" gradientUnits="userSpaceOnUse">
<stop stop-color="#ACD9FB" stop-opacity="0.4"/>
<stop offset="0.24" stop-color="#C2E3FC" stop-opacity="0.57"/>
<stop offset="0.61" stop-color="#E3F2FD" stop-opacity="0.8"/>
<stop offset="0.87" stop-color="#F7FBFE" stop-opacity="0.94"/>
<stop offset="1" stop-color="white"/>
</linearGradient>
<linearGradient id="paint7_linear_2018_1926" x1="230.305" y1="141.713" x2="220.888" y2="188.83" gradientUnits="userSpaceOnUse">
<stop stop-color="#ACD9FB" stop-opacity="0.4"/>
<stop offset="0.24" stop-color="#C2E3FC" stop-opacity="0.57"/>
<stop offset="0.61" stop-color="#E3F2FD" stop-opacity="0.8"/>
<stop offset="0.87" stop-color="#F7FBFE" stop-opacity="0.94"/>
<stop offset="1" stop-color="white"/>
</linearGradient>
<linearGradient id="paint8_linear_2018_1926" x1="229.01" y1="147.598" x2="221.691" y2="184.213" gradientUnits="userSpaceOnUse">
<stop stop-color="#ACD9FB" stop-opacity="0.4"/>
<stop offset="0.24" stop-color="#C2E3FC" stop-opacity="0.57"/>
<stop offset="0.61" stop-color="#E3F2FD" stop-opacity="0.8"/>
<stop offset="0.87" stop-color="#F7FBFE" stop-opacity="0.94"/>
<stop offset="1" stop-color="white"/>
</linearGradient>
<radialGradient id="paint9_radial_2018_1926" cx="0" cy="0" r="1" gradientUnits="userSpaceOnUse" gradientTransform="translate(132.413 223.425) scale(102.381 7.56236)">
<stop stop-color="#9DB0E0"/>
<stop offset="1" stop-color="white"/>
</radialGradient>
<linearGradient id="paint10_linear_2018_1926" x1="41.6152" y1="114.637" x2="220.688" y2="114.637" gradientUnits="userSpaceOnUse">
<stop stop-color="#D0E7FD"/>
<stop offset="0.06" stop-color="#D8EAFC"/>
<stop offset="0.28" stop-color="#F0F5FA"/>
<stop offset="0.41" stop-color="#FAFAFA"/>
<stop offset="0.52" stop-color="#F1F5FA"/>
<stop offset="0.71" stop-color="#D9EBFC"/>
<stop offset="0.77" stop-color="#D0E7FD"/>
<stop offset="1" stop-color="#FAFAFA"/>
</linearGradient>
<linearGradient id="paint11_linear_2018_1926" x1="43.7044" y1="114.638" x2="218.594" y2="114.638" gradientUnits="userSpaceOnUse">
<stop stop-color="#ADD1F4"/>
<stop offset="0.08" stop-color="#8CB4E3"/>
<stop offset="0.2" stop-color="#5685C8"/>
<stop offset="0.24" stop-color="#5C8ACA"/>
<stop offset="0.29" stop-color="#6D98D1"/>
<stop offset="0.34" stop-color="#8AB0DD"/>
<stop offset="0.4" stop-color="#B1D1EE"/>
<stop offset="0.42" stop-color="#BFDDF4"/>
<stop offset="0.52" stop-color="#94BCE2"/>
<stop offset="0.63" stop-color="#6A9BD0"/>
<stop offset="0.69" stop-color="#5A8FCA"/>
<stop offset="0.72" stop-color="#6899CF"/>
<stop offset="0.79" stop-color="#8DB6DF"/>
<stop offset="0.86" stop-color="#BFDDF4"/>
<stop offset="0.89" stop-color="#BBD9F2"/>
<stop offset="0.92" stop-color="#AFD0ED"/>
<stop offset="0.94" stop-color="#9BC1E5"/>
<stop offset="0.97" stop-color="#7FACD9"/>
<stop offset="1" stop-color="#5A8FCA"/>
</linearGradient>
<linearGradient id="paint12_linear_2018_1926" x1="45.7334" y1="-0.000605206" x2="216.571" y2="-0.000605206" gradientUnits="userSpaceOnUse">
<stop stop-color="#ADD1F4"/>
<stop offset="0.08" stop-color="#8CB4E3"/>
<stop offset="0.2" stop-color="#5685C8"/>
<stop offset="0.24" stop-color="#5C8ACA"/>
<stop offset="0.29" stop-color="#6D98D1"/>
<stop offset="0.34" stop-color="#8AB0DD"/>
<stop offset="0.4" stop-color="#B1D1EE"/>
<stop offset="0.42" stop-color="#BFDDF4"/>
<stop offset="0.52" stop-color="#94BCE2"/>
<stop offset="0.63" stop-color="#6A9BD0"/>
<stop offset="0.69" stop-color="#5A8FCA"/>
<stop offset="0.72" stop-color="#6899CF"/>
<stop offset="0.79" stop-color="#8DB6DF"/>
<stop offset="0.86" stop-color="#BFDDF4"/>
<stop offset="0.89" stop-color="#BBD9F2"/>
<stop offset="0.92" stop-color="#AFD0ED"/>
<stop offset="0.94" stop-color="#9BC1E5"/>
<stop offset="0.97" stop-color="#7FACD9"/>
<stop offset="1" stop-color="#5A8FCA"/>
</linearGradient>
<linearGradient id="paint13_linear_2018_1926" x1="51.8596" y1="0.000146881" x2="210.443" y2="0.000146881" gradientUnits="userSpaceOnUse">
<stop stop-color="#D0E7FD"/>
<stop offset="0.06" stop-color="#D8EAFC"/>
<stop offset="0.28" stop-color="#F0F5FA"/>
<stop offset="0.41" stop-color="#FAFAFA"/>
<stop offset="0.52" stop-color="#F1F5FA"/>
<stop offset="0.71" stop-color="#D9EBFC"/>
<stop offset="0.77" stop-color="#D0E7FD"/>
<stop offset="1" stop-color="#FAFAFA"/>
</linearGradient>
<linearGradient id="paint14_linear_2018_1926" x1="53.9473" y1="-0.000987942" x2="208.354" y2="-0.000987942" gradientUnits="userSpaceOnUse">
<stop stop-color="#ADD1F4"/>
<stop offset="0.08" stop-color="#8CB4E3"/>
<stop offset="0.2" stop-color="#5685C8"/>
<stop offset="0.24" stop-color="#5C8ACA"/>
<stop offset="0.29" stop-color="#6D98D1"/>
<stop offset="0.34" stop-color="#8AB0DD"/>
<stop offset="0.4" stop-color="#B1D1EE"/>
<stop offset="0.42" stop-color="#BFDDF4"/>
<stop offset="0.52" stop-color="#94BCE2"/>
<stop offset="0.63" stop-color="#6A9BD0"/>
<stop offset="0.69" stop-color="#5A8FCA"/>
<stop offset="0.72" stop-color="#6899CF"/>
<stop offset="0.79" stop-color="#8DB6DF"/>
<stop offset="0.86" stop-color="#BFDDF4"/>
<stop offset="0.89" stop-color="#BBD9F2"/>
<stop offset="0.92" stop-color="#AFD0ED"/>
<stop offset="0.94" stop-color="#9BC1E5"/>
<stop offset="0.97" stop-color="#7FACD9"/>
<stop offset="1" stop-color="#5A8FCA"/>
</linearGradient>
<linearGradient id="paint15_linear_2018_1926" x1="57.7083" y1="114.638" x2="131.148" y2="114.638" gradientUnits="userSpaceOnUse">
<stop stop-color="#FAFAFA"/>
<stop offset="0.45" stop-color="#BDDDEF"/>
<stop offset="0.81" stop-color="#92C8E8"/>
<stop offset="1" stop-color="#82C1E6"/>
</linearGradient>
<linearGradient id="paint16_linear_2018_1926" x1="131.148" y1="0.000249413" x2="204.589" y2="0.000249413" gradientUnits="userSpaceOnUse">
<stop stop-color="#FAFAFA"/>
<stop offset="0.45" stop-color="#BDDDEF"/>
<stop offset="0.81" stop-color="#92C8E8"/>
<stop offset="1" stop-color="#82C1E6"/>
</linearGradient>
<linearGradient id="paint17_linear_2018_1926" x1="112.485" y1="135.24" x2="157.34" y2="48.4543" gradientUnits="userSpaceOnUse">
<stop stop-color="#FAFAFA" stop-opacity="0.98"/>
<stop offset="0.08" stop-color="#FAFAFA" stop-opacity="0.78"/>
<stop offset="0.16" stop-color="#FAFAFA" stop-opacity="0.6"/>
<stop offset="0.25" stop-color="#FAFAFA" stop-opacity="0.44"/>
<stop offset="0.34" stop-color="#FAFAFA" stop-opacity="0.3"/>
<stop offset="0.44" stop-color="#FAFAFA" stop-opacity="0.19"/>
<stop offset="0.54" stop-color="#FAFAFA" stop-opacity="0.11"/>
<stop offset="0.66" stop-color="#FAFAFA" stop-opacity="0.05"/>
<stop offset="0.79" stop-color="#FAFAFA" stop-opacity="0.01"/>
<stop offset="1" stop-color="#FAFAFA" stop-opacity="0"/>
</linearGradient>
<linearGradient id="paint18_linear_2018_1926" x1="100.123" y1="125.258" x2="162.18" y2="125.258" gradientUnits="userSpaceOnUse">
<stop stop-color="#325ABF"/>
<stop offset="0.24" stop-color="#3662C5"/>
<stop offset="0.64" stop-color="#437AD7"/>
<stop offset="1" stop-color="#5396EC"/>
</linearGradient>
<linearGradient id="paint19_linear_2018_1926" x1="103.825" y1="125.259" x2="158.475" y2="125.259" gradientUnits="userSpaceOnUse">
<stop stop-color="#ADD1F4"/>
<stop offset="0.08" stop-color="#8CB4E3"/>
<stop offset="0.2" stop-color="#5685C8"/>
<stop offset="0.24" stop-color="#5C8ACA"/>
<stop offset="0.29" stop-color="#6D98D1"/>
<stop offset="0.34" stop-color="#8AB0DD"/>
<stop offset="0.4" stop-color="#B1D1EE"/>
<stop offset="0.42" stop-color="#BFDDF4"/>
<stop offset="0.52" stop-color="#94BCE2"/>
<stop offset="0.63" stop-color="#6A9BD0"/>
<stop offset="0.69" stop-color="#5A8FCA"/>
<stop offset="0.72" stop-color="#6899CF"/>
<stop offset="0.79" stop-color="#8DB6DF"/>
<stop offset="0.86" stop-color="#BFDDF4"/>
<stop offset="0.89" stop-color="#BBD9F2"/>
<stop offset="0.92" stop-color="#AFD0ED"/>
<stop offset="0.94" stop-color="#9BC1E5"/>
<stop offset="0.97" stop-color="#7FACD9"/>
<stop offset="1" stop-color="#5A8FCA"/>
</linearGradient>
<linearGradient id="paint20_linear_2018_1926" x1="110.462" y1="84.7916" x2="151.848" y2="84.7916" gradientUnits="userSpaceOnUse">
<stop stop-color="#325ABF"/>
<stop offset="0.24" stop-color="#3662C5"/>
<stop offset="0.64" stop-color="#437AD7"/>
<stop offset="1" stop-color="#5396EC"/>
</linearGradient>
<linearGradient id="paint21_linear_2018_1926" x1="116.124" y1="125.815" x2="148.153" y2="125.815" gradientUnits="userSpaceOnUse">
<stop stop-color="#FAFAFA"/>
<stop offset="0.45" stop-color="#BDDDEF"/>
<stop offset="0.81" stop-color="#92C8E8"/>
<stop offset="1" stop-color="#82C1E6"/>
</linearGradient>
<linearGradient id="paint22_linear_2018_1926" x1="207.722" y1="124.809" x2="162.577" y2="79.6245" gradientUnits="userSpaceOnUse">
<stop stop-color="#ACD9FB" stop-opacity="0.4"/>
<stop offset="0.24" stop-color="#C2E3FC" stop-opacity="0.57"/>
<stop offset="0.61" stop-color="#E3F2FD" stop-opacity="0.8"/>
<stop offset="0.87" stop-color="#F7FBFE" stop-opacity="0.94"/>
<stop offset="1" stop-color="white"/>
</linearGradient>
<clipPath id="clip0_2018_1926">
<rect width="258.249" height="231.807" fill="white" transform="scale(1.00083)"/>
</clipPath>
</defs>
</svg>
