<svg width="614" height="195" viewBox="0 0 614 195" fill="none" xmlns="http://www.w3.org/2000/svg">
<g clip-path="url(#clip0_2154_667)">
<path fill-rule="evenodd" clip-rule="evenodd" d="M0 193.999L6.31685 172.385L28.4628 171.457L43.9428 163.35L60.1264 162.904L71.9199 150.984L82.2926 119.993L88.942 108.905L106.701 132.034L121.144 135.553L131.712 128.839L144.463 99.2404L181.024 159.253L196.076 133.405L213.334 146.379L222.636 126.598L224.45 117.108L238.459 107.416L245.694 94.2457L253.69 112.643L252.367 124.723L259.743 126.51L265.467 121.132L280.404 -0.357422L294.309 147.636L306.692 131.722V122.634L317.276 113.243L322.232 106.045L331.352 95.2188L353.034 106.508L363.827 112.643L372.54 108.671L387.737 126.523L409.843 91.437L416.31 110.57L430.171 123.807L443.607 119.567L449.883 110.568L459.929 106.502L461.195 98.7751L472.658 79.7763L489.488 85.1722L494.62 68.2855L517.698 179.06L534.151 156.908L555.832 155.359L581.813 171.081L591.906 109.753L604.568 113.205L610.527 105.997L613.884 108.3L620.183 107.597L623.782 110.698L633.781 112.721L633.959 119.583L645.911 123.933L660.845 122.971L661.63 111.484L650.376 36.3112L676.602 67.1307L689.725 77.4859L722.56 56.31L741.089 71.3674H747.018H753.705L761.84 80.811L771.721 91.437L824.501 95.2188L832.984 79.7763L868.556 123.8L889.032 85.1722L910.07 98.729L929.93 81.6807L951.901 95.2188L968.504 104.052L977.825 101.352L988.119 94.2457L998 85.1722V193.999H82.6059H0Z" fill="url(#paint0_linear_2154_667)"/>
<path d="M0 194.999L6.38304 172.572L28.5254 171.642L44.0028 163.524L60.1838 163.078L71.9753 151.141L82.3463 120.108L89.1322 109.005L106.751 132.165L121.191 135.689L131.758 128.966L144.311 98.8612L181.061 159.422L196.111 133.539L213.366 146.53L222.666 126.722L224.481 117.219L238.487 107.514L245.721 94.3255L253.716 112.748L252.393 124.845L259.768 126.634L265.49 121.249L280.404 -0.357422L294.328 147.789L306.708 131.854V122.753L317.292 113.349L322.246 106.141L331.365 95.3L353.043 106.604L363.835 112.748L372.546 108.771L387.741 126.647L409.843 91.513L416.309 110.673L430.168 123.927L443.602 119.682L449.876 110.67L459.921 106.599L461.187 98.8612L472.648 79.8363L489.475 85.2396L494.702 70.1647L517.68 179.256L534.13 157.074L555.808 155.522L581.785 171.266L591.876 109.854L604.536 113.311L610.494 106.093L613.85 108.399L620.148 107.695L623.747 110.801L633.744 112.826L633.922 119.698L645.872 124.054L660.804 123.09L661.589 111.588L650.376 36.3112L676.558 67.1734L689.679 77.5428L722.509 56.3379L740.766 71.4159H753.376L771.64 91.513L796.418 95.3H824.141L832.621 79.8363L852.047 104.025L868.178 124.845L889.128 85.2396C889.128 85.2396 908.302 99.8931 910.504 98.8612C912.706 97.8294 931.03 81.6485 931.03 81.6485L948.802 94.3255L970.045 106.141L987.688 95.3L996 85.2396H993.614H994.894" stroke="url(#paint1_linear_2154_667)" stroke-width="1.5"/>
</g>
<defs>
<linearGradient id="paint0_linear_2154_667" x1="249.5" y1="96.8209" x2="249.5" y2="193.999" gradientUnits="userSpaceOnUse">
<stop stop-color="#0B3A78" stop-opacity="0.18"/>
<stop offset="1" stop-color="white" stop-opacity="0.176942"/>
</linearGradient>
<linearGradient id="paint1_linear_2154_667" x1="-606.937" y1="-43.0917" x2="-398.146" y2="791.139" gradientUnits="userSpaceOnUse">
<stop stop-color="#27AE60"/>
<stop offset="1" stop-color="#0052CC"/>
</linearGradient>
<clipPath id="clip0_2154_667">
<rect width="614" height="195" fill="white"/>
</clipPath>
</defs>
</svg>
