<svg width="574" height="195" viewBox="0 0 574 195" fill="none" xmlns="http://www.w3.org/2000/svg">
<g clip-path="url(#clip0_2154_671)">
<path fill-rule="evenodd" clip-rule="evenodd" d="M0 194L6.88651 176.095L31.0296 175.326L47.9056 168.611L65.5486 168.242L78.4056 158.367L89.7138 132.695L96.9628 123.51L116.323 142.669L132.069 145.585L143.59 140.023L157.491 115.504L197.348 165.217L213.758 143.805L232.572 154.553L242.713 138.167L244.691 130.305L259.963 122.277L267.851 111.367L276.568 126.607L275.125 136.614L283.167 138.094L289.406 133.639L305.691 33L320.85 155.594L334.349 142.412V134.883L345.888 127.104L351.291 121.141L361.234 112.173L384.871 121.524L396.637 126.607L406.136 123.317L422.704 138.105L446.803 109.04L453.853 124.89L468.964 135.854L483.612 132.343L490.454 124.887L501.406 121.52L502.786 115.119L515.283 99.3807L533.631 103.851L539.225 89.862L564.384 181.625L582.321 163.275L605.957 161.991L634.281 175.015L645.284 124.212L659.088 127.072L665.585 121.101L669.244 123.009L676.111 122.426L680.035 124.996L690.935 126.671L691.13 132.356L704.159 135.959L720.441 135.162L721.296 125.647L709.027 63.3754L737.618 88.9054L751.924 97.4834L787.721 79.9418L807.921 92.415H814.384H821.674L830.543 100.238L841.315 109.04L898.855 112.173L908.103 99.3807L946.883 135.849L969.205 103.851L992.14 115.081L1013.79 100.958L1037.74 112.173L1055.84 119.49L1066.01 117.253L1077.23 111.367L1088 103.851V194H90.0553H0Z" fill="url(#paint0_linear_2154_671)"/>
<path d="M0 195L6.95982 176.402L31.103 175.631L47.979 168.899L65.6221 168.529L78.4791 158.631L89.7872 132.897L97.1863 123.689L116.397 142.895L132.142 145.817L143.663 140.242L157.351 115.277L197.422 165.497L213.832 144.034L232.646 154.807L242.787 138.381L244.765 130.501L260.037 122.453L267.925 111.516L276.642 126.793L275.199 136.824L283.241 138.308L289.48 133.843L305.742 33L320.924 155.851L334.423 142.636V135.09L345.962 127.291L351.365 121.314L361.308 112.324L384.945 121.698L396.712 126.793L406.21 123.495L422.778 138.319L446.877 109.184L453.928 125.072L469.038 136.063L483.686 132.543L490.528 125.07L501.48 121.694L502.86 115.277L515.357 99.5009L533.705 103.982L539.404 91.4807L564.458 181.945L582.395 163.55L606.032 162.264L634.355 175.319L645.359 124.393L659.163 127.26L665.659 121.275L669.319 123.186L676.186 122.603L680.109 125.178L691.01 126.858L691.205 132.556L704.234 136.168L720.516 135.369L721.371 125.831L709.145 63.4076L737.692 89.0001L751.999 97.5989L787.796 80.0147L807.703 92.5182H821.452L841.367 109.184L868.384 112.324H898.612L907.858 99.5009L929.039 119.56L946.628 136.824L969.471 103.982C969.471 103.982 990.377 116.133 992.778 115.277C995.18 114.422 1015.16 101.004 1015.16 101.004L1034.54 111.516L1057.7 121.314L1076.94 112.324L1086 103.982H1083.4H1084.79" stroke="#27AE60" stroke-width="1.5"/>
<path fill-rule="evenodd" clip-rule="evenodd" d="M97 128C99.2091 128 101 126.209 101 124C101 121.791 99.2091 120 97 120C94.7909 120 93 121.791 93 124C93 126.209 94.7909 128 97 128Z" fill="#27AE60"/>
<path fill-rule="evenodd" clip-rule="evenodd" d="M157 120C159.209 120 161 118.209 161 116C161 113.791 159.209 112 157 112C154.791 112 153 113.791 153 116C153 118.209 154.791 120 157 120Z" fill="#27AE60"/>
<path fill-rule="evenodd" clip-rule="evenodd" d="M306 37C308.209 37 310 35.2091 310 33C310 30.7909 308.209 29 306 29C303.791 29 302 30.7909 302 33C302 35.2091 303.791 37 306 37Z" fill="#27AE60"/>
<path fill-rule="evenodd" clip-rule="evenodd" d="M408 128C410.209 128 412 126.209 412 124C412 121.791 410.209 120 408 120C405.791 120 404 121.791 404 124C404 126.209 405.791 128 408 128Z" fill="#27AE60"/>
<path fill-rule="evenodd" clip-rule="evenodd" d="M539 97C541.209 97 543 95.2091 543 93C543 90.7909 541.209 89 539 89C536.791 89 535 90.7909 535 93C535 95.2091 536.791 97 539 97Z" fill="#27AE60"/>
</g>
<defs>
<linearGradient id="paint0_linear_2154_671" x1="272" y1="113.5" x2="272" y2="194" gradientUnits="userSpaceOnUse">
<stop stop-color="#27AE60" stop-opacity="0.6"/>
<stop offset="1" stop-color="white" stop-opacity="0.176942"/>
</linearGradient>
<clipPath id="clip0_2154_671">
<rect width="574" height="195" fill="white"/>
</clipPath>
</defs>
</svg>
