<svg version="1.2" xmlns="http://www.w3.org/2000/svg" viewBox="0 0 293 263" width="293" height="263"><defs><linearGradient id="P" gradientUnits="userSpaceOnUse"/><radialGradient id="g1" cx="0" cy="0" r="1" href="#P" gradientTransform="matrix(130.07,0,0,130.07,147.04,129.955)"><stop offset=".24" stop-color="#fff" stop-opacity="1"/><stop offset=".25" stop-color="#fff" stop-opacity=".97"/><stop offset=".42" stop-color="#fff" stop-opacity=".68"/><stop offset=".57" stop-color="#fff" stop-opacity=".44"/><stop offset=".71" stop-color="#fff" stop-opacity=".25"/><stop offset=".83" stop-color="#fff" stop-opacity=".11"/><stop offset=".93" stop-color="#fff" stop-opacity=".03"/><stop offset="1" stop-color="#fff" stop-opacity="0"/></radialGradient><linearGradient id="g2" x2="1" href="#P" gradientTransform="matrix(23.675,0,0,23.654,258.042,107.942)"><stop stop-color="#acd9fb" stop-opacity=".4"/><stop offset=".24" stop-color="#c2e3fc" stop-opacity=".57"/><stop offset=".61" stop-color="#e3f2fd" stop-opacity=".8"/><stop offset=".87" stop-color="#f7fbfe" stop-opacity=".94"/><stop offset="1" stop-color="#fff" stop-opacity="1"/></linearGradient><linearGradient id="g3" x2="1" href="#P" gradientTransform="matrix(0,-22.084,22.111,0,31.175,165.279)"><stop stop-color="#acd9fb" stop-opacity=".4"/><stop offset=".24" stop-color="#c2e3fc" stop-opacity=".57"/><stop offset=".61" stop-color="#e3f2fd" stop-opacity=".8"/><stop offset=".87" stop-color="#f7fbfe" stop-opacity=".94"/><stop offset="1" stop-color="#fff" stop-opacity="1"/></linearGradient><linearGradient id="g4" x2="1" href="#P" gradientTransform="matrix(0,-50.427,50.471,0,65.423,221.453)"><stop stop-color="#acd9fb" stop-opacity=".4"/><stop offset=".24" stop-color="#c2e3fc" stop-opacity=".57"/><stop offset=".61" stop-color="#e3f2fd" stop-opacity=".8"/><stop offset=".87" stop-color="#f7fbfe" stop-opacity=".94"/><stop offset="1" stop-color="#fff" stop-opacity="1"/></linearGradient><linearGradient id="g5" x2="1" href="#P" gradientTransform="matrix(0,-59.128,59.18,0,219.893,73.548)"><stop stop-color="#acd9fb" stop-opacity=".4"/><stop offset=".24" stop-color="#c2e3fc" stop-opacity=".57"/><stop offset=".61" stop-color="#e3f2fd" stop-opacity=".8"/><stop offset=".87" stop-color="#f7fbfe" stop-opacity=".94"/><stop offset="1" stop-color="#fff" stop-opacity="1"/></linearGradient><linearGradient id="g6" x2="1" href="#P" gradientTransform="matrix(-12.222,61.178,-50.055,-10,65.885,15.854)"><stop stop-color="#acd9fb" stop-opacity=".4"/><stop offset=".24" stop-color="#c2e3fc" stop-opacity=".57"/><stop offset=".61" stop-color="#e3f2fd" stop-opacity=".8"/><stop offset=".87" stop-color="#f7fbfe" stop-opacity=".94"/><stop offset="1" stop-color="#fff" stop-opacity="1"/></linearGradient><linearGradient id="g7" x2="1" href="#P" gradientTransform="matrix(-9.504,47.546,-53.96,-10.786,64.207,23.491)"><stop stop-color="#acd9fb" stop-opacity=".4"/><stop offset=".24" stop-color="#c2e3fc" stop-opacity=".57"/><stop offset=".61" stop-color="#e3f2fd" stop-opacity=".8"/><stop offset=".87" stop-color="#f7fbfe" stop-opacity=".94"/><stop offset="1" stop-color="#fff" stop-opacity="1"/></linearGradient><linearGradient id="g8" x2="1" href="#P" gradientTransform="matrix(-10.675,53.414,-43.706,-8.735,261.078,160.648)"><stop stop-color="#acd9fb" stop-opacity=".4"/><stop offset=".24" stop-color="#c2e3fc" stop-opacity=".57"/><stop offset=".61" stop-color="#e3f2fd" stop-opacity=".8"/><stop offset=".87" stop-color="#f7fbfe" stop-opacity=".94"/><stop offset="1" stop-color="#fff" stop-opacity="1"/></linearGradient><linearGradient id="g9" x2="1" href="#P" gradientTransform="matrix(-8.297,41.507,-47.115,-9.418,259.613,167.319)"><stop stop-color="#acd9fb" stop-opacity=".4"/><stop offset=".24" stop-color="#c2e3fc" stop-opacity=".57"/><stop offset=".61" stop-color="#e3f2fd" stop-opacity=".8"/><stop offset=".87" stop-color="#f7fbfe" stop-opacity=".94"/><stop offset="1" stop-color="#fff" stop-opacity="1"/></linearGradient><linearGradient id="g10" x2="1" href="#P" gradientTransform="matrix(203,0,0,217.865,47.179,129.955)"><stop stop-color="#d0e7fd"/><stop offset=".06" stop-color="#d8eafc"/><stop offset=".28" stop-color="#f0f5fa"/><stop offset=".41" stop-color="#fafafa"/><stop offset=".52" stop-color="#f1f5fa"/><stop offset=".71" stop-color="#d9ebfc"/><stop offset=".77" stop-color="#d0e7fd"/><stop offset="1" stop-color="#fafafa"/></linearGradient><linearGradient id="g11" x2="1" href="#P" gradientTransform="matrix(198.258,0,0,212.786,49.547,129.955)"><stop stop-color="#add1f4"/><stop offset=".08" stop-color="#8cb4e3"/><stop offset=".2" stop-color="#5685c8"/><stop offset=".24" stop-color="#5c8aca"/><stop offset=".29" stop-color="#6d98d1"/><stop offset=".34" stop-color="#8ab0dd"/><stop offset=".4" stop-color="#b1d1ee"/><stop offset=".42" stop-color="#bfddf4"/><stop offset=".52" stop-color="#94bce2"/><stop offset=".63" stop-color="#6a9bd0"/><stop offset=".69" stop-color="#5a8fca"/><stop offset=".72" stop-color="#6899cf"/><stop offset=".79" stop-color="#8db6df"/><stop offset=".86" stop-color="#bfddf4"/><stop offset=".89" stop-color="#bbd9f2"/><stop offset=".92" stop-color="#afd0ed"/><stop offset=".94" stop-color="#9bc1e5"/><stop offset=".97" stop-color="#7facd9"/><stop offset="1" stop-color="#5a8fca"/></linearGradient><linearGradient id="g12" x2="1" href="#P" gradientTransform="matrix(193.665,0,0,207.85,51.843,0)"><stop stop-color="#add1f4"/><stop offset=".08" stop-color="#8cb4e3"/><stop offset=".2" stop-color="#5685c8"/><stop offset=".24" stop-color="#5c8aca"/><stop offset=".29" stop-color="#6d98d1"/><stop offset=".34" stop-color="#8ab0dd"/><stop offset=".4" stop-color="#b1d1ee"/><stop offset=".42" stop-color="#bfddf4"/><stop offset=".52" stop-color="#94bce2"/><stop offset=".63" stop-color="#6a9bd0"/><stop offset=".69" stop-color="#5a8fca"/><stop offset=".72" stop-color="#6899cf"/><stop offset=".79" stop-color="#8db6df"/><stop offset=".86" stop-color="#bfddf4"/><stop offset=".89" stop-color="#bbd9f2"/><stop offset=".92" stop-color="#afd0ed"/><stop offset=".94" stop-color="#9bc1e5"/><stop offset=".97" stop-color="#7facd9"/><stop offset="1" stop-color="#5a8fca"/></linearGradient><linearGradient id="g13" x2="1" href="#P" gradientTransform="matrix(179.773,0,0,192.947,58.789,0)"><stop stop-color="#d0e7fd"/><stop offset=".06" stop-color="#d8eafc"/><stop offset=".28" stop-color="#f0f5fa"/><stop offset=".41" stop-color="#fafafa"/><stop offset=".52" stop-color="#f1f5fa"/><stop offset=".71" stop-color="#d9ebfc"/><stop offset=".77" stop-color="#d0e7fd"/><stop offset="1" stop-color="#fafafa"/></linearGradient><linearGradient id="g14" x2="1" href="#P" gradientTransform="matrix(175.038,0,0,187.861,61.156,0)"><stop stop-color="#add1f4"/><stop offset=".08" stop-color="#8cb4e3"/><stop offset=".2" stop-color="#5685c8"/><stop offset=".24" stop-color="#5c8aca"/><stop offset=".29" stop-color="#6d98d1"/><stop offset=".34" stop-color="#8ab0dd"/><stop offset=".4" stop-color="#b1d1ee"/><stop offset=".42" stop-color="#bfddf4"/><stop offset=".52" stop-color="#94bce2"/><stop offset=".63" stop-color="#6a9bd0"/><stop offset=".69" stop-color="#5a8fca"/><stop offset=".72" stop-color="#6899cf"/><stop offset=".79" stop-color="#8db6df"/><stop offset=".86" stop-color="#bfddf4"/><stop offset=".89" stop-color="#bbd9f2"/><stop offset=".92" stop-color="#afd0ed"/><stop offset=".94" stop-color="#9bc1e5"/><stop offset=".97" stop-color="#7facd9"/><stop offset="1" stop-color="#5a8fca"/></linearGradient><linearGradient id="g15" x2="1" href="#P" gradientTransform="matrix(83.253,0,0,178.706,65.422,129.955)"><stop stop-color="#fafafa"/><stop offset=".45" stop-color="#bdddef"/><stop offset=".81" stop-color="#92c8e8"/><stop offset="1" stop-color="#82c1e6"/></linearGradient><linearGradient id="g16" x2="1" href="#P" gradientTransform="matrix(83.253,0,0,178.705,148.676,0)"><stop stop-color="#fafafa"/><stop offset=".45" stop-color="#bdddef"/><stop offset=".81" stop-color="#92c8e8"/><stop offset="1" stop-color="#82c1e6"/></linearGradient><linearGradient id="g17" x2="1" href="#P" gradientTransform="matrix(50.848,-98.382,159.296,82.331,127.517,153.31)"><stop stop-color="#fafafa" stop-opacity=".98"/><stop offset=".08" stop-color="#fafafa" stop-opacity=".78"/><stop offset=".16" stop-color="#fafafa" stop-opacity=".6"/><stop offset=".25" stop-color="#fafafa" stop-opacity=".44"/><stop offset=".34" stop-color="#fafafa" stop-opacity=".3"/><stop offset=".44" stop-color="#fafafa" stop-opacity=".19"/><stop offset=".54" stop-color="#fafafa" stop-opacity=".11"/><stop offset=".66" stop-color="#fafafa" stop-opacity=".05"/><stop offset=".79" stop-color="#fafafa" stop-opacity=".01"/><stop offset="1" stop-color="#fafafa" stop-opacity="0"/></linearGradient><linearGradient id="g18" x2="1" href="#P" gradientTransform="matrix(70.349,0,0,57.145,113.504,141.995)"><stop stop-color="#325abf"/><stop offset=".24" stop-color="#3662c5"/><stop offset=".64" stop-color="#437ad7"/><stop offset="1" stop-color="#5396ec"/></linearGradient><linearGradient id="g19" x2="1" href="#P" gradientTransform="matrix(61.953,0,0,50.32,117.698,141.996)"><stop stop-color="#add1f4"/><stop offset=".08" stop-color="#8cb4e3"/><stop offset=".2" stop-color="#5685c8"/><stop offset=".24" stop-color="#5c8aca"/><stop offset=".29" stop-color="#6d98d1"/><stop offset=".34" stop-color="#8ab0dd"/><stop offset=".4" stop-color="#b1d1ee"/><stop offset=".42" stop-color="#bfddf4"/><stop offset=".52" stop-color="#94bce2"/><stop offset=".63" stop-color="#6a9bd0"/><stop offset=".69" stop-color="#5a8fca"/><stop offset=".72" stop-color="#6899cf"/><stop offset=".79" stop-color="#8db6df"/><stop offset=".86" stop-color="#bfddf4"/><stop offset=".89" stop-color="#bbd9f2"/><stop offset=".92" stop-color="#afd0ed"/><stop offset=".94" stop-color="#9bc1e5"/><stop offset=".97" stop-color="#7facd9"/><stop offset="1" stop-color="#5a8fca"/></linearGradient><linearGradient id="g20" x2="1" href="#P" gradientTransform="matrix(46.916,0,0,34.616,125.221,96.123)"><stop stop-color="#325abf"/><stop offset=".24" stop-color="#3662c5"/><stop offset=".64" stop-color="#437ad7"/><stop offset="1" stop-color="#5396ec"/></linearGradient><linearGradient id="g21" x2="1" href="#P" gradientTransform="matrix(36.308,0,0,30.885,131.641,142.628)"><stop stop-color="#fafafa"/><stop offset=".45" stop-color="#bdddef"/><stop offset=".81" stop-color="#92c8e8"/><stop offset="1" stop-color="#82c1e6"/></linearGradient><linearGradient id="g22" x2="1" href="#P" gradientTransform="matrix(-51.178,-51.222,32.182,-32.154,235.48,141.486)"><stop stop-color="#acd9fb" stop-opacity=".4"/><stop offset=".24" stop-color="#c2e3fc" stop-opacity=".57"/><stop offset=".61" stop-color="#e3f2fd" stop-opacity=".8"/><stop offset=".87" stop-color="#f7fbfe" stop-opacity=".94"/><stop offset="1" stop-color="#fff" stop-opacity="1"/></linearGradient></defs><style>.a{mix-blend-mode:screen;fill:url(#g1)}.b{fill:url(#g2)}.c{fill:url(#g3)}.d{fill:url(#g4)}.e{fill:url(#g5)}.f{fill:url(#g6)}.g{fill:url(#g7)}.h{fill:url(#g8)}.i{fill:url(#g9)}.j{fill:url(#g10)}.k{fill:url(#g11)}.l{mix-blend-mode:multiply;fill:url(#g12)}.m{fill:url(#g13)}.n{mix-blend-mode:multiply;fill:url(#g14)}.o{fill:url(#g15)}.p{fill:url(#g16)}.q{mix-blend-mode:screen;fill:url(#g17)}.r{opacity:.43;mix-blend-mode:multiply;fill:url(#g18)}.s{mix-blend-mode:multiply;fill:url(#g19)}.t{mix-blend-mode:multiply;fill:url(#g20)}.u{mix-blend-mode:multiply;fill:url(#g21)}.v{fill:url(#g22)}</style><path class="a" d="m147 259.9c71.9 0 130.1-58.2 130.1-129.9 0-71.8-58.2-130-130.1-130-71.8 0-130 58.2-130 130 0 71.7 58.2 129.9 130 129.9z"/><path class="b" d="m280.4 119.8c-0.7 0-1.3-0.6-1.3-1.3 0-10.9-8.8-19.8-19.8-19.8-0.7 0-1.3-0.6-1.3-1.3 0-0.7 0.6-1.3 1.3-1.3 12.4 0 22.4 10 22.4 22.4 0 0.7-0.6 1.3-1.3 1.3zm-5-1.3c0-8.9-7.2-16.1-16.1-16.1-0.7 0-1.3 0.6-1.3 1.3 0 0.7 0.6 1.3 1.3 1.3 7.5 0 13.5 6.1 13.5 13.5 0 0.7 0.6 1.3 1.3 1.3 0.7 0 1.3-0.6 1.3-1.3zm-6.3 0c0-5.4-4.4-9.7-9.8-9.7-0.7 0-1.3 0.5-1.3 1.3 0 0.7 0.6 1.2 1.3 1.2 4 0 7.2 3.2 7.2 7.2 0 0.7 0.6 1.3 1.3 1.3 0.7 0 1.3-0.6 1.3-1.3z"/><path class="c" d="m42.2 144.4c0 0.7-0.5 1.2-1.2 1.2-10.2 0-18.5 8.3-18.5 18.5 0 0.6-0.5 1.2-1.2 1.2-0.6 0-1.2-0.6-1.2-1.2 0-11.5 9.4-20.9 20.9-20.9 0.7 0 1.2 0.5 1.2 1.2zm-1.2 4.7c-8.2 0-15 6.7-15 15 0 0.6 0.6 1.2 1.2 1.2 0.7 0 1.2-0.6 1.2-1.2 0-7 5.7-12.6 12.6-12.6 0.7 0 1.2-0.5 1.2-1.2 0-0.7-0.5-1.2-1.2-1.2zm0 5.9c-5 0-9 4.1-9 9.1 0 0.6 0.5 1.2 1.2 1.2 0.6 0 1.2-0.6 1.2-1.2 0-3.7 2.9-6.7 6.6-6.7 0.7 0 1.2-0.5 1.2-1.2 0-0.7-0.5-1.2-1.2-1.2z"/><path class="d" d="m65.4 171c-13.9 0-25.2 11.3-25.2 25.2 0 14 11.3 25.3 25.2 25.3 13.9 0 25.3-11.3 25.3-25.3 0-13.9-11.4-25.2-25.3-25.2zm0 48.6c-2.9 0-5.9-4.6-7.5-12.1 2.2-0.3 4.7-0.5 7.5-0.5 2.8 0 5.4 0.2 7.6 0.5-1.6 7.5-4.7 12.1-7.6 12.1zm0-14.5c-2.9 0-5.6 0.2-7.9 0.5-0.4-2.5-0.7-5.4-0.7-8.4h17.2c0 3-0.3 5.9-0.7 8.4-2.3-0.3-4.9-0.5-7.9-0.5zm0-32.2c2.9 0 6 4.6 7.6 12.1-2.2 0.3-4.8 0.5-7.6 0.5-2.8 0-5.3-0.2-7.5-0.5 1.6-7.5 4.6-12.1 7.5-12.1zm0 14.5c3 0 5.6-0.2 7.9-0.5 0.4 2.5 0.7 5.3 0.7 8.4h-17.2c0-3.1 0.3-5.9 0.7-8.4 2.3 0.3 5 0.5 7.9 0.5zm-10.5 7.9h-12.8c0.2-4.3 1.5-8.3 3.7-11.6 1.4 0.7 4.6 2.1 9.9 2.9-0.5 2.7-0.7 5.6-0.8 8.7zm0 1.9c0 3.1 0.3 6 0.8 8.7-5.3 0.8-8.5 2.2-9.9 2.9-2.2-3.3-3.5-7.3-3.7-11.6zm21.1 0h12.7c-0.1 4.3-1.5 8.3-3.6 11.6-1.4-0.7-4.7-2.1-9.9-2.9 0.4-2.7 0.7-5.6 0.8-8.7zm0-1.9c-0.1-3.1-0.4-6-0.8-8.7 5.2-0.8 8.5-2.2 9.9-2.9 2.1 3.3 3.5 7.3 3.6 11.6zm8-13.2c-1.4 0.6-4.4 1.9-9.1 2.6-1-5-2.7-9-4.9-11.3 5.7 1.1 10.6 4.3 14 8.7zm-23-8.7c-2.1 2.3-3.8 6.3-4.9 11.3-4.7-0.7-7.7-2-9.1-2.6 3.4-4.4 8.4-7.6 14-8.7zm-14 37c1.4-0.6 4.4-1.9 9.1-2.6 1.1 5 2.8 9 4.9 11.3-5.6-1.1-10.6-4.3-14-8.7zm23 8.7c2.2-2.3 3.9-6.3 4.9-11.3 4.7 0.7 7.7 2 9.1 2.6-3.4 4.4-8.3 7.6-14 8.7z"/><path class="e" d="m219.9 14.4c-16.3 0-29.6 13.3-29.6 29.6 0 16.3 13.3 29.5 29.6 29.5 16.3 0 29.6-13.2 29.6-29.5 0-16.3-13.3-29.6-29.6-29.6zm0 56.9c-3.4 0-7-5.3-8.8-14.1 2.5-0.4 5.5-0.6 8.8-0.6 3.3 0 6.2 0.2 8.8 0.6-1.8 8.8-5.4 14.1-8.8 14.1zm0-16.9c-3.5 0-6.6 0.2-9.3 0.5-0.4-2.9-0.8-6.2-0.8-9.8h20.2c0 3.6-0.4 6.9-0.8 9.8-2.7-0.3-5.8-0.5-9.3-0.5zm0-37.7c3.4 0 7 5.3 8.8 14.1-2.5 0.3-5.5 0.6-8.8 0.6-3.3 0-6.2-0.3-8.8-0.6 1.8-8.8 5.4-14.1 8.8-14.1zm0 16.9c3.5 0 6.6-0.2 9.3-0.6 0.4 3 0.8 6.3 0.8 9.9h-20.2c0-3.6 0.4-6.9 0.8-9.9 2.7 0.4 5.8 0.6 9.3 0.6zm-12.3 9.3h-15c0.2-5 1.7-9.7 4.3-13.7 1.6 0.9 5.4 2.5 11.5 3.5-0.5 3.1-0.8 6.6-0.8 10.2zm0 2.2c0 3.6 0.3 7 0.8 10.2-6.1 1-9.9 2.6-11.5 3.4-2.6-3.9-4.1-8.6-4.3-13.6zm24.6 0h15c-0.2 5-1.7 9.7-4.3 13.6-1.6-0.8-5.4-2.4-11.6-3.4 0.6-3.2 0.9-6.6 0.9-10.2zm0-2.2c0-3.6-0.3-7.1-0.9-10.2 6.2-1 10-2.7 11.6-3.5 2.6 4 4.1 8.7 4.3 13.7zm9.4-15.5c-1.6 0.8-5.2 2.2-10.7 3.1-1.2-5.9-3.2-10.6-5.7-13.3 6.6 1.3 12.4 5 16.4 10.2zm-27-10.2c-2.5 2.7-4.5 7.4-5.7 13.3-5.5-0.9-9.1-2.3-10.7-3.1 4-5.2 9.8-8.9 16.4-10.2zm-16.4 43.4c1.6-0.8 5.2-2.2 10.7-3.1 1.2 5.8 3.2 10.5 5.7 13.3-6.6-1.3-12.4-5-16.4-10.2zm27 10.2c2.5-2.8 4.5-7.5 5.7-13.3 5.5 0.9 9.1 2.3 10.7 3.1-4 5.2-9.8 8.9-16.4 10.2z"/><path class="f" d="m75.4 35.8h-2v-6.8c0-8.1-6.5-14.6-14.6-14.6-8.1 0-14.6 6.5-14.6 14.6v6.8h-2c-2.2 0-4 1.8-4 4v23.1c0 2.2 1.8 3.9 4 3.9h33.2c2.2 0 4-1.7 4-3.9v-23.1c0-2.2-1.8-4-4-4zm-29.6-6.8c0-7.2 5.8-13 13-13 7.1 0 12.9 5.8 12.9 13v6.8h-4.4v-6.8c0-4.7-3.8-8.5-8.5-8.5-4.7 0-8.5 3.8-8.5 8.5v6.8h-4.5v-6.8zm19.8 6.8h-13.6v-6.8c0-3.8 3-6.8 6.8-6.8 3.7 0 6.8 3 6.8 6.8zm12.1 27.1c0 1.2-1 2.3-2.3 2.3h-33.2c-1.3 0-2.3-1.1-2.3-2.3v-23.1c0-1.3 1-2.4 2.3-2.4h33.2c1.3 0 2.3 1.1 2.3 2.4z"/><path class="g" d="m69.1 45.7l-10.6 13-9-8.8 2.1-2.1 6.7 6.5 8.6-10.5z"/><path class="h" d="m269.4 178h-1.8v-5.9c0-7-5.7-12.7-12.7-12.7-7.1 0-12.8 5.7-12.8 12.7v5.9h-1.7c-1.9 0-3.5 1.6-3.5 3.5v20.2c0 1.9 1.6 3.5 3.5 3.5h29c1.9 0 3.5-1.6 3.5-3.5v-20.2c0-1.9-1.6-3.5-3.5-3.5zm-25.8-5.9c0-6.2 5-11.3 11.3-11.3 6.2 0 11.3 5.1 11.3 11.3v5.9h-3.9v-5.9c0-4.1-3.3-7.4-7.4-7.4-4.1 0-7.4 3.3-7.4 7.4v5.9h-3.9v-5.9zm17.2 5.9h-11.9v-5.9c0-3.3 2.7-5.9 6-5.9 3.2 0 5.9 2.6 5.9 5.9v5.9zm10.6 23.7c0 1.1-0.9 2-2 2h-29c-1.1 0-2-0.9-2-2v-20.2c0-1.1 0.9-2 2-2h29c1.1 0 2 0.9 2 2z"/><path class="i" d="m263.9 186.7l-9.2 11.3-7.9-7.6 1.8-1.9 5.8 5.7 7.5-9.2 2 1.7z"/><path class="j" d="m148.7 21c-41.5 2.1-76.9 30.5-101.5 56.9 0 152 101.5 161 101.5 161 0 0 101.5-9 101.5-161-24.7-26.4-60-54.8-101.5-56.9z"/><path class="k" d="m148.7 23.6c-40.6 2-75.1 29.8-99.2 55.5 0 148.5 99.2 157.2 99.2 157.2 0 0 99.1-8.7 99.1-157.2-24.1-25.7-58.6-53.5-99.1-55.5z"/><path class="l" d="m148.7 26c-39.6 2.1-73.3 29.1-96.9 54.3 0 145 96.9 153.6 96.9 153.6 0 0 96.8-8.6 96.8-153.6-23.5-25.2-57.2-52.2-96.8-54.3z"/><path class="m" d="m148.7 33.5c-36.8 1.9-68.1 27-89.9 50.4 0 134.6 89.9 142.5 89.9 142.5 0 0 89.9-7.9 89.9-142.5-21.9-23.4-53.2-48.5-89.9-50.4z"/><path class="n" d="m148.7 36c-35.8 1.8-66.3 26.3-87.5 49.1 0 131 87.5 138.8 87.5 138.8 0 0 87.5-7.8 87.5-138.8-21.3-22.8-51.7-47.2-87.5-49.1z"/><path class="o" d="m148.7 219.3v-178.7c-34.1 1.7-63.1 25-83.3 46.7 0 124.6 83.3 132 83.3 132z"/><path class="p" d="m148.7 219.3v-178.7c34 1.7 63 25 83.2 46.7 0 124.6-83.2 132-83.2 132z"/><path class="q" d="m127.8 138.6c43.7 22.9 81.9 29.8 83.6 29.9 10-18.4 17-43.9 17-79.4-19.4-20.8-47.1-43.1-79.7-44.7-32.6 1.6-60.4 23.9-79.8 44.7 0 9.8 32.5 35.6 58.9 49.5z"/><path class="r" d="m176.1 113.4h-54.9c-4.2 0-7.7 3.5-7.7 7.8v41.6c0 4.3 3.5 7.8 7.7 7.8h54.9c4.3 0 7.7-3.5 7.7-7.8v-41.6c0-4.3-3.4-7.8-7.7-7.8z"/><path class="s" d="m172.8 116.8h-48.3c-3.8 0-6.8 3.1-6.8 6.8v36.8c0 3.7 3 6.8 6.8 6.8h48.3c3.8 0 6.9-3.1 6.9-6.8v-36.8c0-3.7-3.1-6.8-6.9-6.8z"/><g style="opacity:.43"><path class="t" d="m172.1 113.4h-8.7v-11.2c0-8.1-6.6-14.6-14.7-14.6-8.1 0-14.7 6.5-14.7 14.6v11.2h-8.8v-11.2c0-12.9 10.5-23.4 23.5-23.4 12.9 0 23.4 10.5 23.4 23.4z"/></g><path class="u" d="m147.9 158.1l-16.3-15 6.8-7.4 8.5 7.8 13.3-16.3 7.7 6.3z"/><path class="v" d="m240.7 136.2l-10.5 10.5c-0.5 0.6-1.4 0.6-1.9 0l-18.8-18.7-7.4 10c-0.3 0.5-0.8 0.7-1.3 0.6-0.5-0.1-0.9-0.4-1.1-0.9l-15.8-46c-0.1-0.5 0-1 0.4-1.4 0.3-0.4 0.9-0.5 1.4-0.3l46 15.7c0.4 0.2 0.8 0.6 0.9 1.1 0.1 0.5-0.2 1-0.6 1.3l-10 7.5 18.7 18.7c0.6 0.5 0.6 1.4 0 1.9zm-11.5 7.6l8.6-8.6-18.9-18.8c-0.2-0.3-0.4-0.7-0.4-1.1 0.1-0.4 0.3-0.8 0.6-1l9.2-6.8-40.9-14 14 40.8 6.9-9.2c0.2-0.3 0.6-0.5 1-0.6 0.4 0 0.8 0.2 1.1 0.4l18.9 18.9z"/></svg>