<svg width="18" height="18" viewBox="0 0 18 18" fill="none" xmlns="http://www.w3.org/2000/svg">
<g clip-path="url(#clip0_2064_8060)">
<path d="M9.00043 0C4.30394 0 0.500003 3.90006 0.500003 8.71521C0.498464 10.5448 1.05912 12.3284 2.10238 13.8127C3.14563 15.2971 4.61846 16.4068 6.31174 16.9842C6.73676 17.06 6.89657 16.7986 6.89657 16.5694C6.89657 16.3628 6.88552 15.6769 6.88552 14.9466C4.75021 15.3501 4.19769 14.4132 4.02768 13.9225C3.93162 13.6716 3.51765 12.8985 3.15639 12.6911C2.85887 12.5281 2.43385 12.1246 3.14533 12.1141C3.81517 12.1028 4.29289 12.746 4.4527 13.0075C5.21774 14.3252 6.43925 13.9548 6.92802 13.7265C7.00283 13.16 7.22554 12.7791 7.47035 12.5612C5.57901 12.3434 3.60266 11.5912 3.60266 8.25766C3.60266 7.30945 3.93162 6.52595 4.47395 5.91588C4.38895 5.698 4.09143 4.8047 4.55896 3.60635C4.55896 3.60635 5.27044 3.37714 6.89657 4.49879C7.58864 4.30239 8.30359 4.20358 9.02168 4.20509C9.74421 4.20509 10.4667 4.3027 11.1468 4.49879C12.7729 3.36581 13.4844 3.60635 13.4844 3.60635C13.9519 4.8047 13.6544 5.698 13.5694 5.91588C14.1109 6.52595 14.4407 7.29899 14.4407 8.25766C14.4407 11.6026 12.4541 12.3434 10.5628 12.5612C10.8705 12.8331 11.1366 13.3561 11.1366 14.1735C11.1366 15.3388 11.1255 16.2757 11.1255 16.5702C11.1255 16.7986 11.2853 17.0705 11.7104 16.9833C13.3973 16.3986 14.863 15.2866 15.9015 13.8035C16.9401 12.3204 17.4991 10.5409 17.5 8.71521C17.5 3.90006 13.6961 0 8.99958 0" fill="black"/>
</g>
<defs>
<clipPath id="clip0_2064_8060">
<rect width="18" height="18" fill="white"/>
</clipPath>
</defs>
</svg>
