<svg width="18" height="18" viewBox="0 0 18 18" fill="none" xmlns="http://www.w3.org/2000/svg">
<g clip-path="url(#clip0_2064_8049)">
<path d="M6.27029 0.592441C4.47181 1.21635 2.92081 2.40055 1.84509 3.9711C0.769378 5.54165 0.225656 7.41577 0.29379 9.31817C0.361924 11.2206 1.03832 13.051 2.22364 14.5406C3.40895 16.0301 5.04069 17.1004 6.8792 17.594C8.36972 17.9786 9.93134 17.9955 11.4298 17.6432C12.7873 17.3383 14.0423 16.6861 15.072 15.7504C16.1437 14.7468 16.9216 13.4701 17.322 12.0576C17.7573 10.5215 17.8347 8.9061 17.5484 7.33541H9.17842V10.8074H14.0258C13.9289 11.3612 13.7213 11.8897 13.4154 12.3614C13.1095 12.8331 12.7116 13.2382 12.2455 13.5524C11.6535 13.944 10.9863 14.2074 10.2865 14.3259C9.58475 14.4564 8.8649 14.4564 8.16311 14.3259C7.45181 14.1788 6.77893 13.8852 6.18732 13.4638C5.23691 12.7911 4.52328 11.8353 4.14826 10.7329C3.76691 9.60987 3.76691 8.39235 4.14826 7.26932C4.41521 6.48212 4.8565 5.76538 5.4392 5.1726C6.10603 4.48177 6.95026 3.98797 7.87926 3.74536C8.80826 3.50275 9.78614 3.52072 10.7056 3.79728C11.4239 4.01777 12.0807 4.40301 12.6237 4.92228C13.1703 4.37853 13.7159 3.83338 14.2606 3.28682C14.5419 2.99291 14.8484 2.71307 15.1254 2.41213C14.2966 1.64077 13.3236 1.04055 12.2623 0.645878C10.3297 -0.055855 8.21511 -0.0747134 6.27029 0.592441Z" fill="white"/>
<path d="M6.27053 0.592147C8.21518 -0.07546 10.3298 -0.057098 12.2626 0.644179C13.324 1.04153 14.2965 1.64464 15.1243 2.41887C14.843 2.7198 14.5463 3.00105 14.2594 3.29355C13.7138 3.83824 13.1687 4.38105 12.624 4.92199C12.0809 4.40272 11.4241 4.01748 10.7058 3.79699C9.78668 3.51945 8.80883 3.50045 7.87959 3.74207C6.95034 3.98368 6.10559 4.47658 5.43803 5.16668C4.85532 5.75946 4.41403 6.4762 4.14709 7.2634L1.23193 5.00637C2.27538 2.93716 4.08205 1.35437 6.27053 0.592147Z" fill="#E33629"/>
<path d="M0.458551 7.2418C0.615237 6.46526 0.875368 5.71324 1.23199 5.00586L4.14714 7.26852C3.76579 8.39156 3.76579 9.60907 4.14714 10.7321C3.17589 11.4821 2.20418 12.2359 1.23199 12.9934C0.339231 11.2163 0.066956 9.19157 0.458551 7.2418Z" fill="#F8BD00"/>
<path d="M9.17836 7.33398H17.5484C17.8347 8.90467 17.7572 10.5201 17.322 12.0562C16.9215 13.4687 16.1436 14.7454 15.072 15.749C14.1312 15.0149 13.1862 14.2865 12.2454 13.5524C12.7118 13.2378 13.1099 12.8323 13.4158 12.3601C13.7217 11.8879 13.9292 11.3589 14.0257 10.8046H9.17836C9.17695 9.64867 9.17836 8.49133 9.17836 7.33398Z" fill="#587DBD"/>
<path d="M1.23047 12.9937C2.20266 12.2437 3.17437 11.4899 4.14562 10.7324C4.52139 11.8352 5.23604 12.791 6.1875 13.4634C6.78095 13.8828 7.45528 14.174 8.1675 14.3184C8.8693 14.4489 9.58914 14.4489 10.2909 14.3184C10.9907 14.1999 11.6579 13.9365 12.2498 13.5449C13.1906 14.279 14.1356 15.0074 15.0764 15.7415C14.0469 16.6777 12.7918 17.3304 11.4342 17.6357C9.93573 17.988 8.37411 17.9711 6.88359 17.5865C5.70474 17.2717 4.60361 16.7169 3.64922 15.9566C2.63905 15.1546 1.814 14.1439 1.23047 12.9937Z" fill="#319F43"/>
</g>
<defs>
<clipPath id="clip0_2064_8049">
<rect width="18" height="18" fill="white"/>
</clipPath>
</defs>
</svg>
