<svg width="565" height="143" viewBox="0 0 565 143" fill="none" xmlns="http://www.w3.org/2000/svg">
<path d="M2.03 -1.66893e-06H12.04V29.33C12.04 34.23 12.7867 37.8467 14.28 40.18C15.82 42.5133 18.76 43.68 23.1 43.68C27.44 43.68 30.3333 42.5367 31.78 40.25C33.2733 37.9167 34.02 34.2767 34.02 29.33V-1.66893e-06H44.03V29.26C44.03 37.52 42.42 43.33 39.2 46.69C35.98 50.0033 30.6133 51.66 23.1 51.66C15.54 51.66 10.1267 50.0033 6.86 46.69C3.64 43.33 2.03 37.52 2.03 29.26V-1.66893e-06ZM61.5371 13.09V18.06C63.7304 14.1867 67.3704 12.25 72.4571 12.25C81.1371 12.25 85.4771 17.1733 85.4771 27.02V50.75H75.8171V29.12C75.8171 26.32 75.3504 24.1033 74.4171 22.47C73.5304 20.8367 71.8271 20.02 69.3071 20.02C66.3671 20.02 64.3371 21.0233 63.2171 23.03C62.0971 25.0367 61.5371 27.7433 61.5371 31.15V50.75H51.8771V13.09H61.5371ZM110.026 12.25C114.273 12.25 118.006 13.44 121.226 15.82C124.493 18.1533 126.453 21.5367 127.106 25.97H117.866C117.493 24.15 116.56 22.6567 115.066 21.49C113.573 20.3233 111.893 19.74 110.026 19.74C107.413 19.74 105.243 20.8133 103.516 22.96C101.836 25.1067 100.996 28.07 100.996 31.85C100.996 35.7233 101.836 38.7567 103.516 40.95C105.196 43.0967 107.39 44.17 110.096 44.17C111.916 44.17 113.573 43.6567 115.066 42.63C116.56 41.6033 117.61 40.04 118.216 37.94H127.456C126.43 42.7467 124.283 46.2467 121.016 48.44C117.75 50.5867 113.946 51.66 109.606 51.66C104.053 51.66 99.573 49.84 96.1663 46.2C92.8063 42.5133 91.1263 37.7767 91.1263 31.99C91.1263 26.2033 92.8763 21.4667 96.3763 17.78C99.8763 14.0933 104.426 12.25 110.026 12.25ZM156.527 23.03C154.893 20.8833 152.7 19.81 149.947 19.81C147.193 19.81 144.977 20.8833 143.297 23.03C141.663 25.13 140.847 28.1167 140.847 31.99C140.847 35.8633 141.663 38.85 143.297 40.95C144.977 43.05 147.193 44.1 149.947 44.1C152.7 44.1 154.893 43.05 156.527 40.95C158.207 38.85 159.047 35.8633 159.047 31.99C159.047 28.1167 158.207 25.13 156.527 23.03ZM163.247 46.48C159.513 49.9333 155.08 51.66 149.947 51.66C144.813 51.66 140.38 49.9333 136.647 46.48C132.913 43.0267 131.047 38.1967 131.047 31.99C131.047 25.7367 132.913 20.8833 136.647 17.43C140.38 13.9767 144.813 12.25 149.947 12.25C155.08 12.25 159.513 13.9767 163.247 17.43C166.98 20.8833 168.847 25.7367 168.847 31.99C168.847 38.1967 166.98 43.0267 163.247 46.48ZM221.332 50.75V28.84C221.332 27.58 221.262 26.53 221.122 25.69C221.029 24.8033 220.796 23.8933 220.422 22.96C220.096 21.98 219.489 21.2567 218.602 20.79C217.762 20.2767 216.666 20.02 215.312 20.02C212.372 20.02 210.389 21.0233 209.362 23.03C208.336 25.0367 207.822 27.7433 207.822 31.15V50.75H198.162V28.84C198.162 27.58 198.092 26.53 197.952 25.69C197.859 24.8033 197.626 23.8933 197.252 22.96C196.926 21.98 196.319 21.2567 195.432 20.79C194.592 20.2767 193.496 20.02 192.142 20.02C189.202 20.02 187.219 21.0233 186.192 23.03C185.166 25.0367 184.652 27.7433 184.652 31.15V50.75H174.992V13.09H184.652V18.06C186.939 14.1867 190.439 12.25 195.152 12.25C200.099 12.25 203.669 14.3033 205.862 18.41C208.802 14.3033 212.932 12.25 218.252 12.25C226.746 12.25 230.992 17.1733 230.992 27.02V50.75H221.332ZM257.243 44.24C259.763 44.24 261.817 43.12 263.403 40.88C265.037 38.5933 265.853 35.63 265.853 31.99C265.853 28.35 265.037 25.3867 263.403 23.1C261.817 20.8133 259.763 19.67 257.243 19.67C254.583 19.67 252.437 20.7667 250.803 22.96C249.217 25.1533 248.423 28.14 248.423 31.92C248.423 35.7467 249.217 38.7567 250.803 40.95C252.39 43.1433 254.537 44.24 257.243 44.24ZM248.773 63H239.113V13.09H248.773V17.92C249.8 16.1467 251.27 14.77 253.183 13.79C255.097 12.7633 257.243 12.25 259.623 12.25C264.243 12.25 268.117 14.07 271.243 17.71C274.417 21.35 276.003 26.0867 276.003 31.92C276.003 37.8 274.417 42.56 271.243 46.2C268.07 49.84 264.173 51.66 259.553 51.66C254.56 51.66 250.967 49.77 248.773 45.99V63ZM303.808 13.3V22.4C302.875 22.26 301.545 22.19 299.818 22.19C297.205 22.19 295.222 22.8433 293.868 24.15C292.562 25.41 291.908 27.6967 291.908 31.01V50.75H282.248V13.09H291.768V19.67C293.775 15.33 297.088 13.16 301.708 13.16C302.268 13.16 302.968 13.2067 303.808 13.3ZM331.732 23.03C330.098 20.8833 327.905 19.81 325.152 19.81C322.398 19.81 320.182 20.8833 318.502 23.03C316.868 25.13 316.052 28.1167 316.052 31.99C316.052 35.8633 316.868 38.85 318.502 40.95C320.182 43.05 322.398 44.1 325.152 44.1C327.905 44.1 330.098 43.05 331.732 40.95C333.412 38.85 334.252 35.8633 334.252 31.99C334.252 28.1167 333.412 25.13 331.732 23.03ZM338.452 46.48C334.718 49.9333 330.285 51.66 325.152 51.66C320.018 51.66 315.585 49.9333 311.852 46.48C308.118 43.0267 306.252 38.1967 306.252 31.99C306.252 25.7367 308.118 20.8833 311.852 17.43C315.585 13.9767 320.018 12.25 325.152 12.25C330.285 12.25 334.718 13.9767 338.452 17.43C342.185 20.8833 344.052 25.7367 344.052 31.99C344.052 38.1967 342.185 43.0267 338.452 46.48ZM396.537 50.75V28.84C396.537 27.58 396.467 26.53 396.327 25.69C396.234 24.8033 396.001 23.8933 395.627 22.96C395.301 21.98 394.694 21.2567 393.807 20.79C392.967 20.2767 391.871 20.02 390.517 20.02C387.577 20.02 385.594 21.0233 384.567 23.03C383.541 25.0367 383.027 27.7433 383.027 31.15V50.75H373.367V28.84C373.367 27.58 373.297 26.53 373.157 25.69C373.064 24.8033 372.831 23.8933 372.457 22.96C372.131 21.98 371.524 21.2567 370.637 20.79C369.797 20.2767 368.701 20.02 367.347 20.02C364.407 20.02 362.424 21.0233 361.397 23.03C360.371 25.0367 359.857 27.7433 359.857 31.15V50.75H350.197V13.09H359.857V18.06C362.144 14.1867 365.644 12.25 370.357 12.25C375.304 12.25 378.874 14.3033 381.067 18.41C384.007 14.3033 388.137 12.25 393.457 12.25C401.951 12.25 406.197 17.1733 406.197 27.02V50.75H396.537ZM414.319 13.09H423.979V50.75H414.319V13.09ZM414.319 -1.66893e-06H423.979V8.96H414.319V-1.66893e-06ZM462.879 24.43H453.849C453.429 22.7967 452.519 21.49 451.119 20.51C449.765 19.53 447.992 19.04 445.799 19.04C443.979 19.04 442.509 19.3667 441.389 20.02C440.269 20.6733 439.709 21.56 439.709 22.68C439.709 24.8267 441.389 26.2733 444.749 27.02L449.789 28.14C452.029 28.6533 453.825 29.1433 455.179 29.61C456.579 30.03 458.002 30.66 459.449 31.5C460.895 32.34 461.945 33.4133 462.599 34.72C463.299 36.0267 463.649 37.6133 463.649 39.48C463.649 43.12 462.039 46.06 458.819 48.3C455.645 50.54 451.819 51.66 447.339 51.66C442.625 51.66 438.705 50.4933 435.579 48.16C432.452 45.78 430.655 42.49 430.189 38.29H439.499C439.779 40.2033 440.595 41.7433 441.949 42.91C443.302 44.0767 445.192 44.66 447.619 44.66C449.719 44.66 451.375 44.2867 452.589 43.54C453.802 42.7933 454.409 41.7433 454.409 40.39C454.409 39.13 453.872 38.1733 452.799 37.52C451.725 36.82 450.209 36.2367 448.249 35.77L442.649 34.58C438.822 33.7867 435.905 32.5267 433.899 30.8C431.892 29.0733 430.889 26.5767 430.889 23.31C430.889 20.0433 432.405 17.36 435.439 15.26C438.472 13.16 442.089 12.11 446.289 12.11C450.535 12.11 454.199 13.1367 457.279 15.19C460.405 17.2433 462.272 20.3233 462.879 24.43ZM469.69 13.09H479.35V50.75H469.69V13.09ZM469.69 -1.66893e-06H479.35V8.96H469.69V-1.66893e-06ZM497.67 13.09V18.06C499.863 14.1867 503.503 12.25 508.59 12.25C517.27 12.25 521.61 17.1733 521.61 27.02V50.75H511.95V29.12C511.95 26.32 511.483 24.1033 510.55 22.47C509.663 20.8367 507.96 20.02 505.44 20.02C502.5 20.02 500.47 21.0233 499.35 23.03C498.23 25.0367 497.67 27.7433 497.67 31.15V50.75H488.01V13.09H497.67ZM546.089 42.07C548.749 42.07 550.849 41.0433 552.389 38.99C553.976 36.9367 554.769 34.2067 554.769 30.8C554.769 27.44 553.976 24.7333 552.389 22.68C550.849 20.6267 548.749 19.6 546.089 19.6C543.616 19.6 541.539 20.6967 539.859 22.89C538.226 25.0367 537.409 27.6967 537.409 30.87C537.409 33.9967 538.226 36.6567 539.859 38.85C541.539 40.9967 543.616 42.07 546.089 42.07ZM554.419 13.09H564.009V46.97C564.009 52.9433 562.422 57.26 559.249 59.92C556.122 62.58 551.549 63.91 545.529 63.91C541.096 63.91 537.386 62.9767 534.399 61.11C531.459 59.29 529.686 56.3267 529.079 52.22H538.249C539.089 55.3 541.679 56.84 546.019 56.84C551.619 56.84 554.419 54.1567 554.419 48.79V43.75C552.179 47.53 548.586 49.42 543.639 49.42C538.972 49.42 535.076 47.6933 531.949 44.24C528.822 40.74 527.259 36.26 527.259 30.8C527.259 25.4333 528.799 21 531.879 17.5C535.006 14 538.926 12.25 543.639 12.25C545.972 12.25 548.142 12.7867 550.149 13.86C552.156 14.9333 553.579 16.31 554.419 17.99V13.09Z" fill="white"/>
<path d="M22.75 109.68L16.31 108.49C6.18333 106.39 1.12 101.49 1.12 93.79C1.12 90.57 2.17 87.8167 4.27 85.53C6.41667 83.1967 8.96 81.54 11.9 80.56C14.8867 79.58 18.0367 79.09 21.35 79.09C26.7167 79.09 31.3133 80.56 35.14 83.5C38.9667 86.3933 41.02 90.22 41.3 94.98H31.64C31.2667 92.2267 30.0533 90.22 28 88.96C25.9933 87.7 23.6367 87.07 20.93 87.07C18.27 87.07 15.96 87.6067 14 88.68C12.0867 89.7067 11.13 91.27 11.13 93.37C11.13 96.6833 13.4867 98.7833 18.2 99.67L24.85 100.86C27.23 101.327 29.3067 101.863 31.08 102.47C32.9 103.077 34.72 103.94 36.54 105.06C38.36 106.18 39.76 107.673 40.74 109.54C41.72 111.407 42.21 113.6 42.21 116.12C42.21 121.02 40.1567 124.847 36.05 127.6C31.99 130.307 27.1833 131.66 21.63 131.66C15.3767 131.66 10.3133 130.097 6.44 126.97C2.61333 123.797 0.466667 119.48 2.6077e-08 114.02H9.66C10.64 120.46 14.7467 123.68 21.98 123.68C24.64 123.68 26.9967 123.12 29.05 122C31.1033 120.88 32.13 119.083 32.13 116.61C32.13 114.603 31.3133 113.087 29.68 112.06C28.0467 110.987 25.7367 110.193 22.75 109.68ZM84.8931 114.58H57.103C57.383 117.66 58.4097 120.04 60.183 121.72C62.003 123.353 64.1497 124.17 66.623 124.17C70.1697 124.17 72.8064 122.723 74.533 119.83H84.473C83.3064 123.097 81.2297 125.897 78.243 128.23C75.2564 130.517 71.4064 131.66 66.693 131.66C60.813 131.66 56.1464 129.77 52.693 125.99C49.2397 122.163 47.513 117.427 47.513 111.78C47.513 106.133 49.263 101.467 52.763 97.78C56.3097 94.0933 60.8597 92.25 66.413 92.25C72.1997 92.25 76.773 94.3033 80.133 98.41C83.493 102.517 85.0797 107.907 84.8931 114.58ZM66.343 99.32C64.1964 99.32 62.2364 100.02 60.463 101.42C58.6897 102.82 57.6164 104.99 57.243 107.93H75.093C74.9997 104.99 74.0897 102.82 72.363 101.42C70.683 100.02 68.6764 99.32 66.343 99.32ZM108.591 92.25C112.837 92.25 116.571 93.44 119.791 95.82C123.057 98.1533 125.017 101.537 125.671 105.97H116.431C116.057 104.15 115.124 102.657 113.631 101.49C112.137 100.323 110.457 99.74 108.591 99.74C105.977 99.74 103.807 100.813 102.081 102.96C100.401 105.107 99.5608 108.07 99.5608 111.85C99.5608 115.723 100.401 118.757 102.081 120.95C103.761 123.097 105.954 124.17 108.661 124.17C110.481 124.17 112.137 123.657 113.631 122.63C115.124 121.603 116.174 120.04 116.781 117.94H126.021C124.994 122.747 122.847 126.247 119.581 128.44C116.314 130.587 112.511 131.66 108.171 131.66C102.617 131.66 98.1374 129.84 94.7308 126.2C91.3708 122.513 89.6908 117.777 89.6908 111.99C89.6908 106.203 91.4408 101.467 94.9408 97.78C98.4408 94.0933 102.991 92.25 108.591 92.25ZM154.959 130.75V125.78C153.886 127.693 152.369 129.163 150.409 130.19C148.496 131.17 146.349 131.66 143.969 131.66C135.523 131.66 131.299 126.737 131.299 116.89V93.09H140.959V114.79C140.959 117.73 141.356 119.993 142.149 121.58C142.989 123.12 144.646 123.89 147.119 123.89C150.059 123.89 152.089 122.887 153.209 120.88C154.376 118.873 154.959 116.143 154.959 112.69V93.09H164.619V130.75H154.959ZM194.843 93.3V102.4C193.91 102.26 192.58 102.19 190.853 102.19C188.24 102.19 186.257 102.843 184.903 104.15C183.597 105.41 182.943 107.697 182.943 111.01V130.75H173.283V93.09H182.803V99.67C184.81 95.33 188.123 93.16 192.743 93.16C193.303 93.16 194.003 93.2067 194.843 93.3ZM199.807 93.09H209.467V130.75H199.807V93.09ZM199.807 80H209.467V88.96H199.807V80ZM219.457 93.09V82.87H229.117V93.09H236.957V99.74H229.117V119.2C229.117 121.067 229.467 122.303 230.167 122.91C230.867 123.517 232.104 123.82 233.877 123.82H236.817V130.75H229.747C225.547 130.75 222.77 130.05 221.417 128.65C220.11 127.203 219.457 124.52 219.457 120.6V99.74H214.137V93.09H219.457ZM246.927 143H242.867V135.58H246.507C247.533 135.58 248.257 135.557 248.677 135.51C249.097 135.463 249.587 135.323 250.147 135.09C250.753 134.857 251.243 134.46 251.617 133.9C251.99 133.387 252.387 132.64 252.807 131.66L253.227 130.61L238.807 93.09H249.377L257.917 120.25L266.667 93.09H276.467L262.677 129.63C260.437 135.51 258.407 139.197 256.587 140.69C254.813 142.23 251.593 143 246.927 143Z" fill="url(#paint0_linear_0_121)"/>
<defs>
<linearGradient id="paint0_linear_0_121" x1="-10.2574" y1="64.7356" x2="717.988" y2="64.7356" gradientUnits="userSpaceOnUse">
<stop stop-color="#27AE60"/>
<stop offset="1" stop-color="#0052CC"/>
</linearGradient>
</defs>
</svg>
