<svg width="530" height="132" viewBox="0 0 530 132" fill="none" xmlns="http://www.w3.org/2000/svg">
<path d="M0 50.7771L18.9101 -1.66982e-06H28.9955L47.9756 50.7771H37.1198L33.5479 40.4816H13.7974L10.2255 50.7771H0ZM23.6726 12.2565L16.6689 32.2872H30.6764L23.6726 12.2565ZM62.5133 -1.66982e-06V50.7771H52.4979V-1.66982e-06H62.5133ZM93.2903 36.2794H70.1079V27.8749H93.2903V36.2794ZM100.922 -1.66982e-06H118.291C120.719 -1.66982e-06 122.844 0.0933817 124.665 0.280148C126.486 0.420221 128.447 0.840446 130.548 1.54082C132.696 2.1945 134.447 3.10499 135.801 4.27228C137.155 5.39287 138.299 7.02708 139.233 9.17489C140.166 11.3227 140.633 13.8674 140.633 16.809C140.633 19.9373 140.05 22.5987 138.882 24.7932C137.715 26.941 136.058 28.5986 133.91 29.7659C131.809 30.8865 129.521 31.7036 127.046 32.2172C124.571 32.6841 121.747 32.9176 118.572 32.9176H110.938V50.7771H100.922V-1.66982e-06ZM118.502 7.84418H110.938V25.1434H119.202C122.704 25.1434 125.435 24.5598 127.396 23.3925C129.357 22.1785 130.338 20.0073 130.338 16.879C130.338 15.2915 130.081 13.9141 129.567 12.7468C129.101 11.5795 128.494 10.6924 127.747 10.0854C127.046 9.47839 126.112 9.01147 124.945 8.68463C123.824 8.3111 122.774 8.07764 121.793 7.98426C120.859 7.89087 119.762 7.84418 118.502 7.84418ZM167.184 23.0423C165.55 20.8945 163.355 19.8206 160.601 19.8206C157.846 19.8206 155.628 20.8945 153.947 23.0423C152.313 25.1434 151.496 28.1317 151.496 32.0071C151.496 35.8825 152.313 38.8707 153.947 40.9719C155.628 43.073 157.846 44.1235 160.601 44.1235C163.355 44.1235 165.55 43.073 167.184 40.9719C168.865 38.8707 169.705 35.8825 169.705 32.0071C169.705 28.1317 168.865 25.1434 167.184 23.0423ZM173.908 46.5048C170.172 49.96 165.737 51.6876 160.601 51.6876C155.465 51.6876 151.029 49.96 147.293 46.5048C143.558 43.0496 141.691 38.2171 141.691 32.0071C141.691 25.7504 143.558 20.8945 147.293 17.4393C151.029 13.9841 155.465 12.2565 160.601 12.2565C165.737 12.2565 170.172 13.9841 173.908 17.4393C177.643 20.8945 179.511 25.7504 179.511 32.0071C179.511 38.2171 177.643 43.0496 173.908 46.5048ZM196.297 39.1509L202.18 13.097H212.476L218.429 39.0808L223.472 13.097H233.067L224.172 50.7771H214.227L207.363 22.2018L200.429 50.7771H190.484L181.659 13.097H191.255L196.297 39.1509ZM272.726 34.5985H244.921C245.201 37.6801 246.229 40.0614 248.003 41.7423C249.824 43.3765 251.972 44.1936 254.446 44.1936C257.995 44.1936 260.633 42.7461 262.36 39.8513H272.306C271.139 43.1197 269.061 45.9212 266.072 48.2557C263.084 50.5436 259.232 51.6876 254.516 51.6876C248.633 51.6876 243.964 49.7966 240.509 46.0145C237.054 42.1858 235.326 37.4466 235.326 31.797C235.326 26.1473 237.077 21.4781 240.579 17.7895C244.127 14.1009 248.68 12.2565 254.236 12.2565C260.026 12.2565 264.602 14.311 267.963 18.4198C271.325 22.5287 272.913 27.9216 272.726 34.5985ZM254.166 19.3303C252.018 19.3303 250.057 20.0307 248.283 21.4314C246.509 22.8322 245.435 25.0033 245.061 27.9449H262.921C262.827 25.0033 261.917 22.8322 260.189 21.4314C258.508 20.0307 256.501 19.3303 254.166 19.3303ZM300.523 13.3071V22.412C299.589 22.2719 298.259 22.2018 296.531 22.2018C293.916 22.2018 291.932 22.8555 290.578 24.1629C289.271 25.4236 288.617 27.7114 288.617 31.0265V50.7771H278.952V13.097H288.477V19.6805C290.485 15.3382 293.8 13.167 298.422 13.167C298.982 13.167 299.683 13.2137 300.523 13.3071ZM340.438 34.5985H312.633C312.913 37.6801 313.94 40.0614 315.715 41.7423C317.536 43.3765 319.684 44.1936 322.158 44.1936C325.707 44.1936 328.345 42.7461 330.072 39.8513H340.018C338.85 43.1197 336.773 45.9212 333.784 48.2557C330.796 50.5436 326.944 51.6876 322.228 51.6876C316.345 51.6876 311.676 49.7966 308.221 46.0145C304.766 42.1858 303.038 37.4466 303.038 31.797C303.038 26.1473 304.789 21.4781 308.291 17.7895C311.839 14.1009 316.392 12.2565 321.948 12.2565C327.738 12.2565 332.314 14.311 335.675 18.4198C339.037 22.5287 340.625 27.9216 340.438 34.5985ZM321.878 19.3303C319.73 19.3303 317.769 20.0307 315.995 21.4314C314.221 22.8322 313.147 25.0033 312.773 27.9449H330.633C330.539 25.0033 329.629 22.8322 327.901 21.4314C326.22 20.0307 324.213 19.3303 321.878 19.3303ZM382.148 50.7771H372.483V46.0145C370.288 49.7966 366.67 51.6876 361.627 51.6876C357.004 51.6876 353.106 49.8666 349.931 46.2247C346.802 42.5827 345.238 37.8202 345.238 31.937C345.238 26.1006 346.802 21.3614 349.931 17.7194C353.106 14.0775 357.004 12.2565 361.627 12.2565C364.008 12.2565 366.156 12.7701 368.07 13.7974C369.985 14.7779 371.456 16.1553 372.483 17.9296V-1.66982e-06H382.148V50.7771ZM364.008 44.2636C366.716 44.2636 368.864 43.1664 370.452 40.9719C372.039 38.7774 372.833 35.7657 372.833 31.937C372.833 28.155 372.016 25.1668 370.382 22.9723C368.794 20.7777 366.67 19.6805 364.008 19.6805C361.487 19.6805 359.409 20.8244 357.775 23.1123C356.187 25.4002 355.394 28.3651 355.394 32.0071C355.394 35.649 356.187 38.6139 357.775 40.9018C359.409 43.143 361.487 44.2636 364.008 44.2636Z" fill="white"/>
<path d="M4.55243 130.82V80.0427H41.5322V88.167H14.5678V100.774H40.0614V108.898H14.5678V130.82H4.55243ZM67.4301 93.3498V102.455C66.4963 102.315 65.1656 102.245 63.438 102.245C60.8233 102.245 58.8389 102.898 57.4848 104.206C56.1774 105.466 55.5238 107.754 55.5238 111.069V130.82H45.8586V93.1397H55.3837V99.7232C57.3914 95.3809 60.7065 93.2097 65.329 93.2097C65.8893 93.2097 66.5897 93.2564 67.4301 93.3498ZM94.5608 116.392V113.591C88.8645 114.198 84.919 114.945 82.7245 115.832C80.53 116.719 79.4328 118.166 79.4328 120.174C79.4328 121.622 79.9931 122.812 81.1137 123.746C82.2343 124.68 83.8451 125.147 85.9462 125.147C91.6893 125.147 94.5608 122.229 94.5608 116.392ZM95.4013 126.127C92.7866 129.863 88.6777 131.73 83.0747 131.73C79.3394 131.73 76.141 130.726 73.4796 128.719C70.8182 126.664 69.4875 123.979 69.4875 120.664C69.4875 118.517 70.0478 116.672 71.1684 115.131C72.3356 113.591 74.0866 112.33 76.4212 111.349C78.7557 110.322 81.3004 109.528 84.0552 108.968C86.81 108.408 90.2185 107.894 94.2807 107.427V106.797C94.2807 101.568 91.9228 98.9528 87.2069 98.9528C85.2459 98.9528 83.6117 99.4664 82.3043 100.494C80.9969 101.521 80.2966 103.038 80.2032 105.046H71.1684C71.5419 101.217 73.1994 98.1123 76.141 95.7311C79.0826 93.3498 82.9346 92.1592 87.6972 92.1592C98.5296 92.1592 103.946 97.6921 103.946 108.758C103.946 108.945 103.922 110.275 103.876 112.75C103.829 115.178 103.806 117.046 103.806 118.353C103.806 123.629 104.179 127.785 104.926 130.82H96.0316C95.8915 130.213 95.6814 128.649 95.4013 126.127ZM135.18 130.82V125.847C134.106 127.761 132.588 129.232 130.627 130.259C128.713 131.24 126.565 131.73 124.184 131.73C115.733 131.73 111.507 126.804 111.507 116.952V93.1397H121.172V114.851C121.172 117.793 121.569 120.057 122.363 121.645C123.203 123.186 124.861 123.956 127.336 123.956C130.277 123.956 132.308 122.952 133.429 120.945C134.596 118.937 135.18 116.205 135.18 112.75V93.1397H144.845V130.82H135.18ZM187.972 130.82H178.307V126.057C176.112 129.839 172.494 131.73 167.451 131.73C162.829 131.73 158.93 129.909 155.755 126.267C152.627 122.625 151.062 117.863 151.062 111.98C151.062 106.143 152.627 101.404 155.755 97.7621C158.93 94.1202 162.829 92.2992 167.451 92.2992C169.832 92.2992 171.98 92.8128 173.895 93.8401C175.809 94.8206 177.28 96.198 178.307 97.9723V80.0427H187.972V130.82ZM169.832 124.306C172.541 124.306 174.688 123.209 176.276 121.015C177.863 118.82 178.657 115.808 178.657 111.98C178.657 108.198 177.84 105.209 176.206 103.015C174.618 100.82 172.494 99.7232 169.832 99.7232C167.311 99.7232 165.233 100.867 163.599 103.155C162.012 105.443 161.218 108.408 161.218 112.05C161.218 115.692 162.012 118.657 163.599 120.945C165.233 123.186 167.311 124.306 169.832 124.306ZM245.599 105.396C245.599 102.455 245.248 99.91 244.548 97.7621C243.848 95.6143 242.937 93.9101 241.817 92.6494C240.743 91.3887 239.365 90.4082 237.684 89.7079C236.05 88.9608 234.416 88.4705 232.782 88.2371C231.194 88.0036 229.373 87.8869 227.319 87.8869H222.696V122.976H227.319C229.934 122.976 232.198 122.765 234.112 122.345C236.074 121.925 237.988 121.131 239.856 119.964C241.723 118.797 243.147 116.999 244.128 114.571C245.108 112.143 245.599 109.085 245.599 105.396ZM212.681 80.0427H227.739C231.148 80.0427 234.206 80.2762 236.914 80.7431C239.622 81.21 242.19 82.0271 244.618 83.1944C247.046 84.3617 249.077 85.8791 250.711 87.7468C252.346 89.6145 253.63 92.0424 254.563 95.0307C255.497 98.019 255.964 101.474 255.964 105.396C255.964 109.318 255.497 112.773 254.563 115.762C253.63 118.75 252.346 121.201 250.711 123.116C249.077 124.983 247.046 126.501 244.618 127.668C242.19 128.835 239.622 129.652 236.914 130.119C234.206 130.586 231.148 130.82 227.739 130.82H212.681V80.0427ZM298.443 114.641H270.638C270.918 117.723 271.945 120.104 273.72 121.785C275.541 123.419 277.688 124.236 280.163 124.236C283.712 124.236 286.35 122.789 288.077 119.894H298.023C296.855 123.162 294.778 125.964 291.789 128.298C288.801 130.586 284.949 131.73 280.233 131.73C274.35 131.73 269.681 129.839 266.226 126.057C262.771 122.229 261.043 117.489 261.043 111.84C261.043 106.19 262.794 101.521 266.296 97.8322C269.844 94.1436 274.397 92.2992 279.953 92.2992C285.743 92.2992 290.319 94.3537 293.68 98.4625C297.042 102.571 298.63 107.964 298.443 114.641ZM279.883 99.373C277.735 99.373 275.774 100.073 274 101.474C272.226 102.875 271.152 105.046 270.778 107.988H288.638C288.544 105.046 287.634 102.875 285.906 101.474C284.225 100.073 282.218 99.373 279.883 99.373ZM305.999 93.1397V82.9142H315.664V93.1397H323.509V99.7932H315.664V119.264C315.664 121.131 316.015 122.369 316.715 122.976C317.415 123.583 318.653 123.886 320.427 123.886H323.369V130.82H316.295C312.092 130.82 309.314 130.119 307.96 128.719C306.653 127.271 305.999 124.586 305.999 120.664V99.7932H300.676V93.1397H305.999ZM364.65 114.641H336.845C337.125 117.723 338.153 120.104 339.927 121.785C341.748 123.419 343.896 124.236 346.37 124.236C349.919 124.236 352.557 122.789 354.285 119.894H364.23C363.063 123.162 360.985 125.964 357.997 128.298C355.008 130.586 351.156 131.73 346.44 131.73C340.557 131.73 335.888 129.839 332.433 126.057C328.978 122.229 327.25 117.489 327.25 111.84C327.25 106.19 329.001 101.521 332.503 97.8322C336.051 94.1436 340.604 92.2992 346.16 92.2992C351.95 92.2992 356.526 94.3537 359.888 98.4625C363.249 102.571 364.837 107.964 364.65 114.641ZM346.09 99.373C343.942 99.373 341.981 100.073 340.207 101.474C338.433 102.875 337.359 105.046 336.985 107.988H354.845C354.751 105.046 353.841 102.875 352.113 101.474C350.432 100.073 348.425 99.373 346.09 99.373ZM388.36 92.2992C392.609 92.2992 396.345 93.4899 399.566 95.8711C402.835 98.2057 404.796 101.591 405.45 106.027H396.205C395.831 104.206 394.897 102.711 393.403 101.544C391.909 100.377 390.228 99.7932 388.36 99.7932C385.746 99.7932 383.575 100.867 381.847 103.015C380.166 105.163 379.326 108.128 379.326 111.91C379.326 115.785 380.166 118.82 381.847 121.015C383.528 123.162 385.722 124.236 388.43 124.236C390.251 124.236 391.909 123.723 393.403 122.695C394.897 121.668 395.948 120.104 396.555 118.003H405.8C404.773 122.812 402.625 126.314 399.356 128.509C396.088 130.656 392.283 131.73 387.94 131.73C382.384 131.73 377.902 129.909 374.493 126.267C371.131 122.579 369.45 117.84 369.45 112.05C369.45 106.26 371.201 101.521 374.703 97.8322C378.205 94.1436 382.757 92.2992 388.36 92.2992ZM412.902 93.1397V82.9142H422.567V93.1397H430.411V99.7932H422.567V119.264C422.567 121.131 422.917 122.369 423.618 122.976C424.318 123.583 425.555 123.886 427.33 123.886H430.271V130.82H423.197C418.995 130.82 416.217 130.119 414.863 128.719C413.556 127.271 412.902 124.586 412.902 120.664V99.7932H407.579V93.1397H412.902ZM436.604 93.1397H446.269V130.82H436.604V93.1397ZM436.604 80.0427H446.269V89.0075H436.604V80.0427ZM477.906 103.085C476.272 100.937 474.078 99.8633 471.323 99.8633C468.568 99.8633 466.35 100.937 464.669 103.085C463.035 105.186 462.218 108.174 462.218 112.05C462.218 115.925 463.035 118.913 464.669 121.015C466.35 123.116 468.568 124.166 471.323 124.166C474.078 124.166 476.272 123.116 477.906 121.015C479.587 118.913 480.428 115.925 480.428 112.05C480.428 108.174 479.587 105.186 477.906 103.085ZM484.63 126.548C480.895 130.003 476.459 131.73 471.323 131.73C466.187 131.73 461.751 130.003 458.016 126.548C454.281 123.092 452.413 118.26 452.413 112.05C452.413 105.793 454.281 100.937 458.016 97.482C461.751 94.0268 466.187 92.2992 471.323 92.2992C476.459 92.2992 480.895 94.0268 484.63 97.482C488.365 100.937 490.233 105.793 490.233 112.05C490.233 118.26 488.365 123.092 484.63 126.548ZM506.047 93.1397V98.1123C508.242 94.2369 511.884 92.2992 516.973 92.2992C525.658 92.2992 530 97.2252 530 107.077V130.82H520.335V109.178C520.335 106.377 519.868 104.159 518.934 102.525C518.047 100.89 516.343 100.073 513.821 100.073C510.88 100.073 508.849 101.077 507.728 103.085C506.608 105.093 506.047 107.801 506.047 111.209V130.82H496.382V93.1397H506.047Z" fill="url(#paint0_linear_0_68)"/>
<defs>
<linearGradient id="paint0_linear_0_68" x1="-8.51193" y1="64.7701" x2="720.122" y2="64.7701" gradientUnits="userSpaceOnUse">
<stop stop-color="#27AE60"/>
<stop offset="1" stop-color="#0052CC"/>
</linearGradient>
</defs>
</svg>
