<svg width="614" height="145" viewBox="0 0 614 145" fill="none" xmlns="http://www.w3.org/2000/svg">
<path d="M24.8804 3.17482e-05C30.7208 3.17482e-05 35.58 1.51854 39.4581 4.55556C43.3361 7.59257 45.6956 11.5173 46.5366 16.3298H37.0051C36.2108 13.6199 34.7156 11.5641 32.5196 10.1624C30.3236 8.71393 27.7539 7.98972 24.8103 7.98972C20.4183 7.98972 16.914 9.53159 14.2975 12.6153C11.681 15.6991 10.3728 20.1845 10.3728 26.0717C10.3728 32.0055 11.6577 36.5844 14.2275 39.8083C16.7972 43.0322 20.3015 44.6442 24.7402 44.6442C27.9641 44.6442 30.8843 43.7564 33.5008 41.9809C36.1173 40.2055 37.4256 37.4721 37.4256 33.781V32.94H24.7402V24.74H46.6768V51.7228H38.7572L38.4769 45.7655C35.3464 50.3444 30.2536 52.6339 23.1983 52.6339C16.0497 52.6339 10.3961 50.251 6.23776 45.4852C2.07938 40.6727 0.000195748 34.2015 0.000195748 26.0717C0.000195748 18.1287 2.21955 11.7977 6.65827 7.07862C11.097 2.35956 17.171 3.17482e-05 24.8804 3.17482e-05ZM64.8726 0.911137V51.7228H55.2009V0.911137H64.8726ZM96.5313 23.9691C94.896 21.8198 92.7 20.7452 89.9433 20.7452C87.1867 20.7452 84.9673 21.8198 83.2853 23.9691C81.6499 26.0717 80.8323 29.0619 80.8323 32.94C80.8323 36.818 81.6499 39.8083 83.2853 41.9109C84.9673 44.0134 87.1867 45.0647 89.9433 45.0647C92.7 45.0647 94.896 44.0134 96.5313 41.9109C98.2134 39.8083 99.0544 36.818 99.0544 32.94C99.0544 29.0619 98.2134 26.0717 96.5313 23.9691ZM103.259 47.4476C99.5216 50.9051 95.0829 52.6339 89.9433 52.6339C84.8038 52.6339 80.3651 50.9051 76.6272 47.4476C72.8893 43.99 71.0204 39.1542 71.0204 32.94C71.0204 26.6791 72.8893 21.8198 76.6272 18.3623C80.3651 14.9048 84.8038 13.176 89.9433 13.176C95.0829 13.176 99.5216 14.9048 103.259 18.3623C106.997 21.8198 108.866 26.6791 108.866 32.94C108.866 39.1542 106.997 43.99 103.259 47.4476ZM133.172 45.2049C135.695 45.2049 137.75 44.0835 139.339 41.8408C140.974 39.5513 141.792 36.5844 141.792 32.94C141.792 29.2956 140.974 26.3286 139.339 24.0392C137.75 21.7497 135.695 20.605 133.172 20.605C130.508 20.605 128.359 21.703 126.724 23.899C125.135 26.095 124.341 29.0853 124.341 32.8699C124.341 36.7012 125.135 39.7149 126.724 41.9109C128.312 44.1069 130.462 45.2049 133.172 45.2049ZM124.691 51.7228H115.02V0.911137H124.691V18.8529C125.719 17.0774 127.191 15.6991 129.107 14.7179C131.022 13.69 133.172 13.176 135.554 13.176C140.18 13.176 144.058 14.9982 147.189 18.6426C150.366 22.2871 151.954 27.0295 151.954 32.8699C151.954 38.757 150.366 43.5228 147.189 47.1672C144.058 50.8117 140.18 52.6339 135.554 52.6339C130.508 52.6339 126.887 50.7416 124.691 46.957V51.7228ZM181.413 37.2853V34.4819C175.713 35.0893 171.765 35.8368 169.569 36.7246C167.373 37.6123 166.275 39.0607 166.275 41.0698C166.275 42.5183 166.835 43.7097 167.957 44.6442C169.078 45.5786 170.69 46.0459 172.793 46.0459C178.54 46.0459 181.413 43.1257 181.413 37.2853ZM182.254 47.0271C179.638 50.7649 175.526 52.6339 169.919 52.6339C166.181 52.6339 162.981 51.6293 160.317 49.6202C157.654 47.5644 156.323 44.8778 156.323 41.5604C156.323 39.4112 156.883 37.5656 158.005 36.0237C159.173 34.4819 160.925 33.2203 163.261 32.2391C165.597 31.2112 168.144 30.4169 170.9 29.8562C173.657 29.2956 177.068 28.7816 181.133 28.3144V27.6836C181.133 22.4506 178.773 19.8341 174.054 19.8341C172.092 19.8341 170.456 20.348 169.148 21.376C167.84 22.4039 167.139 23.9224 167.046 25.9315H158.005C158.378 22.1002 160.037 18.9931 162.981 16.6102C165.924 14.2273 169.779 13.0358 174.545 13.0358C185.385 13.0358 190.804 18.5726 190.804 29.646C190.804 29.8329 190.781 31.1645 190.734 33.6408C190.688 36.0704 190.664 37.9394 190.664 39.2476C190.664 44.5274 191.038 48.6857 191.786 51.7228H182.885C182.745 51.1154 182.534 49.5501 182.254 47.0271ZM208.533 0.911137V51.7228H198.861V0.911137H208.533ZM244.648 51.7228V9.041H229.019V0.911137H270.369V9.041H254.67V51.7228H244.648ZM291.354 14.2273V23.3383C290.419 23.1982 289.088 23.1281 287.359 23.1281C284.743 23.1281 282.757 23.7822 281.402 25.0905C280.094 26.352 279.439 28.6414 279.439 31.9588V51.7228H269.768V14.017H279.299V20.605C281.308 16.2598 284.626 14.0871 289.251 14.0871C289.812 14.0871 290.513 14.1338 291.354 14.2273ZM318.503 37.2853V34.4819C312.803 35.0893 308.855 35.8368 306.659 36.7246C304.463 37.6123 303.365 39.0607 303.365 41.0698C303.365 42.5183 303.925 43.7097 305.047 44.6442C306.168 45.5786 307.78 46.0459 309.883 46.0459C315.63 46.0459 318.503 43.1257 318.503 37.2853ZM319.344 47.0271C316.728 50.7649 312.616 52.6339 307.009 52.6339C303.271 52.6339 300.071 51.6293 297.408 49.6202C294.744 47.5644 293.413 44.8778 293.413 41.5604C293.413 39.4112 293.973 37.5656 295.095 36.0237C296.263 34.4819 298.015 33.2203 300.351 32.2391C302.687 31.2112 305.234 30.4169 307.99 29.8562C310.747 29.2956 314.158 28.7816 318.223 28.3144V27.6836C318.223 22.4506 315.863 19.8341 311.144 19.8341C309.182 19.8341 307.546 20.348 306.238 21.376C304.93 22.4039 304.229 23.9224 304.136 25.9315H295.095C295.468 22.1002 297.127 18.9931 300.071 16.6102C303.014 14.2273 306.869 13.0358 311.635 13.0358C322.475 13.0358 327.894 18.5726 327.894 29.646C327.894 29.8329 327.871 31.1645 327.824 33.6408C327.778 36.0704 327.754 37.9394 327.754 39.2476C327.754 44.5274 328.128 48.6857 328.876 51.7228H319.975C319.835 51.1154 319.624 49.5501 319.344 47.0271ZM345.623 14.017V18.9931C347.819 15.115 351.464 13.176 356.557 13.176C365.247 13.176 369.592 18.1053 369.592 27.9639V51.7228H359.921V30.0665C359.921 27.2631 359.453 25.0437 358.519 23.4084C357.631 21.7731 355.926 20.9554 353.403 20.9554C350.459 20.9554 348.427 21.96 347.305 23.9691C346.184 25.9782 345.623 28.6882 345.623 32.099V51.7228H335.952V14.017H345.623ZM407.978 25.3708H398.937C398.517 23.7355 397.606 22.4272 396.204 21.446C394.849 20.4649 393.073 19.9743 390.877 19.9743C389.055 19.9743 387.583 20.3013 386.462 20.9554C385.341 21.6096 384.78 22.4973 384.78 23.6187C384.78 25.7679 386.462 27.2164 389.826 27.9639L394.872 29.0853C397.115 29.5993 398.914 30.0899 400.269 30.5571C401.67 30.9776 403.096 31.6084 404.544 32.4494C405.992 33.2904 407.044 34.365 407.698 35.6733C408.399 36.9815 408.749 38.5701 408.749 40.4391C408.749 44.0835 407.137 47.0271 403.913 49.2698C400.736 51.5125 396.905 52.6339 392.419 52.6339C387.7 52.6339 383.775 51.4658 380.645 49.1296C377.514 46.7467 375.716 43.4527 375.248 39.2476H384.57C384.85 41.1633 385.668 42.7052 387.023 43.8732C388.378 45.0413 390.27 45.6254 392.7 45.6254C394.802 45.6254 396.461 45.2516 397.676 44.504C398.89 43.7564 399.498 42.7052 399.498 41.3502C399.498 40.0887 398.96 39.1308 397.886 38.4767C396.811 37.7758 395.293 37.1918 393.33 36.7246L387.724 35.5331C383.892 34.7388 380.972 33.4773 378.963 31.7485C376.954 30.0198 375.949 27.5201 375.949 24.2494C375.949 20.9788 377.468 18.2922 380.505 16.1897C383.542 14.0871 387.163 13.0358 391.368 13.0358C395.62 13.0358 399.288 14.0638 402.371 16.1196C405.502 18.1754 407.371 21.2591 407.978 25.3708ZM438.346 37.2853V34.4819C432.645 35.0893 428.697 35.8368 426.501 36.7246C424.305 37.6123 423.207 39.0607 423.207 41.0698C423.207 42.5183 423.768 43.7097 424.889 44.6442C426.011 45.5786 427.623 46.0459 429.725 46.0459C435.472 46.0459 438.346 43.1257 438.346 37.2853ZM439.187 47.0271C436.57 50.7649 432.459 52.6339 426.852 52.6339C423.114 52.6339 419.913 51.6293 417.25 49.6202C414.587 47.5644 413.255 44.8778 413.255 41.5604C413.255 39.4112 413.816 37.5656 414.937 36.0237C416.105 34.4819 417.858 33.2203 420.194 32.2391C422.53 31.2112 425.076 30.4169 427.833 29.8562C430.59 29.2956 434 28.7816 438.065 28.3144V27.6836C438.065 22.4506 435.706 19.8341 430.987 19.8341C429.024 19.8341 427.389 20.348 426.081 21.376C424.773 22.4039 424.072 23.9224 423.978 25.9315H414.937C415.311 22.1002 416.97 18.9931 419.913 16.6102C422.857 14.2273 426.712 13.0358 431.477 13.0358C442.317 13.0358 447.737 18.5726 447.737 29.646C447.737 29.8329 447.714 31.1645 447.667 33.6408C447.62 36.0704 447.597 37.9394 447.597 39.2476C447.597 44.5274 447.971 48.6857 448.718 51.7228H439.817C439.677 51.1154 439.467 49.5501 439.187 47.0271ZM472.264 13.176C476.516 13.176 480.254 14.3675 483.478 16.7503C486.748 19.0865 488.711 22.474 489.365 26.9127H480.114C479.74 25.0905 478.805 23.5953 477.31 22.4272C475.815 21.2591 474.133 20.6751 472.264 20.6751C469.648 20.6751 467.475 21.7497 465.746 23.899C464.064 26.0483 463.223 29.0152 463.223 32.7998C463.223 36.6778 464.064 39.7149 465.746 41.9109C467.428 44.0601 469.624 45.1348 472.334 45.1348C474.156 45.1348 475.815 44.6208 477.31 43.5929C478.805 42.565 479.857 40.9998 480.464 38.8972H489.715C488.687 43.7097 486.538 47.214 483.267 49.41C479.997 51.5592 476.189 52.6339 471.844 52.6339C466.284 52.6339 461.798 50.8117 458.387 47.1672C455.023 43.4761 453.341 38.7337 453.341 32.94C453.341 27.1463 455.093 22.4039 458.598 18.7127C462.102 15.0216 466.657 13.176 472.264 13.176ZM496.822 14.017V3.78462H506.494V14.017H514.344V20.6751H506.494V40.1587C506.494 42.0277 506.844 43.2658 507.545 43.8732C508.246 44.4806 509.484 44.7843 511.26 44.7843H514.203V51.7228H507.125C502.92 51.7228 500.14 51.0219 498.785 49.6202C497.476 48.1718 496.822 45.4852 496.822 41.5604V20.6751H491.496V14.017H496.822ZM520.541 14.017H530.212V51.7228H520.541V14.017ZM520.541 0.911137H530.212V9.88202H520.541V0.911137ZM561.871 23.9691C560.236 21.8198 558.04 20.7452 555.283 20.7452C552.526 20.7452 550.307 21.8198 548.625 23.9691C546.99 26.0717 546.172 29.0619 546.172 32.94C546.172 36.818 546.99 39.8083 548.625 41.9109C550.307 44.0134 552.526 45.0647 555.283 45.0647C558.04 45.0647 560.236 44.0134 561.871 41.9109C563.553 39.8083 564.394 36.818 564.394 32.94C564.394 29.0619 563.553 26.0717 561.871 23.9691ZM568.599 47.4476C564.861 50.9051 560.423 52.6339 555.283 52.6339C550.144 52.6339 545.705 50.9051 541.967 47.4476C538.229 43.99 536.36 39.1542 536.36 32.94C536.36 26.6791 538.229 21.8198 541.967 18.3623C545.705 14.9048 550.144 13.176 555.283 13.176C560.423 13.176 564.861 14.9048 568.599 18.3623C572.337 21.8198 574.206 26.6791 574.206 32.94C574.206 39.1542 572.337 43.99 568.599 47.4476ZM590.031 14.017V18.9931C592.227 15.115 595.871 13.176 600.964 13.176C609.655 13.176 614 18.1053 614 27.9639V51.7228H604.328V30.0665C604.328 27.2631 603.861 25.0437 602.927 23.4084C602.039 21.7731 600.333 20.9554 597.81 20.9554C594.867 20.9554 592.834 21.96 591.713 23.9691C590.592 25.9782 590.031 28.6882 590.031 32.099V51.7228H580.359V14.017H590.031Z" fill="white"/>
<path d="M36.2341 115.14H45.7657C45.1116 120.373 42.7754 124.625 38.7572 127.895C34.739 131.119 29.7396 132.731 23.759 132.731C16.2833 132.731 10.4429 130.371 6.23776 125.652C2.07938 120.887 0.000195748 114.392 0.000195748 106.169C0.000195748 98.1324 2.14947 91.778 6.44802 87.1057C10.7933 82.4333 16.6571 80.0972 24.0394 80.0972C29.9732 80.0972 34.8558 81.6624 38.6871 84.7929C42.5652 87.9233 44.9247 92.1518 45.7657 97.4783H36.2341C34.5521 91.2173 30.4638 88.0869 23.9693 88.0869C19.9978 88.0869 16.7271 89.6755 14.1574 92.8526C11.6343 96.0298 10.3728 100.469 10.3728 106.169C10.3728 112.009 11.6109 116.565 14.0873 119.835C16.6103 123.106 19.7875 124.741 23.6188 124.741C30.4872 124.741 34.6923 121.541 36.2341 115.14ZM75.9302 104.066C74.2949 101.917 72.0989 100.842 69.3422 100.842C66.5855 100.842 64.3661 101.917 62.6841 104.066C61.0488 106.169 60.2311 109.159 60.2311 113.037C60.2311 116.915 61.0488 119.905 62.6841 122.008C64.3661 124.111 66.5855 125.162 69.3422 125.162C72.0989 125.162 74.2949 124.111 75.9302 122.008C77.6122 119.905 78.4532 116.915 78.4532 113.037C78.4532 109.159 77.6122 106.169 75.9302 104.066ZM82.6583 127.545C78.9205 131.002 74.4817 132.731 69.3422 132.731C64.2026 132.731 59.7639 131.002 56.026 127.545C52.2882 124.087 50.4192 119.251 50.4192 113.037C50.4192 106.776 52.2882 101.917 56.026 98.4594C59.7639 95.0019 64.2026 93.2732 69.3422 93.2732C74.4817 93.2732 78.9205 95.0019 82.6583 98.4594C86.3962 101.917 88.2651 106.776 88.2651 113.037C88.2651 119.251 86.3962 124.087 82.6583 127.545ZM98.8666 94.1142L107.697 122.008L116.528 94.1142H126.13L112.603 131.82H102.441L88.7043 94.1142H98.8666ZM164.775 115.63H136.952C137.232 118.714 138.26 121.097 140.035 122.779C141.858 124.414 144.007 125.232 146.483 125.232C150.034 125.232 152.674 123.783 154.403 120.887H164.355C163.187 124.157 161.108 126.961 158.117 129.297C155.127 131.586 151.272 132.731 146.553 132.731C140.666 132.731 135.994 130.839 132.536 127.054C129.079 123.223 127.35 118.48 127.35 112.827C127.35 107.173 129.102 102.501 132.606 98.8099C136.157 95.1187 140.713 93.2732 146.273 93.2732C152.067 93.2732 156.646 95.329 160.01 99.4406C163.374 103.552 164.962 108.949 164.775 115.63ZM146.203 100.352C144.054 100.352 142.091 101.053 140.316 102.454C138.54 103.856 137.466 106.029 137.092 108.972H154.964C154.87 106.029 153.959 103.856 152.23 102.454C150.548 101.053 148.539 100.352 146.203 100.352ZM192.592 94.3244V103.435C191.657 103.295 190.325 103.225 188.597 103.225C185.98 103.225 183.994 103.879 182.64 105.188C181.331 106.449 180.677 108.739 180.677 112.056V131.82H171.005V94.1142H180.537V100.702C182.546 96.3569 185.863 94.1843 190.489 94.1843C191.05 94.1843 191.751 94.231 192.592 94.3244ZM219.741 117.382V114.579C214.041 115.186 210.092 115.934 207.896 116.822C205.7 117.709 204.602 119.158 204.602 121.167C204.602 122.615 205.163 123.807 206.284 124.741C207.406 125.676 209.018 126.143 211.12 126.143C216.867 126.143 219.741 123.223 219.741 117.382ZM220.582 127.124C217.965 130.862 213.854 132.731 208.247 132.731C204.509 132.731 201.308 131.726 198.645 129.717C195.982 127.662 194.65 124.975 194.65 121.658C194.65 119.508 195.211 117.663 196.332 116.121C197.5 114.579 199.253 113.317 201.589 112.336C203.925 111.308 206.471 110.514 209.228 109.953C211.985 109.393 215.395 108.879 219.46 108.412V107.781C219.46 102.548 217.101 99.9312 212.382 99.9312C210.419 99.9312 208.784 100.445 207.476 101.473C206.168 102.501 205.467 104.02 205.373 106.029H196.332C196.706 102.197 198.365 99.0902 201.308 96.7073C204.252 94.3244 208.107 93.133 212.872 93.133C223.712 93.133 229.132 98.6697 229.132 109.743C229.132 109.93 229.109 111.262 229.062 113.738C229.015 116.168 228.992 118.037 228.992 119.345C228.992 124.625 229.366 128.783 230.113 131.82H221.213C221.072 131.212 220.862 129.647 220.582 127.124ZM253.589 123.129C256.252 123.129 258.355 122.101 259.897 120.046C261.485 117.99 262.28 115.256 262.28 111.846C262.28 108.482 261.485 105.772 259.897 103.716C258.355 101.66 256.252 100.632 253.589 100.632C251.113 100.632 249.034 101.73 247.352 103.926C245.716 106.075 244.899 108.739 244.899 111.916C244.899 115.046 245.716 117.709 247.352 119.905C249.034 122.055 251.113 123.129 253.589 123.129ZM261.929 94.1142H271.531V128.035C271.531 134.016 269.942 138.338 266.765 141.001C263.635 143.664 259.056 144.996 253.028 144.996C248.59 144.996 244.875 144.061 241.885 142.192C238.941 140.37 237.166 137.403 236.558 133.292H245.74C246.581 136.375 249.174 137.917 253.519 137.917C259.126 137.917 261.929 135.231 261.929 129.858V124.811C259.686 128.596 256.089 130.488 251.136 130.488C246.464 130.488 242.562 128.76 239.432 125.302C236.301 121.798 234.736 117.312 234.736 111.846C234.736 106.472 236.278 102.034 239.362 98.5295C242.492 95.0253 246.417 93.2732 251.136 93.2732C253.472 93.2732 255.645 93.8105 257.654 94.8851C259.663 95.9597 261.088 97.3381 261.929 99.0201V94.1142ZM315.28 115.63H287.457C287.737 118.714 288.765 121.097 290.54 122.779C292.362 124.414 294.512 125.232 296.988 125.232C300.539 125.232 303.179 123.783 304.908 120.887H314.86C313.692 124.157 311.613 126.961 308.622 129.297C305.632 131.586 301.777 132.731 297.058 132.731C291.171 132.731 286.499 130.839 283.041 127.054C279.584 123.223 277.855 118.48 277.855 112.827C277.855 107.173 279.607 102.501 283.111 98.8099C286.662 95.1187 291.218 93.2732 296.778 93.2732C302.572 93.2732 307.15 95.329 310.515 99.4406C313.879 103.552 315.467 108.949 315.28 115.63ZM296.708 100.352C294.558 100.352 292.596 101.053 290.821 102.454C289.045 103.856 287.971 106.029 287.597 108.972H305.468C305.375 106.029 304.464 103.856 302.735 102.454C301.053 101.053 299.044 100.352 296.708 100.352Z" fill="url(#paint0_linear_0_14)"/>
<defs>
<linearGradient id="paint0_linear_0_14" x1="-11.3209" y1="65.7253" x2="717.809" y2="65.7253" gradientUnits="userSpaceOnUse">
<stop stop-color="#27AE60"/>
<stop offset="1" stop-color="#0052CC"/>
</linearGradient>
</defs>
</svg>
