<svg width="60" height="60" viewBox="0 0 60 60" fill="none" xmlns="http://www.w3.org/2000/svg">
<rect width="60" height="60" rx="30" fill="#DBDBDB"/>
<rect x="8" y="8" width="44" height="44" rx="22" fill="#5C9CEE" fill-opacity="0.3"/>
<g clip-path="url(#clip0_54_18066)">
<path fill-rule="evenodd" clip-rule="evenodd" d="M23.7226 15.5283H37.2767C37.736 15.5283 38.1116 15.8909 38.1116 16.3344V34.6389C38.1116 35.0824 37.736 35.445 37.2767 35.445H23.7226C23.2632 35.445 22.8877 35.0824 22.8877 34.6389V16.3344C22.8877 15.8909 23.2632 15.5283 23.7226 15.5283Z" fill="#EDF6FF"/>
<path fill-rule="evenodd" clip-rule="evenodd" d="M23.7226 15.5283H24.8095C24.3502 15.5283 23.9746 15.8909 23.9746 16.3344V34.6389C23.9746 35.0824 24.3502 35.445 24.8095 35.445H23.7226C23.2632 35.445 22.8877 35.0824 22.8877 34.6389V16.3344C22.8877 15.8909 23.2632 15.5283 23.7226 15.5283Z" fill="#D5DDE6"/>
<path fill-rule="evenodd" clip-rule="evenodd" d="M18.3037 37.9039L19.8545 38.2232C25.8675 38.8385 29.0252 45.4299 38.4695 38.775L42.1109 38.0236L40.5584 30.2881L37.5768 30.9033C31.8805 27.7254 27.322 29.646 23.1527 30.8475L21.56 30.5189L20.0879 30.2148L18.3037 37.9039Z" fill="#F9C295"/>
<path fill-rule="evenodd" clip-rule="evenodd" d="M40.558 30.2876L37.5765 30.9028C35.0571 29.4284 32.0212 28.7323 28.1039 29.4875L25.1065 32.1863C22.8539 34.1972 26.7122 34.4373 29.2293 32.013C31.1143 35.49 35.9277 35.5972 38.4691 38.7751L42.1105 38.0231L40.558 30.2876Z" fill="#F29F5C"/>
<path fill-rule="evenodd" clip-rule="evenodd" d="M23.7385 39.9054L25.2411 38.6263C25.7118 38.2249 25.7583 37.5243 25.3425 37.0699C24.9285 36.6154 24.2023 36.5706 23.7322 36.972L22.2295 38.2511C21.7577 38.6525 21.7124 39.352 22.1282 39.8075C22.5422 40.262 23.2683 40.3052 23.7385 39.9054Z" fill="#F29F5C"/>
<path fill-rule="evenodd" clip-rule="evenodd" d="M26.3957 40.5814L27.8984 39.3023C28.369 38.9025 28.4155 38.2014 27.9997 37.7475C27.5857 37.2919 26.8596 37.2482 26.3895 37.6496L24.8868 38.9287C24.415 39.3285 24.3696 40.0296 24.7854 40.4835C25.1994 40.9396 25.925 40.9828 26.3957 40.5814Z" fill="#F29F5C"/>
<path fill-rule="evenodd" clip-rule="evenodd" d="M28.5486 41.6881L30.0513 40.4078C30.5231 40.0081 30.5684 39.307 30.1527 38.8531C29.7386 38.3986 29.0125 38.3538 28.5424 38.7552L27.0397 40.0343C26.569 40.4357 26.5226 41.1352 26.9383 41.5907C27.3524 42.0446 28.0779 42.0878 28.5486 41.6881Z" fill="#F29F5C"/>
<path fill-rule="evenodd" clip-rule="evenodd" d="M30.3101 40.1893L29.8926 40.5442C29.4208 40.9456 29.3755 41.645 29.7912 42.1006C30.2053 42.555 30.9314 42.5983 31.4015 42.1985L31.819 41.8436C32.2897 41.4422 32.3361 40.7416 31.9204 40.2872C31.5058 39.8327 30.7802 39.7879 30.3101 40.1893Z" fill="#F29F5C"/>
<path fill-rule="evenodd" clip-rule="evenodd" d="M27.64 23.0114C29.2905 23.0114 30.6374 21.711 30.6374 20.1174C30.6374 18.5221 29.2905 17.2217 27.64 17.2217C25.9878 17.2217 24.6426 18.5221 24.6426 20.1174C24.6426 21.711 25.9884 23.0114 27.64 23.0114Z" fill="#2EBD33"/>
<path d="M32.4006 17.6735C32.1423 17.6735 31.9316 17.4706 31.9316 17.2207C31.9316 16.9713 32.1418 16.7695 32.4006 16.7695H36.3473C36.6056 16.7695 36.8146 16.9708 36.8146 17.2207C36.8146 17.4701 36.6056 17.6735 36.3473 17.6735H32.4006Z" fill="#2EBD33"/>
<path d="M32.4006 20.1823C32.1423 20.1823 31.9316 19.9811 31.9316 19.7311C31.9316 19.4818 32.1418 19.2783 32.4006 19.2783H36.3473C36.6056 19.2783 36.8146 19.4812 36.8146 19.7311C36.8146 19.9805 36.6056 20.1823 36.3473 20.1823H32.4006Z" fill="#2EBD33"/>
<path d="M32.4006 22.6921C32.1423 22.6921 31.9316 22.4892 31.9316 22.2393C31.9316 21.9893 32.1418 21.7881 32.4006 21.7881H36.3473C36.6056 21.7881 36.8146 21.9899 36.8146 22.2393C36.8146 22.4886 36.6056 22.6921 36.3473 22.6921H32.4006Z" fill="#2EBD33"/>
<path d="M24.6428 25.2002C24.3845 25.2002 24.1738 24.9989 24.1738 24.749C24.1738 24.4996 24.384 24.2979 24.6428 24.2979H36.3476C36.6059 24.2979 36.8149 24.4991 36.8149 24.749C36.8149 24.9984 36.6059 25.2002 36.3476 25.2002H24.6428Z" fill="#2EBD33"/>
<path d="M24.6428 27.7101C24.3845 27.7101 24.1738 27.5072 24.1738 27.2573C24.1738 27.0079 24.384 26.8062 24.6428 26.8062H36.3476C36.6059 26.8062 36.8149 27.0074 36.8149 27.2573C36.8149 27.5067 36.6059 27.7101 36.3476 27.7101H24.6428Z" fill="#2EBD33"/>
<path d="M28.6725 19.0553C28.8554 18.8787 29.1511 18.8787 29.334 19.0553C29.517 19.232 29.517 19.5174 29.334 19.6941L27.7957 21.1778C27.6144 21.3544 27.3171 21.3544 27.1341 21.1778L25.9458 20.0304C25.7629 19.8538 25.7629 19.5683 25.9458 19.3917C26.1288 19.215 26.4244 19.215 26.6074 19.3917L27.4649 20.2213L28.6725 19.0553Z" fill="#EDF6FF"/>
<path fill-rule="evenodd" clip-rule="evenodd" d="M16.001 37.4292L17.7063 29.7242L21.5618 30.5197L19.8564 38.2247L16.001 37.4292Z" fill="#5C9CEE"/>
<path fill-rule="evenodd" clip-rule="evenodd" d="M39.4424 30.521L43.2962 29.7258L45.0015 37.4308L41.1477 38.226L39.4424 30.521Z" fill="#5C9CEE"/>
<path fill-rule="evenodd" clip-rule="evenodd" d="M20.0895 37.1599L19.855 38.223L16 37.4279L16.2362 36.3647L20.0895 37.1599Z" fill="#538CD6"/>
<path fill-rule="evenodd" clip-rule="evenodd" d="M40.9102 37.1599L41.1463 38.223L44.9996 37.4279L44.7651 36.3647L40.9102 37.1599Z" fill="#538CD6"/>
<path fill-rule="evenodd" clip-rule="evenodd" d="M40.9102 37.1602L37.5752 37.847C37.8963 38.1259 38.1965 38.4327 38.4695 38.7756L41.1458 38.2238L40.9102 37.1602Z" fill="#DA8F53"/>
<path fill-rule="evenodd" clip-rule="evenodd" d="M32 41.6475C33.8176 41.4074 35.9127 40.5762 38.4706 38.7748C38.1976 38.4324 37.8974 38.1267 37.5763 37.8462L37.2891 37.9069C35.3061 39.3036 33.5995 40.1157 32.0872 40.5237C32.2713 40.8819 32.239 41.3172 32 41.6475Z" fill="#E0AF86"/>
<path fill-rule="evenodd" clip-rule="evenodd" d="M19.8545 38.2233C20.5801 38.2977 21.2643 38.459 21.9224 38.6745C21.9864 38.5164 22.0895 38.3704 22.2289 38.2512L22.8179 37.7491C22.153 37.5304 21.4631 37.3663 20.7307 37.292L20.0884 37.1602L19.8545 38.2233Z" fill="#E0AF86"/>
</g>
<defs>
<clipPath id="clip0_54_18066">
<rect width="29" height="28" fill="white" transform="translate(16 15)"/>
</clipPath>
</defs>
</svg>
