<svg width="30" height="30" viewBox="0 0 30 30" fill="none" xmlns="http://www.w3.org/2000/svg">
<g clip-path="url(#clip0_54_17608)">
<g clip-path="url(#clip1_54_17608)">
<g clip-path="url(#clip2_54_17608)">
<path d="M8.12727 17.9693C10.0494 18.4498 11.5502 19.9506 12.0307 21.8727L13.8351 29.0905C13.9688 29.625 14.4491 30 15 30C15.5509 30 16.0312 29.625 16.1649 29.0905L17.9693 21.8727C18.4498 19.9506 19.9506 18.4498 21.8727 17.9693L29.0905 16.1649C29.625 16.0312 30 15.5509 30 15C30 14.4491 29.625 13.9688 29.0905 13.8351L21.8727 12.0307C19.9506 11.5502 18.4498 10.0494 17.9693 8.12727L16.1649 0.90951C16.0312 0.37498 15.5509 0 15 0C14.4491 0 13.9688 0.37498 13.8351 0.90951L12.0307 8.12727C11.5502 10.0494 10.0494 11.5502 8.12727 12.0307L0.90951 13.8351C0.37498 13.9688 0 14.4491 0 15C0 15.5509 0.37498 16.0312 0.90951 16.1649L8.12727 17.9693Z" stroke="#003D2B"/>
</g>
</g>
</g>
<defs>
<clipPath id="clip0_54_17608">
<rect width="30" height="30" fill="white"/>
</clipPath>
<clipPath id="clip1_54_17608">
<rect width="30" height="30" fill="white"/>
</clipPath>
<clipPath id="clip2_54_17608">
<rect width="32" height="32" fill="white" transform="translate(-1 -1)"/>
</clipPath>
</defs>
</svg>
