<svg width="20" height="17" viewBox="0 0 20 17" fill="none" xmlns="http://www.w3.org/2000/svg">
<path d="M9.99961 11.7504L10.8434 12.1879L13.4996 13.6254L12.9684 10.5629L12.8121 9.68789L13.4684 9.03164L15.6559 6.87539L12.6559 6.43789L11.7496 6.28164L11.3434 5.46914L9.99961 2.71914V11.7504ZM15.4684 14.8441C15.5309 15.24 15.3954 15.5629 15.0621 15.8129C14.7288 16.0421 14.3746 16.0629 13.9996 15.8754L9.99961 13.7504L5.99961 15.8754C5.62461 16.0629 5.27044 16.0421 4.93711 15.8129C4.62461 15.5629 4.48919 15.24 4.53086 14.8441L5.31211 10.2816L2.06211 7.06289C1.77044 6.77122 1.68711 6.42747 1.81211 6.03164C1.93711 5.65664 2.19753 5.43789 2.59336 5.37539L7.09336 4.68789L9.09336 0.562891C9.30169 0.208724 9.60378 0.021224 9.99961 0.000391006C10.4163 0.021224 10.7184 0.208724 10.9059 0.562891L12.9059 4.68789L17.4059 5.37539C17.8017 5.43789 18.0725 5.65664 18.2184 6.03164C18.3225 6.42747 18.2392 6.77122 17.9684 7.06289L14.7184 10.2816L15.4684 14.8441Z" fill="#08B87F"/>
</svg>
