<svg width="60" height="60" viewBox="0 0 60 60" fill="none" xmlns="http://www.w3.org/2000/svg">
<rect width="60" height="60" rx="30" fill="#00CC61" fill-opacity="0.2"/>
<rect x="8" y="8" width="44" height="44" rx="22" fill="#00CC61" fill-opacity="0.3"/>
<g clip-path="url(#clip0_54_17990)">
<path d="M37.8954 25.3817C37.7902 25.3418 37.6807 25.3144 37.5691 25.3001C37.5306 25.2956 37.4921 25.2933 37.4536 25.2911C37.4149 24.9599 37.2561 24.6545 37.0072 24.4327C36.7583 24.211 36.4366 24.0883 36.1033 24.088C36.0151 24.0883 35.9271 24.0967 35.8405 24.1129C35.7782 23.9361 35.68 23.7741 35.552 23.6371C35.424 23.5002 35.269 23.3912 35.0968 23.3171C34.9245 23.243 34.7389 23.2054 34.5514 23.2067C34.3639 23.208 34.1788 23.2481 34.0076 23.3245C33.8851 23.1305 33.7155 22.9707 33.5147 22.8598C33.3139 22.7489 33.0883 22.6905 32.8589 22.6901C32.5643 22.6897 32.2778 22.786 32.0433 22.9643C31.9106 22.8316 31.7518 22.728 31.5769 22.6599C31.402 22.5919 31.2149 22.5609 31.0275 22.569C30.84 22.5771 30.6563 22.6241 30.4879 22.7069C30.3196 22.7898 30.1703 22.9067 30.0495 23.0503C29.8337 22.9148 29.5839 22.8433 29.3291 22.8442C29.0802 22.8446 28.8363 22.9133 28.6238 23.0427C28.4113 23.1722 28.2383 23.3574 28.1237 23.5782C27.981 23.5283 27.8309 23.5023 27.6797 23.5012C27.3787 23.5016 27.0863 23.6019 26.8485 23.7865C26.6106 23.971 26.4408 24.2293 26.3656 24.5207C26.3158 24.5162 26.2682 24.5139 26.2183 24.5139C25.9604 24.5132 25.7078 24.5872 25.4911 24.7269C25.3033 24.8457 25.1476 25.0089 25.0377 25.2022C24.9279 25.3954 24.8673 25.6126 24.8612 25.8348C24.53 25.873 24.2243 26.0318 24.0025 26.2808C23.7806 26.5298 23.6581 26.8516 23.6582 27.1851C23.658 27.2742 23.6671 27.363 23.6854 27.4502C23.4204 27.5435 23.191 27.7168 23.0286 27.9461C22.8663 28.1754 22.7791 28.4494 22.7791 28.7303C22.7791 28.9217 22.82 29.111 22.8992 29.2853C22.7405 29.3855 22.6044 29.5176 22.4993 29.6731C22.3943 29.8287 22.3227 30.0043 22.2891 30.1889C22.2554 30.3736 22.2605 30.5632 22.3039 30.7457C22.3473 30.9283 22.4281 31.0999 22.5412 31.2496C22.4089 31.3827 22.3057 31.5417 22.238 31.7168C22.1704 31.8918 22.1399 32.079 22.1484 32.2664C22.1569 32.4539 22.2043 32.6375 22.2875 32.8057C22.3708 32.9739 22.488 33.1229 22.6319 33.2434C22.5324 33.4026 22.467 33.5807 22.4399 33.7665C22.4128 33.9523 22.4245 34.1416 22.4744 34.3226C22.5242 34.5036 22.611 34.6723 22.7294 34.818C22.8478 34.9637 22.9951 35.0833 23.162 35.1692C23.0556 35.476 23.063 35.8109 23.1828 36.1128C23.3025 36.4147 23.5267 36.6635 23.8145 36.814C23.8489 36.8329 23.8845 36.8496 23.921 36.8639C23.9812 36.8897 24.0433 36.9109 24.1068 36.9273C24.1023 36.9749 24.1 37.0225 24.1 37.0723V37.0836C24.1017 37.3169 24.1641 37.5457 24.2812 37.7475C24.3797 37.9186 24.5142 38.0662 24.6755 38.1802C24.7105 38.2054 24.7468 38.2289 24.7842 38.2504L24.7298 38.2368C22.8681 37.768 21.1651 36.8112 19.7963 35.465C18.4275 34.1189 17.4424 32.432 16.9426 30.5784C16.4428 28.7248 16.4463 26.7714 16.9528 24.9196C17.4592 23.0678 18.4504 21.3845 19.824 20.0432C21.1976 18.702 22.904 17.7513 24.7674 17.2892C26.6308 16.827 28.5837 16.8701 30.4249 17.414C32.2661 17.9579 33.9289 18.9829 35.242 20.3834C36.5552 21.784 37.4711 23.5093 37.8954 25.3817Z" fill="#81D9E3"/>
<path d="M37.619 24.9333C37.619 25.0574 37.6023 25.1808 37.5692 25.3004C37.5527 25.2977 37.536 25.2962 37.5193 25.2958C37.4967 25.2936 37.4763 25.2936 37.4536 25.2913C37.4517 25.2707 37.4487 25.2503 37.4446 25.2301C37.3867 24.8749 37.1903 24.5572 36.8986 24.3465C36.6676 24.1782 36.3891 24.0877 36.1033 24.0882C36.0151 24.0886 35.9272 24.0969 35.8405 24.1132C35.7782 23.9363 35.68 23.7743 35.552 23.6374C35.424 23.5004 35.269 23.3914 35.0968 23.3174C34.9246 23.2433 34.7389 23.2057 34.5514 23.207C34.364 23.2082 34.1788 23.2483 34.0076 23.3247C33.8851 23.1308 33.7156 22.9709 33.5148 22.86C33.3139 22.7491 33.0884 22.6908 32.859 22.6904C32.5644 22.6899 32.2778 22.7862 32.0433 22.9645C31.9106 22.8318 31.7518 22.7282 31.5769 22.6602C31.4021 22.5921 31.215 22.5612 31.0275 22.5693C30.8401 22.5774 30.6563 22.6243 30.488 22.7072C30.3196 22.79 30.1703 22.907 30.0496 23.0506C29.8338 22.915 29.5839 22.8435 29.3291 22.8444C29.0803 22.8449 28.8364 22.9136 28.6238 23.043C28.4113 23.1724 28.2384 23.3576 28.1238 23.5785C27.981 23.5285 27.831 23.5025 27.6797 23.5014C27.3787 23.5018 27.0863 23.6022 26.8485 23.7867C26.6107 23.9712 26.4409 24.2295 26.3657 24.521C26.3158 24.5164 26.2682 24.5142 26.2184 24.5142C25.9605 24.5134 25.7079 24.5874 25.4911 24.7271C24.8432 24.376 25.0448 23.8866 25.217 23.5536C25.4798 23.0461 26.9366 23.08 27.5189 21.7252C28.1034 20.3726 30.3532 21.7343 30.0247 19.915C29.6939 18.0957 30.9037 17.749 30.9037 17.749C30.9037 17.749 32.4104 18.3426 33.4072 18.8841C34.4064 19.4256 36.4953 21.9971 36.962 23.0279C37.3064 23.7937 37.6236 24.3646 37.619 24.9333Z" fill="#98E07E"/>
<path d="M37.0568 31.1525C36.8849 29.7833 36.2197 28.5239 35.1858 27.6101C34.1519 26.6963 32.8202 26.1908 31.4404 26.1885C30.6406 26.199 29.8519 26.3767 29.1249 26.7102C28.3979 27.0438 27.7488 27.5257 27.2192 28.1251C26.6896 28.7245 26.2912 29.428 26.0497 30.1905C25.8083 30.953 25.729 31.7576 25.8171 32.5526C26.0027 34.0431 26.7729 35.3988 27.9581 36.3214C29.1434 37.2441 30.6465 37.6581 32.137 37.4724C33.6275 37.2868 34.9832 36.5166 35.9058 35.3314C36.8285 34.1461 37.2425 32.6429 37.0568 31.1525ZM33.3457 33.23C32.8904 33.8621 32.4282 34.4943 32.0226 35.1581C31.9587 35.2573 31.8709 35.3389 31.7673 35.3955C31.6638 35.4521 31.5477 35.4818 31.4296 35.4821C31.3116 35.4823 31.1954 35.453 31.0916 35.3968C30.9878 35.3406 30.8998 35.2593 30.8354 35.1604C30.3936 34.4421 29.3673 33.0307 29.356 33.0171C29.0799 32.6093 28.9338 32.1275 28.9368 31.635C28.9368 30.9741 29.1994 30.3402 29.6668 29.8728C30.1342 29.4054 30.7681 29.1429 31.429 29.1429C32.09 29.1429 32.7239 29.4054 33.1913 29.8728C33.6586 30.3402 33.9212 30.9741 33.9212 31.635C33.9038 32.2144 33.7022 32.773 33.3457 33.23Z" fill="#E1EBF4"/>
<path d="M33.0146 31.6353C33.014 31.7174 33.0056 31.7993 32.9897 31.8799V31.8822C32.9371 32.1301 32.8388 32.3659 32.6997 32.5778C32.4913 32.8655 31.8501 33.7536 31.4264 34.4038C31.0186 33.7785 30.3231 32.7953 30.1056 32.5075C29.9387 32.2468 29.8477 31.9448 29.8428 31.6353C29.8428 31.2146 30.0099 30.8112 30.3073 30.5138C30.6047 30.2164 31.0081 30.0493 31.4287 30.0493C31.8493 30.0493 32.2527 30.2164 32.5501 30.5138C32.8476 30.8112 33.0146 31.2146 33.0146 31.6353Z" fill="#FC785E"/>
<path d="M22.9641 27.0142C22.9603 27.0213 22.9565 27.0283 22.953 27.0356C22.7148 27.5482 22.6258 28.1176 22.6964 28.6784C23.0288 27.7664 23.5018 26.9119 24.0982 26.1461C24.2406 25.9631 24.3907 25.7885 24.5444 25.6182C23.8706 25.8844 23.3114 26.3784 22.9641 27.0142Z" fill="#2D4356"/>
<path d="M19.7949 32.1038C19.411 32.778 19.1451 33.5128 19.0088 34.2766C18.1564 33.1503 17.5429 31.8618 17.2059 30.4901C16.8689 29.1184 16.8155 27.6924 17.049 26.2993C17.2205 26.362 17.3727 26.4682 17.4908 26.6074C17.5066 26.6278 17.5225 26.646 17.5384 26.6641C17.5474 26.6709 18.2928 27.4593 18.2475 28.9274C18.2359 29.1852 18.2788 29.4424 18.3732 29.6825C18.4677 29.9226 18.6117 30.1401 18.7958 30.3208C18.9381 30.4536 19.0973 30.5671 19.2693 30.6584C19.5078 30.804 19.6898 31.0264 19.7853 31.289C19.8808 31.5517 19.8842 31.839 19.7949 32.1038Z" fill="#98E07E"/>
<path d="M31.4288 29.1431C30.7679 29.1435 30.1342 29.4062 29.667 29.8735C29.1997 30.3407 28.937 30.9744 28.9366 31.6353C28.9335 32.1277 29.0796 32.6095 29.3557 33.0173C29.367 33.0309 30.3934 34.4424 30.8352 35.1606C30.8995 35.2595 30.9876 35.3408 31.0914 35.397C31.1951 35.4532 31.3114 35.4825 31.4294 35.4823C31.5474 35.4821 31.6635 35.4523 31.7671 35.3957C31.8706 35.3391 31.9584 35.2575 32.0224 35.1583C32.4279 34.4945 32.8901 33.8624 33.3455 33.2303C33.7019 32.7733 33.9035 32.2146 33.9209 31.6353C33.9202 30.9745 33.6573 30.3411 33.1901 29.8739C32.7229 29.4067 32.0895 29.1438 31.4288 29.1431ZM32.9898 31.8799V31.8822C32.9372 32.1301 32.8388 32.3659 32.6998 32.5778C32.4913 32.8655 31.8502 33.7536 31.4265 34.4038C31.0187 33.7785 30.3231 32.7953 30.1056 32.5075C29.9387 32.2468 29.8477 31.9448 29.8428 31.6353C29.8428 31.2146 30.0099 30.8112 30.3073 30.5138C30.6048 30.2164 31.0081 30.0493 31.4288 30.0493C31.8494 30.0493 32.2528 30.2164 32.5502 30.5138C32.8476 30.8112 33.0147 31.2146 33.0147 31.6353C33.014 31.7174 33.0057 31.7993 32.9898 31.8799Z" fill="#2D4356"/>
<path d="M31.4287 32.0889C31.679 32.0889 31.8818 31.886 31.8818 31.6357C31.8818 31.3855 31.679 31.1826 31.4287 31.1826C31.1785 31.1826 30.9756 31.3855 30.9756 31.6357C30.9756 31.886 31.1785 32.0889 31.4287 32.0889Z" fill="#2D4356"/>
<path d="M44.5447 41.1552C44.5334 41.1462 38.4751 36.3204 38.4751 36.3204C38.3398 36.2094 38.1667 36.1552 37.9922 36.1692C37.8177 36.1831 37.6554 36.2641 37.5394 36.3952L37.3944 36.556L36.6377 35.8605C37.6978 34.4912 38.172 32.7575 37.9563 31.0392C37.7952 29.7499 37.2555 28.5374 36.4054 27.5548C35.5552 26.5722 34.4328 25.8638 33.1801 25.5191C31.9273 25.1744 30.6005 25.2089 29.3673 25.6182C28.1342 26.0275 27.0501 26.7933 26.2522 27.8187C25.4542 28.8441 24.9782 30.0831 24.8844 31.379C24.7905 32.6749 25.083 33.9696 25.7249 35.0992C26.3668 36.2289 27.3292 37.1429 28.4905 37.7256C29.6518 38.3084 30.9598 38.5337 32.2492 38.3731C33.6797 38.1958 35.0115 37.5506 36.0373 36.5379L36.7895 37.2335L36.572 37.4759C36.4576 37.6049 36.3964 37.7724 36.4006 37.9448C36.4048 38.1171 36.4741 38.2815 36.5946 38.4048C36.5946 38.4048 41.98 43.9035 41.9823 43.9057C42.1255 44.0426 42.2944 44.1496 42.4793 44.2205C42.6642 44.2915 42.8613 44.325 43.0593 44.3191C43.2572 44.3132 43.452 44.268 43.6324 44.1862C43.8127 44.1043 43.975 43.9874 44.1097 43.8423L44.6036 43.3053C45.127 42.7344 45.1564 41.6854 44.5447 41.1552ZM32.1382 37.4736C30.6476 37.6578 29.1449 37.2431 27.9598 36.3205C26.7747 35.3979 26.0041 34.0428 25.8171 32.5527C25.729 31.7577 25.8083 30.9531 26.0497 30.1906C26.2912 29.4281 26.6895 28.7245 27.2191 28.1251C27.7488 27.5258 28.3979 27.0438 29.1249 26.7103C29.8519 26.3768 30.6406 26.199 31.4403 26.1885C32.8814 26.1897 34.2678 26.7399 35.3173 27.7274C36.3668 28.7148 37.0006 30.0651 37.0895 31.5033C37.1785 32.9416 36.7159 34.3597 35.796 35.4689C34.8761 36.5781 33.5681 37.295 32.1382 37.4736ZM37.3899 37.9222L38.0718 37.1587L38.8444 37.7727L38.0877 38.6359L37.3899 37.9222ZM43.9375 42.6913C43.9375 42.6913 43.4436 43.226 43.4436 43.2283C43.3383 43.3404 43.1934 43.4069 43.0398 43.4137C42.8861 43.4205 42.7359 43.3669 42.6212 43.2645L38.7243 39.2838L39.5535 38.3391L43.9262 41.8213C44.038 41.9379 44.1014 42.0926 44.1035 42.2541C44.1056 42.4156 44.0463 42.5719 43.9375 42.6913Z" fill="#2D4356"/>
<path d="M43.9378 42.6911C43.9378 42.6911 43.4439 43.2258 43.4439 43.2281C43.3386 43.3402 43.1937 43.4067 43.0401 43.4135C42.8864 43.4203 42.7362 43.3667 42.6215 43.2643L38.7246 39.2836L39.5538 38.3389L43.9265 41.8211C44.0383 41.9377 44.1017 42.0924 44.1038 42.2539C44.1059 42.4154 44.0466 42.5717 43.9378 42.6911Z" fill="#D68751"/>
<path d="M38.8442 37.7727L38.0875 38.6359L37.3896 37.9222L38.0716 37.1587L38.8442 37.7727Z" fill="#E1EBF4"/>
<path d="M35.2002 39.2866C35.4504 39.2866 35.6533 39.0838 35.6533 38.8335C35.6533 38.5832 35.4504 38.3804 35.2002 38.3804C34.9499 38.3804 34.7471 38.5832 34.7471 38.8335C34.7471 39.0838 34.9499 39.2866 35.2002 39.2866Z" fill="#2D4356"/>
<path d="M33.5508 39.9473C33.801 39.9473 34.0039 39.7444 34.0039 39.4941C34.0039 39.2439 33.801 39.041 33.5508 39.041C33.3005 39.041 33.0977 39.2439 33.0977 39.4941C33.0977 39.7444 33.3005 39.9473 33.5508 39.9473Z" fill="#2D4356"/>
<path d="M31.7949 40.228C32.0452 40.228 32.248 40.0252 32.248 39.7749C32.248 39.5246 32.0452 39.3218 31.7949 39.3218C31.5447 39.3218 31.3418 39.5246 31.3418 39.7749C31.3418 40.0252 31.5447 40.228 31.7949 40.228Z" fill="#2D4356"/>
<path d="M30.0205 40.1113C30.2708 40.1113 30.4736 39.9085 30.4736 39.6582C30.4736 39.4079 30.2708 39.2051 30.0205 39.2051C29.7703 39.2051 29.5674 39.4079 29.5674 39.6582C29.5674 39.9085 29.7703 40.1113 30.0205 40.1113Z" fill="#2D4356"/>
<path d="M28.3184 39.6006C28.5686 39.6006 28.7715 39.3977 28.7715 39.1475C28.7715 38.8972 28.5686 38.6943 28.3184 38.6943C28.0681 38.6943 27.8652 38.8972 27.8652 39.1475C27.8652 39.3977 28.0681 39.6006 28.3184 39.6006Z" fill="#2D4356"/>
<path d="M26.7715 38.7236C27.0217 38.7236 27.2246 38.5208 27.2246 38.2705C27.2246 38.0203 27.0217 37.8174 26.7715 37.8174C26.5212 37.8174 26.3184 38.0203 26.3184 38.2705C26.3184 38.5208 26.5212 38.7236 26.7715 38.7236Z" fill="#2D4356"/>
<path d="M25.459 37.5254C25.7092 37.5254 25.9121 37.3225 25.9121 37.0723C25.9121 36.822 25.7092 36.6191 25.459 36.6191C25.2087 36.6191 25.0059 36.822 25.0059 37.0723C25.0059 37.3225 25.2087 37.5254 25.459 37.5254Z" fill="#2D4356"/>
<path d="M24.4453 36.0659C24.6956 36.0659 24.8984 35.863 24.8984 35.6128C24.8984 35.3625 24.6956 35.1597 24.4453 35.1597C24.1951 35.1597 23.9922 35.3625 23.9922 35.6128C23.9922 35.863 24.1951 36.0659 24.4453 36.0659Z" fill="#2D4356"/>
<path d="M23.7842 34.416C24.0344 34.416 24.2373 34.2131 24.2373 33.9629C24.2373 33.7126 24.0344 33.5098 23.7842 33.5098C23.5339 33.5098 23.3311 33.7126 23.3311 33.9629C23.3311 34.2131 23.5339 34.416 23.7842 34.416Z" fill="#2D4356"/>
<path d="M23.5068 32.6597C23.7571 32.6597 23.96 32.4568 23.96 32.2065C23.96 31.9563 23.7571 31.7534 23.5068 31.7534C23.2566 31.7534 23.0537 31.9563 23.0537 32.2065C23.0537 32.4568 23.2566 32.6597 23.5068 32.6597Z" fill="#2D4356"/>
<path d="M23.626 30.8862C23.8762 30.8862 24.0791 30.6834 24.0791 30.4331C24.0791 30.1829 23.8762 29.98 23.626 29.98C23.3757 29.98 23.1729 30.1829 23.1729 30.4331C23.1729 30.6834 23.3757 30.8862 23.626 30.8862Z" fill="#2D4356"/>
<path d="M24.1377 29.1831C24.3879 29.1831 24.5908 28.9802 24.5908 28.73C24.5908 28.4797 24.3879 28.2769 24.1377 28.2769C23.8874 28.2769 23.6846 28.4797 23.6846 28.73C23.6846 28.9802 23.8874 29.1831 24.1377 29.1831Z" fill="#2D4356"/>
<path d="M25.0176 27.6377C25.2678 27.6377 25.4707 27.4348 25.4707 27.1846C25.4707 26.9343 25.2678 26.7314 25.0176 26.7314C24.7673 26.7314 24.5645 26.9343 24.5645 27.1846C24.5645 27.4348 24.7673 27.6377 25.0176 27.6377Z" fill="#2D4356"/>
<path d="M26.2178 26.3267C26.468 26.3267 26.6709 26.1238 26.6709 25.8735C26.6709 25.6233 26.468 25.4204 26.2178 25.4204C25.9675 25.4204 25.7646 25.6233 25.7646 25.8735C25.7646 26.1238 25.9675 26.3267 26.2178 26.3267Z" fill="#2D4356"/>
<path d="M27.6787 25.3154C27.929 25.3154 28.1318 25.1126 28.1318 24.8623C28.1318 24.6121 27.929 24.4092 27.6787 24.4092C27.4285 24.4092 27.2256 24.6121 27.2256 24.8623C27.2256 25.1126 27.4285 25.3154 27.6787 25.3154Z" fill="#2D4356"/>
<path d="M29.3291 24.6562C29.5794 24.6562 29.7822 24.4534 29.7822 24.2031C29.7822 23.9529 29.5794 23.75 29.3291 23.75C29.0788 23.75 28.876 23.9529 28.876 24.2031C28.876 24.4534 29.0788 24.6562 29.3291 24.6562Z" fill="#2D4356"/>
<path d="M31.0859 24.3818C31.3362 24.3818 31.5391 24.179 31.5391 23.9287C31.5391 23.6785 31.3362 23.4756 31.0859 23.4756C30.8357 23.4756 30.6328 23.6785 30.6328 23.9287C30.6328 24.179 30.8357 24.3818 31.0859 24.3818Z" fill="#2D4356"/>
<path d="M32.8594 24.5029C33.1096 24.5029 33.3125 24.3001 33.3125 24.0498C33.3125 23.7996 33.1096 23.5967 32.8594 23.5967C32.6091 23.5967 32.4062 23.7996 32.4062 24.0498C32.4062 24.3001 32.6091 24.5029 32.8594 24.5029Z" fill="#2D4356"/>
<path d="M34.5596 25.0186C34.8098 25.0186 35.0127 24.8157 35.0127 24.5654C35.0127 24.3152 34.8098 24.1123 34.5596 24.1123C34.3093 24.1123 34.1064 24.3152 34.1064 24.5654C34.1064 24.8157 34.3093 25.0186 34.5596 25.0186Z" fill="#2D4356"/>
<path d="M36.1045 25.9004C36.3547 25.9004 36.5576 25.6975 36.5576 25.4473C36.5576 25.197 36.3547 24.9941 36.1045 24.9941C35.8542 24.9941 35.6514 25.197 35.6514 25.4473C35.6514 25.6975 35.8542 25.9004 36.1045 25.9004Z" fill="#2D4356"/>
<path d="M37.4131 27.1025C37.6633 27.1025 37.8662 26.8997 37.8662 26.6494C37.8662 26.3992 37.6633 26.1963 37.4131 26.1963C37.1628 26.1963 36.96 26.3992 36.96 26.6494C36.96 26.8997 37.1628 27.1025 37.4131 27.1025Z" fill="#2D4356"/>
<path d="M38.4287 28.5654C38.679 28.5654 38.8818 28.3626 38.8818 28.1123C38.8818 27.8621 38.679 27.6592 38.4287 27.6592C38.1785 27.6592 37.9756 27.8621 37.9756 28.1123C37.9756 28.3626 38.1785 28.5654 38.4287 28.5654Z" fill="#2D4356"/>
<path d="M39.0781 30.2178C39.3284 30.2178 39.5312 30.0149 39.5312 29.7646C39.5312 29.5144 39.3284 29.3115 39.0781 29.3115C38.8279 29.3115 38.625 29.5144 38.625 29.7646C38.625 30.0149 38.8279 30.2178 39.0781 30.2178Z" fill="#2D4356"/>
<path d="M39.3506 31.9751C39.6008 31.9751 39.8037 31.7722 39.8037 31.522C39.8037 31.2717 39.6008 31.0688 39.3506 31.0688C39.1003 31.0688 38.8975 31.2717 38.8975 31.522C38.8975 31.7722 39.1003 31.9751 39.3506 31.9751Z" fill="#2D4356"/>
<path d="M39.2266 33.748C39.4768 33.748 39.6797 33.5452 39.6797 33.2949C39.6797 33.0447 39.4768 32.8418 39.2266 32.8418C38.9763 32.8418 38.7734 33.0447 38.7734 33.2949C38.7734 33.5452 38.9763 33.748 39.2266 33.748Z" fill="#2D4356"/>
<path d="M38.7002 35.4771C38.9504 35.4771 39.1533 35.2742 39.1533 35.0239C39.1533 34.7737 38.9504 34.5708 38.7002 34.5708C38.4499 34.5708 38.2471 34.7737 38.2471 35.0239C38.2471 35.2742 38.4499 35.4771 38.7002 35.4771Z" fill="#2D4356"/>
<path opacity="0.3" d="M19.7949 32.104C19.411 32.7781 19.1451 33.5129 19.0088 34.2767C17.6424 32.4734 16.9039 30.2724 16.9063 28.01C16.9063 27.9375 16.9063 27.865 16.9085 27.7925C16.956 29.9738 17.691 32.0845 19.0088 33.8236C19.1451 33.0598 19.411 32.325 19.7949 31.6508C19.8138 31.5914 19.8289 31.5309 19.8402 31.4696C19.8799 31.6814 19.8643 31.8999 19.7949 32.104Z" fill="#528440"/>
<path opacity="0.3" d="M24.2807 37.7479C24.079 37.5168 23.934 37.3378 23.8683 37.2449C23.6328 37.3381 23.4035 37.4464 23.1819 37.5689C22.0115 37.0571 20.9444 36.3361 20.0326 35.4415C19.8884 35.1677 19.8382 34.854 19.8899 34.5488C19.9039 34.7042 19.9527 34.8544 20.0326 34.9884C20.9444 35.883 22.0115 36.6039 23.1819 37.1158C23.3861 37.0022 23.5972 36.9016 23.814 36.8145C23.8483 36.8333 23.8839 36.85 23.9204 36.8643C23.9807 36.8902 24.0428 36.9114 24.1062 36.9277C24.1017 36.9753 24.0994 37.0229 24.0994 37.0727V37.0841C24.1011 37.3173 24.1636 37.5461 24.2807 37.7479Z" fill="#0F423C"/>
<path opacity="0.3" d="M24.7836 38.2509L24.7292 38.2373C24.7111 38.2192 24.6929 38.1988 24.6748 38.1807C24.7098 38.2059 24.7461 38.2293 24.7836 38.2509Z" fill="#0F423C"/>
<path opacity="0.4" d="M22.6023 19.5528C22.5845 19.4397 22.5572 19.3283 22.5207 19.2197C21.2897 19.8627 20.1988 20.744 19.3116 21.8125C18.4244 22.8809 17.7586 24.1152 17.3528 25.4434C17.3121 25.4275 17.2735 25.4139 17.2373 25.4004C17.606 23.987 18.2666 22.6666 19.1766 21.524C20.0866 20.3815 21.2257 19.4422 22.5207 18.7666C22.6129 19.0178 22.6409 19.288 22.6023 19.5528Z" fill="#E8FBFC"/>
<path opacity="0.4" d="M30.1167 17.9666C30.0251 18.0902 29.9404 18.2188 29.8629 18.3517C27.7379 17.8186 25.4987 17.9701 23.4648 18.7845C23.4367 18.646 23.3965 18.5103 23.3447 18.3789C25.4925 17.4886 27.8767 17.3434 30.1167 17.9666Z" fill="#E8FBFC"/>
<path opacity="0.6" d="M37.6187 24.9332C37.6187 25.0573 37.6019 25.1807 37.5688 25.3003C37.5524 25.2976 37.5357 25.2961 37.519 25.2957C37.4941 25.2731 37.4692 25.2527 37.4442 25.23C37.3863 24.8748 37.19 24.5571 36.8982 24.3464C36.3449 23.0657 35.5411 21.9085 34.5342 20.9428C33.5273 19.9772 32.3375 19.2225 31.0348 18.7231C30.7988 18.985 30.6123 19.2874 30.4842 19.6158C30.4684 19.541 30.4525 19.4821 30.4412 19.4459C30.4049 19.1355 30.738 18.6099 31.0348 18.27C32.4467 18.8115 33.7248 19.6522 34.7811 20.7343C35.8374 21.8164 36.647 23.1144 37.1542 24.539C37.3128 24.6636 37.4692 24.795 37.6187 24.9332Z" fill="#CBE0C3"/>
<path opacity="0.5" d="M38.8442 37.7727L38.0875 38.6359L37.3896 37.9222L37.6003 37.6843L38.0875 38.1828L38.6108 37.5869L38.8442 37.7727Z" fill="#9FA5AA"/>
<path opacity="0.4" d="M43.9378 42.6913C43.9378 42.6913 43.4439 43.226 43.4439 43.2282C43.3386 43.3403 43.1937 43.4069 43.0401 43.4136C42.8864 43.4204 42.7362 43.3669 42.6215 43.2645L38.7246 39.2838L38.9353 39.0459L42.6215 42.8114C42.7362 42.9138 42.8864 42.9673 43.0401 42.9605C43.1937 42.9537 43.3386 42.8872 43.4439 42.7751C43.4439 42.7729 43.9378 42.2382 43.9378 42.2382C43.991 42.1798 44.0332 42.1122 44.0624 42.0388C44.1037 42.1485 44.114 42.2674 44.092 42.3826C44.07 42.4977 44.0166 42.6045 43.9378 42.6913Z" fill="#72492D"/>
<path opacity="0.5" d="M37.0957 32.0746C37.0889 31.9182 37.0775 31.7619 37.0571 31.6056C36.8852 30.2365 36.22 28.977 35.1861 28.0632C34.1522 27.1494 32.8205 26.644 31.4407 26.6416C28.4025 26.6416 25.9012 29.1519 25.7789 32.1018C25.7564 31.3402 25.8857 30.5818 26.1592 29.8707C26.4326 29.1596 26.8448 28.51 27.3717 27.9597C27.8986 27.4094 28.5297 26.9694 29.2283 26.6653C29.9268 26.3613 30.6789 26.1992 31.4407 26.1885C32.8205 26.1908 34.1522 26.6963 35.1861 27.6101C36.22 28.5239 36.8852 29.7833 37.0571 31.1525C37.0958 31.4582 37.1087 31.7667 37.0957 32.0746Z" fill="white"/>
<path opacity="0.3" d="M33.0145 31.6347C33.0144 31.7062 33.0075 31.7775 32.9941 31.8477C32.9371 31.4717 32.7466 31.1288 32.4574 30.8817C32.1683 30.6345 31.7999 30.4998 31.4196 30.502C31.0393 30.5042 30.6725 30.6432 30.3862 30.8936C30.1 31.1441 29.9135 31.4892 29.8608 31.8658C29.8289 31.6502 29.8419 31.4302 29.8989 31.2198C29.9558 31.0094 30.0556 30.813 30.1919 30.6429C30.3282 30.4727 30.4982 30.3326 30.6911 30.2311C30.8841 30.1296 31.0959 30.069 31.3133 30.0531C31.5307 30.0371 31.7491 30.0662 31.9547 30.1385C32.1604 30.2108 32.349 30.3247 32.5086 30.4731C32.6683 30.6216 32.7956 30.8013 32.8826 31.0012C32.9697 31.2011 33.0146 31.4167 33.0145 31.6347Z" fill="#F9DBD7"/>
<path opacity="0.5" d="M32.1383 37.4732C30.6478 37.6574 29.1451 37.2427 27.96 36.3201C26.7749 35.3975 26.0043 34.0424 25.8172 32.5523C25.7797 32.2525 25.7668 31.9502 25.7787 31.6483C25.7855 31.7978 25.7968 31.9496 25.8172 32.0991C25.9926 33.5106 26.6927 34.8044 27.7784 35.7233C28.864 36.6422 30.2557 37.1189 31.6767 37.0586C33.0978 36.9984 34.4441 36.4056 35.4481 35.3982C36.4521 34.3907 37.0402 33.0423 37.0955 31.6211C37.1521 33.0401 36.6742 34.4287 35.7563 35.5123C34.8384 36.5959 33.5473 37.2957 32.1383 37.4732Z" fill="#9FA5AA"/>
<path d="M37.1541 24.5393C37.1592 24.5623 37.1641 24.5832 37.169 24.6055C37.3263 24.8034 37.4249 25.0413 37.4538 25.2924C37.6389 25.298 37.8208 25.3415 37.9884 25.4202C38.156 25.4988 38.3058 25.6109 38.4284 25.7496L38.4274 25.7446C38.0119 23.7083 37.0441 21.8255 35.6301 20.3024C34.2161 18.7793 32.4103 17.6745 30.4104 17.109C28.4105 16.5435 26.2936 16.5391 24.2914 17.0963C22.2891 17.6534 20.4787 18.7506 19.0584 20.2678C17.638 21.785 16.6624 23.6637 16.2383 25.6983C15.8143 27.7329 15.9581 29.8449 16.654 31.8032C17.35 33.7615 18.5713 35.4906 20.1842 36.8013C21.7971 38.1119 23.7396 38.9536 25.7988 39.2341C25.0854 38.6428 24.4382 37.9758 23.8685 37.2449C23.633 37.3381 23.4037 37.4464 23.182 37.5689C22.0117 37.0571 20.9445 36.3361 20.0328 35.4415C19.5548 34.6757 20.2956 33.0422 20.6015 32.5188C20.8756 32.0498 20.8054 31.3384 20.5902 30.8627C20.4715 30.5981 20.3031 30.3589 20.094 30.158C19.8901 29.9609 19.625 29.8544 19.4188 29.6619C19.327 29.5695 19.2557 29.4588 19.2096 29.337C19.1635 29.2152 19.1437 29.085 19.1515 28.955C19.2059 27.2309 18.3789 26.2385 18.209 26.0527C17.9541 25.7467 17.6168 25.5202 17.237 25.4002C17.6057 23.9869 18.2663 22.6664 19.1763 21.5239C20.0863 20.3814 21.2255 19.4421 22.5205 18.7665C22.6185 19.0259 22.6435 19.3072 22.593 19.5798C22.5318 19.743 22.2735 19.8494 22.0152 19.9423C21.5654 20.0978 21.1326 20.299 20.7238 20.5427C20.5175 20.6739 20.3677 20.8776 20.304 21.1136C20.2402 21.3497 20.2672 21.6011 20.3795 21.8183C20.5766 22.2284 21.0025 22.4504 21.5848 22.4504C22.2031 22.4162 22.7992 22.2081 23.3044 21.85C23.3293 21.8341 23.3723 21.8024 23.429 21.7594C23.6782 21.5736 24.009 21.2859 24.342 21.2927C24.4602 21.2921 24.5734 21.2455 24.6577 21.1627C24.742 21.08 24.7907 20.9676 24.7933 20.8495C24.796 20.7313 24.7524 20.6169 24.672 20.5304C24.5915 20.4439 24.4804 20.3922 24.3624 20.3864C23.8572 20.366 23.3316 20.7013 22.8852 21.0366C22.8558 21.057 22.8331 21.0752 22.8218 21.0819C22.471 21.3346 22.0617 21.4937 21.6323 21.5441C21.4103 21.5509 21.2336 21.5034 21.1973 21.4263C21.1203 21.2677 21.5236 21.1318 21.6346 21.0774C21.8589 20.9709 22.09 20.8803 22.3234 20.7942C22.6405 20.6809 23.2296 20.4657 23.4426 19.897C23.5748 19.3938 23.5406 18.8613 23.3452 18.3791C25.493 17.4887 27.8771 17.3435 30.1171 17.9667C29.8067 18.3881 29.4442 19.0293 29.553 19.6297C29.5572 19.6496 29.5625 19.6693 29.5688 19.6886C29.6379 19.9112 29.6595 20.1458 29.6323 20.3773C29.6264 20.3912 29.6161 20.4027 29.603 20.4101C29.5899 20.4175 29.5747 20.4203 29.5598 20.4181C28.9618 20.3602 28.3584 20.4313 27.7903 20.6266C27.5261 20.7423 27.307 20.9414 27.1667 21.1935C27.0263 21.4455 26.9724 21.7366 27.0132 22.0222C27.0371 22.1406 27.0348 22.2628 27.0064 22.3802C26.7107 22.5883 26.3843 22.7488 26.039 22.8559L25.9189 22.8831C25.4613 22.9805 24.3919 23.2116 24.453 24.093C24.4593 24.2299 24.4959 24.3637 24.5601 24.4848C24.6244 24.6059 24.7147 24.7111 24.8246 24.793C24.9359 24.8735 25.0611 24.9326 25.1939 24.9675C25.577 24.6156 25.9901 24.2979 26.4287 24.0182C26.3924 24.025 26.3675 24.0295 26.3584 24.0318C25.5541 24.2153 25.3638 24.0658 25.3638 24.0658C25.3605 24.058 25.3567 24.0504 25.3525 24.0431C25.3162 23.9865 26.1455 23.7622 26.2429 23.7395C26.7121 23.6007 27.1553 23.3856 27.5547 23.1029C27.7699 22.9511 28.0033 22.618 27.9127 21.9066C27.897 21.8181 27.9107 21.7268 27.9516 21.6467C27.9925 21.5665 28.0583 21.5019 28.1392 21.4626C28.5784 21.3214 29.0423 21.2743 29.5009 21.3244C29.7326 21.3395 29.9623 21.2717 30.1486 21.1331C30.335 20.9944 30.466 20.794 30.5181 20.5677C30.579 20.1929 30.5526 19.8091 30.4411 19.4462C30.4048 19.1358 30.7379 18.6102 31.0347 18.2703C32.4466 18.8118 33.7247 19.6525 34.781 20.7346C35.8373 21.8167 36.6469 23.1147 37.1541 24.5393ZM17.4908 26.6078C17.5066 26.6282 17.5225 26.6463 17.5384 26.6644C17.5474 26.6712 18.2928 27.4597 18.2475 28.9278C18.2359 29.1855 18.2788 29.4428 18.3732 29.6829C18.4677 29.923 18.6117 30.1404 18.7958 30.3212C18.9381 30.454 19.0973 30.5675 19.2693 30.6587C19.5078 30.8044 19.6898 31.0267 19.7853 31.2894C19.8808 31.5521 19.8842 31.8394 19.7949 32.1042C19.411 32.7784 19.1451 33.5132 19.0088 34.2769C18.1564 33.1507 17.5429 31.8622 17.2059 30.4905C16.8689 29.1188 16.8155 27.6927 17.049 26.2997C17.2205 26.3624 17.3727 26.4686 17.4908 26.6078Z" fill="#2D4356"/>
</g>
<defs>
<clipPath id="clip0_54_17990">
<rect width="29" height="29" fill="white" transform="translate(16 16)"/>
</clipPath>
</defs>
</svg>
