<svg width="60" height="60" viewBox="0 0 60 60" fill="none" xmlns="http://www.w3.org/2000/svg">
<rect width="60" height="60" rx="30" fill="#1E357E" fill-opacity="0.2"/>
<rect x="8" y="8" width="44" height="44" rx="22" fill="#1E357E" fill-opacity="0.3"/>
<g clip-path="url(#clip0_54_18050)">
<path d="M43.3721 20.3734V29.6855C43.3721 31.9903 42.3157 34.6655 40.3983 37.2184C38.1638 40.1927 34.8723 42.8181 30.8795 44.8108L30.5 45L30.1205 44.8108C26.1278 42.8181 22.8362 40.1927 20.6017 37.2184C18.6843 34.6655 17.6279 31.9903 17.6279 29.6855V20.3734L23.8904 16H37.1097L43.3721 20.3734Z" fill="#00358F"/>
<path d="M43.3721 20.3734V29.6855C43.3721 31.9903 42.3157 34.6655 40.3983 37.2184C38.1638 40.1927 34.8723 42.8181 30.8795 44.8108L30.5 45V16H37.1097L43.3721 20.3734Z" fill="#012453"/>
<path d="M36.0401 19.3984H24.9596L21.0264 22.145V29.6853C21.0264 32.2768 23.5759 37.3406 30.4999 41.1714C37.4239 37.3406 39.9734 32.2768 39.9734 29.6853V22.145L36.0401 19.3984Z" fill="#00B3FE"/>
<path d="M39.9735 22.145V29.6853C39.9735 32.2768 37.424 37.3406 30.5 41.1714V19.3984H36.0402L39.9735 22.145Z" fill="#0274F9"/>
<path d="M36.3075 18.5488H24.6923L20.1768 21.7021V29.6854C20.1768 31.3427 21.0162 33.4487 22.4793 35.4629C24.2607 37.9156 26.8918 40.1467 30.0887 41.9151L30.4999 42.1428L30.9111 41.9151C34.1081 40.1467 36.7391 37.9156 38.5205 35.4629C39.9836 33.4487 40.8231 31.3427 40.8231 29.6854V21.7021L36.3075 18.5488ZM39.1238 29.6854C39.1238 31.946 36.8179 36.5618 30.4999 40.196C24.182 36.5618 21.876 31.946 21.876 29.6854V22.588L25.227 20.2481H35.7728L39.1238 22.588V29.6854Z" fill="#EFF5FA"/>
<path d="M40.8232 21.7021V29.6854C40.8232 31.3427 39.9837 33.4487 38.5206 35.4629C36.7392 37.9156 34.1081 40.1467 30.9112 41.9151L30.5 42.1428V40.196C36.8179 36.5618 39.1239 31.946 39.1239 29.6854V22.588L35.7729 20.2481H30.5V18.5488H36.3076L40.8232 21.7021Z" fill="#C6E1EC"/>
<path d="M35.9244 25.8695L30.5003 31.4443L30.489 31.4562L29.1097 32.8734L25.0762 29.101L26.2368 27.86L29.0531 30.4944L30.489 29.0194L30.5003 29.0076L34.7066 24.6846L35.9244 25.8695Z" fill="#EFF5FA"/>
<path d="M35.9241 25.8695L30.5 31.4443V29.0076L34.7063 24.6846L35.9241 25.8695Z" fill="#C6E1EC"/>
</g>
<defs>
<clipPath id="clip0_54_18050">
<rect width="29" height="29" fill="white" transform="translate(16 16)"/>
</clipPath>
</defs>
</svg>
