<svg width="18" height="17" viewBox="0 0 18 17" fill="none" xmlns="http://www.w3.org/2000/svg">
<path d="M9.90586 0.562891C9.71836 0.208724 9.41628 0.021224 8.99961 0.000391006C8.60378 0.021224 8.30169 0.208724 8.09336 0.562891L6.09336 4.68789L1.59336 5.37539C1.19753 5.43789 0.937109 5.65664 0.812109 6.03164C0.687109 6.42747 0.770443 6.77122 1.06211 7.06289L4.31211 10.2816L3.53086 14.8441C3.48919 15.24 3.62461 15.5629 3.93711 15.8129C4.27044 16.0421 4.62461 16.0629 4.99961 15.8754L8.99961 13.7504L13.0309 15.8754C13.385 16.0629 13.7288 16.0421 14.0621 15.8129C14.3954 15.5629 14.5309 15.24 14.4684 14.8441L13.7184 10.2816L16.9684 7.06289C17.2392 6.77122 17.3225 6.42747 17.2184 6.03164C17.0725 5.65664 16.8017 5.43789 16.4059 5.37539L11.9059 4.68789L9.90586 0.562891Z" fill="#08B87F"/>
</svg>
