<svg width="20" height="20" viewBox="0 0 20 20" fill="none" xmlns="http://www.w3.org/2000/svg">
<path d="M3.55683 15.7042C3.74433 17.0959 4.89683 18.1867 6.30016 18.2509C7.48016 18.305 8.67933 18.3334 10.0002 18.3334C11.321 18.3334 12.5202 18.305 13.7002 18.25C15.1035 18.1867 16.256 17.0959 16.4435 15.7042C16.566 14.7959 16.6668 13.865 16.6668 12.9167C16.6668 11.9684 16.566 11.0375 16.4435 10.1292C16.256 8.73755 15.1035 7.64671 13.7002 7.58255C12.4676 7.52622 11.234 7.49871 10.0002 7.50005C8.67933 7.50005 7.48016 7.52838 6.30016 7.58338C4.89683 7.64671 3.74433 8.73755 3.55683 10.1292C3.4335 11.0375 3.3335 11.9684 3.3335 12.9167C3.3335 13.865 3.43433 14.7959 3.55683 15.7042Z" stroke="#808080" stroke-width="1.125"/>
<path d="M6.25 7.49935V5.41602C6.25 4.42145 6.64509 3.46763 7.34835 2.76437C8.05161 2.0611 9.00544 1.66602 10 1.66602C10.9946 1.66602 11.9484 2.0611 12.6516 2.76437C13.3549 3.46763 13.75 4.42145 13.75 5.41602V7.49935" stroke="#808080" stroke-width="1.125" stroke-linecap="round" stroke-linejoin="round"/>
<path d="M13.3337 12.9082V12.9165M10.0003 12.9082V12.9165M6.66699 12.9082V12.9165" stroke="#808080" stroke-width="1.5" stroke-linecap="round" stroke-linejoin="round"/>
</svg>
