<svg width="18" height="20" viewBox="0 0 18 20" fill="none" xmlns="http://www.w3.org/2000/svg">
<g clip-path="url(#clip0_78_1845)">
<path d="M15.3302 3.92775C15.3165 3.82775 15.2289 3.77241 15.1565 3.76631C14.6226 3.7262 14.0888 3.68641 13.5549 3.64693C13.5549 3.64693 12.4928 2.59248 12.3762 2.47577C12.2596 2.35912 12.0317 2.3946 11.9433 2.42063C11.9303 2.42446 11.7113 2.49207 11.3489 2.60419C10.9941 1.58323 10.368 0.645012 9.26641 0.645012C9.236 0.645012 9.2047 0.646245 9.17339 0.648026C8.86011 0.233711 8.47202 0.0537109 8.13682 0.0537109C5.57072 0.0537109 4.34476 3.26159 3.96038 4.89172C2.96326 5.2007 2.2549 5.42035 2.16442 5.44878C1.60785 5.62337 1.59024 5.6409 1.51716 6.16535C1.46216 6.56241 0.00585938 17.8247 0.00585938 17.8247L11.3537 19.9508L17.5023 18.6207C17.5023 18.6207 15.3438 4.02775 15.3302 3.92775ZM10.7218 2.79816L9.76154 3.09535C9.76189 3.02768 9.76223 2.96111 9.76223 2.8883C9.76223 2.25378 9.67415 1.74289 9.53285 1.33789C10.1004 1.40912 10.4785 2.05494 10.7218 2.79816ZM8.82874 1.46371C8.98654 1.85912 9.08915 2.42659 9.08915 3.19234C9.08915 3.23152 9.0888 3.26734 9.08846 3.30357C8.46401 3.497 7.78545 3.707 7.10538 3.91768C7.48723 2.44398 8.20298 1.7322 8.82874 1.46371ZM8.06634 0.741999C8.17709 0.741999 8.28867 0.779601 8.39545 0.853094C7.57305 1.24008 6.69154 2.21474 6.31928 4.16111L4.75175 4.64659C5.18778 3.162 6.22319 0.741999 8.06634 0.741999Z" fill="#95BF46"/>
<path d="M15.1558 3.76621C14.6219 3.7261 14.0881 3.6863 13.5542 3.64683C13.5542 3.64683 12.4921 2.59238 12.3755 2.47566C12.3319 2.43224 12.273 2.40998 12.2115 2.40039L11.3535 19.9506L17.5016 18.6206C17.5016 18.6206 15.3431 4.02765 15.3295 3.92765C15.3158 3.82765 15.2282 3.77231 15.1558 3.76621Z" fill="#5E8E3E"/>
<path d="M9.26623 7.16333L8.50808 9.41854C8.50808 9.41854 7.84384 9.06402 7.02959 9.06402C5.83589 9.06402 5.77582 9.81313 5.77582 10.0019C5.77582 11.0319 8.46075 11.4266 8.46075 13.8392C8.46075 15.7373 7.25685 16.9596 5.63356 16.9596C3.68562 16.9596 2.68945 15.7472 2.68945 15.7472L3.21103 14.024C3.21103 14.024 4.235 14.9031 5.09904 14.9031C5.66363 14.9031 5.89329 14.4585 5.89329 14.1337C5.89329 12.7902 3.69055 12.7303 3.69055 10.5225C3.69055 8.66436 5.02425 6.86621 7.71644 6.86621C8.75377 6.86621 9.26623 7.16333 9.26623 7.16333Z" fill="white"/>
</g>
<defs>
<clipPath id="clip0_78_1845">
<rect width="17.54" height="20" fill="white"/>
</clipPath>
</defs>
</svg>
