<svg width="78" height="78" viewBox="0 0 78 78" fill="none" xmlns="http://www.w3.org/2000/svg">
<path d="M0 19.5C0 8.73045 8.73045 0 19.5 0H58.5C69.2696 0 78 8.73045 78 19.5V58.5C78 69.2696 69.2696 78 58.5 78H19.5C8.73045 78 0 69.2696 0 58.5V19.5Z" fill="#E7000B" fill-opacity="0.1"/>
<g clip-path="url(#clip0_2243_1803)">
<path d="M23.9728 40.7687L24.2888 38.241C24.3096 38.0747 24.2635 37.907 24.1606 37.7747C24.0577 37.6424 23.9065 37.5564 23.7402 37.5356C23.5739 37.5149 23.4062 37.561 23.2739 37.6639C23.1416 37.7668 23.0556 37.918 23.0348 38.0843L22.7188 40.612C22.6981 40.7783 22.7442 40.946 22.8471 41.0783C22.95 41.2106 23.1012 41.2966 23.2675 41.3174C23.4338 41.3382 23.6015 41.292 23.7338 41.1891C23.8661 41.0863 23.9521 40.935 23.9728 40.7687Z" fill="#E7000B"/>
<path d="M35.2729 41.3174C35.3553 41.3071 35.4348 41.2807 35.507 41.2397C35.5791 41.1987 35.6425 41.1439 35.6934 41.0784C35.7444 41.0129 35.7819 40.938 35.8039 40.8579C35.8259 40.7779 35.8319 40.6943 35.8215 40.612L35.5056 38.0843C35.4953 38.0019 35.4689 37.9224 35.4279 37.8503C35.3868 37.7782 35.332 37.7148 35.2665 37.6639C35.201 37.6129 35.1261 37.5754 35.0461 37.5534C34.9661 37.5314 34.8825 37.5253 34.8002 37.5356C34.7179 37.5459 34.6384 37.5723 34.5662 37.6134C34.4941 37.6544 34.4307 37.7092 34.3798 37.7747C34.3289 37.8402 34.2913 37.9151 34.2693 37.9951C34.2473 38.0751 34.2413 38.1587 34.2516 38.241C34.2516 38.241 34.5674 40.7672 34.5675 40.7687C34.5904 40.9341 34.6769 41.084 34.8087 41.1865C34.9404 41.2889 35.107 41.3359 35.2729 41.3174Z" fill="#E7000B"/>
<path d="M38.4403 36.0928C38.4403 36.0928 38.83 40.7396 38.8303 40.7427C38.8466 40.9088 38.927 41.0621 39.0546 41.1698C39.1821 41.2775 39.3466 41.3313 39.5132 41.3195C39.5959 41.3126 39.6764 41.2894 39.7501 41.2513C39.8239 41.2133 39.8894 41.161 39.9429 41.0976C39.9965 41.0342 40.037 40.9609 40.0622 40.8818C40.0874 40.8028 40.0968 40.7195 40.0899 40.6368L39.7002 35.9913C39.5397 33.919 36.9432 33.0244 36.849 32.993L32.5088 31.4013V30.4511C33.5672 29.3442 33.9372 27.7568 34.1236 26.3263C34.1519 26.108 34.1853 25.8888 34.2186 25.6694C34.4373 24.2313 34.6848 22.6015 33.5299 21.1968C33.0967 20.6389 32.5536 20.1758 31.9342 19.8364C31.3148 19.4969 30.6323 19.2883 29.929 19.2234C29.7386 19.206 28.9462 19.2061 28.7419 19.226C28.0436 19.2943 27.3665 19.5043 26.7521 19.8432C26.1377 20.1821 25.5989 20.6427 25.1685 21.1969C24.0136 22.6015 24.2614 24.2313 24.4798 25.6694C24.5131 25.8888 24.5465 26.108 24.5748 26.3263C24.748 27.6562 25.1111 29.2821 26.1895 30.4261V31.4013L21.866 32.9873C21.7555 33.0244 19.159 33.919 18.9989 35.9871L18.6085 40.6368C18.5949 40.8037 18.6479 40.9691 18.7561 41.0968C18.8643 41.2246 19.0187 41.3042 19.1855 41.3182C19.3523 41.3322 19.5178 41.2795 19.6458 41.1716C19.7738 41.0637 19.8537 40.9094 19.8681 40.7427L20.2587 36.0888C20.3528 34.8713 22.2501 34.1915 22.2844 34.1798L26.1895 32.7476V33.0372C26.1896 33.1901 26.245 33.3378 26.3457 33.4529L28.857 36.3269C28.9161 36.3945 28.989 36.4488 29.0707 36.486C29.1524 36.5233 29.2411 36.5427 29.3309 36.543C29.4207 36.5433 29.5096 36.5245 29.5915 36.4877C29.6735 36.451 29.7466 36.3972 29.8062 36.33L32.3502 33.456C32.4524 33.3404 32.5088 33.1915 32.5088 33.0372V32.7476L36.4291 34.185C36.4482 34.1915 38.3459 34.8713 38.4403 36.0928ZM26.1448 21.9997C26.4691 21.5734 26.878 21.2187 27.3459 20.9579C27.8137 20.6971 28.3304 20.5358 28.8635 20.484C28.966 20.4741 29.7188 20.4732 29.8133 20.482C30.3503 20.5311 30.8713 20.6913 31.343 20.9526C31.8148 21.2138 32.227 21.5704 32.5536 21.9995C32.8669 22.381 33.0615 22.846 33.1133 23.337C31.7683 24.0613 31.0503 23.1523 30.9225 22.9653C30.8681 22.8823 30.795 22.8133 30.709 22.7639C30.623 22.7144 30.5265 22.6859 30.4274 22.6806C30.3284 22.6754 30.2294 22.6935 30.1387 22.7335C30.0479 22.7736 29.9678 22.8344 29.9049 22.9111C28.1689 25.03 26.1053 24.5872 25.5894 24.4331C25.5008 23.521 25.5622 22.7083 26.1448 21.9997ZM31.245 32.7977L29.3359 34.9543L27.4534 32.8V31.3415C27.9332 31.5685 28.4452 31.7198 28.9712 31.7903C29.2378 31.8075 29.5053 31.8054 29.7716 31.784C30.2814 31.7117 30.7778 31.565 31.245 31.3486V32.7977ZM29.5862 30.5338C29.4406 30.5498 29.2939 30.5514 29.148 30.5388C27.184 30.2618 26.1914 28.9532 25.8282 26.1631C25.8112 26.0333 25.7912 25.9028 25.7717 25.7726C26.0451 25.819 26.3218 25.8425 26.599 25.8428C27.3068 25.8404 28.0071 25.6978 28.6594 25.4231C29.3118 25.1485 29.9032 24.7472 30.3995 24.2426C30.7654 24.5488 31.2047 24.7543 31.6743 24.8389C32.1438 24.9234 32.6273 24.884 33.0769 24.7246C33.0464 24.9694 33.0084 25.221 32.9692 25.4794C32.9347 25.7078 32.8998 25.936 32.8702 26.1629C32.5036 28.9753 31.552 30.2416 29.5862 30.5338Z" fill="#E7000B"/>
<path d="M42.6981 55.8656C42.6158 55.8553 42.5322 55.8613 42.4521 55.8833C42.3721 55.9052 42.2972 55.9428 42.2316 55.9938C42.1661 56.0447 42.1113 56.1081 42.0703 56.1803C42.0293 56.2525 42.003 56.332 41.9927 56.4144L41.6768 58.9429C41.656 59.1092 41.7021 59.2769 41.805 59.4092C41.9079 59.5415 42.0591 59.6275 42.2254 59.6483C42.3917 59.6691 42.5594 59.623 42.6917 59.5201C42.824 59.4172 42.91 59.266 42.9308 59.0997L43.2467 56.5711C43.2571 56.4888 43.2511 56.4052 43.2291 56.3252C43.2071 56.2451 43.1696 56.1702 43.1187 56.1047C43.0677 56.0392 43.0043 55.9843 42.9322 55.9433C42.86 55.9023 42.7805 55.8759 42.6981 55.8656Z" fill="#E7000B"/>
<path d="M54.4635 56.4162C54.4532 56.3338 54.4268 56.2543 54.3858 56.1822C54.3448 56.1101 54.2899 56.0467 54.2244 55.9958C54.1589 55.9448 54.084 55.9073 54.004 55.8853C53.924 55.8633 53.8405 55.8573 53.7581 55.8676C53.6758 55.8778 53.5963 55.9043 53.5241 55.9453C53.452 55.9863 53.3887 56.0411 53.3377 56.1066C53.2868 56.1721 53.2492 56.247 53.2272 56.327C53.2052 56.407 53.1992 56.4906 53.2095 56.5729C53.2095 56.5729 53.5253 59.0999 53.5255 59.1014C53.5483 59.2668 53.6348 59.4168 53.7666 59.5193C53.8983 59.6218 54.0649 59.6688 54.2309 59.6502C54.3132 59.64 54.3928 59.6136 54.4649 59.5726C54.5371 59.5315 54.6005 59.4767 54.6514 59.4112C54.7024 59.3457 54.7399 59.2707 54.7619 59.1907C54.7838 59.1106 54.7898 59.0271 54.7795 58.9447L54.4635 56.4162Z" fill="#E7000B"/>
<path d="M58.6578 54.3222C58.4974 52.2494 55.9008 51.3544 55.8067 51.323L51.4665 49.7309V48.7803C52.5249 47.6731 52.8948 46.0853 53.0812 44.6543C53.1096 44.436 53.1429 44.2168 53.1762 43.9972C53.395 42.5587 53.6425 40.9284 52.4875 39.5234C52.0545 38.9653 51.5114 38.5022 50.892 38.1626C50.2726 37.823 49.59 37.6143 48.8866 37.5494C48.6962 37.532 47.9039 37.5321 47.6996 37.552C47.0012 37.6203 46.3241 37.8304 45.7097 38.1694C45.0952 38.5084 44.5564 38.9692 44.1262 39.5236C42.9712 40.9284 43.219 42.5587 43.4375 43.9972C43.4708 44.2168 43.5041 44.436 43.5325 44.6543C43.7056 45.9847 44.0688 47.6111 45.1472 48.7554V49.7309L40.8236 51.3173C40.7132 51.3544 38.1166 52.2494 37.9565 54.3181L37.5662 58.9692C37.559 59.052 37.5683 59.1353 37.5934 59.2146C37.6186 59.2938 37.6591 59.3673 37.7127 59.4308C37.7662 59.4943 37.8318 59.5467 37.9056 59.5848C37.9795 59.623 38.0601 59.6462 38.1429 59.6532C38.2257 59.6601 38.3091 59.6507 38.3883 59.6254C38.4674 59.6001 38.5408 59.5594 38.6042 59.5057C38.6677 59.452 38.7199 59.3863 38.7579 59.3124C38.7959 59.2385 38.8189 59.1578 38.8257 59.075L39.2164 54.4198C39.3105 53.2019 41.2078 52.5219 41.242 52.5102L45.1472 51.0776V51.3672C45.1472 51.5202 45.2027 51.6679 45.3033 51.7831L47.8147 54.658C47.8738 54.7256 47.9466 54.7798 48.0283 54.8171C48.11 54.8544 48.1988 54.8738 48.2886 54.8741C48.3784 54.8744 48.4672 54.8556 48.5492 54.8188C48.6311 54.7821 48.7043 54.7283 48.7638 54.6611L51.3079 51.7862C51.4101 51.6705 51.4665 51.5215 51.4665 51.3672V51.0776L55.3867 52.5155C55.4059 52.5219 57.3035 53.2019 57.398 54.4238C57.398 54.4238 57.7877 59.0719 57.788 59.075C57.8042 59.2412 57.8846 59.3945 58.0122 59.5022C58.1397 59.61 58.3043 59.6637 58.4708 59.652C58.5535 59.6451 58.6341 59.6219 58.7078 59.5838C58.7815 59.5457 58.8471 59.4935 58.9006 59.43C58.9542 59.3666 58.9947 59.2933 59.0199 59.2142C59.0451 59.1351 59.0545 59.0519 59.0475 58.9692L58.6578 54.3222ZM45.1024 40.3264C45.4267 39.9001 45.8356 39.5453 46.3034 39.2844C46.7713 39.0235 47.288 38.8621 47.8212 38.8103C47.9236 38.8005 48.6765 38.7995 48.7709 38.8083C49.308 38.8574 49.829 39.0177 50.3008 39.279C50.7725 39.5404 51.1848 39.897 51.5112 40.3263C51.8246 40.7079 52.0192 41.1731 52.071 41.6642C50.726 42.3887 50.0079 41.4794 49.8802 41.2924C49.8258 41.2094 49.7527 41.1403 49.6667 41.0909C49.5806 41.0414 49.4842 41.0129 49.3851 41.0076C49.286 41.0023 49.1871 41.0204 49.0963 41.0605C49.0055 41.1006 48.9254 41.1615 48.8626 41.2382C47.1266 43.3577 45.063 42.9148 44.547 42.7607C44.4585 41.8483 44.5199 41.0352 45.1024 40.3264ZM50.2026 51.1277L48.2936 53.2849L46.4111 51.1301V49.671C46.8908 49.8981 47.4028 50.0495 47.9289 50.12C48.1955 50.1372 48.463 50.1351 48.7293 50.1137C49.2391 50.0414 49.7355 49.8946 50.2026 49.6781V51.1277ZM48.5438 48.8632C48.3983 48.8792 48.2515 48.8808 48.1057 48.8681C46.1417 48.591 45.1491 47.282 44.7859 44.4911C44.7689 44.3613 44.7489 44.2308 44.7294 44.1004C45.0027 44.1469 45.2794 44.1705 45.5566 44.1708C46.2645 44.1684 46.9649 44.0257 47.6172 43.7509C48.2695 43.4762 48.8609 43.0748 49.3572 42.57C49.723 42.8763 50.1623 43.0819 50.6319 43.1665C51.1014 43.251 51.5849 43.2116 52.0346 43.0521C52.004 43.2971 51.9661 43.5487 51.9269 43.8073C51.8923 44.0356 51.8574 44.264 51.8278 44.4909C51.4613 47.3042 50.5097 48.5709 48.5438 48.8632Z" fill="#E7000B"/>
<path d="M43.2476 31.8493H47.2637L49.0337 34.7095C49.0904 34.8011 49.1695 34.8766 49.2635 34.929C49.3575 34.9815 49.4634 35.009 49.5711 35.009C49.6788 35.009 49.7846 34.9815 49.8787 34.929C49.9727 34.8766 50.0518 34.8011 50.1085 34.7095L51.8785 31.8493H55.8946C56.4055 31.8308 56.8891 31.6137 57.2423 31.2441C57.5956 30.8745 57.7907 30.3816 57.7862 29.8704V22.9829C57.7836 22.4834 57.583 22.0053 57.2284 21.6535C56.8737 21.3018 56.3941 21.105 55.8946 21.1065H43.2476C42.7481 21.105 42.2684 21.3018 41.9138 21.6535C41.5592 22.0053 41.3586 22.4834 41.356 22.9829V29.8704C41.3514 30.3816 41.5466 30.8745 41.8998 31.2441C42.2531 31.6137 42.7367 31.8308 43.2476 31.8493ZM42.6199 22.9829C42.6221 22.8185 42.6894 22.6616 42.8071 22.5468C42.9248 22.432 43.0832 22.3685 43.2476 22.3704H55.8946C56.059 22.3685 56.2174 22.432 56.3351 22.5468C56.4528 22.6616 56.5201 22.8185 56.5223 22.9829V29.8704C56.5243 30.046 56.4613 30.2162 56.3454 30.3482C56.2296 30.4802 56.069 30.5647 55.8946 30.5855H51.5264C51.4188 30.5854 51.3129 30.613 51.2188 30.6654C51.1248 30.7178 51.0457 30.7934 50.9891 30.8849L49.5711 33.1761L48.1531 30.8849C48.0965 30.7934 48.0174 30.7178 47.9233 30.6654C47.8293 30.613 47.7234 30.5854 47.6157 30.5855H43.2476C43.0732 30.5647 42.9126 30.4802 42.7968 30.3482C42.6809 30.2162 42.6179 30.046 42.6199 29.8704V22.9829Z" fill="#E7000B"/>
<path d="M45.7794 25.846H53.3626C53.5302 25.846 53.6909 25.7794 53.8094 25.6609C53.928 25.5424 53.9945 25.3816 53.9945 25.214C53.9945 25.0464 53.928 24.8857 53.8094 24.7672C53.6909 24.6487 53.5302 24.5821 53.3626 24.5821H45.7794C45.6118 24.5821 45.4511 24.6487 45.3326 24.7672C45.2141 24.8857 45.1475 25.0464 45.1475 25.214C45.1475 25.3816 45.2141 25.5424 45.3326 25.6609C45.4511 25.7794 45.6118 25.846 45.7794 25.846Z" fill="#E7000B"/>
<path d="M45.7794 28.3737H53.3626C53.5302 28.3737 53.6909 28.3071 53.8094 28.1886C53.928 28.0701 53.9945 27.9094 53.9945 27.7418C53.9945 27.5742 53.928 27.4134 53.8094 27.2949C53.6909 27.1764 53.5302 27.1098 53.3626 27.1098H45.7794C45.6118 27.1098 45.4511 27.1764 45.3326 27.2949C45.2141 27.4134 45.1475 27.5742 45.1475 27.7418C45.1475 27.9094 45.2141 28.0701 45.3326 28.1886C45.4511 28.3071 45.6118 28.3737 45.7794 28.3737Z" fill="#E7000B"/>
<path d="M34.4089 47.0156H30.3929L28.6228 44.1555C28.5662 44.0639 28.4871 43.9883 28.393 43.9359C28.299 43.8835 28.1931 43.856 28.0854 43.856C27.9778 43.856 27.8719 43.8835 27.7779 43.9359C27.6838 43.9883 27.6047 44.0639 27.5481 44.1555L25.778 47.0156H21.762C21.251 47.0342 20.7675 47.2513 20.4142 47.6209C20.0609 47.9905 19.8658 48.4833 19.8703 48.9946V55.8821C19.8729 56.3816 20.0736 56.8597 20.4282 57.2114C20.7828 57.5632 21.2625 57.7599 21.762 57.7585H34.4089C34.9084 57.7599 35.3881 57.5632 35.7427 57.2114C36.0973 56.8597 36.298 56.3816 36.3005 55.8821V48.9946C36.3051 48.4833 36.11 47.9905 35.7567 47.6209C35.4034 47.2513 34.9199 47.0342 34.4089 47.0156ZM35.0367 55.8821C35.0345 56.0465 34.9671 56.2033 34.8494 56.3181C34.7318 56.433 34.5733 56.4964 34.4089 56.4946H21.762C21.5976 56.4964 21.4391 56.433 21.3215 56.3181C21.2038 56.2033 21.1364 56.0465 21.1342 55.8821V48.9946C21.1322 48.819 21.1952 48.6488 21.3111 48.5168C21.427 48.3848 21.5876 48.3003 21.762 48.2795H26.1301C26.2378 48.2795 26.3436 48.252 26.4377 48.1996C26.5317 48.1472 26.6108 48.0716 26.6675 47.98L28.0854 45.6888L29.5034 47.98C29.5601 48.0716 29.6392 48.1472 29.7332 48.1996C29.8273 48.252 29.9331 48.2795 30.0408 48.2795H34.4089C34.5833 48.3003 34.7439 48.3848 34.8598 48.5168C34.9757 48.6488 35.0387 48.819 35.0367 48.9946V55.8821Z" fill="#E7000B"/>
<path d="M31.877 50.4913H24.2938C24.1262 50.4913 23.9655 50.5578 23.8469 50.6764C23.7284 50.7949 23.6619 50.9556 23.6619 51.1232C23.6619 51.2908 23.7284 51.4515 23.8469 51.57C23.9655 51.6885 24.1262 51.7551 24.2938 51.7551H31.877C32.0446 51.7551 32.2053 51.6885 32.3238 51.57C32.4423 51.4515 32.5089 51.2908 32.5089 51.1232C32.5089 50.9556 32.4423 50.7949 32.3238 50.6764C32.2053 50.5578 32.0446 50.4913 31.877 50.4913Z" fill="#E7000B"/>
<path d="M31.877 53.019H24.2938C24.1262 53.019 23.9655 53.0856 23.8469 53.2041C23.7284 53.3226 23.6619 53.4833 23.6619 53.6509C23.6619 53.8185 23.7284 53.9793 23.8469 54.0978C23.9655 54.2163 24.1262 54.2828 24.2938 54.2828H31.877C32.0446 54.2828 32.2053 54.2163 32.3238 54.0978C32.4423 53.9793 32.5089 53.8185 32.5089 53.6509C32.5089 53.4833 32.4423 53.3226 32.3238 53.2041C32.2053 53.0856 32.0446 53.019 31.877 53.019Z" fill="#E7000B"/>
</g>
<defs>
<clipPath id="clip0_2243_1803">
<rect width="40" height="40" fill="white" transform="translate(18.6064 19.2107) scale(1.01109)"/>
</clipPath>
</defs>
</svg>
