<svg width="71" height="71" viewBox="0 0 71 71" fill="none" xmlns="http://www.w3.org/2000/svg">
<path d="M0 17.75C0 7.94692 7.94693 0 17.75 0H53.2499C63.053 0 70.9999 7.94693 70.9999 17.75V53.2499C70.9999 63.053 63.053 70.9999 53.2499 70.9999H17.75C7.94692 70.9999 0 63.053 0 53.2499V17.75Z" fill="#D094DD" fill-opacity="0.1"/>
<path d="M33.7247 33.4523C33.7247 32.6389 33.0649 31.9791 32.2515 31.9791C31.4381 31.9791 30.7783 32.6389 30.7783 33.4523C30.7783 34.2656 31.4381 34.9255 32.2515 34.9255C33.066 34.9255 33.7247 34.2656 33.7247 33.4523Z" fill="#D094DD"/>
<path d="M39.0759 33.4523C39.0759 32.6389 38.4161 31.9791 37.6027 31.9791C36.7893 31.9791 36.1295 32.6389 36.1295 33.4523C36.1295 34.2656 36.7893 34.9255 37.6027 34.9255C38.4161 34.9255 39.0759 34.2656 39.0759 33.4523Z" fill="#D094DD"/>
<path d="M42.954 34.9255C43.7676 34.9255 44.4271 34.2659 44.4271 33.4523C44.4271 32.6386 43.7676 31.9791 42.954 31.9791C42.1403 31.9791 41.4808 32.6386 41.4808 33.4523C41.4808 34.2659 42.1403 34.9255 42.954 34.9255Z" fill="#D094DD"/>
<path d="M46.5396 22.743H28.668C27.1243 22.743 25.6579 23.561 24.8411 24.8772C24.5431 25.3572 24.691 25.9897 25.171 26.2866C25.6499 26.5858 26.2836 26.4368 26.5805 25.9567C27.0276 25.2389 27.8273 24.7918 28.668 24.7918H46.5396C47.907 24.7918 49.0196 25.9044 49.0196 27.2718V39.6261C49.0196 40.9935 47.907 42.106 46.5396 42.106H41.2498C40.9768 42.106 40.7129 42.2164 40.5206 42.4109L37.7642 45.2026C37.7051 45.2629 37.5879 45.2674 37.6038 45.2697C37.564 45.2697 37.5071 45.2583 37.448 45.198L34.6836 42.4109C34.4913 42.2175 34.2308 42.1072 33.9567 42.1072H28.6669C27.8216 42.1072 27.039 41.6715 26.5725 40.9423C26.2677 40.4656 25.6329 40.3268 25.1585 40.6306C24.6819 40.9366 24.5419 41.568 24.8468 42.0446C25.692 43.3665 27.1197 44.156 28.6669 44.156H33.5301L35.9805 46.6269C36.4025 47.0694 36.9747 47.314 37.5902 47.3174H37.6038C38.2101 47.3174 38.8028 47.0682 39.2237 46.6382L41.6753 44.1549H46.5373C49.0332 44.1549 51.065 42.1231 51.065 39.6272V27.2718C51.0673 24.7748 49.0355 22.743 46.5396 22.743Z" fill="#D094DD"/>
<path d="M27.8135 36.9391C27.8135 36.3737 27.355 35.9152 26.7897 35.9152H22.8001C22.2347 35.9152 21.7763 36.3737 21.7763 36.9391C21.7763 37.5045 22.2347 37.9629 22.8001 37.9629H26.7897C27.355 37.9629 27.8135 37.5045 27.8135 36.9391Z" fill="#D094DD"/>
<path d="M27.8136 33.4522C27.8136 32.8868 27.3551 32.4284 26.7898 32.4284H21.6319C21.0665 32.4284 20.6081 32.8868 20.6081 33.4522C20.6081 34.0176 21.0665 34.4761 21.6319 34.4761H26.7886C27.3551 34.4772 27.8136 34.0176 27.8136 33.4522Z" fill="#D094DD"/>
<path d="M27.8134 29.9683C27.8134 29.403 27.3549 28.9445 26.7896 28.9445H20.4657C19.9003 28.9445 19.4418 29.403 19.4418 29.9683C19.4418 30.5337 19.9003 30.9922 20.4657 30.9922H26.7896C27.3549 30.9922 27.8134 30.5337 27.8134 29.9683Z" fill="#D094DD"/>
</svg>
