<svg width="71" height="71" viewBox="0 0 71 71" fill="none" xmlns="http://www.w3.org/2000/svg">
<path d="M0 17.75C0 7.94692 7.94693 0 17.75 0H53.2499C63.053 0 70.9999 7.94693 70.9999 17.75V53.2499C70.9999 63.053 63.053 70.9999 53.2499 70.9999H17.75C7.94692 70.9999 0 63.053 0 53.2499V17.75Z" fill="#27AE60" fill-opacity="0.1"/>
<g clip-path="url(#clip0_2111_869)">
<path d="M35.0058 17.8401C25.5264 17.8401 17.8154 25.5511 17.8154 35.0304C17.8154 44.5098 25.5264 52.2208 35.0058 52.2208C44.4851 52.2208 52.1961 44.5084 52.1961 35.0304C52.1961 25.5525 44.4851 17.8401 35.0058 17.8401ZM35.0058 49.5577C26.9965 49.5577 20.4785 43.0411 20.4785 35.0304C20.4785 27.0198 26.9965 20.5032 35.0058 20.5032C43.0164 20.5032 49.533 27.0198 49.533 35.0304C49.533 43.0411 43.015 49.5577 35.0058 49.5577Z" fill="#27AE60"/>
<path d="M42.8922 29.0517C42.3502 28.5591 41.5074 28.5977 41.0121 29.1423L32.8896 38.0863L28.9655 34.097C28.4475 33.5724 27.606 33.5644 27.0827 34.0811C26.558 34.5964 26.55 35.4392 27.0667 35.9639L31.9787 40.9572C32.2304 41.2128 32.5713 41.3553 32.9281 41.3553C32.9361 41.3553 32.9454 41.3553 32.9534 41.3567C33.3209 41.3487 33.6672 41.1915 33.9135 40.9199L42.9826 30.9333C43.4767 30.3873 43.4368 29.5458 42.8922 29.0517Z" fill="#27AE60"/>
</g>
<defs>
<clipPath id="clip0_2111_869">
<rect width="34" height="34" fill="white" transform="translate(17.8154 17.8401) scale(1.0112)"/>
</clipPath>
</defs>
</svg>
