<svg width="78" height="78" viewBox="0 0 78 78" fill="none" xmlns="http://www.w3.org/2000/svg">
<path d="M0 19.5C0 8.73045 8.73045 0 19.5 0H58.5C69.2696 0 78 8.73045 78 19.5V58.5C78 69.2696 69.2696 78 58.5 78H19.5C8.73045 78 0 69.2696 0 58.5V19.5Z" fill="#EAB308" fill-opacity="0.1"/>
<g clip-path="url(#clip0_2243_1791)">
<path d="M54.8167 49.2811C54.1166 48.7603 53.1269 48.9057 52.6062 49.6056C52.3197 49.9906 52.0132 50.3683 51.6952 50.7281C51.1173 51.3818 51.1787 52.3802 51.8324 52.9581C52.133 53.2238 52.5062 53.3543 52.8781 53.3543C53.3151 53.3543 53.7502 53.174 54.0624 52.8208C54.4391 52.3947 54.802 51.9475 55.1412 51.4915C55.662 50.7915 55.5168 49.8018 54.8167 49.2811Z" fill="#EAB308"/>
<path d="M57.4584 41.8723C56.6064 41.6867 55.7643 42.2274 55.5787 43.0799C55.4766 43.5489 55.3532 44.0187 55.2117 44.4765C54.9541 45.3102 55.4211 46.1947 56.2547 46.4523C56.4101 46.5003 56.5671 46.5231 56.7217 46.5231C57.3962 46.5231 58.0209 46.0876 58.2305 45.4092C58.3985 44.8659 58.5449 44.3083 58.6661 43.7519C58.8517 42.8995 58.311 42.0579 57.4584 41.8723Z" fill="#EAB308"/>
<path d="M47.2122 54.3414C46.7928 54.5755 46.3585 54.7943 45.9215 54.9917C45.1263 55.3508 44.7728 56.2865 45.1319 57.0817C45.3957 57.6659 45.9707 58.0117 46.5726 58.0117C46.79 58.0117 47.0109 57.9666 47.2219 57.8713C47.7403 57.6372 48.2552 57.3777 48.7525 57.1C49.5144 56.6748 49.7872 55.7123 49.3617 54.9505C48.9365 54.1888 47.9741 53.9161 47.2122 54.3414Z" fill="#EAB308"/>
<path d="M37.2486 26.7939V38.7781L31.4554 44.5712C30.8385 45.1882 30.8385 46.1884 31.4554 46.8054C31.764 47.1139 32.1682 47.2681 32.5726 47.2681C32.9769 47.2681 33.3812 47.1138 33.6898 46.8054L39.9456 40.5496C40.2418 40.2534 40.4082 39.8514 40.4082 39.4325V26.7939C40.4082 25.9213 39.701 25.214 38.8284 25.214C37.9559 25.214 37.2486 25.9213 37.2486 26.7939Z" fill="#EAB308"/>
<path d="M57.4702 22.6073C56.5976 22.6073 55.8903 23.3146 55.8903 24.1871V28.574C52.2131 22.807 45.7914 19.2107 38.8282 19.2107C33.4268 19.2107 28.3487 21.3142 24.5292 25.1335C20.7099 28.9529 18.6064 34.0311 18.6064 39.4325C18.6064 44.8339 20.7099 49.912 24.5292 53.7315C28.3487 57.5508 33.4268 59.6543 38.8282 59.6543C38.8415 59.6543 38.8544 59.6526 38.8677 59.6523C38.881 59.6526 38.8938 59.6543 38.9072 59.6543C39.4766 59.6543 40.0515 59.6302 40.6163 59.583C41.4858 59.5102 42.1316 58.7463 42.0589 57.8769C41.9859 57.0074 41.2231 56.3613 40.3526 56.4344C39.8752 56.4743 39.389 56.4946 38.9072 56.4946C38.8938 56.4946 38.881 56.4963 38.8677 56.4966C38.8544 56.4963 38.8415 56.4946 38.8282 56.4946C29.4201 56.4946 21.7661 48.8406 21.7661 39.4325C21.7661 30.0244 29.4201 22.3703 38.8282 22.3703C44.8914 22.3703 50.4681 25.6021 53.5155 30.7434H49.1716C48.299 30.7434 47.5917 31.4507 47.5917 32.3233C47.5917 33.1958 48.299 33.9031 49.1716 33.9031H53.9945C54.9566 33.9031 55.8568 33.6327 56.6231 33.1643C56.6724 33.1362 56.7198 33.1059 56.765 33.0733C58.1399 32.1687 59.05 30.6129 59.05 28.8476V24.1871C59.05 23.3146 58.3427 22.6073 57.4702 22.6073Z" fill="#EAB308"/>
</g>
<defs>
<clipPath id="clip0_2243_1791">
<rect width="40" height="40" fill="white" transform="translate(18.6064 19.2107) scale(1.01109)"/>
</clipPath>
</defs>
</svg>
