<svg width="71" height="71" viewBox="0 0 71 71" fill="none" xmlns="http://www.w3.org/2000/svg">
<path d="M0 17.75C0 7.94692 7.94693 0 17.75 0H53.2499C63.053 0 70.9999 7.94693 70.9999 17.75V53.2499C70.9999 63.053 63.053 70.9999 53.2499 70.9999H17.75C7.94692 70.9999 0 63.053 0 53.2499V17.75Z" fill="url(#paint0_linear_2111_896)" fill-opacity="0.1"/>
<path d="M34.5653 19.1673C29.2693 19.1673 24.9491 23.5023 24.9491 28.7983C24.9491 32.0357 26.569 34.9041 29.0344 36.6488C23.2841 38.9529 19.2048 44.5752 19.2048 51.1354C19.2136 51.5319 19.3773 51.9091 19.6608 52.1863C19.9443 52.4636 20.3251 52.619 20.7216 52.619C21.1182 52.619 21.499 52.4636 21.7825 52.1863C22.0659 51.9091 22.2296 51.5319 22.2384 51.1354C22.2384 44.1733 27.852 38.5626 34.8142 38.5626C37.2445 38.5626 39.5004 39.2555 41.4205 40.4439C41.5906 40.5495 41.7797 40.6204 41.9772 40.6528C42.1747 40.6851 42.3767 40.6782 42.5715 40.6325C42.7663 40.5867 42.9502 40.5029 43.1126 40.386C43.2751 40.269 43.4128 40.1213 43.518 39.951C43.6232 39.7808 43.6938 39.5914 43.7257 39.3938C43.7576 39.1962 43.7503 38.9942 43.704 38.7995C43.6578 38.6048 43.5736 38.4211 43.4563 38.2589C43.3389 38.0968 43.1908 37.9594 43.0203 37.8546C42.1551 37.3192 41.2158 36.9 40.2474 36.5393C42.6332 34.7856 44.1964 31.9711 44.1964 28.7983C44.1964 23.5023 39.8613 19.1673 34.5653 19.1673ZM34.5653 22.2037C38.2219 22.2037 41.1628 25.1418 41.1628 28.7983C41.1628 32.4548 38.2219 35.381 34.5653 35.381C30.9088 35.381 27.9827 32.4548 27.9827 28.7983C27.9827 25.1418 30.9088 22.2037 34.5653 22.2037ZM49.917 40.4083C49.6704 40.4155 49.4293 40.4825 49.2146 40.6038C48.9998 40.7251 48.8179 40.897 48.6846 41.1045L43.4558 48.9403L40.1763 46.745C40.01 46.6332 39.8233 46.5554 39.6268 46.5159C39.4304 46.4764 39.228 46.476 39.0314 46.5148C38.8349 46.5536 38.6479 46.631 38.4812 46.7422C38.3145 46.8535 38.1714 46.9965 38.0601 47.1632C37.9489 47.3298 37.8715 47.5166 37.8326 47.7132C37.7937 47.9098 37.794 48.1123 37.8335 48.3087C37.8729 48.5052 37.9507 48.6919 38.0625 48.8583C38.1742 49.0246 38.3177 49.1672 38.4847 49.278L43.044 52.3116C43.2101 52.4218 43.3962 52.4982 43.5919 52.5364C43.7875 52.5746 43.9887 52.5738 44.184 52.5341C44.3794 52.4945 44.565 52.4169 44.7303 52.3055C44.8956 52.1941 45.0373 52.0513 45.1473 51.8851L51.2175 42.7814C51.3758 42.5501 51.4669 42.2795 51.4808 41.9995C51.4946 41.7196 51.4306 41.4412 51.2959 41.1955C51.1612 40.9497 50.9611 40.746 50.7177 40.6071C50.4742 40.4682 50.1971 40.3993 49.917 40.4083Z" fill="url(#paint1_linear_2111_896)"/>
<defs>
<linearGradient id="paint0_linear_2111_896" x1="-43.2656" y1="-15.5312" x2="113.156" y2="107.055" gradientUnits="userSpaceOnUse">
<stop stop-color="#27AE60"/>
<stop offset="1" stop-color="#0052CC"/>
</linearGradient>
<linearGradient id="paint1_linear_2111_896" x1="-0.464453" y1="11.8497" x2="72.5635" y2="67.0725" gradientUnits="userSpaceOnUse">
<stop stop-color="#27AE60"/>
<stop offset="1" stop-color="#0052CC"/>
</linearGradient>
</defs>
</svg>
