<svg width="78" height="78" viewBox="0 0 78 78" fill="none" xmlns="http://www.w3.org/2000/svg">
<path d="M0 19.5C0 8.73045 8.73045 0 19.5 0H58.5C69.2696 0 78 8.73045 78 19.5V58.5C78 69.2696 69.2696 78 58.5 78H19.5C8.73045 78 0 69.2696 0 58.5V19.5Z" fill="#436CC8" fill-opacity="0.1"/>
<path d="M41.8694 29.3216H29.7363C29.1782 29.3216 28.7252 29.7746 28.7252 30.3327C28.7252 30.8908 29.1782 31.3438 29.7363 31.3438H41.8694C42.4275 31.3438 42.8804 30.8908 42.8804 30.3327C42.8804 29.7746 42.4275 29.3216 41.8694 29.3216Z" fill="#436CC8"/>
<path d="M37.825 33.3659H29.7363C29.1782 33.3659 28.7252 33.8189 28.7252 34.377C28.7252 34.9352 29.1782 35.3881 29.7363 35.3881H37.825C38.3831 35.3881 38.8361 34.9352 38.8361 34.377C38.8361 33.8189 38.3831 33.3659 37.825 33.3659Z" fill="#436CC8"/>
<path d="M44.9026 23.2551H26.703C24.4726 23.2551 22.6587 25.0689 22.6587 27.2994V47.5212C22.6587 47.9135 22.8852 48.2714 23.2411 48.4372C23.3765 48.4999 23.5242 48.5323 23.6698 48.5323C23.9023 48.5323 24.1328 48.4514 24.3169 48.2977L30.1023 43.4768H44.9026C47.1331 43.4768 48.947 41.6629 48.947 39.4325V27.2994C48.947 25.0689 47.1331 23.2551 44.9026 23.2551ZM46.9248 39.4325C46.9248 40.5467 46.0189 41.4547 44.9026 41.4547H29.7363C29.4997 41.4547 29.2712 41.5376 29.0892 41.6892L24.6808 45.3635V27.2994C24.6808 26.1852 25.5868 25.2772 26.703 25.2772H44.9026C46.0189 25.2772 46.9248 26.1852 46.9248 27.2994V39.4325Z" fill="#436CC8"/>
<path d="M50.9692 31.3438C50.411 31.3438 49.9581 31.7967 49.9581 32.3549C49.9581 32.913 50.411 33.3659 50.9692 33.3659C52.0854 33.3659 52.9913 34.2739 52.9913 35.3881V52.4937L49.5779 49.7638C49.4 49.6222 49.1755 49.5434 48.947 49.5434H34.7917C33.6755 49.5434 32.7696 48.6354 32.7696 47.5212V46.5101C32.7696 45.952 32.3166 45.499 31.7585 45.499C31.2003 45.499 30.7474 45.952 30.7474 46.5101V47.5212C30.7474 49.7517 32.5613 51.5655 34.7917 51.5655H48.5911L53.3695 55.3895C53.5535 55.5351 53.778 55.6099 54.0024 55.6099C54.15 55.6099 54.2997 55.5775 54.4412 55.5108C54.7911 55.341 55.0135 54.9871 55.0135 54.5988V35.3881C55.0135 33.1577 53.1996 31.3438 50.9692 31.3438Z" fill="#436CC8"/>
</svg>
