<svg width="78" height="78" viewBox="0 0 78 78" fill="none" xmlns="http://www.w3.org/2000/svg">
<path d="M0 19.5C0 8.73045 8.73045 0 19.5 0H58.5C69.2696 0 78 8.73045 78 19.5V58.5C78 69.2696 69.2696 78 58.5 78H19.5C8.73045 78 0 69.2696 0 58.5V19.5Z" fill="#436CC8" fill-opacity="0.1"/>
<path fill-rule="evenodd" clip-rule="evenodd" d="M40.8056 38.6502C40.807 38.6741 40.807 38.6981 40.8047 38.721C40.7479 39.3946 40.2612 39.9309 39.3785 40.1092V40.2003C39.3785 40.4997 39.1352 40.7428 38.8359 40.7428C38.5364 40.7428 38.2933 40.4998 38.2933 40.2003V40.1258C37.8823 40.0656 37.4952 39.9407 37.1788 39.7937C36.9073 39.6671 36.7893 39.3446 36.916 39.0727C37.0426 38.8014 37.3653 38.6833 37.6365 38.8099C38.1113 39.0312 38.8754 39.2055 39.4174 38.9676C39.8166 38.7916 39.8157 38.5796 39.4138 38.3976C38.912 38.1762 38.6485 38.4166 37.8275 38.0758C36.427 37.4535 36.5995 35.7446 38.2934 35.3784V35.2866C38.2934 34.9865 38.5366 34.7441 38.8359 34.7441C39.1353 34.7441 39.3785 34.9865 39.3785 35.2866V35.3604C39.7666 35.4183 40.1639 35.5361 40.4944 35.6968C40.7636 35.8284 40.8756 36.1531 40.7449 36.4224C40.6133 36.6921 40.2882 36.8034 40.0194 36.6726C39.5457 36.4419 38.7766 36.2945 38.2805 36.5163C37.8736 36.6982 37.8731 36.9055 38.2832 37.0906C38.7531 37.3027 39.1178 37.0809 39.8594 37.4082C40.599 37.7473 40.7823 38.2711 40.8056 38.6502ZM33.6369 35.0147C33.5733 35.079 33.5378 35.1643 33.5378 35.2563C33.5378 35.4216 33.6326 35.4931 33.7348 35.5947C33.8679 35.7271 34.0856 35.7271 34.217 35.5947L37.9527 31.8601C38.4407 31.3721 39.2346 31.3736 39.7213 31.8601L43.4557 35.5947C43.5891 35.7279 43.8053 35.7279 43.9384 35.5947L44.0339 35.5C44.1696 35.3646 44.1685 35.152 44.033 35.0168L40.1652 31.1586C39.4275 30.4229 38.2284 30.4236 37.4919 31.1608L33.6369 35.0147ZM41.9956 41.5191C42.1734 41.5191 42.3178 41.3744 42.3178 41.1963V35.9918L38.9538 32.6276C38.8898 32.5639 38.7828 32.5639 38.7193 32.6276L35.3534 35.9933V41.1963C35.3534 41.3744 35.4983 41.5191 35.6762 41.5191H41.9956ZM32.9673 36.3622C33.3118 36.7066 33.794 36.8466 34.2687 36.7492V41.1963C34.2687 41.9724 34.9001 42.604 35.6763 42.604H41.9956C42.7714 42.604 43.4032 41.9724 43.4032 41.1963V36.7484C43.8751 36.8489 44.363 36.705 44.706 36.3622L44.8006 36.2676C45.3604 35.7078 45.3593 34.8076 44.7993 34.2487L40.9315 30.3904C39.7712 29.233 37.8833 29.2345 36.7245 30.3933L32.8703 34.2472C32.3144 34.8032 32.3122 35.7048 32.8703 36.2646L32.9673 36.3622ZM52.3094 52.8812H25.3619C23.7025 52.8812 22.322 51.6668 22.0624 50.0797H34.1548L34.665 51.6479C34.7372 51.8722 34.9457 52.0234 35.1807 52.0234H42.4907C42.7261 52.0234 42.9346 51.8722 43.0068 51.6479L43.5165 50.0797H55.6094C55.3497 51.6668 53.9687 52.8812 52.3094 52.8812ZM42.3759 50.0797H35.2958L35.5747 50.9382H42.0965L42.3759 50.0797ZM26.1633 36.8888V48.9947H51.508V36.8888C51.508 36.3044 51.0321 35.8292 50.4475 35.8292H47.5717V46.1446H48.9408C49.2402 46.1446 49.4834 46.3871 49.4834 46.6873C49.4834 46.9867 49.2401 47.2298 48.9408 47.2298H28.7305C28.4311 47.2298 28.1879 46.9868 28.1879 46.6873C28.1879 46.3871 28.4311 46.1446 28.7305 46.1446H30.1001V35.8292H27.2238C26.6396 35.8292 26.1633 36.3044 26.1633 36.8888ZM28.1363 25.983C28.9989 25.983 29.9529 27.5563 30.0841 29.8753H26.1866C26.3178 27.5556 27.2722 25.983 28.1363 25.983ZM34.1631 25.983H29.985C30.8123 27.1041 31.1849 28.824 31.1849 30.4177V46.1446H46.4865V29.1874C46.2374 27.3581 45.4305 25.9829 44.6045 25.9829H34.1631V25.983ZM56.1959 48.9947H52.5927V36.8888C52.5927 35.7061 51.6305 34.7442 50.4475 34.7442H47.5717L47.5671 29.0804C47.2361 26.5783 46.0462 24.8981 44.6044 24.8981H28.1363C27.2508 24.8981 26.449 25.5216 25.8785 26.6543C25.3678 27.6684 25.0863 29.0051 25.0863 30.4178C25.0863 30.7181 25.3294 30.9605 25.6289 30.9605H30.1001V34.7443H27.2238C26.0412 34.7443 25.0785 35.7062 25.0785 36.8889V48.9948H21.4754C21.1759 48.9948 20.9332 49.2378 20.9332 49.5373C20.9332 51.9792 22.9199 53.9663 25.3619 53.9663H52.3093C54.7513 53.9663 56.7385 51.9792 56.7385 49.5373C56.7385 49.2377 56.4953 48.9947 56.1959 48.9947Z" fill="#436CC8"/>
</svg>
