<svg width="70" height="70" viewBox="0 0 70 70" fill="none" xmlns="http://www.w3.org/2000/svg">
<path d="M0 16C0 7.16344 7.16344 0 16 0H54C62.8366 0 70 7.16344 70 16V54C70 62.8366 62.8366 70 54 70H16C7.16344 70 0 62.8366 0 54V16Z" fill="#27AE60" fill-opacity="0.1"/>
<path fill-rule="evenodd" clip-rule="evenodd" d="M25.0132 44.89H24.3332C23.3612 44.89 22.4278 44.5033 21.7398 43.8153C21.0532 43.1273 20.6665 42.1953 20.6665 41.2233V29.2233C20.6665 28.9713 20.6918 28.722 20.7425 28.4793C20.8652 28.9486 21.1345 29.3846 21.5425 29.7113L24.8758 32.378C25.8745 33.1766 27.3292 33.0233 28.1385 32.034L33.4385 25.5566H36.3332C37.3052 25.5566 38.2385 25.942 38.9265 26.63C39.6132 27.318 39.9998 28.25 39.9998 29.2233V41.3486C38.3798 41.7673 37.1558 43.1753 37.0132 44.89H32.9865C32.8172 42.838 31.0958 41.2233 28.9998 41.2233C26.9038 41.2233 25.1825 42.838 25.0132 44.89Z" fill="#27AE60"/>
<path fill-rule="evenodd" clip-rule="evenodd" d="M22.3746 28.6698C21.944 28.3258 21.8746 27.6952 22.2186 27.2645C22.564 26.8338 23.1933 26.7632 23.6253 27.1085L26.1853 29.1565L31.56 22.5898C31.9093 22.1618 32.54 22.0992 32.9666 22.4485C33.3933 22.7978 33.4573 23.4285 33.1066 23.8552L27.1066 31.1885C26.76 31.6138 26.136 31.6792 25.708 31.3365L22.3746 28.6698Z" fill="#27AE60"/>
<path d="M28.9997 47.89C30.4724 47.89 31.6663 46.6961 31.6663 45.2233C31.6663 43.7505 30.4724 42.5566 28.9997 42.5566C27.5269 42.5566 26.333 43.7505 26.333 45.2233C26.333 46.6961 27.5269 47.89 28.9997 47.89Z" fill="#27AE60"/>
<path d="M40.9997 47.89C42.4724 47.89 43.6663 46.6961 43.6663 45.2233C43.6663 43.7505 42.4724 42.5566 40.9997 42.5566C39.5269 42.5566 38.333 43.7505 38.333 45.2233C38.333 46.6961 39.5269 47.89 40.9997 47.89Z" fill="#27AE60"/>
<path fill-rule="evenodd" clip-rule="evenodd" d="M41.333 41.2366V35.6993H46.9997L44.5383 32.0073C44.2917 31.6353 43.8743 31.4126 43.429 31.4126H41.333V29.5566H43.6197C44.3997 29.5566 45.1277 29.946 45.561 30.5953L48.493 34.994C49.041 35.8153 49.333 36.7806 49.333 37.7673V42.5566C49.333 43.8446 48.2877 44.89 46.9997 44.89H44.9863C44.825 42.9473 43.2757 41.3966 41.333 41.2366Z" fill="#27AE60"/>
</svg>
