<svg width="70" height="70" viewBox="0 0 70 70" fill="none" xmlns="http://www.w3.org/2000/svg">
<path d="M0 16C0 7.16344 7.16344 0 16 0H54C62.8366 0 70 7.16344 70 16V54C70 62.8366 62.8366 70 54 70H16C7.16344 70 0 62.8366 0 54V16Z" fill="#27AE60" fill-opacity="0.1"/>
<path fill-rule="evenodd" clip-rule="evenodd" d="M37 21.0039H27C25.343 21.0039 24 22.3469 24 24.0039V44.3449C24 45.4989 24.662 46.5509 25.703 47.0499C26.744 47.5489 27.978 47.4069 28.878 46.6839L29.374 46.2859C29.74 45.9929 30.26 45.9929 30.626 46.2859L33.124 48.2919C34.22 49.1719 35.779 49.1729 36.877 48.2949L39.377 46.2949C39.742 46.0029 40.26 46.0019 40.625 46.2939L41.143 46.7069C42.044 47.4259 43.277 47.5649 44.316 47.0649C45.354 46.5649 46.014 45.5139 46.014 44.3619V30.0009H40C39.204 30.0009 38.441 29.6849 37.879 29.1219C37.316 28.5599 37 27.7969 37 27.0009V21.0039ZM37.741 42.6739L40.707 39.7079C40.993 39.4219 41.079 38.9919 40.924 38.6179C40.769 38.2449 40.404 38.0009 40 38.0009H30C29.448 38.0009 29 38.4489 29 39.0009C29 39.5529 29.448 40.0009 30 40.0009H37.586L36.327 41.2599C35.936 41.6499 35.936 42.2839 36.327 42.6739C36.717 43.0649 37.351 43.0649 37.741 42.6739ZM32.259 31.3279L29.293 34.2939C29.007 34.5799 28.921 35.0099 29.076 35.3839C29.231 35.7569 29.596 36.0009 30 36.0009H40C40.552 36.0009 41 35.5529 41 35.0009C41 34.4489 40.552 34.0009 40 34.0009H32.414L33.673 32.7419C34.064 32.3519 34.064 31.7179 33.673 31.3279C33.283 30.9369 32.649 30.9369 32.259 31.3279ZM39 21.1239V27.0009C39 27.2659 39.105 27.5209 39.293 27.7079C39.48 27.8959 39.735 28.0009 40 28.0009H45.897C45.757 27.5149 45.495 27.0679 45.13 26.7059L40.276 21.8769C39.917 21.5199 39.477 21.2629 39 21.1239Z" fill="#27AE60"/>
</svg>
