<svg width="71" height="71" viewBox="0 0 71 71" fill="none" xmlns="http://www.w3.org/2000/svg">
<path d="M0 17.75C0 7.94692 7.94693 0 17.75 0H53.2499C63.053 0 70.9999 7.94693 70.9999 17.75V53.2499C70.9999 63.053 63.053 70.9999 53.2499 70.9999H17.75C7.94692 70.9999 0 63.053 0 53.2499V17.75Z" fill="#436CC8" fill-opacity="0.1"/>
<path fill-rule="evenodd" clip-rule="evenodd" d="M51.8574 26.5436C51.8574 24.5793 51.099 22.6961 49.7475 21.3071C48.3961 19.9181 46.5638 19.1387 44.6526 19.1387H26.4511C24.5399 19.1387 22.7076 19.9181 21.3562 21.3071C20.0047 22.6961 19.2463 24.5793 19.2463 26.5436V45.2507C19.2463 47.215 20.0047 49.0981 21.3562 50.4871C22.7076 51.8761 24.5399 52.6556 26.4511 52.6556H44.6526C46.5638 52.6556 48.3961 51.8761 49.7475 50.4871C51.099 49.0981 51.8574 47.215 51.8574 45.2507V26.5436ZM49.5822 26.5436V45.2507C49.5822 46.5945 49.0634 47.8837 48.1382 48.8331C47.2145 49.7841 45.9601 50.3172 44.6526 50.3172H26.4511C25.1436 50.3172 23.8892 49.7841 22.9655 48.8331C22.0402 47.8837 21.5215 46.5945 21.5215 45.2507V26.5436C21.5215 25.1998 22.0402 23.9105 22.9655 22.9612C23.8892 22.0102 25.1436 21.4771 26.4511 21.4771H44.6526C45.9601 21.4771 47.2145 22.0102 48.1382 22.9612C49.0634 23.9105 49.5822 25.1998 49.5822 26.5436Z" fill="#436CC8"/>
<path fill-rule="evenodd" clip-rule="evenodd" d="M36.2916 29.9155L32.6513 41.1397C32.4541 41.7524 32.7757 42.4149 33.3718 42.6192C33.9679 42.8218 34.6125 42.4913 34.8112 41.8787L38.4515 30.6544C38.6487 30.0417 38.3272 29.3792 37.7311 29.175C37.135 28.9723 36.4903 29.3028 36.2916 29.9155Z" fill="#436CC8"/>
<path fill-rule="evenodd" clip-rule="evenodd" d="M40.2084 32.9817L43.0433 35.8969L40.2084 38.8121C39.764 39.2673 39.764 40.0093 40.2084 40.4645C40.6513 40.9213 41.3733 40.9213 41.8162 40.4645L45.4565 36.7231C45.9009 36.2663 45.9009 35.5274 45.4565 35.0706L41.8162 31.3292C41.3733 30.8725 40.6513 30.8725 40.2084 31.3292C39.764 31.7844 39.764 32.5265 40.2084 32.9817Z" fill="#436CC8"/>
<path fill-rule="evenodd" clip-rule="evenodd" d="M29.2871 31.3292L25.6468 35.0706C25.2024 35.5274 25.2024 36.2663 25.6468 36.7231L29.2871 40.4645C29.73 40.9213 30.452 40.9213 30.8949 40.4645C31.3393 40.0093 31.3393 39.2673 30.8949 38.8121L28.06 35.8969L30.8949 32.9817C31.3393 32.5265 31.3393 31.7844 30.8949 31.3292C30.452 30.8725 29.73 30.8725 29.2871 31.3292Z" fill="#436CC8"/>
</svg>
