<svg width="70" height="70" viewBox="0 0 70 70" fill="none" xmlns="http://www.w3.org/2000/svg">
<path d="M0 16C0 7.16344 7.16344 0 16 0H54C62.8366 0 70 7.16344 70 16V54C70 62.8366 62.8366 70 54 70H16C7.16344 70 0 62.8366 0 54V16Z" fill="#27AE60" fill-opacity="0.1"/>
<path fill-rule="evenodd" clip-rule="evenodd" d="M35.5019 49.8071C35.5019 50.0841 35.277 50.3091 34.9999 50.3091C34.7229 50.3091 34.498 50.0841 34.498 49.8071V44.8204C34.498 44.5434 34.7229 44.3185 34.9999 44.3185C35.277 44.3185 35.5019 44.5434 35.5019 44.8204V49.8071ZM38.8467 48.5161C38.8467 48.7931 38.6218 49.0181 38.3448 49.0181C38.0677 49.0181 37.8428 48.7931 37.8428 48.5161V43.5295C37.8428 43.2524 38.0677 43.0275 38.3448 43.0275C38.6218 43.0275 38.8467 43.2524 38.8467 43.5295V48.5161ZM32.1571 48.5161C32.1571 48.7931 31.9321 49.0181 31.6551 49.0181C31.378 49.0181 31.1532 48.7931 31.1532 48.5161V43.5295C31.1532 43.2524 31.378 43.0275 31.6551 43.0275C31.9321 43.0275 32.1571 43.2524 32.1571 43.5295V48.5161ZM30.991 28.9408V27.1576H27.8648C27.7021 27.1576 27.5604 27.0658 27.4922 26.9188C27.424 26.7693 27.4476 26.6066 27.5525 26.4806L34.6877 19.8338C34.769 19.7393 34.874 19.6895 34.9999 19.6895C35.1233 19.6895 35.2308 19.7393 35.3122 19.8338L42.4473 26.4806C42.5523 26.6066 42.5759 26.7693 42.5077 26.9188C42.4394 27.0658 42.2978 27.1576 42.1351 27.1576H39.0088V28.9408C37.8327 28.2431 36.4615 27.8419 34.9999 27.8419C33.5384 27.8419 32.1672 28.2431 30.991 28.9408ZM34.9999 42.6207C31.2072 42.6207 28.1125 39.526 28.1125 35.7332C28.1125 31.9405 31.2072 28.8458 34.9999 28.8458C38.7927 28.8458 41.8873 31.9405 41.8873 35.7332C41.8873 39.526 38.7927 42.6207 34.9999 42.6207ZM34.9999 41.4943C38.1723 41.4943 40.761 38.9056 40.761 35.7332C40.761 32.5609 38.1723 29.9722 34.9999 29.9722C31.8276 29.9722 29.2389 32.5609 29.2389 35.7332C29.2389 38.9056 31.8276 41.4943 34.9999 41.4943ZM34.9999 40.4903C32.3805 40.4903 30.2428 38.3527 30.2428 35.7332C30.2428 33.1137 32.3805 30.9761 34.9999 30.9761C37.6194 30.9761 39.7571 33.1137 39.7571 35.7332C39.7571 38.3527 37.6194 40.4903 34.9999 40.4903ZM34.498 32.7035C34.382 32.7293 34.2688 32.7637 34.1602 32.8064C33.4555 33.0838 32.9472 33.6924 32.9871 34.5199V34.5202C33.0401 35.6033 34.0123 36.0602 34.9234 36.2102L34.9239 36.2102C35.1715 36.2508 35.4362 36.309 35.6694 36.4148C35.9226 36.5296 36.1409 36.705 36.18 37.0246C36.2099 37.2731 36.0935 37.4498 35.9223 37.5679C35.6802 37.7348 35.3517 37.808 35.0566 37.815C34.508 37.8279 33.94 37.588 33.8002 37.0266C33.7333 36.7577 33.4607 36.5938 33.1919 36.6607C32.9231 36.7276 32.7591 37.0003 32.8261 37.2691C33.0337 38.1031 33.713 38.6143 34.498 38.7692V39.0617C34.498 39.3388 34.7229 39.5637 34.9999 39.5637C35.277 39.5637 35.5019 39.3388 35.5019 39.0617V38.7766C36.4244 38.6141 37.3078 37.9897 37.1767 36.9039L37.1766 36.9033C37.0413 35.7955 36.0177 35.3719 35.086 35.2195C34.8576 35.1819 34.615 35.1245 34.4052 35.0219C34.1871 34.9152 34.0038 34.7541 33.9899 34.4714C33.9725 34.1098 34.22 33.8618 34.5278 33.7406C35.0622 33.5303 35.8061 33.6654 36.0854 34.3295C36.1927 34.5849 36.4872 34.7051 36.7426 34.5977C36.998 34.4903 37.1182 34.1959 37.0109 33.9404C36.7119 33.2293 36.13 32.8308 35.5019 32.6978V32.4048C35.5019 32.1277 35.277 31.9029 34.9999 31.9029C34.7229 31.9029 34.498 32.1277 34.498 32.4048V32.7035Z" fill="#27AE60"/>
</svg>
