<svg width="78" height="78" viewBox="0 0 78 78" fill="none" xmlns="http://www.w3.org/2000/svg">
<path d="M0 19.5C0 8.73045 8.73045 0 19.5 0H58.5C69.2696 0 78 8.73045 78 19.5V58.5C78 69.2696 69.2696 78 58.5 78H19.5C8.73045 78 0 69.2696 0 58.5V19.5Z" fill="#EAB308" fill-opacity="0.1"/>
<path d="M47.6752 50.8075H31.2448C29.0962 50.8075 27.4532 49.1644 27.4532 47.0158V36.1465L24.0407 32.7341C23.6615 32.3549 23.5352 31.8493 23.7879 31.3438C23.9143 30.8382 24.4199 30.5855 24.9254 30.5855H38.828C39.5864 30.5855 40.0919 31.091 40.0919 31.8493C40.0919 32.6077 39.5864 33.1132 38.828 33.1132H27.9587L29.6018 34.7563C29.8545 35.009 29.9809 35.2618 29.9809 35.641V47.0158C29.9809 47.7742 30.4865 48.2797 31.2448 48.2797H47.6752C48.4335 48.2797 48.939 47.7742 48.939 47.0158V43.2242C48.939 42.4659 49.4446 41.9603 50.2029 41.9603C50.9612 41.9603 51.4668 42.4659 51.4668 43.2242V47.0158C51.4668 49.1644 49.8237 50.8075 47.6752 50.8075ZM48.3071 39.4326C45.1474 39.4326 42.6197 36.9048 42.6197 33.7452C42.6197 30.5855 45.1474 28.0577 48.3071 28.0577C51.4668 28.0577 53.9945 30.5855 53.9945 33.7452C53.9945 36.9048 51.4668 39.4326 48.3071 39.4326ZM48.3071 30.5855C46.5377 30.5855 45.1474 31.9757 45.1474 33.7452C45.1474 35.5146 46.5377 36.9048 48.3071 36.9048C50.0765 36.9048 51.4668 35.5146 51.4668 33.7452C51.4668 31.9757 50.0765 30.5855 48.3071 30.5855Z" fill="#EAB308"/>
</svg>
