<svg width="70" height="70" viewBox="0 0 70 70" fill="none" xmlns="http://www.w3.org/2000/svg">
<path d="M0 16C0 7.16344 7.16344 0 16 0H54C62.8366 0 70 7.16344 70 16V54C70 62.8366 62.8366 70 54 70H16C7.16344 70 0 62.8366 0 54V16Z" fill="#27AE60" fill-opacity="0.1"/>
<g clip-path="url(#clip0_2296_800)">
<path d="M37.2998 26.5625H27.1748C26.7091 26.5625 26.3311 26.9405 26.3311 27.4062C26.3311 27.872 26.7091 28.25 27.1748 28.25H37.2998C37.7656 28.25 38.1436 27.872 38.1436 27.4062C38.1436 26.9405 37.7656 26.5625 37.2998 26.5625Z" fill="#27AE60"/>
<path d="M33.9248 29.9375H27.1748C26.7091 29.9375 26.3311 30.3155 26.3311 30.7812C26.3311 31.247 26.7091 31.625 27.1748 31.625H33.9248C34.3906 31.625 34.7686 31.247 34.7686 30.7812C34.7686 30.3155 34.3906 29.9375 33.9248 29.9375Z" fill="#27AE60"/>
<path d="M39.8311 21.5H24.6436C22.7822 21.5 21.2686 23.0137 21.2686 24.875V41.75C21.2686 42.0774 21.4576 42.3761 21.7546 42.5144C21.8676 42.5667 21.9908 42.5938 22.1123 42.5938C22.3064 42.5938 22.4987 42.5262 22.6523 42.398L27.4802 38.375H39.8311C41.6924 38.375 43.2061 36.8613 43.2061 35V24.875C43.2061 23.0137 41.6924 21.5 39.8311 21.5ZM41.5186 35C41.5186 35.9298 40.7626 36.6875 39.8311 36.6875H27.1748C26.9774 36.6875 26.7867 36.7567 26.6348 36.8833L22.9561 39.9494V24.875C22.9561 23.9452 23.7121 23.1875 24.6436 23.1875H39.8311C40.7626 23.1875 41.5186 23.9452 41.5186 24.875V35Z" fill="#27AE60"/>
<path d="M44.8936 28.25C44.4278 28.25 44.0498 28.628 44.0498 29.0938C44.0498 29.5595 44.4278 29.9375 44.8936 29.9375C45.8251 29.9375 46.5811 30.6952 46.5811 31.625V45.8996L43.7326 43.6214C43.5841 43.5033 43.3967 43.4375 43.2061 43.4375H31.3936C30.4621 43.4375 29.7061 42.6798 29.7061 41.75V40.9062C29.7061 40.4405 29.3281 40.0625 28.8623 40.0625C28.3966 40.0625 28.0186 40.4405 28.0186 40.9062V41.75C28.0186 43.6113 29.5322 45.125 31.3936 45.125H42.9091L46.8966 48.3161C47.0502 48.4376 47.2375 48.5 47.4248 48.5C47.548 48.5 47.6729 48.473 47.791 48.4173C48.0829 48.2756 48.2686 47.9802 48.2686 47.6562V31.625C48.2686 29.7637 46.7549 28.25 44.8936 28.25Z" fill="#27AE60"/>
</g>
<defs>
<clipPath id="clip0_2296_800">
<rect width="27" height="27" fill="white" transform="translate(21.2686 21.5)"/>
</clipPath>
</defs>
</svg>
