<svg width="78" height="78" viewBox="0 0 78 78" fill="none" xmlns="http://www.w3.org/2000/svg">
<path d="M0 19.5C0 8.73045 8.73045 0 19.5 0H58.5C69.2696 0 78 8.73045 78 19.5V58.5C78 69.2696 69.2696 78 58.5 78H19.5C8.73045 78 0 69.2696 0 58.5V19.5Z" fill="#27AE60" fill-opacity="0.1"/>
<path d="M32.189 43.6684C32.9568 43.6684 33.5792 43.046 33.5792 42.2781C33.5792 41.5103 32.9568 40.8879 32.189 40.8879C31.4212 40.8879 30.7987 41.5103 30.7987 42.2781C30.7987 43.046 31.4212 43.6684 32.189 43.6684Z" fill="#27AE60"/>
<path d="M37.2444 43.6684C38.0122 43.6684 38.6347 43.046 38.6347 42.2781C38.6347 41.5103 38.0122 40.8879 37.2444 40.8879C36.4766 40.8879 35.8542 41.5103 35.8542 42.2781C35.8542 43.046 36.4766 43.6684 37.2444 43.6684Z" fill="#27AE60"/>
<path d="M55.0608 25.5731C52.2204 25.3066 49.4838 24.5672 46.9272 23.3755C46.7579 23.2965 46.5625 23.2965 46.3933 23.3755C43.8367 24.5672 41.1001 25.3066 38.2597 25.5731C37.935 25.6036 37.6868 25.8761 37.6868 26.2023V31.4005C37.6868 31.6993 37.6977 31.9966 37.7182 32.2923H28.7134C25.7167 32.2923 23.2787 34.7302 23.2787 37.7269V46.5739C23.2787 49.5705 25.7167 52.0085 28.7134 52.0085H37.1812V54.9154C37.1812 55.1709 37.3352 55.4014 37.5713 55.4992C37.6495 55.5316 37.7316 55.5474 37.813 55.5474C37.9775 55.5474 38.1391 55.4831 38.26 55.3623L41.6137 52.0086H45.7755C48.7722 52.0086 51.2101 49.5706 51.2101 46.574V41.0698C51.9457 40.4311 52.6117 39.7047 53.1961 38.8986C54.7907 36.6988 55.6336 34.1061 55.6336 31.4005V26.2023C55.6336 25.8761 55.3854 25.6036 55.0608 25.5731ZM49.9462 46.5739C49.9462 48.8737 48.0753 50.7446 45.7755 50.7446H41.352C41.1844 50.7446 41.0237 50.8112 40.9051 50.9297L38.4451 53.3898V51.3766C38.4451 51.0276 38.1621 50.7446 37.8132 50.7446H28.7134C26.4136 50.7446 24.5426 48.8737 24.5426 46.5739V37.7269C24.5426 35.4271 26.4136 33.5561 28.7134 33.5561H37.8689C38.1958 35.4738 38.959 37.2912 40.1243 38.8986C40.6664 39.6465 41.2789 40.326 41.952 40.9304C41.3525 41.0848 40.9096 41.629 40.9096 42.2768C40.9096 43.0446 41.5321 43.667 42.2999 43.667C43.0677 43.667 43.6901 43.0446 43.6901 42.2768C43.6901 42.2641 43.6895 42.2515 43.6892 42.2389C44.5505 42.7784 45.4791 43.2158 46.4619 43.5406C46.5263 43.5618 46.5932 43.5725 46.6602 43.5725C46.7272 43.5725 46.794 43.5619 46.8584 43.5406C47.9623 43.1759 48.9978 42.6692 49.9462 42.0352V46.5739ZM54.3697 31.4005C54.3697 36.3115 51.2804 40.6543 46.6602 42.273C42.04 40.6542 38.9506 36.3115 38.9506 31.4005V26.7715C41.6326 26.4611 44.2221 25.7465 46.6602 24.6436C49.0982 25.7465 51.6878 26.4611 54.3697 26.7715V31.4005Z" fill="#27AE60"/>
<path d="M43.9294 30.3205V31.0201H43.8616C43.2434 31.0201 42.7422 31.5213 42.7422 32.1395V36.6172C42.7422 37.2354 43.2434 37.7366 43.8616 37.7366H49.4587C50.0769 37.7366 50.5781 37.2354 50.5781 36.6172V32.1395C50.5781 31.5213 50.0769 31.0201 49.4587 31.0201H49.3909V30.3205C49.3909 28.8147 48.1659 27.5897 46.6601 27.5897C45.1544 27.5897 43.9294 28.8148 43.9294 30.3205ZM47.3633 34.623V35.878H45.9731V34.623C45.7789 34.4387 45.6571 34.1788 45.6571 33.89C45.6571 33.3315 46.1098 32.8789 46.6682 32.8789C47.2266 32.8789 47.6793 33.3315 47.6793 33.89C47.6793 34.1788 47.5575 34.4387 47.3633 34.623ZM48.1271 30.3205V31.0201H45.1932V30.3205C45.1932 29.5117 45.8513 28.8536 46.6602 28.8536C47.4691 28.8536 48.1271 29.5117 48.1271 30.3205Z" fill="#27AE60"/>
</svg>
