<svg width="78" height="78" viewBox="0 0 78 78" fill="none" xmlns="http://www.w3.org/2000/svg">
<path d="M0 19.5C0 8.73045 8.73045 0 19.5 0H58.5C69.2696 0 78 8.73045 78 19.5V58.5C78 69.2696 69.2696 78 58.5 78H19.5C8.73045 78 0 69.2696 0 58.5V19.5Z" fill="#27AE60" fill-opacity="0.1"/>
<g clip-path="url(#clip0_2243_1776)">
<path d="M42.4192 47.6183C42.0539 47.2529 41.4621 47.2529 41.0967 47.6183C40.7314 47.9836 40.7314 48.5754 41.0967 48.9408L46.7083 54.5523C46.8909 54.735 47.1302 54.8263 47.3695 54.8263C47.6088 54.8263 47.8481 54.735 48.0308 54.5523L57.3834 45.1997C57.7487 44.8344 57.7487 44.2426 57.3834 43.8772C57.018 43.5119 56.4262 43.5119 56.0608 43.8772L47.3695 52.5685L42.4192 47.6183Z" fill="#27AE60"/>
<path d="M24.9218 49.2152H38.0154C38.5323 49.2152 38.9506 48.7969 38.9506 48.2799C38.9506 47.763 38.5323 47.3446 38.0154 47.3446H24.9218C23.3746 47.3446 22.116 46.0861 22.116 44.5389V34.251H53.9148V40.7978C53.9148 41.3148 54.3331 41.7331 54.85 41.7331C55.367 41.7331 55.7853 41.3148 55.7853 40.7978V27.7042C55.7853 25.1259 53.6873 23.028 51.109 23.028H24.9218C22.3435 23.028 20.2455 25.1259 20.2455 27.7042V44.5389C20.2455 47.1172 22.3435 49.2152 24.9218 49.2152ZM24.9218 24.8985H51.109C52.6562 24.8985 53.9148 26.157 53.9148 27.7042V32.3805H22.116V27.7042C22.116 26.157 23.3746 24.8985 24.9218 24.8985Z" fill="#27AE60"/>
<path d="M28.6612 39.863C28.1443 39.863 27.726 40.2813 27.726 40.7982C27.726 41.3152 28.1443 41.7335 28.6612 41.7335H32.4022C32.9192 41.7335 33.3375 41.3152 33.3375 40.7982C33.3375 40.2813 32.9192 39.863 32.4022 39.863H28.6612Z" fill="#27AE60"/>
</g>
<defs>
<clipPath id="clip0_2243_1776">
<rect width="37" height="37" fill="white" transform="translate(20.2455 20.2218) scale(1.01109)"/>
</clipPath>
</defs>
</svg>
