<svg width="399" height="528" viewBox="0 0 399 528" fill="none" xmlns="http://www.w3.org/2000/svg">
<g clip-path="url(#clip0_78_2348)">
<g clip-path="url(#clip1_78_2348)">
<path d="M318.997 527.302C300.132 505.329 290.395 480.541 297.525 453.364C298.73 448.772 300.304 442.811 301.862 436.904C329.237 333.182 350.131 254.014 308.625 182.922C277.796 130.117 140.463 114.391 62.189 109.704L62.318 108.94C140.739 113.653 278.309 129.462 309.295 182.531C350.962 253.898 330.032 333.2 302.61 437.101C301.308 442.032 299.986 447.043 298.276 453.56C291.267 480.274 300.718 504.684 319.157 526.365L318.999 527.302H318.997Z" fill="url(#paint0_linear_78_2348)"/>
<path d="M320.587 517.886C296.05 493.639 282.029 465.599 290.21 434.419C291.404 429.868 292.986 423.871 294.548 417.96C321.923 314.238 342.819 235.069 301.311 163.976C271.805 113.442 144.753 96.866 65.2762 91.4269L65.4052 90.6653C145.028 96.1326 272.324 112.794 301.979 163.587C343.646 234.953 322.715 314.258 295.292 418.156C293.993 423.081 292.68 428.056 290.958 434.614C282.896 465.34 296.612 493.017 320.735 517L320.586 517.886H320.587Z" fill="url(#paint1_linear_78_2348)"/>
<path d="M322.368 507.346C292.346 481.252 273.747 450.324 282.893 415.467C284.093 410.895 285.669 404.917 287.23 399.008C314.605 295.286 335.501 216.117 293.993 145.024C265.743 96.6416 148.073 79.3875 68.3512 73.2309L68.4792 72.4727C148.349 78.6594 266.266 95.9993 294.661 144.635C336.329 216.001 315.398 295.305 287.976 399.204C286.675 404.132 285.357 409.125 283.642 415.662C274.614 450.067 292.891 480.649 322.511 506.503L322.368 507.346Z" fill="url(#paint2_linear_78_2348)"/>
<path d="M324.041 497.45C289.38 470.009 266.544 436.759 276.485 398.871C277.681 394.314 279.263 388.321 280.822 382.414C308.197 278.691 329.093 199.522 287.585 128.43C260.393 81.8535 150.333 64.1247 71.0297 57.3731L71.1577 56.6165C150.612 63.4004 260.918 81.2169 288.255 128.039C329.922 199.405 308.991 278.71 281.57 382.61C280.268 387.538 278.955 392.516 277.236 399.068C267.413 436.504 289.912 469.414 324.179 496.632L324.041 497.45Z" fill="url(#paint3_linear_78_2348)"/>
<path d="M325.74 487.39C286.741 458.843 259.596 423.492 270.276 382.79C271.478 378.204 273.055 372.235 274.613 366.33C301.988 262.608 322.884 183.439 281.377 112.346C255.174 67.47 152.042 49.3755 73.6139 42.0753L73.7419 41.3204C152.324 48.6551 255.703 66.8391 282.044 111.957C323.711 183.323 302.781 262.626 275.359 366.526C274.057 371.459 272.738 376.46 271.025 382.986C260.465 423.232 287.261 458.248 325.876 486.584L325.74 487.39Z" fill="url(#paint4_linear_78_2348)"/>
<path d="M327.556 476.647C284.27 447.146 252.483 409.762 263.896 366.265C265.099 361.68 266.675 355.71 268.233 349.806C295.608 246.083 316.504 166.914 274.997 95.8218C251.418 55.4363 165.531 36.7423 91.4147 28.0828L95.3757 27.7866C168.759 36.6797 252.362 55.5209 275.664 95.4322C317.332 166.799 296.401 246.103 268.979 350.002C267.677 354.934 266.358 359.936 264.646 366.46C253.355 409.496 284.778 446.549 327.69 475.851L327.556 476.647Z" fill="url(#paint5_linear_78_2348)"/>
<path d="M329.324 466.187C282.152 435.934 245.778 396.718 257.866 350.648C259.063 346.084 260.644 340.096 262.203 334.189C289.578 230.466 310.475 151.297 268.967 80.2049C252.526 52.0462 205.785 34.4332 153.87 23.4112L156.476 23.2163C207.6 34.3225 253.35 51.9199 269.636 79.8139C311.304 151.18 290.373 230.485 262.951 334.383C261.65 339.313 260.335 344.298 258.618 350.841C246.652 396.447 282.649 435.334 329.459 465.396L329.325 466.188L329.324 466.187Z" fill="url(#paint6_linear_78_2348)"/>
<path d="M331.288 454.555C280.104 423.643 238.532 382.535 251.335 333.734C252.538 329.148 254.114 323.179 255.673 317.274C283.048 213.552 303.943 134.383 262.436 63.2906C251.575 44.6912 227.487 30.6923 197.425 20.1541L199.218 20.0193C228.731 30.5567 252.349 44.4813 263.104 62.9027C304.771 134.269 283.84 213.573 256.419 317.472C255.116 322.405 253.796 327.406 252.085 333.93C239.405 382.257 280.586 423.04 331.42 453.772L331.288 454.555Z" fill="url(#paint7_linear_78_2348)"/>
</g>
</g>
<defs>
<linearGradient id="paint0_linear_78_2348" x1="318.178" y1="380.802" x2="160.786" y2="117.113" gradientUnits="userSpaceOnUse">
<stop stop-color="white"/>
<stop offset="0.544795" stop-color="#023436" stop-opacity="0.31"/>
<stop offset="1" stop-color="white"/>
</linearGradient>
<linearGradient id="paint1_linear_78_2348" x1="320.273" y1="368.391" x2="158.246" y2="103.184" gradientUnits="userSpaceOnUse">
<stop stop-color="white"/>
<stop offset="0.544795" stop-color="#023436" stop-opacity="0.31"/>
<stop offset="1" stop-color="white"/>
</linearGradient>
<linearGradient id="paint2_linear_78_2348" x1="322.487" y1="355.285" x2="156.533" y2="88.8718" gradientUnits="userSpaceOnUse">
<stop stop-color="white"/>
<stop offset="0.544795" stop-color="#023436" stop-opacity="0.31"/>
<stop offset="1" stop-color="white"/>
</linearGradient>
<linearGradient id="paint3_linear_78_2348" x1="324.496" y1="343.398" x2="155.52" y2="76.1074" gradientUnits="userSpaceOnUse">
<stop stop-color="white"/>
<stop offset="0.544795" stop-color="#023436" stop-opacity="0.31"/>
<stop offset="1" stop-color="white"/>
</linearGradient>
<linearGradient id="paint4_linear_78_2348" x1="326.49" y1="331.59" x2="154.881" y2="63.5698" gradientUnits="userSpaceOnUse">
<stop stop-color="white"/>
<stop offset="0.544795" stop-color="#023436" stop-opacity="0.31"/>
<stop offset="1" stop-color="white"/>
</linearGradient>
<linearGradient id="paint5_linear_78_2348" x1="329.756" y1="319.403" x2="153.309" y2="60.9255" gradientUnits="userSpaceOnUse">
<stop stop-color="white"/>
<stop offset="0.544795" stop-color="#023436" stop-opacity="0.31"/>
<stop offset="1" stop-color="white"/>
</linearGradient>
<linearGradient id="paint6_linear_78_2348" x1="336.409" y1="308.551" x2="154.044" y2="97.4049" gradientUnits="userSpaceOnUse">
<stop stop-color="white"/>
<stop offset="0.544795" stop-color="#023436" stop-opacity="0.31"/>
<stop offset="1" stop-color="white"/>
</linearGradient>
<linearGradient id="paint7_linear_78_2348" x1="341.54" y1="298.047" x2="164.103" y2="126.106" gradientUnits="userSpaceOnUse">
<stop stop-color="white"/>
<stop offset="0.544795" stop-color="#023436" stop-opacity="0.31"/>
<stop offset="1" stop-color="white"/>
</linearGradient>
<clipPath id="clip0_78_2348">
<rect width="399" height="528" fill="white" transform="matrix(-1 0 0 1 399 0)"/>
</clipPath>
<clipPath id="clip1_78_2348">
<rect width="399" height="528" fill="white" transform="matrix(-1 0 0 1 399 0)"/>
</clipPath>
</defs>
</svg>
