<svg width="46" height="46" viewBox="0 0 46 46" fill="none" xmlns="http://www.w3.org/2000/svg">
<path d="M0 12C0 5.37258 5.37258 0 12 0H34C40.6274 0 46 5.37258 46 12V34C46 40.6274 40.6274 46 34 46H12C5.37258 46 0 40.6274 0 34V12Z" fill="url(#paint0_linear_2143_1084)" fill-opacity="0.1"/>
<g clip-path="url(#clip0_2143_1084)">
<path d="M21.6379 29.3652C21.3509 29.3652 21.0928 29.6238 21.0928 29.9106C21.0928 30.1973 21.3509 30.4557 21.6379 30.4557C21.9249 30.4557 22.183 30.1973 22.183 29.9106C22.183 29.6238 21.9249 29.3652 21.6379 29.3652Z" fill="url(#paint1_linear_2143_1084)"/>
<path d="M23.4992 29.3652C23.2122 29.3652 22.9541 29.6238 22.9541 29.9106C22.9541 30.1973 23.2122 30.4557 23.4992 30.4557C23.7862 30.4557 24.0443 30.1973 24.0443 29.9106C24.0443 29.6238 23.7862 29.3652 23.4992 29.3652Z" fill="url(#paint2_linear_2143_1084)"/>
<path d="M25.3605 29.3652C25.0735 29.3652 24.8154 29.6238 24.8154 29.9106C24.8154 30.1973 25.0735 30.4557 25.3605 30.4557C25.6475 30.4557 25.9061 30.1973 25.9061 29.9106C25.9061 29.6238 25.6475 29.3652 25.3605 29.3652Z" fill="url(#paint3_linear_2143_1084)"/>
<path d="M33.4046 13.2693H25.8363L25.0208 11.7634C24.7166 11.2031 24.1329 10.8555 23.4966 10.8555C23.4956 10.8555 23.4951 10.8555 23.494 10.8555C22.8465 10.8565 22.2756 11.199 21.9673 11.771L21.1566 13.2693H13.5886C12.182 13.2693 11.0381 14.4135 11.0381 15.8201V29.6119C11.0381 31.0185 12.182 32.1627 13.5886 32.1627H19.7774L18.964 34.302C18.8654 34.5632 18.8603 34.8424 18.9249 35.1064H17.2318C16.9448 35.1064 16.7126 35.3389 16.7126 35.6257C16.7126 35.9124 16.9448 36.1449 17.2318 36.1449C17.1794 36.1451 21.093 36.1465 29.7669 36.1449C30.0539 36.1449 30.2861 35.9124 30.2861 35.6257C30.2861 35.3389 30.0539 35.1064 29.7669 35.1064H28.0747C28.1394 34.8422 28.1342 34.5627 28.0353 34.3005L27.2223 32.1627H33.4046C34.8142 32.1627 35.9612 31.0185 35.9612 29.6119V15.8201C35.9612 14.4135 34.8142 13.2693 33.4046 13.2693ZM20.2222 35.1064C19.9995 35.0982 19.8592 34.872 19.935 34.6696L20.8878 32.1642H26.112L27.0643 34.6681C27.1404 34.8717 27.001 35.0981 26.7776 35.1064H20.2222ZM22.881 12.2641C23.0057 12.0326 23.2354 11.8944 23.4956 11.8939H23.4966C23.7557 11.8939 23.9839 12.0303 24.1081 12.2585L28.4764 20.3266C28.5966 20.5472 28.592 20.7979 28.4632 21.0152C28.3339 21.233 28.1149 21.358 27.8624 21.358H19.1399C18.8879 21.358 18.6683 21.233 18.5385 21.0155C18.4097 20.8005 18.4032 20.5419 18.5198 20.3251L22.881 12.2641ZM13.5886 14.3078H20.5947L17.6055 19.8322C17.314 20.3755 17.3292 21.017 17.6471 21.5484C17.9645 22.0795 18.5228 22.3964 19.1399 22.3964H27.8624C28.4815 22.3964 29.0398 22.0783 29.3562 21.5451C29.6721 21.0129 29.6837 20.3712 29.3891 19.8307L26.3986 14.3078H33.4046C34.2417 14.3078 34.9227 14.9862 34.9227 15.8201V27.6749H12.0765V15.8201C12.0765 14.9862 12.755 14.3078 13.5886 14.3078ZM33.4046 31.1242H13.5886C12.755 31.1242 12.0765 30.4458 12.0765 29.6119V28.7134H34.9227V29.6119C34.9227 30.4458 34.2417 31.1242 33.4046 31.1242Z" fill="url(#paint4_linear_2143_1084)"/>
<path d="M23.4997 18.12C23.7867 18.12 24.0189 17.8875 24.0189 17.6008V14.7204C24.0189 14.4337 23.7867 14.2012 23.4997 14.2012C23.2127 14.2012 22.9805 14.4337 22.9805 14.7204V17.6008C22.9805 17.8875 23.2127 18.12 23.4997 18.12Z" fill="url(#paint5_linear_2143_1084)"/>
<path d="M23.4998 19.9605C23.7868 19.9605 24.0469 19.7024 24.0469 19.4157C24.0469 19.1289 23.7868 18.8711 23.4998 18.8711C23.2128 18.8711 22.9521 19.1289 22.9521 19.4157C22.9521 19.7024 23.2128 19.9605 23.4998 19.9605Z" fill="url(#paint6_linear_2143_1084)"/>
<path d="M13.8337 24.4818H33.1659C33.4529 24.4818 33.6851 24.2493 33.6851 23.9626C33.6851 23.6758 33.4529 23.4434 33.1659 23.4434H13.8337C13.5467 23.4434 13.3145 23.6758 13.3145 23.9626C13.3145 24.2493 13.5467 24.4818 13.8337 24.4818Z" fill="url(#paint7_linear_2143_1084)"/>
<path d="M13.8337 26.558H33.1659C33.4529 26.558 33.6851 26.3255 33.6851 26.0388C33.6851 25.752 33.4529 25.5195 33.1659 25.5195H13.8337C13.5467 25.5195 13.3145 25.752 13.3145 26.0388C13.3145 26.3255 13.5467 26.558 13.8337 26.558Z" fill="url(#paint8_linear_2143_1084)"/>
</g>
<defs>
<linearGradient id="paint0_linear_2143_1084" x1="-28.0312" y1="-10.0625" x2="73.3125" y2="69.3594" gradientUnits="userSpaceOnUse">
<stop stop-color="#27AE60"/>
<stop offset="1" stop-color="#0052CC"/>
</linearGradient>
<linearGradient id="paint1_linear_2143_1084" x1="20.4284" y1="29.1267" x2="22.8307" y2="31.0089" gradientUnits="userSpaceOnUse">
<stop stop-color="#27AE60"/>
<stop offset="1" stop-color="#0052CC"/>
</linearGradient>
<linearGradient id="paint2_linear_2143_1084" x1="22.2898" y1="29.1267" x2="24.692" y2="31.0089" gradientUnits="userSpaceOnUse">
<stop stop-color="#27AE60"/>
<stop offset="1" stop-color="#0052CC"/>
</linearGradient>
<linearGradient id="paint3_linear_2143_1084" x1="24.1508" y1="29.1267" x2="26.5533" y2="31.0099" gradientUnits="userSpaceOnUse">
<stop stop-color="#27AE60"/>
<stop offset="1" stop-color="#0052CC"/>
</linearGradient>
<linearGradient id="paint4_linear_2143_1084" x1="-4.14941" y1="5.32324" x2="51.3681" y2="48.2" gradientUnits="userSpaceOnUse">
<stop stop-color="#27AE60"/>
<stop offset="1" stop-color="#0052CC"/>
</linearGradient>
<linearGradient id="paint5_linear_2143_1084" x1="22.3477" y1="13.3439" x2="25.888" y2="14.0792" gradientUnits="userSpaceOnUse">
<stop stop-color="#27AE60"/>
<stop offset="1" stop-color="#0052CC"/>
</linearGradient>
<linearGradient id="paint6_linear_2143_1084" x1="22.285" y1="18.6328" x2="24.6879" y2="20.5251" gradientUnits="userSpaceOnUse">
<stop stop-color="#27AE60"/>
<stop offset="1" stop-color="#0052CC"/>
</linearGradient>
<linearGradient id="paint7_linear_2143_1084" x1="0.901069" y1="23.2162" x2="1.20631" y2="27.9087" gradientUnits="userSpaceOnUse">
<stop stop-color="#27AE60"/>
<stop offset="1" stop-color="#0052CC"/>
</linearGradient>
<linearGradient id="paint8_linear_2143_1084" x1="0.901069" y1="25.2924" x2="1.20631" y2="29.9848" gradientUnits="userSpaceOnUse">
<stop stop-color="#27AE60"/>
<stop offset="1" stop-color="#0052CC"/>
</linearGradient>
<clipPath id="clip0_2143_1084">
<rect width="27" height="27" fill="white" transform="translate(10 10)"/>
</clipPath>
</defs>
</svg>
