<svg width="46" height="46" viewBox="0 0 46 46" fill="none" xmlns="http://www.w3.org/2000/svg">
<path d="M0 12C0 5.37258 5.37258 0 12 0H34C40.6274 0 46 5.37258 46 12V34C46 40.6274 40.6274 46 34 46H12C5.37258 46 0 40.6274 0 34V12Z" fill="url(#paint0_linear_2315_1357)" fill-opacity="0.1"/>
<path d="M16.4991 25.2503C16.3335 25.2509 16.1712 25.2045 16.0309 25.1164C15.8907 25.0284 15.7783 24.9024 15.7068 24.753C15.6353 24.6037 15.6077 24.4371 15.6271 24.2727C15.6466 24.1082 15.7123 23.9527 15.8166 23.8241L24.4791 14.8991C24.5441 14.8241 24.6326 14.7734 24.7302 14.7553C24.8278 14.7373 24.9286 14.753 25.0161 14.7998C25.1036 14.8466 25.1726 14.9217 25.2117 15.0129C25.2509 15.1041 25.2579 15.2059 25.2316 15.3016L23.5516 20.5691C23.502 20.7017 23.4854 20.8443 23.5031 20.9847C23.5208 21.1251 23.5723 21.2592 23.6532 21.3753C23.734 21.4915 23.8419 21.5863 23.9674 21.6516C24.093 21.7169 24.2325 21.7508 24.3741 21.7503H30.4991C30.6647 21.7498 30.827 21.7962 30.9672 21.8842C31.1075 21.9722 31.2199 22.0983 31.2913 22.2476C31.3628 22.397 31.3904 22.5636 31.371 22.728C31.3516 22.8924 31.2859 23.048 31.1816 23.1766L22.5191 32.1016C22.4541 32.1766 22.3656 32.2273 22.268 32.2453C22.1704 32.2634 22.0696 32.2477 21.9821 32.2009C21.8946 32.1541 21.8256 32.0789 21.7864 31.9877C21.7473 31.8965 21.7403 31.7948 21.7666 31.6991L23.4466 26.4316C23.4961 26.299 23.5128 26.1564 23.4951 26.0159C23.4774 25.8755 23.4259 25.7415 23.345 25.6253C23.2641 25.5092 23.1563 25.4144 23.0307 25.3491C22.9051 25.2837 22.7656 25.2499 22.6241 25.2503H16.4991Z" stroke="url(#paint1_linear_2315_1357)" stroke-width="1.66667" stroke-linecap="round" stroke-linejoin="round"/>
<defs>
<linearGradient id="paint0_linear_2315_1357" x1="-28.0312" y1="-10.0625" x2="73.3125" y2="69.3594" gradientUnits="userSpaceOnUse">
<stop stop-color="#27AE60"/>
<stop offset="1" stop-color="#0052CC"/>
</linearGradient>
<linearGradient id="paint1_linear_2315_1357" x1="6.0198" y1="10.9189" x2="43.4342" y2="37.3111" gradientUnits="userSpaceOnUse">
<stop stop-color="#27AE60"/>
<stop offset="1" stop-color="#0052CC"/>
</linearGradient>
</defs>
</svg>
