<svg width="46" height="46" viewBox="0 0 46 46" fill="none" xmlns="http://www.w3.org/2000/svg">
<path d="M0 12C0 5.37258 5.37258 0 12 0H34C40.6274 0 46 5.37258 46 12V34C46 40.6274 40.6274 46 34 46H12C5.37258 46 0 40.6274 0 34V12Z" fill="url(#paint0_linear_2177_717)" fill-opacity="0.1"/>
<path d="M24.7168 14.75C24.0948 14.753 23.6469 15.047 23.2915 15.3106C22.8881 15.6146 22.5344 15.913 22.2108 16.2078H15.6245C15.1447 16.2078 14.75 16.6042 14.75 17.0839V22.3333C14.75 22.8131 15.1447 23.2072 15.6244 23.2072H25.5411C26.0208 23.2072 26.4178 22.8131 26.4178 22.3333V20.5827H27.2917C27.5245 20.6131 28.5788 20.2076 29.0161 20.0792C29.1915 20.0265 29.357 19.9994 29.3328 19.9994C29.3322 20.1614 29.4637 20.2928 29.6256 20.2922H31.9572C32.1192 20.2928 32.2506 20.1614 32.25 19.9994V15.3345C32.251 15.1723 32.1194 15.0405 31.9572 15.0411H29.6256C29.4697 15.0406 29.341 15.1628 29.3334 15.3185L24.9943 14.7677C24.898 14.7553 24.8057 14.7496 24.7168 14.75ZM24.7276 15.3367C24.7885 15.3363 24.8527 15.339 24.9213 15.3447L29.3328 15.907V19.4155C29.1627 19.4155 29.0377 19.4625 28.8486 19.5192C28.2567 19.7085 27.4264 19.9902 27.2917 19.9994H24.9578C24.7912 19.9994 24.6672 19.8755 24.6672 19.7089C24.6672 19.5423 24.7911 19.4155 24.9578 19.4155H26.7084C26.8695 19.4162 27.0006 19.2861 27.0012 19.125C27.0018 18.963 26.8703 18.8315 26.7084 18.8322H26.4178V17.0839C26.4178 16.6042 26.0208 16.2078 25.5411 16.2078H23.0984C23.2703 16.065 23.4494 15.9208 23.6424 15.7754C24.0437 15.4914 24.3014 15.3398 24.7276 15.3367ZM29.9161 15.625H31.6667V19.7089H29.9161L29.9161 15.625ZM15.6245 16.7911H16.2089C16.2089 17.2772 15.8198 17.6669 15.3339 17.6678V17.0839C15.3339 16.9173 15.4578 16.7911 15.6245 16.7911ZM16.7923 16.7911C19.6335 16.7926 21.7879 16.7911 24.3745 16.7911C24.3745 17.5931 25.032 18.2512 25.8339 18.2512V18.8322H24.9578C24.4781 18.8322 24.0839 19.2293 24.0839 19.7089C24.0839 20.1886 24.4781 20.5828 24.9578 20.5828H25.8339V21.1662C25.032 21.1662 24.3745 21.8242 24.3745 22.6262H16.7923C16.7923 21.8248 16.1351 21.1671 15.3339 21.1662V18.2512C16.1351 18.2502 16.7923 17.5925 16.7923 16.7911ZM24.9578 16.7911H25.5411C25.7078 16.7911 25.8339 16.9173 25.8339 17.0839V17.6678C25.3472 17.6678 24.9578 17.2778 24.9578 16.7911ZM20.5828 17.9589C19.6197 17.9589 18.8322 18.7459 18.8322 19.7089C18.8322 20.6719 19.6197 21.4589 20.5828 21.4589C21.5458 21.4589 22.3334 20.6719 22.3334 19.7089C22.3334 18.7459 21.5458 17.9589 20.5828 17.9589ZM20.5828 18.5422C21.2306 18.5422 21.7495 19.0612 21.7495 19.7089C21.7495 20.3567 21.2306 20.8756 20.5828 20.8756C19.935 20.8756 19.4155 20.3567 19.4155 19.7089C19.4155 19.0612 19.935 18.5422 20.5828 18.5422ZM30.7917 18.5422C30.6306 18.5422 30.5 18.6723 30.5 18.8333C30.5 18.9944 30.6306 19.125 30.7917 19.125C30.9528 19.125 31.0834 18.9944 31.0834 18.8333C31.0834 18.6723 30.9528 18.5422 30.7917 18.5422ZM15.3339 21.7495C15.8198 21.7504 16.2089 22.14 16.2089 22.6262H15.6245C15.4578 22.6262 15.3339 22.5 15.3339 22.3334V21.7495ZM25.8339 21.7495V22.3334C25.8339 22.5 25.7078 22.6262 25.5411 22.6262H24.9578C24.9578 22.1394 25.3472 21.7495 25.8339 21.7495ZM30.7883 21.7495C30.6976 21.7505 30.6125 21.7936 30.5582 21.8662C30.4625 21.9947 30.4885 22.1763 30.6163 22.273L31.0857 22.6262H27.875C27.7139 22.6255 27.5828 22.7556 27.5822 22.9167C27.5829 23.0778 27.7139 23.2079 27.875 23.2072H31.9572C32.2352 23.2061 32.3542 22.8537 32.1338 22.6843L30.9672 21.8081C30.9157 21.7693 30.8528 21.7487 30.7883 21.7495ZM27.875 23.7888C27.5948 23.7893 27.4763 24.1462 27.7007 24.314L28.8674 25.1902C28.9959 25.2858 29.1775 25.2598 29.2741 25.1321C29.3713 25.0031 29.3452 24.8198 29.216 24.723L28.7489 24.3721H31.955C32.1154 24.3718 32.2454 24.242 32.2461 24.0816C32.2467 23.9203 32.1163 23.7891 31.955 23.7888L27.875 23.7888ZM23.177 26.4167C22.1553 26.4191 21.0866 26.4174 20.2854 26.4167C19.6981 26.3867 18.5036 27.2586 17.9584 27.2917H17.6678C17.6672 27.1304 17.5358 27.0003 17.3745 27.0012H15.0405C14.8803 27.0018 14.7507 27.1315 14.75 27.2917V31.9573C14.7494 32.1183 14.8795 32.2494 15.0405 32.25H17.3745C17.5367 32.251 17.6685 32.1194 17.6678 31.9573H17.9583C19.3459 32.0261 20.6276 32.2422 22.0428 32.25C22.5362 32.25 23.1005 31.9795 23.7609 31.6086C24.4213 31.2377 25.1512 30.7496 25.8339 30.2631C26.7057 29.6432 27.5576 28.9875 28.3831 28.3143C28.7408 28.0064 28.9858 27.5611 28.8161 27.0354C28.7269 26.7506 28.4902 26.5575 28.2453 26.4822C28.0004 26.4069 27.7443 26.4209 27.5048 26.4885L24.1956 27.4148C24.1834 26.8649 23.7305 26.4154 23.177 26.4167ZM23.177 27.8745H20.8762C20.7151 27.8738 20.584 28.0039 20.5834 28.165C20.5827 28.327 20.7142 28.4584 20.8762 28.4578H23.177C23.4885 28.4578 23.7657 28.3124 23.9535 28.0898L27.662 27.0507C27.9502 26.9716 28.2056 27.0262 28.2584 27.2096C28.3287 27.4631 28.2548 27.653 28.0021 27.8719C27.9977 27.8764 26.8366 28.8321 25.4939 29.7891C24.8212 30.2685 24.1041 30.7468 23.4744 31.1004C22.8447 31.4541 22.2787 31.6667 22.0428 31.6667C20.6264 31.6269 19.2625 31.449 17.9583 31.3761H17.6678V27.875H17.9583C18.5979 27.8826 19.805 27.0193 20.2854 27C21.0898 27.0008 22.1564 27.0024 23.177 27C23.4237 26.9994 23.6145 27.1902 23.6145 27.4369C23.6121 27.7167 23.3854 27.877 23.177 27.8745ZM15.3339 27.5822H17.0839V31.6667H15.3339V27.5822ZM16.2083 28.1667C16.0473 28.1667 15.9167 28.2973 15.9167 28.4584C15.9167 28.6195 16.0473 28.75 16.2083 28.75C16.3694 28.75 16.5 28.6195 16.5 28.4584C16.5 28.2973 16.3694 28.1667 16.2083 28.1667Z" fill="url(#paint1_linear_2177_717)"/>
<defs>
<linearGradient id="paint0_linear_2177_717" x1="-28.0312" y1="-10.0625" x2="73.3125" y2="69.3594" gradientUnits="userSpaceOnUse">
<stop stop-color="#27AE60"/>
<stop offset="1" stop-color="#0052CC"/>
</linearGradient>
<linearGradient id="paint1_linear_2177_717" x1="4.08592" y1="10.9219" x2="42.6407" y2="41.1368" gradientUnits="userSpaceOnUse">
<stop stop-color="#27AE60"/>
<stop offset="1" stop-color="#0052CC"/>
</linearGradient>
</defs>
</svg>
