<svg width="46" height="46" viewBox="0 0 46 46" fill="none" xmlns="http://www.w3.org/2000/svg">
<path d="M0 12C0 5.37258 5.37258 0 12 0H34C40.6274 0 46 5.37258 46 12V34C46 40.6274 40.6274 46 34 46H12C5.37258 46 0 40.6274 0 34V12Z" fill="url(#paint0_linear_2243_1231)" fill-opacity="0.1"/>
<path d="M17.01 19.1546C18.2129 19.1546 19.1915 18.1757 19.1915 16.9727C19.1915 15.7696 18.2129 14.791 17.01 14.791C15.8068 14.791 14.8281 15.7696 14.8281 16.9727C14.8281 18.1757 15.8068 19.1546 17.01 19.1546ZM17.01 15.6967C17.7136 15.6967 18.2858 16.2691 18.2858 16.9727C18.2858 17.6765 17.7136 18.2489 17.01 18.2489C16.3065 18.2489 15.7338 17.6765 15.7338 16.9727C15.7338 16.2691 16.3065 15.6967 17.01 15.6967Z" fill="url(#paint1_linear_2243_1231)"/>
<path d="M30.9353 32.0463H31.1993C31.4496 32.0463 31.6521 31.8435 31.6521 31.5935C31.6521 31.3434 31.4496 31.1406 31.1993 31.1406H30.9353C30.685 31.1406 30.4824 31.3434 30.4824 31.5935C30.4824 31.8435 30.685 32.0463 30.9353 32.0463Z" fill="url(#paint2_linear_2243_1231)"/>
<path d="M14.767 33.831H31.2321C32.6852 33.831 33.8677 32.6488 33.8677 31.1956V30.2628C33.8677 29.7633 33.4613 29.3571 32.962 29.3571H32.5861V18.539C32.5861 17.3156 31.5907 16.3201 30.3671 16.3201H21.7996C21.769 16.1376 21.6352 15.9868 21.4485 15.9493L20.6825 15.7957C20.6184 15.5947 20.5375 15.3979 20.4393 15.2066L20.8718 14.5568C20.9917 14.3768 20.9678 14.1376 20.8148 13.9852L19.9967 13.1698C19.8437 13.0174 19.6057 12.9942 19.4266 13.1129L18.7761 13.5443C18.5869 13.4457 18.3901 13.3639 18.1867 13.2993L18.0332 12.5339C17.9908 12.3223 17.805 12.1699 17.5892 12.1699H16.4306C16.2148 12.1699 16.0291 12.322 15.9866 12.5336L15.8327 13.2993C15.6298 13.3639 15.433 13.4457 15.2433 13.5443L14.5932 13.1129C14.4137 12.9942 14.1758 13.0174 14.0232 13.1696L13.2047 13.985C13.0516 14.1376 13.0278 14.3768 13.1476 14.5568L13.5801 15.2071C13.4837 15.3968 13.4032 15.5933 13.3395 15.7957L12.5741 15.9493C12.3622 15.9918 12.2101 16.1775 12.2101 16.3933V17.549C12.2101 17.7644 12.3618 17.9499 12.5727 17.9928L13.3391 18.1489C13.4023 18.3492 13.4833 18.5462 13.5805 18.738L13.1476 19.3887C13.0278 19.5684 13.0516 19.8072 13.2042 19.9598L13.4129 20.1685V29.3571H13.0375C12.5382 29.3571 12.1318 29.7633 12.1318 30.2628V31.1956C12.1318 32.6488 13.3139 33.831 14.767 33.831ZM21.4498 17.9928C21.6607 17.9499 21.8124 17.7644 21.8124 17.549V17.2258H30.3671C31.0914 17.2258 31.6805 17.8148 31.6805 18.539V29.3571H25.6836C25.1414 29.3571 24.6346 29.6479 24.3613 30.1155C24.2495 30.3068 24.0425 30.4257 23.821 30.4257H21.7253C21.5037 30.4257 21.2968 30.3068 21.1849 30.1158C20.9116 29.6479 20.4053 29.3571 19.8631 29.3571H14.3186V20.9072C14.4139 20.9123 14.511 20.8904 14.5945 20.8345L15.2415 20.4018C15.4317 20.5004 15.6293 20.5822 15.8327 20.6466L15.9866 21.4118C16.0291 21.6234 16.2148 21.7755 16.4306 21.7755H17.5892C17.805 21.7755 17.9908 21.6232 18.0332 21.4116L18.1867 20.6468C18.3919 20.5822 18.5904 20.5004 18.7806 20.4018L19.4244 20.8341C19.604 20.955 19.8441 20.932 19.9971 20.7783L20.8152 19.9598C20.9678 19.8072 20.9917 19.5682 20.8718 19.3887L20.4393 18.7382C20.5379 18.5449 20.6193 18.3479 20.683 18.1489L21.4498 17.9928ZM13.1158 17.1791V16.7643L13.791 16.6288C13.9653 16.5939 14.1028 16.4603 14.143 16.2874C14.2134 15.9867 14.3354 15.6869 14.4973 15.4204C14.5884 15.2703 14.5844 15.081 14.4866 14.9347L14.1072 14.3644L14.4009 14.0721L14.9753 14.4533C15.1234 14.5515 15.3154 14.5541 15.4657 14.4597C15.7319 14.2932 16.0202 14.1734 16.3241 14.1031C16.497 14.0631 16.631 13.9255 16.6659 13.7511L16.8016 13.0756H17.2182L17.3535 13.7508C17.3885 13.9253 17.5225 14.0631 17.6954 14.1031C17.9996 14.1734 18.2884 14.2935 18.5533 14.4595C18.7041 14.5541 18.896 14.5517 19.0441 14.4533L19.619 14.0721L19.9122 14.3642L19.5328 14.9347C19.435 15.081 19.4311 15.2703 19.5222 15.4204C19.6871 15.6922 19.8105 15.992 19.8795 16.2874C19.9197 16.4603 20.0572 16.5939 20.2315 16.6288L20.9067 16.7643V17.1791L20.2302 17.3169C20.0564 17.3523 19.9188 17.486 19.879 17.6589C19.8114 17.9517 19.6911 18.2438 19.5213 18.5268C19.4311 18.6767 19.4355 18.8651 19.5328 19.0108L19.9126 19.5817L19.6199 19.8747L19.0525 19.4937C18.9035 19.394 18.7111 19.3913 18.5595 19.486C18.2955 19.6516 18.0049 19.7714 17.6963 19.8422C17.5229 19.882 17.3885 20.0199 17.3535 20.1946L17.2182 20.8699H16.8016L16.6659 20.1944C16.631 20.0197 16.4965 19.882 16.3232 19.8422C16.0185 19.7723 15.7288 19.6525 15.4626 19.4857C15.3118 19.3911 15.119 19.3944 14.9709 19.4933L14.4 19.8751L14.1068 19.5817L14.4866 19.0108C14.5839 18.8651 14.5884 18.6767 14.4981 18.5268C14.3314 18.2493 14.212 17.9572 14.1435 17.6589C14.1037 17.486 13.9662 17.3523 13.7924 17.3169L13.1158 17.1791ZM13.0375 30.2628H19.8631C20.0847 30.2628 20.2912 30.3815 20.4031 30.5728C20.6768 31.0406 21.1836 31.3314 21.7253 31.3314H23.821C24.3627 31.3314 24.8695 31.0406 25.1432 30.5726C25.2551 30.3815 25.462 30.2628 25.6836 30.2628C27.5032 30.2627 22.395 30.263 32.962 30.2623V31.1956C32.962 32.1495 32.1859 32.9254 31.2321 32.9254H14.767C13.8131 32.9254 13.0375 32.1495 13.0375 31.1956V30.2628Z" fill="url(#paint3_linear_2243_1231)"/>
<path d="M28.7731 32.0463H29.0371C29.2874 32.0463 29.49 31.8435 29.49 31.5935C29.49 31.3434 29.2874 31.1406 29.0371 31.1406H28.7731C28.5228 31.1406 28.3203 31.3434 28.3203 31.5935C28.3203 31.8435 28.5228 32.0463 28.7731 32.0463Z" fill="url(#paint4_linear_2243_1231)"/>
<path d="M14.6638 32.101H19.3575C19.6078 32.101 19.8103 31.8982 19.8103 31.6481C19.8103 31.3981 19.6078 31.1953 19.3575 31.1953H14.6638C14.4135 31.1953 14.2109 31.3981 14.2109 31.6481C14.2109 31.8982 14.4135 32.101 14.6638 32.101Z" fill="url(#paint5_linear_2243_1231)"/>
<path d="M26.5214 21.3223C26.2711 21.3223 26.0686 21.525 26.0686 21.7751V27.6071H25.3283V23.1336C25.3283 22.8835 25.1258 22.6808 24.8755 22.6808H23.0628C22.8125 22.6808 22.61 22.8835 22.61 23.1336V27.6071H21.8649V24.9449C21.8649 24.6948 21.6623 24.4921 21.412 24.4921H19.5989C19.3487 24.4921 19.1461 24.6948 19.1461 24.9449V27.6071H18.5173C18.267 27.6071 18.0645 27.8098 18.0645 28.0599C18.0645 28.31 18.267 28.5127 18.5173 28.5127C21.0342 28.5127 26.731 28.5127 29.2464 28.5127C29.4966 28.5127 29.6992 28.31 29.6992 28.0599C29.6992 27.8098 29.4966 27.6071 29.2464 27.6071H28.7873V21.7751C28.7873 21.525 28.5848 21.3223 28.3345 21.3223H26.5214ZM20.9592 27.6071H20.0518V25.3977H20.9592V27.6071ZM24.4226 27.6071H23.5157V23.5864H24.4226V27.6071ZM27.8817 27.6071H26.9742V22.2279H27.8817V27.6071Z" fill="url(#paint6_linear_2243_1231)"/>
<path d="M18.3264 23.5438C18.4294 23.772 18.6975 23.8734 18.9252 23.7704L28.378 19.5048C28.6062 19.402 28.7075 19.1338 28.6045 18.9058C28.5019 18.6781 28.2334 18.5755 28.0057 18.6792L18.5529 22.9448C18.3247 23.0476 18.2234 23.3158 18.3264 23.5438Z" fill="url(#paint7_linear_2243_1231)"/>
<defs>
<linearGradient id="paint0_linear_2243_1231" x1="-28.0312" y1="-10.0625" x2="73.3125" y2="69.3594" gradientUnits="userSpaceOnUse">
<stop stop-color="#27AE60"/>
<stop offset="1" stop-color="#0052CC"/>
</linearGradient>
<linearGradient id="paint1_linear_2243_1231" x1="12.1692" y1="13.8365" x2="21.7826" y2="21.37" gradientUnits="userSpaceOnUse">
<stop stop-color="#27AE60"/>
<stop offset="1" stop-color="#0052CC"/>
</linearGradient>
<linearGradient id="paint2_linear_2243_1231" x1="29.7697" y1="30.9425" x2="31.8244" y2="33.0221" gradientUnits="userSpaceOnUse">
<stop stop-color="#27AE60"/>
<stop offset="1" stop-color="#0052CC"/>
</linearGradient>
<linearGradient id="paint3_linear_2243_1231" x1="-1.11345" y1="7.43155" x2="46.6477" y2="44.9906" gradientUnits="userSpaceOnUse">
<stop stop-color="#27AE60"/>
<stop offset="1" stop-color="#0052CC"/>
</linearGradient>
<linearGradient id="paint4_linear_2243_1231" x1="27.6076" y1="30.9425" x2="29.6623" y2="33.0221" gradientUnits="userSpaceOnUse">
<stop stop-color="#27AE60"/>
<stop offset="1" stop-color="#0052CC"/>
</linearGradient>
<linearGradient id="paint5_linear_2243_1231" x1="10.7988" y1="30.9972" x2="11.6124" y2="34.939" gradientUnits="userSpaceOnUse">
<stop stop-color="#27AE60"/>
<stop offset="1" stop-color="#0052CC"/>
</linearGradient>
<linearGradient id="paint6_linear_2243_1231" x1="10.9745" y1="19.7494" x2="26.8394" y2="39.8671" gradientUnits="userSpaceOnUse">
<stop stop-color="#27AE60"/>
<stop offset="1" stop-color="#0052CC"/>
</linearGradient>
<linearGradient id="paint7_linear_2243_1231" x1="11.9738" y1="17.5073" x2="22.6093" y2="34.2007" gradientUnits="userSpaceOnUse">
<stop stop-color="#27AE60"/>
<stop offset="1" stop-color="#0052CC"/>
</linearGradient>
</defs>
</svg>
