<svg width="46" height="46" viewBox="0 0 46 46" fill="none" xmlns="http://www.w3.org/2000/svg">
<path d="M0 12C0 5.37258 5.37258 0 12 0H34C40.6274 0 46 5.37258 46 12V34C46 40.6274 40.6274 46 34 46H12C5.37258 46 0 40.6274 0 34V12Z" fill="url(#paint0_linear_2315_569)" fill-opacity="0.1"/>
<path d="M31.3205 12.0781H21.856C20.3785 12.0781 19.1765 13.2799 19.1765 14.7579V19.5164H14.6778C13.2013 19.5166 12 20.7184 12 22.1949V28.1449C12 29.6214 13.2013 30.8234 14.6778 30.8234H15.097V32.6764C15.097 33.1796 15.3835 33.6181 15.8447 33.8189C16.0052 33.8889 16.1753 33.9231 16.3438 33.9231C16.6533 33.9231 16.9587 33.8081 17.1965 33.5876L20.1392 30.8234H24.145C25.622 30.8234 26.8235 29.6216 26.8235 28.1449V24.2859L28.8055 26.1426C29.041 26.3646 29.347 26.4806 29.6572 26.4806C29.824 26.4806 29.9925 26.4464 30.1518 26.3776C30.6073 26.1809 30.9018 25.7319 30.9018 25.2351V23.3874H31.3207C32.798 23.3876 34 22.1856 34 20.7079V14.7579C34 13.2801 32.798 12.0781 31.3205 12.0781ZM24.145 29.4709H19.8717C19.6997 29.4709 19.534 29.5369 19.4087 29.6544L16.4495 32.4346V30.1471C16.4495 29.7734 16.1467 29.4709 15.7733 29.4709H14.6778C13.947 29.4709 13.3525 28.8766 13.3525 28.1449V22.1949C13.3525 21.4631 13.947 20.8689 14.6778 20.8689H19.1847C19.2687 22.2716 20.433 23.3876 21.856 23.3876H25.4707V28.1449C25.471 28.8766 24.876 29.4709 24.145 29.4709ZM32.6475 20.7079C32.6475 21.4396 32.0522 22.0351 31.3205 22.0351H30.2253C29.8517 22.0351 29.549 22.3376 29.549 22.7114V24.9871C29.549 24.9871 26.619 22.2374 26.6135 22.2321L26.5995 22.2189L26.5977 22.2209L26.5942 22.2176C26.469 22.1001 26.3035 22.0354 26.1318 22.0354H21.856C21.1243 22.0354 20.529 21.4396 20.529 20.7081V20.7069H20.534L20.529 14.7584C20.529 14.0266 21.1243 13.4311 21.856 13.4311H31.3205C32.0522 13.4311 32.6475 14.0269 32.6475 14.7584V20.7079Z" fill="url(#paint1_linear_2315_569)"/>
<path d="M29.2928 15.6621H23.8833C23.5098 15.6621 23.207 15.9646 23.207 16.3384C23.207 16.7121 23.5098 17.0146 23.8833 17.0146H29.293C29.6665 17.0146 29.9693 16.7121 29.9693 16.3384C29.9693 15.9646 29.6663 15.6621 29.2928 15.6621Z" fill="url(#paint2_linear_2315_569)"/>
<path d="M29.2928 18.3672H23.8833C23.5098 18.3672 23.207 18.6697 23.207 19.0434C23.207 19.4172 23.5098 19.7197 23.8833 19.7197H29.293C29.6665 19.7197 29.9693 19.4172 29.9693 19.0434C29.9693 18.6697 29.6663 18.3672 29.2928 18.3672Z" fill="url(#paint3_linear_2315_569)"/>
<path d="M16.7132 24.5092C16.6322 24.5357 16.5644 24.5897 16.4969 24.644C16.3752 24.7787 16.2939 24.9557 16.2939 25.1312C16.2939 25.3067 16.3749 25.4825 16.4969 25.604C16.6322 25.7387 16.7944 25.8075 16.9702 25.8075C17.0647 25.8075 17.1597 25.7797 17.2407 25.7532C17.3219 25.7255 17.3894 25.6712 17.4569 25.604C17.5787 25.4825 17.6599 25.3067 17.6599 25.1312C17.6599 24.9557 17.5787 24.7785 17.4569 24.644C17.2677 24.4685 16.9702 24.401 16.7132 24.5092Z" fill="url(#paint4_linear_2315_569)"/>
<path d="M19.9457 24.5093C19.6887 24.401 19.3912 24.4683 19.2019 24.644C19.0802 24.7788 19.0127 24.9558 19.0127 25.1313C19.0127 25.3068 19.0802 25.4825 19.2019 25.604C19.2694 25.6713 19.3372 25.7255 19.4182 25.7533C19.5129 25.7798 19.5939 25.8075 19.6887 25.8075C19.8647 25.8075 20.0269 25.7388 20.1622 25.604C20.2839 25.4825 20.3652 25.3068 20.3652 25.1313C20.3652 24.9558 20.2839 24.7785 20.1622 24.644C20.0944 24.59 20.0269 24.5358 19.9457 24.5093Z" fill="url(#paint5_linear_2315_569)"/>
<path d="M22.6499 24.5105C22.4876 24.4418 22.2981 24.4418 22.1224 24.5105C22.0414 24.537 21.9736 24.591 21.9061 24.6453C21.7844 24.78 21.7031 24.957 21.7031 25.1325C21.7031 25.308 21.7841 25.4838 21.9061 25.6053C22.0414 25.74 22.2036 25.8088 22.3796 25.8088C22.4741 25.8088 22.5689 25.781 22.6501 25.7545C22.7314 25.7268 22.7989 25.6725 22.8666 25.6053C22.9884 25.4838 23.0559 25.308 23.0559 25.1325C23.0559 24.957 22.9881 24.7798 22.8666 24.6453C22.7986 24.5913 22.7311 24.537 22.6499 24.5105Z" fill="url(#paint6_linear_2315_569)"/>
<path d="M15.6255 17.6923H16.978C17.3515 17.6923 17.6542 17.3898 17.6542 17.0161C17.6542 16.6423 17.3515 16.3398 16.978 16.3398H15.6255C15.252 16.3398 14.9492 16.6423 14.9492 17.0161C14.949 17.3898 15.2517 17.6923 15.6255 17.6923Z" fill="url(#paint7_linear_2315_569)"/>
<path d="M30.5014 28.5098H29.1489C28.7754 28.5098 28.4727 28.8123 28.4727 29.186C28.4727 29.5598 28.7754 29.8623 29.1489 29.8623H30.5014C30.8749 29.8623 31.1777 29.5598 31.1777 29.186C31.1777 28.8123 30.8749 28.5098 30.5014 28.5098Z" fill="url(#paint8_linear_2315_569)"/>
<defs>
<linearGradient id="paint0_linear_2315_569" x1="-28.0312" y1="-10.0625" x2="73.3125" y2="69.3594" gradientUnits="userSpaceOnUse">
<stop stop-color="#27AE60"/>
<stop offset="1" stop-color="#0052CC"/>
</linearGradient>
<linearGradient id="paint1_linear_2315_569" x1="-1.40625" y1="7.29953" x2="46.8013" y2="45.3473" gradientUnits="userSpaceOnUse">
<stop stop-color="#27AE60"/>
<stop offset="1" stop-color="#0052CC"/>
</linearGradient>
<linearGradient id="paint2_linear_2315_569" x1="19.0863" y1="15.3663" x2="20.5568" y2="21.1283" gradientUnits="userSpaceOnUse">
<stop stop-color="#27AE60"/>
<stop offset="1" stop-color="#0052CC"/>
</linearGradient>
<linearGradient id="paint3_linear_2315_569" x1="19.0863" y1="18.0713" x2="20.5568" y2="23.8334" gradientUnits="userSpaceOnUse">
<stop stop-color="#27AE60"/>
<stop offset="1" stop-color="#0052CC"/>
</linearGradient>
<linearGradient id="paint4_linear_2315_569" x1="15.4615" y1="24.1616" x2="18.4447" y2="26.5264" gradientUnits="userSpaceOnUse">
<stop stop-color="#27AE60"/>
<stop offset="1" stop-color="#0052CC"/>
</linearGradient>
<linearGradient id="paint5_linear_2315_569" x1="18.1885" y1="24.1616" x2="21.1649" y2="26.4976" gradientUnits="userSpaceOnUse">
<stop stop-color="#27AE60"/>
<stop offset="1" stop-color="#0052CC"/>
</linearGradient>
<linearGradient id="paint6_linear_2315_569" x1="20.8788" y1="24.1637" x2="23.8541" y2="26.5005" gradientUnits="userSpaceOnUse">
<stop stop-color="#27AE60"/>
<stop offset="1" stop-color="#0052CC"/>
</linearGradient>
<linearGradient id="paint7_linear_2315_569" x1="13.3009" y1="16.044" x2="16.0838" y2="20.4058" gradientUnits="userSpaceOnUse">
<stop stop-color="#27AE60"/>
<stop offset="1" stop-color="#0052CC"/>
</linearGradient>
<linearGradient id="paint8_linear_2315_569" x1="26.8243" y1="28.2139" x2="29.6072" y2="32.5758" gradientUnits="userSpaceOnUse">
<stop stop-color="#27AE60"/>
<stop offset="1" stop-color="#0052CC"/>
</linearGradient>
</defs>
</svg>
