<svg width="46" height="46" viewBox="0 0 46 46" fill="none" xmlns="http://www.w3.org/2000/svg">
<path d="M0 12C0 5.37258 5.37258 0 12 0H34C40.6274 0 46 5.37258 46 12V34C46 40.6274 40.6274 46 34 46H12C5.37258 46 0 40.6274 0 34V12Z" fill="url(#paint0_linear_2318_1727)" fill-opacity="0.1"/>
<g clip-path="url(#clip0_2318_1727)">
<path d="M33.6941 19.1388C33.2727 19.0522 32.3716 19.162 31.9282 20.1942C31.9252 20.2012 31.9223 20.2083 31.9196 20.2155L30.5496 23.8895C30.3153 23.7519 30.0477 23.6785 29.769 23.6785C29.4725 23.6785 29.184 23.7633 28.9352 23.9235L25.4216 26.1788C24.0885 26.9907 23.3782 28.0568 23 28.9579C22.6218 28.0568 21.9115 26.9907 20.5784 26.1788L17.0653 23.9239C16.816 23.7633 16.5275 23.6785 16.231 23.6785C15.9523 23.6785 15.6848 23.7519 15.4504 23.8896C15.4504 23.8896 14.0748 20.2013 14.0718 20.1942C13.6284 19.1621 12.7275 19.0524 12.3059 19.1388C11.45 19.2985 10.9067 20.0358 11.0133 20.8944C11.0157 20.9131 12.508 26.9169 12.508 26.9169C12.902 28.492 13.9724 30.0809 15.3715 31.1672C15.3763 31.171 15.3812 31.1746 15.3862 31.1781L17.7546 32.8727V33.7137C17.7546 34.2306 18.1752 34.6512 18.6921 34.6512H27.3079C27.8248 34.6512 28.2454 34.2306 28.2454 33.7137V32.8727L30.6138 31.1781C30.6188 31.1746 30.6237 31.1709 30.6285 31.1672C32.0276 30.0809 33.098 28.492 33.4921 26.9163C33.4921 26.9163 34.9843 20.9131 34.9867 20.8944C35.0933 20.0357 34.55 19.2984 33.6941 19.1388ZM22.526 31.4204C22.5247 31.4344 22.5241 33.7136 22.5241 33.7136H18.6921V32.6317C18.6921 32.4804 18.6192 32.3385 18.4961 32.2504L15.9392 30.421C14.7223 29.4735 13.7563 28.0444 13.4176 26.6899L11.9409 20.7538C11.9076 20.3974 12.1172 20.1264 12.4808 20.0598C12.4901 20.0582 12.4857 20.0594 12.491 20.058C12.5809 20.0441 12.9711 20.0182 13.2063 20.5545L14.7638 24.7314C14.5858 25.2564 14.7008 25.8553 15.1115 26.287C15.1268 26.3032 17.5302 28.2007 17.5302 28.2007C17.7334 28.361 18.0282 28.3261 18.1885 28.1229C18.3488 27.9196 18.314 27.6249 18.1108 27.4645L15.7715 25.6196C15.5666 25.3825 15.5776 25.018 15.801 24.7943C15.9161 24.6793 16.0688 24.6159 16.2311 24.6159C16.3472 24.6159 16.4602 24.6491 16.5584 24.7124C16.5584 24.7124 20.0833 26.9748 20.0865 26.9769C21.1933 27.6496 21.9397 28.5957 22.3052 29.7889C22.5828 30.6953 22.5264 31.4147 22.526 31.4204ZM34.0591 20.7538L32.5825 26.6894C32.2437 28.0444 31.2777 29.4735 30.0607 30.421L27.5038 32.2504C27.3808 32.3384 27.3078 32.4804 27.3078 32.6317V33.7136H23.4759C23.4759 33.7136 23.4752 31.4344 23.474 31.4204C23.4714 31.3923 23.2508 28.5952 25.9134 26.9769C25.9167 26.9749 29.4421 24.7121 29.4421 24.7121C29.5398 24.6492 29.6528 24.6159 29.7689 24.6159C29.9312 24.6159 30.0839 24.6793 30.1987 24.7941C30.4224 25.018 30.4334 25.3825 30.2285 25.6196L27.8893 27.4645C27.686 27.6249 27.6512 27.9196 27.8115 28.1229C27.9718 28.3262 28.2665 28.3609 28.4698 28.2007C28.4698 28.2007 30.8732 26.3032 30.8885 26.287C31.2992 25.8553 31.4141 25.2565 31.2362 24.7314L32.7937 20.5544C33.029 20.0182 33.4194 20.044 33.509 20.058C33.5142 20.0593 33.5099 20.0581 33.5192 20.0598C33.8828 20.1264 34.0925 20.3974 34.0591 20.7538Z" fill="url(#paint1_linear_2318_1727)"/>
<path d="M16.6099 21.4575H19.3377V23.4823C19.3377 23.9992 19.7583 24.4198 20.2752 24.4198H20.8686C21.1274 24.4198 21.3373 24.2099 21.3373 23.951C21.3373 23.6921 21.1274 23.4823 20.8686 23.4823H20.2752C20.2752 23.4823 20.277 20.9605 20.2758 20.9466C20.2879 20.2 20.8985 19.5963 21.6479 19.5963H24.3529C25.1022 19.5963 25.7129 20.2 25.725 20.9466C25.7238 20.9605 25.7256 23.4823 25.7256 23.4823H25.1398C24.881 23.4823 24.6711 23.6921 24.6711 23.951C24.6711 24.2099 24.881 24.4198 25.1398 24.4198H25.7256C26.2425 24.4198 26.6631 23.9992 26.6631 23.4823V21.4575H29.3908C29.9248 21.4575 30.3591 21.0231 30.3591 20.4892V18.0069C30.3591 16.939 29.6306 16.0384 28.6445 15.775C29.0754 15.3046 29.3389 14.6785 29.3389 13.9919C29.3389 12.5349 28.1535 11.3496 26.6966 11.3496C25.2396 11.3496 24.0543 12.5349 24.0543 13.9919C24.0543 14.1869 24.0761 14.3767 24.1165 14.5598C23.7772 14.401 23.3991 14.3118 23.0004 14.3118C22.6016 14.3118 22.2236 14.4011 21.8843 14.5598C21.9245 14.3767 21.9464 14.1869 21.9464 13.9919C21.9464 12.5349 20.7611 11.3496 19.3041 11.3496C17.8472 11.3496 16.6619 12.5349 16.6619 13.9919C16.6619 14.6785 16.9253 15.3046 17.3562 15.775C16.3701 16.0384 15.6416 16.939 15.6416 18.0069V20.4892C15.6416 21.0232 16.076 21.4575 16.6099 21.4575ZM29.4217 18.0069V20.4892C29.4217 20.5062 29.4079 20.52 29.3909 20.52H26.619C26.4479 19.6552 25.7927 18.9625 24.9485 18.737C25.3793 18.2667 25.6427 17.6406 25.6427 16.954C25.6427 16.8457 25.6354 16.7391 25.6226 16.6342H28.0489C28.8058 16.6342 29.4217 17.25 29.4217 18.0069ZM26.6966 12.2871C27.6367 12.2871 28.4014 13.0518 28.4014 13.9919C28.4014 14.9319 27.6367 15.6967 26.6966 15.6967C25.7566 15.6967 24.9919 14.9319 24.9919 13.9919C24.9919 13.0518 25.7567 12.2871 26.6966 12.2871ZM24.7052 16.954C24.7052 17.8941 23.9404 18.6588 23.0004 18.6588C22.0604 18.6588 21.2956 17.8941 21.2956 16.954C21.2956 16.014 22.0604 15.2492 23.0004 15.2492C23.9404 15.2492 24.7052 16.014 24.7052 16.954ZM19.3042 12.2871C20.2442 12.2871 21.009 13.0518 21.009 13.9919C21.009 14.9319 20.2442 15.6967 19.3042 15.6967C18.3641 15.6967 17.5994 14.9319 17.5994 13.9919C17.5994 13.0518 18.3641 12.2871 19.3042 12.2871ZM16.5791 18.0069C16.5791 17.25 17.195 16.6342 17.9519 16.6342H20.3781C20.3654 16.7392 20.3581 16.8457 20.3581 16.954C20.3581 17.6406 20.6215 18.2667 21.0523 18.7371C20.2081 18.9626 19.5529 19.6552 19.3818 20.52H16.6099C16.593 20.52 16.5791 20.5062 16.5791 20.4893V18.0069Z" fill="url(#paint2_linear_2318_1727)"/>
<path d="M23 24.4199C23.2589 24.4199 23.4688 24.2101 23.4688 23.9512C23.4688 23.6923 23.2589 23.4824 23 23.4824C22.7411 23.4824 22.5312 23.6923 22.5312 23.9512C22.5312 24.2101 22.7411 24.4199 23 24.4199Z" fill="url(#paint3_linear_2318_1727)"/>
</g>
<defs>
<linearGradient id="paint0_linear_2318_1727" x1="-28.0312" y1="-10.0625" x2="73.3125" y2="69.3594" gradientUnits="userSpaceOnUse">
<stop stop-color="#27AE60"/>
<stop offset="1" stop-color="#0052CC"/>
</linearGradient>
<linearGradient id="paint1_linear_2318_1727" x1="-3.625" y1="15.7167" x2="30.9901" y2="57.6233" gradientUnits="userSpaceOnUse">
<stop stop-color="#27AE60"/>
<stop offset="1" stop-color="#0052CC"/>
</linearGradient>
<linearGradient id="paint2_linear_2318_1727" x1="6.67311" y1="8.49051" x2="36.0976" y2="34.4566" gradientUnits="userSpaceOnUse">
<stop stop-color="#27AE60"/>
<stop offset="1" stop-color="#0052CC"/>
</linearGradient>
<linearGradient id="paint3_linear_2318_1727" x1="21.96" y1="23.2773" x2="24.0254" y2="24.896" gradientUnits="userSpaceOnUse">
<stop stop-color="#27AE60"/>
<stop offset="1" stop-color="#0052CC"/>
</linearGradient>
<clipPath id="clip0_2318_1727">
<rect width="24" height="24" fill="white" transform="translate(11 11)"/>
</clipPath>
</defs>
</svg>
