<svg width="46" height="46" viewBox="0 0 46 46" fill="none" xmlns="http://www.w3.org/2000/svg">
<path d="M0 12C0 5.37258 5.37258 0 12 0H34C40.6274 0 46 5.37258 46 12V34C46 40.6274 40.6274 46 34 46H12C5.37258 46 0 40.6274 0 34V12Z" fill="url(#paint0_linear_2318_1580)" fill-opacity="0.1"/>
<path d="M13.4998 23.5C13.4995 21.6221 14.0281 19.7821 15.025 18.1907C16.0219 16.5992 17.4469 15.3207 19.1366 14.5016C20.8264 13.6824 22.7128 13.3556 24.5796 13.5587C26.4465 13.7618 28.2184 14.4866 29.6925 15.65H28.1714C28.0396 15.6513 27.9137 15.7045 27.8209 15.7981C27.7282 15.8918 27.6762 16.0182 27.6762 16.15C27.6762 16.2818 27.7282 16.4082 27.8209 16.5018C27.9137 16.5955 28.0396 16.6487 28.1714 16.65H30.9998C31.1324 16.65 31.2596 16.5973 31.3533 16.5035C31.4471 16.4098 31.4998 16.2826 31.4998 16.15V13.3215C31.5004 13.2554 31.488 13.1899 31.4631 13.1287C31.4383 13.0674 31.4016 13.0117 31.3551 12.9648C31.3086 12.9178 31.2532 12.8806 31.1923 12.8551C31.1313 12.8297 31.0659 12.8166 30.9998 12.8166C30.9337 12.8166 30.8683 12.8297 30.8073 12.8551C30.7463 12.8806 30.691 12.9178 30.6445 12.9648C30.598 13.0117 30.5613 13.0674 30.5365 13.1287C30.5116 13.1899 30.4992 13.2554 30.4998 13.3215V15.0146C28.3196 13.2161 25.5307 12.3258 22.7117 12.5283C19.8926 12.7309 17.2597 14.0107 15.359 16.1025C13.4582 18.1942 12.4356 20.9373 12.5031 23.7629C12.5707 26.5884 13.7232 29.2795 15.7217 31.278C15.7679 31.3253 15.8231 31.363 15.884 31.3888C15.9449 31.4147 16.0103 31.4282 16.0764 31.4286C16.1425 31.4289 16.2081 31.4162 16.2693 31.3911C16.3305 31.3659 16.386 31.3289 16.4328 31.2821C16.4796 31.2354 16.5166 31.1798 16.5417 31.1186C16.5669 31.0574 16.5796 30.9919 16.5792 30.9257C16.5789 30.8596 16.5654 30.7942 16.5395 30.7333C16.5137 30.6724 16.476 30.6172 16.4287 30.571C15.4972 29.6446 14.7587 28.5426 14.256 27.3289C13.7532 26.1151 13.4962 24.8137 13.4998 23.5Z" fill="url(#paint1_linear_2318_1580)"/>
<path d="M19.13 32.498C18.8463 32.3601 18.5656 32.2065 18.2956 32.042C18.1825 31.9729 18.0465 31.9516 17.9176 31.9828C17.7887 32.0139 17.6775 32.095 17.6084 32.2082C17.5393 32.3214 17.518 32.4574 17.5492 32.5863C17.5803 32.7152 17.6614 32.8264 17.7746 32.8955C18.0718 33.0769 18.3808 33.2456 18.6931 33.3974C18.7522 33.4261 18.8163 33.4429 18.8818 33.4468C18.9474 33.4507 19.013 33.4417 19.0751 33.4202C19.1371 33.3987 19.1943 33.3653 19.2435 33.3217C19.2926 33.2781 19.3326 33.2253 19.3613 33.1662C19.39 33.1072 19.4068 33.043 19.4107 32.9775C19.4146 32.912 19.4056 32.8463 19.3841 32.7842C19.3626 32.7222 19.3292 32.665 19.2856 32.6159C19.242 32.5668 19.1892 32.5267 19.1301 32.498H19.13Z" fill="url(#paint2_linear_2318_1580)"/>
<path d="M32.5024 19.1398C32.531 19.1989 32.571 19.2518 32.6201 19.2954C32.6691 19.3391 32.7263 19.3726 32.7883 19.3942C32.8504 19.4157 32.916 19.4248 32.9816 19.421C33.0471 19.4172 33.1113 19.4005 33.1704 19.3718C33.2295 19.3432 33.2824 19.3032 33.326 19.2542C33.3696 19.2051 33.4032 19.1479 33.4247 19.0859C33.4463 19.0239 33.4554 18.9582 33.4516 18.8927C33.4477 18.8271 33.431 18.763 33.4024 18.7039C33.2518 18.3926 33.0833 18.0835 32.9019 17.7851C32.8678 17.729 32.823 17.6802 32.77 17.6414C32.717 17.6026 32.6568 17.5747 32.593 17.5591C32.4642 17.5277 32.3281 17.5488 32.2148 17.6178C32.1015 17.6867 32.0202 17.7978 31.9888 17.9267C31.9574 18.0555 31.9785 18.1916 32.0475 18.3049C32.2124 18.5762 32.3655 18.8571 32.5024 19.1398Z" fill="url(#paint3_linear_2318_1580)"/>
<path d="M24.6862 33.4293C24.3705 33.4668 24.0511 33.4892 23.7367 33.4968C23.6065 33.5017 23.4834 33.5574 23.3936 33.6518C23.3038 33.7462 23.2544 33.8719 23.2559 34.0022C23.2574 34.1325 23.3097 34.257 23.4017 34.3493C23.4937 34.4416 23.6181 34.4943 23.7483 34.4963C23.7522 34.4963 23.7564 34.4963 23.7603 34.496C24.106 34.488 24.4568 34.4632 24.8035 34.4223C24.9351 34.4066 25.0551 34.3394 25.1371 34.2353C25.2191 34.1312 25.2564 33.9988 25.2409 33.8672C25.2254 33.7356 25.1582 33.6155 25.0543 33.5334C24.9503 33.4513 24.8179 33.4138 24.6863 33.4292L24.6862 33.4293Z" fill="url(#paint4_linear_2318_1580)"/>
<path d="M21.8409 33.3631C21.5299 33.3111 21.2172 33.2434 20.9115 33.1615C20.7834 33.1272 20.6468 33.1453 20.532 33.2117C20.4172 33.2781 20.3334 33.3874 20.2992 33.5155C20.2649 33.6437 20.283 33.7802 20.3494 33.895C20.4158 34.0098 20.5251 34.0936 20.6532 34.1278C20.9896 34.2177 21.3339 34.2921 21.6764 34.3493C21.7412 34.3601 21.8074 34.358 21.8714 34.3432C21.9354 34.3284 21.9958 34.3011 22.0492 34.263C22.1027 34.2248 22.148 34.1765 22.1828 34.1208C22.2176 34.0651 22.241 34.0031 22.2518 33.9384C22.2626 33.8736 22.2606 33.8073 22.2458 33.7434C22.231 33.6794 22.2037 33.619 22.1656 33.5655C22.1274 33.5121 22.0791 33.4667 22.0234 33.4319C21.9677 33.3972 21.9057 33.3737 21.8409 33.3629V33.3631Z" fill="url(#paint5_linear_2318_1580)"/>
<path d="M34.0091 23.258C33.8766 23.2547 33.7482 23.3043 33.6521 23.3957C33.5561 23.4871 33.5003 23.6129 33.4969 23.7455C33.4889 24.0616 33.466 24.3809 33.4283 24.6949C33.4126 24.8266 33.4499 24.9591 33.5319 25.0634C33.6139 25.1676 33.7339 25.235 33.8656 25.2508C33.8855 25.253 33.9055 25.2542 33.9256 25.2542C34.0478 25.254 34.1657 25.2091 34.2571 25.1279C34.3484 25.0468 34.4069 24.9349 34.4215 24.8136C34.4625 24.4686 34.4879 24.1178 34.4965 23.7704C34.4981 23.7047 34.4868 23.6394 34.4633 23.5781C34.4397 23.5168 34.4042 23.4608 34.359 23.4132C34.3137 23.3656 34.2595 23.3274 34.1995 23.3008C34.1395 23.2741 34.0748 23.2596 34.0091 23.258Z" fill="url(#paint6_linear_2318_1580)"/>
<path d="M32.474 28.9788C32.3643 28.9044 32.2295 28.8766 32.0993 28.9015C31.9691 28.9263 31.8541 29.0018 31.7794 29.1114C31.6017 29.3728 31.4095 29.629 31.2079 29.8723C31.165 29.9228 31.1326 29.9812 31.1125 30.0443C31.0924 30.1073 31.085 30.1738 31.0908 30.2397C31.0965 30.3057 31.1154 30.3698 31.1461 30.4284C31.1769 30.487 31.219 30.5389 31.27 30.5811C31.321 30.6234 31.3798 30.655 31.4431 30.6743C31.5065 30.6936 31.573 30.7001 31.6388 30.6935C31.7047 30.6868 31.7686 30.6672 31.8268 30.6357C31.885 30.6041 31.9364 30.5614 31.9779 30.5098C32.1996 30.2423 32.4113 29.9607 32.6065 29.6732C32.6434 29.6189 32.6693 29.5578 32.6826 29.4936C32.6959 29.4293 32.6964 29.363 32.6841 29.2985C32.6718 29.2341 32.6469 29.1726 32.6109 29.1178C32.5748 29.0629 32.5283 29.0157 32.474 28.9788Z" fill="url(#paint7_linear_2318_1580)"/>
<path d="M33.1632 20.9197C33.2443 21.2241 33.3117 21.5369 33.3637 21.8494C33.383 21.9661 33.4432 22.0722 33.5334 22.1487C33.6236 22.2253 33.738 22.2674 33.8563 22.2676C33.8839 22.2675 33.9114 22.2652 33.9386 22.2607C34.0034 22.25 34.0654 22.2266 34.1212 22.1919C34.1769 22.1571 34.2252 22.1118 34.2634 22.0584C34.3017 22.0049 34.329 21.9445 34.3438 21.8806C34.3586 21.8166 34.3607 21.7503 34.35 21.6855C34.2931 21.3418 34.2187 20.9974 34.1297 20.6623C34.0955 20.5342 34.0119 20.4249 33.8972 20.3584C33.7824 20.2919 33.646 20.2737 33.5178 20.3079C33.3897 20.342 33.2803 20.4256 33.2139 20.5404C33.1474 20.6551 33.1292 20.7915 33.1633 20.9197H33.1632Z" fill="url(#paint8_linear_2318_1580)"/>
<path d="M29.8632 31.2142C29.6188 31.4164 29.3627 31.6085 29.1022 31.785C29.0479 31.8219 29.0013 31.869 28.9652 31.9239C28.9291 31.9787 28.9042 32.0401 28.8918 32.1046C28.8794 32.1691 28.8798 32.2353 28.8931 32.2997C28.9063 32.364 28.9321 32.425 28.9689 32.4794C29.0058 32.5337 29.053 32.5803 29.1078 32.6164C29.1626 32.6525 29.224 32.6774 29.2885 32.6898C29.353 32.7022 29.4193 32.7017 29.4836 32.6885C29.5479 32.6753 29.6089 32.6495 29.6633 32.6127C29.9499 32.4185 30.2314 32.2074 30.5004 31.9852C30.6027 31.9007 30.6671 31.7791 30.6797 31.647C30.6922 31.515 30.6518 31.3834 30.5673 31.2811C30.4828 31.1789 30.3611 31.1144 30.2291 31.1019C30.0971 31.0893 29.9654 31.1297 29.8632 31.2142Z" fill="url(#paint9_linear_2318_1580)"/>
<path d="M33.652 26.2286C33.5257 26.1884 33.3886 26.2001 33.2708 26.2609C33.1531 26.3217 33.0642 26.4268 33.0239 26.553C32.9281 26.853 32.8163 27.1527 32.6916 27.4439C32.6643 27.5044 32.6494 27.5698 32.6476 27.6362C32.6459 27.7026 32.6574 27.7687 32.6815 27.8305C32.7056 27.8924 32.7418 27.9489 32.7879 27.9966C32.8341 28.0444 32.8893 28.0825 32.9503 28.1086C33.0114 28.1348 33.077 28.1486 33.1434 28.1491C33.2098 28.1496 33.2757 28.1369 33.3371 28.1117C33.3986 28.0865 33.4544 28.0493 33.5013 28.0023C33.5482 27.9553 33.5852 27.8994 33.6103 27.8379C33.748 27.5173 33.8711 27.1871 33.9763 26.8567C33.9963 26.7942 34.0037 26.7283 33.9982 26.6629C33.9928 26.5975 33.9744 26.5338 33.9443 26.4754C33.9142 26.4171 33.8729 26.3653 33.8227 26.3229C33.7726 26.2805 33.7145 26.2485 33.652 26.2286Z" fill="url(#paint10_linear_2318_1580)"/>
<path d="M27.4345 32.6966C27.1462 32.8201 26.8464 32.9318 26.5434 33.0284C26.4808 33.0484 26.4228 33.0804 26.3727 33.1228C26.3225 33.1651 26.2812 33.217 26.2511 33.2753C26.2209 33.3336 26.2026 33.3973 26.1971 33.4627C26.1916 33.5282 26.199 33.594 26.2189 33.6566C26.2389 33.7191 26.2709 33.7771 26.3133 33.8273C26.3557 33.8775 26.4075 33.9188 26.4658 33.9489C26.5242 33.979 26.5878 33.9974 26.6533 34.0029C26.7187 34.0084 26.7846 34.001 26.8471 33.9811C27.1803 33.8748 27.5104 33.7521 27.8281 33.6161C27.95 33.5639 28.0462 33.4654 28.0955 33.3422C28.1448 33.2191 28.1431 33.0814 28.0909 32.9595C28.0387 32.8376 27.9402 32.7414 27.817 32.6921C27.6939 32.6428 27.5562 32.6444 27.4343 32.6966H27.4345Z" fill="url(#paint11_linear_2318_1580)"/>
<path d="M19.2715 22.479C19.2715 21.6595 18.7327 21.0029 17.8987 20.806C17.4406 20.6975 16.9592 20.7475 16.5331 20.9479C16.1071 21.1482 15.7615 21.487 15.5528 21.9091C15.4943 22.0276 15.4852 22.1644 15.5273 22.2897C15.5695 22.4149 15.6595 22.5184 15.7776 22.5775C15.8958 22.6366 16.0326 22.6465 16.1581 22.605C16.2836 22.5636 16.3875 22.4742 16.4473 22.3563C16.554 22.1348 16.7336 21.9566 16.956 21.8516C17.1784 21.7466 17.43 21.721 17.669 21.7793C17.8103 21.8126 18.2715 21.9618 18.2715 22.479C18.2715 23.0005 17.6692 23.4027 17.0315 23.8286C16.3135 24.3079 15.5 24.8511 15.5 25.7505C15.5 25.8831 15.5527 26.0103 15.6465 26.1041C15.7402 26.1979 15.8674 26.2505 16 26.2505H18.7715C18.8376 26.2512 18.9031 26.2387 18.9643 26.2139C19.0256 26.189 19.0812 26.1523 19.1282 26.1058C19.1751 26.0593 19.2124 26.004 19.2378 25.943C19.2633 25.882 19.2764 25.8166 19.2764 25.7505C19.2764 25.6845 19.2633 25.6191 19.2378 25.5581C19.2124 25.4971 19.1751 25.4418 19.1282 25.3953C19.0812 25.3488 19.0256 25.3121 18.9643 25.2872C18.9031 25.2624 18.8376 25.2499 18.7715 25.2506H16.7906C17 25.0521 17.2962 24.8543 17.5867 24.6602C18.3766 24.1329 19.2715 23.5352 19.2715 22.479Z" fill="url(#paint12_linear_2318_1580)"/>
<path d="M23.9999 24.125C23.9999 23.9924 23.9472 23.8652 23.8534 23.7714C23.7596 23.6777 23.6325 23.625 23.4999 23.625H23.0936V20.9687C23.0936 20.8652 23.0614 20.7642 23.0015 20.6797C22.9417 20.5952 22.857 20.5314 22.7594 20.497C22.6617 20.4627 22.5557 20.4595 22.4561 20.488C22.3566 20.5164 22.2683 20.5751 22.2035 20.6559L19.6722 23.8123C19.6134 23.8858 19.5764 23.9745 19.5657 24.0681C19.555 24.1617 19.571 24.2564 19.6118 24.3413C19.6525 24.4262 19.7165 24.4979 19.7962 24.5481C19.8759 24.5983 19.9682 24.6249 20.0624 24.625H22.0936V26.0312C22.093 26.0973 22.1054 26.1628 22.1303 26.2241C22.1551 26.2853 22.1918 26.341 22.2383 26.3879C22.2848 26.4349 22.3402 26.4721 22.4011 26.4976C22.4621 26.523 22.5275 26.5361 22.5936 26.5361C22.6597 26.5361 22.7251 26.523 22.7861 26.4976C22.8471 26.4721 22.9024 26.4349 22.9489 26.3879C22.9954 26.341 23.0321 26.2853 23.0569 26.2241C23.0818 26.1628 23.0942 26.0973 23.0936 26.0312V24.625H23.4999C23.6325 24.625 23.7597 24.5723 23.8534 24.4785C23.9472 24.3848 23.9999 24.2576 23.9999 24.125ZM22.0936 23.625H21.1046L22.0936 22.3913V23.625Z" fill="url(#paint13_linear_2318_1580)"/>
<path d="M26.559 20.1974C26.4946 20.1844 26.4283 20.1842 26.3638 20.1969C26.2994 20.2096 26.2381 20.2349 26.1834 20.2713C26.1287 20.3077 26.0818 20.3546 26.0453 20.4092C26.0088 20.4639 25.9834 20.5251 25.9707 20.5896L24.8457 26.2146C24.8196 26.3446 24.8463 26.4796 24.9199 26.59C24.9934 26.7003 25.1078 26.7769 25.2378 26.803C25.2702 26.8094 25.3032 26.8127 25.3362 26.8127C25.4517 26.8126 25.5636 26.7725 25.6528 26.6992C25.7421 26.626 25.8033 26.5241 25.826 26.4109L26.951 20.7859C26.9639 20.7215 26.964 20.6552 26.9513 20.5908C26.9386 20.5263 26.9133 20.4651 26.8769 20.4104C26.8405 20.3558 26.7937 20.3088 26.7392 20.2723C26.6846 20.2357 26.6234 20.2103 26.559 20.1974Z" fill="url(#paint14_linear_2318_1580)"/>
<path d="M29.1248 26.2503C29.2236 26.2502 29.3201 26.2209 29.4022 26.1662C29.4844 26.1114 29.5485 26.0335 29.5865 25.9424L31.4615 21.4424C31.4932 21.3664 31.5057 21.2838 31.4977 21.2018C31.4898 21.1199 31.4618 21.0412 31.4161 20.9727C31.3705 20.9042 31.3086 20.848 31.236 20.8091C31.1634 20.7703 31.0824 20.75 31.0001 20.75H28.4688C28.337 20.7513 28.2111 20.8045 28.1184 20.8981C28.0257 20.9918 27.9736 21.1182 27.9736 21.25C27.9736 21.3818 28.0257 21.5082 28.1184 21.6018C28.2111 21.6955 28.337 21.7487 28.4688 21.75H30.2501L28.6636 25.5578C28.6321 25.6338 28.6197 25.7164 28.6277 25.7983C28.6356 25.8802 28.6637 25.9588 28.7093 26.0273C28.7549 26.0958 28.8166 26.152 28.8891 26.1909C28.9616 26.2298 29.0426 26.2503 29.1248 26.2505V26.2503Z" fill="url(#paint15_linear_2318_1580)"/>
<defs>
<linearGradient id="paint0_linear_2318_1580" x1="-28.0312" y1="-10.0625" x2="73.3125" y2="69.3594" gradientUnits="userSpaceOnUse">
<stop stop-color="#27AE60"/>
<stop offset="1" stop-color="#0052CC"/>
</linearGradient>
<linearGradient id="paint1_linear_2318_1580" x1="0.921993" y1="8.35938" x2="42.6612" y2="41.193" gradientUnits="userSpaceOnUse">
<stop stop-color="#27AE60"/>
<stop offset="1" stop-color="#0052CC"/>
</linearGradient>
<linearGradient id="paint2_linear_2318_1580" x1="16.3917" y1="31.6452" x2="19.7472" y2="34.9817" gradientUnits="userSpaceOnUse">
<stop stop-color="#27AE60"/>
<stop offset="1" stop-color="#0052CC"/>
</linearGradient>
<linearGradient id="paint3_linear_2318_1580" x1="31.0741" y1="17.1343" x2="34.8803" y2="19.483" gradientUnits="userSpaceOnUse">
<stop stop-color="#27AE60"/>
<stop offset="1" stop-color="#0052CC"/>
</linearGradient>
<linearGradient id="paint4_linear_2318_1580" x1="22.0441" y1="33.1916" x2="24.3112" y2="36.4919" gradientUnits="userSpaceOnUse">
<stop stop-color="#27AE60"/>
<stop offset="1" stop-color="#0052CC"/>
</linearGradient>
<linearGradient id="paint5_linear_2318_1580" x1="19.0778" y1="32.8795" x2="21.7458" y2="36.2904" gradientUnits="userSpaceOnUse">
<stop stop-color="#27AE60"/>
<stop offset="1" stop-color="#0052CC"/>
</linearGradient>
<linearGradient id="paint6_linear_2318_1580" x1="32.7717" y1="22.8211" x2="36.01" y2="24.1836" gradientUnits="userSpaceOnUse">
<stop stop-color="#27AE60"/>
<stop offset="1" stop-color="#0052CC"/>
</linearGradient>
<linearGradient id="paint7_linear_2318_1580" x1="30.1114" y1="28.4981" x2="33.9504" y2="31.1742" gradientUnits="userSpaceOnUse">
<stop stop-color="#27AE60"/>
<stop offset="1" stop-color="#0052CC"/>
</linearGradient>
<linearGradient id="paint8_linear_2318_1580" x1="32.409" y1="19.8586" x2="35.9074" y2="21.5374" gradientUnits="userSpaceOnUse">
<stop stop-color="#27AE60"/>
<stop offset="1" stop-color="#0052CC"/>
</linearGradient>
<linearGradient id="paint9_linear_2318_1580" x1="27.7865" y1="30.7498" x2="31.3862" y2="33.9236" gradientUnits="userSpaceOnUse">
<stop stop-color="#27AE60"/>
<stop offset="1" stop-color="#0052CC"/>
</linearGradient>
<linearGradient id="paint10_linear_2318_1580" x1="31.8233" y1="25.7798" x2="35.5309" y2="27.8013" gradientUnits="userSpaceOnUse">
<stop stop-color="#27AE60"/>
<stop offset="1" stop-color="#0052CC"/>
</linearGradient>
<linearGradient id="paint11_linear_2318_1580" x1="25.0156" y1="32.3613" x2="28.0539" y2="35.7799" gradientUnits="userSpaceOnUse">
<stop stop-color="#27AE60"/>
<stop offset="1" stop-color="#0052CC"/>
</linearGradient>
<linearGradient id="paint12_linear_2318_1580" x1="13.1988" y1="19.5468" x2="23.6135" y2="25.1502" gradientUnits="userSpaceOnUse">
<stop stop-color="#27AE60"/>
<stop offset="1" stop-color="#0052CC"/>
</linearGradient>
<linearGradient id="paint13_linear_2318_1580" x1="16.8585" y1="19.1415" x2="28.7367" y2="25.9496" gradientUnits="userSpaceOnUse">
<stop stop-color="#27AE60"/>
<stop offset="1" stop-color="#0052CC"/>
</linearGradient>
<linearGradient id="paint14_linear_2318_1580" x1="23.5411" y1="18.7382" x2="30.6484" y2="20.5246" gradientUnits="userSpaceOnUse">
<stop stop-color="#27AE60"/>
<stop offset="1" stop-color="#0052CC"/>
</linearGradient>
<linearGradient id="paint15_linear_2318_1580" x1="25.8247" y1="19.5468" x2="35.8377" y2="24.5777" gradientUnits="userSpaceOnUse">
<stop stop-color="#27AE60"/>
<stop offset="1" stop-color="#0052CC"/>
</linearGradient>
</defs>
</svg>
