<svg width="46" height="46" viewBox="0 0 46 46" fill="none" xmlns="http://www.w3.org/2000/svg">
<path d="M0 12C0 5.37258 5.37258 0 12 0H34C40.6274 0 46 5.37258 46 12V34C46 40.6274 40.6274 46 34 46H12C5.37258 46 0 40.6274 0 34V12Z" fill="url(#paint0_linear_2168_791)" fill-opacity="0.1"/>
<g clip-path="url(#clip0_2168_791)">
<path d="M37 28.2725C37 24.337 34.3482 20.8985 30.6088 19.8624C30.3738 14.3844 25.8444 10 20.3096 10C14.6248 10 10 14.6248 10 20.3096C10 22.1623 10.4931 23.9662 11.4296 25.5498L10.0379 30.581L15.0693 29.1895C16.5251 30.0504 18.1672 30.5353 19.8622 30.6084C20.8981 34.348 24.3367 37 28.2725 37C29.8434 37 31.371 36.5816 32.7133 35.7867L36.9619 36.9619L35.7867 32.7133C36.5816 31.371 37 29.8434 37 28.2725ZM15.319 27.479L12.3069 28.3122L13.1402 25.3002L12.9502 25.0031C12.0552 23.6028 11.582 21.9798 11.582 20.3096C11.582 15.4971 15.4971 11.582 20.3096 11.582C25.122 11.582 29.0371 15.4971 29.0371 20.3096C29.0371 25.122 25.122 29.0371 20.3096 29.0371C18.6394 29.0371 17.0166 28.5639 15.616 27.6689L15.319 27.479ZM34.6931 34.6931L32.458 34.0747L32.1596 34.2689C31.0025 35.0206 29.6582 35.418 28.2725 35.418C25.1793 35.418 22.4612 33.418 21.4982 30.5501C26.2348 30.004 30.004 26.2348 30.5503 21.4979C33.418 22.4612 35.418 25.1793 35.418 28.2725C35.418 29.6582 35.0206 31.0025 34.2689 32.1596L34.0747 32.458L34.6931 34.6931Z" fill="url(#paint1_linear_2168_791)"/>
<path d="M19.5176 24.291H21.0996V25.873H19.5176V24.291Z" fill="url(#paint2_linear_2168_791)"/>
<path d="M21.8906 17.9102C21.8906 18.3594 21.7077 18.7741 21.3756 19.0779L19.5176 20.7786V22.709H21.0996V21.4753L22.4437 20.2451C23.0975 19.6467 23.4727 18.7957 23.4727 17.9102C23.4727 16.1654 22.0534 14.7461 20.3086 14.7461C18.5638 14.7461 17.1445 16.1654 17.1445 17.9102H18.7266C18.7266 17.0378 19.4362 16.3281 20.3086 16.3281C21.181 16.3281 21.8906 17.0378 21.8906 17.9102Z" fill="url(#paint3_linear_2168_791)"/>
</g>
<defs>
<linearGradient id="paint0_linear_2168_791" x1="-28.0312" y1="-10.0625" x2="73.3125" y2="69.3594" gradientUnits="userSpaceOnUse">
<stop stop-color="#27AE60"/>
<stop offset="1" stop-color="#0052CC"/>
</linearGradient>
<linearGradient id="paint1_linear_2168_791" x1="-6.45312" y1="4.09375" x2="53.0312" y2="50.7109" gradientUnits="userSpaceOnUse">
<stop stop-color="#27AE60"/>
<stop offset="1" stop-color="#0052CC"/>
</linearGradient>
<linearGradient id="paint2_linear_2168_791" x1="18.5535" y1="23.9449" x2="22.0389" y2="26.6764" gradientUnits="userSpaceOnUse">
<stop stop-color="#27AE60"/>
<stop offset="1" stop-color="#0052CC"/>
</linearGradient>
<linearGradient id="paint3_linear_2168_791" x1="13.2883" y1="13.0042" x2="29.5031" y2="23.1028" gradientUnits="userSpaceOnUse">
<stop stop-color="#27AE60"/>
<stop offset="1" stop-color="#0052CC"/>
</linearGradient>
<clipPath id="clip0_2168_791">
<rect width="27" height="27" fill="white" transform="translate(10 10)"/>
</clipPath>
</defs>
</svg>
