<svg width="46" height="46" viewBox="0 0 46 46" fill="none" xmlns="http://www.w3.org/2000/svg">
<path d="M0 12C0 5.37258 5.37258 0 12 0H34C40.6274 0 46 5.37258 46 12V34C46 40.6274 40.6274 46 34 46H12C5.37258 46 0 40.6274 0 34V12Z" fill="url(#paint0_linear_2143_655)" fill-opacity="0.1"/>
<path d="M23.5001 35.0706C22.0537 35.0706 20.6073 34.7813 19.2573 34.2992C14.8216 32.5634 11.9287 28.3206 11.9287 23.4992C11.9287 17.1349 17.1359 11.9277 23.5001 11.9277C26.5859 11.9277 29.4787 13.0849 31.6966 15.3027C32.0823 15.6884 32.0823 16.267 31.6966 16.6527C31.3109 17.0384 30.7323 17.0384 30.3466 16.6527C28.5144 14.8206 26.1037 13.8563 23.5001 13.8563C18.1966 13.8563 13.8573 18.1956 13.8573 23.4992C13.8573 27.5492 16.268 31.0206 20.0287 32.467C21.1859 32.9492 22.343 33.142 23.5001 33.142C24.0787 33.142 24.4644 33.5277 24.4644 34.1063C24.4644 34.6849 24.0787 35.0706 23.5001 35.0706ZM27.3573 34.3956C26.2966 34.3956 26.0073 32.9492 26.9716 32.5634C30.7323 31.117 33.143 27.5492 33.143 23.5956C33.143 23.017 33.5287 22.6313 34.1073 22.6313C34.6859 22.6313 35.0716 23.017 35.0716 23.5956C35.0716 28.417 32.1787 32.6599 27.743 34.3956C27.5501 34.2992 27.4537 34.3956 27.3573 34.3956ZM23.5001 30.2492C19.7394 30.2492 16.7501 27.2599 16.7501 23.4992C16.7501 19.7384 19.7394 16.7492 23.5001 16.7492C25.3323 16.7492 26.9716 17.4242 28.3216 18.7742C28.7073 19.1599 28.7073 19.7384 28.3216 20.1242C27.9359 20.5099 27.3573 20.5099 26.9716 20.1242C26.0073 19.1599 24.7537 18.6777 23.5001 18.6777C20.8001 18.6777 18.6787 20.7992 18.6787 23.4992C18.6787 26.1992 20.8001 28.3206 23.5001 28.3206C26.2001 28.3206 28.3216 26.1992 28.3216 23.4992C28.3216 22.9206 28.7073 22.5349 29.2859 22.5349C29.8644 22.5349 30.2501 22.9206 30.2501 23.4992C30.2501 27.2599 27.2609 30.2492 23.5001 30.2492Z" fill="url(#paint1_linear_2143_655)"/>
<defs>
<linearGradient id="paint0_linear_2143_655" x1="-28.0312" y1="-10.0625" x2="73.3125" y2="69.3594" gradientUnits="userSpaceOnUse">
<stop stop-color="#27AE60"/>
<stop offset="1" stop-color="#0052CC"/>
</linearGradient>
<linearGradient id="paint1_linear_2143_655" x1="-2.17397" y1="6.86524" x2="48.8126" y2="46.8228" gradientUnits="userSpaceOnUse">
<stop stop-color="#27AE60"/>
<stop offset="1" stop-color="#0052CC"/>
</linearGradient>
</defs>
</svg>
