<svg width="46" height="46" viewBox="0 0 46 46" fill="none" xmlns="http://www.w3.org/2000/svg">
<path d="M0 12C0 5.37258 5.37258 0 12 0H34C40.6274 0 46 5.37258 46 12V34C46 40.6274 40.6274 46 34 46H12C5.37258 46 0 40.6274 0 34V12Z" fill="url(#paint0_linear_2143_906)" fill-opacity="0.1"/>
<g clip-path="url(#clip0_2143_906)">
<path d="M21.9371 18.4844C21.4271 18.4844 21.0137 18.8978 21.0137 19.4078V24.4323C21.0137 25.8651 22.1791 27.0305 23.6119 27.0305H26.9616C27.4715 27.0305 27.885 26.6171 27.885 26.1071C27.885 25.5972 27.4715 25.1837 26.9616 25.1837H23.6119C23.1974 25.1837 22.8604 24.8468 22.8604 24.4323V19.4078C22.8604 18.8973 22.447 18.4844 21.9371 18.4844Z" fill="url(#paint1_linear_2143_906)"/>
<path d="M32.7808 14.594C30.3017 12.1155 27.0058 10.7502 23.5001 10.7502C21.5869 10.7502 19.7148 11.1636 18.0004 11.9552L18.2725 11.2596C18.4581 10.7845 18.2235 10.2492 17.7488 10.0636C17.2737 9.87796 16.7385 10.1126 16.5528 10.5872L15.4143 13.4998C15.2872 13.8246 15.3009 14.1911 15.4517 14.5059C15.6026 14.8202 15.8799 15.0607 16.2127 15.1651L19.1964 16.1006C19.2882 16.1296 19.3815 16.1433 19.4727 16.1433C19.8656 16.1433 20.2295 15.8907 20.3534 15.4963C20.5058 15.0095 20.2353 14.4917 19.7485 14.3393L18.2757 13.8773C19.8804 13.0373 21.6675 12.5975 23.4995 12.5975C26.5122 12.5975 29.3441 13.7708 31.4746 15.9007C33.6045 18.0312 34.7778 20.8631 34.7778 23.8758C34.7778 26.8885 33.6045 29.7208 31.4746 31.8508C29.3441 33.9807 26.5122 35.1541 23.4995 35.1541C20.4868 35.1541 17.6545 33.9807 15.5245 31.8508C13.394 29.7203 12.2212 26.8885 12.2212 23.8758C12.2212 22.0839 12.6289 20.371 13.4325 18.7848C13.663 18.3302 13.4811 17.7744 13.0265 17.544C12.5719 17.3135 12.0161 17.4954 11.7856 17.95C10.8496 19.7968 10.375 21.7901 10.375 23.8747C10.375 27.3805 11.7403 30.6764 14.2193 33.1554C16.6984 35.6345 19.9943 36.9998 23.5001 36.9998C27.0058 36.9998 30.3017 35.6345 32.7808 33.1554C35.2598 30.6764 36.6251 27.3805 36.6251 23.8747C36.6251 20.3689 35.2598 17.073 32.7808 14.594Z" fill="url(#paint2_linear_2143_906)"/>
</g>
<defs>
<linearGradient id="paint0_linear_2143_906" x1="-28.0312" y1="-10.0625" x2="73.3125" y2="69.3594" gradientUnits="userSpaceOnUse">
<stop stop-color="#27AE60"/>
<stop offset="1" stop-color="#0052CC"/>
</linearGradient>
<linearGradient id="paint1_linear_2143_906" x1="16.8265" y1="16.6149" x2="34.3177" y2="27.6362" gradientUnits="userSpaceOnUse">
<stop stop-color="#27AE60"/>
<stop offset="1" stop-color="#0052CC"/>
</linearGradient>
<linearGradient id="paint2_linear_2143_906" x1="-5.62117" y1="4.0938" x2="53.4417" y2="49.0955" gradientUnits="userSpaceOnUse">
<stop stop-color="#27AE60"/>
<stop offset="1" stop-color="#0052CC"/>
</linearGradient>
<clipPath id="clip0_2143_906">
<rect width="27" height="27" fill="white" transform="translate(10 10)"/>
</clipPath>
</defs>
</svg>
