<svg width="46" height="46" viewBox="0 0 46 46" fill="none" xmlns="http://www.w3.org/2000/svg">
<path d="M0 12C0 5.37258 5.37258 0 12 0H34C40.6274 0 46 5.37258 46 12V34C46 40.6274 40.6274 46 34 46H12C5.37258 46 0 40.6274 0 34V12Z" fill="url(#paint0_linear_2327_1142)" fill-opacity="0.1"/>
<g clip-path="url(#clip0_2327_1142)">
<path d="M27.0293 26.3921C26.4607 26.3921 25.998 25.9917 25.998 25.4996C25.998 25.0074 26.4607 24.607 27.0293 24.607C27.5979 24.607 28.0605 25.0074 28.0605 25.4996C28.0605 25.7584 28.2704 25.9683 28.5293 25.9683C28.7881 25.9683 28.998 25.7584 28.998 25.4996C28.998 24.6406 28.358 23.9183 27.498 23.7223V23.4785C27.498 23.2197 27.2881 23.0098 27.0293 23.0098C26.7704 23.0098 26.5605 23.2197 26.5605 23.4785V23.7223C25.7006 23.9183 25.0605 24.6406 25.0605 25.4996C25.0605 26.5086 25.9437 27.3296 27.0293 27.3296C27.5979 27.3296 28.0605 27.73 28.0605 28.2222C28.0605 28.7144 27.5979 29.1148 27.0293 29.1148C26.4607 29.1148 25.998 28.7144 25.998 28.2222C25.998 27.9634 25.7881 27.7535 25.5293 27.7535C25.2705 27.7535 25.0605 27.9634 25.0605 28.2222C25.0605 29.0812 25.7006 29.8034 26.5605 29.9995V30.202C26.5605 30.4608 26.7704 30.6707 27.0293 30.6707C27.2881 30.6707 27.498 30.4608 27.498 30.202V29.9995C28.358 29.8034 28.998 29.0812 28.998 28.2222C28.998 27.2131 28.1149 26.3921 27.0293 26.3921Z" fill="url(#paint1_linear_2327_1142)"/>
<path d="M32.1629 23.6039C31.5505 22.6497 30.6878 21.8862 29.6681 21.396C29.4347 21.2838 29.1546 21.3821 29.0425 21.6154C28.9303 21.8487 29.0285 22.1288 29.2619 22.2409C31.0389 23.0952 32.1871 24.9205 32.1871 26.891C32.1871 27.7342 31.9793 28.5704 31.5862 29.3093C31.4646 29.5378 31.5512 29.8217 31.7798 29.9433C31.8499 29.9806 31.9253 29.9983 31.9995 29.9983C32.1673 29.9983 32.3295 29.908 32.4138 29.7497C32.8788 28.8757 33.1246 27.8872 33.1246 26.891C33.1246 25.721 32.7921 24.5843 32.1629 23.6039Z" fill="url(#paint2_linear_2327_1142)"/>
<path d="M27.7659 20.7969L27.7344 20.7969C27.4755 20.7969 27.2656 21.0067 27.2656 21.2656C27.2656 21.5245 27.4755 21.7344 27.7344 21.7344L27.7615 21.7344C27.7623 21.7344 27.763 21.7344 27.7638 21.7344C28.0216 21.7344 28.2312 21.526 28.2325 21.2679C28.2336 21.009 28.0248 20.7981 27.7659 20.7969Z" fill="url(#paint3_linear_2327_1142)"/>
<path d="M24.8002 31.5406C23.0232 30.6863 21.875 28.861 21.875 26.8905C21.875 26.0473 22.0828 25.2111 22.476 24.4722C22.5976 24.2437 22.5109 23.9598 22.2823 23.8382C22.0539 23.7166 21.7699 23.8033 21.6484 24.0319C21.1833 24.9058 20.9375 25.8943 20.9375 26.8905C20.9375 28.0605 21.2701 29.1972 21.8993 30.1776C22.5116 31.1318 23.3743 31.8953 24.3941 32.3855C24.4595 32.417 24.5287 32.4319 24.5968 32.4319C24.7714 32.4319 24.9389 32.334 25.0196 32.1662C25.1317 31.9328 25.0336 31.6527 24.8002 31.5406Z" fill="url(#paint4_linear_2327_1142)"/>
<path d="M26.3281 32.047L26.3009 32.0469C26.0409 32.0464 25.8313 32.2545 25.8301 32.5134C25.8289 32.7723 26.0378 32.9832 26.2967 32.9844L26.3281 32.9845C26.5869 32.9845 26.7968 32.7746 26.7968 32.5157C26.7968 32.2569 26.5869 32.047 26.3281 32.047Z" fill="url(#paint5_linear_2327_1142)"/>
<path d="M29.1598 19.211C29.1027 19.075 29.0328 18.9469 28.9515 18.8281H30.1718C31.3608 18.8281 32.3281 17.8608 32.3281 16.6719C32.3281 15.4829 31.3608 14.5156 30.1718 14.5156H26.4181C26.6567 14.1687 26.7968 13.7489 26.7968 13.2969C26.7968 12.1079 25.8295 11.1406 24.6406 11.1406H13.1562C11.9673 11.1406 11 12.1079 11 13.2969C11 14.4858 11.9673 15.4531 13.1562 15.4531H16.91C16.6713 15.8001 16.5312 16.2198 16.5312 16.6719C16.5312 17.1239 16.6713 17.5436 16.91 17.8906H15.6875C14.4986 17.8906 13.5312 18.8579 13.5312 20.0469C13.5312 20.7297 13.8507 21.339 14.3476 21.7344C13.8507 22.1297 13.5312 22.739 13.5312 23.4219C13.5312 24.1047 13.8507 24.714 14.3476 25.1093C13.8507 25.5047 13.5312 26.114 13.5312 26.7968C13.5312 27.4797 13.8507 28.089 14.3476 28.4843C13.8507 28.8797 13.5312 29.489 13.5312 30.1718C13.5312 31.3608 14.4986 32.3281 15.6875 32.3281H21.2117C22.667 33.8847 24.7373 34.8594 27.0313 34.8594C31.4252 34.8594 35 31.2846 35 26.8906C35 23.2336 32.5236 20.1445 29.1598 19.211ZM30.1718 15.4531C30.8439 15.4531 31.3906 15.9999 31.3906 16.6719C31.3906 17.3439 30.8439 17.8906 30.1718 17.8906H27.1718H18.6875C18.0154 17.8906 17.4687 17.3439 17.4687 16.6719C17.4687 15.9999 18.0154 15.4531 18.6875 15.4531H30.1718ZM13.1562 14.5156C12.4842 14.5156 11.9375 13.9689 11.9375 13.2969C11.9375 12.6249 12.4842 12.0781 13.1562 12.0781H24.6406C25.3126 12.0781 25.8593 12.6249 25.8593 13.2969C25.8593 13.9689 25.3126 14.5156 24.6406 14.5156H13.1562ZM15.6875 18.8281H27.1718C27.3607 18.8281 27.5415 18.872 27.7036 18.9505C27.4819 18.9319 27.2578 18.9219 27.0313 18.9219C24.8307 18.9219 22.8357 19.8186 21.3923 21.2656H15.6875C15.0155 21.2656 14.4687 20.7189 14.4687 20.0469C14.4687 19.3749 15.0155 18.8281 15.6875 18.8281ZM15.6875 22.2031H20.5913C20.0592 22.9321 19.6478 23.7544 19.3865 24.6406H15.6875C15.0154 24.6406 14.4687 24.0939 14.4687 23.4219C14.4687 22.7499 15.0154 22.2031 15.6875 22.2031ZM15.6875 25.5781H19.1712C19.1001 26.0053 19.0625 26.4436 19.0625 26.8906C19.0625 27.2725 19.0901 27.648 19.1423 28.0156H15.6875C15.0154 28.0156 14.4687 27.4689 14.4687 26.7968C14.4687 26.1248 15.0154 25.5781 15.6875 25.5781ZM15.6875 31.3906C15.0154 31.3906 14.4687 30.8439 14.4687 30.1718C14.4687 29.4998 15.0154 28.9531 15.6875 28.9531H19.3337C19.5702 29.8349 19.9545 30.6568 20.4584 31.3906H15.6875ZM27.0313 33.9219C23.1542 33.9219 20 30.7677 20 26.8906C20 23.0136 23.1542 19.8594 27.0313 19.8594C30.9083 19.8594 34.0625 23.0136 34.0625 26.8906C34.0625 30.7677 30.9083 33.9219 27.0313 33.9219Z" fill="url(#paint6_linear_2327_1142)"/>
</g>
<defs>
<linearGradient id="paint0_linear_2327_1142" x1="-28.0312" y1="-10.0625" x2="73.3125" y2="69.3594" gradientUnits="userSpaceOnUse">
<stop stop-color="#27AE60"/>
<stop offset="1" stop-color="#0052CC"/>
</linearGradient>
<linearGradient id="paint1_linear_2327_1142" x1="22.6611" y1="21.3339" x2="34.709" y2="26.1867" gradientUnits="userSpaceOnUse">
<stop stop-color="#27AE60"/>
<stop offset="1" stop-color="#0052CC"/>
</linearGradient>
<linearGradient id="paint2_linear_2327_1142" x1="26.4803" y1="19.4577" x2="39.3597" y2="24.2759" gradientUnits="userSpaceOnUse">
<stop stop-color="#27AE60"/>
<stop offset="1" stop-color="#0052CC"/>
</linearGradient>
<linearGradient id="paint3_linear_2327_1142" x1="26.6765" y1="20.5918" x2="28.7563" y2="22.2727" gradientUnits="userSpaceOnUse">
<stop stop-color="#27AE60"/>
<stop offset="1" stop-color="#0052CC"/>
</linearGradient>
<linearGradient id="paint4_linear_2327_1142" x1="18.4217" y1="21.8913" x2="31.3011" y2="26.7094" gradientUnits="userSpaceOnUse">
<stop stop-color="#27AE60"/>
<stop offset="1" stop-color="#0052CC"/>
</linearGradient>
<linearGradient id="paint5_linear_2327_1142" x1="25.241" y1="31.8418" x2="27.3209" y2="33.5225" gradientUnits="userSpaceOnUse">
<stop stop-color="#27AE60"/>
<stop offset="1" stop-color="#0052CC"/>
</linearGradient>
<linearGradient id="paint6_linear_2327_1142" x1="-3.625" y1="5.95215" x2="48.7744" y2="47.5038" gradientUnits="userSpaceOnUse">
<stop stop-color="#27AE60"/>
<stop offset="1" stop-color="#0052CC"/>
</linearGradient>
<clipPath id="clip0_2327_1142">
<rect width="24" height="24" fill="white" transform="translate(11 11)"/>
</clipPath>
</defs>
</svg>
