<svg width="46" height="46" viewBox="0 0 46 46" fill="none" xmlns="http://www.w3.org/2000/svg">
<path d="M0 12C0 5.37258 5.37258 0 12 0H34C40.6274 0 46 5.37258 46 12V34C46 40.6274 40.6274 46 34 46H12C5.37258 46 0 40.6274 0 34V12Z" fill="url(#paint0_linear_2181_1616)" fill-opacity="0.1"/>
<path d="M13.7928 24.2076L17.7928 28.2076C17.885 28.3031 17.9954 28.3793 18.1174 28.4317C18.2394 28.4841 18.3706 28.5117 18.5034 28.5128C18.6362 28.514 18.7678 28.4887 18.8907 28.4384C19.0136 28.3881 19.1253 28.3139 19.2192 28.22C19.3131 28.1261 19.3873 28.0144 19.4376 27.8915C19.4879 27.7686 19.5132 27.6369 19.512 27.5042C19.5109 27.3714 19.4833 27.2402 19.4309 27.1182C19.3785 26.9962 19.3023 26.8858 19.2068 26.7936L15.9138 23.5006L19.2068 20.2076C19.3023 20.1153 19.3785 20.005 19.4309 19.883C19.4833 19.761 19.5109 19.6298 19.512 19.497C19.5132 19.3642 19.4879 19.2325 19.4376 19.1096C19.3873 18.9867 19.3131 18.8751 19.2192 18.7812C19.1253 18.6873 19.0136 18.613 18.8907 18.5627C18.7678 18.5125 18.6362 18.4872 18.5034 18.4883C18.3706 18.4895 18.2394 18.5171 18.1174 18.5695C17.9954 18.6219 17.885 18.6981 17.7928 18.7936L13.7928 22.7936C13.6053 22.9811 13.5 23.2354 13.5 23.5006C13.5 23.7657 13.6053 24.02 13.7928 24.2076Z" fill="url(#paint1_linear_2181_1616)"/>
<path d="M28.7193 18.7936C28.627 18.6981 28.5167 18.6219 28.3947 18.5695C28.2727 18.5171 28.1415 18.4895 28.0087 18.4883C27.8759 18.4872 27.7442 18.5125 27.6213 18.5627C27.4984 18.613 27.3868 18.6873 27.2929 18.7812C27.199 18.8751 27.1247 18.9867 27.0745 19.1096C27.0242 19.2325 26.9989 19.3642 27 19.497C27.0012 19.6298 27.0288 19.761 27.0812 19.883C27.1336 20.005 27.2098 20.1153 27.3053 20.2076L30.5983 23.5006L27.3053 26.7936C27.2098 26.8858 27.1336 26.9962 27.0812 27.1182C27.0288 27.2402 27.0012 27.3714 27 27.5042C26.9989 27.6369 27.0242 27.7686 27.0745 27.8915C27.1247 28.0144 27.199 28.1261 27.2929 28.22C27.3868 28.3139 27.4984 28.3881 27.6213 28.4384C27.7442 28.4887 27.8759 28.514 28.0087 28.5128C28.1415 28.5117 28.2727 28.4841 28.3947 28.4317C28.5167 28.3793 28.627 28.3031 28.7193 28.2076L32.7193 24.2076C32.9068 24.02 33.0121 23.7657 33.0121 23.5006C33.0121 23.2354 32.9068 22.9811 32.7193 22.7936L28.7193 18.7936Z" fill="url(#paint2_linear_2181_1616)"/>
<defs>
<linearGradient id="paint0_linear_2181_1616" x1="-28.0312" y1="-10.0625" x2="73.3125" y2="69.3594" gradientUnits="userSpaceOnUse">
<stop stop-color="#27AE60"/>
<stop offset="1" stop-color="#0052CC"/>
</linearGradient>
<linearGradient id="paint1_linear_2181_1616" x1="9.83639" y1="16.2954" x2="27.3482" y2="24.526" gradientUnits="userSpaceOnUse">
<stop stop-color="#27AE60"/>
<stop offset="1" stop-color="#0052CC"/>
</linearGradient>
<linearGradient id="paint2_linear_2181_1616" x1="23.3364" y1="16.2954" x2="40.8482" y2="24.526" gradientUnits="userSpaceOnUse">
<stop stop-color="#27AE60"/>
<stop offset="1" stop-color="#0052CC"/>
</linearGradient>
</defs>
</svg>
