<svg width="46" height="46" viewBox="0 0 46 46" fill="none" xmlns="http://www.w3.org/2000/svg">
<rect width="46" height="46" rx="8" fill="#A855F7" fill-opacity="0.1"/>
<g clip-path="url(#clip0_2181_1858)">
<path d="M21.1669 26.6663H24.8336C25.4411 26.6663 25.9336 26.1738 25.9336 25.5663V22.2663C25.9336 21.6588 25.4411 21.1663 24.8336 21.1663V20.4329C24.8336 19.4204 24.0127 18.5996 23.0002 18.5996C21.9877 18.5996 21.1669 19.4204 21.1669 20.4329V21.1663C20.5594 21.1663 20.0669 21.6588 20.0669 22.2663V25.5663C20.0669 26.1738 20.5594 26.6663 21.1669 26.6663ZM21.9002 20.4329C21.9002 19.8254 22.3927 19.3329 23.0002 19.3329C23.6077 19.3329 24.1002 19.8254 24.1002 20.4329V21.1663H21.9002V20.4329ZM20.8002 22.2663C20.8002 22.0638 20.9644 21.8996 21.1669 21.8996H24.8336C25.0361 21.8996 25.2002 22.0638 25.2002 22.2663V25.5663C25.2002 25.7688 25.0361 25.9329 24.8336 25.9329H21.1669C20.9644 25.9329 20.8002 25.7688 20.8002 25.5663V22.2663Z" fill="#A855F7"/>
<path d="M22.6333 24.766V24.8335C22.6333 25.036 22.7975 25.2001 23 25.2001C23.2025 25.2001 23.3667 25.036 23.3667 24.8335V24.766C23.8718 24.5874 24.1748 24.0709 24.0842 23.5429C23.9936 23.0149 23.5357 22.6289 23 22.6289C22.4643 22.6289 22.0064 23.0149 21.9158 23.5429C21.8253 24.0709 22.1282 24.5874 22.6333 24.766ZM23 23.3668C23.2025 23.3668 23.3667 23.531 23.3667 23.7335C23.3667 23.936 23.2025 24.1001 23 24.1001C22.7975 24.1001 22.6333 23.936 22.6333 23.7335C22.6333 23.531 22.7975 23.3668 23 23.3668Z" fill="#A855F7"/>
<path d="M16.7666 23.0009C16.7666 26.4435 19.5574 29.2342 22.9999 29.2342C26.4425 29.2342 29.2333 26.4435 29.2333 23.0009C29.2333 19.5583 26.4425 16.7676 22.9999 16.7676C19.559 16.7714 16.7704 19.5599 16.7666 23.0009ZM22.9999 17.5009C26.0375 17.5009 28.4999 19.9633 28.4999 23.0009C28.4999 26.0385 26.0375 28.5009 22.9999 28.5009C19.9624 28.5009 17.4999 26.0385 17.4999 23.0009C17.5034 19.9648 19.9638 17.5043 22.9999 17.5009Z" fill="#A855F7"/>
<path d="M30.3336 31.0674C29.6668 31.0699 29.0856 31.5218 28.919 32.1674H26.3002V29.9509C27.12 29.565 27.8649 29.0368 28.5002 28.3908C28.5941 28.2977 28.6307 28.1612 28.5958 28.0336C28.5609 27.9061 28.46 27.8072 28.3318 27.7748C28.2036 27.7425 28.0679 27.7817 27.9766 27.8774C27.3541 28.5139 26.615 29.0249 25.7997 29.3826C25.7505 29.4021 25.7062 29.4323 25.6699 29.471C25.6659 29.4754 25.6637 29.4812 25.6597 29.4864C25.6328 29.5162 25.6112 29.5503 25.5955 29.5872C25.5883 29.6102 25.5835 29.6339 25.5812 29.658C25.5744 29.6787 25.5696 29.7001 25.5669 29.7218V29.7284V32.1674C25.5669 32.5724 25.8952 32.9008 26.3002 32.9008H28.919C29.1108 33.6369 29.8344 34.1034 30.5841 33.9744C31.3338 33.8454 31.8597 33.1637 31.7944 32.4058C31.7291 31.6479 31.0943 31.0663 30.3336 31.0674ZM30.3336 33.2674C29.9286 33.2674 29.6002 32.9391 29.6002 32.5341C29.6002 32.1291 29.9286 31.8008 30.3336 31.8008C30.7386 31.8008 31.0669 32.1291 31.0669 32.5341C31.0669 32.9391 30.7386 33.2674 30.3336 33.2674Z" fill="#A855F7"/>
<path d="M14.8814 27.0335H16.6531C16.6561 27.0335 16.6586 27.0316 16.6619 27.0316C16.6984 27.03 16.7344 27.0227 16.7686 27.01C16.7857 27.0044 16.8024 26.9975 16.8185 26.9895C16.8225 26.9873 16.8273 26.9865 16.8313 26.984C16.8354 26.9814 16.8416 26.9737 16.8475 26.9697C16.8807 26.9491 16.9102 26.9231 16.9347 26.8927C16.939 26.887 16.9431 26.8811 16.9468 26.8751C16.9706 26.8417 16.9884 26.8045 16.9996 26.7651C16.9996 26.7596 17.0018 26.7541 17.0029 26.7486C17.0118 26.7221 17.0175 26.6946 17.0198 26.6668C17.0179 26.6529 17.0151 26.6392 17.0114 26.6257C17.0114 26.621 17.0114 26.6166 17.0088 26.6114C17.0026 26.5684 16.9885 26.5269 16.9674 26.489L16.9655 26.4831C16.5895 25.8341 16.3218 25.1282 16.1728 24.3931C16.1323 24.1946 15.9386 24.0666 15.7401 24.1071C15.5417 24.1476 15.4136 24.3413 15.4541 24.5398C15.5775 25.1481 15.7745 25.7391 16.0408 26.2998H14.8814C14.6967 25.5846 14.0092 25.1184 13.2765 25.2114C12.5438 25.3045 11.9946 25.9279 11.9946 26.6664C11.9946 27.405 12.5438 28.0283 13.2765 28.1214C14.0092 28.2145 14.6967 27.7486 14.8814 27.0335ZM13.4668 27.4001C13.0618 27.4001 12.7335 27.0718 12.7335 26.6668C12.7335 26.2618 13.0618 25.9335 13.4668 25.9335C13.8718 25.9335 14.2001 26.2618 14.2001 26.6668C14.2001 27.0718 13.8718 27.4001 13.4668 27.4001Z" fill="#A855F7"/>
<path d="M12 19.3342C11.9991 20.0719 12.5472 20.695 13.279 20.7881C14.0107 20.8812 14.6974 20.4153 14.8813 19.7009H16.653H16.6629C16.6991 19.6989 16.7348 19.6916 16.7689 19.6793C16.785 19.6741 16.8007 19.6678 16.8158 19.6602C16.8353 19.6499 16.8538 19.6376 16.8708 19.6235C16.9017 19.6002 16.9285 19.5718 16.95 19.5396C16.9548 19.5326 16.961 19.5275 16.9654 19.5201C17.4356 18.7043 18.0665 17.9924 18.82 17.4276C18.9248 17.349 18.9797 17.2204 18.964 17.0904C18.9484 16.9603 18.8645 16.8485 18.744 16.7971C18.6236 16.7456 18.4848 16.7623 18.38 16.8409C17.6084 17.4222 16.9532 18.1437 16.4488 18.9676H14.8813C14.6974 18.2532 14.0107 17.7873 13.279 17.8804C12.5472 17.9735 11.9991 18.5966 12 19.3342ZM14.2 19.3342C14.2 19.7393 13.8717 20.0676 13.4667 20.0676C13.0617 20.0676 12.7333 19.7393 12.7333 19.3342C12.7333 18.9292 13.0617 18.6009 13.4667 18.6009C13.6612 18.6009 13.8477 18.6782 13.9852 18.8157C14.1227 18.9532 14.2 19.1398 14.2 19.3342Z" fill="#A855F7"/>
<path d="M32.5335 25.1999C31.8667 25.2024 31.2856 25.6543 31.1189 26.2999H29.9591C30.2256 25.7394 30.4227 25.1483 30.5458 24.5399C30.5863 24.3414 30.4581 24.1476 30.2596 24.1071C30.061 24.0666 29.8672 24.1947 29.8267 24.3933C29.678 25.1283 29.4105 25.8342 29.0347 26.4833V26.488C29.0128 26.5268 28.9984 26.5693 28.9922 26.6134C28.9922 26.6175 28.9922 26.6211 28.9896 26.6252C28.9858 26.6388 28.9828 26.6526 28.9805 26.6666C28.9827 26.6954 28.9883 26.7238 28.9973 26.7513C28.9973 26.7561 28.9973 26.7608 29.0003 26.7656C29.0117 26.8051 29.0299 26.8424 29.0542 26.8756C29.0578 26.8811 29.0608 26.8866 29.0648 26.8917C29.0896 26.9223 29.1194 26.9486 29.1528 26.9695C29.1587 26.9735 29.1623 26.9797 29.1686 26.9834C29.1748 26.9871 29.1774 26.9867 29.1814 26.9889C29.1977 26.9972 29.2146 27.0042 29.232 27.0098C29.2661 27.0221 29.3018 27.0293 29.338 27.0311C29.3413 27.0311 29.3438 27.0329 29.3471 27.0329H31.1189C31.3105 27.7691 32.0341 28.2359 32.7839 28.107C33.5336 27.978 34.0597 27.2963 33.9944 26.5384C33.9291 25.7804 33.2942 25.1988 32.5335 25.1999ZM32.5335 27.3999C32.1285 27.3999 31.8001 27.0716 31.8001 26.6666C31.8001 26.2616 32.1285 25.9333 32.5335 25.9333C32.9385 25.9333 33.2668 26.2616 33.2668 26.6666C33.2668 27.0716 32.9385 27.3999 32.5335 27.3999Z" fill="#A855F7"/>
<path d="M20.4337 29.7266V29.7204C20.4313 29.6998 20.4273 29.6794 20.4216 29.6595C20.419 29.6346 20.4139 29.6101 20.4065 29.5862C20.3911 29.5498 20.3698 29.5162 20.3435 29.4868C20.3387 29.4813 20.3365 29.4747 20.3317 29.4696C20.2953 29.4309 20.2509 29.4008 20.2016 29.3812C19.2418 28.9576 18.389 28.3244 17.706 27.5281C17.622 27.4247 17.4885 27.3749 17.3573 27.3982C17.2261 27.4215 17.1179 27.5142 17.0746 27.6402C17.0313 27.7662 17.0598 27.9058 17.1491 28.0047C17.8542 28.8255 18.7232 29.4897 19.7003 29.9547V32.166H17.0816C16.8969 31.4509 16.2094 30.9847 15.4767 31.0777C14.744 31.1708 14.1948 31.7941 14.1948 32.5327C14.1948 33.2713 14.744 33.8946 15.4767 33.9877C16.2094 34.0807 16.8969 33.6145 17.0816 32.8994H19.7003C20.1053 32.8994 20.4337 32.5711 20.4337 32.166V29.7266ZM15.667 33.266C15.262 33.266 14.9337 32.9377 14.9337 32.5327C14.9337 32.1277 15.262 31.7994 15.667 31.7994C16.072 31.7994 16.4003 32.1277 16.4003 32.5327C16.4003 32.9377 16.072 33.266 15.667 33.266Z" fill="#A855F7"/>
<path d="M24.3935 29.8277C23.4738 30.0123 22.5266 30.0123 21.6069 29.8277C21.4771 29.7979 21.3415 29.8408 21.2524 29.9397C21.1633 30.0386 21.1349 30.178 21.178 30.3039C21.2212 30.4298 21.3292 30.5225 21.4602 30.546C21.8473 30.6212 22.2395 30.6666 22.6335 30.682V33.6337C22.6335 33.8362 22.7977 34.0003 23.0002 34.0003C23.2027 34.0003 23.3669 33.8362 23.3669 33.6337V30.682C23.7609 30.6667 24.1531 30.6212 24.5402 30.546C24.7342 30.5014 24.8573 30.3103 24.8175 30.1152C24.7776 29.9202 24.5895 29.7925 24.3935 29.8277Z" fill="#A855F7"/>
<path d="M19.7003 13.1001H17.0816C16.8969 12.385 16.2094 11.9187 15.4767 12.0118C14.744 12.1049 14.1948 12.7282 14.1948 13.4668C14.1948 14.2053 14.744 14.8287 15.4767 14.9218C16.2094 15.0148 16.8969 14.5486 17.0816 13.8334H19.7003V16.2798C19.7003 16.2945 19.7073 16.3088 19.7091 16.3235C19.713 16.3614 19.7227 16.3986 19.7381 16.4335C19.7533 16.4662 19.7736 16.4962 19.7982 16.5226C19.8105 16.5359 19.8239 16.5481 19.8382 16.5592C19.8561 16.5739 19.8754 16.587 19.8958 16.5981C19.9127 16.6075 19.9304 16.6156 19.9486 16.6223C19.9748 16.6306 20.0018 16.636 20.0292 16.6384C20.0413 16.6417 20.0535 16.6443 20.0659 16.6461C20.1184 16.645 20.1701 16.6325 20.2173 16.6095C20.664 16.4158 21.1298 16.2695 21.607 16.1731C21.8055 16.1326 21.9337 15.9388 21.8932 15.7403C21.8527 15.5417 21.6589 15.4136 21.4603 15.4541C21.1119 15.5254 20.7688 15.621 20.4337 15.7401V13.8334C20.4337 13.4284 20.1053 13.1001 19.7003 13.1001ZM15.667 14.2001C15.262 14.2001 14.9337 13.8718 14.9337 13.4668C14.9337 13.0618 15.262 12.7334 15.667 12.7334C16.072 12.7334 16.4003 13.0618 16.4003 13.4668C16.4003 13.6613 16.3231 13.8478 16.1855 13.9853C16.048 14.1228 15.8615 14.2001 15.667 14.2001Z" fill="#A855F7"/>
<path d="M28.919 13.8334C29.1036 14.5486 29.7912 15.0148 30.5239 14.9218C31.2565 14.8287 31.8057 14.2053 31.8057 13.4668C31.8057 12.7282 31.2565 12.1049 30.5239 12.0118C29.7912 11.9187 29.1036 12.385 28.919 13.1001H26.3002C25.8952 13.1001 25.5669 13.4284 25.5669 13.8334V16.2721V16.2787C25.5691 16.3004 25.5734 16.3217 25.5797 16.3425C25.582 16.3666 25.5868 16.3903 25.594 16.4133C25.6097 16.4502 25.6314 16.4843 25.6582 16.5141C25.6622 16.5189 25.6644 16.5251 25.6685 16.5295C25.7047 16.5682 25.749 16.5984 25.7983 16.6179C26.6134 16.9751 27.3524 17.4854 27.9752 18.1212C28.0651 18.2212 28.2025 18.2639 28.3332 18.2325C28.4639 18.2012 28.567 18.1008 28.6019 17.971C28.6367 17.8412 28.5977 17.7027 28.5002 17.6101C27.8649 16.9641 27.12 16.4358 26.3002 16.0499V13.8334H28.919ZM30.3336 12.7334C30.7386 12.7334 31.0669 13.0618 31.0669 13.4668C31.0669 13.8718 30.7386 14.2001 30.3336 14.2001C29.9286 14.2001 29.6002 13.8718 29.6002 13.4668C29.6002 13.0618 29.9286 12.7334 30.3336 12.7334Z" fill="#A855F7"/>
<path d="M23 12C22.7975 12 22.6333 12.1642 22.6333 12.3667V15.6667C22.6333 15.8692 22.7975 16.0333 23 16.0333C23.4679 16.0332 23.9347 16.0799 24.3933 16.1727C24.4174 16.1776 24.442 16.1801 24.4666 16.18C24.6543 16.1793 24.8112 16.0369 24.83 15.8502C24.8489 15.6635 24.7237 15.4926 24.54 15.4544C24.1529 15.3791 23.7606 15.3337 23.3666 15.3183V12.3667C23.3666 12.1642 23.2025 12 23 12Z" fill="#A855F7"/>
<path d="M31.1189 19.7006C31.3035 20.4157 31.9911 20.882 32.7238 20.7889C33.4564 20.6959 34.0056 20.0725 34.0056 19.334C34.0056 18.5954 33.4564 17.972 32.7238 17.879C31.9911 17.7859 31.3035 18.2522 31.1189 18.9673H29.3471C29.3402 18.9673 29.3347 18.971 29.3281 18.971C29.3068 18.9733 29.2858 18.9776 29.2654 18.9838C29.2352 18.9897 29.206 18.9996 29.1785 19.0131C29.1755 19.0131 29.1719 19.0131 29.1686 19.0168C29.1653 19.0205 29.159 19.0267 29.1528 19.0307C29.1194 19.0516 29.0896 19.0779 29.0648 19.1085C29.0608 19.1136 29.0578 19.1191 29.0542 19.1246C29.0299 19.1578 29.0117 19.1951 29.0003 19.2346C29.0003 19.2394 29.0003 19.2441 28.9973 19.2489C28.9883 19.2765 28.9827 19.305 28.9805 19.334C28.9824 19.348 28.9851 19.362 28.9885 19.3758C28.9885 19.3798 28.9904 19.3835 28.9911 19.3875C28.9973 19.4316 29.0117 19.4741 29.0336 19.5129V19.5177C29.6452 20.5766 29.967 21.7778 29.9668 23.0006C29.9668 23.2031 30.131 23.3673 30.3335 23.3673H33.6335C33.836 23.3673 34.0001 23.2031 34.0001 23.0006C34.0001 22.7981 33.836 22.634 33.6335 22.634H30.688C30.64 21.6173 30.3907 20.6203 29.9547 19.7006H31.1189ZM32.5335 18.6006C32.9385 18.6006 33.2668 18.929 33.2668 19.334C33.2668 19.739 32.9385 20.0673 32.5335 20.0673C32.1285 20.0673 31.8001 19.739 31.8001 19.334C31.8001 18.929 32.1285 18.6006 32.5335 18.6006Z" fill="#A855F7"/>
<path d="M12.3667 23.3668H15.6667C15.8692 23.3668 16.0333 23.2026 16.0333 23.0001C16.0326 22.2593 16.15 21.523 16.3813 20.8192C16.4222 20.6947 16.3937 20.5579 16.3064 20.4602C16.2191 20.3625 16.0863 20.3189 15.958 20.3456C15.8298 20.3724 15.7256 20.4656 15.6846 20.59C15.4692 21.2512 15.3446 21.9387 15.3143 22.6334H12.3667C12.1642 22.6334 12 22.7976 12 23.0001C12 23.2026 12.1642 23.3668 12.3667 23.3668Z" fill="#A855F7"/>
</g>
<defs>
<clipPath id="clip0_2181_1858">
<rect width="22" height="22" fill="white" transform="translate(12 12)"/>
</clipPath>
</defs>
</svg>
