<svg width="46" height="46" viewBox="0 0 46 46" fill="none" xmlns="http://www.w3.org/2000/svg">
<path d="M0 12C0 5.37258 5.37258 0 12 0H34C40.6274 0 46 5.37258 46 12V34C46 40.6274 40.6274 46 34 46H12C5.37258 46 0 40.6274 0 34V12Z" fill="url(#paint0_linear_2267_546)" fill-opacity="0.1"/>
<g clip-path="url(#clip0_2267_546)">
<path d="M20.375 11.9687C20.375 12.2277 20.1652 12.4375 19.9062 12.4375C19.6473 12.4375 19.4375 12.2277 19.4375 11.9687C19.4375 11.7098 19.6473 11.5 19.9062 11.5C20.1652 11.5 20.375 11.7098 20.375 11.9687Z" fill="url(#paint1_linear_2267_546)"/>
<path d="M19.9297 29.3365C21.6589 29.3365 23.3204 28.8454 24.7607 27.9132L32.2109 35.3632C32.3938 35.5462 32.6906 35.5463 32.8737 35.3632L34.8626 33.3743C35.0457 33.1912 35.0457 32.8946 34.8626 32.7115L27.4126 25.2613C28.3448 23.8212 28.8359 22.1595 28.8359 20.4303C28.8359 19.6449 28.7337 18.8678 28.5323 18.116L30.2282 16.4201C30.5073 16.5853 30.8325 16.6803 31.1797 16.6803C32.2135 16.6803 33.0547 15.8393 33.0547 14.8053C33.0547 13.7715 32.2135 12.9303 31.1797 12.9303C30.1458 12.9303 29.3047 13.7715 29.3047 14.8053C29.3047 15.1526 29.3999 15.478 29.5652 15.7572L28.2007 17.1217C27.1486 14.4902 24.8764 12.4729 22.1152 11.7723C21.8642 11.7086 21.6093 11.8606 21.5456 12.1114C21.482 12.3625 21.6338 12.6175 21.8847 12.6811C24.4873 13.3414 26.605 15.3092 27.4721 17.8503L25.1004 20.2221C24.8211 20.0569 24.4958 19.9615 24.1484 19.9615C23.808 19.9615 23.4815 20.052 23.1959 20.2212L21.5443 18.5696C21.7095 18.2903 21.8047 17.9651 21.8047 17.6178C21.8047 16.584 20.9635 15.7428 19.9297 15.7428C18.8959 15.7428 18.0547 16.584 18.0547 17.6178C18.0547 17.9651 18.1499 18.2905 18.3152 18.5697L16.6629 20.2221C16.3837 20.0569 16.0583 19.9615 15.7109 19.9615C14.6771 19.9615 13.8359 20.8027 13.8359 21.8365C13.8359 22.8705 14.6771 23.7115 15.7109 23.7115C16.7447 23.7115 17.5859 22.8705 17.5859 21.8365C17.5859 21.4895 17.4907 21.1643 17.3257 20.8853L18.9783 19.2326C19.2575 19.3977 19.5825 19.4928 19.9297 19.4928C20.2768 19.4928 20.6022 19.3976 20.8813 19.2324L22.5329 20.884C22.3639 21.1697 22.2734 21.4961 22.2734 21.8365C22.2734 22.8705 23.1146 23.7115 24.1484 23.7115C25.1822 23.7115 26.0234 22.8705 26.0234 21.8365C26.0234 21.4895 25.9282 21.1643 25.7632 20.8853L27.751 18.8973C27.8488 19.4001 27.8984 19.9132 27.8984 20.4303C27.8984 24.8312 24.3321 28.399 19.9297 28.399C15.5227 28.399 11.9375 24.8243 11.9375 20.4303C11.9375 16.7883 14.4023 13.6061 17.9314 12.6919C18.1821 12.6269 18.3326 12.3711 18.2676 12.1204C18.2026 11.8699 17.9468 11.7192 17.6963 11.7842C13.8872 12.771 11 16.2469 11 20.4303C11 25.3412 15.0058 29.3365 19.9297 29.3365ZM31.1797 13.8678C31.6966 13.8678 32.1172 14.2884 32.1172 14.8053C32.1172 15.3222 31.6966 15.7428 31.1797 15.7428C30.6628 15.7428 30.2422 15.3222 30.2422 14.8053C30.2422 14.2884 30.6628 13.8678 31.1797 13.8678ZM15.7109 22.774C15.194 22.774 14.7734 22.3534 14.7734 21.8365C14.7734 21.3196 15.194 20.899 15.7109 20.899C16.2278 20.899 16.6484 21.3196 16.6484 21.8365C16.6484 22.3534 16.2278 22.774 15.7109 22.774ZM18.9922 17.6178C18.9922 17.1009 19.4128 16.6803 19.9297 16.6803C20.4466 16.6803 20.8672 17.1009 20.8672 17.6178C20.8672 18.1347 20.4466 18.5553 19.9297 18.5553C19.4128 18.5553 18.9922 18.1347 18.9922 17.6178ZM24.1484 22.774C23.6315 22.774 23.2109 22.3534 23.2109 21.8365C23.2109 21.3189 23.6306 20.899 24.1484 20.899C24.6653 20.899 25.0859 21.3196 25.0859 21.8365C25.0859 22.3534 24.6653 22.774 24.1484 22.774ZM32.5423 34.369L27.3328 29.1593L28.6587 27.8334L33.8682 33.0429L32.5423 34.369ZM26.8554 26.03L27.9958 27.1704L26.6698 28.4964L25.5294 27.356C26.0172 26.9615 26.4607 26.5178 26.8554 26.03Z" fill="url(#paint2_linear_2267_546)"/>
</g>
<defs>
<linearGradient id="paint0_linear_2267_546" x1="-28.0312" y1="-10.0625" x2="73.3125" y2="69.3594" gradientUnits="userSpaceOnUse">
<stop stop-color="#27AE60"/>
<stop offset="1" stop-color="#0052CC"/>
</linearGradient>
<linearGradient id="paint1_linear_2267_546" x1="18.8662" y1="11.2949" x2="20.9316" y2="12.9136" gradientUnits="userSpaceOnUse">
<stop stop-color="#27AE60"/>
<stop offset="1" stop-color="#0052CC"/>
</linearGradient>
<linearGradient id="paint2_linear_2267_546" x1="-3.62498" y1="6.5641" x2="48.8152" y2="48.1061" gradientUnits="userSpaceOnUse">
<stop stop-color="#27AE60"/>
<stop offset="1" stop-color="#0052CC"/>
</linearGradient>
<clipPath id="clip0_2267_546">
<rect width="24" height="24" fill="white" transform="translate(11 11.5)"/>
</clipPath>
</defs>
</svg>
