<svg width="68" height="68" viewBox="0 0 68 68" fill="none" xmlns="http://www.w3.org/2000/svg">
<path d="M0 12C0 5.37258 5.37258 0 12 0H56C62.6274 0 68 5.37258 68 12V56C68 62.6274 62.6274 68 56 68H12C5.37258 68 0 62.6274 0 56V12Z" fill="url(#paint0_linear_2346_525)" fill-opacity="0.1"/>
<g clip-path="url(#clip0_2346_525)">
<path d="M34.5 15.7012C24.2751 15.7012 16 23.9753 16 34.2012C16 44.426 24.2741 52.7012 34.5 52.7012C44.7249 52.7012 53 44.427 53 34.2012C53 23.9762 44.7259 15.7012 34.5 15.7012ZM34.5 50.1198C25.7225 50.1198 18.5814 42.9788 18.5814 34.2012C18.5814 25.4236 25.7225 18.2826 34.5 18.2826C43.2776 18.2826 50.4186 25.4236 50.4186 34.2012C50.4186 42.9788 43.2776 50.1198 34.5 50.1198Z" fill="url(#paint1_linear_2346_525)"/>
<path d="M33.9523 39.1094C32.9295 39.1094 32.1016 39.9617 32.1016 40.9844C32.1016 41.9829 32.9052 42.8595 33.9523 42.8595C34.9994 42.8595 35.8273 41.9829 35.8273 40.9844C35.8273 39.9617 34.975 39.1094 33.9523 39.1094Z" fill="url(#paint2_linear_2346_525)"/>
<path d="M34.269 24.9121C30.9815 24.9121 29.4717 26.8603 29.4717 28.1753C29.4717 29.125 30.2753 29.5633 30.9327 29.5633C32.2478 29.5633 31.7121 27.6882 34.1959 27.6882C35.4134 27.6882 36.3876 28.224 36.3876 29.3442C36.3876 30.6591 35.0238 31.414 34.2203 32.0958C33.514 32.7045 32.5887 33.703 32.5887 35.7973C32.5887 37.0635 32.9297 37.4288 33.928 37.4288C35.1212 37.4288 35.3647 36.8931 35.3647 36.4303C35.3647 35.1641 35.3891 34.4335 36.7284 33.3864C37.3859 32.8751 39.4558 31.2191 39.4558 28.9301C39.4558 26.6411 37.3859 24.9121 34.269 24.9121Z" fill="url(#paint3_linear_2346_525)"/>
</g>
<defs>
<linearGradient id="paint0_linear_2346_525" x1="-41.4375" y1="-14.875" x2="108.375" y2="102.531" gradientUnits="userSpaceOnUse">
<stop stop-color="#27AE60"/>
<stop offset="1" stop-color="#0052CC"/>
</linearGradient>
<linearGradient id="paint1_linear_2346_525" x1="-6.54687" y1="7.60742" x2="74.9687" y2="71.4902" gradientUnits="userSpaceOnUse">
<stop stop-color="#27AE60"/>
<stop offset="1" stop-color="#0052CC"/>
</linearGradient>
<linearGradient id="paint2_linear_2346_525" x1="29.8312" y1="38.289" x2="38.0802" y2="44.7116" gradientUnits="userSpaceOnUse">
<stop stop-color="#27AE60"/>
<stop offset="1" stop-color="#0052CC"/>
</linearGradient>
<linearGradient id="paint3_linear_2346_525" x1="23.3876" y1="22.1741" x2="48.917" y2="38.1329" gradientUnits="userSpaceOnUse">
<stop stop-color="#27AE60"/>
<stop offset="1" stop-color="#0052CC"/>
</linearGradient>
<clipPath id="clip0_2346_525">
<rect width="37" height="37" fill="white" transform="translate(16 15.7012)"/>
</clipPath>
</defs>
</svg>
