<svg width="46" height="46" viewBox="0 0 46 46" fill="none" xmlns="http://www.w3.org/2000/svg">
<path d="M0 12C0 5.37258 5.37258 0 12 0H34C40.6274 0 46 5.37258 46 12V34C46 40.6274 40.6274 46 34 46H12C5.37258 46 0 40.6274 0 34V12Z" fill="url(#paint0_linear_2243_1623)" fill-opacity="0.1"/>
<path d="M32 30H14C13.7348 30 13.4804 30.1054 13.2929 30.2929C13.1054 30.4804 13 30.7348 13 31C13 31.2652 13.1054 31.5196 13.2929 31.7071C13.4804 31.8946 13.7348 32 14 32H32C32.2652 32 32.5196 31.8946 32.7071 31.7071C32.8946 31.5196 33 31.2652 33 31C33 30.7348 32.8946 30.4804 32.7071 30.2929C32.5196 30.1054 32.2652 30 32 30Z" fill="url(#paint1_linear_2243_1623)"/>
<path d="M23.0002 13C22.735 13 22.4806 13.1054 22.2931 13.2929C22.1055 13.4804 22.0002 13.7348 22.0002 14V24.59L18.7102 21.29C18.5219 21.1017 18.2665 20.9959 18.0002 20.9959C17.7339 20.9959 17.4785 21.1017 17.2902 21.29C17.1019 21.4783 16.9961 21.7337 16.9961 22C16.9961 22.2663 17.1019 22.5217 17.2902 22.71L22.2902 27.71C22.3831 27.8037 22.4938 27.8781 22.6156 27.9289C22.7375 27.9797 22.8682 28.0058 23.0002 28.0058C23.1322 28.0058 23.2629 27.9797 23.3848 27.9289C23.5066 27.8781 23.6172 27.8037 23.7102 27.71L28.7102 22.71C28.8034 22.6168 28.8774 22.5061 28.9278 22.3843C28.9783 22.2624 29.0043 22.1319 29.0043 22C29.0043 21.8681 28.9783 21.7376 28.9278 21.6158C28.8774 21.4939 28.8034 21.3832 28.7102 21.29C28.6169 21.1968 28.5063 21.1228 28.3844 21.0723C28.2626 21.0219 28.132 20.9959 28.0002 20.9959C27.8683 20.9959 27.7378 21.0219 27.6159 21.0723C27.4941 21.1228 27.3834 21.1968 27.2902 21.29L24.0002 24.59V14C24.0002 13.7348 23.8948 13.4804 23.7073 13.2929C23.5198 13.1054 23.2654 13 23.0002 13Z" fill="url(#paint2_linear_2243_1623)"/>
<defs>
<linearGradient id="paint0_linear_2243_1623" x1="-28.0312" y1="-10.0625" x2="73.3125" y2="69.3594" gradientUnits="userSpaceOnUse">
<stop stop-color="#27AE60"/>
<stop offset="1" stop-color="#0052CC"/>
</linearGradient>
<linearGradient id="paint1_linear_2243_1623" x1="0.8125" y1="29.5625" x2="1.95201" y2="38.4927" gradientUnits="userSpaceOnUse">
<stop stop-color="#27AE60"/>
<stop offset="1" stop-color="#0052CC"/>
</linearGradient>
<linearGradient id="paint2_linear_2243_1623" x1="9.67861" y1="9.71748" x2="40.3279" y2="28.9387" gradientUnits="userSpaceOnUse">
<stop stop-color="#27AE60"/>
<stop offset="1" stop-color="#0052CC"/>
</linearGradient>
</defs>
</svg>
