<svg width="46" height="46" viewBox="0 0 46 46" fill="none" xmlns="http://www.w3.org/2000/svg">
<path d="M0 12C0 5.37258 5.37258 0 12 0H34C40.6274 0 46 5.37258 46 12V34C46 40.6274 40.6274 46 34 46H12C5.37258 46 0 40.6274 0 34V12Z" fill="url(#paint0_linear_2243_899)" fill-opacity="0.1"/>
<path d="M27.7023 28.2494H21.4361C21.3226 28.9212 21.058 29.5584 20.6624 30.113C20.2667 30.6676 19.7503 31.1251 19.152 31.4511C18.5538 31.7771 17.8894 31.9629 17.2088 31.9947C16.5283 32.0265 15.8494 31.9033 15.2234 31.6344C14.5974 31.3656 14.0406 30.9582 13.595 30.4428C13.1494 29.9275 12.8267 29.3177 12.6511 28.6594C12.4755 28.0011 12.4516 27.3117 12.5813 26.6428C12.711 25.974 12.9909 25.3434 13.3999 24.7985C13.459 24.7197 13.5331 24.6533 13.6179 24.6031C13.7027 24.553 13.7966 24.52 13.8941 24.5061C13.9917 24.4923 14.091 24.4977 14.1864 24.5222C14.2819 24.5467 14.3715 24.5898 14.4503 24.6489C14.5291 24.7081 14.5955 24.7822 14.6457 24.867C14.6958 24.9518 14.7288 25.0456 14.7427 25.1432C14.7565 25.2408 14.7511 25.3401 14.7266 25.4355C14.7021 25.5309 14.659 25.6206 14.5999 25.6994C14.2085 26.2177 13.9977 26.85 13.9999 27.4994C13.9999 28.2951 14.3159 29.0581 14.8785 29.6207C15.4412 30.1833 16.2042 30.4994 16.9999 30.4994C17.7955 30.4994 18.5586 30.1833 19.1212 29.6207C19.6838 29.0581 19.9998 28.2951 19.9998 27.4994C19.9998 27.3005 20.0789 27.1097 20.2195 26.9691C20.3602 26.8284 20.5509 26.7494 20.7498 26.7494H27.7023C27.8675 26.4634 28.1223 26.2399 28.4274 26.1136C28.7325 25.9872 29.0706 25.965 29.3896 26.0505C29.7086 26.136 29.9904 26.3243 30.1914 26.5863C30.3924 26.8482 30.5014 27.1692 30.5014 27.4994C30.5014 27.8296 30.3924 28.1505 30.1914 28.4125C29.9904 28.6745 29.7086 28.8628 29.3896 28.9483C29.0706 29.0337 28.7325 29.0116 28.4274 28.8852C28.1223 28.7589 27.8675 28.5354 27.7023 28.2494ZM16.9999 28.9994C17.2597 28.9995 17.515 28.9321 17.741 28.8039C17.9669 28.6755 18.1556 28.4908 18.2887 28.2677C18.4218 28.0446 18.4946 27.7907 18.5001 27.531C18.5055 27.2712 18.4434 27.0145 18.3199 26.786L21.6733 21.3354C21.7773 21.166 21.81 20.9622 21.7639 20.7689C21.7179 20.5755 21.5969 20.4084 21.4277 20.3041C21.0268 20.0573 20.6896 19.7196 20.4434 19.3184C20.1972 18.9172 20.0489 18.4637 20.0104 17.9945C19.9719 17.5253 20.0445 17.0537 20.2221 16.6177C20.3996 16.1817 20.6773 15.7937 21.0326 15.4849C21.3879 15.1761 21.8109 14.9553 22.2675 14.8403C22.7239 14.7253 23.2011 14.7193 23.6603 14.8229C24.1195 14.9264 24.5479 15.1365 24.9108 15.4363C25.2738 15.7361 25.5611 16.1171 25.7496 16.5485C25.8291 16.7308 25.9779 16.8741 26.1631 16.9468C26.3483 17.0195 26.5548 17.0157 26.7372 16.9361C26.9196 16.8566 27.0629 16.7078 27.1356 16.5226C27.2083 16.3374 27.2044 16.1308 27.1248 15.9485C26.8547 15.3309 26.4492 14.7819 25.9384 14.342C25.4276 13.9021 24.8244 13.5826 24.1736 13.4071C23.5227 13.2316 22.8408 13.2046 22.1781 13.328C21.5154 13.4515 20.8889 13.7222 20.3448 14.1203C19.8008 14.5183 19.3531 15.0335 19.035 15.6278C18.7167 16.2221 18.5361 16.8803 18.5064 17.5537C18.4767 18.2272 18.5987 18.8987 18.8634 19.5186C19.128 20.1387 19.5286 20.6913 20.0355 21.1356L17.0411 25.9994C17.0271 25.9994 17.0139 25.9994 16.9999 25.9994C16.602 25.9994 16.2205 26.1574 15.9392 26.4387C15.6579 26.7201 15.4999 27.1016 15.4999 27.4994C15.4999 27.8972 15.6579 28.2788 15.9392 28.56C16.2205 28.8414 16.602 28.9994 16.9999 28.9994ZM28.9998 22.9994C28.4216 22.9995 27.8487 23.1105 27.3123 23.3266L24.3198 18.4619C24.4758 18.1729 24.5327 17.8408 24.4817 17.5164C24.4307 17.192 24.2746 16.8934 24.0375 16.6662C23.8004 16.4391 23.4953 16.296 23.169 16.259C22.8428 16.2219 22.5134 16.293 22.2314 16.4612C21.9494 16.6295 21.7304 16.8856 21.608 17.1903C21.4856 17.495 21.4665 17.8314 21.5538 18.148C21.6411 18.4645 21.8298 18.7437 22.091 18.9426C22.3522 19.1416 22.6715 19.2494 22.9998 19.2494H23.0411L26.3955 24.701C26.4999 24.87 26.6671 24.9908 26.8605 25.0367C27.0538 25.0825 27.2575 25.0498 27.4267 24.9456C27.8216 24.7023 28.2675 24.5537 28.7295 24.5117C29.1915 24.4697 29.6568 24.5355 30.0891 24.7037C30.5214 24.8719 30.9088 25.1382 31.2208 25.4814C31.5328 25.8246 31.761 26.2355 31.8875 26.6818C32.0139 27.1281 32.0351 27.5976 31.9494 28.0536C31.8637 28.5094 31.6735 28.9392 31.3937 29.3091C31.1138 29.6791 30.752 29.9791 30.3366 30.1857C29.9213 30.3922 29.4637 30.4995 28.9998 30.4994C28.8009 30.4994 28.6102 30.5784 28.4695 30.7191C28.3289 30.8597 28.2498 31.0505 28.2498 31.2494C28.2498 31.4483 28.3289 31.6391 28.4695 31.7797C28.6102 31.9204 28.8009 31.9994 28.9998 31.9994C30.1933 31.9994 31.3379 31.5253 32.1819 30.6814C33.0258 29.8374 33.4998 28.6929 33.4998 27.4994C33.4998 26.3059 33.0258 25.1613 32.1819 24.3174C31.3379 23.4735 30.1933 22.9994 28.9998 22.9994Z" fill="url(#paint1_linear_2243_899)"/>
<defs>
<linearGradient id="paint0_linear_2243_899" x1="-28.0312" y1="-10.0625" x2="73.3125" y2="69.3594" gradientUnits="userSpaceOnUse">
<stop stop-color="#27AE60"/>
<stop offset="1" stop-color="#0052CC"/>
</linearGradient>
<linearGradient id="paint1_linear_2243_899" x1="-0.298353" y1="9.15091" x2="41.8797" y2="46.1781" gradientUnits="userSpaceOnUse">
<stop stop-color="#27AE60"/>
<stop offset="1" stop-color="#0052CC"/>
</linearGradient>
</defs>
</svg>
