<svg width="46" height="46" viewBox="0 0 46 46" fill="none" xmlns="http://www.w3.org/2000/svg">
<path d="M0 12C0 5.37258 5.37258 0 12 0H34C40.6274 0 46 5.37258 46 12V34C46 40.6274 40.6274 46 34 46H12C5.37258 46 0 40.6274 0 34V12Z" fill="url(#paint0_linear_2258_900)" fill-opacity="0.1"/>
<path d="M23.5999 31.0796C23.2937 31.0794 22.993 30.9987 22.7279 30.8456L17.5279 27.8456C17.1263 27.613 16.8334 27.2307 16.7134 26.7824C16.5934 26.3342 16.6562 25.8566 16.8879 25.4546L17.6379 24.1546C18.0344 23.6028 18.5533 23.1503 19.1539 22.8327C19.7546 22.515 20.4206 22.3407 21.0999 22.3236C21.1338 22.3177 21.166 22.3043 21.1942 22.2846C21.2225 22.2648 21.246 22.2391 21.2632 22.2092C21.2803 22.1794 21.2907 22.1461 21.2936 22.1118C21.2965 22.0774 21.2918 22.0429 21.2799 22.0106C20.9545 21.4134 20.7719 20.7489 20.7466 20.0692C20.7213 19.3896 20.8538 18.7133 21.1339 18.0936L21.8839 16.7936C22.1166 16.3925 22.4987 16.0999 22.9466 15.9798C23.3945 15.8597 23.8717 15.9218 24.2739 16.1526L29.4739 19.1526C29.8754 19.3851 30.1684 19.7675 30.2884 20.2157C30.4083 20.664 30.3456 21.1415 30.1139 21.5436L29.3639 22.8436C28.9673 23.3958 28.4481 23.8486 27.8471 24.1665C27.2461 24.4843 26.5796 24.6586 25.8999 24.6756C25.8659 24.6812 25.8336 24.6943 25.8052 24.7139C25.7769 24.7335 25.7533 24.7592 25.7361 24.789C25.7189 24.8189 25.7085 24.8521 25.7057 24.8865C25.7029 24.9208 25.7077 24.9553 25.7199 24.9876C26.0454 25.5849 26.2281 26.2496 26.2534 26.9294C26.2787 27.6092 26.1461 28.2857 25.8659 28.9056L25.1159 30.2056C24.9621 30.4715 24.7411 30.6923 24.475 30.8457C24.2088 30.9991 23.907 31.0798 23.5999 31.0796ZM23.3999 17.4196C23.3559 17.4195 23.3127 17.431 23.2746 17.4529C23.2365 17.4749 23.2049 17.5065 23.1829 17.5446L22.4329 18.8446C22.2816 19.2664 22.2238 19.716 22.2635 20.1624C22.3033 20.6087 22.4395 21.0411 22.6629 21.4296C22.7643 21.6755 22.8078 21.9414 22.7902 22.2069C22.7726 22.4723 22.6942 22.7301 22.5611 22.9605C22.4281 23.1909 22.2439 23.3876 22.0228 23.5355C21.8017 23.6834 21.5496 23.7785 21.2859 23.8136C20.8379 23.8145 20.3955 23.9127 19.9892 24.1014C19.583 24.2902 19.2225 24.5649 18.9329 24.9066L18.1829 26.2066C18.1664 26.235 18.1556 26.2664 18.1512 26.299C18.1469 26.3316 18.149 26.3647 18.1574 26.3964C18.1659 26.4282 18.1805 26.458 18.2005 26.4841C18.2205 26.5102 18.2454 26.5321 18.2739 26.5486L23.4739 29.5486C23.5314 29.581 23.5994 29.5895 23.6632 29.5723C23.727 29.5551 23.7814 29.5135 23.8149 29.4566L24.5649 28.1566C24.7161 27.7348 24.7739 27.2851 24.7342 26.8388C24.6945 26.3924 24.5582 25.96 24.3349 25.5716C24.2332 25.3257 24.1895 25.0598 24.207 24.7943C24.2246 24.5289 24.3029 24.271 24.436 24.0407C24.5691 23.8103 24.7534 23.6137 24.9746 23.4659C25.1959 23.3182 25.4481 23.2233 25.7119 23.1886C26.1598 23.1871 26.6021 23.0885 27.0083 22.8996C27.4145 22.7108 27.775 22.4361 28.0649 22.0946L28.8149 20.7946C28.8314 20.7662 28.8421 20.7348 28.8465 20.7022C28.8509 20.6696 28.8488 20.6365 28.8403 20.6047C28.8318 20.5729 28.8172 20.5431 28.7972 20.517C28.7773 20.4909 28.7523 20.469 28.7239 20.4526L23.5239 17.4526C23.4861 17.4311 23.4434 17.4197 23.3999 17.4196Z" fill="url(#paint1_linear_2258_900)"/>
<path d="M33.5001 24.2502C33.3012 24.2502 33.1104 24.1711 32.9697 24.0305C32.8291 23.8898 32.7501 23.6991 32.7501 23.5002C32.7502 21.6706 32.2077 19.8821 31.1913 18.3609C30.1749 16.8396 28.7302 15.6539 27.04 14.9538C25.3497 14.2536 23.4897 14.0704 21.6953 14.4274C19.901 14.7844 18.2527 15.6654 16.9591 16.9592C16.649 17.2697 16.3609 17.6015 16.0971 17.9522C15.9777 18.1113 15.8001 18.2165 15.6031 18.2446C15.4062 18.2728 15.2062 18.2215 15.0471 18.1022C14.8879 17.9828 14.7827 17.8051 14.7546 17.6082C14.7265 17.4113 14.7777 17.2113 14.8971 17.0522C15.204 16.6466 15.5381 16.2624 15.8971 15.9022C17.4002 14.3984 19.3155 13.3742 21.4007 12.9589C23.486 12.5437 25.6475 12.7562 27.612 13.5695C29.5765 14.3828 31.2557 15.7603 32.4373 17.528C33.6189 19.2956 34.2497 21.374 34.2501 23.5002C34.2501 23.6991 34.1711 23.8898 34.0304 24.0305C33.8898 24.1711 33.699 24.2502 33.5001 24.2502Z" fill="url(#paint2_linear_2258_900)"/>
<path d="M23.5 34.25C22.0882 34.2503 20.6902 33.9724 19.3858 33.4322C18.0815 32.8921 16.8963 32.1003 15.898 31.102C14.8997 30.1037 14.1079 28.9185 13.5678 27.6142C13.0276 26.3098 12.7497 24.9118 12.75 23.5C12.75 23.3011 12.829 23.1103 12.9697 22.9697C13.1103 22.829 13.3011 22.75 13.5 22.75C13.6989 22.75 13.8897 22.829 14.0303 22.9697C14.171 23.1103 14.25 23.3011 14.25 23.5C14.2499 25.3296 14.7923 27.118 15.8087 28.6393C16.8251 30.1606 18.2698 31.3462 19.9601 32.0464C21.6504 32.7465 23.5103 32.9297 25.3047 32.5728C27.0991 32.2158 28.7474 31.3347 30.041 30.041C30.3509 29.731 30.6387 29.3995 30.902 29.049C31.0253 28.9012 31.2006 28.8063 31.3918 28.784C31.5829 28.7618 31.7754 28.8137 31.9294 28.9292C32.0833 29.0447 32.1871 29.2149 32.2192 29.4046C32.2513 29.5944 32.2094 29.7893 32.102 29.949C31.7955 30.3552 31.4614 30.7397 31.102 31.1C30.106 32.1015 28.9213 32.8955 27.6164 33.4362C26.3116 33.9769 24.9124 34.2535 23.5 34.25Z" fill="url(#paint3_linear_2258_900)"/>
<path d="M31.9848 32.7343C31.7858 32.7343 31.5951 32.6552 31.4544 32.5146C31.3138 32.3739 31.2348 32.1832 31.2348 31.9843V29.9062H29.1558C28.9568 29.9062 28.7661 29.8272 28.6254 29.6866C28.4848 29.5459 28.4058 29.3552 28.4058 29.1562C28.4058 28.9573 28.4848 28.7666 28.6254 28.6259C28.7661 28.4853 28.9568 28.4062 29.1558 28.4062H31.9848C32.1837 28.4062 32.3744 28.4853 32.5151 28.6259C32.6557 28.7666 32.7348 28.9573 32.7348 29.1562V31.9843C32.7348 32.1832 32.6557 32.3739 32.5151 32.5146C32.3744 32.6552 32.1837 32.7343 31.9848 32.7343Z" fill="url(#paint4_linear_2258_900)"/>
<path d="M17.8431 18.5936H15.0151C14.8162 18.5936 14.6255 18.5146 14.4848 18.374C14.3442 18.2333 14.2651 18.0425 14.2651 17.8436V15.0156C14.2651 14.8167 14.3442 14.6259 14.4848 14.4853C14.6255 14.3446 14.8162 14.2656 15.0151 14.2656C15.214 14.2656 15.4048 14.3446 15.5455 14.4853C15.6861 14.6259 15.7651 14.8167 15.7651 15.0156V17.0936H17.8431C18.042 17.0936 18.2328 17.1726 18.3735 17.3133C18.5141 17.4539 18.5931 17.6447 18.5931 17.8436C18.5931 18.0425 18.5141 18.2333 18.3735 18.374C18.2328 18.5146 18.042 18.5936 17.8431 18.5936Z" fill="url(#paint5_linear_2258_900)"/>
<defs>
<linearGradient id="paint0_linear_2258_900" x1="-28.0312" y1="-10.0625" x2="73.3125" y2="69.3594" gradientUnits="userSpaceOnUse">
<stop stop-color="#27AE60"/>
<stop offset="1" stop-color="#0052CC"/>
</linearGradient>
<linearGradient id="paint1_linear_2258_900" x1="8.30895" y1="12.6037" x2="40.75" y2="35.5696" gradientUnits="userSpaceOnUse">
<stop stop-color="#27AE60"/>
<stop offset="1" stop-color="#0052CC"/>
</linearGradient>
<linearGradient id="paint2_linear_2258_900" x1="2.86243" y1="10.2367" x2="27.9284" y2="43.5563" gradientUnits="userSpaceOnUse">
<stop stop-color="#27AE60"/>
<stop offset="1" stop-color="#0052CC"/>
</linearGradient>
<linearGradient id="paint3_linear_2258_900" x1="0.879522" y1="20.2344" x2="25.9589" y2="53.5267" gradientUnits="userSpaceOnUse">
<stop stop-color="#27AE60"/>
<stop offset="1" stop-color="#0052CC"/>
</linearGradient>
<linearGradient id="paint4_linear_2258_900" x1="25.7678" y1="27.4595" x2="35.3034" y2="34.9342" gradientUnits="userSpaceOnUse">
<stop stop-color="#27AE60"/>
<stop offset="1" stop-color="#0052CC"/>
</linearGradient>
<linearGradient id="paint5_linear_2258_900" x1="11.6278" y1="13.3189" x2="21.1629" y2="20.7914" gradientUnits="userSpaceOnUse">
<stop stop-color="#27AE60"/>
<stop offset="1" stop-color="#0052CC"/>
</linearGradient>
</defs>
</svg>
