<svg width="46" height="46" viewBox="0 0 46 46" fill="none" xmlns="http://www.w3.org/2000/svg">
<path d="M0 12C0 5.37258 5.37258 0 12 0H34C40.6274 0 46 5.37258 46 12V34C46 40.6274 40.6274 46 34 46H12C5.37258 46 0 40.6274 0 34V12Z" fill="url(#paint0_linear_2327_1088)" fill-opacity="0.1"/>
<path d="M32.534 21.2154L29.159 17.8404C28.9999 17.6867 28.7868 17.6016 28.5655 17.6035C28.3443 17.6055 28.1327 17.6942 27.9762 17.8506C27.8198 18.0071 27.7311 18.2187 27.7291 18.4399C27.7272 18.6612 27.8123 18.8743 27.966 19.0334L29.9006 20.9681H18.4375C18.2137 20.9681 17.9991 21.057 17.8409 21.2153C17.6826 21.3735 17.5938 21.5881 17.5938 21.8119C17.5938 22.0357 17.6826 22.2503 17.8409 22.4085C17.9991 22.5668 18.2137 22.6556 18.4375 22.6556H31.9375C32.1044 22.6556 32.2674 22.6061 32.4062 22.5134C32.5449 22.4207 32.653 22.2889 32.7169 22.1348C32.7807 21.9806 32.7974 21.811 32.7649 21.6473C32.7323 21.4837 32.652 21.3334 32.534 21.2154Z" fill="url(#paint1_linear_2327_1088)"/>
<path d="M28.5623 24.3438H15.0623C14.8955 24.3438 14.7324 24.3933 14.5937 24.486C14.4549 24.5787 14.3468 24.7105 14.283 24.8646C14.2191 25.0188 14.2024 25.1884 14.235 25.3521C14.2675 25.5157 14.3478 25.666 14.4658 25.784L17.8408 29.159C17.9999 29.3127 18.2131 29.3978 18.4343 29.3959C18.6555 29.3939 18.8671 29.3052 19.0236 29.1488C19.18 28.9923 19.2687 28.7807 19.2707 28.5595C19.2726 28.3382 19.1875 28.1251 19.0339 27.966L17.0992 26.0312H28.5623C28.7861 26.0312 29.0007 25.9424 29.1589 25.7841C29.3172 25.6259 29.4061 25.4113 29.4061 25.1875C29.4061 24.9637 29.3172 24.7491 29.1589 24.5909C29.0007 24.4326 28.7861 24.3438 28.5623 24.3438Z" fill="url(#paint2_linear_2327_1088)"/>
<defs>
<linearGradient id="paint0_linear_2327_1088" x1="-28.0312" y1="-10.0625" x2="73.3125" y2="69.3594" gradientUnits="userSpaceOnUse">
<stop stop-color="#27AE60"/>
<stop offset="1" stop-color="#0052CC"/>
</linearGradient>
<linearGradient id="paint1_linear_2327_1088" x1="8.33898" y1="16.4984" x2="16.5846" y2="35.9238" gradientUnits="userSpaceOnUse">
<stop stop-color="#27AE60"/>
<stop offset="1" stop-color="#0052CC"/>
</linearGradient>
<linearGradient id="paint2_linear_2327_1088" x1="4.96398" y1="23.2386" x2="13.2096" y2="42.6641" gradientUnits="userSpaceOnUse">
<stop stop-color="#27AE60"/>
<stop offset="1" stop-color="#0052CC"/>
</linearGradient>
</defs>
</svg>
