<svg width="46" height="46" viewBox="0 0 46 46" fill="none" xmlns="http://www.w3.org/2000/svg">
<rect width="46" height="46" rx="8" fill="#27AE60" fill-opacity="0.1"/>
<path d="M31.7514 15.5624L23.3295 12.0657C23.1186 11.9781 22.8814 11.9781 22.6705 12.0657L14.2486 15.5624C13.9278 15.6956 13.7188 16.0087 13.7188 16.356V20.6067C13.7188 26.4596 17.2563 31.7245 22.6752 33.9363C22.8834 34.0212 23.1166 34.0212 23.3248 33.9363C28.7436 31.7245 32.2812 26.4597 32.2812 20.6067V16.356C32.2812 16.0087 32.0722 15.6956 31.7514 15.5624ZM30.5625 20.6067C30.5625 25.5823 27.6406 30.1626 23 32.2072C18.4834 30.2172 15.4375 25.7171 15.4375 20.6067V16.9298L23 13.7899L30.5625 16.9298V20.6067ZM22.0501 23.5034L25.7439 19.8097C26.0795 19.4741 26.6236 19.4741 26.9592 19.8097C27.2949 20.1453 27.2948 20.6894 26.9592 21.025L22.6578 25.3264C22.3221 25.6621 21.778 25.662 21.4425 25.3264L19.0408 22.9247C18.7051 22.5891 18.7051 22.045 19.0408 21.7094C19.3764 21.3738 19.9205 21.3738 20.2561 21.7094L22.0501 23.5034Z" fill="#27AE60"/>
</svg>
