<svg width="46" height="46" viewBox="0 0 46 46" fill="none" xmlns="http://www.w3.org/2000/svg">
<rect width="46" height="46" rx="8" fill="#5A96F7" fill-opacity="0.1"/>
<path d="M22.3529 18.3602C21.599 18.0937 21.0588 17.3746 21.0588 16.5294C21.0588 15.4574 21.9279 14.5883 23 14.5883C24.072 14.5883 24.9411 15.4574 24.9411 16.5294C24.9411 17.3746 24.401 18.0937 23.647 18.3602V20.4422C27.0958 20.768 29.794 23.6718 29.794 27.2059C29.794 30.9582 26.7522 34 22.9999 34C19.2476 34 16.2059 30.9582 16.2059 27.2059C16.2059 23.6718 18.9042 20.768 22.3529 20.4422V18.3602ZM21.4574 28.7485C21.9521 28.7977 22.47 28.8236 23 28.8236C23.5299 28.8236 24.0479 28.7977 24.5426 28.7485C24.5918 28.2538 24.6176 27.7359 24.6176 27.2059C24.6176 26.676 24.5918 26.1581 24.5426 25.6633C24.0478 25.6141 23.5299 25.5883 23 25.5883C22.47 25.5883 21.952 25.6141 21.4574 25.6633C21.4082 26.1581 21.3823 26.676 21.3823 27.2059C21.3823 27.7359 21.4082 28.2538 21.4574 28.7485ZM17.8654 29.1813C18.4231 30.6298 19.5761 31.7828 21.0245 32.3404C20.7062 31.6763 20.4617 30.8443 20.3024 29.9034C19.3616 29.7442 18.5296 29.4996 17.8654 29.1813ZM17.8654 25.2304C18.5296 24.9121 19.3616 24.6676 20.3024 24.5084C20.4617 23.5675 20.7063 22.7355 21.0245 22.0714C19.5761 22.629 18.4231 23.7819 17.8654 25.2304ZM28.1345 25.2304C27.5769 23.7819 26.4239 22.629 24.9754 22.0714C25.2938 22.7355 25.5383 23.5675 25.6975 24.5084C26.6384 24.6676 27.4704 24.9121 28.1345 25.2304ZM28.1345 29.1813C27.4704 29.4996 26.6384 29.7442 25.6975 29.9034C25.5383 30.8443 25.2937 31.6763 24.9754 32.3404C26.424 31.7828 27.5769 30.6298 28.1345 29.1813ZM21.6547 30.0672C21.7497 30.529 21.8676 30.9539 22.0058 31.3288C22.3438 32.2463 22.7441 32.7059 23 32.7059C23.2558 32.7059 23.6562 32.2463 23.9942 31.3288C24.1323 30.9538 24.2503 30.529 24.3452 30.0672C23.91 30.1005 23.4601 30.1176 22.9999 30.1176C22.5398 30.1176 22.09 30.1005 21.6547 30.0672ZM21.6547 24.3446C22.09 24.3112 22.5399 24.2941 23 24.2941C23.4602 24.2941 23.91 24.3112 24.3453 24.3446C24.2504 23.8828 24.1324 23.4579 23.9943 23.083C23.6562 22.1655 23.2559 21.7059 23.0001 21.7059C22.7442 21.7059 22.3438 22.1655 22.0058 23.083C21.8676 23.4579 21.7497 23.8828 21.6547 24.3446ZM20.1387 25.8606C19.6769 25.9555 19.252 26.0735 18.8771 26.2116C17.9596 26.5497 17.5 26.95 17.5 27.2058C17.5 27.4617 17.9596 27.8621 18.8771 28.2C19.2521 28.3382 19.6769 28.4561 20.1387 28.5511C20.1053 28.1158 20.0882 27.6659 20.0882 27.2058C20.0882 26.7456 20.1054 26.2959 20.1387 25.8606ZM25.8612 25.8606C25.8946 26.2959 25.9117 26.7457 25.9117 27.2059C25.9117 27.666 25.8946 28.1159 25.8612 28.5511C26.3231 28.4562 26.7479 28.3383 27.1229 28.2001C28.0404 27.8621 28.4999 27.4618 28.4999 27.2059C28.4999 26.95 28.0404 26.5497 27.1229 26.2117C26.7479 26.0735 26.3231 25.9556 25.8612 25.8606ZM23 17.1765C23.3574 17.1765 23.6471 16.8868 23.6471 16.5294C23.6471 16.1721 23.3574 15.8824 23 15.8824C22.6426 15.8824 22.3529 16.1721 22.3529 16.5294C22.3529 16.8868 22.6426 17.1765 23 17.1765ZM19.9998 18.4453C20.1925 18.7462 20.1047 19.1464 19.8037 19.3391C19.5028 19.5318 19.1025 19.444 18.9099 19.143C17.8928 17.5541 17.8928 15.5047 18.9099 13.9159C19.1025 13.6149 19.5027 13.5271 19.8037 13.7198C20.1047 13.9124 20.1925 14.3126 19.9998 14.6136C19.255 15.7771 19.255 17.2818 19.9998 18.4453ZM26.0002 14.6136C25.8075 14.3127 25.8953 13.9125 26.1963 13.7198C26.4973 13.5271 26.8974 13.6149 27.0901 13.9159C28.1072 15.5048 28.1072 17.5542 27.0901 19.143C26.8974 19.444 26.4973 19.5318 26.1963 19.3392C25.8953 19.1465 25.8075 18.7463 26.0002 18.4453C26.745 17.2818 26.745 15.7771 26.0002 14.6136ZM17.5747 20.0584C17.7699 20.3578 17.6854 20.7587 17.3861 20.9538C17.0868 21.149 16.6859 21.0646 16.4907 20.7652C14.8169 18.1982 14.8169 14.8608 16.4907 12.2937C16.6859 11.9944 17.0868 11.9099 17.3861 12.1051C17.6854 12.3003 17.7699 12.7012 17.5747 13.0006C16.181 15.138 16.181 17.9209 17.5747 20.0584ZM28.4253 13.0006C28.2301 12.7012 28.3145 12.3003 28.6139 12.1051C28.9132 11.9099 29.3141 11.9944 29.5093 12.2937C31.1831 14.8608 31.1831 18.1982 29.5093 20.7652C29.3141 21.0646 28.9132 21.149 28.6139 20.9538C28.3145 20.7586 28.2301 20.3578 28.4253 20.0584C29.819 17.9209 29.819 15.138 28.4253 13.0006Z" fill="#5A96F7"/>
</svg>
