<svg width="46" height="46" viewBox="0 0 46 46" fill="none" xmlns="http://www.w3.org/2000/svg">
<path d="M0 12C0 5.37258 5.37258 0 12 0H34C40.6274 0 46 5.37258 46 12V34C46 40.6274 40.6274 46 34 46H12C5.37258 46 0 40.6274 0 34V12Z" fill="url(#paint0_linear_2177_974)" fill-opacity="0.1"/>
<path d="M15.9998 28.0013V28.1888C15.9998 28.5369 16.1381 28.8707 16.3842 29.1169C16.6304 29.363 16.9642 29.5013 17.3123 29.5013H22.1873C22.5354 29.5013 22.8693 29.363 23.1154 29.1169C23.3615 28.8707 23.4998 28.5369 23.4998 28.1888V28.0013C23.5149 27.3542 23.3146 26.7204 22.9304 26.1995C22.5463 25.6786 22 25.3 21.3773 25.1232C21.7446 24.7937 22.0033 24.3606 22.1191 23.8811C22.235 23.4015 22.2026 22.898 22.0263 22.4373C21.8499 21.9765 21.5379 21.5801 21.1314 21.3005C20.7249 21.0208 20.2432 20.8711 19.7498 20.8711C19.2564 20.8711 18.7747 21.0208 18.3682 21.3005C17.9618 21.5801 17.6497 21.9765 17.4734 22.4373C17.297 22.898 17.2646 23.4015 17.3805 23.8811C17.4964 24.3606 17.755 24.7937 18.1223 25.1232C17.4997 25.3 16.9534 25.6786 16.5692 26.1995C16.185 26.7204 15.9848 27.3542 15.9998 28.0013ZM19.7498 21.6263C20.0836 21.6263 20.4098 21.7253 20.6873 21.9107C20.9648 22.0961 21.1811 22.3597 21.3089 22.668C21.4366 22.9764 21.47 23.3157 21.4049 23.643C21.3398 23.9703 21.1791 24.271 20.9431 24.507C20.7071 24.743 20.4064 24.9037 20.079 24.9689C19.7517 25.034 19.4124 25.0006 19.104 24.8728C18.7957 24.7451 18.5321 24.5288 18.3467 24.2513C18.1613 23.9738 18.0623 23.6475 18.0623 23.3138C18.0623 22.8662 18.2401 22.437 18.5566 22.1205C18.873 21.8041 19.3023 21.6263 19.7498 21.6263ZM18.9998 25.7513H20.4998C20.7971 25.7446 21.0927 25.7983 21.3687 25.909C21.6447 26.0197 21.8954 26.1852 22.1056 26.3955C22.3159 26.6057 22.4814 26.8564 22.5921 27.1324C22.7028 27.4084 22.7565 27.704 22.7498 28.0013V28.1888C22.7498 28.338 22.6906 28.481 22.5851 28.5865C22.4796 28.692 22.3365 28.7513 22.1873 28.7513H17.3123C17.1631 28.7513 17.0201 28.692 16.9146 28.5865C16.8091 28.481 16.7498 28.338 16.7498 28.1888V28.0013C16.7432 27.704 16.7968 27.4084 16.9075 27.1324C17.0182 26.8564 17.1837 26.6057 17.394 26.3955C17.6043 26.1852 17.855 26.0197 18.131 25.909C18.407 25.7983 18.7025 25.7446 18.9998 25.7513Z" fill="url(#paint1_linear_2177_974)"/>
<path d="M31.375 25.375C31.2755 25.375 31.1802 25.4145 31.1098 25.4848C31.0395 25.5552 31 25.6505 31 25.75V30.4375C31 30.5867 30.9407 30.7298 30.8352 30.8352C30.7298 30.9407 30.5867 31 30.4375 31H15.0625C14.9133 31 14.7702 30.9407 14.6648 30.8352C14.5593 30.7298 14.5 30.5867 14.5 30.4375V19.5625C14.5 19.4133 14.5593 19.2702 14.6648 19.1648C14.7702 19.0593 14.9133 19 15.0625 19H23.3125C23.412 19 23.5073 18.9605 23.5777 18.8902C23.648 18.8198 23.6875 18.7245 23.6875 18.625C23.6875 18.5255 23.648 18.4302 23.5777 18.3598C23.5073 18.2895 23.412 18.25 23.3125 18.25H15.0625C14.7144 18.25 14.3806 18.3883 14.1344 18.6344C13.8883 18.8806 13.75 19.2144 13.75 19.5625V30.4375C13.75 30.7856 13.8883 31.1194 14.1344 31.3656C14.3806 31.6117 14.7144 31.75 15.0625 31.75H30.4375C30.7856 31.75 31.1194 31.6117 31.3656 31.3656C31.6117 31.1194 31.75 30.7856 31.75 30.4375V25.75C31.75 25.6505 31.7105 25.5552 31.6402 25.4848C31.5698 25.4145 31.4745 25.375 31.375 25.375Z" fill="url(#paint2_linear_2177_974)"/>
<path d="M31.0468 18.3593L28.688 20.718L27.203 19.233C27.1327 19.1627 27.0372 19.1231 26.9377 19.1231C26.8382 19.1231 26.7428 19.1627 26.6724 19.233C26.602 19.3034 26.5625 19.3988 26.5625 19.4983C26.5625 19.5979 26.602 19.6933 26.6724 19.7637L28.4218 21.513C28.4567 21.5481 28.4981 21.576 28.5438 21.595C28.5895 21.6139 28.6385 21.6237 28.688 21.6237C28.7873 21.6232 28.8824 21.5835 28.9524 21.513L31.5774 18.888C31.6419 18.8166 31.6765 18.7231 31.6739 18.6268C31.6714 18.5306 31.6319 18.439 31.5638 18.3711C31.4956 18.3031 31.4039 18.264 31.3076 18.2618C31.2114 18.2596 31.118 18.2945 31.0468 18.3593Z" fill="url(#paint3_linear_2177_974)"/>
<path d="M33.6779 16.2764C33.6687 16.1898 33.6295 16.1092 33.5673 16.0483C33.505 15.9874 33.4235 15.95 33.3367 15.9427C32.6214 15.8502 31.9231 15.6557 31.2629 15.3652C30.5811 15.0813 29.9458 14.6963 29.3786 14.2233C29.3094 14.1601 29.2191 14.125 29.1254 14.125C29.0317 14.125 28.9414 14.1601 28.8723 14.2233C28.3052 14.6965 27.6699 15.0815 26.9879 15.3652C26.3313 15.6545 25.6368 15.8489 24.9254 15.9427C24.8383 15.9496 24.7564 15.9868 24.6937 16.0477C24.6311 16.1086 24.5917 16.1895 24.5823 16.2764C24.5654 16.4358 24.1904 20.1802 25.1167 22.0289C26.2248 24.2377 28.8667 25.4771 28.9773 25.5296C29.0267 25.5524 29.0804 25.5642 29.1348 25.5642C29.1892 25.5642 29.243 25.5524 29.2923 25.5296C29.4029 25.4771 32.0448 24.2377 33.1529 22.0289C34.0698 20.1802 33.6948 16.4358 33.6779 16.2764ZM32.4723 21.6933C31.6304 23.3752 29.6879 24.4758 29.1254 24.7702C28.5629 24.4758 26.6204 23.3752 25.7786 21.6933C25.0886 20.3133 25.2273 17.5514 25.2948 16.6477C25.9782 16.5286 26.6453 16.3298 27.2823 16.0552C27.939 15.7775 28.5582 15.4184 29.1254 14.9864C29.6927 15.4184 30.3119 15.7775 30.9686 16.0552C31.6056 16.3298 32.2727 16.5286 32.9561 16.6477C33.0254 17.5514 33.1642 20.3133 32.4723 21.6933Z" fill="url(#paint4_linear_2177_974)"/>
<path d="M25.375 29.5H29.125C29.2245 29.5 29.3198 29.4605 29.3902 29.3902C29.4605 29.3198 29.5 29.2245 29.5 29.125C29.5 29.0255 29.4605 28.9302 29.3902 28.8598C29.3198 28.7895 29.2245 28.75 29.125 28.75H25.375C25.2755 28.75 25.1802 28.7895 25.1098 28.8598C25.0395 28.9302 25 29.0255 25 29.125C25 29.2245 25.0395 29.3198 25.1098 29.3902C25.1802 29.4605 25.2755 29.5 25.375 29.5Z" fill="url(#paint5_linear_2177_974)"/>
<path d="M25.375 27.25H27.625C27.7245 27.25 27.8198 27.2105 27.8902 27.1402C27.9605 27.0698 28 26.9745 28 26.875C28 26.7755 27.9605 26.6802 27.8902 26.6098C27.8198 26.5395 27.7245 26.5 27.625 26.5H25.375C25.2755 26.5 25.1802 26.5395 25.1098 26.6098C25.0395 26.6802 25 26.7755 25 26.875C25 26.9745 25.0395 27.0698 25.1098 27.1402C25.1802 27.2105 25.2755 27.25 25.375 27.25Z" fill="url(#paint6_linear_2177_974)"/>
<defs>
<linearGradient id="paint0_linear_2177_974" x1="-28.0312" y1="-10.0625" x2="73.3125" y2="69.3594" gradientUnits="userSpaceOnUse">
<stop stop-color="#27AE60"/>
<stop offset="1" stop-color="#0052CC"/>
</linearGradient>
<linearGradient id="paint1_linear_2177_974" x1="11.4277" y1="18.9832" x2="29.6494" y2="31.3959" gradientUnits="userSpaceOnUse">
<stop stop-color="#27AE60"/>
<stop offset="1" stop-color="#0052CC"/>
</linearGradient>
<linearGradient id="paint2_linear_2177_974" x1="2.78125" y1="15.2969" x2="33.3818" y2="47.2719" gradientUnits="userSpaceOnUse">
<stop stop-color="#27AE60"/>
<stop offset="1" stop-color="#0052CC"/>
</linearGradient>
<linearGradient id="paint3_linear_2177_974" x1="23.4476" y1="17.5263" x2="30.9599" y2="26.4774" gradientUnits="userSpaceOnUse">
<stop stop-color="#27AE60"/>
<stop offset="1" stop-color="#0052CC"/>
</linearGradient>
<linearGradient id="paint4_linear_2177_974" x1="18.8413" y1="11.6227" x2="42.338" y2="26.5526" gradientUnits="userSpaceOnUse">
<stop stop-color="#27AE60"/>
<stop offset="1" stop-color="#0052CC"/>
</linearGradient>
<linearGradient id="paint5_linear_2177_974" x1="22.2578" y1="28.5859" x2="22.9503" y2="31.842" gradientUnits="userSpaceOnUse">
<stop stop-color="#27AE60"/>
<stop offset="1" stop-color="#0052CC"/>
</linearGradient>
<linearGradient id="paint6_linear_2177_974" x1="23.1719" y1="26.3359" x2="24.1573" y2="29.4249" gradientUnits="userSpaceOnUse">
<stop stop-color="#27AE60"/>
<stop offset="1" stop-color="#0052CC"/>
</linearGradient>
</defs>
</svg>
