<svg width="46" height="46" viewBox="0 0 46 46" fill="none" xmlns="http://www.w3.org/2000/svg">
<rect width="46" height="46" rx="8" fill="#EBBE2F" fill-opacity="0.1"/>
<path d="M18.1951 13.9337H21.0551H25.5808H26.6259C26.3449 13.5619 26.0609 13.193 25.7799 12.8213C25.5428 13.5063 25.3086 14.1883 25.0715 14.8733C24.6968 15.9594 24.3221 17.0425 23.9474 18.1286C23.8595 18.3803 23.7746 18.6321 23.6868 18.8809C23.4995 19.4283 23.9942 19.9933 24.5328 19.9933H28.5375H29.1112C28.8595 19.5542 28.6048 19.1122 28.3531 18.6731C28.0457 19.1327 27.7412 19.5923 27.4339 20.0519C26.6991 21.1555 25.9643 22.2562 25.2296 23.3598C24.3426 24.6888 23.4585 26.0178 22.5715 27.3469C21.8045 28.4973 21.0405 29.6449 20.2735 30.7953C19.8988 31.3544 19.5095 31.9077 19.1523 32.4786C19.1465 32.4873 19.1406 32.4932 19.1377 32.502C19.6822 32.6483 20.2296 32.7976 20.7741 32.944C20.8736 31.8784 20.9732 30.81 21.0727 29.7444C21.2308 28.0582 21.3859 26.375 21.544 24.6888C21.5791 24.3053 21.6142 23.9218 21.6523 23.5384C21.6699 23.3364 21.5411 23.0524 21.3947 22.9178C21.222 22.7597 21.0112 22.6602 20.7741 22.6602C19.7671 22.6602 18.7571 22.6602 17.7501 22.6602C17.6067 22.6602 17.4632 22.6602 17.3198 22.6602L18.198 23.5384C18.2273 23.1929 18.2566 22.8475 18.2858 22.4991C18.3561 21.6619 18.4263 20.8276 18.4966 19.9904C18.5815 18.9834 18.6664 17.9764 18.7513 16.9693C18.8245 16.097 18.8976 15.2276 18.9708 14.3552C19.006 13.9307 19.0587 13.5033 19.0791 13.0759C19.0791 13.0701 19.0791 13.0642 19.0821 13.0584C19.0996 12.8447 18.9708 12.5841 18.8245 12.4378C18.6722 12.2855 18.4234 12.1714 18.2039 12.1802C17.6945 12.2036 17.3666 12.5666 17.3256 13.0584C17.2964 13.4038 17.2671 13.7492 17.2378 14.0976C17.1676 14.9348 17.0973 15.7691 17.0271 16.6063C16.9422 17.6134 16.8573 18.6204 16.7724 19.6274C16.6992 20.4998 16.626 21.3692 16.5528 22.2415C16.5177 22.666 16.465 23.0934 16.4445 23.5208C16.4445 23.5267 16.4445 23.5325 16.4416 23.5384C16.424 23.7433 16.5499 24.0214 16.6992 24.159C16.8719 24.317 17.0827 24.4166 17.3198 24.4166H20.3438H20.7741C20.4814 24.1238 20.1886 23.8311 19.8959 23.5384C19.7964 24.6039 19.6968 25.6724 19.5973 26.738C19.4392 28.4241 19.2841 30.1074 19.126 31.7936C19.0909 32.177 19.0557 32.5605 19.0177 32.944C19.0001 33.1314 19.0967 33.3333 19.205 33.4768C19.3163 33.6232 19.4773 33.749 19.6617 33.7929C20.0598 33.8837 20.4287 33.7256 20.6541 33.389C20.9614 32.9294 21.2659 32.4698 21.5733 32.0102C22.308 30.9066 23.0428 29.8059 23.7776 28.7022C24.6646 27.3732 25.5486 26.0442 26.4356 24.7152C27.2026 23.5647 27.9666 22.4172 28.7336 21.2667C29.1083 20.7076 29.4977 20.1543 29.8548 19.5835C29.8607 19.5747 29.8665 19.5688 29.8694 19.5601C30.2471 18.9951 29.7465 18.2398 29.1112 18.2398C27.7764 18.2398 26.4415 18.2398 25.1066 18.2398C24.9163 18.2398 24.7231 18.2398 24.5328 18.2398C24.8139 18.6116 25.0978 18.9804 25.3788 19.3522C25.616 18.6672 25.8502 17.9851 26.0873 17.3001C26.462 16.2141 26.8367 15.131 27.2114 14.0449C27.2992 13.7931 27.3841 13.5414 27.4719 13.2926C27.6593 12.7451 27.1645 12.1802 26.6259 12.1802C25.6716 12.1802 24.7173 12.1802 23.7659 12.1802C22.2583 12.1802 20.7477 12.1802 19.2401 12.1802C18.8918 12.1802 18.5434 12.1802 18.1951 12.1802C17.7355 12.1802 17.2964 12.5841 17.3169 13.0584C17.3374 13.5326 17.7004 13.9337 18.1951 13.9337Z" fill="#EBBE2F"/>
</svg>
