<svg width="46" height="46" viewBox="0 0 46 46" fill="none" xmlns="http://www.w3.org/2000/svg">
<path d="M0 12C0 5.37258 5.37258 0 12 0H34C40.6274 0 46 5.37258 46 12V34C46 40.6274 40.6274 46 34 46H12C5.37258 46 0 40.6274 0 34V12Z" fill="url(#paint0_linear_2318_2025)" fill-opacity="0.1"/>
<g clip-path="url(#clip0_2318_2025)">
<path d="M18.125 16.3262C17.918 16.3262 17.75 16.4942 17.75 16.7012V27.9512C17.75 28.1582 17.918 28.3262 18.125 28.3262H27.875C28.7023 28.3262 29.375 27.6534 29.375 26.8262V21.5762C29.375 21.3692 29.207 21.2012 29 21.2012H27.125V16.7012C27.125 16.4942 26.957 16.3262 26.75 16.3262H18.125ZM18.5 27.5762V17.0762H26.375V26.8262C26.375 27.1007 26.4545 27.3545 26.5835 27.5762H18.5ZM27.125 21.9512H28.625V26.8262C28.625 27.2398 28.2886 27.5762 27.875 27.5762C27.4614 27.5762 27.125 27.2398 27.125 26.8262V21.9512Z" fill="url(#paint1_linear_2318_2025)"/>
<path d="M19.625 20.8262H21.875C22.082 20.8262 22.25 20.6582 22.25 20.4512V18.2012C22.25 17.9942 22.082 17.8262 21.875 17.8262H19.625C19.418 17.8262 19.25 17.9942 19.25 18.2012V20.4512C19.25 20.6582 19.418 20.8262 19.625 20.8262ZM20 18.5762H21.5V20.0762H20V18.5762Z" fill="url(#paint2_linear_2318_2025)"/>
<path d="M23 18.2012H25.625V18.9512H23V18.2012Z" fill="url(#paint3_linear_2318_2025)"/>
<path d="M23 20.0762H25.625V20.8262H23V20.0762Z" fill="url(#paint4_linear_2318_2025)"/>
<path d="M19.25 23.8262H25.625V24.5762H19.25V23.8262Z" fill="url(#paint5_linear_2318_2025)"/>
<path d="M19.25 25.7012H21.5V26.4512H19.25V25.7012Z" fill="url(#paint6_linear_2318_2025)"/>
<path d="M22.25 25.7012H25.625V26.4512H22.25V25.7012Z" fill="url(#paint7_linear_2318_2025)"/>
<path d="M19.25 21.9512H25.625V22.7012H19.25V21.9512Z" fill="url(#paint8_linear_2318_2025)"/>
<path d="M13.4076 26.4302C13.2906 26.086 13.1916 25.7309 13.1132 25.375L12.3809 25.537C12.4656 25.9195 12.5717 26.3009 12.6974 26.671L13.4076 26.4302Z" fill="url(#paint9_linear_2318_2025)"/>
<path d="M32.5977 26.4115L33.3087 26.6511C33.4335 26.281 33.5393 25.8988 33.6229 25.516L32.8902 25.3555C32.8122 25.7117 32.7139 26.0672 32.5977 26.4115Z" fill="url(#paint10_linear_2318_2025)"/>
<path d="M12.1899 24.3772L12.9354 24.2954C12.896 23.935 12.8758 23.5668 12.875 23.2012L12.125 23.2027C12.1258 23.5949 12.1479 23.9902 12.1899 24.3772Z" fill="url(#paint11_linear_2318_2025)"/>
<path d="M33.8749 23.181V23.1387H33.1249V23.181C33.1249 23.5467 33.1054 23.9149 33.0664 24.2753L33.8119 24.3555C33.8539 23.9685 33.8749 23.5733 33.8749 23.181Z" fill="url(#paint12_linear_2318_2025)"/>
<path d="M13.105 21.0242L12.3723 20.8652C12.2894 21.247 12.2264 21.6381 12.1855 22.0274L12.9314 22.1061C12.9697 21.7435 13.0282 21.3797 13.105 21.0242Z" fill="url(#paint13_linear_2318_2025)"/>
<path d="M32.8818 20.9643C32.961 21.3187 33.0217 21.6824 33.0622 22.045L33.8073 21.9618C33.7638 21.5722 33.6986 21.1814 33.6138 20.8008L32.8818 20.9643Z" fill="url(#paint14_linear_2318_2025)"/>
<path d="M13.1181 18.6348C12.9542 18.9899 12.8087 19.3581 12.6846 19.7294L13.3956 19.9671C13.5111 19.6218 13.6468 19.279 13.7991 18.9486L13.1181 18.6348Z" fill="url(#paint15_linear_2318_2025)"/>
<path d="M32.1758 18.8942C32.3303 19.2245 32.4679 19.5662 32.5853 19.91L33.2952 19.6678C33.1692 19.2984 33.0214 18.9309 32.8553 18.5762L32.1758 18.8942Z" fill="url(#paint16_linear_2318_2025)"/>
<path d="M20.2633 12.9508L20.0608 12.2285C19.6839 12.3343 19.3089 12.4618 18.9463 12.6076L19.226 13.3033C19.5632 13.1675 19.9123 13.049 20.2633 12.9508Z" fill="url(#paint17_linear_2318_2025)"/>
<path d="M26.9938 12.5833C26.6301 12.4397 26.2543 12.3144 25.8767 12.2109L25.6787 12.9343C26.0305 13.0307 26.38 13.1473 26.7182 13.2808L26.9938 12.5833Z" fill="url(#paint18_linear_2318_2025)"/>
<path d="M22.4216 12.5926L22.3792 11.8438C21.9877 11.8659 21.5943 11.9094 21.21 11.9731L21.3326 12.713C21.69 12.6537 22.0563 12.6133 22.4216 12.5926Z" fill="url(#paint19_linear_2318_2025)"/>
<path d="M24.7258 11.9617C24.34 11.9002 23.9462 11.8593 23.5555 11.8398L23.5176 12.5887C23.8813 12.6071 24.2481 12.6453 24.6077 12.7027L24.7258 11.9617Z" fill="url(#paint20_linear_2318_2025)"/>
<path d="M25.6768 32.4423L25.8793 33.1646C26.2561 33.0588 26.6311 32.9313 26.9938 32.7855L26.714 32.0898C26.3765 32.2252 26.0274 32.3437 25.6768 32.4423Z" fill="url(#paint21_linear_2318_2025)"/>
<path d="M19.2219 32.1133L18.9463 32.8108C19.31 32.9544 19.6858 33.0797 20.0634 33.1832L20.2614 32.4598C19.91 32.3634 19.5602 32.2468 19.2219 32.1133Z" fill="url(#paint22_linear_2318_2025)"/>
<path d="M24.6076 32.6797C24.2498 32.7389 23.8834 32.7794 23.5186 32.8001L23.5609 33.5489C23.9524 33.5268 24.3458 33.4833 24.7302 33.4196L24.6076 32.6797Z" fill="url(#paint23_linear_2318_2025)"/>
<path d="M21.3316 32.6895L21.2139 33.4305C21.5997 33.492 21.9935 33.5328 22.3842 33.5523L22.4221 32.8035C22.058 32.7851 21.6912 32.7468 21.3316 32.6895Z" fill="url(#paint24_linear_2318_2025)"/>
<path d="M31.25 11.0762C29.3893 11.0762 27.875 12.5904 27.875 14.4512C27.875 16.3119 29.3893 17.8262 31.25 17.8262C33.1108 17.8262 34.625 16.3119 34.625 14.4512C34.625 12.5904 33.1108 11.0762 31.25 11.0762ZM32.75 16.6022C32.3244 16.8999 31.8076 17.0762 31.25 17.0762C30.6924 17.0762 30.1756 16.8999 29.75 16.6022V16.3262C29.75 15.7059 30.2548 15.2012 30.875 15.2012H31.625C32.2453 15.2012 32.75 15.7059 32.75 16.3262V16.6022ZM30.5 13.7012C30.5 13.2875 30.8364 12.9512 31.25 12.9512C31.6636 12.9512 32 13.2875 32 13.7012C32 14.1148 31.6636 14.4512 31.25 14.4512C30.8364 14.4512 30.5 14.1148 30.5 13.7012ZM33.4434 15.8893C33.3091 15.3309 32.9259 14.8715 32.4163 14.6323C32.6218 14.3758 32.75 14.0548 32.75 13.7012C32.75 12.8739 32.0773 12.2012 31.25 12.2012C30.4227 12.2012 29.75 12.8739 29.75 13.7012C29.75 14.0548 29.8782 14.3758 30.0837 14.6327C29.5741 14.8719 29.1913 15.3309 29.0566 15.8897C28.7848 15.476 28.625 14.9822 28.625 14.4512C28.625 13.0037 29.8025 11.8262 31.25 11.8262C32.6975 11.8262 33.875 13.0037 33.875 14.4512C33.875 14.9822 33.7152 15.476 33.4434 15.8893Z" fill="url(#paint25_linear_2318_2025)"/>
<path d="M14.75 17.8262C16.6108 17.8262 18.125 16.3119 18.125 14.4512C18.125 12.5904 16.6108 11.0762 14.75 11.0762C12.8893 11.0762 11.375 12.5904 11.375 14.4512C11.375 16.3119 12.8893 17.8262 14.75 17.8262ZM16.25 16.6022C15.8244 16.8999 15.3076 17.0762 14.75 17.0762C14.1924 17.0762 13.6756 16.8999 13.25 16.6022V16.3262C13.25 15.7059 13.7548 15.2012 14.375 15.2012H15.125C15.7453 15.2012 16.25 15.7059 16.25 16.3262V16.6022ZM14 13.7012C14 13.2875 14.3364 12.9512 14.75 12.9512C15.1636 12.9512 15.5 13.2875 15.5 13.7012C15.5 14.1148 15.1636 14.4512 14.75 14.4512C14.3364 14.4512 14 14.1148 14 13.7012ZM14.75 11.8262C16.1975 11.8262 17.375 13.0037 17.375 14.4512C17.375 14.9822 17.2153 15.476 16.9434 15.8893C16.8091 15.3309 16.4259 14.8715 15.9162 14.6323C16.1217 14.3758 16.25 14.0548 16.25 13.7012C16.25 12.8739 15.5773 12.2012 14.75 12.2012C13.9227 12.2012 13.25 12.8739 13.25 13.7012C13.25 14.0548 13.3782 14.3758 13.5838 14.6327C13.0741 14.8719 12.6912 15.3309 12.5566 15.8897C12.2847 15.476 12.125 14.9822 12.125 14.4512C12.125 13.0037 13.3025 11.8262 14.75 11.8262Z" fill="url(#paint26_linear_2318_2025)"/>
<path d="M31.25 27.5762C29.3893 27.5762 27.875 29.0904 27.875 30.9512C27.875 32.8119 29.3893 34.3262 31.25 34.3262C33.1108 34.3262 34.625 32.8119 34.625 30.9512C34.625 29.0904 33.1108 27.5762 31.25 27.5762ZM32.75 33.1022C32.3244 33.3999 31.8076 33.5762 31.25 33.5762C30.6924 33.5762 30.1756 33.3999 29.75 33.1022V32.8262C29.75 32.2059 30.2548 31.7012 30.875 31.7012H31.625C32.2453 31.7012 32.75 32.2059 32.75 32.8262V33.1022ZM30.5 30.2012C30.5 29.7875 30.8364 29.4512 31.25 29.4512C31.6636 29.4512 32 29.7875 32 30.2012C32 30.6148 31.6636 30.9512 31.25 30.9512C30.8364 30.9512 30.5 30.6148 30.5 30.2012ZM33.4434 32.3893C33.3091 31.8309 32.9259 31.3715 32.4163 31.1323C32.6218 30.8758 32.75 30.5548 32.75 30.2012C32.75 29.3739 32.0773 28.7012 31.25 28.7012C30.4227 28.7012 29.75 29.3739 29.75 30.2012C29.75 30.5548 29.8782 30.8758 30.0837 31.1327C29.5741 31.3719 29.1913 31.8309 29.0566 32.3897C28.7848 31.976 28.625 31.4822 28.625 30.9512C28.625 29.5037 29.8025 28.3262 31.25 28.3262C32.6975 28.3262 33.875 29.5037 33.875 30.9512C33.875 31.4822 33.7152 31.976 33.4434 32.3893Z" fill="url(#paint27_linear_2318_2025)"/>
<path d="M14.75 34.3262C16.6108 34.3262 18.125 32.8119 18.125 30.9512C18.125 29.0904 16.6108 27.5762 14.75 27.5762C12.8893 27.5762 11.375 29.0904 11.375 30.9512C11.375 32.8119 12.8893 34.3262 14.75 34.3262ZM16.25 33.1022C15.8244 33.3999 15.3076 33.5762 14.75 33.5762C14.1924 33.5762 13.6756 33.3999 13.25 33.1022V32.8262C13.25 32.2059 13.7548 31.7012 14.375 31.7012H15.125C15.7453 31.7012 16.25 32.2059 16.25 32.8262V33.1022ZM14 30.2012C14 29.7875 14.3364 29.4512 14.75 29.4512C15.1636 29.4512 15.5 29.7875 15.5 30.2012C15.5 30.6148 15.1636 30.9512 14.75 30.9512C14.3364 30.9512 14 30.6148 14 30.2012ZM14.75 28.3262C16.1975 28.3262 17.375 29.5037 17.375 30.9512C17.375 31.4822 17.2153 31.976 16.9434 32.3893C16.8091 31.8309 16.4259 31.3715 15.9162 31.1323C16.1217 30.8758 16.25 30.5548 16.25 30.2012C16.25 29.3739 15.5773 28.7012 14.75 28.7012C13.9227 28.7012 13.25 29.3739 13.25 30.2012C13.25 30.5548 13.3782 30.8758 13.5838 31.1327C13.0741 31.3719 12.6912 31.8309 12.5566 32.3897C12.2847 31.976 12.125 31.4822 12.125 30.9512C12.125 29.5037 13.3025 28.3262 14.75 28.3262Z" fill="url(#paint28_linear_2318_2025)"/>
</g>
<defs>
<linearGradient id="paint0_linear_2318_2025" x1="-28.0312" y1="-10.0625" x2="73.3125" y2="69.3594" gradientUnits="userSpaceOnUse">
<stop stop-color="#27AE60"/>
<stop offset="1" stop-color="#0052CC"/>
</linearGradient>
<linearGradient id="paint1_linear_2318_2025" x1="10.666" y1="13.7012" x2="36.8912" y2="33.6113" gradientUnits="userSpaceOnUse">
<stop stop-color="#27AE60"/>
<stop offset="1" stop-color="#0052CC"/>
</linearGradient>
<linearGradient id="paint2_linear_2318_2025" x1="17.4219" y1="17.1699" x2="24.0312" y2="22.3496" gradientUnits="userSpaceOnUse">
<stop stop-color="#27AE60"/>
<stop offset="1" stop-color="#0052CC"/>
</linearGradient>
<linearGradient id="paint3_linear_2318_2025" x1="21.4004" y1="18.0371" x2="22.4956" y2="21.0412" gradientUnits="userSpaceOnUse">
<stop stop-color="#27AE60"/>
<stop offset="1" stop-color="#0052CC"/>
</linearGradient>
<linearGradient id="paint4_linear_2318_2025" x1="21.4004" y1="19.9121" x2="22.4956" y2="22.9162" gradientUnits="userSpaceOnUse">
<stop stop-color="#27AE60"/>
<stop offset="1" stop-color="#0052CC"/>
</linearGradient>
<linearGradient id="paint5_linear_2318_2025" x1="15.3652" y1="23.6621" x2="15.8649" y2="26.9904" gradientUnits="userSpaceOnUse">
<stop stop-color="#27AE60"/>
<stop offset="1" stop-color="#0052CC"/>
</linearGradient>
<linearGradient id="paint6_linear_2318_2025" x1="17.8789" y1="25.5371" x2="19.1047" y2="28.4191" gradientUnits="userSpaceOnUse">
<stop stop-color="#27AE60"/>
<stop offset="1" stop-color="#0052CC"/>
</linearGradient>
<linearGradient id="paint7_linear_2318_2025" x1="20.1934" y1="25.5371" x2="21.0866" y2="28.6872" gradientUnits="userSpaceOnUse">
<stop stop-color="#27AE60"/>
<stop offset="1" stop-color="#0052CC"/>
</linearGradient>
<linearGradient id="paint8_linear_2318_2025" x1="15.3652" y1="21.7871" x2="15.8649" y2="25.1154" gradientUnits="userSpaceOnUse">
<stop stop-color="#27AE60"/>
<stop offset="1" stop-color="#0052CC"/>
</linearGradient>
<linearGradient id="paint9_linear_2318_2025" x1="11.7552" y1="25.0915" x2="14.3906" y2="26.7278" gradientUnits="userSpaceOnUse">
<stop stop-color="#27AE60"/>
<stop offset="1" stop-color="#0052CC"/>
</linearGradient>
<linearGradient id="paint10_linear_2318_2025" x1="31.9729" y1="25.0721" x2="34.6062" y2="26.7051" gradientUnits="userSpaceOnUse">
<stop stop-color="#27AE60"/>
<stop offset="1" stop-color="#0052CC"/>
</linearGradient>
<linearGradient id="paint11_linear_2318_2025" x1="11.6312" y1="22.9439" x2="13.8623" y2="24.1488" gradientUnits="userSpaceOnUse">
<stop stop-color="#27AE60"/>
<stop offset="1" stop-color="#0052CC"/>
</linearGradient>
<linearGradient id="paint12_linear_2318_2025" x1="32.5737" y1="22.8725" x2="34.8357" y2="24.0502" gradientUnits="userSpaceOnUse">
<stop stop-color="#27AE60"/>
<stop offset="1" stop-color="#0052CC"/>
</linearGradient>
<linearGradient id="paint13_linear_2318_2025" x1="11.6252" y1="20.5938" x2="14.0705" y2="22.0138" gradientUnits="userSpaceOnUse">
<stop stop-color="#27AE60"/>
<stop offset="1" stop-color="#0052CC"/>
</linearGradient>
<linearGradient id="paint14_linear_2318_2025" x1="32.3179" y1="20.5286" x2="34.7744" y2="21.9606" gradientUnits="userSpaceOnUse">
<stop stop-color="#27AE60"/>
<stop offset="1" stop-color="#0052CC"/>
</linearGradient>
<linearGradient id="paint15_linear_2318_2025" x1="12.0054" y1="18.3433" x2="14.7776" y2="20.1605" gradientUnits="userSpaceOnUse">
<stop stop-color="#27AE60"/>
<stop offset="1" stop-color="#0052CC"/>
</linearGradient>
<linearGradient id="paint16_linear_2318_2025" x1="31.4937" y1="18.2844" x2="34.2725" y2="20.1119" gradientUnits="userSpaceOnUse">
<stop stop-color="#27AE60"/>
<stop offset="1" stop-color="#0052CC"/>
</linearGradient>
<linearGradient id="paint17_linear_2318_2025" x1="18.1437" y1="11.9934" x2="20.5802" y2="14.3333" gradientUnits="userSpaceOnUse">
<stop stop-color="#27AE60"/>
<stop offset="1" stop-color="#0052CC"/>
</linearGradient>
<linearGradient id="paint18_linear_2318_2025" x1="24.8773" y1="11.9769" x2="27.303" y2="14.3137" gradientUnits="userSpaceOnUse">
<stop stop-color="#27AE60"/>
<stop offset="1" stop-color="#0052CC"/>
</linearGradient>
<linearGradient id="paint19_linear_2318_2025" x1="20.4716" y1="11.6536" x2="22.4362" y2="13.7996" gradientUnits="userSpaceOnUse">
<stop stop-color="#27AE60"/>
<stop offset="1" stop-color="#0052CC"/>
</linearGradient>
<linearGradient id="paint20_linear_2318_2025" x1="22.7813" y1="11.6511" x2="24.7307" y2="13.7902" gradientUnits="userSpaceOnUse">
<stop stop-color="#27AE60"/>
<stop offset="1" stop-color="#0052CC"/>
</linearGradient>
<linearGradient id="paint21_linear_2318_2025" x1="24.8742" y1="31.8547" x2="27.3107" y2="34.1946" gradientUnits="userSpaceOnUse">
<stop stop-color="#27AE60"/>
<stop offset="1" stop-color="#0052CC"/>
</linearGradient>
<linearGradient id="paint22_linear_2318_2025" x1="18.1449" y1="31.8792" x2="20.5706" y2="34.216" gradientUnits="userSpaceOnUse">
<stop stop-color="#27AE60"/>
<stop offset="1" stop-color="#0052CC"/>
</linearGradient>
<linearGradient id="paint23_linear_2318_2025" x1="22.7802" y1="32.4895" x2="24.7448" y2="34.6356" gradientUnits="userSpaceOnUse">
<stop stop-color="#27AE60"/>
<stop offset="1" stop-color="#0052CC"/>
</linearGradient>
<linearGradient id="paint24_linear_2318_2025" x1="20.4776" y1="32.5007" x2="22.4269" y2="34.6399" gradientUnits="userSpaceOnUse">
<stop stop-color="#27AE60"/>
<stop offset="1" stop-color="#0052CC"/>
</linearGradient>
<linearGradient id="paint25_linear_2318_2025" x1="23.7617" y1="9.59961" x2="38.6328" y2="21.2539" gradientUnits="userSpaceOnUse">
<stop stop-color="#27AE60"/>
<stop offset="1" stop-color="#0052CC"/>
</linearGradient>
<linearGradient id="paint26_linear_2318_2025" x1="7.26172" y1="9.59961" x2="22.1328" y2="21.2539" gradientUnits="userSpaceOnUse">
<stop stop-color="#27AE60"/>
<stop offset="1" stop-color="#0052CC"/>
</linearGradient>
<linearGradient id="paint27_linear_2318_2025" x1="23.7617" y1="26.0996" x2="38.6328" y2="37.7539" gradientUnits="userSpaceOnUse">
<stop stop-color="#27AE60"/>
<stop offset="1" stop-color="#0052CC"/>
</linearGradient>
<linearGradient id="paint28_linear_2318_2025" x1="7.26172" y1="26.0996" x2="22.1328" y2="37.7539" gradientUnits="userSpaceOnUse">
<stop stop-color="#27AE60"/>
<stop offset="1" stop-color="#0052CC"/>
</linearGradient>
<clipPath id="clip0_2318_2025">
<rect width="24" height="24" fill="white" transform="translate(11 10.7012)"/>
</clipPath>
</defs>
</svg>
