<svg width="46" height="46" viewBox="0 0 46 46" fill="none" xmlns="http://www.w3.org/2000/svg">
<path d="M0 12C0 5.37258 5.37258 0 12 0H34C40.6274 0 46 5.37258 46 12V34C46 40.6274 40.6274 46 34 46H12C5.37258 46 0 40.6274 0 34V12Z" fill="url(#paint0_linear_2243_626)" fill-opacity="0.1"/>
<g clip-path="url(#clip0_2243_626)">
<path d="M27.5 34.3438H18.5C17.2574 34.2977 17.2584 32.5144 18.5 32.4688H27.5C28.7426 32.5148 28.7416 34.2981 27.5 34.3438ZM29.375 30.5938H16.624C13.523 30.5938 11 28.0708 11 24.9697V17.2812C11 14.1796 13.5234 11.6562 16.625 11.6562H29.375C32.4766 11.6562 35 14.1796 35 17.2812V24.9688C35 28.0704 32.4766 30.5938 29.375 30.5938ZM16.625 13.5312C14.5573 13.5312 12.875 15.2135 12.875 17.2812V24.9697C12.875 27.0369 14.5568 28.7188 16.624 28.7188H29.375C31.4427 28.7188 33.125 27.0365 33.125 24.9688V17.2812C33.125 15.2135 31.4427 13.5312 29.375 13.5312H16.625ZM21.9692 25.8596C21.8834 25.8596 21.7963 25.8477 21.7097 25.8229C21.2121 25.6798 20.9247 25.1605 21.0678 24.6628L23.224 17.1628C23.3671 16.6653 23.8865 16.3781 24.3841 16.5209C24.8817 16.664 25.1691 17.1833 25.026 17.681L22.8698 25.181C22.7516 25.592 22.3766 25.8596 21.9692 25.8596ZM27.5938 24.9219C27.3514 24.9219 27.1091 24.8285 26.9256 24.642C26.5624 24.2729 26.5671 23.6794 26.9362 23.3162L28.7717 21.5098C28.954 21.3129 28.9541 21.0542 28.7702 20.8572L26.9317 19.0231C26.5651 18.6574 26.5645 18.0638 26.9301 17.6973C27.2959 17.3307 27.8894 17.33 28.256 17.6957L30.0942 19.5296C31.0043 20.4002 31.0043 21.9685 30.094 22.8391C30.0926 22.8406 30.0912 22.842 30.0897 22.8434L28.2514 24.6526C28.0688 24.8323 27.8312 24.9219 27.5938 24.9219ZM18.5 24.9219C18.2625 24.9219 18.025 24.8323 17.8424 24.6526L16.0041 22.8434C16.0026 22.842 16.0012 22.8405 15.9998 22.8391C15.0894 21.9683 15.0895 20.4001 15.9998 19.5294L17.8378 17.6957C18.2044 17.33 18.798 17.3307 19.1637 17.6973C19.5293 18.0638 19.5287 18.6574 19.1621 19.0231L17.3238 20.857C17.1399 21.0539 17.1395 21.3125 17.3221 21.5098L19.1576 23.3162C19.5266 23.6794 19.5313 24.2729 19.1682 24.642C18.9847 24.8284 18.7423 24.9219 18.5 24.9219Z" fill="url(#paint1_linear_2243_626)"/>
</g>
<defs>
<linearGradient id="paint0_linear_2243_626" x1="-28.0312" y1="-10.0625" x2="73.3125" y2="69.3594" gradientUnits="userSpaceOnUse">
<stop stop-color="#27AE60"/>
<stop offset="1" stop-color="#0052CC"/>
</linearGradient>
<linearGradient id="paint1_linear_2243_626" x1="-3.625" y1="6.69336" x2="46.9587" y2="48.6286" gradientUnits="userSpaceOnUse">
<stop stop-color="#27AE60"/>
<stop offset="1" stop-color="#0052CC"/>
</linearGradient>
<clipPath id="clip0_2243_626">
<rect width="24" height="24" fill="white" transform="translate(11 11)"/>
</clipPath>
</defs>
</svg>
