<svg width="46" height="46" viewBox="0 0 46 46" fill="none" xmlns="http://www.w3.org/2000/svg">
<path d="M0 12C0 5.37258 5.37258 0 12 0H34C40.6274 0 46 5.37258 46 12V34C46 40.6274 40.6274 46 34 46H12C5.37258 46 0 40.6274 0 34V12Z" fill="url(#paint0_linear_2195_667)" fill-opacity="0.1"/>
<path d="M31.5344 24.2972H28.6924V20.4772C28.6924 20.2371 28.4978 20.0426 28.2578 20.0426C28.0178 20.0426 27.8232 20.2371 27.8232 20.4772V24.2972H20.0756C19.2671 24.2972 18.6095 24.9549 18.6095 25.7633V29.9607C18.6095 30.7692 19.2672 31.4268 20.0756 31.4268H27.8232V33.2574L17.281 33.2522V30.2904C17.281 30.0504 17.0864 29.8558 16.8464 29.8558H13.8692V12.7442H27.8232V16.6554C27.8232 16.8954 28.0178 17.09 28.2578 17.09C28.4978 17.09 28.6924 16.8954 28.6924 16.6554V12.3096C28.6924 12.0696 28.4978 11.875 28.2578 11.875H13.4346C13.1946 11.875 13 12.0696 13 12.3096V30.2904C13 30.4046 13.0469 30.5176 13.1277 30.5982L16.5334 33.9939C16.632 34.0947 16.7733 34.1429 16.9128 34.1213L28.2576 34.1268C28.4943 34.1268 28.6924 33.929 28.6924 33.6922V31.4268H31.5344C32.3428 31.4268 33.0005 30.7692 33.0005 29.9608V25.7633C33.0005 24.9549 32.3428 24.2972 31.5344 24.2972ZM16.4118 32.6452L16.1513 32.3855L14.486 30.725H16.4117L16.4118 32.6452ZM32.1313 29.9607C32.1313 30.2899 31.8635 30.5576 31.5344 30.5576L20.0757 30.5575C19.7467 30.5575 19.4789 30.2897 19.4789 29.9607V25.7634C19.4789 25.4343 19.7467 25.1666 20.0757 25.1666L31.5344 25.1663C31.8636 25.1663 32.1313 25.4341 32.1313 25.7632V29.9607Z" fill="url(#paint1_linear_2195_667)"/>
<path d="M28.6195 18.2878C28.4873 18.0915 28.2142 18.0354 28.0167 18.1674C27.8195 18.2992 27.7659 18.5731 27.8967 18.7702C28.0278 18.9678 28.3024 19.0207 28.4991 18.8902C28.6964 18.7592 28.7506 18.4846 28.6195 18.2878Z" fill="url(#paint2_linear_2195_667)"/>
<path d="M25.8412 25.9277H24.9922C24.7531 25.9277 24.5576 26.1277 24.5576 26.3655V29.3114C24.5576 29.5658 24.732 29.7947 24.9999 29.7947C25.0256 29.7946 25.6314 29.7923 25.8736 29.788C26.8081 29.7717 27.4863 28.9614 27.4863 27.8613C27.4864 26.7047 26.8253 25.9277 25.8412 25.9277ZM25.8585 28.9189C25.7591 28.9206 25.5922 28.9221 25.4314 28.9232C25.4304 28.5732 25.429 28.1012 25.429 27.8579C25.429 27.654 25.4282 27.1615 25.4276 26.7969H25.8413C26.0233 26.7969 26.6172 26.8737 26.6172 27.8612C26.6172 28.5827 26.2361 28.9123 25.8585 28.9189Z" fill="url(#paint3_linear_2195_667)"/>
<path d="M22.8528 27.4769C22.4949 27.3449 22.1609 27.2014 22.0478 27.152C21.9978 27.1076 21.997 27.0496 22.0017 27.0168C22.0077 26.9752 22.0387 26.8735 22.1982 26.8254C22.588 26.7079 22.9554 26.9952 22.968 27.0052C23.1517 27.1573 23.424 27.1328 23.5777 26.95C23.7322 26.7662 23.7084 26.4921 23.5247 26.3377C23.4954 26.313 22.797 25.7373 21.9475 25.9931C21.511 26.1246 21.2022 26.4695 21.1414 26.8932C21.1121 27.0973 21.1434 27.3083 21.2348 27.4934C21.3211 27.6684 21.4717 27.8469 21.6532 27.9279C21.6707 27.9357 22.0852 28.1202 22.552 28.2924C22.6435 28.3261 22.9395 28.4505 22.9068 28.6338C22.8672 28.8555 22.5813 28.933 22.392 28.924C22.1423 28.9121 21.8893 28.8109 21.7195 28.6236C21.5583 28.4457 21.2834 28.4323 21.1056 28.5935C20.9278 28.7547 20.9143 29.0295 21.0755 29.2073C21.4136 29.5805 21.9118 29.7945 22.4421 29.7945C23.103 29.7945 23.6582 29.3706 23.7625 28.7866C23.8413 28.3448 23.6438 27.7687 22.8528 27.4769Z" fill="url(#paint4_linear_2195_667)"/>
<path d="M29.3089 27.8018L30.4858 26.7201C30.6625 26.5577 30.6741 26.2828 30.5116 26.1061C30.3492 25.9293 30.0743 25.9177 29.8976 26.0802L29.0137 26.8926V26.3623C29.0137 26.1223 28.8192 25.9277 28.5791 25.9277C28.3391 25.9277 28.1445 26.1223 28.1445 26.3623V29.36C28.1445 29.6001 28.3391 29.7946 28.5791 29.7946C28.8192 29.7946 29.0137 29.6001 29.0137 29.36V28.7249L29.9963 29.6728C30.1668 29.8372 30.4465 29.8322 30.6109 29.6618C30.7775 29.4891 30.7726 29.2139 30.5999 29.0473L29.3089 27.8018Z" fill="url(#paint5_linear_2195_667)"/>
<path d="M22.0652 19.7424C21.9246 19.8183 21.8368 19.9652 21.8368 20.125V22.6078C21.8368 22.8478 22.0314 23.0424 22.2714 23.0424C22.5115 23.0424 22.706 22.8478 22.706 22.6078V20.3732C23.7048 19.7336 24.3152 18.6292 24.3152 17.4313C24.3152 15.9554 23.3811 14.6321 21.9908 14.1384C21.8578 14.0911 21.71 14.1114 21.5947 14.1929C21.4794 14.2743 21.4108 14.4067 21.4108 14.5479V16.8947H20.2325V14.5479C20.2325 14.4067 20.1639 14.2744 20.0486 14.1929C19.9333 14.1115 19.7856 14.0911 19.6525 14.1384C18.2622 14.6321 17.3281 15.9555 17.3281 17.4314C17.3281 18.6292 17.9384 19.7336 18.9373 20.3732V22.6078C18.9373 22.8479 19.1318 23.0424 19.3719 23.0424C19.6119 23.0424 19.8065 22.8479 19.8065 22.6078V20.1251C19.8065 19.9652 19.7187 19.8183 19.578 19.7425C18.7264 19.2835 18.1973 18.398 18.1973 17.4314C18.1973 16.5433 18.6474 15.7287 19.3633 15.2491V17.3294C19.3633 17.5694 19.5579 17.764 19.7979 17.764H21.8454C22.0854 17.764 22.28 17.5694 22.28 17.3294V15.249C22.9958 15.7287 23.446 16.5433 23.446 17.4314C23.4459 18.3979 22.9169 19.2835 22.0652 19.7424Z" fill="url(#paint6_linear_2195_667)"/>
<defs>
<linearGradient id="paint0_linear_2195_667" x1="-28.0312" y1="-10.0625" x2="73.3125" y2="69.3594" gradientUnits="userSpaceOnUse">
<stop stop-color="#27AE60"/>
<stop offset="1" stop-color="#0052CC"/>
</linearGradient>
<linearGradient id="paint1_linear_2195_667" x1="0.812205" y1="7.00741" x2="48.3507" y2="40.4934" gradientUnits="userSpaceOnUse">
<stop stop-color="#27AE60"/>
<stop offset="1" stop-color="#0052CC"/>
</linearGradient>
<linearGradient id="paint2_linear_2195_667" x1="27.2976" y1="17.9063" x2="29.2053" y2="19.4012" gradientUnits="userSpaceOnUse">
<stop stop-color="#27AE60"/>
<stop offset="1" stop-color="#0052CC"/>
</linearGradient>
<linearGradient id="paint3_linear_2195_667" x1="22.7729" y1="25.0818" x2="30.4748" y2="29.6532" gradientUnits="userSpaceOnUse">
<stop stop-color="#27AE60"/>
<stop offset="1" stop-color="#0052CC"/>
</linearGradient>
<linearGradient id="paint4_linear_2195_667" x1="19.2471" y1="25.0819" x2="26.8004" y2="29.3923" gradientUnits="userSpaceOnUse">
<stop stop-color="#27AE60"/>
<stop offset="1" stop-color="#0052CC"/>
</linearGradient>
<linearGradient id="paint5_linear_2195_667" x1="26.5674" y1="25.0818" x2="33.7855" y2="28.868" gradientUnits="userSpaceOnUse">
<stop stop-color="#27AE60"/>
<stop offset="1" stop-color="#0052CC"/>
</linearGradient>
<linearGradient id="paint6_linear_2195_667" x1="13.0704" y1="12.16" x2="31.1274" y2="23.2331" gradientUnits="userSpaceOnUse">
<stop stop-color="#27AE60"/>
<stop offset="1" stop-color="#0052CC"/>
</linearGradient>
</defs>
</svg>
