<svg width="46" height="46" viewBox="0 0 46 46" fill="none" xmlns="http://www.w3.org/2000/svg">
<path d="M0 12C0 5.37258 5.37258 0 12 0H34C40.6274 0 46 5.37258 46 12V34C46 40.6274 40.6274 46 34 46H12C5.37258 46 0 40.6274 0 34V12Z" fill="url(#paint0_linear_2178_1189)" fill-opacity="0.1"/>
<g clip-path="url(#clip0_2178_1189)">
<path d="M22.9984 16.6333C20.2094 16.6333 17.9406 18.902 17.9406 21.6911C17.9406 24.4802 20.2094 26.7489 22.9984 26.7489C25.7875 26.7489 28.0563 24.4802 28.0563 21.6911C28.0563 18.902 25.787 16.6333 22.9984 16.6333ZM22.9984 26.1864C20.5197 26.1864 18.5031 24.1698 18.5031 21.6911C18.5031 19.2123 20.5197 17.1958 22.9984 17.1958C25.4772 17.1958 27.4938 19.2123 27.4938 21.6911C27.4938 24.1698 25.4772 26.1864 22.9984 26.1864ZM22.9342 17.9369C22.8339 17.9369 22.7411 17.9903 22.6905 18.0775L19.6502 23.3439C19.6 23.4311 19.6 23.538 19.6502 23.6252C19.7003 23.7123 19.7931 23.7658 19.8939 23.7658H25.9755C26.0758 23.7658 26.1686 23.7123 26.2192 23.6252C26.2698 23.538 26.2694 23.4311 26.2192 23.3439L23.1784 18.0775C23.1278 17.9903 23.0345 17.9369 22.9342 17.9369ZM20.3809 23.2033L22.9347 18.7806L25.4884 23.2033H20.3809ZM22.9342 19.9248C23.0894 19.9248 23.2155 20.0509 23.2155 20.2061V21.6911C23.2155 21.8462 23.0894 21.9723 22.9342 21.9723C22.7791 21.9723 22.653 21.8462 22.653 21.6911V20.2061C22.653 20.0509 22.7791 19.9248 22.9342 19.9248ZM23.2155 22.5325V22.5344C23.2155 22.6895 23.0894 22.8156 22.9342 22.8156C22.7791 22.8156 22.653 22.6895 22.653 22.5344C22.653 22.3792 22.7791 22.2522 22.9342 22.2522C23.0894 22.2522 23.2155 22.3769 23.2155 22.5325ZM33.9039 14.9922C33.2819 14.9922 32.7761 15.498 32.7761 16.12C32.7761 16.502 32.9673 16.84 33.2584 17.0439L31.353 22.1486C31.3141 22.1444 31.2747 22.1425 31.2344 22.1425C30.8181 22.1425 30.4544 22.3694 30.2589 22.7055L29.2652 22.4275C29.2933 22.1861 29.3083 21.9405 29.3083 21.6911C29.3083 18.2116 26.4775 15.3808 22.998 15.3808C19.5184 15.3808 16.6877 18.2116 16.6877 21.6911C16.6877 23.8305 17.7583 25.7247 19.3914 26.8661L18.8247 27.9067C18.7366 27.8847 18.6442 27.8725 18.5495 27.8725C18.2706 27.8725 18.0156 27.9742 17.8187 28.1425L16.5925 27.2805C16.6394 27.1567 16.6652 27.0227 16.6652 26.8825C16.6652 26.2609 16.1594 25.7547 15.5373 25.7547C14.9153 25.7547 14.4095 26.2605 14.4095 26.8825C14.4095 27.1497 14.5033 27.3953 14.6589 27.5889L13.5245 29.1081C13.3923 29.0538 13.248 29.0237 13.0966 29.0237C12.4745 29.0237 11.9688 29.5295 11.9688 30.1516C11.9688 30.7736 12.4745 31.2794 13.0966 31.2794C13.7186 31.2794 14.2244 30.7736 14.2244 30.1516C14.2244 29.8844 14.1306 29.6387 13.975 29.4456L15.1094 27.9264C15.2416 27.9808 15.3859 28.0108 15.5373 28.0108C15.8163 28.0108 16.0712 27.9091 16.2681 27.7408L17.4944 28.6028C17.4475 28.7266 17.4217 28.8606 17.4217 29.0008C17.4217 29.6228 17.9275 30.1286 18.5495 30.1286C19.1716 30.1286 19.6773 29.6228 19.6773 29.0008C19.6773 28.6759 19.5391 28.383 19.3187 28.1767L19.8677 27.1689C20.7911 27.6986 21.8598 28.0019 22.9989 28.0019C24.1952 28.0019 25.3145 27.6672 26.2689 27.0869L29.9477 31.4092C30.257 31.7725 30.7019 31.9834 31.2011 32.0036C31.2273 32.0045 31.2536 32.005 31.2798 32.005C31.803 32.005 32.3097 31.7964 32.6805 31.4256C33.07 31.0361 33.2805 30.497 33.2584 29.9462C33.2383 29.447 33.0273 29.0022 32.6641 28.6928L28.3548 25.0248C28.7402 24.408 29.0223 23.7203 29.1761 22.9858L30.1089 23.2469C30.1089 23.2544 30.1084 23.2623 30.1084 23.2698C30.1084 23.8919 30.6142 24.3977 31.2362 24.3977C31.8583 24.3977 32.3641 23.8919 32.3641 23.2698C32.3641 22.8878 32.1728 22.5498 31.8817 22.3459L33.7872 17.2413C33.8261 17.2455 33.8655 17.2473 33.9058 17.2473C34.5278 17.2473 35.0336 16.7416 35.0336 16.1195C35.0336 15.4975 34.5259 14.9922 33.9039 14.9922ZM13.097 30.7159C12.7853 30.7159 12.5317 30.4623 12.5317 30.1506C12.5317 29.8389 12.7853 29.5853 13.097 29.5853C13.4088 29.5853 13.6623 29.8389 13.6623 30.1506C13.6623 30.4623 13.4088 30.7159 13.097 30.7159ZM15.5373 27.4478C15.2256 27.4478 14.972 27.1942 14.972 26.8825C14.972 26.5708 15.2256 26.3172 15.5373 26.3172C15.8491 26.3172 16.1027 26.5708 16.1027 26.8825C16.1027 27.1942 15.8491 27.4478 15.5373 27.4478ZM18.5495 29.5656C18.2378 29.5656 17.9842 29.312 17.9842 29.0003C17.9842 28.6886 18.2378 28.435 18.5495 28.435C18.8612 28.435 19.1148 28.6886 19.1148 29.0003C19.1148 29.312 18.8612 29.5656 18.5495 29.5656ZM32.6955 29.9692C32.7109 30.3578 32.5562 30.7534 32.282 31.0281C32.0073 31.3028 31.6112 31.457 31.2231 31.4416C30.8828 31.428 30.5819 31.2869 30.3756 31.0445L27.6911 27.8908L29.1447 26.4372L32.2984 29.1217C32.5408 29.3275 32.6819 29.6284 32.6955 29.9692ZM28.7148 26.0711L27.325 27.4609L26.7377 26.7709C27.2284 26.4086 27.6648 25.9773 28.0328 25.4908L28.7148 26.0711ZM22.9984 27.4394C19.8287 27.4394 17.2506 24.8608 17.2506 21.6916C17.2506 18.5223 19.8287 15.9433 22.9984 15.9433C26.1681 15.9433 28.7463 18.5219 28.7463 21.6911C28.7463 24.8603 26.1677 27.4394 22.9984 27.4394ZM31.2348 23.8352C30.9231 23.8352 30.6695 23.5816 30.6695 23.2698C30.6695 22.9581 30.9231 22.7045 31.2348 22.7045C31.5466 22.7045 31.8002 22.9581 31.8002 23.2698C31.8002 23.5816 31.5466 23.8352 31.2348 23.8352ZM33.9039 16.6848C33.5922 16.6848 33.3386 16.4312 33.3386 16.1195C33.3386 15.8078 33.5922 15.5542 33.9039 15.5542C34.2156 15.5542 34.4692 15.8083 34.4692 16.1195C34.4692 16.4308 34.2156 16.6848 33.9039 16.6848Z" fill="url(#paint1_linear_2178_1189)"/>
</g>
<defs>
<linearGradient id="paint0_linear_2178_1189" x1="-28.0312" y1="-10.0625" x2="73.3125" y2="69.3594" gradientUnits="userSpaceOnUse">
<stop stop-color="#27AE60"/>
<stop offset="1" stop-color="#0052CC"/>
</linearGradient>
<linearGradient id="paint1_linear_2178_1189" x1="-2.08639" y1="11.2706" x2="36.4431" y2="52.2072" gradientUnits="userSpaceOnUse">
<stop stop-color="#27AE60"/>
<stop offset="1" stop-color="#0052CC"/>
</linearGradient>
<clipPath id="clip0_2178_1189">
<rect width="24" height="24" fill="white" transform="translate(11.5 11.5)"/>
</clipPath>
</defs>
</svg>
