<svg width="42" height="40" viewBox="0 0 42 40" fill="none" xmlns="http://www.w3.org/2000/svg">
<path d="M0 10C0 4.47715 4.47715 0 10 0H32C37.5228 0 42 4.47715 42 10V30C42 35.5228 37.5228 40 32 40H10C4.47715 40 0 35.5228 0 30V10Z" fill="#DCFCE7"/>
<g clip-path="url(#clip0_2018_1819)">
<path d="M17.6673 28.3327C18.1276 28.3327 18.5007 27.9596 18.5007 27.4993C18.5007 27.0391 18.1276 26.666 17.6673 26.666C17.2071 26.666 16.834 27.0391 16.834 27.4993C16.834 27.9596 17.2071 28.3327 17.6673 28.3327Z" stroke="#00A63E" stroke-width="1.66667" stroke-linecap="round" stroke-linejoin="round"/>
<path d="M26.8333 28.3327C27.2936 28.3327 27.6667 27.9596 27.6667 27.4993C27.6667 27.0391 27.2936 26.666 26.8333 26.666C26.3731 26.666 26 27.0391 26 27.4993C26 27.9596 26.3731 28.3327 26.8333 28.3327Z" stroke="#00A63E" stroke-width="1.66667" stroke-linecap="round" stroke-linejoin="round"/>
<path d="M12.709 11.709H14.3757L16.5923 22.059C16.6736 22.438 16.8845 22.7769 17.1887 23.0172C17.4929 23.2575 17.8714 23.3843 18.259 23.3756H26.409C26.7883 23.375 27.1561 23.2451 27.4515 23.0072C27.747 22.7693 27.9524 22.4378 28.034 22.0673L29.409 15.8757H15.2673" stroke="#00A63E" stroke-width="1.66667" stroke-linecap="round" stroke-linejoin="round"/>
</g>
<defs>
<clipPath id="clip0_2018_1819">
<rect width="20" height="20" fill="white" transform="translate(11 10)"/>
</clipPath>
</defs>
</svg>
