<svg width="46" height="46" viewBox="0 0 46 46" fill="none" xmlns="http://www.w3.org/2000/svg">
<path d="M0 12C0 5.37258 5.37258 0 12 0H34C40.6274 0 46 5.37258 46 12V34C46 40.6274 40.6274 46 34 46H12C5.37258 46 0 40.6274 0 34V12Z" fill="url(#paint0_linear_2260_1171)" fill-opacity="0.1"/>
<g clip-path="url(#clip0_2260_1171)">
<path d="M31.4853 15.0147C29.2188 12.7482 26.2053 11.5 23 11.5C19.7947 11.5 16.7812 12.7482 14.5147 15.0147C12.2482 17.2812 11 20.2947 11 23.5C11 26.7053 12.2482 29.7188 14.5147 31.9853C16.7812 34.2518 19.7947 35.5 23 35.5C26.2053 35.5 29.2188 34.2518 31.4853 31.9853C33.7518 29.7188 35 26.7053 35 23.5C35 20.2947 33.7518 17.2812 31.4853 15.0147ZM32.224 28.513H28.054C28.3253 27.1848 28.4866 25.7432 28.5271 24.25H33.473C33.3641 25.7848 32.9243 27.2297 32.224 28.513ZM23 34C21.8757 34 20.676 32.505 19.8792 30.013H26.1208C25.324 32.505 24.1243 34 23 34ZM19.4774 28.513C19.1993 27.2544 19.0176 25.819 18.9733 24.25H27.0267C26.9825 25.819 26.8007 27.2544 26.5226 28.513H19.4774ZM12.5266 24.25H17.4729C17.5135 25.7432 17.6747 27.1848 17.946 28.513H13.7691C13.0576 27.2072 12.6324 25.7601 12.5266 24.25ZM13.776 18.487H17.946C17.6747 19.8152 17.5135 21.2568 17.4729 22.75H12.5271C12.6359 21.2152 13.0757 19.7703 13.776 18.487ZM23 13C24.1243 13 25.324 14.495 26.1208 16.987H19.8792C20.676 14.495 21.8757 13 23 13ZM26.5226 18.487C26.8007 19.7456 26.9824 21.181 27.0267 22.75H18.9733C19.0176 21.181 19.1993 19.7456 19.4774 18.487H26.5226ZM28.5271 22.75C28.4865 21.2568 28.3253 19.8152 28.054 18.487H32.224C32.9242 19.7703 33.364 21.2152 33.4729 22.75H28.5271ZM31.2299 16.987H27.6866C27.5088 16.3715 27.3048 15.7902 27.0755 15.2514C26.7853 14.5696 26.462 13.9743 26.1114 13.4706C28.1538 14.1055 29.9307 15.3487 31.2299 16.987ZM19.8885 13.4706C19.538 13.9743 19.2147 14.5696 18.9245 15.2514C18.6952 15.7902 18.4912 16.3715 18.3134 16.987H14.7701C16.0693 15.3487 17.8461 14.1056 19.8885 13.4706ZM14.7631 30.013H18.3134C18.4912 30.6285 18.6952 31.2098 18.9245 31.7486C19.2156 32.4326 19.5402 33.0296 19.8921 33.5343C18.2798 33.0371 16.8024 32.1516 15.5754 30.9246C15.2851 30.6344 15.0145 30.3297 14.7631 30.013ZM26.1114 33.5294C26.462 33.0257 26.7853 32.4304 27.0755 31.7486C27.3048 31.2098 27.5088 30.6285 27.6866 30.013H31.2299C29.9307 31.6513 28.1538 32.8945 26.1114 33.5294Z" fill="url(#paint1_linear_2260_1171)"/>
</g>
<defs>
<linearGradient id="paint0_linear_2260_1171" x1="-28.0312" y1="-10.0625" x2="73.3125" y2="69.3594" gradientUnits="userSpaceOnUse">
<stop stop-color="#27AE60"/>
<stop offset="1" stop-color="#0052CC"/>
</linearGradient>
<linearGradient id="paint1_linear_2260_1171" x1="-3.625" y1="6.25" x2="49.25" y2="47.6875" gradientUnits="userSpaceOnUse">
<stop stop-color="#27AE60"/>
<stop offset="1" stop-color="#0052CC"/>
</linearGradient>
<clipPath id="clip0_2260_1171">
<rect width="24" height="24" fill="white" transform="translate(11 11.5)"/>
</clipPath>
</defs>
</svg>
