<svg width="46" height="46" viewBox="0 0 46 46" fill="none" xmlns="http://www.w3.org/2000/svg">
<path d="M0 12C0 5.37258 5.37258 0 12 0H34C40.6274 0 46 5.37258 46 12V34C46 40.6274 40.6274 46 34 46H12C5.37258 46 0 40.6274 0 34V12Z" fill="url(#paint0_linear_2318_2317)" fill-opacity="0.1"/>
<path d="M15.333 17.558V21.8499C15.3324 26.4007 18.1862 30.5567 22.4351 32.191C22.778 32.323 23.1388 32.3884 23.4996 32.3884C23.8604 32.3884 24.2212 32.3223 24.5647 32.191L25.2018 31.9455C29.129 30.435 31.6668 26.6359 31.6662 22.2677V17.558C31.6662 17.2055 31.3874 16.9158 31.0356 16.9024C28.6765 16.8107 26.2714 15.8808 23.8867 14.1396C23.656 13.9717 23.3432 13.9717 23.1125 14.1396C20.7272 15.8808 18.322 16.8107 15.9636 16.9024C15.6118 16.9158 15.333 17.2055 15.333 17.558ZM16.6455 18.172C18.9321 17.956 21.2328 17.0511 23.4996 15.4752C25.7657 17.0511 28.0671 17.956 30.3537 18.172V22.2677C30.3543 26.0886 28.1472 29.4064 24.7301 30.7202L24.0937 30.9656C23.7104 31.113 23.2881 31.113 22.9062 30.9656C19.1609 29.5249 16.6449 25.8617 16.6455 21.8499V18.172Z" fill="url(#paint1_linear_2318_2317)"/>
<path d="M22.1557 25.9129C22.2788 26.0359 22.4454 26.1051 22.6197 26.1051C22.794 26.1051 22.9607 26.0359 23.0837 25.9129L27.1654 21.8312C27.4218 21.5748 27.4218 21.1595 27.1654 20.9032C26.9091 20.6469 26.4938 20.6469 26.2374 20.9032L22.6197 24.5209L20.7618 22.6624C20.5055 22.406 20.0902 22.406 19.8339 22.6624C19.5775 22.9187 19.5775 23.334 19.8339 23.5904L22.1557 25.9129Z" fill="url(#paint2_linear_2318_2317)"/>
<defs>
<linearGradient id="paint0_linear_2318_2317" x1="-28.0312" y1="-10.0625" x2="73.3125" y2="69.3594" gradientUnits="userSpaceOnUse">
<stop stop-color="#27AE60"/>
<stop offset="1" stop-color="#0052CC"/>
</linearGradient>
<linearGradient id="paint1_linear_2318_2317" x1="5.37997" y1="9.99421" x2="44.4867" y2="37.2366" gradientUnits="userSpaceOnUse">
<stop stop-color="#27AE60"/>
<stop offset="1" stop-color="#0052CC"/>
</linearGradient>
<linearGradient id="paint2_linear_2318_2317" x1="14.9396" y1="19.531" x2="27.0991" y2="33.1619" gradientUnits="userSpaceOnUse">
<stop stop-color="#27AE60"/>
<stop offset="1" stop-color="#0052CC"/>
</linearGradient>
</defs>
</svg>
