<svg width="46" height="46" viewBox="0 0 46 46" fill="none" xmlns="http://www.w3.org/2000/svg">
<path d="M0 12C0 5.37258 5.37258 0 12 0H34C40.6274 0 46 5.37258 46 12V34C46 40.6274 40.6274 46 34 46H12C5.37258 46 0 40.6274 0 34V12Z" fill="url(#paint0_linear_2243_1411)" fill-opacity="0.1"/>
<g clip-path="url(#clip0_2243_1411)">
<path d="M12.4062 23C12.4062 17.1586 17.1586 12.4062 23 12.4062C25.1969 12.4062 27.292 13.0724 29.0561 14.3088H27.6932C27.3049 14.3088 26.9901 14.6236 26.9901 15.0119C26.9901 15.4002 27.3049 15.715 27.6932 15.715H30.9882C31.3765 15.715 31.6913 15.4002 31.6913 15.0119V11.717C31.6913 11.3286 31.3765 11.0138 30.9882 11.0138C30.5998 11.0138 30.285 11.3286 30.285 11.717V13.4672C28.2025 11.8671 25.6677 11 23 11C19.7947 11 16.7812 12.2482 14.5147 14.5147C12.2482 16.7812 11 19.7947 11 23C11 25.1057 11.5565 27.1804 12.6092 28.9999C12.7395 29.2252 12.9757 29.351 13.2185 29.351C13.338 29.351 13.4591 29.3205 13.57 29.2564C13.9061 29.0619 14.0209 28.6318 13.8264 28.2956C12.8974 26.6899 12.4062 24.8587 12.4062 23Z" fill="url(#paint1_linear_2243_1411)"/>
<path d="M33.3906 16.9995C33.1961 16.6634 32.7659 16.5486 32.4299 16.7431C32.0938 16.9376 31.979 17.3677 32.1734 17.7039C33.1025 19.3095 33.5936 21.1406 33.5936 22.9994C33.5936 28.8408 28.8412 33.5932 22.9998 33.5932C20.8031 33.5932 18.7084 32.9268 16.9445 31.6907H18.3066C18.6949 31.6907 19.0097 31.3758 19.0097 30.9875C19.0097 30.5992 18.6949 30.2844 18.3066 30.2844H15.0117C14.6234 30.2844 14.3086 30.5992 14.3086 30.9875V34.2825C14.3086 34.6708 14.6234 34.9856 15.0117 34.9856C15.4 34.9856 15.7148 34.6708 15.7148 34.2825V32.5305C17.7973 34.1311 20.3318 34.9994 22.9998 34.9994C26.2051 34.9994 29.2186 33.7512 31.4851 31.4847C33.7516 29.2182 34.9998 26.2047 34.9998 22.9994C34.9998 20.8937 34.4434 18.8189 33.3906 16.9995Z" fill="url(#paint2_linear_2243_1411)"/>
<path d="M29.2541 21.5873C29.3023 21.4072 29.277 21.2153 29.1838 21.0538L27.7775 18.6181C27.6843 18.4566 27.5307 18.3387 27.3506 18.2905C27.1705 18.2422 26.9786 18.2675 26.8171 18.3607L26.0166 18.8229C25.732 18.6163 25.4289 18.4408 25.1097 18.2975V17.375C25.1097 16.9867 24.7949 16.6719 24.4066 16.6719H21.5941C21.2058 16.6719 20.891 16.9867 20.891 17.375V18.2974C20.5717 18.4407 20.2687 18.6163 19.984 18.8228L19.1836 18.3607C19.0221 18.2674 18.83 18.2421 18.65 18.2904C18.4699 18.3387 18.3163 18.4565 18.2231 18.618L16.8169 21.0538C16.7236 21.2152 16.6984 21.4072 16.7466 21.5873C16.7949 21.7674 16.9127 21.921 17.0742 22.0142L17.8708 22.4741C17.853 22.6487 17.8441 22.8244 17.8441 23C17.8441 23.1756 17.853 23.3513 17.8708 23.5258L17.0742 23.9857C16.9127 24.0789 16.7949 24.2325 16.7466 24.4126C16.6984 24.5928 16.7236 24.7847 16.8169 24.9462L18.2231 27.3819C18.3163 27.5434 18.47 27.6612 18.65 27.7095C18.8302 27.7578 19.0221 27.7325 19.1836 27.6392L19.984 27.1771C20.2687 27.3837 20.5717 27.5592 20.891 27.7025V28.625C20.891 29.0133 21.2058 29.3281 21.5941 29.3281H24.4066C24.7949 29.3281 25.1097 29.0133 25.1097 28.625V27.7026C25.4289 27.5593 25.7319 27.3837 26.0166 27.1772L26.8171 27.6393C26.9785 27.7325 27.1706 27.7578 27.3506 27.7096C27.5308 27.6613 27.6843 27.5435 27.7775 27.382L29.1838 24.9462C29.277 24.7848 29.3023 24.5928 29.2541 24.4127C29.2058 24.2326 29.0879 24.079 28.9265 23.9858L28.1299 23.5259C28.1477 23.3513 28.1566 23.1756 28.1566 23C28.1566 22.8244 28.1477 22.6487 28.1299 22.4742L28.9265 22.0143C29.0879 21.921 29.2058 21.7675 29.2541 21.5873ZM26.6744 22.2455C26.7248 22.4922 26.7503 22.7461 26.7503 23C26.7503 23.2539 26.7248 23.5078 26.6744 23.7545C26.6139 24.0509 26.7498 24.3529 27.0118 24.5041L27.6144 24.852L26.9113 26.0698L26.3036 25.719C26.0415 25.5677 25.7118 25.6011 25.4853 25.8021C25.1018 26.1425 24.6642 26.396 24.1844 26.5557C23.8972 26.6514 23.7034 26.9201 23.7034 27.2229V27.9219H22.2972V27.2229C22.2972 26.9202 22.1034 26.6514 21.8161 26.5557C21.3364 26.396 20.8987 26.1425 20.5153 25.8021C20.2888 25.601 19.9591 25.5677 19.697 25.719L19.0893 26.0698L18.3862 24.852L18.9888 24.5041C19.2508 24.3529 19.3867 24.0509 19.3261 23.7545C19.2759 23.5078 19.2503 23.2539 19.2503 23C19.2503 22.7461 19.2759 22.4922 19.3262 22.2455C19.3868 21.9491 19.2509 21.6471 18.9889 21.4959L18.3863 21.148L19.0894 19.9302L19.697 20.281C19.9592 20.4324 20.2889 20.399 20.5154 20.1979C20.8988 19.8575 21.3365 19.604 21.8163 19.4442C22.1035 19.3486 22.2973 19.0798 22.2973 18.7771V18.0781H23.7035V18.7771C23.7035 19.0798 23.8973 19.3486 24.1845 19.4442C24.6643 19.604 25.1019 19.8575 25.4854 20.1979C25.7118 20.399 26.0415 20.4323 26.3037 20.281L26.9113 19.9302L27.6145 21.148L27.0118 21.4959C26.7498 21.6471 26.6139 21.9491 26.6744 22.2455Z" fill="url(#paint3_linear_2243_1411)"/>
<path d="M23 20.4219C21.5784 20.4219 20.4219 21.5784 20.4219 23C20.4219 24.4216 21.5784 25.5781 23 25.5781C24.4216 25.5781 25.5781 24.4216 25.5781 23C25.5781 21.5784 24.4216 20.4219 23 20.4219ZM23 24.1719C22.3538 24.1719 21.8281 23.6462 21.8281 23C21.8281 22.3538 22.3538 21.8281 23 21.8281C23.6462 21.8281 24.1719 22.3538 24.1719 23C24.1719 23.6462 23.6462 24.1719 23 24.1719Z" fill="url(#paint4_linear_2243_1411)"/>
</g>
<defs>
<linearGradient id="paint0_linear_2243_1411" x1="-28.0312" y1="-10.0625" x2="73.3125" y2="69.3594" gradientUnits="userSpaceOnUse">
<stop stop-color="#27AE60"/>
<stop offset="1" stop-color="#0052CC"/>
</linearGradient>
<linearGradient id="paint1_linear_2243_1411" x1="-1.60875" y1="6.98572" x2="39.7111" y2="43.4972" gradientUnits="userSpaceOnUse">
<stop stop-color="#27AE60"/>
<stop offset="1" stop-color="#0052CC"/>
</linearGradient>
<linearGradient id="paint2_linear_2243_1411" x1="1.69987" y1="12.6342" x2="43.0197" y2="49.1456" gradientUnits="userSpaceOnUse">
<stop stop-color="#27AE60"/>
<stop offset="1" stop-color="#0052CC"/>
</linearGradient>
<linearGradient id="paint3_linear_2243_1411" x1="9.07174" y1="13.9033" x2="36.9009" y2="35.5388" gradientUnits="userSpaceOnUse">
<stop stop-color="#27AE60"/>
<stop offset="1" stop-color="#0052CC"/>
</linearGradient>
<linearGradient id="paint4_linear_2243_1411" x1="17.2798" y1="19.2939" x2="28.6396" y2="28.1965" gradientUnits="userSpaceOnUse">
<stop stop-color="#27AE60"/>
<stop offset="1" stop-color="#0052CC"/>
</linearGradient>
<clipPath id="clip0_2243_1411">
<rect width="24" height="24" fill="white" transform="translate(11 11)"/>
</clipPath>
</defs>
</svg>
