<svg width="46" height="46" viewBox="0 0 46 46" fill="none" xmlns="http://www.w3.org/2000/svg">
<path d="M0 12C0 5.37258 5.37258 0 12 0H34C40.6274 0 46 5.37258 46 12V34C46 40.6274 40.6274 46 34 46H12C5.37258 46 0 40.6274 0 34V12Z" fill="url(#paint0_linear_2318_1983)" fill-opacity="0.1"/>
<path d="M18.125 23.2739C17.8143 23.2739 17.5625 23.022 17.5625 22.7114V16.25C17.5625 15.3195 18.3195 14.5625 19.25 14.5625H26.75C27.0607 14.5625 27.3125 14.8145 27.3125 15.125C27.3125 15.4355 27.0607 15.6875 26.75 15.6875H19.25C18.9398 15.6875 18.6875 15.9398 18.6875 16.25V22.7114C18.6875 23.022 18.4357 23.2739 18.125 23.2739Z" fill="url(#paint1_linear_2318_1983)"/>
<path d="M23 17.9375H20.375C20.0643 17.9375 19.8125 17.6855 19.8125 17.375C19.8125 17.0645 20.0643 16.8125 20.375 16.8125H23C23.3107 16.8125 23.5625 17.0645 23.5625 17.375C23.5625 17.6855 23.3107 17.9375 23 17.9375Z" fill="url(#paint2_linear_2318_1983)"/>
<path d="M21.875 20.1875H20.375C20.0643 20.1875 19.8125 19.9355 19.8125 19.625C19.8125 19.3145 20.0643 19.0625 20.375 19.0625H21.875C22.1857 19.0625 22.4375 19.3145 22.4375 19.625C22.4375 19.9355 22.1857 20.1875 21.875 20.1875Z" fill="url(#paint3_linear_2318_1983)"/>
<path d="M19.248 30.9863C16.7668 30.9863 14.748 28.9678 14.748 26.4863C14.748 24.0049 16.7668 21.9863 19.248 21.9863C21.7293 21.9863 23.748 24.0049 23.748 26.4863C23.748 28.9678 21.7293 30.9863 19.248 30.9863ZM19.248 23.1113C17.3871 23.1113 15.873 24.6252 15.873 26.4863C15.873 28.3474 17.3871 29.8613 19.248 29.8613C21.1089 29.8613 22.623 28.3474 22.623 26.4863C22.623 24.6252 21.1089 23.1113 19.248 23.1113Z" fill="url(#paint4_linear_2318_1983)"/>
<path d="M13.9993 33.6858C13.5674 33.6858 13.1356 33.5214 12.8068 33.1925C12.149 32.5348 12.149 31.4647 12.8068 30.807L15.4843 28.1296C15.704 27.9099 16.06 27.9099 16.2797 28.1296C16.4994 28.3494 16.4995 28.7053 16.2797 28.925L13.6022 31.6024C13.3832 31.8214 13.3832 32.1781 13.6022 32.3971C13.8212 32.6161 14.1779 32.6161 14.3969 32.3971L17.153 29.6406C17.3723 29.4209 17.7286 29.4209 17.9484 29.6406C18.1681 29.8604 18.1681 30.2163 17.9484 30.436L15.1923 33.1925C14.8634 33.5214 14.4313 33.6858 13.9993 33.6858Z" fill="url(#paint5_linear_2318_1983)"/>
<path d="M30.125 33.6875H19.25C18.3195 33.6875 17.5625 32.9305 17.5625 32V30.2638C17.5625 29.9533 17.8143 29.7013 18.125 29.7013C18.4357 29.7013 18.6875 29.9533 18.6875 30.2638V32C18.6875 32.3102 18.9398 32.5625 19.25 32.5625H30.125C30.4352 32.5625 30.6875 32.3102 30.6875 32V23C30.6875 22.6895 30.9393 22.4375 31.25 22.4375C31.5607 22.4375 31.8125 22.6895 31.8125 23V32C31.8125 32.9305 31.0555 33.6875 30.125 33.6875Z" fill="url(#paint6_linear_2318_1983)"/>
<path d="M27.125 29.1219C26.4916 29.1219 25.915 28.7499 25.6902 28.1962C25.5732 27.9083 25.7118 27.5802 25.9996 27.4634C26.2871 27.3462 26.6156 27.485 26.7324 27.7728C26.7861 27.9047 26.9474 27.997 27.125 27.997C27.4299 27.997 27.6875 27.7911 27.6875 27.5472V27.4978C27.6875 27.1777 27.036 27.0411 27.0294 27.04C26.4402 26.9415 25.4375 26.5006 25.4375 25.4738V25.4243C25.4375 24.556 26.1945 23.8496 27.125 23.8496C27.7582 23.8496 28.3348 24.2213 28.5598 24.7747C28.6768 25.0625 28.5384 25.3906 28.2505 25.5078C27.9622 25.625 27.6346 25.4862 27.5176 25.1987C27.4639 25.0665 27.3026 24.9746 27.125 24.9746C26.8201 24.9746 26.5625 25.1804 26.5625 25.4243V25.4738C26.5625 25.7935 27.214 25.9301 27.2206 25.9312C27.8098 26.0297 28.8125 26.4706 28.8125 27.4978V27.5472C28.8125 28.4155 28.0555 29.1219 27.125 29.1219Z" fill="url(#paint7_linear_2318_1983)"/>
<path d="M27.125 24.9753C26.8143 24.9753 26.5625 24.7234 26.5625 24.4128V23.4863C26.5625 23.1758 26.8143 22.9238 27.125 22.9238C27.4357 22.9238 27.6875 23.1758 27.6875 23.4863V24.4128C27.6875 24.7234 27.4357 24.9753 27.125 24.9753Z" fill="url(#paint8_linear_2318_1983)"/>
<path d="M27.125 30.0492C26.8143 30.0492 26.5625 29.7972 26.5625 29.4867V28.5605C26.5625 28.25 26.8143 27.998 27.125 27.998C27.4357 27.998 27.6875 28.25 27.6875 28.5605V29.4867C27.6875 29.7972 27.4357 30.0492 27.125 30.0492Z" fill="url(#paint9_linear_2318_1983)"/>
<path d="M31.987 21.3942H25.4245C24.8102 21.3942 24.2602 21.0767 23.9531 20.5446C23.6458 20.0124 23.6458 19.3774 23.9531 18.8453L27.2343 13.1621C27.5414 12.63 28.0915 12.3125 28.7058 12.3125C29.3201 12.3125 29.8701 12.63 30.1772 13.1621L33.4585 18.8453C33.7657 19.3774 33.7657 20.0124 33.4585 20.5446C33.1514 21.0767 32.6014 21.3942 31.987 21.3942ZM28.7058 13.4375C28.6062 13.4375 28.3581 13.4657 28.2085 13.7246L24.9272 19.4078C24.7776 19.6671 24.8774 19.8956 24.9274 19.982C24.9772 20.0685 25.1253 20.2692 25.4245 20.2692H31.987C32.2862 20.2692 32.4344 20.0685 32.4842 19.982C32.5341 19.8956 32.6339 19.6671 32.4843 19.4078L29.2031 13.7246C29.0535 13.4657 28.8054 13.4375 28.7058 13.4375Z" fill="url(#paint10_linear_2318_1983)"/>
<path d="M28.7061 17.6133C28.3953 17.6133 28.1436 17.3613 28.1436 17.0508V14.8008C28.1436 14.4902 28.3953 14.2383 28.7061 14.2383C29.0168 14.2383 29.2686 14.4902 29.2686 14.8008V17.0508C29.2686 17.3613 29.0168 17.6133 28.7061 17.6133Z" fill="url(#paint11_linear_2318_1983)"/>
<path d="M28.7061 19.8633C28.3953 19.8633 28.1436 19.6113 28.1436 19.3008V18.9258C28.1436 18.6152 28.3953 18.3633 28.7061 18.3633C29.0168 18.3633 29.2686 18.6152 29.2686 18.9258V19.3008C29.2686 19.6113 29.0168 19.8633 28.7061 19.8633Z" fill="url(#paint12_linear_2318_1983)"/>
<defs>
<linearGradient id="paint0_linear_2318_1983" x1="-28.0312" y1="-10.0625" x2="73.3125" y2="69.3594" gradientUnits="userSpaceOnUse">
<stop stop-color="#27AE60"/>
<stop offset="1" stop-color="#0052CC"/>
</linearGradient>
<linearGradient id="paint1_linear_2318_1983" x1="11.6211" y1="12.6569" x2="31.2177" y2="29.8455" gradientUnits="userSpaceOnUse">
<stop stop-color="#27AE60"/>
<stop offset="1" stop-color="#0052CC"/>
</linearGradient>
<linearGradient id="paint2_linear_2318_1983" x1="17.5273" y1="16.5664" x2="19.2318" y2="21.0189" gradientUnits="userSpaceOnUse">
<stop stop-color="#27AE60"/>
<stop offset="1" stop-color="#0052CC"/>
</linearGradient>
<linearGradient id="paint3_linear_2318_1983" x1="18.2129" y1="18.8164" x2="20.3619" y2="22.7462" gradientUnits="userSpaceOnUse">
<stop stop-color="#27AE60"/>
<stop offset="1" stop-color="#0052CC"/>
</linearGradient>
<linearGradient id="paint4_linear_2318_1983" x1="9.26367" y1="20.0176" x2="29.0918" y2="35.5566" gradientUnits="userSpaceOnUse">
<stop stop-color="#27AE60"/>
<stop offset="1" stop-color="#0052CC"/>
</linearGradient>
<linearGradient id="paint5_linear_2318_1983" x1="8.7793" y1="26.7134" x2="21.4234" y2="36.7588" gradientUnits="userSpaceOnUse">
<stop stop-color="#27AE60"/>
<stop offset="1" stop-color="#0052CC"/>
</linearGradient>
<linearGradient id="paint6_linear_2318_1983" x1="8.87891" y1="19.9766" x2="34.4033" y2="45.3139" gradientUnits="userSpaceOnUse">
<stop stop-color="#27AE60"/>
<stop offset="1" stop-color="#0052CC"/>
</linearGradient>
<linearGradient id="paint7_linear_2318_1983" x1="23.3809" y1="22.6963" x2="32.9698" y2="27.5067" gradientUnits="userSpaceOnUse">
<stop stop-color="#27AE60"/>
<stop offset="1" stop-color="#0052CC"/>
</linearGradient>
<linearGradient id="paint8_linear_2318_1983" x1="25.877" y1="22.4751" x2="29.254" y2="23.9264" gradientUnits="userSpaceOnUse">
<stop stop-color="#27AE60"/>
<stop offset="1" stop-color="#0052CC"/>
</linearGradient>
<linearGradient id="paint9_linear_2318_1983" x1="25.877" y1="27.5494" x2="29.2538" y2="29.0008" gradientUnits="userSpaceOnUse">
<stop stop-color="#27AE60"/>
<stop offset="1" stop-color="#0052CC"/>
</linearGradient>
<linearGradient id="paint10_linear_2318_1983" x1="17.6495" y1="10.3259" x2="38.0227" y2="27.8473" gradientUnits="userSpaceOnUse">
<stop stop-color="#27AE60"/>
<stop offset="1" stop-color="#0052CC"/>
</linearGradient>
<linearGradient id="paint11_linear_2318_1983" x1="27.458" y1="13.5" x2="31.2032" y2="14.4783" gradientUnits="userSpaceOnUse">
<stop stop-color="#27AE60"/>
<stop offset="1" stop-color="#0052CC"/>
</linearGradient>
<linearGradient id="paint12_linear_2318_1983" x1="27.458" y1="18.0352" x2="30.4315" y2="19.7829" gradientUnits="userSpaceOnUse">
<stop stop-color="#27AE60"/>
<stop offset="1" stop-color="#0052CC"/>
</linearGradient>
</defs>
</svg>
