<svg width="46" height="46" viewBox="0 0 46 46" fill="none" xmlns="http://www.w3.org/2000/svg">
<path d="M0 12C0 5.37258 5.37258 0 12 0H34C40.6274 0 46 5.37258 46 12V34C46 40.6274 40.6274 46 34 46H12C5.37258 46 0 40.6274 0 34V12Z" fill="url(#paint0_linear_2168_906)" fill-opacity="0.1"/>
<path d="M23.4998 29.969C22.0486 29.969 20.6761 29.8003 19.6411 29.4853C17.7848 28.934 17.4023 28.0115 17.4023 27.3478C17.4023 24.524 20.1361 22.2178 23.4998 22.2178C26.8636 22.2178 29.5973 24.5128 29.5973 27.3478C29.5973 29.7778 24.9286 29.969 23.4998 29.969ZM19.0898 27.3365C19.2586 27.674 20.8561 28.2815 23.4998 28.2815C26.1436 28.2815 27.7636 27.674 27.9098 27.3253C27.9098 25.4465 25.9298 23.9053 23.4998 23.9053C21.0698 23.9053 19.1011 25.4353 19.0898 27.3253V27.3365Z" fill="url(#paint1_linear_2168_906)"/>
<path d="M23.4666 23.6013C21.3516 23.6013 19.6191 21.88 19.6191 19.7538C19.6191 17.6275 21.3404 15.9062 23.4666 15.9062C25.5929 15.9062 27.3141 17.6275 27.3141 19.7538C27.3141 21.88 25.5929 23.6013 23.4666 23.6013ZM23.4666 17.5938C22.2741 17.5938 21.3066 18.5613 21.3066 19.7538C21.3066 20.9462 22.2741 21.9138 23.4666 21.9138C24.6591 21.9138 25.6266 20.9462 25.6266 19.7538C25.6266 18.5613 24.6591 17.5938 23.4666 17.5938Z" fill="url(#paint2_linear_2168_906)"/>
<path d="M31.3742 32.3758C31.1605 32.3758 30.9355 32.2858 30.7667 32.117C30.4405 31.7795 30.4405 31.2508 30.778 30.9245C32.7917 28.9558 33.8942 26.312 33.8942 23.4883C33.8942 17.7508 29.2255 13.082 23.488 13.082C22.4192 13.082 21.373 13.2395 20.3717 13.5545C19.9217 13.6895 19.4492 13.442 19.3142 13.0033C19.1792 12.5533 19.4267 12.0808 19.8655 11.9458C21.0355 11.5745 22.2505 11.3945 23.4992 11.3945C30.1705 11.3945 35.593 16.817 35.593 23.4883C35.593 26.762 34.2992 29.8333 31.9705 32.1283C31.8017 32.2858 31.588 32.3645 31.3855 32.3645L31.3742 32.3758Z" fill="url(#paint3_linear_2168_906)"/>
<path d="M23.5 35.594C16.8288 35.594 11.4062 30.1715 11.4062 23.5002C11.4062 20.3165 12.6325 17.3127 14.86 15.029C15.1863 14.6915 15.715 14.6915 16.0525 15.0177C16.39 15.344 16.39 15.884 16.0637 16.2102C14.14 18.1677 13.0938 20.7552 13.0938 23.5002C13.0938 29.2377 17.7625 33.9065 23.5 33.9065C24.5688 33.9065 25.615 33.749 26.6163 33.434C27.0663 33.299 27.5387 33.5465 27.6737 33.9852C27.8088 34.4352 27.5613 34.9077 27.1225 35.0427C25.9525 35.414 24.7375 35.594 23.4887 35.594H23.5Z" fill="url(#paint4_linear_2168_906)"/>
<path d="M32.5 33.3438H30.25C29.7887 33.3438 29.4062 32.9613 29.4062 32.5V30.25C29.4062 29.7887 29.7887 29.4062 30.25 29.4062C30.7112 29.4062 31.0938 29.7887 31.0938 30.25V31.6562H32.5C32.9613 31.6562 33.3438 32.0387 33.3438 32.5C33.3438 32.9613 32.9613 33.3438 32.5 33.3438Z" fill="url(#paint5_linear_2168_906)"/>
<path d="M16.75 17.5938C16.2887 17.5938 15.9062 17.2113 15.9062 16.75V15.3438H14.5C14.0387 15.3438 13.6562 14.9612 13.6562 14.5C13.6562 14.0387 14.0387 13.6562 14.5 13.6562H16.75C17.2113 13.6562 17.5938 14.0387 17.5938 14.5V16.75C17.5938 17.2113 17.2113 17.5938 16.75 17.5938Z" fill="url(#paint6_linear_2168_906)"/>
<defs>
<linearGradient id="paint0_linear_2168_906" x1="-28.0312" y1="-10.0625" x2="73.3125" y2="69.3594" gradientUnits="userSpaceOnUse">
<stop stop-color="#27AE60"/>
<stop offset="1" stop-color="#0052CC"/>
</linearGradient>
<linearGradient id="paint1_linear_2168_906" x1="9.97102" y1="20.5222" x2="27.179" y2="41.7392" gradientUnits="userSpaceOnUse">
<stop stop-color="#27AE60"/>
<stop offset="1" stop-color="#0052CC"/>
</linearGradient>
<linearGradient id="paint2_linear_2168_906" x1="14.93" y1="14.223" x2="31.883" y2="27.5089" gradientUnits="userSpaceOnUse">
<stop stop-color="#27AE60"/>
<stop offset="1" stop-color="#0052CC"/>
</linearGradient>
<linearGradient id="paint3_linear_2168_906" x1="9.33502" y1="6.80488" x2="51.6437" y2="32.5886" gradientUnits="userSpaceOnUse">
<stop stop-color="#27AE60"/>
<stop offset="1" stop-color="#0052CC"/>
</linearGradient>
<linearGradient id="paint4_linear_2168_906" x1="1.47078" y1="10.2201" x2="43.5884" y2="36.0689" gradientUnits="userSpaceOnUse">
<stop stop-color="#27AE60"/>
<stop offset="1" stop-color="#0052CC"/>
</linearGradient>
<linearGradient id="paint5_linear_2168_906" x1="27.0068" y1="28.5449" x2="35.6816" y2="35.3433" gradientUnits="userSpaceOnUse">
<stop stop-color="#27AE60"/>
<stop offset="1" stop-color="#0052CC"/>
</linearGradient>
<linearGradient id="paint6_linear_2168_906" x1="11.2568" y1="12.7949" x2="19.9316" y2="19.5933" gradientUnits="userSpaceOnUse">
<stop stop-color="#27AE60"/>
<stop offset="1" stop-color="#0052CC"/>
</linearGradient>
</defs>
</svg>
