<svg width="46" height="46" viewBox="0 0 46 46" fill="none" xmlns="http://www.w3.org/2000/svg">
<path d="M0 12C0 5.37258 5.37258 0 12 0H34C40.6274 0 46 5.37258 46 12V34C46 40.6274 40.6274 46 34 46H12C5.37258 46 0 40.6274 0 34V12Z" fill="url(#paint0_linear_2181_2059)" fill-opacity="0.1"/>
<path fill-rule="evenodd" clip-rule="evenodd" d="M18.3892 24.0577H19.0672L19.451 22.8961H21.0553L21.4362 24.0577H22.1142L20.6023 19.7598H19.904L18.3892 24.0577ZM20.2474 20.4716H20.2589L20.8793 22.36H19.6241L20.2474 20.4716Z" fill="url(#paint1_linear_2181_2059)"/>
<path fill-rule="evenodd" clip-rule="evenodd" d="M22.5762 24.0577H23.2225V22.5893H24.1256C24.9422 22.5893 25.5077 22.0145 25.5077 21.1745V21.1686C25.5077 20.3257 24.9422 19.7598 24.1256 19.7598H22.5762V24.0577ZM23.9641 20.3227C24.5267 20.3227 24.8499 20.6354 24.8499 21.1716V21.1775C24.8499 21.7166 24.5267 22.0294 23.9641 22.0294H23.2225V20.3227H23.9641Z" fill="url(#paint2_linear_2181_2059)"/>
<path d="M26.7196 24.0577H26.0732V19.7598H26.7196V24.0577Z" fill="url(#paint3_linear_2181_2059)"/>
<path fill-rule="evenodd" clip-rule="evenodd" d="M28.6748 26.4408V26.4415H26.0645V28.0611H28.235C28.4422 28.0611 28.61 28.2344 28.61 28.4482V29.9207C28.7308 29.9539 28.8493 30.0039 28.9626 30.0714C29.656 30.4846 29.8935 31.3997 29.4932 32.1154C29.0929 32.8311 28.2064 33.0763 27.5131 32.6631C26.8197 32.2499 26.5822 31.3348 26.9825 30.6191C27.1821 30.2621 27.5028 30.0222 27.86 29.9226V28.8352H25.6895C25.59 28.8352 25.4946 28.7945 25.4243 28.7219C25.354 28.6493 25.3145 28.5508 25.3145 28.4482V26.4415H23.5103V29.9215C24.1291 30.0921 24.5849 30.6747 24.5849 31.3673C24.5849 32.1937 23.9359 32.8636 23.1353 32.8636C22.3347 32.8636 21.6857 32.1937 21.6857 31.3673C21.6857 30.6747 22.1415 30.0921 22.7603 29.9215V26.4415H20.956V28.4384C20.956 28.6522 20.7881 28.8255 20.581 28.8255H18.4105V29.9226C18.7677 30.0222 19.0884 30.2621 19.288 30.6191C19.6883 31.3348 19.4508 32.2499 18.7574 32.6631C18.0641 33.0763 17.1776 32.8311 16.7773 32.1154C16.377 31.3997 16.6145 30.4846 17.3078 30.0714C17.4212 30.0039 17.5397 29.9539 17.6605 29.9207V28.4384C17.6605 28.2246 17.8284 28.0513 18.0355 28.0513H20.206V26.4415H17.5049C15.6198 26.4151 14.0996 24.8292 14.0996 22.8771C14.0996 21.1346 15.3109 19.6841 16.9117 19.3739C16.8901 19.1887 16.8789 19.0002 16.8789 18.809C16.8789 16.2275 18.9063 14.1348 21.4071 14.1348C23.0716 14.1348 24.5264 15.0619 25.3132 16.4431C25.5144 16.4024 25.7224 16.3811 25.9351 16.3811C27.4014 16.3811 28.6386 17.3937 29.0263 18.7784C30.8864 18.9924 32.3326 20.6208 32.3326 22.598C32.3326 24.698 30.7009 26.4047 28.6748 26.4408ZM28.63 25.6673L28.6618 25.6668C30.2796 25.6379 31.5826 24.2749 31.5826 22.598C31.5826 21.0196 30.4278 19.7186 28.9432 19.5478L28.445 19.4904L28.3058 18.9933C28.0084 17.9309 27.0585 17.1553 25.9351 17.1553C25.771 17.1553 25.6113 17.1717 25.4574 17.2029L24.936 17.3083L24.6667 16.8355C24.0091 15.681 22.795 14.909 21.4071 14.909C19.3205 14.909 17.6289 16.655 17.6289 18.809C17.6289 18.9692 17.6382 19.1268 17.6563 19.2813L17.7403 20.0011L17.05 20.1348C15.7974 20.3776 14.8496 21.5139 14.8496 22.8771C14.8496 24.4051 16.0397 25.6464 17.5151 25.667L17.537 25.6673H28.63ZM22.4357 31.3673C22.4357 31.7661 22.7489 32.0894 23.1353 32.0894C23.5217 32.0894 23.8349 31.7661 23.8349 31.3673C23.8349 30.9684 23.5217 30.6451 23.1353 30.6451C22.7489 30.6451 22.4357 30.9684 22.4357 31.3673ZM28.8437 31.7283C28.6505 32.0737 28.2227 32.1921 27.8881 31.9926C27.5535 31.7932 27.4388 31.3516 27.632 31.0062C27.8252 30.6608 28.253 30.5424 28.5876 30.7419C28.9223 30.9413 29.0369 31.3829 28.8437 31.7283ZM17.4268 31.7283C17.62 32.0737 18.0478 32.1921 18.3824 31.9926C18.717 31.7932 18.8317 31.3516 18.6385 31.0062C18.4453 30.6608 18.0175 30.5424 17.6828 30.7419C17.3482 30.9413 17.2336 31.3829 17.4268 31.7283Z" fill="url(#paint4_linear_2181_2059)"/>
<path fill-rule="evenodd" clip-rule="evenodd" d="M28.4065 19.5388L28.258 19.0084C27.9665 17.9676 27.0359 17.2078 25.9353 17.2078C25.7744 17.2078 25.618 17.2239 25.4672 17.2544L24.9111 17.3668L24.6238 16.8625C23.9748 15.7232 22.7768 14.9614 21.4073 14.9614C19.3483 14.9614 17.6791 16.6844 17.6791 18.8098C17.6791 18.9679 17.6883 19.1235 17.7061 19.276L17.7957 20.0437L17.0595 20.1864C15.83 20.4246 14.8998 21.54 14.8998 22.8779C14.8998 24.3777 16.0678 25.596 17.5159 25.6162L17.5372 25.6165H28.6298L28.6612 25.616C30.2517 25.5876 31.5328 24.2476 31.5328 22.5988C31.5328 21.047 30.3974 19.7678 28.9379 19.5999L28.4065 19.5388ZM28.6302 25.6682L28.662 25.6676C30.2798 25.6387 31.5828 24.2758 31.5828 22.5988C31.5828 21.0205 30.428 19.7194 28.9434 19.5486L28.4452 19.4913L28.306 18.9941C28.0086 17.9318 27.0587 17.1561 25.9353 17.1561C25.7712 17.1561 25.6115 17.1726 25.4576 17.2037L24.9362 17.3091L24.6669 16.8364C24.0093 15.6819 22.7952 14.9098 21.4073 14.9098C19.3207 14.9098 17.6291 16.6559 17.6291 18.8098C17.6291 18.97 17.6384 19.1276 17.6565 19.2821L17.7405 20.0019L17.0502 20.1357C15.7976 20.3784 14.8498 21.5147 14.8498 22.8779C14.8498 24.4059 16.0399 25.6472 17.5153 25.6678L17.5372 25.6682H28.6302ZM17.5051 26.4423C15.62 26.416 14.0998 24.83 14.0998 22.8779C14.0998 21.1354 15.3111 19.6849 16.9119 19.3747C16.8902 19.1896 16.8791 19.001 16.8791 18.8098C16.8791 16.2283 18.9065 14.1356 21.4073 14.1356C23.0718 14.1356 24.5266 15.0627 25.3134 16.4439C25.5146 16.4033 25.7226 16.382 25.9353 16.382C27.4016 16.382 28.6388 17.3945 29.0265 18.7792C30.8866 18.9932 32.3328 20.6216 32.3328 22.5988C32.3328 24.6989 30.7011 26.4055 28.675 26.4417V26.4423H26.0647V28.0619H28.2352C28.4424 28.0619 28.6102 28.2352 28.6102 28.449V29.9215C28.731 29.9547 28.8495 30.0047 28.9628 30.0723C29.6562 30.4854 29.8937 31.4005 29.4934 32.1163C29.0931 32.8319 28.2066 33.0771 27.5133 32.6639C26.8199 32.2508 26.5824 31.3356 26.9827 30.6199C27.1823 30.263 27.503 30.023 27.8602 29.9235V28.8361H25.6897C25.5902 28.8361 25.4948 28.7953 25.4245 28.7227C25.3542 28.6501 25.3147 28.5516 25.3147 28.449V26.4423H23.5105V29.9223C24.1293 30.0929 24.5851 30.6755 24.5851 31.3681C24.5851 32.1945 23.9361 32.8644 23.1355 32.8644C22.3349 32.8644 21.6859 32.1945 21.6859 31.3681C21.6859 30.6755 22.1417 30.0929 22.7605 29.9223V26.4423H20.9562V28.4392C20.9562 28.653 20.7883 28.8263 20.5812 28.8263H18.4107V29.9235C18.7679 30.023 19.0886 30.263 19.2882 30.6199C19.6885 31.3356 19.451 32.2508 18.7576 32.6639C18.0643 33.0771 17.1778 32.8319 16.7775 32.1163C16.3772 31.4005 16.6147 30.4854 17.308 30.0723C17.4214 30.0047 17.5399 29.9547 17.6606 29.9215V28.4392C17.6606 28.2255 17.8286 28.0521 18.0357 28.0521H20.2062V26.4423H17.5051ZM20.1562 26.494H17.5044C15.592 26.4672 14.0498 24.8583 14.0498 22.8779C14.0498 21.1268 15.2556 19.6665 16.8569 19.3332C16.8385 19.1613 16.8291 18.9867 16.8291 18.8098C16.8291 16.1998 18.8788 14.084 21.4073 14.084C23.0777 14.084 24.539 15.0074 25.3385 16.3865C25.5321 16.3496 25.7315 16.3303 25.9353 16.3303C27.4128 16.3303 28.6611 17.3426 29.0651 18.7319C30.9342 18.9642 32.3828 20.6068 32.3828 22.5988C32.3828 24.7101 30.7555 26.429 28.725 26.4921V26.494H26.1147V28.0103H28.2352C28.47 28.0103 28.6602 28.2067 28.6602 28.449V29.8824C28.7723 29.9164 28.8823 29.9646 28.9878 30.0275C29.7051 30.455 29.9508 31.4017 29.5367 32.1421C29.1226 32.8824 28.2055 33.1361 27.4883 32.7086C26.771 32.2812 26.5253 31.3345 26.9394 30.5941C27.139 30.2372 27.4556 29.9934 27.8102 29.8845V28.8877H25.6897C25.577 28.8877 25.4689 28.8415 25.3892 28.7592C25.3094 28.677 25.2647 28.5654 25.2647 28.449V26.494H23.5605V29.8832C24.1817 30.0724 24.6351 30.6655 24.6351 31.3681C24.6351 32.223 23.9637 32.916 23.1355 32.916C22.3073 32.916 21.6359 32.223 21.6359 31.3681C21.6359 30.6655 22.0893 30.0724 22.7105 29.8832V26.494H21.0062V28.4392C21.0062 28.6815 20.816 28.8779 20.5812 28.8779H18.4607V29.8845C18.8153 29.9934 19.1319 30.2372 19.3315 30.5941C19.7456 31.3345 19.4999 32.2812 18.7826 32.7086C18.0654 33.1361 17.1483 32.8824 16.7342 32.1421C16.3201 31.4017 16.5658 30.455 17.283 30.0275C17.3886 29.9646 17.4986 29.9164 17.6106 29.8824V28.4392C17.6106 28.197 17.8009 28.0005 18.0357 28.0005H20.1562V26.494ZM18.3177 24.1089L19.8689 19.7078H20.6373L22.1855 24.1089H21.4002L21.0194 22.9474H19.4867L19.103 24.1089H18.3177ZM19.451 22.8957H21.0552L21.4361 24.0573H22.1142L20.6022 19.7594H19.904L18.3891 24.0573H19.0672L19.451 22.8957ZM22.5258 24.1089V19.7078H24.1253C24.545 19.7078 24.9036 19.8534 25.1576 20.1109C25.4116 20.3685 25.5574 20.7345 25.5574 21.1682V21.1742C25.5574 21.6065 25.4116 21.9738 25.1577 22.2332C24.9039 22.4925 24.5452 22.6406 24.1253 22.6406H23.2722V24.1089H22.5258ZM23.2222 24.0573H22.5758V19.7594H24.1253C24.9419 19.7594 25.5074 20.3253 25.5074 21.1682V21.1742C25.5074 22.0141 24.9419 22.589 24.1253 22.589H23.2222V24.0573ZM26.7693 24.1089H26.0229V19.7078H26.7693V24.1089ZM22.4859 31.3681C22.4859 31.7384 22.7767 32.0386 23.1355 32.0386C23.4943 32.0386 23.7851 31.7384 23.7851 31.3681C23.7851 30.9978 23.4943 30.6976 23.1355 30.6976C22.7767 30.6976 22.4859 30.9978 22.4859 31.3681ZM27.9133 31.9488C28.224 32.1339 28.6212 32.0241 28.8006 31.7034C28.98 31.3826 28.8735 30.9725 28.5629 30.7874C28.2522 30.6022 27.8549 30.7121 27.6755 31.0328C27.4961 31.3535 27.6026 31.7636 27.9133 31.9488ZM17.4703 31.7034C17.6497 32.0241 18.047 32.1339 18.3576 31.9488C18.6683 31.7636 18.7748 31.3535 18.5954 31.0328C18.416 30.7121 18.0187 30.6022 17.708 30.7874C17.3974 30.9725 17.2909 31.3826 17.4703 31.7034ZM20.8792 22.3596H19.6241L20.2473 20.4712H20.2589L20.8792 22.3596ZM20.253 20.6141L19.6939 22.308H20.8095L20.253 20.6141ZM24.5835 20.5835C24.4443 20.4497 24.2364 20.374 23.9637 20.374H23.2722V21.9774H23.9637C24.2364 21.9774 24.4442 21.9017 24.5835 21.7675C24.7223 21.6338 24.7995 21.4358 24.7995 21.1771V21.1712C24.7995 20.9141 24.7223 20.7169 24.5835 20.5835ZM23.1355 32.0902C22.7491 32.0902 22.4359 31.7669 22.4359 31.3681C22.4359 30.9693 22.7491 30.646 23.1355 30.646C23.5219 30.646 23.8351 30.9693 23.8351 31.3681C23.8351 31.7669 23.5219 32.0902 23.1355 32.0902ZM27.8883 31.9935C28.2229 32.1929 28.6507 32.0746 28.8439 31.7292C29.0371 31.3838 28.9225 30.9421 28.5878 30.7427C28.2532 30.5433 27.8254 30.6616 27.6322 31.007C27.439 31.3524 27.5537 31.794 27.8883 31.9935ZM18.3826 31.9935C18.048 32.1929 17.6202 32.0746 17.427 31.7292C17.2338 31.3838 17.3484 30.9421 17.683 30.7427C18.0177 30.5433 18.4455 30.6616 18.6387 31.007C18.8319 31.3524 18.7172 31.794 18.3826 31.9935ZM24.8495 21.1712C24.8495 20.6351 24.5264 20.3223 23.9637 20.3223H23.2222V22.029H23.9637C24.5264 22.029 24.8495 21.7162 24.8495 21.1771V21.1712ZM26.0729 24.0573V19.7594H26.7193V24.0573H26.0729Z" fill="url(#paint5_linear_2181_2059)"/>
<defs>
<linearGradient id="paint0_linear_2181_2059" x1="-28.0312" y1="-10.0625" x2="73.3125" y2="69.3594" gradientUnits="userSpaceOnUse">
<stop stop-color="#27AE60"/>
<stop offset="1" stop-color="#0052CC"/>
</linearGradient>
<linearGradient id="paint1_linear_2181_2059" x1="16.1192" y1="18.8196" x2="25.1841" y2="24.9768" gradientUnits="userSpaceOnUse">
<stop stop-color="#27AE60"/>
<stop offset="1" stop-color="#0052CC"/>
</linearGradient>
<linearGradient id="paint2_linear_2181_2059" x1="20.7898" y1="18.8196" x2="28.8981" y2="23.1539" gradientUnits="userSpaceOnUse">
<stop stop-color="#27AE60"/>
<stop offset="1" stop-color="#0052CC"/>
</linearGradient>
<linearGradient id="paint3_linear_2181_2059" x1="25.6794" y1="18.8196" x2="27.9464" y2="19.0868" gradientUnits="userSpaceOnUse">
<stop stop-color="#27AE60"/>
<stop offset="1" stop-color="#0052CC"/>
</linearGradient>
<linearGradient id="paint4_linear_2181_2059" x1="2.9889" y1="10.0378" x2="43.9735" y2="41.3062" gradientUnits="userSpaceOnUse">
<stop stop-color="#27AE60"/>
<stop offset="1" stop-color="#0052CC"/>
</linearGradient>
<linearGradient id="paint5_linear_2181_2059" x1="2.87816" y1="9.96442" x2="44.0884" y2="41.4041" gradientUnits="userSpaceOnUse">
<stop stop-color="#27AE60"/>
<stop offset="1" stop-color="#0052CC"/>
</linearGradient>
</defs>
</svg>
