<svg width="46" height="46" viewBox="0 0 46 46" fill="none" xmlns="http://www.w3.org/2000/svg">
<path d="M0 12C0 5.37258 5.37258 0 12 0H34C40.6274 0 46 5.37258 46 12V34C46 40.6274 40.6274 46 34 46H12C5.37258 46 0 40.6274 0 34V12Z" fill="url(#paint0_linear_2280_699)" fill-opacity="0.1"/>
<g clip-path="url(#clip0_2280_699)">
<path d="M13.5 22.5C13.7761 22.5 14 22.2761 14 22C14 21.7239 13.7761 21.5 13.5 21.5C13.2239 21.5 13 21.7239 13 22C13 22.2761 13.2239 22.5 13.5 22.5Z" fill="url(#paint1_linear_2280_699)"/>
<path d="M15.5 22.5C15.7761 22.5 16 22.2761 16 22C16 21.7239 15.7761 21.5 15.5 21.5C15.2239 21.5 15 21.7239 15 22C15 22.2761 15.2239 22.5 15.5 22.5Z" fill="url(#paint2_linear_2280_699)"/>
<path d="M17.5 22.5C17.7761 22.5 18 22.2761 18 22C18 21.7239 17.7761 21.5 17.5 21.5C17.2239 21.5 17 21.7239 17 22C17 22.2761 17.2239 22.5 17.5 22.5Z" fill="url(#paint3_linear_2280_699)"/>
<path d="M32.5 11.5H20.5C19.121 11.5 18 12.622 18 14V15.5H16.5C15.121 15.5 14 16.622 14 18V19.5H13.5C12.121 19.5 11 20.622 11 22V33C11 34.378 12.121 35.5 13.5 35.5H25.5C26.879 35.5 28 34.378 28 33V31.5H28.5C29.879 31.5 31 30.378 31 29V27.5H32.5C33.879 27.5 35 26.378 35 25V14C35 12.622 33.879 11.5 32.5 11.5ZM20.5 12.5H32.5C33.327 12.5 34 13.173 34 14V15.5H28.5H19V14C19 13.173 19.673 12.5 20.5 12.5ZM16.5 16.5H18.5H28.5C29.327 16.5 30 17.173 30 18V19.5H25.5H15V18C15 17.173 15.673 16.5 16.5 16.5ZM13.5 20.5H14.5H25.5C26.327 20.5 27 21.173 27 22V23.5H12V22C12 21.173 12.673 20.5 13.5 20.5ZM27 33C27 33.827 26.327 34.5 25.5 34.5H13.5C12.673 34.5 12 33.827 12 33V24.5H27V33ZM30 29C30 29.827 29.327 30.5 28.5 30.5H28V22C28 21.435 27.805 20.919 27.487 20.5H30V29ZM32.5 26.5H31V18C31 17.435 30.805 16.919 30.487 16.5H34V25C34 25.827 33.327 26.5 32.5 26.5Z" fill="url(#paint4_linear_2280_699)"/>
<path d="M20.5 14.5C20.7761 14.5 21 14.2761 21 14C21 13.7239 20.7761 13.5 20.5 13.5C20.2239 13.5 20 13.7239 20 14C20 14.2761 20.2239 14.5 20.5 14.5Z" fill="url(#paint5_linear_2280_699)"/>
<path d="M22.5 14.5C22.7761 14.5 23 14.2761 23 14C23 13.7239 22.7761 13.5 22.5 13.5C22.2239 13.5 22 13.7239 22 14C22 14.2761 22.2239 14.5 22.5 14.5Z" fill="url(#paint6_linear_2280_699)"/>
<path d="M24.5 14.5C24.7761 14.5 25 14.2761 25 14C25 13.7239 24.7761 13.5 24.5 13.5C24.2239 13.5 24 13.7239 24 14C24 14.2761 24.2239 14.5 24.5 14.5Z" fill="url(#paint7_linear_2280_699)"/>
<path d="M16.5 18.5C16.7761 18.5 17 18.2761 17 18C17 17.7239 16.7761 17.5 16.5 17.5C16.2239 17.5 16 17.7239 16 18C16 18.2761 16.2239 18.5 16.5 18.5Z" fill="url(#paint8_linear_2280_699)"/>
<path d="M18.5 18.5C18.7761 18.5 19 18.2761 19 18C19 17.7239 18.7761 17.5 18.5 17.5C18.2239 17.5 18 17.7239 18 18C18 18.2761 18.2239 18.5 18.5 18.5Z" fill="url(#paint9_linear_2280_699)"/>
<path d="M20.5 18.5C20.7761 18.5 21 18.2761 21 18C21 17.7239 20.7761 17.5 20.5 17.5C20.2239 17.5 20 17.7239 20 18C20 18.2761 20.2239 18.5 20.5 18.5Z" fill="url(#paint10_linear_2280_699)"/>
</g>
<defs>
<linearGradient id="paint0_linear_2280_699" x1="-28.0312" y1="-10.0625" x2="73.3125" y2="69.3594" gradientUnits="userSpaceOnUse">
<stop stop-color="#27AE60"/>
<stop offset="1" stop-color="#0052CC"/>
</linearGradient>
<linearGradient id="paint1_linear_2280_699" x1="12.3906" y1="21.2813" x2="14.5937" y2="23.0078" gradientUnits="userSpaceOnUse">
<stop stop-color="#27AE60"/>
<stop offset="1" stop-color="#0052CC"/>
</linearGradient>
<linearGradient id="paint2_linear_2280_699" x1="14.3906" y1="21.2813" x2="16.5937" y2="23.0078" gradientUnits="userSpaceOnUse">
<stop stop-color="#27AE60"/>
<stop offset="1" stop-color="#0052CC"/>
</linearGradient>
<linearGradient id="paint3_linear_2280_699" x1="16.3906" y1="21.2813" x2="18.5937" y2="23.0078" gradientUnits="userSpaceOnUse">
<stop stop-color="#27AE60"/>
<stop offset="1" stop-color="#0052CC"/>
</linearGradient>
<linearGradient id="paint4_linear_2280_699" x1="-3.625" y1="6.25" x2="49.25" y2="47.6875" gradientUnits="userSpaceOnUse">
<stop stop-color="#27AE60"/>
<stop offset="1" stop-color="#0052CC"/>
</linearGradient>
<linearGradient id="paint5_linear_2280_699" x1="19.3906" y1="13.2813" x2="21.5937" y2="15.0078" gradientUnits="userSpaceOnUse">
<stop stop-color="#27AE60"/>
<stop offset="1" stop-color="#0052CC"/>
</linearGradient>
<linearGradient id="paint6_linear_2280_699" x1="21.3906" y1="13.2813" x2="23.5937" y2="15.0078" gradientUnits="userSpaceOnUse">
<stop stop-color="#27AE60"/>
<stop offset="1" stop-color="#0052CC"/>
</linearGradient>
<linearGradient id="paint7_linear_2280_699" x1="23.3906" y1="13.2813" x2="25.5937" y2="15.0078" gradientUnits="userSpaceOnUse">
<stop stop-color="#27AE60"/>
<stop offset="1" stop-color="#0052CC"/>
</linearGradient>
<linearGradient id="paint8_linear_2280_699" x1="15.3906" y1="17.2813" x2="17.5937" y2="19.0078" gradientUnits="userSpaceOnUse">
<stop stop-color="#27AE60"/>
<stop offset="1" stop-color="#0052CC"/>
</linearGradient>
<linearGradient id="paint9_linear_2280_699" x1="17.3906" y1="17.2813" x2="19.5937" y2="19.0078" gradientUnits="userSpaceOnUse">
<stop stop-color="#27AE60"/>
<stop offset="1" stop-color="#0052CC"/>
</linearGradient>
<linearGradient id="paint10_linear_2280_699" x1="19.3906" y1="17.2813" x2="21.5937" y2="19.0078" gradientUnits="userSpaceOnUse">
<stop stop-color="#27AE60"/>
<stop offset="1" stop-color="#0052CC"/>
</linearGradient>
<clipPath id="clip0_2280_699">
<rect width="24" height="24" fill="white" transform="translate(11 11.5)"/>
</clipPath>
</defs>
</svg>
