<svg width="46" height="46" viewBox="0 0 46 46" fill="none" xmlns="http://www.w3.org/2000/svg">
<path d="M0 12C0 5.37258 5.37258 0 12 0H34C40.6274 0 46 5.37258 46 12V34C46 40.6274 40.6274 46 34 46H12C5.37258 46 0 40.6274 0 34V12Z" fill="url(#paint0_linear_2267_685)" fill-opacity="0.1"/>
<path d="M30.717 20.857C30.388 16.884 27.056 13.75 23 13.75C18.944 13.75 15.611 16.884 15.283 20.857C14.116 21.175 13.25 22.233 13.25 23.5C13.25 24.349 13.644 25.099 14.25 25.604V28.258C14.25 31.011 16.49 33.25 19.243 33.25C20.576 33.25 21.829 32.73 22.773 31.788L23 31.56L23.228 31.788C24.171 32.73 25.425 33.25 26.758 33.25C29.511 33.25 31.751 31.011 31.751 28.258V25.604C32.357 25.099 32.751 24.349 32.751 23.5C32.751 22.233 31.886 21.175 30.718 20.857H30.717ZM23 15.25C26.192 15.25 28.833 17.656 29.205 20.75H16.795C17.167 17.656 19.808 15.25 23 15.25ZM30.25 28.258C30.25 30.184 28.683 31.75 26.757 31.75C25.824 31.75 24.947 31.387 24.287 30.728L23.53 29.97C23.389 29.829 23.199 29.75 23 29.75C22.801 29.75 22.61 29.829 22.47 29.97L21.713 30.728C21.052 31.387 20.175 31.75 19.243 31.75C17.317 31.75 15.75 30.184 15.75 28.258V26.25H30.25V28.258ZM30 24.75H16C15.311 24.75 14.75 24.189 14.75 23.5C14.75 22.811 15.311 22.25 16 22.25H30C30.689 22.25 31.25 22.811 31.25 23.5C31.25 24.189 30.689 24.75 30 24.75ZM20.75 28.5C20.75 28.914 20.414 29.25 20 29.25H18C17.586 29.25 17.25 28.914 17.25 28.5C17.25 28.086 17.586 27.75 18 27.75H20C20.414 27.75 20.75 28.086 20.75 28.5ZM28.75 28.5C28.75 28.914 28.414 29.25 28 29.25H26C25.586 29.25 25.25 28.914 25.25 28.5C25.25 28.086 25.586 27.75 26 27.75H28C28.414 27.75 28.75 28.086 28.75 28.5Z" fill="url(#paint1_linear_2267_685)"/>
<defs>
<linearGradient id="paint0_linear_2267_685" x1="-28.0312" y1="-10.0625" x2="73.3125" y2="69.3594" gradientUnits="userSpaceOnUse">
<stop stop-color="#27AE60"/>
<stop offset="1" stop-color="#0052CC"/>
</linearGradient>
<linearGradient id="paint1_linear_2267_685" x1="1.36658" y1="9.48438" x2="44.328" y2="43.1545" gradientUnits="userSpaceOnUse">
<stop stop-color="#27AE60"/>
<stop offset="1" stop-color="#0052CC"/>
</linearGradient>
</defs>
</svg>
