<svg width="46" height="46" viewBox="0 0 46 46" fill="none" xmlns="http://www.w3.org/2000/svg">
<path d="M0 12C0 5.37258 5.37258 0 12 0H34C40.6274 0 46 5.37258 46 12V34C46 40.6274 40.6274 46 34 46H12C5.37258 46 0 40.6274 0 34V12Z" fill="url(#paint0_linear_2176_457)" fill-opacity="0.1"/>
<path d="M25.9677 15.5C22.9861 15.5 20.5604 17.9257 20.5604 20.9073C20.5604 21.5701 20.6782 22.2143 20.9107 22.826L15.7404 27.9966C15.6665 28.0706 15.625 28.1708 15.625 28.2753V31.1045C15.625 31.3222 15.8014 31.4986 16.0191 31.4986H18.3506C18.455 31.4986 18.5551 31.4572 18.629 31.3834L19.4147 30.5989C19.4888 30.5249 19.5304 30.4246 19.5304 30.32V29.3552H20.4939C20.7116 29.3552 20.888 29.1788 20.888 28.9611V28.5749H21.2742C21.4919 28.5749 21.6683 28.3985 21.6683 28.1809V27.3329H22.5162C22.6207 27.3329 22.7209 27.2914 22.7949 27.2175L24.0485 25.9639C24.6603 26.1966 25.3045 26.3145 25.9676 26.3145C28.9492 26.3145 31.3749 23.8888 31.3749 20.9072C31.375 17.9257 28.9493 15.5 25.9677 15.5ZM25.9677 25.5264C25.3227 25.5264 24.6989 25.3962 24.1135 25.1392C23.9622 25.0727 23.7917 25.1093 23.6801 25.2181C23.6789 25.2192 23.6777 25.2202 23.6765 25.2214L22.3531 26.5448H21.2743C21.0567 26.5448 20.8803 26.7213 20.8803 26.9389V27.7868H20.494C20.2764 27.7868 20.0999 27.9632 20.0999 28.1809V28.5671H19.1363C18.9187 28.5671 18.7423 28.7435 18.7423 28.9611V30.1566L18.1876 30.7104H16.4132V30.1536L21.2297 25.3371C21.3682 25.1986 21.3682 24.9741 21.2297 24.8356C21.0911 24.6971 20.8667 24.697 20.728 24.8356L16.4132 29.1505V28.4385L21.6532 23.1981C21.6544 23.1969 21.6553 23.1958 21.6564 23.1947C21.7652 23.0832 21.8019 22.9127 21.7355 22.7612C21.4787 22.1759 21.3486 21.5521 21.3486 20.9073C21.3486 18.3603 23.4208 16.2881 25.9678 16.2881C28.5148 16.2881 30.5869 18.3603 30.5869 20.9073C30.5869 23.4543 28.5147 25.5264 25.9677 25.5264Z" fill="url(#paint1_linear_2176_457)"/>
<path d="M27.6132 17.7852C26.7993 17.7852 26.1372 18.4473 26.1372 19.2612C26.1372 20.0751 26.7993 20.7372 27.6132 20.7372C28.4271 20.7372 29.0893 20.0751 29.0893 19.2612C29.0893 18.4473 28.4272 17.7852 27.6132 17.7852ZM27.6132 19.9491C27.2339 19.9491 26.9253 19.6405 26.9253 19.2612C26.9253 18.8819 27.2339 18.5733 27.6132 18.5733C27.9925 18.5733 28.3011 18.8819 28.3011 19.2612C28.3011 19.6405 27.9925 19.9491 27.6132 19.9491Z" fill="url(#paint2_linear_2176_457)"/>
<defs>
<linearGradient id="paint0_linear_2176_457" x1="-28.0312" y1="-10.0625" x2="73.3125" y2="69.3594" gradientUnits="userSpaceOnUse">
<stop stop-color="#27AE60"/>
<stop offset="1" stop-color="#0052CC"/>
</linearGradient>
<linearGradient id="paint1_linear_2176_457" x1="6.02738" y1="12.0003" x2="41.1385" y2="39.0888" gradientUnits="userSpaceOnUse">
<stop stop-color="#27AE60"/>
<stop offset="1" stop-color="#0052CC"/>
</linearGradient>
<linearGradient id="paint2_linear_2176_457" x1="24.3383" y1="17.1394" x2="30.842" y2="22.2363" gradientUnits="userSpaceOnUse">
<stop stop-color="#27AE60"/>
<stop offset="1" stop-color="#0052CC"/>
</linearGradient>
</defs>
</svg>
