<svg width="46" height="46" viewBox="0 0 46 46" fill="none" xmlns="http://www.w3.org/2000/svg">
<path d="M0 12C0 5.37258 5.37258 0 12 0H34C40.6274 0 46 5.37258 46 12V34C46 40.6274 40.6274 46 34 46H12C5.37258 46 0 40.6274 0 34V12Z" fill="url(#paint0_linear_2262_1520)" fill-opacity="0.1"/>
<g clip-path="url(#clip0_2262_1520)">
<path d="M28.5861 34.747C27.8526 34.747 27.1117 34.6539 26.3716 34.4679C21.0183 33.1202 13.3795 25.4811 12.0319 20.1278C11.4877 17.9679 11.7429 15.7948 12.7694 13.8451C13.2162 12.9962 14.0142 12.4271 14.959 12.2836C15.8928 12.1437 16.8186 12.4447 17.4906 13.1163L19.6802 15.3063C20.5426 16.1683 20.7924 17.4867 20.3017 18.5861C20.0446 19.1632 19.7168 19.6532 19.3268 20.0421C19.0595 20.3102 19.006 20.7526 19.1682 21.3575C19.7578 23.5592 22.9402 26.7416 25.1422 27.3319C25.7483 27.4938 26.19 27.441 26.4573 27.173C26.8477 26.7826 27.338 26.4545 27.9144 26.1981C29.0134 25.7059 30.3311 25.9572 31.1939 26.8192L33.3834 29.0092C34.0551 29.6808 34.3583 30.6036 34.2162 31.5411C34.073 32.4852 33.5036 33.2836 32.6547 33.7304C31.3726 34.4056 29.9942 34.747 28.5861 34.747ZM15.4065 13.7499C15.3329 13.7499 15.2586 13.7557 15.1839 13.7667C14.7155 13.8378 14.3192 14.1212 14.0966 14.5438C13.2331 16.1845 13.0276 17.9401 13.4865 19.7616C14.7071 24.6095 21.8899 31.7931 26.7378 33.0133C28.559 33.4725 30.315 33.266 31.956 32.4032C32.3789 32.1805 32.662 31.7843 32.7331 31.3156C32.803 30.8549 32.6536 30.4008 32.3229 30.0697L30.1333 27.8798C29.7078 27.455 29.0618 27.3297 28.5249 27.5678C28.1166 27.7501 27.7779 27.9735 27.5178 28.2335C27.0542 28.6964 26.1995 29.1674 24.7537 28.7806C22.0056 28.0446 18.4556 24.4938 17.7191 21.7457C17.3321 20.3007 17.8034 19.4445 18.2666 18.9816C18.5259 18.7223 18.7497 18.3839 18.9317 17.9752C19.1712 17.4391 19.0456 16.7931 18.6196 16.3668L16.4301 14.1769C16.1529 13.9 15.7888 13.7499 15.4065 13.7499Z" fill="url(#paint1_linear_2262_1520)"/>
<path d="M27.1257 21.6243C26.9338 21.6243 26.7419 21.551 26.5955 21.4045L24.7197 19.5288C24.4268 19.2358 24.4268 18.7612 24.7197 18.4683C25.0127 18.1753 25.4873 18.1753 25.7803 18.4683L27.1257 19.8137L30.7197 16.2197C31.0127 15.9268 31.4873 15.9268 31.7803 16.2197C32.0732 16.5127 32.0732 16.9873 31.7803 17.2803L27.656 21.4045C27.5095 21.551 27.3176 21.6243 27.1257 21.6243Z" fill="url(#paint2_linear_2262_1520)"/>
</g>
<defs>
<linearGradient id="paint0_linear_2262_1520" x1="-28.0312" y1="-10.0625" x2="73.3125" y2="69.3594" gradientUnits="userSpaceOnUse">
<stop stop-color="#27AE60"/>
<stop offset="1" stop-color="#0052CC"/>
</linearGradient>
<linearGradient id="paint1_linear_2262_1520" x1="-1.95654" y1="7.32879" x2="47.6074" y2="46.1726" gradientUnits="userSpaceOnUse">
<stop stop-color="#27AE60"/>
<stop offset="1" stop-color="#0052CC"/>
</linearGradient>
<linearGradient id="paint2_linear_2262_1520" x1="19.9297" y1="14.7697" x2="32.6782" y2="28.0925" gradientUnits="userSpaceOnUse">
<stop stop-color="#27AE60"/>
<stop offset="1" stop-color="#0052CC"/>
</linearGradient>
<clipPath id="clip0_2262_1520">
<rect width="24" height="24" fill="white" transform="translate(11 11.5)"/>
</clipPath>
</defs>
</svg>
