<svg width="42" height="40" viewBox="0 0 42 40" fill="none" xmlns="http://www.w3.org/2000/svg">
<path d="M0 10C0 4.47715 4.47715 0 10 0H32C37.5228 0 42 4.47715 42 10V30C42 35.5228 37.5228 40 32 40H10C4.47715 40 0 35.5228 0 30V10Z" fill="#DBEAFE"/>
<path fill-rule="evenodd" clip-rule="evenodd" d="M22.6818 18.0792C21.2298 16.6272 18.7748 16.6822 17.2018 18.2562C15.7978 19.6602 14.7158 20.7412 13.3128 22.1452C11.7388 23.7182 11.6838 26.1732 13.1358 27.6252C14.5878 29.0772 17.0428 29.0222 18.6158 27.4482C19.2138 26.8502 20.5608 25.5042 20.5608 25.5042C20.8528 25.2112 20.8528 24.7362 20.5608 24.4432C20.2678 24.1502 19.7928 24.1502 19.4998 24.4432L17.5548 26.3882C16.5898 27.3532 15.0878 27.4552 14.1968 26.5642C13.3058 25.6732 13.4078 24.1712 14.3728 23.2062L18.2618 19.3172C19.2278 18.3512 20.7298 18.2492 21.6208 19.1402C21.9138 19.4322 22.3888 19.4322 22.6818 19.1402C22.9748 18.8472 22.9748 18.3722 22.6818 18.0792Z" fill="#1C398E"/>
<path fill-rule="evenodd" clip-rule="evenodd" d="M18.793 21.9682C19.496 22.6712 20.45 23.0672 21.444 23.0672C22.439 23.0672 23.393 22.6712 24.096 21.9682C25.582 20.4822 26.853 19.2122 28.339 17.7262C29.042 17.0222 29.437 16.0682 29.437 15.0742C29.437 14.0792 29.042 13.1252 28.339 12.4222C27.636 11.7192 26.682 11.3242 25.687 11.3242C24.693 11.3242 23.739 11.7192 23.035 12.4222C22.394 13.0642 21.66 13.7982 20.914 14.5442C20.621 14.8372 20.621 15.3122 20.914 15.6052C21.206 15.8972 21.682 15.8972 21.974 15.6052L24.096 13.4832C24.518 13.0612 25.09 12.8242 25.687 12.8242C26.284 12.8242 26.856 13.0612 27.278 13.4832C27.7 13.9052 27.937 14.4772 27.937 15.0742C27.937 15.6712 27.7 16.2432 27.278 16.6652L23.035 20.9082C22.614 21.3292 22.041 21.5672 21.444 21.5672C20.848 21.5672 20.275 21.3292 19.853 20.9082C19.561 20.6152 19.086 20.6152 18.793 20.9082C18.5 21.2002 18.5 21.6752 18.793 21.9682Z" fill="#1C398E"/>
</svg>
