<svg width="191" height="173" viewBox="0 0 191 173" fill="none" xmlns="http://www.w3.org/2000/svg">
<g clip-path="url(#clip0_227_835)">
<g clip-path="url(#clip1_227_835)">
<g clip-path="url(#clip2_227_835)">
<path fill-rule="evenodd" clip-rule="evenodd" d="M-6.32693 459.119L-6.72794 459.016L-177.568 415.242L-177.969 415.139L-178.18 414.782L-268.028 263.029L-268.239 262.673L-268.136 262.272L-224.362 91.4321L-224.259 91.0309L-223.902 90.8199L-72.1489 0.972168L-71.7929 0.761169L-71.3909 0.864136L99.4482 44.6382L99.8494 44.7411L100.06 45.0972L189.908 196.851L190.119 197.207L190.016 197.608L146.242 368.448L146.139 368.849L145.783 369.06L-5.97093 458.908L-6.32693 459.119ZM-6.63293 456.976L144.407 367.55L187.976 197.513L98.5505 46.4731L-71.4859 2.90417L-222.527 92.3298L-266.096 262.367L-176.67 413.407L-6.63293 456.976ZM-7.82594 448.628L-8.22694 448.525L-171.209 406.764L-171.611 406.661L-171.822 406.304L-257.537 261.531L-257.748 261.175L-257.645 260.773L-215.884 97.7909L-215.781 97.3896L-215.425 97.1786L-70.6509 11.4631L-70.295 11.2521L-69.8929 11.3552L93.0891 53.1161L93.4904 53.2191L93.7014 53.5751L179.417 198.349L179.628 198.705L179.525 199.107L137.764 362.089L137.661 362.49L137.304 362.701L-7.46893 448.417L-7.82594 448.628ZM-8.13194 446.485L135.929 361.191L177.485 199.012L92.1915 54.9511L-69.989 13.3951L-214.049 98.6885L-255.605 260.868L-170.312 404.929L-8.13194 446.485ZM-9.72495 438.034L-9.32394 438.136L-8.96693 437.925L128.827 356.343L129.183 356.132L129.286 355.73L169.033 200.606L169.136 200.205L168.925 199.849L87.3431 62.0532L87.1321 61.6971L86.7301 61.5941L-68.394 21.8461L-68.795 21.7441L-69.1509 21.9551L-206.947 103.539L-207.303 103.75L-207.406 104.151L-247.154 259.275L-247.257 259.676L-247.045 260.033L-165.461 397.827L-165.25 398.183L-164.849 398.286L-9.72495 438.034ZM127.451 354.833L-9.62994 435.993L-163.952 396.451L-245.113 259.37L-205.571 105.048L-68.489 23.8871L85.8331 63.4291L166.993 200.511L127.451 354.833ZM-10.8229 427.646L-11.2249 427.543L-158.491 389.809L-158.892 389.706L-159.103 389.35L-236.555 258.533L-236.766 258.177L-236.663 257.775L-198.929 110.509L-198.826 110.108L-198.47 109.897L-67.653 32.4452L-67.2959 32.2341L-66.8949 32.3362L80.3711 70.0712L80.7721 70.1732L80.9831 70.5302L158.435 201.347L158.647 201.704L158.544 202.105L120.81 349.371L120.707 349.772L120.35 349.983L-10.4669 427.435L-10.8229 427.646ZM-11.1289 425.503L118.975 348.473L156.503 202.01L79.4731 71.9052L-66.9899 34.3771L-197.095 111.407L-234.623 257.87L-157.593 387.975L-11.1289 425.503ZM-12.7229 417.052L-12.3219 417.155L-11.9649 416.944L111.872 343.624L112.228 343.413L112.331 343.012L148.052 203.603L148.155 203.202L147.944 202.845L74.6241 79.0078L74.4131 78.6515L74.0121 78.5486L-65.3969 42.8282L-65.7979 42.7252L-66.1549 42.9362L-189.992 116.256L-190.349 116.467L-190.452 116.868L-226.172 256.277L-226.275 256.678L-226.064 257.035L-152.745 380.872L-152.534 381.228L-152.132 381.331L-12.7229 417.052ZM110.497 342.114L-12.6279 415.012L-151.235 379.497L-224.132 256.372L-188.617 117.766L-65.4919 44.8682L73.1141 80.3832L146.012 203.508L110.497 342.114ZM-13.8199 406.664L-14.2209 406.561L-145.773 372.853L-146.175 372.75L-146.386 372.394L-215.573 255.536L-215.784 255.18L-215.681 254.779L-181.973 123.227L-181.871 122.825L-181.514 122.614L-64.6569 53.4272L-64.2999 53.2162L-63.8989 53.3192L67.6531 87.0266L68.0551 87.1295L68.2661 87.4858L137.453 204.343L137.664 204.7L137.561 205.101L103.853 336.653L103.751 337.054L103.394 337.266L-13.4639 406.453L-13.8199 406.664ZM-14.1259 404.521L102.019 335.756L135.521 205.006L66.7561 88.8613L-63.9939 55.3592L-180.139 124.124L-213.641 254.874L-144.876 371.019L-14.1259 404.521ZM-15.7189 396.07L-15.3179 396.173L-14.9619 395.962L94.9164 330.907L95.2728 330.696L95.3756 330.294L127.07 206.599L127.173 206.198L126.962 205.842L61.9071 95.9639L61.6961 95.6075L61.2951 95.5046L-62.3999 63.8102L-62.8019 63.7072L-63.1579 63.9182L-173.036 128.973L-173.392 129.184L-173.495 129.585L-205.19 253.281L-205.293 253.682L-205.082 254.038L-140.027 363.916L-139.816 364.272L-139.415 364.375L-15.7189 396.07ZM93.541 329.397L-15.6239 394.029L-138.517 362.541L-203.15 253.376L-171.661 130.483L-62.4959 65.8502L60.3971 97.3393L125.03 206.504L93.541 329.397ZM-16.8169 385.683L-17.2179 385.58L-133.056 355.898L-133.458 355.796L-133.669 355.439L-194.592 252.54L-194.803 252.183L-194.7 251.782L-165.019 135.944L-164.916 135.542L-164.56 135.331L-61.6599 74.4081L-61.3029 74.1971L-60.9019 74.3L54.9361 103.981L55.3371 104.084L55.5481 104.441L116.472 207.34L116.683 207.697L116.58 208.098L86.8981 323.936L86.7961 324.337L86.4391 324.548L-16.4599 385.472L-16.8169 385.683ZM-17.1229 383.54L85.0641 323.038L114.54 208.003L54.0381 105.816L-60.9969 76.3403L-163.184 136.841L-192.66 251.877L-132.159 354.064L-17.1229 383.54ZM-18.7159 375.089L-18.3149 375.192L-17.9589 374.98L77.9611 318.19L78.3181 317.979L78.4211 317.577L106.089 209.596L106.192 209.195L105.981 208.838L49.1901 112.919L48.9791 112.562L48.5781 112.459L-59.4039 84.7911L-59.8049 84.6884L-60.1619 84.8994L-156.081 141.69L-156.438 141.901L-156.541 142.302L-184.209 250.284L-184.312 250.685L-184.101 251.042L-127.31 346.961L-127.099 347.318L-126.698 347.421L-18.7159 375.089ZM76.5861 316.68L-18.6209 373.048L-125.8 345.586L-182.169 250.379L-154.706 143.2L-59.4989 86.8314L47.6801 114.294L104.049 209.501L76.5861 316.68ZM-19.8129 364.7L-20.2139 364.597L-120.339 338.942L-120.74 338.84L-120.951 338.483L-173.609 249.543L-173.82 249.187L-173.718 248.786L-148.063 148.661L-147.96 148.26L-147.603 148.049L-58.6629 95.3906L-58.3069 95.1794L-57.9059 95.2823L42.2191 120.937L42.6201 121.04L42.8311 121.397L95.4896 210.337L95.7007 210.693L95.5979 211.094L69.9431 311.219L69.8401 311.62L69.4841 311.831L-19.4569 364.489L-19.8129 364.7ZM-20.1189 362.557L68.1081 310.321L93.5576 210.999L41.3211 122.772L-58.0009 97.3226L-146.228 149.559L-171.677 248.881L-119.441 337.108L-20.1189 362.557ZM-21.7129 354.106L-21.3119 354.209L-20.9549 353.998L61.0051 305.472L61.3621 305.261L61.4641 304.86L85.1061 212.593L85.2091 212.191L84.9981 211.835L36.4721 129.875L36.2611 129.518L35.8601 129.415L-56.4079 105.773L-56.8089 105.671L-57.1649 105.882L-139.126 154.407L-139.482 154.619L-139.585 155.02L-163.227 247.287L-163.329 247.689L-163.118 248.045L-114.593 330.005L-114.382 330.362L-113.98 330.464L-21.7129 354.106ZM59.6301 303.962L-21.6179 352.066L-113.083 328.63L-161.186 247.383L-137.75 155.917L-56.5029 107.814L34.9621 131.25L83.0661 212.497L59.6301 303.962ZM-22.8099 343.719L-23.2109 343.616L-107.622 321.988L-108.023 321.885L-108.234 321.529L-152.628 246.547L-152.839 246.19L-152.737 245.789L-131.108 161.378L-131.005 160.977L-130.649 160.766L-55.6669 116.372L-55.3099 116.161L-54.9089 116.263L29.5021 137.892L29.9031 137.995L30.1141 138.351L74.5081 213.333L74.7191 213.69L74.6171 214.091L52.9881 298.502L52.8851 298.903L52.5291 299.114L-22.4539 343.508L-22.8099 343.719ZM-23.1159 341.576L51.1531 297.604L72.5761 213.996L28.6041 139.727L-55.0039 118.304L-129.273 162.276L-150.696 245.884L-106.724 320.153L-23.1159 341.576ZM-24.7089 333.125L-24.3079 333.228L-23.9519 333.017L44.0511 292.755L44.4071 292.544L44.5101 292.143L64.1251 215.589L64.2281 215.188L64.0171 214.832L23.7551 146.829L23.5441 146.473L23.1431 146.37L-53.4109 126.755L-53.8119 126.652L-54.1679 126.863L-122.171 167.125L-122.527 167.336L-122.63 167.737L-142.245 244.291L-142.348 244.692L-142.137 245.048L-101.875 313.051L-101.664 313.407L-101.263 313.51L-24.7089 333.125ZM42.6751 291.245L-24.6139 331.085L-100.365 311.675L-140.205 244.386L-120.795 168.635L-53.5059 128.795L22.2461 148.205L62.0851 215.494L42.6751 291.245ZM-25.8069 322.737L-26.2079 322.634L-94.9049 305.032L-95.3059 304.929L-95.5169 304.573L-131.646 243.55L-131.857 243.194L-131.754 242.792L-114.152 174.096L-114.049 173.694L-113.693 173.483L-52.6699 137.354L-52.3139 137.143L-51.9129 137.246L16.7841 154.848L17.1851 154.951L17.3961 155.307L53.5261 216.33L53.7371 216.686L53.6341 217.088L36.0321 285.784L35.9291 286.186L35.5721 286.397L-25.4499 322.526L-25.8069 322.737ZM-26.1129 320.594L34.1971 284.887L51.5941 216.992L15.8861 156.683L-52.0079 139.286L-112.318 174.993L-129.714 242.888L-94.0069 303.197L-26.1129 320.594ZM-27.7049 312.143L-27.3039 312.246L-26.9479 312.035L27.0951 280.038L27.4521 279.827L27.5541 279.426L43.1431 218.586L43.2461 218.185L43.0351 217.828L11.0381 163.785L10.8271 163.429L10.4261 163.326L-50.4139 147.737L-50.8149 147.634L-51.1719 147.845L-105.214 179.842L-105.571 180.053L-105.674 180.454L-121.263 241.294L-121.365 241.695L-121.154 242.052L-89.1579 296.095L-88.9469 296.451L-88.545 296.554L-27.7049 312.143ZM25.7201 278.528L-27.6099 310.103L-87.6479 294.719L-119.222 241.389L-103.839 181.352L-50.5089 149.777L9.52806 165.161L41.1031 218.491L25.7201 278.528ZM-28.8029 301.754L-29.2039 301.652L-82.187 288.076L-82.588 287.973L-82.799 287.617L-110.664 240.554L-110.875 240.197L-110.772 239.796L-97.196 186.813L-97.0929 186.412L-96.7369 186.201L-49.6739 158.336L-49.3169 158.125L-48.9159 158.228L4.06706 171.804L4.46806 171.907L4.67906 172.263L32.5441 219.326L32.7551 219.683L32.6521 220.084L19.0761 273.067L18.9731 273.468L18.6171 273.679L-28.4459 301.543L-28.8029 301.754ZM-29.1089 299.611L17.2411 272.169L30.6121 219.989L3.16907 173.639L-49.0109 160.268L-95.3609 187.711L-108.732 239.891L-81.2889 286.241L-29.1089 299.611ZM-30.7019 291.162L-30.3009 291.265L-29.9449 291.054L10.1401 267.321L10.4971 267.11L10.5991 266.709L22.1621 221.583L22.2651 221.181L22.0541 220.825L-1.67894 180.74L-1.88994 180.384L-2.29094 180.281L-47.4169 168.718L-47.8179 168.615L-48.1749 168.826L-88.2599 192.559L-88.6159 192.77L-88.7189 193.171L-100.282 238.297L-100.385 238.699L-100.174 239.055L-76.4409 279.14L-76.2299 279.496L-75.8279 279.599L-30.7019 291.162ZM8.76506 265.811L-30.6069 289.122L-74.9309 277.765L-98.2419 238.393L-86.8839 194.069L-47.5119 170.758L-3.18893 182.115L20.1221 221.487L8.76506 265.811Z" fill="url(#paint0_linear_227_835)"/>
</g>
</g>
</g>
<defs>
<linearGradient id="paint0_linear_227_835" x1="-20.9999" y1="196" x2="100.5" y2="42.5002" gradientUnits="userSpaceOnUse">
<stop stop-color="#003D2B" stop-opacity="0.21"/>
<stop offset="1" stop-color="#F3F3F3"/>
</linearGradient>
<clipPath id="clip0_227_835">
<rect width="191" height="173" fill="white" transform="matrix(-1 0 0 -1 191 173)"/>
</clipPath>
<clipPath id="clip1_227_835">
<rect width="191" height="173" fill="white" transform="matrix(-1 0 0 -1 191 173)"/>
</clipPath>
<clipPath id="clip2_227_835">
<rect width="191" height="173" fill="white" transform="matrix(-1 0 0 -1 191 173)"/>
</clipPath>
</defs>
</svg>
