<svg width="213" height="199" viewBox="0 0 213 199" fill="none" xmlns="http://www.w3.org/2000/svg">
<g clip-path="url(#clip0_78_2691)">
<g clip-path="url(#clip1_78_2691)">
<path fill-rule="evenodd" clip-rule="evenodd" d="M220.155 521.504L220.608 521.388L413.81 472.047L414.263 471.931L414.502 471.529L516.11 300.478L516.349 300.076L516.232 299.624L466.729 107.059L466.612 106.607L466.208 106.369L294.592 5.09552L294.19 4.85767L293.735 4.97369L100.535 54.3144L100.081 54.4305L99.8426 54.8318L-1.76525 225.883L-2.00391 226.285L-1.88764 226.738L47.6164 419.303L47.7326 419.755L48.1357 419.992L219.752 521.266L220.155 521.504ZM220.501 519.088L49.6911 418.29L0.419638 226.63L101.55 56.3827L293.843 7.27319L464.653 108.071L513.925 299.731L412.794 469.979L220.501 519.088ZM221.85 509.679L222.304 509.563L406.618 462.491L407.073 462.375L407.312 461.973L504.246 298.789L504.484 298.387L504.368 297.935L457.141 114.226L457.024 113.774L456.622 113.536L292.898 16.9206L292.496 16.6827L292.041 16.7989L107.726 63.8705L107.273 63.9866L107.034 64.3878L10.0995 227.572L9.86081 227.974L9.97717 228.426L57.2044 412.135L57.3206 412.587L57.7237 412.825L221.446 509.441L221.85 509.679ZM222.196 507.263L59.2791 411.123L12.2844 228.319L108.742 65.9388L292.15 19.0983L455.066 115.238L502.061 298.042L405.604 460.423L222.196 507.263ZM223.998 497.738L223.544 497.853L223.141 497.615L67.3113 405.658L66.9082 405.42L66.7918 404.967L21.8417 230.116L21.7254 229.664L21.964 229.262L114.225 73.944L114.463 73.5427L114.918 73.4266L290.346 28.6239L290.799 28.509L291.202 28.7468L447.034 120.705L447.437 120.943L447.553 121.395L492.504 296.246L492.62 296.698L492.381 297.1L400.118 452.418L399.879 452.819L399.426 452.935L223.998 497.738ZM68.8666 403.956L223.89 495.437L398.412 450.867L490.196 296.353L445.478 122.407L290.453 30.9245L115.932 75.495L24.1489 230.009L68.8666 403.956ZM225.239 486.029L225.694 485.912L392.236 443.38L392.689 443.264L392.928 442.863L480.518 295.41L480.756 295.008L480.64 294.556L437.967 128.562L437.85 128.11L437.448 127.872L289.508 40.5708L289.104 40.3329L288.651 40.448L122.109 82.9816L121.656 83.0966L121.417 83.499L33.8269 230.952L33.5881 231.353L33.7045 231.806L76.3776 397.8L76.4939 398.252L76.8969 398.489L224.837 485.791L225.239 486.029ZM225.586 483.613L78.4523 396.787L36.0117 231.698L123.125 85.0489L288.758 42.7485L435.893 129.574L478.333 294.663L391.22 441.313L225.586 483.613ZM227.388 474.087L226.935 474.203L226.531 473.966L86.4849 391.322L86.0819 391.084L85.9656 390.632L45.5692 233.494L45.453 233.042L45.6916 232.64L128.608 93.0548L128.847 92.6531L129.3 92.5372L286.957 52.2742L287.41 52.1581L287.814 52.3959L427.86 135.039L428.264 135.277L428.38 135.729L468.776 292.867L468.892 293.319L468.653 293.721L385.738 433.306L385.499 433.708L385.044 433.824L227.388 474.087ZM88.0404 389.62L227.281 471.788L384.03 431.757L466.468 292.974L426.305 136.741L287.064 54.5736L130.316 94.6051L47.8765 233.387L88.0404 389.62ZM228.629 462.378L229.082 462.262L377.853 424.268L378.308 424.152L378.546 423.75L456.789 292.032L457.028 291.63L456.911 291.178L418.791 142.897L418.676 142.444L418.272 142.207L286.12 64.221L285.716 63.9832L285.263 64.0993L136.492 102.093L136.037 102.209L135.799 102.611L57.5558 234.329L57.3171 234.731L57.4334 235.183L95.5531 383.464L95.6695 383.916L96.0725 384.155L228.226 462.141L228.629 462.378ZM228.975 459.963L97.6278 382.453L59.7406 235.076L137.506 104.161L285.37 66.3987L416.717 143.909L454.604 291.285L376.839 422.2L228.975 459.963ZM230.776 450.437L230.323 450.553L229.92 450.315L105.66 376.988L105.257 376.75L105.141 376.297L69.2977 236.872L69.1813 236.42L69.42 236.018L142.99 112.167L143.228 111.765L143.682 111.649L283.567 75.9244L284.022 75.8083L284.425 76.0462L408.685 149.374L409.087 149.612L409.204 150.064L445.047 289.489L445.164 289.942L444.925 290.343L371.355 414.194L371.116 414.595L370.663 414.712L230.776 450.437ZM107.215 375.285L230.669 448.137L369.647 412.644L442.74 289.597L407.13 151.076L283.676 78.2238L144.697 113.717L71.6049 236.765L107.215 375.285ZM232.018 438.729L232.472 438.613L363.472 405.157L363.926 405.042L364.165 404.639L433.062 288.654L433.301 288.252L433.184 287.8L399.618 157.231L399.502 156.779L399.099 156.541L282.731 87.8701L282.327 87.6323L281.873 87.7482L150.873 121.204L150.42 121.32L150.181 121.722L81.2833 237.707L81.0447 238.109L81.1609 238.561L114.728 369.13L114.843 369.582L115.247 369.82L231.614 438.491L232.018 438.729ZM232.364 436.314L116.802 368.118L83.4682 238.454L151.889 123.272L281.981 90.048L397.543 158.243L430.877 287.908L362.457 403.089L232.364 436.314ZM234.166 426.788L233.712 426.904L233.31 426.665L124.835 362.653L124.431 362.415L124.314 361.962L93.0251 240.25L92.9088 239.797L93.1475 239.396L157.371 131.278L157.61 130.876L158.063 130.76L280.179 99.5735L280.633 99.4577L281.036 99.6955L389.51 163.708L389.914 163.946L390.03 164.398L421.32 286.112L421.436 286.564L421.198 286.966L356.973 395.083L356.735 395.485L356.281 395.602L234.166 426.788ZM126.39 360.951L234.058 424.487L355.266 393.533L419.013 286.219L387.955 165.41L280.287 101.873L159.079 132.828L95.3323 240.142L126.39 360.951ZM235.406 415.078L235.86 414.962L349.09 386.044L349.544 385.929L349.782 385.527L409.333 285.277L409.571 284.875L409.456 284.423L380.443 171.566L380.326 171.113L379.923 170.875L279.341 111.521L278.939 111.283L278.485 111.399L165.255 140.316L164.801 140.432L164.563 140.834L105.012 241.084L104.773 241.486L104.889 241.938L133.902 354.796L134.019 355.248L134.421 355.486L235.004 414.84L235.406 415.078ZM235.752 412.662L135.977 353.784L107.197 241.831L166.27 142.384L278.593 113.699L378.368 172.577L407.148 284.53L348.074 383.977L235.752 412.662ZM237.555 403.137L237.101 403.253L236.698 403.015L144.01 348.318L143.606 348.08L143.491 347.628L116.754 243.627L116.638 243.175L116.876 242.773L171.754 150.39L171.993 149.988L172.446 149.872L276.791 123.224L277.245 123.108L277.647 123.346L370.336 178.043L370.739 178.281L370.855 178.733L397.592 282.734L397.707 283.186L397.468 283.588L342.592 375.971L342.353 376.373L341.899 376.488L237.555 403.137ZM145.565 346.616L237.447 400.837L340.884 374.421L395.284 282.841L368.78 179.745L276.899 125.524L173.462 151.94L119.061 243.52L145.565 346.616ZM238.795 391.429L239.249 391.313L334.709 366.934L335.162 366.818L335.401 366.417L385.605 281.899L385.844 281.497L385.729 281.045L361.269 185.9L361.152 185.448L360.749 185.21L275.953 135.17L275.549 134.932L275.096 135.048L179.636 159.427L179.183 159.543L178.944 159.945L128.74 244.462L128.501 244.864L128.616 245.316L153.076 340.462L153.193 340.914L153.595 341.151L238.393 391.191L238.795 391.429ZM239.142 389.013L155.151 339.449L130.924 245.209L180.652 161.495L275.203 137.348L359.193 186.912L383.42 281.152L333.693 364.866L239.142 389.013ZM240.943 379.488L240.49 379.604L240.087 379.366L163.183 333.984L162.78 333.746L162.664 333.294L140.482 247.005L140.365 246.553L140.604 246.151L186.136 169.501L186.374 169.099L186.828 168.983L273.402 146.873L273.855 146.757L274.258 146.995L351.162 192.377L351.564 192.615L351.681 193.067L373.863 279.356L373.98 279.808L373.741 280.21L328.209 356.861L327.971 357.262L327.517 357.378L240.943 379.488ZM164.739 332.282L240.836 377.188L326.502 355.31L371.556 279.463L349.606 194.079L273.509 149.173L187.842 171.051L142.789 246.898L164.739 332.282ZM242.185 367.779L242.638 367.662L320.327 347.822L320.78 347.706L321.019 347.305L361.877 278.521L362.116 278.12L361.999 277.667L342.093 200.235L341.977 199.782L341.574 199.544L272.564 158.821L272.161 158.583L271.708 158.699L194.019 178.539L193.566 178.655L193.327 179.057L152.468 247.84L152.229 248.242L152.346 248.694L172.252 326.126L172.368 326.579L172.772 326.817L241.781 367.541L242.185 367.779ZM242.531 365.363L174.327 325.115L154.653 248.586L195.035 180.607L271.815 160.998L340.019 201.246L359.692 277.775L319.311 345.754L242.531 365.363ZM244.331 355.837L243.878 355.953L243.475 355.716L182.358 319.65L181.955 319.412L181.839 318.96L164.21 250.383L164.093 249.93L164.332 249.529L200.517 188.613L200.756 188.211L201.209 188.096L270.013 170.524L270.466 170.408L270.87 170.646L331.985 206.712L332.389 206.95L332.506 207.402L350.135 275.979L350.25 276.431L350.012 276.833L313.828 337.749L313.589 338.15L313.135 338.266L244.331 355.837ZM183.913 317.948L244.224 353.538L312.12 336.198L347.827 276.086L330.43 208.414L270.12 172.824L202.225 190.163L166.517 250.275L183.913 317.948ZM245.573 344.127L246.026 344.012L305.944 328.71L306.398 328.594L306.636 328.192L338.149 275.144L338.387 274.742L338.271 274.29L322.918 214.569L322.801 214.117L322.399 213.879L269.176 182.471L268.772 182.233L268.318 182.349L208.401 197.652L207.947 197.768L207.708 198.169L176.196 251.217L175.958 251.619L176.074 252.071L191.427 311.792L191.543 312.244L191.946 312.482L245.169 343.889L245.573 344.127ZM245.919 341.712L193.502 310.78L178.381 251.964L209.416 199.72L268.426 184.649L320.843 215.581L335.964 274.397L304.929 326.641L245.919 341.712ZM247.72 332.188L247.267 332.304L246.864 332.066L201.533 305.315L201.129 305.077L201.014 304.625L187.937 253.76L187.821 253.308L188.059 252.906L214.899 207.724L215.137 207.322L215.591 207.206L266.623 194.173L267.077 194.057L267.48 194.295L312.812 221.046L313.215 221.284L313.331 221.736L326.408 272.601L326.524 273.053L326.286 273.455L299.446 318.637L299.208 319.039L298.753 319.155L247.72 332.188ZM203.088 303.613L247.613 329.889L297.739 317.088L324.101 272.708L311.256 222.748L266.731 196.473L216.606 209.274L190.244 253.653L203.088 303.613Z" fill="url(#paint0_linear_78_2691)"/>
</g>
</g>
<defs>
<linearGradient id="paint0_linear_78_2691" x1="236.749" y1="224.925" x2="99.902" y2="51.4654" gradientUnits="userSpaceOnUse">
<stop stop-color="#003D2B" stop-opacity="0.21"/>
<stop offset="1" stop-color="#F3F3F3"/>
</linearGradient>
<clipPath id="clip0_78_2691">
<rect width="213" height="199" fill="white" transform="matrix(1 0 0 -1 0 199)"/>
</clipPath>
<clipPath id="clip1_78_2691">
<rect width="216" height="195" fill="white" transform="matrix(1 0 0 -1 -3 199)"/>
</clipPath>
</defs>
</svg>
