<svg width="20" height="20" viewBox="0 0 20 20" fill="none" xmlns="http://www.w3.org/2000/svg">
<g clip-path="url(#clip0_78_1837)">
<path d="M15.3125 0H4.6875C2.09867 0 0 2.09867 0 4.6875V15.3125C0 17.9013 2.09867 20 4.6875 20H15.3125C17.9013 20 20 17.9013 20 15.3125V4.6875C20 2.09867 17.9013 0 15.3125 0Z" fill="#0073AA"/>
<path d="M3.29785 9.99941C3.29785 12.6521 4.83949 14.9446 7.07496 16.0311L3.87809 7.27199C3.49495 8.13019 3.29724 9.05958 3.29785 9.99941ZM14.5239 9.66121C14.5239 8.83301 14.2264 8.25941 13.9713 7.81293C13.6315 7.2609 13.3131 6.7934 13.3131 6.24137C13.3131 5.62527 13.7804 5.05184 14.4385 5.05184C14.4682 5.05184 14.4964 5.05551 14.5254 5.05715C13.333 3.9648 11.7445 3.29785 9.99965 3.29785C7.6584 3.29785 5.59848 4.4991 4.4002 6.31863C4.55738 6.32332 4.70559 6.32668 4.83145 6.32668C5.53246 6.32668 6.61754 6.24152 6.61754 6.24152C6.97879 6.22027 7.02145 6.7509 6.66051 6.79363C6.66051 6.79363 6.29746 6.83637 5.89348 6.85754L8.33395 14.1168L9.80059 9.71809L8.75645 6.8573C8.39559 6.83613 8.05371 6.7934 8.05371 6.7934C7.69254 6.77223 7.73488 6.22004 8.09606 6.24137C8.09606 6.24137 9.20277 6.32637 9.86129 6.32637C10.5622 6.32637 11.6474 6.24137 11.6474 6.24137C12.0089 6.22004 12.0514 6.75066 11.6904 6.7934C11.6904 6.7934 11.3265 6.83613 10.9233 6.8573L13.3453 14.0615L14.0137 11.8278C14.3035 10.9007 14.5239 10.235 14.5239 9.66121Z" fill="white"/>
<path d="M10.1172 10.5857L8.10645 16.4287C8.72122 16.6098 9.35877 16.7017 9.99965 16.7018C10.7576 16.702 11.5101 16.5735 12.2251 16.3218C12.2065 16.2925 12.1906 16.2616 12.1775 16.2295L10.1172 10.5857ZM15.8802 6.78418C15.9106 7.0126 15.9257 7.2428 15.9254 7.47324C15.9254 8.15332 15.7983 8.91785 15.4157 9.87379L13.3686 15.7925C15.3611 14.6306 16.7012 12.4721 16.7012 9.99965C16.7013 8.83441 16.4037 7.73871 15.8802 6.78418Z" fill="white"/>
<path d="M9.99984 2.1875C5.69219 2.1875 2.1875 5.69195 2.1875 9.99953C2.1875 14.3077 5.69219 17.812 9.99984 17.812C14.3073 17.812 17.8125 14.3077 17.8125 9.99953C17.8123 5.69195 14.3073 2.1875 9.99984 2.1875ZM9.99984 17.4539C5.88969 17.4539 2.5457 14.1098 2.5457 9.99953C2.5457 5.88945 5.88961 2.5457 9.99984 2.5457C14.1098 2.5457 17.4535 5.88945 17.4535 9.99953C17.4535 14.1098 14.1098 17.4539 9.99984 17.4539Z" fill="white"/>
</g>
<defs>
<clipPath id="clip0_78_1837">
<rect width="20" height="20" fill="white"/>
</clipPath>
</defs>
</svg>
