<svg width="10" height="11" viewBox="0 0 10 11" fill="none" xmlns="http://www.w3.org/2000/svg">
<path d="M1.0374 6.48572C0.943662 6.48604 0.85176 6.45976 0.772368 6.40993C0.692976 6.36009 0.629354 6.28875 0.588893 6.2042C0.548432 6.11965 0.532792 6.02535 0.543792 5.93226C0.554792 5.83917 0.591979 5.75112 0.651033 5.67832L5.55489 0.625867C5.59167 0.583407 5.6418 0.554715 5.69704 0.544499C5.75228 0.534283 5.80935 0.543152 5.85889 0.569648C5.90843 0.596144 5.94748 0.638695 5.96965 0.690314C5.99182 0.741934 5.99578 0.799557 5.98088 0.853723L5.02983 3.83566C5.00178 3.91072 4.99236 3.99146 5.00238 4.07095C5.0124 4.15045 5.04155 4.22633 5.08733 4.29208C5.13311 4.35783 5.19417 4.4115 5.26525 4.44847C5.33633 4.48545 5.41532 4.50463 5.49544 4.50437H8.96282C9.05655 4.50405 9.14845 4.53033 9.22784 4.58017C9.30724 4.63 9.37086 4.70134 9.41132 4.78589C9.45178 4.87044 9.46742 4.96474 9.45642 5.05783C9.44542 5.15092 9.40823 5.23898 9.34918 5.31177L4.44533 10.3642C4.40854 10.4067 4.35842 10.4354 4.30317 10.4456C4.24793 10.4558 4.19086 10.4469 4.14132 10.4204C4.09179 10.3939 4.05273 10.3514 4.03056 10.2998C4.0084 10.2482 4.00444 10.1905 4.01934 10.1364L4.97039 7.15443C4.99843 7.07937 5.00785 6.99864 4.99783 6.91914C4.98782 6.83965 4.95867 6.76377 4.91288 6.69801C4.8671 6.63226 4.80605 6.57859 4.73496 6.54162C4.66388 6.50464 4.58489 6.48546 4.50477 6.48572H1.0374Z" stroke="#D094DD" stroke-linecap="round" stroke-linejoin="round"/>
</svg>
