<svg width="176" height="198" viewBox="0 0 176 198" fill="none" xmlns="http://www.w3.org/2000/svg">
<path d="M174 185.422C174 185.974 174.448 186.422 175 186.422C175.552 186.422 176 185.974 176 185.422L175 185.422L174 185.422ZM175 0L174 4.37114e-08L174 1.49534L175 1.49534L176 1.49534L176 -4.37114e-08L175 0ZM175 4.48601L174 4.48601L174 7.47668L175 7.47668L176 7.47668L176 4.48601L175 4.48601ZM175 10.4674L174 10.4674L174 13.458L175 13.458L176 13.458L176 10.4674L175 10.4674ZM175 16.4487L174 16.4487L174 19.4394L175 19.4394L176 19.4394L176 16.4487L175 16.4487ZM175 22.43L174 22.43L174 25.4207L175 25.4207L176 25.4207L176 22.43L175 22.43ZM175 28.4114L174 28.4114L174 31.4021L175 31.4021L176 31.4021L176 28.4114L175 28.4114ZM175 34.3927L174 34.3927L174 37.3834L175 37.3834L176 37.3834L176 34.3927L175 34.3927ZM175 40.3741L174 40.3741L174 43.3648L175 43.3648L176 43.3648L176 40.3741L175 40.3741ZM175 46.3554L174 46.3554L174 49.3461L175 49.3461L176 49.3461L176 46.3554L175 46.3554ZM175 52.3368L174 52.3368L174 55.3274L175 55.3274L176 55.3274L176 52.3368L175 52.3368ZM175 58.3181L174 58.3181L174 61.3088L175 61.3088L176 61.3088L176 58.3181L175 58.3181ZM175 64.2995L174 64.2995L174 67.2901L175 67.2901L176 67.2901L176 64.2995L175 64.2995ZM175 70.2808L174 70.2808L174 73.2715L175 73.2715L176 73.2715L176 70.2808L175 70.2808ZM175 76.2621L174 76.2621L174 79.2528L175 79.2528L176 79.2528L176 76.2621L175 76.2621ZM175 82.2435L174 82.2435L174 85.2341L175 85.2341L176 85.2341L176 82.2435L175 82.2435ZM175 88.2248L174 88.2248L174 91.2155L175 91.2155L176 91.2155L176 88.2248L175 88.2248ZM175 94.2062L174 94.2062L174 97.1968L175 97.1968L176 97.1968L176 94.2062L175 94.2062ZM175 100.188L174 100.188L174 103.178L175 103.178L176 103.178L176 100.187L175 100.188ZM175 106.169L174 106.169L174 109.16L175 109.16L176 109.16L176 106.169L175 106.169ZM175 112.15L174 112.15L174 115.141L175 115.141L176 115.141L176 112.15L175 112.15ZM175 118.132L174 118.132L174 121.122L175 121.122L176 121.122L176 118.132L175 118.132ZM175 124.113L174 124.113L174 127.104L175 127.104L176 127.104L176 124.113L175 124.113ZM175 130.094L174 130.094L174 133.085L175 133.085L176 133.085L176 130.094L175 130.094ZM175 136.076L174 136.076L174 139.066L175 139.066L176 139.066L176 136.076L175 136.076ZM175 142.057L174 142.057L174 145.048L175 145.048L176 145.048L176 142.057L175 142.057ZM175 148.038L174 148.038L174 151.029L175 151.029L176 151.029L176 148.038L175 148.038ZM175 154.02L174 154.02L174 157.01L175 157.01L176 157.01L176 154.02L175 154.02ZM175 160.001L174 160.001L174 162.992L175 162.992L176 162.992L176 160.001L175 160.001ZM175 165.982L174 165.982L174 168.973L175 168.973L176 168.973L176 165.982L175 165.982ZM175 171.964L174 171.964L174 174.954L175 174.954L176 174.954L176 171.964L175 171.964ZM175 177.945L174 177.945L174 180.936L175 180.936L176 180.936L176 177.945L175 177.945ZM175 183.926L174 183.926L174 185.422L175 185.422L176 185.422L176 183.926L175 183.926Z" fill="#1E357E"/>
<path d="M0.292893 189.293C-0.0976311 189.683 -0.0976311 190.317 0.292893 190.707L6.65685 197.071C7.04738 197.462 7.68054 197.462 8.07107 197.071C8.46159 196.681 8.46159 196.047 8.07107 195.657L2.41421 190L8.07107 184.343C8.46159 183.953 8.46159 183.319 8.07107 182.929C7.68054 182.538 7.04738 182.538 6.65685 182.929L0.292893 189.293ZM1 190V191H2.49138V190V189H1V190ZM5.47414 190V191H8.4569V190V189H5.47414V190ZM11.4397 190V191H14.4224V190V189H11.4397V190ZM17.4052 190V191H20.3879V190V189H17.4052V190ZM23.3707 190V191H26.3534V190V189H23.3707V190ZM29.3362 190V191H32.319V190V189H29.3362V190ZM35.3017 190V191H38.2845V190V189H35.3017V190ZM41.2672 190V191H44.25V190V189H41.2672V190ZM47.2327 190V191H50.2155V190V189H47.2327V190ZM53.1983 190V191H56.181V190V189H53.1983V190ZM59.1638 190V191H62.1465V190V189H59.1638V190ZM65.1293 190V191H68.1121V190V189H65.1293V190ZM71.0948 190V191H74.0776V190V189H71.0948V190ZM77.0603 190V191H80.0431V190V189H77.0603V190ZM83.0258 190V191H86.0086V190V189H83.0258V190ZM88.9914 190V191H91.9741V190V189H88.9914V190ZM94.9569 190V191H97.9396V190V189H94.9569V190ZM100.922 190V191H103.905V190V189H100.922V190ZM106.888 190V191H109.871V190V189H106.888V190ZM112.853 190V191H115.836V190V189H112.853V190ZM118.819 190V191H121.802V190V189H118.819V190ZM124.784 190V191H127.767V190V189H124.784V190ZM130.75 190V191H133.733V190V189H130.75V190ZM136.715 190V191H139.698V190V189H136.715V190ZM142.681 190V191H145.664V190V189H142.681V190ZM148.647 190V191H151.629V190V189H148.647V190ZM154.612 190V191H157.595V190V189H154.612V190ZM160.578 190V191H163.56V190V189H160.578V190ZM166.543 190V191H169.526V190V189H166.543V190ZM172.509 190V191H174V190V189H172.509V190Z" fill="#1E357E"/>
</svg>
