<svg width="68" height="15" viewBox="0 0 68 15" fill="none" xmlns="http://www.w3.org/2000/svg">
<path d="M1.00741 6.41091C0.451032 6.41091 0 6.86194 0 7.41832C0 7.97469 0.451032 8.42572 1.00741 8.42572V7.41832V6.41091ZM67.7049 8.13066C68.0984 7.73724 68.0984 7.09939 67.7049 6.70597L61.2938 0.29487C60.9004 -0.0985473 60.2626 -0.0985473 59.8691 0.29487C59.4757 0.688287 59.4757 1.32614 59.8691 1.71956L65.5679 7.41832L59.8691 13.1171C59.4757 13.5105 59.4757 14.1483 59.8691 14.5418C60.2626 14.9352 60.9004 14.9352 61.2938 14.5418L67.7049 8.13066ZM1.00741 7.41832V8.42572H2.50707V7.41832V6.41091H1.00741V7.41832ZM5.5064 7.41832V8.42572H8.50572V7.41832V6.41091H5.5064V7.41832ZM11.5051 7.41832V8.42572H14.5044V7.41832V6.41091H11.5051V7.41832ZM17.5037 7.41832V8.42572H20.503V7.41832V6.41091H17.5037V7.41832ZM23.5024 7.41832V8.42572H26.5017V7.41832V6.41091H23.5024V7.41832ZM29.501 7.41832V8.42572H32.5003V7.41832V6.41091H29.501V7.41832ZM35.4997 7.41832V8.42572H38.499V7.41832V6.41091H35.4997V7.41832ZM41.4983 7.41832V8.42572H44.4976V7.41832V6.41091H41.4983V7.41832ZM47.497 7.41832V8.42572H50.4963V7.41832V6.41091H47.497V7.41832ZM53.4956 7.41832V8.42572H56.4949V7.41832V6.41091H53.4956V7.41832ZM59.4943 7.41832V8.42572H62.4936V7.41832V6.41091H59.4943V7.41832ZM65.4929 7.41832V8.42572H66.9926V7.41832V6.41091H65.4929V7.41832Z" fill="#1E357E"/>
</svg>
